P2
# Eso2.pgm
150 100
255
1 1 2 2 2 2 2 3 3 3 3 3 4 4 4 5 5 7 7 7 8 8 8 10 10 10 10 11 11 11 12 12 12 12 13 14 14 14 14 15 14 15 15 15 16 17 16 16 18 18 18 19 19 20 20 21 21 21 21 22 23 23 23 23 23 23 24 24 24 24 24 24 23 23 23 23 22 22 21 21 21 20 20 20 19 18 18 18 17 17 17 17 16 16 16 15 15 15 15 14 14 14 13 12 12 12 11 10 9 8 8 7 7 6 5 5 4 4 3 4 3 3 4 4 3 3 3 3 3 3 3 3 3 3 3 3 4 3 4 3 3 4 4 4 4 4 4 4 4 4
1 1 2 2 2 2 3 3 3 3 3 3 4 4 4 4 5 7 7 7 8 8 8 10 10 10 10 11 11 11 12 12 12 12 13 14 14 15 15 15 15 15 16 16 17 17 17 17 18 19 19 20 20 20 21 22 22 23 23 24 24 24 25 25 26 25 25 25 25 25 25 25 25 25 25 24 24 24 24 23 22 22 21 21 21 20 20 20 19 19 19 18 18 18 18 18 17 16 16 15 15 15 14 14 13 12 12 11 10 10 8 8 7 7 7 5 4 4 3 4 3 3 4 3 3 3 3 3 3 3 3 3 3 3 3 3 3 3 4 4 4 4 4 4 4 4 4 4 4 4
2 2 2 2 2 2 2 3 3 3 3 3 4 4 4 5 5 7 7 7 7 8 9 10 10 10 11 12 11 12 12 12 13 13 14 14 15 15 15 15 16 16 17 17 17 17 18 18 19 20 21 21 21 22 23 23 24 24 25 25 26 26 27 28 28 27 27 27 28 27 27 27 27 27 27 26 26 26 25 25 24 24 24 23 22 22 21 21 21 21 20 20 20 19 19 19 18 17 17 17 16 15 15 14 14 13 12 12 11 11 10 9 8 7 7 6 6 4 4 4 4 3 3 3 3 3 3 3 3 3 3 3 3 3 3 3 3 3 4 4 4 4 4 4 4 4 4 4 4 4
2 2 2 2 2 2 2 3 3 3 3 3 4 4 4 4 5 7 7 7 8 8 10 10 10 10 11 12 12 12 12 12 13 13 14 14 15 16 16 16 16 16 17 18 18 18 19 20 21 21 21 22 23 24 24 25 26 26 27 27 28 28 29 30 29 29 29 29 30 30 29 29 29 29 29 29 27 27 27 27 26 26 25 25 24 24 24 23 22 23 22 22 21 21 20 20 20 18 18 18 17 17 16 15 15 14 13 13 12 12 11 10 8 8 7 7 6 5 4 4 4 4 3 3 3 3 3 3 3 3 3 3 3 3 3 3 3 3 3 3 4 4 4 4 4 4 4 4 4 4
2 2 2 2 2 2 3 3 3 3 4 4 4 4 4 6 5 7 7 7 8 8 8 10 10 10 11 11 12 12 12 13 13 14 14 15 16 16 16 16 17 17 18 18 18 19 20 21 21 22 23 24 25 25 26 27 27 28 29 30 30 30 31 32 31 31 31 32 32 32 32 31 31 31 30 30 29 29 29 28 28 27 27 27 26 26 25 25 25 24 24 23 23 23 22 22 21 20 20 19 18 18 17 16 16 16 15 15 13 12 11 11 10 9 8 8 7 6 5 5 3 4 3 3 3 3 3 3 3 3 3 3 3 3 3 3 3 3 3 3 3 4 4 4 4 4 4 4 4 4
2 2 2 2 2 3 3 3 3 3 4 4 4 4 4 6 5 7 7 7 8 8 8 10 10 10 11 11 12 12 12 13 13 14 15 15 15 16 16 17 17 18 18 19 19 21 22 22 23 23 24 25 26 27 28 29 29 31 31 31 33 33 34 34 34 35 35 35 35 35 35 35 34 34 33 33 32 32 30 30 31 30 29 29 28 28 27 27 26 26 26 25 25 24 24 23 22 22 21 20 20 19 19 18 17 17 16 15 14 14 13 12 11 10 8 8 7 6 5 5 5 3 3 3 3 3 3 3 3 3 3 3 3 3 3 3 3 3 3 3 3 4 4 4 4 4 4 4 4 4
2 2 2 2 2 3 3 3 3 3 3 3 4 4 4 6 6 6 6 6 8 8 9 10 10 10 11 11 12 12 13 14 14 15 14 15 16 16 16 17 18 18 19 19 21 21 22 23 24 25 26 26 28 29 30 30 31 32 33 34 36 36 36 37 37 38 39 39 38 39 38 38 37 37 36 36 36 34 33 33 32 31 31 31 30 29 29 29 28 28 27 27 26 26 25 25 24 23 23 22 21 20 20 19 18 17 16 16 15 14 14 13 12 11 10 9 8 7 6 6 5 4 4 3 3 2 3 3 3 3 3 3 3 3 3 3 3 3 3 3 3 3 3 4 4 4 4 4 4 4
2 2 2 2 2 2 3 3 3 3 3 3 4 4 4 5 6 6 6 6 8 8 8 10 10 10 11 11 12 12 14 14 14 14 15 15 16 16 17 17 18 19 20 21 21 23 23 24 25 26 27 29 29 30 31 32 34 35 36 37 39 39 39 40 40 41 41 41 41 41 41 41 41 40 39 39 39 38 37 36 35 34 33 33 32 32 31 30 30 29 30 29 28 28 27 27 26 26 25 24 23 22 21 21 20 19 18 17 16 15 15 13 13 12 11 9 8 8 7 6 5 4 4 4 3 2 3 3 3 3 3 3 3 2 2 3 2 3 3 3 3 3 3 4 4 4 4 4 4 4
2 2 2 2 3 3 3 3 3 3 3 4 5 4 4 5 5 6 7 6 7 8 8 10 10 10 12 13 12 12 13 14 14 15 15 16 16 17 18 18 19 19 21 21 22 23 24 26 26 27 29 30 31 32 33 35 37 38 39 40 41 42 43 44 45 45 46 46 46 46 46 45 44 44 43 42 41 41 40 39 38 37 36 36 35 34 33 32 32 31 30 30 29 30 29 28 28 27 26 26 25 24 22 22 21 20 19 18 18 17 16 15 13 13 12 11 9 8 7 7 6 5 4 4 3 2 3 3 3 3 3 3 2 2 2 2 2 2 3 3 3 3 3 3 4 4 4 4 4 4
2 2 3 2 3 3 3 3 3 3 3 4 4 4 4 5 5 6 7 7 7 8 8 9 10 11 12 12 12 12 13 14 15 15 15 16 17 18 18 19 19 21 21 22 23 24 25 27 28 30 30 32 33 35 37 39 39 40 42 43 45 46 47 48 49 49 49 50 50 50 50 49 49 49 47 46 45 44 44 43 41 40 39 39 37 37 36 36 35 34 32 32 32 31 31 30 30 29 28 27 26 26 24 24 23 21 20 20 19 17 16 16 15 13 13 12 11 10 8 7 7 6 4 4 3 3 3 3 3 3 3 3 3 2 2 2 2 2 2 2 3 3 3 3 4 4 4 4 4 4
2 2 2 3 3 3 3 3 3 3 3 4 5 4 6 6 6 6 7 7 8 8 8 9 10 11 11 11 12 13 14 14 15 16 16 16 17 18 18 19 20 22 22 23 24 25 27 28 29 31 32 34 36 38 39 41 42 44 45 48 49 49 50 52 52 53 53 53 54 54 53 53 53 52 51 50 49 48 48 46 45 44 43 41 40 40 39 38 37 36 35 35 33 32 32 31 31 30 29 28 28 27 26 25 24 22 22 21 20 18 17 16 16 14 13 12 12 11 9 7 7 7 6 4 3 3 2 3 3 3 3 3 2 2 2 2 2 2 2 2 3 3 3 3 4 4 4 4 4 4
2 2 2 3 3 3 3 3 3 3 3 4 5 4 6 6 6 6 7 7 7 8 8 9 10 11 12 11 12 13 14 14 15 15 16 16 17 18 19 20 21 22 23 25 25 26 28 30 31 33 35 36 39 40 41 44 46 48 50 51 52 54 55 56 57 57 58 58 58 58 57 57 56 56 55 54 53 51 50 50 48 47 46 44 44 43 41 40 39 39 37 37 36 35 35 34 32 31 31 30 29 29 28 26 26 24 23 22 21 19 19 17 16 15 14 13 12 11 10 9 8 7 6 6 4 3 3 3 3 3 3 3 3 2 2 2 2 2 2 2 2 2 3 3 3 3 4 4 4 4
2 2 3 3 3 3 3 3 3 3 3 4 5 4 6 6 5 5 6 7 8 7 8 9 10 11 12 11 13 13 13 15 16 16 16 17 18 18 19 20 22 22 24 25 26 28 30 32 33 35 37 39 41 43 45 47 50 51 53 55 57 58 59 60 61 61 62 62 62 62 61 61 60 59 58 57 56 55 54 54 52 50 49 48 47 46 45 45 43 42 41 39 39 38 37 36 35 34 33 32 31 30 29 29 27 26 24 23 22 21 20 19 17 16 15 14 13 12 11 9 8 8 7 6 5 4 4 3 3 3 3 3 3 2 2 2 2 2 2 2 2 2 3 3 3 4 4 4 4 4
2 2 3 3 3 3 3 3 4 3 3 4 5 4 6 6 5 5 6 7 8 7 8 9 10 11 12 12 13 14 13 15 15 16 17 17 18 19 20 21 22 23 25 26 28 30 31 33 35 37 39 41 43 46 49 51 53 55 57 59 61 61 62 63 64 65 65 66 65 65 64 64 63 63 62 61 60 58 57 56 55 54 53 51 49 49 48 47 45 45 44 42 42 40 39 39 37 36 35 34 33 32 31 29 29 27 26 25 24 22 21 19 18 17 16 15 14 13 12 11 9 7 7 6 6 4 3 4 4 3 3 3 2 2 2 2 2 2 2 2 2 2 3 3 3 3 4 4 4 4
2 2 3 3 3 3 3 4 4 4 3 4 5 5 6 6 5 5 7 7 8 7 8 9 10 11 12 12 13 14 14 15 15 16 16 18 18 20 21 21 23 25 26 27 29 30 32 34 37 39 41 44 46 50 52 54 56 59 61 62 64 65 66 67 68 69 68 68 68 68 67 67 66 65 65 64 62 61 59 58 57 56 55 54 53 52 50 49 48 47 45 45 44 43 41 41 40 39 38 36 36 34 32 31 31 29 28 27 25 23 22 20 19 18 16 16 15 13 13 12 10 8 7 7 6 5 4 3 3 3 3 3 3 2 2 2 1 1 1 1 2 2 2 3 3 3 4 4 4 4
3 3 3 3 3 3 3 3 4 4 3 5 5 5 6 6 5 6 7 7 8 7 9 9 10 11 12 12 13 14 14 15 15 16 17 18 19 20 21 22 24 25 27 29 30 32 34 37 39 41 44 47 51 53 55 57 60 62 64 65 67 68 69 70 71 72 73 73 73 72 71 71 70 68 67 66 65 64 63 61 60 58 58 57 55 55 54 53 52 50 49 49 47 47 45 44 42 41 40 39 38 36 35 34 32 30 29 28 26 25 23 22 20 19 17 16 15 14 13 12 11 9 9 7 7 5 5 3 3 3 3 3 3 2 2 2 1 1 1 1 2 2 2 3 3 3 4 3 4 4
2 3 3 3 3 3 3 3 4 4 4 5 5 5 6 7 6 6 7 7 7 8 9 9 10 11 11 12 13 14 14 15 16 16 18 18 19 21 22 24 25 26 28 30 32 34 36 39 41 44 47 50 53 56 58 61 63 65 67 69 70 72 73 75 76 77 77 77 76 75 75 73 72 71 70 68 67 66 65 64 63 61 60 59 58 56 55 55 55 53 52 52 50 48 48 47 45 44 43 41 41 39 37 35 34 32 31 29 28 27 24 22 21 20 19 17 16 15 14 13 12 11 9 8 7 6 5 5 3 3 2 3 3 2 2 2 2 2 2 2 2 2 2 2 3 3 3 3 4 4
3 3 3 3 3 3 4 4 4 4 5 5 6 5 6 7 6 6 7 8 7 8 8 9 11 11 12 12 13 14 15 16 16 16 18 19 20 22 22 24 26 27 29 31 33 36 39 41 44 48 51 53 56 59 61 64 65 67 70 72 74 77 78 79 81 81 81 81 80 80 78 77 75 73 71 70 69 68 66 64 64 63 62 61 60 59 58 57 56 56 54 53 53 52 51 50 49 47 46 44 43 41 40 38 35 34 33 31 29 27 26 24 22 21 20 18 17 16 15 14 12 12 10 9 7 7 6 5 4 4 3 3 3 3 3 2 2 2 2 2 2 2 2 2 3 3 3 3 4 4
3 3 3 3 3 3 4 4 3 3 5 6 6 6 7 7 6 6 8 8 7 8 10 10 11 12 12 13 13 14 15 16 16 17 18 20 21 22 24 25 26 29 31 32 34 38 41 43 47 51 53 55 59 62 64 67 68 71 73 76 79 81 83 84 85 85 85 84 84 83 82 80 78 77 74 72 71 70 68 68 66 66 65 64 63 62 61 60 59 58 58 57 56 54 54 53 51 50 49 47 45 43 41 40 38 36 34 32 31 28 27 26 24 22 20 19 18 17 15 14 13 12 11 9 8 8 7 6 5 3 4 4 2 2 3 2 2 2 2 2 2 2 2 2 2 3 3 3 4 4
3 3 3 3 3 4 4 4 4 5 5 5 6 7 7 7 6 6 8 8 7 8 9 10 11 11 12 13 13 15 15 16 17 17 19 20 21 23 25 26 28 30 32 34 37 40 43 46 49 53 55 58 62 65 66 69 72 75 78 81 83 85 86 88 87 88 87 87 86 85 85 83 81 79 76 74 73 71 70 69 67 66 65 64 64 64 63 62 62 61 60 60 58 58 56 55 54 53 51 50 48 46 44 42 41 38 36 34 32 30 29 27 25 23 21 20 19 17 16 15 14 13 12 10 9 7 7 6 5 4 3 4 3 2 3 2 2 2 2 2 2 2 2 2 2 3 3 3 3 3
3 3 2 2 3 4 4 5 5 5 5 5 7 7 6 6 6 6 7 8 8 10 9 10 11 11 13 13 14 15 15 16 17 18 19 20 22 23 25 27 29 31 34 37 39 42 46 49 52 55 58 62 64 67 70 73 76 80 82 85 86 87 90 90 91 91 90 90 89 87 86 84 81 79 78 76 74 72 71 71 69 68 67 66 66 65 65 65 65 63 63 63 61 61 60 58 58 56 54 53 51 49 46 44 41 41 38 36 33 31 29 28 26 25 23 21 20 18 16 16 15 13 12 11 10 9 8 7 5 5 4 4 3 2 3 3 3 2 2 2 2 2 2 2 2 2 3 3 3 3
3 3 3 3 4 4 5 4 5 5 5 6 7 7 6 6 7 7 7 8 8 9 9 10 11 12 13 13 14 16 16 16 17 18 20 21 23 24 26 28 31 32 35 39 41 45 48 51 55 58 62 65 67 70 74 78 81 83 86 87 90 92 92 92 93 93 92 91 90 88 86 85 82 80 79 76 75 74 72 70 69 68 67 67 66 66 66 65 66 66 65 64 64 63 63 62 61 58 57 56 53 51 50 47 44 42 40 38 35 33 31 29 28 26 24 22 21 19 18 16 15 15 13 12 11 9 8 7 7 5 4 4 3 3 3 3 2 3 2 2 2 2 2 2 2 2 3 3 3 3
2 3 4 4 4 5 5 4 5 5 7 7 7 7 6 6 7 7 8 8 9 9 9 11 11 12 13 14 14 15 16 17 18 19 20 22 24 25 27 29 31 34 38 40 43 48 51 54 58 60 64 66 70 74 79 82 85 87 89 91 94 95 96 96 95 95 93 92 91 89 86 85 83 80 79 76 74 72 72 70 68 67 66 65 65 65 65 65 65 66 66 66 66 66 66 65 64 62 60 58 56 54 52 49 47 44 42 40 38 35 33 31 29 27 25 24 22 20 19 17 16 14 13 13 12 11 9 7 7 6 5 4 3 4 2 2 3 3 3 2 2 2 2 2 2 2 2 3 4 3
2 3 4 4 4 4 4 5 5 6 7 7 7 8 7 7 7 7 8 8 8 9 10 11 12 12 14 14 15 16 16 17 18 19 21 23 25 26 28 31 33 37 40 43 47 51 54 57 60 64 67 70 75 79 82 85 87 91 93 95 97 96 97 97 97 96 96 94 91 89 87 85 82 80 78 76 74 72 71 69 68 67 66 65 65 65 65 65 66 67 67 67 66 67 67 67 66 66 64 61 59 57 55 52 49 47 44 42 40 38 35 32 30 28 26 25 23 21 19 18 16 16 15 13 12 11 10 8 7 7 5 5 3 3 3 2 3 3 3 3 2 2 2 2 2 2 2 3 3 3
3 3 3 4 4 4 4 5 6 6 7 7 7 8 7 7 7 8 8 9 9 10 10 11 12 12 14 15 15 16 16 18 19 20 23 25 25 28 30 32 36 39 42 46 50 53 57 60 63 66 70 75 79 84 86 89 91 94 96 97 99 100 100 100 98 97 96 93 91 89 86 84 82 79 77 75 73 71 68 67 66 65 64 65 64 65 65 65 66 67 67 67 67 67 68 67 67 67 67 65 62 59 57 56 53 50 47 45 41 39 36 34 32 30 28 26 24 22 20 19 17 16 15 14 12 12 10 9 8 7 6 6 5 3 3 2 3 3 3 3 2 2 2 2 2 2 2 2 3 3
3 4 4 4 4 4 5 5 6 7 7 7 8 8 7 7 7 9 9 10 9 11 11 11 13 13 14 15 15 16 17 19 20 21 23 25 26 29 31 34 38 41 44 48 52 56 59 62 65 69 74 79 83 87 91 93 96 97 99 100 102 102 102 101 99 97 96 93 91 88 86 83 81 78 75 72 71 68 66 64 63 62 62 62 63 63 64 64 65 66 68 69 70 70 70 69 68 67 67 67 65 63 61 57 55 53 49 47 44 41 39 36 33 31 29 27 26 23 22 20 19 17 16 14 13 12 11 10 9 7 7 6 5 4 3 3 3 3 3 3 3 2 2 2 2 2 3 2 3 3
3 4 4 4 4 5 5 5 6 7 7 7 8 8 8 8 8 8 9 10 10 10 11 12 13 14 15 15 16 17 18 19 20 22 24 26 28 30 33 36 40 43 47 51 55 59 62 66 69 74 79 83 87 92 95 97 98 101 102 102 103 103 102 101 100 98 96 93 91 87 85 81 78 75 72 70 68 65 63 62 61 61 62 62 63 64 66 67 68 68 69 69 71 73 73 72 72 71 69 67 68 67 65 61 58 56 53 49 47 43 41 38 35 32 30 28 26 24 22 21 20 18 17 15 13 13 12 11 9 8 7 6 5 5 4 4 3 3 3 3 3 3 2 2 2 2 2 2 3 3
4 4 4 4 4 5 5 5 6 7 7 7 7 8 8 8 9 9 9 9 10 11 12 12 14 14 15 16 16 17 19 20 21 23 25 27 29 31 35 39 42 46 51 54 59 62 65 69 74 79 84 88 92 96 99 101 102 104 104 105 105 105 103 102 101 98 95 92 90 86 82 79 75 72 69 67 64 62 60 58 58 57 59 60 61 61 64 67 69 71 72 73 73 73 74 76 75 74 74 72 70 69 68 65 62 58 55 53 49 46 43 40 37 34 32 30 28 25 24 22 20 19 17 16 15 13 12 12 10 9 7 7 5 5 5 3 2 3 3 3 3 3 3 3 2 2 2 2 3 3
4 4 4 4 5 5 6 6 7 7 7 7 7 7 8 8 9 9 9 10 11 11 12 12 14 14 15 16 16 18 20 21 23 25 26 29 31 34 38 41 45 49 53 58 62 66 69 74 80 83 89 93 96 101 103 104 106 107 108 108 107 107 105 103 101 98 95 91 88 83 79 76 72 69 66 62 59 57 56 55 55 55 55 57 58 61 64 65 68 70 71 75 76 77 76 75 77 77 76 75 74 71 69 69 65 62 58 55 52 48 46 42 39 37 34 31 29 27 24 22 21 20 18 17 15 14 12 13 11 9 8 7 6 5 5 3 3 2 3 3 3 3 3 3 2 2 2 2 3 3
4 4 4 5 5 5 7 7 7 7 7 8 8 8 7 8 9 9 10 10 11 12 12 13 14 15 15 16 17 18 20 22 24 25 28 30 33 36 39 44 48 52 57 60 65 69 74 80 84 89 94 97 102 106 107 108 109 110 109 110 109 108 106 104 101 97 93 89 85 80 77 72 69 65 61 58 55 53 52 51 52 52 52 53 55 59 61 65 68 70 71 73 77 78 79 80 78 79 80 78 77 76 72 70 70 65 62 58 55 52 47 45 41 38 35 32 30 28 26 24 22 21 19 17 16 14 13 12 11 10 8 7 6 6 5 3 3 3 3 3 3 3 3 3 3 2 2 2 3 3
5 5 6 6 6 6 7 7 7 7 8 8 8 8 8 9 9 10 10 11 12 12 13 13 15 15 16 17 18 19 21 23 25 26 28 31 35 38 42 48 51 56 60 63 68 74 80 85 89 94 99 102 106 111 112 112 113 113 113 112 111 108 107 103 100 96 92 88 82 77 73 68 64 60 57 54 51 49 48 48 48 49 49 51 53 54 58 62 66 70 73 75 76 78 81 83 84 82 80 82 80 78 77 73 72 70 65 62 57 54 51 47 44 40 37 34 31 29 28 25 23 21 19 17 16 15 14 13 12 11 9 7 7 6 5 3 3 4 2 2 3 3 3 3 3 3 3 3 2 3
5 5 6 6 6 6 8 8 8 8 8 8 8 9 9 8 9 10 11 11 13 12 13 14 15 15 17 17 18 20 22 24 25 28 30 33 37 41 45 50 54 58 63 67 74 80 84 90 95 98 104 107 112 116 116 117 118 117 117 116 113 110 108 104 100 95 90 85 80 74 69 65 60 56 52 48 46 45 44 45 44 45 46 48 50 53 56 59 63 68 72 76 79 80 81 84 85 87 85 82 85 82 80 80 75 72 70 65 61 57 55 50 46 43 39 36 34 31 29 27 24 22 20 18 17 16 15 13 12 12 10 8 7 7 6 4 3 4 2 2 3 3 3 3 3 3 3 3 3 3
5 6 6 6 7 7 8 8 7 7 8 8 8 9 9 9 9 10 11 11 12 12 14 15 15 16 17 18 19 21 23 25 27 29 32 36 39 44 48 53 58 62 67 71 79 85 90 96 100 104 110 113 118 121 121 122 121 120 120 118 115 112 109 105 99 94 88 83 77 70 65 61 56 52 47 44 43 42 42 42 42 43 43 45 47 51 54 58 61 66 71 74 78 84 86 87 89 90 91 89 84 87 84 82 80 76 74 70 65 61 57 53 48 45 42 38 35 32 29 28 26 23 21 19 17 16 15 13 12 12 11 9 7 7 5 5 3 3 2 3 3 3 3 3 3 3 3 3 3 3
6 6 7 7 7 7 8 8 7 7 8 8 9 9 9 9 9 11 11 12 12 13 14 15 15 16 17 19 20 22 24 26 28 31 34 38 41 46 52 56 61 65 71 77 84 91 96 101 106 110 116 118 123 126 125 127 126 125 124 120 117 114 110 104 98 91 86 80 73 68 62 58 53 47 43 42 40 39 39 39 39 41 41 43 45 48 52 57 60 65 70 75 78 82 89 92 90 93 93 95 92 87 90 86 84 82 76 76 70 64 60 56 52 47 44 40 37 34 30 28 26 25 22 20 18 17 16 14 12 12 11 9 7 7 6 5 4 4 3 3 3 3 3 3 3 3 3 3 3 3
7 7 7 8 7 7 7 7 8 8 8 8 9 9 10 10 10 10 12 12 13 14 14 15 16 16 18 19 21 23 25 26 30 32 36 39 44 50 55 59 64 68 76 83 90 97 101 107 111 116 122 124 128 132 130 131 129 128 127 123 119 116 112 105 97 91 85 78 71 65 59 54 49 43 40 38 37 37 36 36 37 38 40 41 43 46 50 56 60 64 69 74 81 83 86 95 98 95 97 100 99 95 90 93 87 86 81 78 76 69 64 59 55 50 46 43 38 36 32 30 28 26 23 21 19 17 16 14 13 12 11 9 8 8 6 5 4 4 4 3 3 3 3 3 3 3 3 3 3 3
7 8 8 8 7 7 7 7 8 8 8 9 9 9 10 10 11 11 12 13 13 14 15 16 16 18 19 20 21 25 26 28 31 34 39 42 48 52 58 62 67 73 81 88 96 103 107 113 118 122 127 129 136 137 135 136 135 132 130 125 121 117 113 106 97 90 83 76 69 62 56 50 45 40 38 36 34 35 34 34 35 36 37 39 42 45 49 55 59 64 68 74 80 85 89 92 101 103 100 103 104 103 98 92 94 89 87 82 79 75 69 63 58 54 49 45 41 37 35 32 29 26 24 22 20 19 17 15 14 13 12 10 8 7 7 5 4 4 4 3 3 3 3 3 3 3 3 3 3 3
7 8 8 8 8 8 7 7 8 8 8 9 8 9 10 10 11 11 12 13 14 15 15 16 17 18 19 21 23 25 27 29 32 36 41 45 50 55 60 65 71 79 86 94 101 108 113 118 123 128 134 136 141 141 140 140 139 137 134 128 123 118 114 105 97 89 81 74 67 59 53 48 43 39 36 34 33 32 32 32 33 34 35 37 40 43 49 54 59 63 69 74 80 85 92 95 96 110 108 105 110 108 109 98 96 96 93 88 81 80 75 68 62 56 52 47 43 39 36 33 30 27 25 23 20 18 17 16 15 13 12 11 9 7 6 7 5 4 3 4 3 2 3 3 3 3 3 3 3 3
7 8 8 8 8 8 7 7 8 8 9 8 9 10 10 11 11 12 13 13 14 15 15 16 17 18 20 22 23 25 28 31 34 38 43 48 53 58 63 69 76 84 92 99 107 114 119 124 129 135 139 141 145 145 143 144 142 140 137 132 126 120 115 107 97 88 82 73 65 58 52 46 40 36 34 32 31 30 31 31 31 32 35 37 39 43 49 53 59 64 70 76 81 85 91 99 100 105 118 112 110 115 112 114 99 101 100 95 88 81 81 74 66 60 54 50 45 41 37 34 31 28 26 23 21 19 17 17 15 14 12 12 10 8 7 6 5 4 3 4 3 2 3 3 3 3 3 3 3 3
7 8 8 8 7 7 8 8 8 9 9 8 9 10 11 11 12 12 14 14 14 15 16 16 17 19 21 22 24 27 29 32 36 40 45 51 57 61 66 73 81 90 97 105 113 119 124 131 136 141 144 145 149 149 148 147 145 143 140 137 130 123 117 108 98 89 81 73 64 57 50 44 38 34 32 31 29 29 29 29 30 31 33 35 38 43 49 54 59 65 71 78 84 88 92 99 107 106 115 126 114 117 119 117 115 100 103 101 93 87 82 80 71 64 57 53 47 43 39 36 32 29 27 25 22 20 18 17 15 14 13 12 11 8 7 6 5 5 3 4 3 3 3 3 3 3 3 3 3 3
8 8 8 8 7 7 8 8 8 9 8 8 9 10 11 11 12 12 13 14 15 15 16 16 18 20 22 24 25 28 31 34 38 42 48 53 59 64 69 78 87 94 102 111 119 124 130 137 141 146 148 150 154 153 152 151 149 147 143 140 134 126 119 110 99 90 82 73 64 57 50 44 39 34 31 29 28 28 28 29 30 31 32 35 38 43 50 54 59 66 74 80 86 92 96 100 108 114 114 129 130 124 126 125 128 111 105 106 100 94 85 84 78 68 61 56 51 45 42 37 34 31 28 26 23 21 19 17 16 15 13 11 10 9 7 7 5 5 4 4 3 3 3 3 4 3 3 3 3 3
8 8 7 7 8 8 7 8 8 8 8 9 10 11 11 11 11 13 13 14 15 16 16 18 19 20 22 24 26 28 32 35 40 45 51 56 61 67 74 82 91 99 108 116 124 130 137 141 144 150 152 156 159 157 157 156 154 151 146 142 136 130 122 112 101 91 82 73 65 56 50 43 38 33 31 29 28 28 28 29 30 31 32 36 39 44 51 56 60 68 75 82 88 95 101 105 109 119 119 124 140 135 131 131 131 129 108 112 106 99 92 85 84 73 65 59 54 48 44 40 35 31 29 27 24 21 19 18 16 15 14 12 11 10 7 7 6 5 4 3 4 4 4 3 4 3 3 3 3 3
8 8 7 7 8 8 7 8 9 8 9 10 10 11 11 12 12 14 13 14 15 16 17 18 19 21 23 25 27 30 33 38 42 47 53 58 63 70 78 86 95 105 112 122 129 136 141 145 149 155 157 160 164 161 162 160 157 154 149 145 140 134 125 114 104 93 83 74 66 58 50 44 38 34 31 29 28 28 28 28 29 31 33 36 40 46 51 57 63 71 77 84 93 99 106 108 111 119 128 124 139 147 138 136 136 139 121 113 111 105 97 88 86 79 69 63 56 50 45 42 37 33 30 27 24 22 20 18 16 16 14 13 12 10 8 7 7 5 4 4 4 4 4 3 3 3 3 3 3 3
7 7 7 7 8 8 8 8 8 8 9 10 11 10 12 12 12 14 14 15 16 16 17 18 20 22 23 26 28 31 34 39 44 50 54 60 66 73 82 90 99 109 116 127 133 140 145 149 154 159 160 167 169 166 167 164 160 157 153 148 142 137 127 115 105 95 84 75 67 60 50 45 40 34 32 29 28 28 28 28 30 31 33 38 42 48 52 60 66 73 80 87 95 104 109 114 114 120 133 133 135 155 150 141 142 145 139 114 116 111 102 94 87 84 75 65 59 53 47 42 39 34 31 29 25 23 21 18 17 16 14 13 11 10 8 7 7 5 5 4 4 4 3 2 4 3 3 3 3 3
7 7 7 7 8 8 8 9 9 9 10 10 11 11 12 12 12 14 14 15 16 16 18 18 20 22 24 26 29 32 36 40 46 51 57 62 68 77 85 94 104 113 121 132 138 143 149 153 158 162 166 176 175 174 173 170 166 161 157 152 146 140 131 118 108 98 86 77 69 61 52 47 41 37 33 31 29 29 29 30 31 33 36 40 45 50 56 63 69 76 83 92 98 108 113 123 121 125 131 145 137 153 164 149 145 151 151 130 119 116 108 99 90 86 82 69 62 55 50 43 40 35 31 29 25 24 21 19 18 16 14 13 12 10 9 8 7 5 5 4 4 4 3 3 4 3 3 3 3 3
8 8 7 7 8 8 8 9 8 9 9 10 11 11 12 12 13 14 14 15 16 17 18 19 21 22 24 27 29 33 37 41 47 53 58 64 71 80 89 98 107 116 125 135 141 147 152 157 162 168 174 183 181 181 180 178 172 166 160 154 149 142 133 122 111 101 91 80 71 64 56 49 44 40 35 33 32 31 31 32 33 36 40 44 49 54 61 68 73 80 88 96 103 112 119 128 136 129 136 151 150 152 174 163 153 152 165 149 123 123 115 104 95 86 87 77 64 59 52 45 41 37 32 29 26 24 22 20 18 16 15 13 12 11 9 8 7 6 5 4 3 4 3 3 3 3 3 3 3 3
8 8 7 7 8 8 8 9 8 9 9 10 11 11 12 12 13 14 15 15 16 17 18 19 21 23 25 27 30 34 38 43 49 54 60 66 74 83 91 101 111 119 131 138 143 150 155 159 168 174 182 189 188 189 187 184 178 172 164 158 152 145 137 127 114 103 95 83 74 66 59 52 47 43 39 37 35 34 34 35 37 41 44 47 52 58 65 70 77 85 93 101 108 115 128 130 145 136 141 152 162 152 175 183 162 155 168 165 136 128 122 110 100 89 86 85 68 61 54 47 41 37 33 30 27 24 22 20 18 16 15 14 12 11 10 8 7 6 6 4 3 4 3 3 3 3 3 3 3 3
6 7 8 8 8 8 8 9 8 9 9 10 11 11 12 12 14 14 14 15 16 17 19 19 22 23 26 28 31 35 40 44 50 56 61 68 76 85 94 103 113 122 134 140 146 153 158 163 174 178 189 193 193 195 192 189 184 178 169 161 155 149 140 130 119 107 98 88 78 70 62 56 50 46 44 40 39 39 39 40 42 45 48 52 58 63 70 75 82 92 99 106 115 120 133 135 148 152 145 153 171 160 170 195 174 167 164 175 152 126 129 115 104 94 83 86 74 62 57 49 43 39 35 31 27 25 23 21 19 16 16 14 12 11 10 8 7 6 5 5 4 4 3 3 3 3 3 3 3 3
7 7 8 8 8 8 8 9 8 9 9 10 11 11 12 12 14 14 14 16 17 17 19 19 22 24 26 29 31 36 41 46 52 57 62 69 78 87 96 105 115 125 136 142 149 155 160 168 178 183 194 196 197 199 196 196 190 183 174 165 158 151 143 134 124 112 102 91 82 74 66 60 54 50 47 44 43 44 44 45 46 48 53 58 63 68 75 80 89 98 103 111 121 125 135 144 148 165 151 157 174 176 169 197 197 174 169 180 167 135 130 123 109 97 87 84 81 64 58 51 45 39 35 31 28 25 23 21 19 17 16 14 12 11 10 8 7 6 5 5 4 4 3 3 3 3 3 3 3 3
7 7 6 7 8 8 8 9 8 10 9 10 11 11 12 13 14 14 15 16 16 18 19 21 23 24 26 30 32 37 41 47 53 58 63 70 79 89 98 107 117 128 137 143 151 157 162 173 182 188 198 199 201 202 200 199 193 187 180 170 161 155 148 138 127 117 106 96 88 78 71 65 59 56 53 50 48 48 48 49 52 56 59 63 68 73 80 88 96 102 110 118 127 131 139 153 151 174 164 162 174 196 173 189 213 187 175 178 178 150 126 129 114 101 91 80 82 69 59 53 46 40 36 32 29 26 23 21 19 17 16 14 13 11 10 9 8 6 5 5 4 4 3 3 4 3 3 3 3 3
7 7 6 6 8 8 8 9 8 9 9 10 11 11 12 13 13 14 15 16 16 18 19 21 23 24 26 29 33 37 42 47 53 58 64 72 80 90 100 109 119 130 138 145 153 159 164 177 184 192 201 201 204 205 203 201 196 192 185 175 166 158 151 142 131 122 111 101 93 84 76 70 65 61 59 56 56 55 55 57 59 62 65 70 75 81 88 95 103 109 117 124 133 139 144 159 158 178 180 168 176 205 187 185 215 213 179 183 188 163 131 129 117 103 93 82 80 73 60 54 47 41 36 33 29 26 24 21 19 17 16 14 13 11 10 9 8 6 5 5 4 4 3 3 4 4 3 3 3 3
6 7 7 7 8 8 8 9 9 9 10 10 11 11 12 13 13 15 15 16 17 18 20 21 23 25 27 30 33 39 42 48 54 59 65 73 81 92 101 110 122 130 140 145 152 160 166 179 186 195 201 203 206 206 206 204 200 195 188 180 171 161 154 146 136 127 117 106 97 90 83 76 70 67 64 61 61 62 62 63 65 68 72 77 83 89 96 102 110 117 123 130 142 147 150 168 169 178 199 176 183 197 206 183 210 230 186 185 198 171 141 126 123 107 95 84 77 75 63 55 48 41 37 33 29 26 24 22 20 17 16 15 13 12 11 10 7 7 6 5 4 5 4 4 3 3 3 3 3 3
6 6 7 7 8 8 8 9 9 9 10 10 10 11 12 13 14 14 15 16 17 18 20 21 23 25 27 30 33 39 43 48 54 59 65 73 82 92 100 111 122 129 139 146 152 159 168 179 187 195 201 204 207 208 208 206 203 198 192 184 175 165 157 150 141 132 123 113 103 96 90 83 77 74 71 69 69 68 69 70 73 77 80 86 91 97 104 111 120 124 130 137 149 154 155 180 182 178 210 186 190 185 218 185 202 232 204 180 198 179 151 124 125 109 97 87 75 72 64 55 49 42 37 33 29 26 24 22 20 17 17 15 13 12 11 9 7 7 6 5 4 5 4 4 4 3 3 3 3 3
6 6 7 7 6 7 8 9 9 10 10 9 11 12 12 13 13 15 15 16 17 18 20 21 23 25 27 31 34 39 43 48 54 59 65 73 82 92 101 111 121 130 139 146 153 159 169 178 188 195 201 205 207 208 208 207 205 201 195 187 179 169 160 154 146 136 128 120 110 102 96 91 86 82 79 76 76 75 77 79 81 86 90 94 99 106 113 119 126 131 138 145 159 162 160 189 190 180 215 198 196 188 219 196 199 225 218 181 189 187 157 128 123 112 99 87 76 70 66 55 49 42 38 33 30 26 24 22 20 18 17 15 14 12 11 9 8 7 6 5 4 5 4 4 4 3 3 3 3 3
6 7 7 7 7 7 8 8 9 9 9 10 11 11 12 13 13 14 15 16 17 18 20 21 23 25 27 30 34 39 43 49 54 59 65 73 81 91 100 110 120 129 139 146 152 159 167 177 186 194 200 205 207 209 209 208 206 203 197 190 182 173 164 157 150 142 132 125 118 109 103 97 93 90 87 86 85 85 86 88 91 94 98 103 110 116 121 127 134 138 146 152 168 170 167 196 199 183 216 208 197 187 211 206 195 217 229 185 180 191 160 134 119 114 98 88 78 68 65 56 49 43 38 33 30 27 24 22 20 18 17 15 14 12 11 9 8 7 6 5 4 4 4 4 3 3 3 3 3 3
6 7 7 7 8 8 7 8 8 9 10 9 10 11 12 13 13 14 15 16 17 19 20 21 23 25 28 30 33 38 43 48 54 59 65 72 81 90 100 109 118 127 138 144 152 158 165 176 185 192 199 204 206 208 209 208 206 203 199 192 185 177 168 159 153 147 138 131 124 117 110 105 100 97 96 94 94 93 95 97 100 104 107 114 120 123 129 136 143 147 154 161 176 177 173 202 207 190 216 218 197 189 200 219 194 208 232 191 173 186 164 139 115 115 100 88 77 66 64 57 49 43 38 33 28 26 24 22 20 17 17 15 13 12 12 10 7 7 7 5 4 5 4 4 3 2 3 3 3 3
6 6 6 7 7 7 7 8 8 9 10 9 10 11 12 13 14 14 15 16 17 18 20 21 23 25 27 30 34 38 42 48 53 59 65 71 81 90 99 107 117 125 136 144 150 157 163 173 183 190 197 202 205 207 208 208 207 204 199 194 188 179 172 164 157 151 144 136 130 124 119 114 110 106 104 102 103 103 105 109 111 114 119 125 128 132 138 146 150 154 167 174 184 183 179 206 218 199 215 227 201 197 192 229 195 207 231 205 171 177 167 143 116 113 100 88 78 67 62 57 49 43 37 33 29 26 24 22 20 17 17 15 13 12 12 10 7 7 6 5 4 4 4 3 3 2 3 3 3 3
6 5 6 7 7 8 8 8 7 8 9 10 10 11 12 12 13 14 15 16 17 18 19 21 23 25 27 30 33 37 42 48 53 58 64 70 79 87 96 106 115 124 133 142 148 155 160 169 179 187 194 199 204 206 206 206 205 203 200 195 189 182 175 168 160 154 149 143 137 131 126 122 119 116 114 113 113 114 117 118 120 125 130 134 137 142 148 155 159 164 175 180 192 189 184 211 221 204 213 231 202 201 183 223 191 206 224 213 171 168 167 143 119 109 100 87 76 66 61 57 49 43 38 33 29 26 24 22 20 18 17 15 14 13 11 9 7 7 6 5 4 4 4 4 3 3 3 3 3 3
6 6 7 7 7 7 8 8 7 8 9 10 11 11 11 12 13 14 15 16 16 18 19 21 23 25 27 29 32 37 42 46 52 57 62 68 77 86 95 104 113 122 131 140 146 153 159 166 175 184 192 196 201 204 205 205 204 203 199 196 191 184 178 171 164 157 153 148 144 138 132 129 125 124 123 123 125 124 124 127 132 137 139 142 148 151 160 164 168 175 184 187 200 192 189 217 225 209 213 235 204 203 181 217 196 205 217 217 171 161 165 142 121 104 100 85 74 66 59 56 49 42 37 32 28 26 23 22 20 18 17 15 14 13 11 9 7 7 6 5 4 4 4 4 3 3 3 3 3 3
5 6 6 6 7 7 7 7 8 8 9 9 9 11 11 12 13 14 14 16 16 17 19 21 23 24 26 29 32 36 40 45 50 56 61 67 75 84 93 102 111 119 128 138 144 150 156 162 170 179 187 193 197 201 202 202 202 202 199 196 192 185 180 174 168 161 157 153 148 144 140 137 135 133 132 131 131 131 136 140 143 146 148 153 157 163 169 173 175 183 192 195 206 195 197 221 227 210 214 237 203 203 180 210 199 196 210 213 169 154 159 141 122 101 99 84 73 65 58 54 49 41 36 32 29 26 23 21 19 17 16 15 14 13 11 9 7 7 6 5 4 4 4 3 2 2 3 3 3 3
5 6 6 5 7 7 7 7 8 8 9 9 9 11 12 12 13 14 14 16 16 17 19 21 23 24 26 29 31 36 40 44 50 55 60 65 73 82 90 99 107 116 124 134 142 148 153 159 165 174 182 188 193 197 199 200 200 199 197 195 191 186 181 177 172 167 161 157 154 151 148 146 143 141 140 140 142 145 148 149 151 156 160 162 168 173 177 178 183 194 197 203 209 200 207 226 228 210 215 237 202 202 180 203 208 197 201 208 169 150 153 139 121 99 95 82 73 64 57 52 47 40 36 32 27 25 23 21 19 17 17 15 14 13 11 9 7 7 6 5 4 4 4 3 2 2 3 3 3 3
5 5 5 6 5 6 7 8 7 8 9 8 9 10 12 12 13 14 15 16 16 17 18 20 22 23 25 29 31 35 39 43 48 53 60 64 70 79 87 96 104 113 121 130 139 145 150 156 161 168 177 183 189 193 195 197 197 197 196 193 191 186 181 178 174 170 166 162 158 155 152 152 150 150 152 153 155 155 155 160 165 165 169 175 178 181 183 185 193 202 201 210 210 202 213 235 229 210 216 235 202 201 178 197 208 196 194 203 167 146 147 136 118 97 91 80 70 62 56 51 46 39 35 31 27 25 22 21 19 17 16 15 14 13 11 9 7 7 6 5 4 4 4 3 2 2 3 3 3 3
5 5 5 6 5 6 7 8 7 8 8 9 9 10 12 12 13 14 14 15 16 17 18 20 21 23 25 28 30 34 37 41 46 52 58 62 67 75 84 93 101 109 118 125 134 141 147 152 158 163 170 176 182 188 190 193 194 194 193 192 189 186 182 179 177 174 171 168 165 163 162 161 161 160 160 160 161 164 168 171 170 174 181 183 184 189 188 198 202 205 207 215 209 204 220 234 227 207 219 231 199 197 175 191 201 188 186 197 165 139 142 131 115 93 88 77 68 61 55 49 44 38 34 30 26 24 22 20 18 17 16 15 13 12 11 9 7 7 6 5 4 4 4 4 3 2 3 3 3 3
4 4 5 6 6 6 7 7 8 8 9 8 9 9 10 12 13 13 14 15 16 17 18 19 21 23 25 27 29 33 37 40 45 50 55 61 65 72 80 88 97 106 113 121 129 138 144 148 154 159 164 170 176 182 185 188 190 190 190 189 187 185 183 181 179 176 174 172 170 169 167 166 166 166 168 170 173 174 174 176 182 187 187 189 194 192 201 205 210 208 215 217 209 208 227 233 224 202 223 226 196 194 172 188 196 182 179 190 165 130 135 128 111 92 83 74 65 59 54 47 43 37 32 28 26 24 22 20 18 17 16 14 13 12 11 9 9 7 6 6 5 4 4 4 3 2 3 3 3 3
4 4 5 5 6 6 6 6 7 8 8 8 9 10 10 11 13 13 14 15 16 16 18 19 20 23 24 27 29 32 35 39 43 49 53 59 63 69 77 84 93 102 109 117 124 132 140 145 150 155 160 163 169 175 178 182 185 186 186 186 185 184 183 182 180 178 177 175 175 174 173 173 173 174 175 175 176 178 184 192 191 190 193 197 195 203 207 211 211 213 219 216 207 213 232 229 224 197 224 218 197 189 165 184 189 175 169 177 160 125 126 121 106 89 80 71 63 57 52 45 42 36 31 28 25 24 22 20 18 17 16 14 13 12 11 9 9 7 6 6 5 4 4 3 2 2 3 3 3 3
3 3 5 5 5 6 6 7 7 8 8 8 8 10 11 11 11 13 14 15 15 17 17 19 20 22 24 26 28 31 34 38 41 47 51 56 62 67 73 81 89 97 105 112 120 126 135 141 146 150 156 160 163 168 173 177 179 181 182 183 183 183 183 182 181 180 180 179 179 177 177 176 177 177 179 183 189 193 195 194 195 201 200 199 206 210 212 216 212 218 221 212 210 218 233 227 228 195 227 214 195 183 158 181 180 169 161 167 153 117 120 116 101 85 76 69 61 55 49 44 40 35 31 28 25 23 21 19 18 16 15 15 13 12 12 9 8 7 6 6 5 4 3 4 2 2 3 3 3 3
3 3 5 5 5 5 6 7 7 7 8 8 9 9 10 11 12 14 14 14 15 16 17 18 20 22 23 25 27 29 32 36 40 44 49 54 58 63 69 76 84 92 100 107 115 121 128 137 142 147 151 156 159 161 166 171 173 176 178 179 181 181 182 182 183 182 183 182 183 185 186 190 193 193 193 193 193 193 196 201 205 201 202 210 211 215 219 213 219 221 218 208 211 224 229 227 219 198 224 211 193 175 153 178 171 163 153 160 145 112 114 111 97 81 71 65 58 53 48 42 38 33 29 27 25 23 20 19 17 16 15 15 13 11 11 9 8 7 6 6 5 4 3 4 3 2 3 3 3 3
3 3 3 3 5 5 6 5 6 7 7 8 9 9 10 11 11 13 13 15 15 16 16 18 19 21 22 24 26 28 32 35 38 42 47 52 56 62 66 73 80 87 95 102 109 116 123 130 137 142 147 150 154 157 160 163 167 170 172 174 177 178 179 179 180 181 182 183 184 186 187 188 187 188 189 192 197 202 203 201 200 205 215 213 216 219 213 219 219 221 211 208 213 228 219 227 205 207 215 203 187 166 148 175 160 156 146 152 136 108 109 105 91 76 67 62 56 50 45 40 36 32 28 26 24 22 20 18 17 16 15 14 12 11 10 10 7 7 6 5 4 4 3 3 2 2 3 3 3 3
3 3 3 3 5 5 5 5 7 6 7 8 8 9 9 11 12 12 13 14 14 15 17 17 18 20 22 24 26 28 30 33 36 40 44 50 54 59 63 68 75 82 90 97 103 111 117 124 130 137 142 146 149 153 156 159 161 163 167 170 173 174 175 176 177 177 178 179 180 182 183 187 190 193 197 200 201 202 202 205 214 220 223 221 219 214 220 221 221 214 208 209 221 227 214 223 193 210 206 195 183 157 145 172 151 151 140 148 128 103 105 99 86 72 64 59 54 48 43 38 34 31 28 25 24 21 20 18 16 16 15 13 12 11 10 9 7 7 6 5 4 4 3 3 2 2 3 3 3 3
4 4 3 3 4 5 5 5 6 7 7 8 8 8 9 10 10 12 13 14 15 15 16 16 18 19 21 23 24 26 29 32 35 39 42 47 51 55 60 64 70 77 84 91 98 105 111 117 124 129 137 141 144 147 151 155 157 159 161 164 167 170 172 173 175 177 178 180 182 184 186 189 191 193 194 197 201 206 211 217 222 223 220 214 214 220 219 219 216 206 211 211 225 214 220 210 189 207 193 187 171 147 143 162 143 144 133 141 113 97 100 92 80 67 61 56 51 46 41 36 33 29 27 24 23 20 19 18 17 15 15 13 12 11 10 9 7 7 6 6 5 4 4 3 3 3 3 3 3 3
4 3 3 3 4 5 5 4 6 7 7 7 8 8 9 9 10 11 13 13 14 15 16 16 17 18 20 22 24 25 28 30 33 37 40 43 48 52 57 62 66 72 79 86 93 99 105 112 117 123 129 135 139 144 146 150 152 155 158 159 160 164 167 169 171 173 174 176 179 182 184 187 191 196 201 206 210 214 218 219 218 214 213 216 220 218 218 215 204 210 211 215 218 205 226 187 193 199 183 178 158 140 140 149 137 137 128 134 101 93 94 86 75 63 59 54 49 44 39 35 31 28 25 24 22 20 18 17 16 15 14 13 12 11 10 9 7 7 6 6 5 4 3 3 3 3 3 3 3 3
4 3 4 4 3 3 5 5 6 5 6 7 7 8 9 9 10 11 12 13 13 15 15 16 17 18 19 21 23 25 26 29 31 34 38 41 45 50 54 59 63 68 74 80 86 93 99 105 111 117 122 127 133 138 142 144 147 150 154 156 157 159 162 165 169 172 174 178 181 184 188 193 197 202 207 210 213 214 213 211 209 212 218 219 216 219 213 203 208 210 208 220 202 211 203 177 193 184 175 166 147 132 139 140 132 128 123 125 92 89 89 80 70 60 56 51 46 41 37 33 30 27 25 23 21 19 18 17 16 15 14 13 12 11 10 9 7 7 6 5 5 5 3 3 3 4 3 2 3 3
3 3 3 4 3 3 4 5 5 5 7 6 7 8 8 9 9 11 12 13 13 14 15 16 17 18 19 20 22 24 25 27 29 32 36 40 43 47 51 55 59 64 68 74 80 87 93 98 105 110 115 121 125 131 136 140 142 145 149 152 155 158 160 162 166 170 174 177 181 185 190 195 197 198 201 203 202 202 204 208 214 219 215 214 216 207 200 208 206 202 215 209 196 212 174 176 190 171 166 153 142 124 136 130 126 119 117 113 84 84 83 72 64 57 53 48 43 38 34 31 28 26 24 22 20 19 17 17 16 15 14 13 12 11 9 8 7 7 6 5 5 5 4 3 3 4 3 3 3 3
3 3 3 3 4 4 4 5 5 5 5 7 7 8 8 8 9 10 11 12 13 14 15 15 16 17 18 20 21 23 24 26 28 30 33 37 40 44 48 52 56 60 64 68 75 81 87 93 99 104 109 113 118 123 128 133 136 140 145 147 150 153 155 158 162 165 169 173 176 179 183 184 185 188 191 195 198 205 211 214 215 214 215 209 200 200 205 204 201 210 213 183 206 184 162 177 178 159 156 148 131 121 133 120 119 110 113 100 79 79 76 65 60 53 50 45 40 36 32 29 27 25 23 21 20 18 17 16 15 14 13 12 11 10 10 8 7 7 7 5 5 5 3 3 3 3 3 3 2 2
3 3 3 3 4 4 4 4 5 5 5 6 7 7 8 7 8 10 10 11 13 13 14 15 16 17 17 19 20 21 23 25 27 30 31 34 38 41 45 49 53 57 61 64 69 74 81 86 92 97 102 107 112 116 121 124 129 134 137 141 143 145 148 150 153 155 157 160 163 166 171 175 180 186 193 198 202 206 207 209 213 217 203 193 200 201 199 195 207 206 182 195 188 158 161 176 157 155 144 141 118 121 124 113 111 102 107 88 74 73 69 61 56 50 46 41 38 34 31 28 26 24 22 20 19 18 17 16 15 14 13 12 11 10 9 8 7 7 7 5 5 4 3 3 3 3 3 3 3 2
3 3 3 3 4 4 3 3 4 5 5 5 7 6 7 8 8 9 10 11 12 13 14 15 15 16 17 18 19 20 22 24 26 28 30 32 35 39 41 45 49 54 57 60 64 68 74 80 84 90 95 100 105 109 113 119 122 127 131 135 139 142 145 147 150 153 155 158 161 166 171 176 181 186 189 191 195 202 207 208 202 194 194 197 196 194 194 204 199 175 188 188 157 153 165 161 146 145 138 125 110 120 112 106 102 97 98 77 70 69 63 57 52 46 42 38 34 32 29 27 25 22 21 20 19 17 16 15 15 13 12 12 11 10 9 7 6 7 6 5 4 4 3 4 3 3 4 4 3 3
3 3 3 3 3 3 3 3 4 4 5 5 6 6 6 8 8 8 9 10 12 12 14 14 15 16 16 18 19 20 22 23 24 26 28 30 32 35 39 42 46 50 54 57 60 64 67 73 78 83 88 93 98 102 107 111 115 120 124 128 132 136 140 142 145 148 150 153 157 160 164 168 173 180 185 190 193 191 186 184 186 189 191 190 189 191 200 193 171 181 186 155 149 155 158 144 144 133 130 113 109 114 103 100 93 91 88 68 66 64 58 53 47 43 40 36 32 30 27 26 23 22 21 19 18 16 16 15 15 13 12 12 10 10 9 7 6 6 6 5 4 4 3 4 3 3 4 4 3 3
3 3 3 3 3 3 3 4 4 4 5 5 4 6 7 7 8 8 8 10 11 11 13 14 15 15 16 17 18 19 20 22 23 25 27 29 30 33 36 40 42 46 50 53 56 60 63 67 71 77 81 86 90 96 100 103 107 112 117 120 124 128 133 137 141 144 148 150 154 157 162 164 166 169 167 167 169 172 177 181 181 181 183 185 192 193 180 171 177 176 152 145 148 153 142 139 132 126 117 107 107 104 95 93 85 85 75 62 61 59 54 49 43 41 37 33 30 28 26 24 23 21 19 18 17 16 16 15 13 13 12 12 10 10 9 8 7 7 6 5 5 4 4 3 3 3 4 4 4 4
3 3 3 3 3 3 3 4 4 4 5 5 4 6 7 6 7 8 7 9 10 11 12 13 13 14 15 16 17 18 20 21 22 23 25 27 28 31 33 36 39 42 46 49 52 56 59 62 65 70 74 79 82 88 93 96 100 104 110 114 117 122 125 130 133 137 139 142 144 146 148 149 152 154 158 163 169 174 173 171 175 178 186 187 179 168 166 172 168 150 142 142 148 141 132 131 120 117 108 100 101 94 89 85 78 79 66 59 58 55 50 44 40 38 34 31 29 26 25 23 21 20 18 17 17 16 16 14 13 13 12 11 10 9 8 8 7 7 6 5 5 4 4 3 3 3 4 4 4 4
3 3 3 3 3 3 3 3 4 4 4 5 5 4 5 7 6 8 7 8 9 10 11 12 13 14 15 16 16 18 19 19 21 23 24 25 27 29 31 33 36 39 42 45 48 52 55 58 61 64 67 72 76 80 84 88 93 97 100 105 108 112 115 118 121 125 129 134 137 141 144 147 151 154 157 159 160 162 168 176 178 176 172 163 160 164 165 156 144 138 138 142 138 126 128 115 115 105 98 95 93 85 83 76 72 71 58 56 54 50 45 41 37 34 31 29 27 25 24 22 20 19 18 17 16 16 15 13 13 12 11 10 10 9 8 6 6 6 6 5 5 4 3 3 3 3 4 4 4 4
3 3 2 3 3 3 3 3 3 3 4 4 5 4 4 6 6 7 7 7 8 9 11 13 13 13 14 15 16 16 17 18 20 21 23 24 25 27 28 31 33 36 38 40 44 47 50 53 56 59 62 65 69 73 77 81 85 90 94 98 101 105 109 113 117 120 123 128 132 136 140 142 145 148 151 154 159 165 167 164 161 156 155 157 159 156 145 137 133 135 136 134 121 124 112 110 102 97 90 92 85 78 75 68 67 61 54 52 50 45 41 37 33 32 29 27 26 24 22 21 20 18 17 17 16 15 15 13 13 12 11 10 9 9 8 6 6 6 5 5 5 4 3 3 3 3 4 4 4 4
2 2 2 2 3 3 3 3 3 3 3 4 4 5 5 4 6 6 7 7 8 8 9 11 12 13 14 14 16 16 17 17 19 20 21 23 24 26 27 28 31 33 35 38 40 42 46 49 52 55 58 61 64 67 70 74 78 82 86 90 94 98 102 105 110 114 117 121 125 129 134 139 143 146 149 152 153 153 150 151 151 153 154 150 144 137 131 130 132 132 127 116 117 107 104 100 93 88 86 85 77 72 67 62 63 54 50 48 45 41 38 33 32 29 27 26 24 22 21 20 18 17 17 16 15 15 14 13 12 12 10 10 9 8 7 6 6 6 4 4 5 4 4 3 3 3 3 4 3 3
2 2 2 2 2 2 3 3 3 3 3 3 3 4 5 4 5 6 7 7 8 8 9 10 11 12 13 14 15 15 16 17 18 18 21 21 23 24 25 27 29 30 32 34 37 39 41 45 48 51 53 56 59 62 64 67 70 75 79 83 87 91 95 99 104 107 111 116 120 124 129 132 134 136 138 139 140 142 144 146 146 142 138 132 128 126 127 129 125 119 111 113 103 99 97 89 85 80 81 75 69 65 61 60 56 49 46 43 41 38 34 31 29 27 25 24 22 21 20 19 18 17 17 16 15 13 13 12 12 12 10 10 9 8 7 6 6 6 4 4 5 4 4 3 3 3 4 4 3 3
2 2 2 2 2 2 2 3 2 3 3 3 4 3 4 4 4 4 6 6 7 7 8 9 10 11 12 13 14 15 15 16 16 18 19 20 21 22 24 25 26 28 30 31 33 36 39 40 43 46 49 51 54 57 59 61 65 67 71 75 80 84 87 92 96 99 102 106 108 112 115 117 121 124 127 131 134 135 134 133 128 123 121 120 121 123 123 118 111 106 107 97 95 93 85 83 75 76 72 67 63 59 56 56 49 45 42 40 37 34 31 29 27 25 24 23 21 20 19 18 17 16 16 15 14 13 12 13 11 11 10 9 8 8 7 7 7 6 5 5 4 4 4 4 3 3 3 4 3 3
2 2 2 2 2 2 2 2 2 3 3 3 3 3 3 4 4 4 5 6 6 7 8 8 9 10 12 12 13 14 14 15 16 17 17 18 19 21 22 23 24 26 27 29 31 32 34 37 39 41 44 47 49 52 54 57 59 62 65 67 71 76 79 82 86 89 94 98 101 105 109 112 114 117 118 119 119 120 119 116 114 115 117 118 117 114 109 105 104 100 91 91 88 80 80 72 70 68 64 60 58 54 52 49 43 41 39 36 33 31 28 27 26 24 23 21 20 19 18 17 16 16 15 14 13 13 12 12 11 10 10 9 8 7 7 6 6 6 5 5 4 4 4 4 3 3 3 4 2 3
2 2 2 2 2 2 2 2 2 2 3 3 3 3 3 4 4 3 4 5 6 7 7 7 8 9 10 11 12 13 14 15 16 16 16 18 18 20 21 22 23 24 25 26 28 29 31 33 36 38 39 42 44 47 50 52 55 57 59 61 64 68 71 75 80 82 87 90 93 96 98 100 102 104 104 107 107 105 106 108 110 111 110 108 105 100 100 100 92 86 87 82 75 76 70 65 65 61 58 55 52 49 48 43 39 37 35 33 31 28 26 25 24 22 22 20 19 18 17 16 16 15 15 14 13 12 12 11 10 10 9 8 7 7 6 6 6 6 4 4 4 4 4 3 3 3 3 3 2 3
2 2 2 2 2 2 2 2 2 2 2 3 3 3 3 3 3 4 4 4 5 6 6 7 8 8 9 10 12 12 13 14 14 16 16 17 17 18 19 20 21 23 24 25 26 27 29 30 32 33 35 38 40 42 44 47 50 52 55 57 59 61 65 67 70 73 76 79 81 84 87 89 92 93 94 97 98 101 102 102 101 100 99 97 96 94 90 83 81 82 76 71 71 66 61 61 59 56 53 50 47 45 42 38 36 33 32 30 28 26 25 23 22 21 20 19 18 17 16 16 15 14 14 13 12 12 11 10 10 9 9 8 7 6 6 6 6 6 4 4 4 4 4 3 3 3 4 3 2 2
1 1 1 1 2 2 2 2 2 2 2 2 2 3 3 3 3 3 4 3 5 5 5 6 7 7 8 9 10 11 12 13 13 15 15 16 17 17 18 19 20 21 22 23 24 25 26 27 29 30 31 34 36 39 40 42 45 47 50 52 54 56 59 61 63 66 68 71 74 75 78 80 83 86 88 90 91 92 92 91 91 91 91 90 86 81 77 78 75 69 67 65 61 59 58 55 53 50 48 44 43 41 37 34 32 31 29 27 26 24 23 22 21 19 18 18 17 16 16 15 15 14 13 12 12 11 11 10 10 9 8 7 6 6 6 6 6 5 5 4 4 4 3 3 3 3 3 3 2 2
1 1 1 1 2 2 2 2 2 2 2 2 2 3 3 3 2 2 3 4 4 5 5 5 6 7 8 8 9 10 11 11 13 13 13 15 15 16 16 17 18 19 20 21 22 23 24 26 26 27 29 31 32 34 36 38 40 42 44 47 49 52 54 56 58 60 61 63 67 69 71 73 76 78 79 81 81 82 82 82 83 82 78 75 73 72 71 68 64 63 61 58 57 56 53 50 47 45 42 40 39 36 33 31 29 28 27 26 24 22 22 20 19 19 18 17 16 16 15 15 14 13 12 12 12 11 10 10 9 9 8 7 6 6 6 6 6 5 5 4 4 4 3 3 3 3 3 3 2 2
1 1 1 1 1 1 2 2 2 2 2 2 2 2 3 3 3 3 3 4 4 3 5 5 5 6 7 7 8 9 10 10 12 12 13 14 14 15 16 16 17 17 18 20 20 21 23 24 25 25 27 28 29 31 33 34 36 39 40 42 44 46 49 51 53 56 58 59 61 62 64 66 68 70 70 71 72 74 73 72 71 69 67 68 67 64 62 61 60 58 55 54 53 49 47 45 43 41 38 37 35 32 30 29 27 26 25 24 22 21 20 19 18 18 17 16 16 15 15 13 13 12 12 12 11 10 10 10 9 8 8 7 6 6 6 6 5 5 5 4 3 3 3 3 3 3 2 2 2 2
1 1 1 1 1 1 2 2 2 2 2 2 2 2 2 3 3 3 3 3 3 4 4 5 5 5 6 7 8 8 8 9 10 11 12 13 13 14 15 16 16 16 17 18 19 20 20 22 23 23 25 26 27 28 30 31 32 34 36 38 40 42 44 46 48 50 52 54 56 57 59 60 62 62 63 64 64 63 63 62 63 62 62 60 58 58 57 55 52 51 51 49 47 44 41 40 38 36 34 33 31 29 27 26 25 24 22 21 20 20 19 18 17 16 16 15 14 14 13 13 12 12 12 11 10 10 9 8 8 8 6 7 6 6 6 6 5 5 4 4 3 3 3 3 3 3 2 2 2 2
1 1 1 1 1 1 2 2 2 2 2 2 2 2 2 2 3 3 3 3 4 4 4 3 4 4 5 6 7 7 7 8 9 10 11 12 12 13 14 15 15 16 16 16 17 18 19 20 21 22 23 24 25 26 27 28 30 31 32 34 36 38 39 41 43 44 46 49 51 52 53 54 55 56 56 57 57 58 59 58 57 56 55 55 54 53 51 50 48 47 45 42 41 40 38 36 34 32 31 29 27 26 25 24 23 22 21 19 19 18 18 16 16 16 15 15 14 14 12 12 12 11 10 10 10 9 9 8 7 6 6 6 6 6 6 6 4 4 4 4 3 3 3 3 2 2 2 2 2 2
1 1 1 1 1 1 2 2 2 2 2 2 2 2 3 3 3 3 3 3 3 4 3 4 4 4 5 6 6 6 7 8 8 8 9 10 11 12 13 13 14 15 15 16 16 17 17 18 19 20 20 21 23 24 25 26 27 29 30 30 32 34 35 37 39 41 42 43 45 47 48 48 49 51 52 52 53 53 52 52 52 51 51 50 48 46 46 45 44 41 40 39 37 35 34 32 30 30 29 26 25 25 24 22 21 20 19 19 18 17 16 16 16 15 14 14 14 13 13 12 11 10 10 9 9 8 8 7 6 6 6 6 6 6 6 5 4 4 4 4 3 3 3 3 2 2 2 2 2 2
1 1 1 1 1 1 2 2 2 2 2 2 2 2 2 3 3 3 3 3 3 3 3 4 4 4 4 4 5 5 6 7 7 7 8 9 10 10 11 12 12 13 13 15 16 15 16 16 17 18 19 20 21 22 23 25 25 26 27 28 29 31 32 33 35 37 38 39 41 41 43 44 45 46 47 46 46 47 47 47 47 46 45 44 42 43 41 40 39 37 36 34 33 32 30 29 28 27 26 24 24 23 22 20 19 18 18 17 17 17 16 15 15 14 13 13 12 12 12 11 10 10 10 9 9 8 7 6 6 6 6 6 6 5 4 4 4 4 3 3 3 3 3 3 2 2 2 2 2 2
1 1 1 1 1 1 2 2 2 2 2 2 2 2 2 2 3 3 3 3 3 3 3 3 4 4 4 5 5 5 5 7 6 7 7 8 8 8 9 10 12 12 13 14 14 15 15 16 16 17 17 18 19 20 21 22 24 24 25 26 27 28 29 30 32 33 34 36 37 38 39 40 41 41 41 42 42 42 42 41 41 40 40 40 39 38 37 36 35 33 31 31 30 28 27 27 25 25 24 23 21 21 20 19 18 17 17 17 16 15 14 14 14 13 13 11 12 12 10 10 9 9 9 8 7 7 6 6 6 6 6 6 6 5 4 4 4 4 3 3 3 3 3 3 2 2 2 2 2 2
1 1 1 1 1 1 1 1 2 2 2 2 2 2 2 2 3 3 3 3 3 3 3 3 3 3 4 4 5 4 4 5 5 6 6 7 8 7 8 9 9 10 12 12 13 14 14 15 15 16 16 17 17 18 19 20 21 22 23 24 25 26 27 28 29 29 31 31 32 34 34 35 36 37 38 38 38 38 38 38 37 37 36 35 35 34 32 32 31 30 29 28 27 25 25 24 23 23 21 21 20 19 18 18 17 17 16 16 15 14 14 13 13 13 12 12 11 10 10 10 9 9 8 8 6 6 7 6 6 6 6 6 4 4 4 4 3 3 4 3 2 3 2 2 2 2 2 2 3 3
1 1 1 1 1 1 1 1 2 2 2 2 2 2 2 2 3 3 3 3 3 3 3 3 2 3 4 4 4 5 5 5 5 5 6 6 6 7 8 7 8 9 9 10 11 12 13 14 14 15 15 15 16 16 17 18 19 20 21 22 23 24 25 25 26 27 28 29 29 30 31 32 32 33 33 33 33 33 34 34 33 33 32 32 31 30 29 29 28 27 26 26 25 24 23 22 21 20 19 19 18 18 17 16 16 15 15 15 14 14 13 13 12 11 11 11 10 10 9 9 8 8 7 7 7 7 7 6 6 6 5 5 4 4 4 4 3 3 3 4 3 2 2 2 2 2 2 2 3 3
1 1 1 1 1 1 1 1 1 1 2 2 2 2 2 2 3 3 3 3 3 3 3 3 3 3 3 3 4 4 4 4 4 4 4 5 6 6 7 6 8 8 8 9 9 10 11 12 13 14 14 15 15 16 17 17 18 19 20 20 21 22 23 24 25 25 26 27 27 28 29 29 30 30 30 30 30 30 30 30 31 29 29 29 28 27 27 26 25 25 24 24 23 22 21 20 20 19 18 17 17 17 16 16 15 15 14 13 13 12 12 12 12 11 10 10 9 9 9 7 8 7 6 6 6 6 6 6 4 4 5 5 3 3 3 3 3 3 2 2 2 2 2 2 2 2 3 3 3 3
1 1 1 1 1 1 1 1 1 1 2 2 2 2 2 2 2 3 3 3 3 3 3 3 3 3 3 3 4 4 3 4 5 5 4 4 5 5 6 7 6 7 8 8 9 9 9 10 11 12 13 14 14 15 15 16 16 17 18 19 19 20 21 22 23 23 24 25 26 26 26 26 27 27 27 27 27 27 27 27 27 26 26 26 26 25 24 24 23 23 22 21 21 20 19 19 18 17 17 17 16 15 16 15 15 14 13 13 12 13 11 11 11 10 10 10 9 9 7 7 7 7 7 7 7 6 6 5 4 4 5 4 3 3 3 3 3 3 2 2 2 2 2 2 2 2 3 3 2 2
1 1 1 1 1 1 1 1 1 1 2 2 2 2 2 2 2 3 3 3 3 3 3 3 3 3 4 3 3 3 4 4 4 5 5 5 5 5 4 5 6 6 6 7 8 8 8 9 10 10 11 12 13 13 14 15 15 16 16 17 18 18 19 20 21 22 22 23 24 24 24 25 25 25 25 25 25 25 25 25 25 25 24 25 24 23 22 22 21 20 20 19 19 18 18 17 17 17 16 16 15 15 15 13 14 13 12 12 13 11 11 10 10 9 9 8 8 8 6 6 7 7 7 7 5 4 4 4 4 4 4 4 3 3 3 3 2 2 2 2 2 2 2 2 3 3 3 2 2 2
1 1 1 1 1 1 1 1 1 1 2 2 2 2 2 2 2 3 3 3 3 3 3 3 3 3 3 3 3 3 4 4 4 4 5 5 5 5 4 4 5 5 6 6 6 7 8 8 8 9 9 11 12 12 13 14 15 14 16 16 17 17 18 18 19 20 21 21 22 22 22 23 23 23 23 23 24 24 24 23 23 23 22 22 21 21 20 20 19 19 18 18 18 17 16 16 16 15 15 15 15 14 13 13 12 12 12 12 11 10 10 9 9 9 8 8 8 7 6 6 7 7 6 6 5 4 4 4 4 3 3 3 2 2 2 2 2 2 2 2 2 2 2 2 3 3 3 2 2 2
