P2
# img10.pgm
3 3
255
1 1 1
1 0 1
1 1 1
