P2
# img2.pgm
20 20
255
222 199 185 186 199 214 228 240 245 240 222 201 190 197 215 224 216 195 176 166
195 155 129 127 143 167 194 220 234 228 199 162 141 152 180 197 184 150 118 101
169 117 79 70 84 113 154 197 224 220 184 135 103 110 143 167 154 112 71 48
141 88 48 35 47 80 130 184 219 221 186 133 90 83 110 136 129 88 46 22
104 62 32 25 42 80 135 189 224 229 200 149 98 74 86 108 106 75 39 19
60 38 26 34 64 110 162 208 235 239 218 174 120 82 75 86 85 65 42 33
29 25 34 61 103 153 197 228 244 245 232 199 151 106 82 77 71 59 55 65
22 31 56 98 148 192 221 237 243 245 239 220 185 145 113 89 70 61 74 106
46 61 94 140 186 215 226 226 226 230 236 232 215 188 155 117 80 67 91 140
99 113 142 179 207 215 205 190 186 199 219 233 233 219 190 143 94 74 101 158
165 173 189 206 209 192 162 137 134 158 195 223 235 230 206 160 107 84 110 166
217 218 218 211 189 152 113 89 94 128 172 203 216 218 203 168 124 104 128 178
241 234 219 191 151 108 74 65 85 123 157 173 178 182 184 172 149 140 159 197
241 224 194 152 107 72 60 73 106 140 153 142 129 133 150 167 174 181 198 221
222 194 152 107 72 59 72 107 146 169 160 125 94 89 113 151 186 211 228 240
183 148 106 72 59 72 107 151 188 200 179 134 90 72 89 134 184 222 242 250
128 98 69 58 72 107 153 194 221 226 205 164 118 91 96 134 185 225 246 253
71 57 52 69 106 152 195 225 241 242 229 200 165 138 135 160 199 232 249 254
32 36 56 97 148 194 225 243 251 251 244 230 209 191 186 199 222 241 251 255
15 32 71 128 183 222 243 251 254 254 252 246 238 230 227 232 241 249 254 255
