P2
# img3.pgm
20 20
255
51 53 56 60 63 68 72 78 85 92 102 113 127 145 170 204 255 255 255 255
51 26 14 15 15 17 18 19 21 23 25 28 31 36 42 51 63 85 127 255
114 93 85 75 63 51 36 19 21 23 25 28 31 36 42 51 63 85 127 255
165 147 141 135 127 119 109 98 85 69 51 28 31 36 42 51 63 85 127 255
204 201 212 210 207 204 200 196 191 185 178 170 159 145 127 102 63 85 127 255
165 174 184 195 207 221 236 255 255 255 255 255 255 255 255 255 255 255 255 255
114 120 127 135 143 153 163 176 191 208 229 255 255 255 255 255 255 255 255 255
51 53 56 60 63 68 72 78 85 92 102 113 127 145 170 204 255 255 255 255
51 26 14 15 15 17 18 19 21 23 25 28 31 36 42 51 63 85 127 255
114 93 85 75 63 51 36 19 21 23 25 28 31 36 42 51 63 85 127 255
165 147 141 135 127 119 109 98 85 69 51 28 31 36 42 51 63 85 127 255
204 201 212 210 207 204 200 196 191 185 178 170 159 145 127 102 63 85 127 255
165 174 184 195 207 221 236 255 255 255 255 255 255 255 255 255 255 255 255 255
114 120 127 135 143 153 163 176 191 208 229 255 255 255 255 255 255 255 255 255
51 53 56 60 63 68 72 78 85 92 102 113 127 145 170 204 255 255 255 255
51 26 14 15 15 17 18 19 21 23 25 28 31 36 42 51 63 85 127 255
90 75 75 75 63 51 36 19 21 23 25 28 31 36 42 51 63 85 127 255
106 85 85 85 85 85 85 85 85 69 51 28 31 36 42 51 63 85 127 255
191 159 159 159 159 159 159 159 159 159 159 159 159 145 127 102 63 85 127 255
255 255 255 255 255 255 255 255 255 255 255 255 255 255 255 255 255 255 255 255
