P2
# img4.pgm
20 20
255
246 240 234 224 215 205 194 184 173 164 154 147 141 134 126 122 120 121 124 131
237 0 0 209 0 0 177 166 0 0 143 0 0 125 0 0 121 0 0 135
227 0 0 192 0 0 159 149 0 0 131 0 0 121 0 0 122 0 0 146
212 0 0 173 0 0 141 133 0 0 122 0 0 121 0 0 129 0 0 157
193 0 0 157 0 0 126 119 0 0 113 0 0 122 0 0 138 0 0 173
176 0 0 141 0 0 115 112 0 0 111 0 0 122 0 0 151 0 0 188
159 0 0 127 0 0 106 106 0 0 111 0 0 130 0 0 162 0 0 204
149 0 0 116 0 0 103 100 0 0 112 0 0 137 0 0 177 0 0 219
132 0 0 109 0 0 98 100 0 0 114 0 0 144 0 0 187 0 0 228
123 0 0 106 0 0 99 102 0 0 119 0 0 157 0 0 200 0 0 237
116 0 0 101 0 0 101 107 0 0 129 0 0 170 0 0 214 0 0 243
111 0 0 101 0 0 108 114 0 0 142 0 0 181 0 0 225 0 0 248
110 0 0 104 0 0 115 122 0 0 154 0 0 197 0 0 234 0 0 253
109 0 0 109 0 0 120 132 0 0 169 0 0 210 0 0 242 0 0 255
113 0 0 113 0 0 134 143 0 0 182 0 0 225 0 0 247 0 0 255
119 0 0 122 0 0 146 157 0 0 196 0 0 235 0 0 252 0 0 255
127 0 0 132 0 0 158 171 0 0 213 0 0 242 0 0 255 0 0 255
139 0 0 146 0 0 172 184 0 0 224 0 0 247 0 0 255 0 0 255
152 0 0 158 0 0 185 198 0 0 234 0 0 251 0 0 255 0 0 255
170 169 172 177 182 190 201 215 223 233 240 249 252 255 255 255 255 255 255 255
