P2
# img6.pgm
20 20
255
255 255 255 255 255 255 255 255 255 255 255 255 255 255 255 255 255 255 255 255
255 255 255 255 255 255 255 255 255 0 0 255 255 0 0 0 0 0 0 255
255 0 0 0 0 0 255 255 255 0 0 255 255 0 0 0 0 0 0 255
255 0 0 0 0 0 255 255 255 255 255 255 255 0 0 0 0 0 0 255
255 0 0 0 0 0 255 255 255 255 255 255 255 0 0 0 0 0 0 255
255 0 0 0 0 0 255 255 255 255 255 255 255 0 0 0 0 0 0 255
255 0 0 0 0 0 255 0 0 0 0 0 255 0 0 0 0 0 0 255
255 255 255 255 255 255 255 0 0 0 0 0 255 255 255 255 255 255 255 255
255 255 255 255 255 255 255 0 0 0 0 0 255 255 255 0 0 255 255 255
255 255 255 0 0 255 255 0 0 0 0 0 255 255 255 0 0 255 255 255
255 255 255 0 0 255 255 0 0 0 0 0 255 255 255 255 255 255 255 255
255 255 255 255 255 255 255 255 255 255 255 255 255 255 0 0 0 0 0 255
255 255 255 255 255 255 255 255 255 255 0 0 255 255 0 0 0 0 0 255
255 255 255 0 0 0 0 0 255 255 0 0 255 255 0 0 0 0 0 255
255 255 255 0 0 0 0 0 255 255 255 255 255 255 0 0 0 0 0 255
0 0 255 0 0 0 0 0 255 255 255 255 255 255 0 0 0 0 0 255
0 0 255 0 0 0 0 0 255 255 255 255 255 255 255 255 255 255 255 255
255 255 255 0 0 0 0 0 255 255 255 0 0 255 255 255 255 255 255 255
255 255 255 255 255 255 255 255 255 255 255 0 0 255 255 255 255 255 255 255
255 255 255 255 255 255 255 255 255 255 255 255 255 255 255 255 255 255 255 255
