P2
# img9.pgm
10 10
255
0 10 20 30 40 50 60 70 80 90
10 20 30 40 50 60 70 80 90 0
20 30 40 50 60 70 80 90 0 10
30 40 50 60 70 80 90 0 10 20
40 50 60 70 80 90 0 10 20 30
50 60 70 80 90 0 10 20 30 40
60 70 80 90 0 10 20 30 40 50
70 80 90 0 10 20 30 40 50 60
80 90 0 10 20 30 40 50 60 70
90 0 10 20 30 40 50 60 70 80
