P2
# landscape2.pgm
150 100
255
137 141 144 145 146 149 150 152 154 156 158 158 160 163 165 165 165 164 165 165 164 164 162 162 162 163 163 165 164 163 161 160 161 160 158 158 157 155 154 154 153 153 150 146 145 145 144 141 139 136 136 135 136 136 135 136 139 144 149 150 148 151 153 155 157 156 153 150 150 151 149 146 146 148 148 144 139 137 140 142 142 141 141 140 138 138 137 136 133 131 130 129 124 117 113 114 115 115 114 114 116 118 122 126 128 130 132 131 127 120 114 109 107 106 105 103 101 98 97 97 98 98 97 97 97 98 99 101 102 102 103 102 101 100 100 100 99 98 99 100 101 101 102 102 102 101 99 99 98 97
135 139 142 144 145 148 150 151 155 156 157 159 160 164 165 165 165 167 168 168 166 165 163 161 161 161 162 163 163 162 160 159 159 158 158 158 156 154 153 153 152 151 151 149 148 147 145 143 142 140 140 140 140 140 139 142 148 153 157 157 155 156 159 160 159 157 153 150 151 151 149 147 147 146 146 144 141 141 143 145 144 142 141 140 139 139 139 138 136 132 130 130 126 120 117 117 116 116 115 115 115 116 119 122 125 127 128 126 123 117 114 114 114 115 112 109 106 104 103 103 103 104 104 105 105 105 107 108 107 108 106 105 104 103 103 103 102 101 102 102 104 105 105 104 105 103 101 101 100 99
135 138 141 144 147 149 150 151 154 155 156 158 161 164 164 164 165 167 168 168 167 167 165 163 161 161 162 162 162 160 158 157 158 157 156 156 153 152 150 149 150 151 151 150 150 149 147 147 147 146 145 145 145 144 145 150 157 162 162 161 159 160 163 163 162 158 154 151 150 149 148 146 145 145 145 144 145 146 147 146 144 143 142 141 140 142 141 140 138 135 132 131 128 125 123 120 117 116 115 114 115 116 119 121 125 126 125 124 121 120 122 125 125 122 119 115 113 112 111 110 112 113 113 112 112 113 114 113 113 111 109 107 106 106 106 106 106 106 106 107 107 108 108 106 106 105 104 103 103 102
132 136 139 143 146 149 151 152 153 153 155 156 157 160 162 164 165 166 166 166 166 166 164 162 161 160 159 159 159 158 157 157 157 155 154 153 152 150 148 148 149 150 149 150 151 151 150 150 152 151 150 150 152 152 154 158 163 167 165 163 162 163 163 164 162 160 158 155 153 150 148 145 144 145 147 147 147 148 148 145 144 143 142 140 140 141 141 140 139 138 134 133 132 130 126 122 119 117 115 115 117 119 121 123 126 127 126 126 125 126 128 129 128 126 125 123 123 122 121 120 122 123 122 120 118 117 116 115 113 113 111 109 108 108 108 108 108 109 109 111 111 111 109 109 109 109 109 108 108 107
128 131 135 139 143 146 149 149 151 153 153 154 154 156 159 162 164 165 165 164 164 164 162 161 160 159 157 155 155 156 156 155 154 153 152 150 150 149 148 148 149 151 153 152 153 153 153 153 155 157 157 158 160 162 162 165 167 168 168 167 166 165 164 162 162 162 161 158 156 154 150 148 149 152 154 152 149 147 147 146 145 144 142 141 140 141 141 140 140 138 135 135 134 132 129 124 121 117 116 116 118 120 122 125 127 129 130 127 125 127 129 129 130 130 130 130 131 130 128 128 127 127 126 124 121 118 115 114 113 113 112 111 111 112 111 111 111 112 113 114 115 115 115 115 115 116 115 113 112 109
126 129 132 135 140 143 145 145 147 149 151 151 151 151 153 157 159 161 162 163 162 161 159 157 157 156 154 153 152 152 152 152 152 151 150 149 148 148 148 149 151 154 155 155 156 157 158 160 162 164 165 166 168 169 170 169 169 169 168 168 167 165 163 163 163 162 161 160 159 157 154 153 156 160 161 158 155 152 151 150 149 148 145 142 142 141 141 141 139 138 138 138 137 134 130 125 122 119 116 117 119 122 125 127 128 129 129 126 126 129 130 130 131 132 133 133 133 132 131 129 128 128 125 122 120 118 115 114 114 113 112 113 113 113 113 113 114 115 117 119 121 121 121 120 121 121 120 117 115 113
127 129 132 134 136 138 140 140 142 144 146 148 148 149 150 151 154 156 157 159 159 158 157 155 154 152 151 150 149 149 148 147 147 147 146 145 146 147 148 151 153 154 156 158 160 161 163 167 169 170 170 171 173 174 175 173 171 169 169 167 166 165 164 164 165 163 161 162 163 162 160 160 162 164 163 160 157 156 154 153 153 152 148 146 145 144 143 140 139 139 139 140 140 136 131 126 122 119 119 120 123 126 128 129 130 128 128 127 128 130 130 130 130 131 132 132 131 131 130 128 127 125 123 120 118 118 117 116 116 115 114 114 114 115 116 116 119 120 122 123 124 126 126 126 127 126 125 124 122 122
128 131 134 135 137 138 138 138 139 140 142 144 144 145 147 147 148 149 150 151 153 154 153 151 150 150 148 147 146 146 145 142 141 141 141 142 144 146 148 151 152 154 155 158 159 161 165 167 170 170 171 173 176 177 177 176 172 171 169 168 167 166 166 167 167 166 165 167 168 167 166 166 165 164 162 159 157 156 154 152 152 151 149 148 147 146 144 142 141 139 139 140 141 138 132 128 123 121 122 125 126 128 129 130 129 127 128 128 129 131 131 130 129 131 131 130 128 127 127 125 124 122 121 120 120 119 119 118 118 118 118 118 118 117 117 119 120 122 124 127 128 130 132 133 134 133 134 134 132 133
128 132 134 135 138 140 140 141 140 140 141 141 142 143 144 145 144 144 144 146 146 148 149 148 147 147 147 144 144 144 143 140 140 141 141 141 143 146 149 151 155 156 157 157 158 160 162 165 168 169 170 172 175 176 176 175 173 172 171 167 169 170 170 170 171 171 172 173 174 172 170 168 166 164 161 159 157 156 155 153 152 150 148 147 147 146 144 142 141 140 139 140 140 137 133 129 125 124 125 127 127 128 130 130 130 130 130 130 130 130 130 130 131 130 129 128 127 125 124 123 122 121 121 120 121 122 122 123 123 123 123 122 121 120 120 121 123 125 126 128 131 133 136 137 137 137 138 139 139 139
129 132 135 136 138 140 141 142 141 141 141 141 141 142 143 142 142 142 141 142 142 144 146 146 145 146 146 144 144 145 145 143 144 146 147 147 149 152 153 157 161 163 164 163 163 164 164 165 166 168 167 168 171 172 172 172 171 171 173 168 168 175 171 169 173 173 175 177 176 172 169 167 165 163 160 157 156 155 153 151 151 150 149 148 146 146 144 142 142 140 139 139 139 135 132 130 128 128 129 128 126 126 128 130 131 132 133 133 134 134 134 133 132 130 127 126 126 125 123 124 124 124 124 124 125 127 128 129 131 131 131 129 127 126 125 126 126 127 128 129 131 132 135 137 137 137 138 139 141 139
132 134 137 139 140 141 142 142 143 142 143 143 142 142 143 143 143 142 141 141 142 143 143 144 144 145 145 145 146 147 148 148 151 155 157 158 159 161 161 164 167 168 170 171 170 169 167 166 166 166 166 166 168 170 170 168 169 171 174 173 170 175 169 174 173 172 174 175 173 169 165 164 162 160 158 156 154 153 152 149 149 148 148 147 146 146 145 144 142 139 138 138 138 134 131 130 129 130 130 128 126 127 131 132 133 134 135 136 137 138 138 135 132 129 127 126 126 125 125 125 125 127 128 130 132 135 137 139 141 142 140 139 138 137 136 135 134 133 133 134 134 134 135 137 136 136 137 138 138 137
135 138 140 141 142 143 144 144 144 144 144 143 142 142 142 142 142 143 142 142 143 143 143 144 144 145 145 146 148 150 152 153 156 161 162 163 163 164 165 167 169 172 172 171 171 170 168 166 164 163 163 167 171 171 167 165 166 168 171 172 167 169 168 174 169 167 167 167 166 162 159 159 160 159 157 156 153 153 152 150 148 148 146 145 144 144 145 145 143 141 141 141 138 135 131 130 130 129 128 128 128 129 131 131 131 133 135 137 137 137 135 132 129 128 127 127 127 127 127 128 129 132 134 136 139 141 143 145 147 149 149 149 149 147 145 143 142 140 139 138 138 137 136 137 138 137 138 138 136 134
139 141 143 144 146 147 148 149 149 149 148 147 146 145 145 145 145 144 144 144 144 145 145 145 147 148 149 151 153 154 156 157 159 161 162 161 161 162 164 167 170 171 168 164 164 164 163 162 162 162 164 168 171 169 164 160 160 162 160 165 161 151 166 168 160 161 160 158 158 158 158 158 157 157 156 155 154 154 154 152 150 149 146 144 144 144 146 146 145 144 142 141 138 135 134 133 131 130 129 130 130 130 130 131 131 132 133 132 132 132 130 130 129 128 129 129 129 130 132 132 134 137 140 142 145 146 147 148 150 151 151 151 151 150 148 146 145 144 143 142 141 141 141 141 141 140 139 138 136 133
140 142 144 146 147 148 149 150 150 151 151 151 149 149 148 147 147 146 147 147 146 147 148 148 149 151 152 155 155 156 157 157 158 159 161 160 160 161 163 165 168 168 165 160 159 160 159 160 160 160 162 163 164 165 163 161 159 160 157 161 156 126 156 160 155 159 156 154 156 158 159 156 154 154 153 152 152 153 154 152 151 150 148 146 146 148 149 147 145 143 140 138 136 135 135 134 132 132 132 132 131 131 131 131 131 131 132 132 132 132 132 132 132 132 132 134 134 136 137 139 141 144 146 148 149 149 150 150 150 150 149 149 149 148 148 147 147 147 147 146 144 145 146 145 145 143 140 137 134 131
129 129 133 139 141 144 146 148 150 151 152 152 150 150 150 149 149 149 149 149 148 149 151 151 152 153 154 154 155 158 158 159 160 162 163 163 166 165 164 164 166 166 162 159 159 160 160 160 162 163 163 161 161 164 164 164 158 153 150 143 122 100 137 152 156 157 155 153 154 158 159 156 152 152 151 149 150 151 152 150 149 149 147 147 148 151 149 145 142 141 139 138 137 137 137 136 136 135 135 134 134 134 133 133 133 133 135 136 137 137 137 137 136 136 137 139 141 142 143 145 147 150 152 153 152 153 152 153 151 151 151 150 150 149 149 149 149 150 151 150 149 147 147 146 145 143 139 137 134 133
105 101 105 116 126 132 139 143 146 149 151 152 152 153 152 151 151 150 150 150 149 149 150 151 153 156 158 159 159 161 163 164 165 167 168 168 171 172 169 165 164 163 160 160 162 164 164 165 166 169 169 167 166 167 169 162 160 150 131 109 59 52 106 147 154 157 155 154 154 156 156 155 152 152 151 149 149 150 149 146 143 143 143 144 146 147 146 142 141 141 140 140 140 142 142 141 141 140 140 141 140 140 139 139 140 140 141 141 142 142 141 141 141 141 142 143 145 147 149 150 153 155 157 157 156 156 155 155 155 153 152 151 151 151 150 150 150 150 151 150 149 146 145 145 143 141 139 139 139 139
91 86 84 92 103 115 125 134 140 143 145 147 150 152 154 153 152 152 151 151 151 152 153 155 159 162 164 165 165 165 167 169 169 169 169 169 171 174 172 167 164 161 159 161 165 168 168 169 171 174 175 173 172 172 172 170 170 170 160 125 58 35 60 153 157 156 157 156 155 153 153 152 152 150 148 148 149 147 144 142 139 137 137 141 142 143 142 141 142 141 142 143 145 146 146 147 146 146 147 147 146 147 146 146 146 145 144 144 145 144 144 144 145 146 146 148 149 151 153 156 160 161 160 159 156 155 155 156 156 153 151 150 149 148 147 147 146 146 146 146 145 145 144 144 142 142 143 143 144 144
88 88 85 86 91 97 104 119 133 139 138 141 146 150 153 155 155 154 155 156 156 158 160 161 164 167 167 167 168 168 168 169 169 168 168 169 169 169 168 166 163 162 162 163 167 170 172 173 175 175 174 173 173 174 173 173 173 173 173 161 76 39 47 135 169 155 160 157 157 155 154 153 153 151 149 146 145 144 142 142 140 139 139 141 141 143 146 147 147 147 148 150 151 151 152 153 153 153 153 152 152 153 152 151 150 149 146 145 145 146 147 147 149 151 152 154 156 157 160 162 164 163 160 157 154 153 152 152 151 150 147 147 146 144 144 144 144 144 144 144 144 144 145 146 146 148 148 147 147 146
87 86 89 92 93 94 91 100 117 126 124 127 135 139 147 156 161 162 163 164 164 165 166 167 167 168 168 167 167 167 165 165 166 167 167 167 165 163 163 164 163 163 165 166 169 171 173 173 175 175 174 172 173 173 173 172 172 171 170 172 149 62 42 119 176 155 160 159 159 157 155 155 154 154 151 148 145 145 145 145 145 144 145 146 146 151 156 156 155 154 154 156 156 156 156 158 158 156 155 155 155 156 154 153 152 151 150 148 148 150 151 153 155 158 158 159 161 161 161 162 160 158 155 152 149 149 147 147 146 146 145 144 143 143 143 143 143 143 144 145 146 146 148 149 150 150 150 150 149 147
107 99 99 102 106 109 107 104 107 111 108 108 109 113 126 145 159 167 171 172 172 172 174 174 172 172 172 170 169 168 166 165 166 167 166 164 163 162 163 166 166 167 168 170 171 173 174 175 177 178 179 177 176 175 173 170 167 165 166 165 176 129 45 99 175 160 157 161 159 155 157 160 159 160 159 156 154 154 154 155 157 160 162 162 162 166 168 166 162 160 158 157 158 159 160 161 161 159 157 156 156 156 156 155 153 152 151 150 151 152 154 155 156 156 157 157 159 158 158 156 153 151 148 146 146 144 144 144 144 144 144 142 141 142 142 142 143 144 147 149 149 150 152 152 152 152 152 151 149 148
137 133 129 126 129 134 134 127 120 122 124 114 102 98 103 119 138 155 163 164 164 171 175 177 177 176 175 174 174 173 173 171 171 171 169 163 160 162 168 171 170 170 172 172 172 174 175 177 180 181 181 181 181 178 176 171 165 161 160 161 161 163 101 91 177 167 160 166 165 162 166 170 170 171 171 169 166 171 172 174 177 180 180 177 175 176 174 170 165 162 161 160 162 162 163 162 162 160 158 156 156 155 154 154 154 151 150 149 149 150 151 151 151 153 152 152 153 153 151 149 147 145 144 144 144 142 142 143 143 143 144 145 146 146 147 148 149 151 154 155 156 157 159 159 158 156 154 153 152 150
145 149 151 152 152 154 154 148 143 147 149 137 122 108 103 107 119 137 146 145 149 164 173 175 175 175 175 175 174 174 176 176 176 174 169 158 152 159 170 175 175 174 174 174 175 176 177 179 181 182 182 181 181 180 177 172 165 160 159 161 165 163 167 142 175 190 179 187 187 180 187 189 188 187 186 179 177 188 191 191 191 190 186 181 178 177 174 171 169 167 166 166 167 166 165 163 159 157 155 154 153 152 151 150 149 148 148 147 147 147 147 147 147 149 148 148 148 147 145 144 143 143 142 143 143 143 144 146 147 150 152 155 158 159 160 162 162 163 165 166 167 167 168 168 167 164 161 160 159 158
133 142 152 158 161 164 164 162 161 164 164 155 142 125 115 116 124 138 149 152 157 167 173 174 173 173 174 175 175 174 175 176 175 174 168 158 150 159 172 178 179 178 178 178 179 180 181 182 183 183 182 181 181 178 176 177 171 166 165 164 168 174 178 171 189 210 207 210 211 200 211 208 204 202 198 184 193 199 197 192 187 182 178 175 174 173 173 173 171 169 167 165 165 163 161 158 156 154 152 150 149 148 147 147 146 145 146 147 147 146 145 146 146 146 145 144 143 143 143 144 144 145 146 147 149 152 155 156 159 161 162 164 166 168 169 170 172 173 175 175 174 172 171 171 170 168 166 165 164 163
123 137 146 155 163 167 168 171 174 174 173 169 163 152 140 133 136 144 156 165 170 174 177 177 176 176 176 176 176 176 177 176 175 175 173 168 166 170 177 181 181 181 182 183 183 184 186 185 185 185 185 186 187 190 184 186 189 185 184 182 183 193 208 180 172 226 220 220 217 205 214 208 209 207 190 196 201 194 189 183 176 173 174 173 173 172 172 169 165 162 160 159 159 157 155 154 153 150 149 148 147 145 144 144 145 146 146 147 147 147 147 146 146 146 145 146 147 148 150 152 155 156 159 162 166 168 169 170 171 171 166 162 161 161 161 163 169 172 173 172 169 166 166 167 166 163 161 161 160 160
137 149 156 162 167 170 169 171 176 178 179 180 179 173 163 157 153 150 154 161 169 175 179 179 179 178 178 178 178 178 177 177 176 178 179 178 178 179 181 181 181 182 183 183 182 183 185 186 187 187 189 192 195 198 201 193 199 204 205 201 198 201 212 226 163 183 215 209 202 200 195 199 201 183 190 200 192 184 179 174 169 171 170 170 168 166 163 158 155 153 152 151 151 150 148 147 146 146 145 145 144 144 144 144 146 147 149 149 148 148 149 149 149 150 153 155 158 160 162 165 166 168 170 174 176 176 174 173 172 171 164 157 153 151 151 152 157 161 161 158 156 156 158 159 158 155 153 153 152 149
150 155 156 165 168 169 166 163 166 170 174 178 183 179 168 166 168 162 159 164 168 173 180 181 179 179 179 178 176 178 177 175 176 177 178 178 178 179 181 180 180 180 180 179 180 182 185 189 190 191 194 197 201 204 206 206 199 210 216 214 201 210 200 220 176 161 191 178 176 191 180 189 164 176 190 184 178 174 171 166 162 165 161 160 158 156 153 149 148 147 146 145 145 144 143 142 143 143 143 143 144 146 147 149 150 151 152 152 152 153 154 156 158 160 162 165 167 169 169 170 170 170 171 173 172 170 169 165 163 162 158 154 152 151 150 150 151 152 151 149 148 148 150 151 150 149 147 145 144 142
148 147 128 151 164 162 155 143 136 140 155 161 172 166 150 151 160 161 162 169 167 163 175 179 176 174 169 165 164 169 175 174 172 172 174 175 175 175 175 177 178 177 175 176 177 178 182 188 191 193 197 201 203 205 205 205 206 196 204 214 188 192 197 189 160 132 172 147 156 178 173 141 157 180 173 172 163 161 161 155 154 157 155 153 151 149 148 146 145 144 143 144 144 144 143 144 144 144 145 146 148 150 152 155 157 159 160 160 161 162 164 166 168 169 170 170 171 172 171 171 168 165 164 165 163 162 163 161 157 154 152 151 151 150 150 149 149 148 148 149 150 148 146 145 145 144 143 142 141 140
146 144 108 122 156 142 124 100 82 102 131 133 142 134 124 128 133 140 149 159 147 141 167 171 165 161 148 126 125 150 168 171 169 170 172 172 172 168 167 172 174 174 173 172 173 177 181 186 188 190 194 196 196 196 195 194 194 189 172 183 176 138 171 179 169 130 136 136 141 155 139 136 177 164 166 163 154 156 156 149 153 154 151 151 149 148 147 146 147 146 147 147 148 148 149 150 150 150 151 154 155 159 162 165 167 168 168 168 168 169 170 173 174 174 173 172 173 173 174 173 167 162 160 158 158 159 160 159 156 151 149 149 149 150 150 149 148 147 148 152 152 149 146 145 145 145 145 144 144 143
144 144 111 90 120 97 75 59 55 86 129 127 118 118 122 123 115 114 137 148 117 113 158 156 132 129 114 75 69 109 146 159 163 166 168 168 167 162 158 164 163 162 169 171 172 175 179 182 183 184 185 183 180 179 177 176 173 167 168 156 146 99 102 120 164 135 107 109 121 125 118 161 166 158 162 158 151 156 153 148 153 150 153 152 151 150 149 150 151 152 153 154 155 156 157 158 158 159 161 163 165 167 170 171 171 169 168 167 167 167 168 170 171 172 171 170 170 171 172 170 165 158 155 155 156 157 159 157 152 150 150 149 150 151 151 150 149 149 152 154 152 150 147 147 146 146 147 147 147 145
152 148 138 88 81 80 53 42 49 97 148 146 131 128 130 132 116 91 111 144 103 87 137 115 77 83 81 60 62 64 85 116 135 153 161 160 158 152 144 142 130 139 161 169 170 169 170 171 172 171 170 168 167 166 168 168 167 167 160 165 140 83 69 56 87 141 91 63 91 87 133 164 155 157 160 158 152 158 152 152 151 153 154 154 155 155 156 156 158 160 162 163 164 164 166 167 166 167 167 168 168 168 169 169 166 164 163 160 159 160 160 161 163 165 165 164 163 166 168 165 160 157 155 155 157 157 157 155 154 153 154 154 155 155 155 153 152 153 154 154 153 150 150 149 149 149 150 149 148 145
155 155 168 129 82 101 56 33 55 120 166 162 153 144 140 143 141 106 91 122 105 78 104 81 65 56 58 60 62 64 61 61 86 119 139 140 130 107 92 82 69 91 136 156 165 165 163 162 160 159 157 157 154 153 157 163 165 162 151 145 120 62 60 53 46 82 71 49 80 77 127 148 155 157 163 161 155 162 154 153 157 160 160 162 164 165 166 167 167 168 168 169 169 169 171 171 170 167 167 166 166 164 164 163 161 160 159 157 157 157 158 158 160 162 162 160 160 162 165 164 161 159 158 159 160 159 157 156 156 157 157 157 157 157 155 153 153 153 153 153 151 149 149 148 149 149 147 144 143 141
105 129 175 151 90 100 57 29 65 139 173 167 154 133 128 131 142 129 93 98 90 70 80 65 57 54 55 54 57 63 66 64 63 76 91 90 75 63 61 64 62 55 74 122 149 159 160 157 154 153 151 150 150 152 150 143 146 151 156 136 77 59 59 58 41 42 49 47 69 81 100 139 167 156 163 160 157 164 152 159 167 166 170 172 173 173 175 174 171 170 170 170 169 168 168 167 167 166 165 165 164 164 163 161 161 162 160 159 159 158 159 160 160 161 161 161 160 161 163 162 160 159 158 158 159 157 155 154 152 152 152 152 152 152 151 150 149 149 148 148 146 145 145 145 144 143 142 140 138 136
58 104 173 154 81 62 40 33 78 149 171 157 109 86 84 83 96 99 73 59 56 55 62 51 48 50 50 50 51 55 60 63 59 58 62 62 61 61 59 63 60 56 52 65 114 147 158 155 151 149 147 146 146 146 144 144 142 152 155 140 135 126 106 72 75 98 63 40 55 63 89 152 169 153 163 163 164 163 155 171 171 173 172 175 174 174 174 174 171 166 167 168 168 167 165 164 163 165 165 165 165 163 158 154 155 159 161 161 159 158 159 159 158 158 159 160 159 159 159 158 157 156 155 155 154 152 151 150 148 148 147 147 147 146 145 145 145 143 144 144 143 143 142 142 141 140 138 136 135 133
83 105 161 142 61 31 33 36 87 151 162 117 67 76 67 50 43 43 43 38 39 45 45 43 45 45 45 47 50 52 55 57 54 53 56 58 58 57 57 55 58 59 60 55 71 126 150 155 151 148 147 147 147 149 149 146 142 132 153 144 155 160 163 147 158 157 77 39 51 56 118 163 168 149 168 169 169 158 169 173 174 170 166 172 170 168 169 171 169 164 164 165 165 165 163 161 161 161 161 162 160 150 133 117 122 135 148 154 155 156 159 158 157 156 156 155 154 153 152 151 151 150 149 149 149 148 147 148 147 145 144 144 145 144 144 143 142 141 141 141 141 141 140 140 139 138 137 136 134 132
113 96 118 108 49 32 33 34 81 128 118 56 68 104 81 40 39 40 41 43 37 37 36 36 36 39 41 43 45 47 49 50 49 47 49 53 53 54 55 56 59 59 59 59 53 80 131 153 156 152 151 151 152 152 153 152 153 139 126 153 149 155 135 163 140 150 103 43 51 64 138 157 161 146 173 159 154 163 172 173 168 165 167 169 162 163 164 166 166 164 163 163 162 161 160 159 159 158 158 157 154 128 84 58 61 79 113 133 136 147 156 156 156 155 154 153 151 149 147 146 146 146 144 144 144 144 144 145 143 143 142 142 142 142 141 141 141 140 140 139 139 139 138 137 137 137 136 135 132 130
112 86 49 51 32 30 31 30 61 95 53 30 62 93 60 48 48 44 41 40 38 43 41 35 32 32 35 37 41 43 43 42 43 45 47 49 49 49 52 53 55 53 55 53 50 52 86 132 150 154 154 153 153 151 153 157 162 166 144 121 144 139 117 139 141 94 116 59 47 77 150 147 142 142 167 138 164 158 171 167 162 168 162 162 162 161 161 162 163 163 163 162 161 160 159 160 159 158 157 157 152 117 59 46 51 47 62 82 80 108 135 140 144 148 148 148 148 147 145 144 143 143 142 141 141 141 141 141 140 141 141 140 139 138 138 138 138 138 138 136 136 136 135 134 135 134 133 131 130 128
82 80 32 28 27 26 27 31 42 48 26 31 44 52 63 68 47 35 33 32 41 51 47 38 33 30 30 30 35 37 37 34 36 40 41 43 44 43 44 46 45 45 44 47 60 71 70 98 137 153 155 155 155 157 159 158 159 165 167 141 117 120 101 84 123 60 79 71 51 94 168 142 124 139 118 141 158 161 167 157 161 159 152 160 158 156 160 160 161 160 159 159 158 157 157 156 157 155 155 156 148 107 59 57 60 47 46 51 47 63 84 89 102 115 118 122 130 136 141 142 141 140 138 138 137 137 137 136 136 137 137 136 136 135 135 135 135 134 134 133 132 131 131 131 131 130 129 127 125 124
53 47 32 29 24 23 25 28 37 33 23 32 40 43 67 76 41 30 29 28 34 43 39 33 32 30 26 24 27 28 31 31 32 34 36 37 38 36 35 37 38 39 45 62 78 102 109 106 135 153 155 155 155 157 159 163 163 163 161 155 109 66 58 56 60 52 57 83 68 162 166 104 84 93 92 150 139 151 144 160 164 154 146 153 153 158 157 156 155 154 153 152 153 152 151 150 150 150 151 152 132 80 45 47 47 37 39 41 43 45 52 53 53 62 65 70 83 101 129 141 139 136 134 133 132 132 133 132 132 132 132 131 131 130 130 129 129 129 128 128 128 128 127 127 126 126 124 123 121 119
73 35 31 27 23 23 23 25 25 22 25 34 41 37 47 49 36 28 24 26 29 31 27 26 26 24 22 20 22 25 28 28 29 32 36 35 34 34 32 31 33 36 49 75 98 131 141 126 133 150 156 154 155 157 157 155 165 163 152 139 98 57 55 51 56 52 51 71 95 219 133 64 59 60 94 121 118 135 167 167 153 141 146 149 150 153 152 151 150 148 147 147 146 146 145 144 145 146 147 137 98 47 35 37 34 34 35 35 38 39 41 41 40 40 39 42 43 59 103 130 133 132 130 128 128 127 127 127 126 126 126 125 125 124 124 124 124 123 123 124 124 123 123 122 121 120 119 118 116 113
137 72 24 21 22 20 21 23 23 21 26 33 36 29 24 29 28 22 21 26 30 32 27 22 20 18 18 18 19 23 25 24 22 26 34 32 31 30 30 30 31 34 43 75 103 138 152 136 128 149 159 157 158 159 159 156 149 151 154 138 119 75 76 68 61 68 62 64 89 209 111 60 65 67 69 83 119 156 157 127 134 149 151 142 143 149 147 145 144 144 142 142 142 141 140 140 140 141 138 119 71 38 34 34 30 30 29 28 31 32 34 36 38 38 37 37 35 41 70 99 124 131 128 125 124 124 123 121 121 121 121 120 120 119 120 120 119 118 119 119 119 119 119 119 117 116 116 114 112 108
139 96 54 27 23 24 25 26 27 24 26 29 26 21 23 24 19 16 21 28 31 34 30 21 18 16 14 15 18 20 20 19 17 19 24 25 26 27 26 27 29 32 37 62 87 125 153 139 127 150 159 157 157 154 154 158 153 136 127 130 143 128 81 75 66 70 78 68 91 184 87 64 62 52 45 86 136 133 105 135 155 147 147 138 140 144 142 141 140 139 138 137 137 136 136 135 136 137 136 121 83 42 27 27 23 22 23 25 26 30 35 36 36 36 33 32 33 30 41 75 117 133 130 124 122 121 120 118 117 118 118 117 116 117 116 116 116 116 116 116 117 117 117 117 116 116 114 112 109 107
86 87 70 36 23 26 28 26 25 27 23 20 14 13 18 19 18 22 26 28 27 26 19 15 18 17 14 14 13 15 16 15 14 14 16 18 22 23 25 26 27 32 37 49 72 102 133 106 109 148 155 152 152 151 149 147 138 111 120 155 157 154 142 139 157 148 95 81 103 184 72 63 55 41 47 77 94 102 147 157 147 143 145 137 139 142 140 139 138 137 136 135 134 133 134 134 133 136 137 129 91 36 22 23 20 25 47 36 25 27 35 33 30 29 27 27 28 25 31 70 106 129 130 124 122 119 117 115 114 116 115 115 114 114 114 114 114 114 115 115 115 116 117 112 108 110 111 112 111 108
60 54 41 24 21 28 24 20 20 21 15 13 15 17 19 18 22 30 30 27 25 20 16 14 17 15 11 8 9 12 15 15 14 14 15 14 16 17 22 25 27 32 39 42 60 92 98 61 94 145 150 149 147 144 146 145 112 65 78 109 126 147 149 152 195 255 169 76 98 150 64 58 49 36 66 74 86 151 154 147 141 138 137 130 132 137 137 134 137 137 136 135 136 136 136 135 134 136 141 124 73 28 20 21 16 39 70 54 26 25 29 27 23 21 21 21 22 22 22 39 80 113 127 126 124 122 116 113 113 115 115 115 115 115 115 115 115 116 117 118 118 121 121 111 100 103 108 114 117 113
67 36 23 19 20 22 16 12 12 12 9 13 20 23 22 18 21 27 24 21 22 23 19 12 15 15 16 14 9 10 12 13 12 13 11 10 11 13 18 22 28 30 35 39 49 69 66 67 114 150 151 149 149 150 144 132 75 45 48 56 98 142 124 128 141 162 146 82 72 94 78 55 41 37 71 65 125 144 127 123 112 104 98 94 98 106 108 112 117 119 119 119 121 126 130 127 124 133 140 116 55 18 18 18 15 29 67 52 23 19 24 26 19 16 16 15 15 17 19 20 49 93 116 126 128 125 120 113 110 114 116 113 114 118 120 121 121 121 123 123 122 121 123 115 98 94 103 117 122 115
44 35 33 22 21 19 10 7 7 9 12 18 23 24 22 21 18 16 16 15 14 20 16 12 18 20 24 27 18 9 10 10 8 8 8 9 9 10 14 18 23 29 34 38 38 42 54 81 130 150 145 142 142 143 135 100 51 44 47 44 71 124 121 125 143 103 79 87 66 92 128 56 35 39 50 73 116 94 78 69 70 61 59 58 56 62 66 66 70 73 74 75 78 85 93 95 90 98 114 93 33 14 14 13 12 13 34 32 16 9 20 24 16 14 14 12 13 17 17 18 24 55 90 111 115 112 107 100 96 99 103 97 98 105 109 113 110 108 108 107 104 98 97 98 84 76 89 103 103 96
27 34 28 19 17 16 13 9 6 9 17 22 22 25 22 22 16 13 14 11 12 22 21 19 23 25 25 27 19 9 8 9 6 4 7 8 8 8 10 14 21 30 36 40 37 35 42 65 107 120 112 109 112 111 94 73 60 50 55 57 104 133 128 110 105 87 82 65 63 81 105 43 35 52 55 98 77 57 56 68 59 59 59 57 55 60 58 59 59 59 59 59 57 58 63 65 62 57 59 47 22 13 10 9 9 8 13 16 9 15 25 19 12 11 13 16 20 20 16 15 14 19 45 72 78 78 76 68 62 64 74 72 66 73 76 78 75 68 66 62 60 49 38 46 41 31 48 62 54 45
30 27 21 12 11 18 22 20 17 17 23 26 26 27 25 24 19 19 22 19 22 29 27 33 34 24 19 13 10 8 8 8 6 5 8 8 8 8 10 12 17 26 34 39 38 35 36 47 60 70 71 72 78 75 64 50 62 45 50 90 111 125 96 68 73 68 72 61 51 85 90 31 47 49 94 80 57 58 69 68 43 51 49 47 59 52 56 63 65 62 57 59 61 58 57 61 70 63 50 41 23 10 7 7 7 8 7 7 9 24 29 16 8 11 14 21 24 19 13 12 12 13 21 32 32 34 38 36 29 26 33 36 36 41 44 39 32 32 37 37 27 17 13 12 11 14 17 19 16 14
23 18 13 7 8 15 16 19 23 20 20 24 29 27 23 23 25 29 28 25 31 29 26 47 53 22 10 7 6 7 7 7 7 7 8 8 9 9 10 13 15 21 29 36 38 37 37 40 47 58 62 64 67 59 47 38 40 67 80 84 100 123 117 70 53 60 61 58 54 72 79 32 43 79 93 53 64 58 61 47 34 43 38 53 45 41 47 54 57 51 47 56 60 51 46 56 76 82 71 46 20 7 6 5 6 8 9 9 12 24 28 12 8 9 14 20 19 13 10 10 9 10 16 20 19 19 22 22 18 14 15 18 21 30 42 39 40 50 53 55 49 31 21 16 15 16 15 16 16 15
17 16 8 4 9 12 8 8 15 16 15 22 24 22 20 20 28 30 27 22 23 22 22 46 57 23 13 16 11 8 9 10 10 9 8 8 11 10 12 15 18 24 31 36 39 42 41 39 45 55 59 58 57 58 54 54 62 81 111 109 95 113 117 112 85 53 51 45 82 85 68 26 68 115 106 92 55 62 57 41 50 45 55 49 43 52 50 45 45 40 44 57 62 50 37 43 68 83 70 37 13 7 6 6 8 9 10 12 12 14 17 12 7 7 10 12 13 10 8 7 7 7 12 19 18 17 14 10 10 9 10 11 12 17 31 40 55 67 65 65 62 48 29 17 21 27 24 20 19 16
15 12 7 5 5 6 4 5 10 13 16 19 21 20 17 18 27 33 29 16 9 12 18 25 32 22 20 22 13 4 5 9 10 9 8 9 12 12 13 16 19 26 33 38 43 45 43 40 40 46 51 49 54 58 54 47 44 40 45 63 72 101 125 85 84 86 54 36 67 84 54 53 53 90 106 59 76 80 77 69 59 88 81 43 64 75 66 49 54 51 53 63 69 63 48 44 64 78 63 27 9 6 6 7 11 10 9 13 10 9 11 12 7 6 6 8 9 10 8 7 8 6 9 13 14 14 12 11 9 8 9 8 8 9 16 26 48 66 67 64 62 58 46 35 37 41 36 31 28 24
14 10 7 7 5 3 4 7 15 19 17 17 15 11 9 15 26 32 28 14 5 6 10 16 20 21 20 18 10 2 3 9 12 9 9 11 13 15 15 16 20 27 36 42 43 44 44 40 36 40 45 42 51 61 49 36 33 36 41 43 74 103 106 114 74 64 57 41 50 91 50 68 51 62 120 110 96 96 111 88 95 106 75 60 75 81 76 68 77 68 61 65 70 75 77 69 70 79 72 37 11 4 3 7 10 9 7 8 7 8 9 10 8 7 5 4 5 7 8 5 6 5 7 10 11 11 12 15 15 12 10 8 7 10 13 15 25 42 48 51 55 57 57 52 52 52 51 47 38 36
9 14 19 19 14 7 7 12 17 17 14 11 8 6 8 15 21 23 21 13 5 7 11 17 20 17 14 15 9 3 4 7 7 7 7 9 11 15 18 17 23 30 39 45 41 40 40 36 32 36 37 47 50 43 38 37 33 34 58 58 63 86 90 72 84 91 80 57 44 51 46 49 55 67 111 106 89 105 122 116 114 85 69 75 75 75 76 70 74 71 62 63 64 73 84 81 75 78 77 51 17 4 2 4 6 6 5 5 6 6 10 10 8 7 8 6 6 6 5 4 5 5 6 9 12 11 12 19 19 16 11 9 11 11 12 14 17 21 25 36 44 46 49 54 56 55 58 58 50 46
15 25 27 28 23 15 15 14 12 12 10 10 8 9 14 20 22 19 18 12 9 11 13 17 18 13 9 11 12 8 6 6 2 2 3 6 10 15 18 23 29 29 34 37 35 37 35 29 29 37 39 37 40 49 41 41 36 36 60 61 66 73 112 112 79 92 140 115 104 75 37 50 42 70 112 92 101 124 134 125 109 82 102 78 59 61 61 63 72 68 62 67 66 69 79 81 76 73 68 51 21 5 1 3 4 4 3 2 3 5 7 8 6 5 7 6 5 4 5 6 4 5 5 9 12 12 10 15 17 17 11 9 9 8 8 9 13 14 14 25 33 35 38 47 51 50 57 63 59 47
17 28 21 22 19 14 11 10 10 9 7 6 4 11 23 24 25 20 12 8 6 6 7 10 13 10 6 9 10 7 5 5 2 2 3 6 9 13 17 24 31 30 27 24 25 35 43 43 46 56 56 40 35 41 44 57 64 64 75 73 57 83 103 133 115 110 135 104 75 102 56 42 51 103 100 115 116 134 110 134 130 124 97 56 46 51 53 54 61 62 63 68 67 67 71 72 70 61 54 46 20 3 1 3 5 5 2 1 1 4 4 4 4 3 3 4 4 3 3 4 4 3 4 7 10 12 11 11 14 15 10 10 9 8 6 5 8 9 10 15 22 27 31 38 40 38 44 50 50 42
26 25 20 29 28 17 18 16 11 7 4 1 5 10 20 20 23 16 7 2 2 2 2 3 6 7 5 3 5 4 2 3 3 5 7 8 8 7 10 18 24 28 27 16 19 44 62 63 63 64 66 51 39 30 26 37 48 66 86 96 70 67 88 123 130 127 122 88 88 111 57 47 83 101 95 87 86 73 116 139 125 81 54 36 47 56 61 56 48 52 54 52 54 56 57 55 54 50 48 40 14 1 2 3 4 2 1 2 2 1 1 1 2 1 2 3 2 2 1 2 2 2 4 6 7 9 10 8 10 11 9 10 12 11 6 3 4 6 8 11 16 19 22 27 29 22 27 33 32 23
39 24 30 51 52 38 41 35 22 10 4 3 9 13 16 21 28 22 10 6 4 2 1 3 4 5 6 5 5 4 1 2 3 9 11 11 8 5 5 11 17 25 27 16 25 54 63 56 52 47 49 45 43 40 30 28 27 35 44 82 102 87 119 135 121 102 64 79 130 119 74 64 53 87 76 57 54 65 95 117 105 107 119 78 53 65 67 52 35 38 36 33 38 41 42 41 42 44 44 29 8 2 3 3 3 2 1 2 2 1 1 2 2 0 2 4 6 3 1 1 1 2 3 5 6 6 6 7 5 7 8 12 14 13 10 6 4 4 8 11 14 17 19 20 17 13 21 25 24 18
35 26 50 68 45 36 40 39 24 6 5 5 10 14 12 21 27 22 15 14 14 12 7 3 2 3 3 6 6 4 5 4 5 8 10 8 5 4 5 11 16 22 26 23 34 49 42 35 32 29 26 29 35 39 45 44 37 34 33 39 49 93 124 129 103 83 61 66 86 103 111 78 63 113 65 38 42 84 104 131 119 108 82 50 49 46 40 29 26 28 23 21 26 28 32 36 38 39 31 18 6 5 5 4 3 4 2 1 1 0 2 2 1 0 1 5 6 2 0 0 1 1 1 3 3 4 5 4 4 3 3 7 10 10 11 9 6 3 7 9 10 14 19 19 13 11 16 18 19 14
23 27 56 57 31 21 22 32 22 7 9 9 12 16 16 22 21 16 13 19 24 22 12 6 4 3 2 5 5 4 6 8 8 10 10 10 10 9 13 16 15 21 30 33 34 36 31 31 33 27 22 20 21 33 49 59 55 44 36 43 49 86 105 108 88 63 53 55 62 86 104 102 106 104 58 28 58 71 89 104 53 33 26 39 35 27 29 23 22 22 16 14 18 22 27 30 30 29 22 11 9 10 10 9 11 10 4 3 2 1 1 1 1 2 1 3 2 1 3 2 1 2 2 4 2 3 6 6 5 3 4 4 9 10 11 12 11 7 5 4 5 8 17 18 14 14 12 11 9 10
23 19 29 33 21 11 15 29 29 16 13 12 17 18 17 21 14 10 12 15 20 19 14 6 2 2 2 4 8 6 5 4 5 6 8 11 12 11 15 16 15 18 24 33 30 25 30 34 32 28 26 22 25 36 45 49 48 46 44 76 98 122 129 87 65 49 41 39 48 71 75 94 138 84 37 29 44 54 95 73 50 50 38 26 22 21 15 20 30 16 11 9 13 18 20 16 15 15 14 11 14 18 18 16 14 12 5 4 2 0 1 1 1 1 1 1 0 1 1 0 2 1 1 2 1 1 3 3 2 3 2 4 5 8 11 11 10 7 3 3 2 4 9 14 12 12 8 7 10 10
35 18 12 17 14 11 18 29 30 27 16 16 20 18 16 15 9 9 15 15 14 19 22 17 5 3 3 6 16 16 4 3 3 5 15 15 11 8 8 10 13 15 18 27 30 28 33 34 26 24 27 28 34 41 43 43 36 28 40 61 86 71 87 88 57 43 40 39 35 50 49 71 117 58 31 36 52 107 123 96 63 27 18 25 21 12 11 36 15 8 8 6 8 11 10 6 6 9 9 11 17 19 16 16 14 10 6 3 1 1 1 2 2 2 1 2 2 2 1 2 2 2 1 1 2 2 2 4 6 4 4 4 4 8 9 9 8 7 6 3 3 3 5 9 10 9 10 11 16 13
27 19 11 10 10 13 18 28 26 23 13 12 15 14 11 9 6 11 23 18 8 15 23 19 8 3 1 8 19 14 3 1 5 20 36 37 19 8 5 6 9 13 15 22 30 37 32 23 17 17 21 24 26 28 29 31 39 49 57 57 90 90 84 107 82 51 30 33 37 41 37 49 76 43 35 49 102 118 83 58 27 21 19 18 13 5 33 16 4 31 8 6 5 7 6 4 7 14 15 12 13 11 8 10 11 7 4 1 1 1 1 2 3 2 1 3 3 3 2 1 2 2 2 0 3 3 1 2 5 4 3 3 3 6 8 11 10 4 6 5 3 2 3 5 8 11 10 11 15 15
20 19 10 7 8 10 15 26 24 20 13 18 17 10 9 11 11 19 30 21 11 11 10 16 19 11 5 15 21 12 1 1 5 21 35 43 34 13 2 4 7 11 14 19 25 33 29 21 16 16 14 15 13 15 15 32 38 31 41 36 38 63 79 97 87 58 44 26 31 39 49 31 59 42 58 117 116 71 42 32 24 21 16 10 3 30 20 0 22 33 6 11 8 8 7 7 14 22 22 17 15 10 3 4 6 3 2 1 1 2 3 6 8 5 5 3 3 3 2 1 2 2 2 2 2 2 1 2 5 5 4 4 3 4 7 13 9 4 5 6 3 4 4 4 6 9 11 11 16 16
20 22 17 16 12 11 16 21 24 22 14 23 21 10 8 15 14 23 32 22 21 29 25 30 40 42 29 22 25 27 16 2 3 6 12 30 34 23 7 3 7 10 15 19 22 27 33 35 27 26 18 12 10 13 16 20 18 28 33 52 61 80 93 76 77 46 26 32 27 28 48 26 37 37 72 122 101 67 60 58 23 25 15 4 27 27 0 7 40 9 12 12 12 12 10 11 16 21 20 18 19 13 3 3 3 3 2 2 3 4 5 7 7 5 4 3 2 2 2 2 2 2 2 3 4 5 2 2 3 4 4 5 4 5 6 9 7 5 5 6 7 5 3 5 6 7 8 11 13 14
21 22 21 25 19 11 15 21 26 29 22 20 19 12 6 12 15 21 32 31 29 45 38 33 40 57 51 29 27 37 38 19 12 9 10 23 31 35 26 16 15 17 20 25 26 27 35 33 26 25 18 10 9 14 13 10 18 35 59 66 59 48 33 39 78 94 80 34 24 20 27 31 32 44 62 112 126 99 108 84 35 29 4 20 36 2 0 45 26 2 12 11 13 15 11 13 15 19 18 19 19 12 3 5 6 2 2 3 3 4 4 5 5 6 5 3 2 2 2 1 2 2 2 2 3 3 2 2 3 4 4 4 3 4 7 8 7 8 9 6 6 5 5 5 7 8 7 9 11 9
20 21 19 24 18 11 11 23 28 30 21 18 18 12 4 6 13 20 27 28 23 30 20 13 17 43 52 31 26 33 34 33 30 26 18 17 25 39 38 34 30 32 39 48 49 36 29 23 16 15 13 9 9 12 11 10 14 30 55 33 22 35 45 42 68 122 121 115 52 21 22 27 31 37 72 90 86 128 113 80 49 31 38 40 10 0 37 63 3 4 8 13 16 12 8 12 17 14 13 20 18 10 7 9 7 2 2 3 3 2 2 3 5 5 5 4 2 2 3 2 2 2 2 2 2 1 2 3 3 4 5 5 4 4 5 7 7 8 12 7 6 5 6 6 11 12 10 9 7 8
21 21 13 16 12 6 9 18 19 19 15 14 14 8 3 4 13 19 19 17 11 7 3 1 3 17 29 22 22 17 14 20 29 29 19 11 15 24 31 36 41 40 42 57 63 45 27 15 8 8 7 6 6 8 5 5 10 12 28 40 14 19 30 34 102 143 103 115 84 43 17 24 26 33 58 75 108 122 104 82 54 96 80 10 3 31 66 26 11 7 8 14 19 13 8 12 17 10 8 15 17 10 10 8 3 1 2 1 3 4 3 4 4 5 4 3 2 3 2 2 2 1 2 2 2 2 3 3 3 4 5 4 4 4 5 5 6 5 6 4 4 4 4 7 9 9 8 5 5 7
23 22 17 20 16 8 13 16 15 11 10 13 12 5 2 5 15 17 10 4 5 5 3 2 2 10 19 17 14 7 2 6 14 19 19 17 17 17 27 34 42 39 31 37 48 37 22 11 9 9 8 5 5 10 8 6 5 7 5 21 34 15 24 50 80 123 114 109 98 67 30 20 31 49 64 64 111 109 125 108 105 99 27 6 18 56 24 28 14 13 13 18 20 17 13 16 16 11 9 15 15 11 9 7 3 2 1 2 3 5 5 4 6 4 3 2 3 4 4 4 3 1 3 2 2 4 5 3 4 6 4 4 4 5 5 4 6 6 4 2 2 3 4 6 7 4 5 5 6 6
18 20 19 25 24 16 16 17 12 8 10 13 11 4 1 4 14 15 4 2 6 9 4 1 2 12 25 18 6 1 1 2 3 8 13 15 15 15 21 25 30 23 15 16 23 23 17 16 17 13 12 10 9 8 7 9 13 12 20 30 37 46 37 61 115 124 140 143 106 80 71 24 36 40 67 117 98 113 115 136 108 47 19 26 56 50 32 28 11 15 17 17 15 16 15 15 13 12 12 15 13 8 5 6 4 2 1 2 2 2 4 3 4 3 4 3 3 6 6 5 3 1 2 2 3 2 4 3 3 4 2 2 2 3 3 4 4 4 3 3 3 2 2 5 6 5 4 4 6 5
16 20 18 21 24 20 18 16 16 13 13 13 11 5 5 6 13 15 5 7 10 14 7 2 4 16 28 20 5 2 2 3 2 4 10 12 13 12 13 14 14 12 11 11 13 18 21 28 22 7 13 17 11 22 32 33 35 37 34 61 69 89 103 94 132 146 97 87 71 105 89 38 43 36 61 110 93 90 99 118 76 58 76 80 67 45 45 28 13 17 12 15 20 13 13 12 12 12 11 10 10 6 4 6 6 3 2 2 2 2 2 3 4 4 4 5 4 5 7 5 4 3 2 4 3 3 4 4 4 5 3 3 3 3 4 5 4 5 4 3 4 3 4 6 6 5 6 6 7 7
13 17 14 19 19 18 20 15 17 18 12 10 8 4 4 10 16 18 13 12 10 13 9 4 6 15 22 14 3 3 2 3 1 2 9 9 8 7 7 7 7 7 9 12 14 18 24 30 18 4 7 20 36 30 20 22 7 6 6 3 20 44 62 87 105 122 104 70 65 61 73 79 60 59 107 95 92 73 102 141 139 133 110 78 61 38 27 24 12 20 37 47 28 9 10 5 6 8 8 8 9 7 3 4 4 2 2 1 1 1 2 2 2 2 3 5 4 4 4 3 3 1 2 4 2 2 3 3 3 3 2 2 3 2 2 4 5 3 4 3 3 3 3 6 6 4 4 5 6 7
11 17 15 21 23 21 27 20 13 19 13 10 9 6 8 15 15 23 37 30 16 15 14 11 12 22 30 18 3 3 3 4 2 3 8 7 4 3 6 6 6 6 7 15 17 18 22 21 15 9 16 33 18 8 9 40 53 21 4 5 6 19 28 67 119 116 110 88 58 57 76 108 45 87 102 71 71 74 98 137 110 88 86 57 28 6 28 23 43 52 39 16 7 10 6 2 3 3 4 5 8 5 3 4 4 2 2 2 1 2 2 2 2 1 2 2 3 3 4 3 2 2 3 3 2 2 2 2 3 2 2 3 2 2 3 3 4 4 4 5 3 3 5 6 4 5 4 6 8 6
10 12 14 16 22 25 31 25 15 16 13 11 7 7 13 15 12 23 42 40 22 17 19 20 18 27 37 24 3 2 2 2 2 2 4 3 1 1 3 4 4 5 8 12 16 15 14 12 14 15 15 12 12 17 15 6 15 35 32 16 24 58 99 111 108 105 88 100 69 53 74 97 71 114 100 52 70 79 101 93 90 81 50 27 19 34 60 50 30 11 10 11 9 7 6 2 2 3 2 4 5 3 2 3 3 3 1 2 2 2 2 2 1 0 1 2 2 4 4 4 3 2 2 1 1 1 1 1 2 3 2 3 3 3 2 2 3 3 3 5 4 4 4 4 4 3 4 4 6 5
13 12 13 18 26 26 26 26 25 19 16 15 10 10 16 15 12 20 30 27 25 21 24 28 23 24 37 23 5 3 2 2 2 3 3 2 2 2 2 3 5 7 8 8 11 12 11 13 13 15 15 16 19 15 9 19 27 28 36 58 43 53 68 65 46 66 89 61 66 58 55 51 71 108 95 54 67 69 87 96 85 58 57 80 73 72 45 10 6 13 10 8 7 10 11 6 2 3 2 4 4 3 3 3 2 2 2 2 4 5 4 3 2 1 1 2 4 5 5 5 3 1 3 2 2 2 1 1 3 3 3 3 3 3 2 3 3 2 4 6 4 4 4 4 3 4 4 5 6 6
13 8 11 20 28 20 15 15 16 13 11 17 15 14 13 11 10 15 17 17 18 18 22 21 16 31 43 35 9 2 2 1 1 1 2 1 2 2 2 2 4 7 6 6 8 8 10 11 11 11 12 14 15 8 25 27 9 4 18 26 35 9 5 20 52 69 99 89 47 47 49 64 71 86 74 59 53 46 99 113 93 96 80 54 52 40 10 9 9 4 17 10 2 8 10 5 2 2 2 3 4 4 5 4 2 1 1 4 6 5 2 2 2 2 2 2 2 2 3 3 1 0 1 2 1 2 2 1 3 3 3 3 2 2 2 3 3 2 4 5 3 3 5 4 3 1 3 3 5 5
23 17 12 21 27 17 12 12 14 13 9 18 21 21 16 14 12 17 19 16 15 15 17 12 12 39 57 51 27 5 2 1 3 6 3 3 3 4 3 3 5 8 9 8 9 8 10 11 8 8 9 9 9 8 8 1 6 25 18 1 5 31 12 15 76 87 60 59 27 73 90 114 66 46 72 49 35 54 90 101 95 44 29 37 24 26 11 5 10 32 32 6 3 8 8 5 3 4 4 4 6 6 5 5 3 2 3 4 4 4 2 2 0 2 3 2 1 1 3 2 2 1 1 3 2 2 3 3 2 6 6 3 3 3 3 4 3 2 3 3 3 5 5 5 4 4 3 5 6 7
33 27 12 18 25 21 19 15 15 12 10 17 22 23 17 13 13 18 20 15 10 13 13 6 8 25 35 39 31 11 2 3 17 23 10 4 3 3 4 4 6 10 13 11 10 9 8 8 6 5 6 6 7 6 1 0 6 5 0 4 4 17 46 40 67 98 58 50 57 66 123 116 57 45 56 26 37 67 67 98 72 56 43 17 18 19 3 23 43 20 1 3 5 12 8 5 6 7 6 5 6 5 4 4 3 3 4 3 2 3 2 2 2 2 3 3 3 2 3 2 3 1 1 1 2 2 2 2 2 4 4 2 3 2 3 3 2 2 2 3 2 4 4 5 4 5 3 3 4 5
34 32 12 15 21 22 25 19 22 17 14 22 24 21 15 13 15 18 19 13 7 11 9 4 4 8 12 15 15 9 8 21 37 37 20 15 13 4 1 2 10 19 16 12 12 10 7 5 4 2 4 4 6 9 16 23 23 27 33 21 7 11 79 95 92 98 83 66 78 48 85 80 53 40 51 23 41 58 83 119 113 71 41 24 28 11 34 35 11 9 9 4 7 11 6 4 5 6 8 5 5 4 4 4 4 5 3 2 1 2 3 3 2 3 3 4 3 2 1 1 2 2 1 2 2 2 2 3 3 2 2 2 3 2 3 2 3 2 1 3 3 4 14 24 17 8 5 3 5 6
22 23 13 16 20 18 18 21 30 25 15 22 22 15 11 13 14 13 12 12 9 7 4 2 3 6 12 10 4 3 12 27 29 22 20 37 47 31 11 12 24 30 15 10 12 11 6 5 4 2 2 4 7 13 29 33 23 20 25 37 39 36 47 100 103 132 133 99 119 111 108 57 54 42 41 25 35 63 86 114 103 64 45 45 49 45 30 2 6 21 9 4 4 3 2 1 2 4 4 5 5 4 4 3 3 3 2 1 2 2 2 3 2 3 3 3 4 2 0 1 1 2 1 1 3 3 4 3 3 2 2 3 2 3 4 3 4 4 4 3 3 5 18 34 37 23 13 5 5 7
14 14 16 22 20 14 31 36 34 29 18 19 16 13 9 13 13 10 10 9 6 6 4 4 3 7 10 8 2 2 5 10 5 6 18 46 61 49 32 30 34 28 13 7 9 10 8 6 5 5 5 5 7 12 17 15 13 16 12 16 37 66 88 128 136 102 134 110 123 113 71 70 49 36 30 23 35 53 84 118 100 72 83 104 76 30 2 5 9 20 1 2 13 17 0 1 1 1 2 2 2 2 3 2 2 3 3 2 2 1 2 2 2 2 2 3 5 7 4 5 6 2 1 1 3 3 2 2 1 1 1 3 2 3 3 4 3 3 4 4 4 3 10 19 30 34 19 7 6 7
11 9 15 19 10 12 47 50 22 22 22 19 16 16 14 11 12 9 11 9 4 6 5 3 10 14 15 8 2 2 1 2 2 6 25 45 46 36 30 30 26 17 10 7 5 6 8 7 6 6 7 4 4 9 12 14 19 30 55 56 51 56 91 122 137 129 75 102 97 75 61 81 54 34 28 25 31 79 112 129 133 99 101 73 11 8 8 2 18 7 0 3 34 10 2 2 3 3 3 2 3 3 4 3 1 2 3 1 2 2 2 3 2 3 3 5 9 21 25 21 14 3 1 3 3 5 3 2 2 2 3 3 2 3 2 2 3 4 4 5 4 5 7 12 23 37 27 9 7 7
8 6 10 10 5 9 36 29 12 16 17 16 14 15 13 9 13 12 13 18 24 20 10 6 15 24 25 16 7 9 6 5 8 20 34 40 37 26 18 18 13 9 8 6 3 4 6 6 5 3 21 31 19 6 5 13 17 44 66 60 85 65 52 86 116 133 79 69 79 79 66 72 53 36 25 25 47 126 118 145 139 98 68 41 9 9 16 41 37 22 3 37 36 0 3 3 4 3 3 1 2 3 2 2 1 1 2 2 2 2 2 2 2 2 1 2 5 23 41 37 15 2 2 3 3 3 3 2 1 2 2 2 1 2 3 2 2 3 3 4 3 3 7 19 31 39 29 14 12 8
11 13 11 10 6 8 13 11 11 13 13 15 15 12 12 13 20 23 20 28 51 52 31 12 14 21 29 24 17 23 21 13 20 34 41 35 34 27 21 17 10 5 7 8 7 10 15 14 7 5 8 18 35 47 27 9 38 39 26 15 14 28 52 58 74 114 95 65 72 78 50 41 39 41 24 36 89 100 88 87 132 102 81 83 81 54 50 56 38 33 37 62 18 1 3 5 5 2 1 1 2 2 2 2 2 1 1 2 2 2 2 3 4 2 1 0 1 17 41 43 18 1 5 5 4 3 2 3 2 2 2 2 4 4 3 3 4 5 4 4 4 4 7 16 21 28 34 26 23 17
13 19 11 6 6 6 12 15 12 13 11 14 17 12 13 21 25 21 15 24 39 50 39 17 10 9 16 18 22 29 27 21 27 37 34 23 20 17 15 16 11 6 5 6 8 13 22 22 11 6 11 21 22 23 42 55 32 13 13 17 23 25 36 48 46 68 103 78 67 63 47 51 33 26 26 71 76 76 65 93 157 139 133 128 96 44 31 41 20 43 43 27 2 0 0 2 2 1 0 1 1 2 1 1 1 1 1 1 1 1 1 1 3 1 1 0 4 21 39 51 25 0 4 4 2 2 2 1 1 2 2 3 5 5 2 1 3 2 5 4 5 4 7 9 6 13 34 32 26 15
11 19 13 9 7 6 14 18 11 9 13 22 23 13 14 23 22 13 10 16 21 35 28 14 9 7 17 18 22 28 22 20 28 28 23 14 14 13 13 11 10 7 3 4 5 8 16 18 14 9 14 34 43 35 32 25 49 26 9 24 32 39 25 40 63 72 86 89 75 64 40 54 37 32 61 98 55 57 39 68 95 91 116 57 35 37 25 18 29 29 23 13 0 14 13 1 3 2 2 1 1 3 2 3 2 1 2 1 1 1 2 2 4 2 2 1 8 21 25 42 30 2 5 7 3 4 6 2 2 5 5 6 5 5 3 2 4 4 9 7 6 6 7 7 6 11 28 33 20 11
12 11 8 8 6 5 8 10 7 7 13 21 18 10 8 15 18 8 8 21 31 38 26 12 5 11 38 38 21 22 18 19 29 29 15 14 16 14 15 10 5 5 3 3 2 3 5 10 11 10 11 24 31 38 24 3 15 50 22 12 28 26 51 49 45 74 82 79 65 66 48 50 69 52 74 85 50 33 19 51 78 97 117 84 48 17 17 46 28 18 16 5 26 29 5 2 3 1 2 1 1 2 1 1 2 2 1 0 1 1 1 2 2 2 2 2 5 12 10 24 40 14 3 7 6 10 14 7 4 4 6 6 5 4 3 2 3 3 7 7 6 5 5 5 7 13 22 20 12 8
11 8 7 8 9 6 6 5 5 9 14 14 8 9 7 9 14 9 7 29 48 40 30 20 13 20 53 50 24 22 20 19 31 32 19 16 17 17 23 23 7 4 5 4 3 4 5 9 12 11 9 15 21 16 11 10 8 13 47 27 35 59 74 66 70 84 80 82 69 71 61 48 86 64 96 74 39 26 31 62 80 93 117 83 91 66 48 44 21 15 18 43 21 0 1 2 2 2 3 2 1 1 1 2 2 3 3 3 1 1 2 2 3 2 2 2 2 13 18 21 53 38 7 5 7 14 29 22 9 9 11 9 6 5 3 3 4 3 6 8 7 6 5 5 10 29 37 24 8 6
6 4 4 6 11 8 4 4 8 11 13 12 9 10 7 9 10 8 6 21 28 25 54 55 30 22 39 38 24 21 18 15 21 22 15 16 18 21 31 35 26 15 9 8 8 8 5 8 14 11 11 16 18 15 14 9 7 14 41 77 66 47 17 12 31 79 92 77 85 68 43 47 60 75 98 69 29 38 46 62 66 118 124 94 121 91 53 38 19 8 47 13 14 10 1 2 1 2 2 1 1 1 1 1 2 2 7 16 13 5 2 2 4 2 1 1 5 23 26 20 43 43 23 10 3 10 23 31 32 28 23 10 6 2 1 3 4 3 4 8 8 9 9 7 13 34 50 40 20 11
7 5 4 6 8 7 5 6 9 12 13 15 13 13 10 10 9 10 6 8 6 23 71 74 38 24 24 24 22 17 14 13 14 14 14 14 16 21 26 32 40 38 25 21 14 7 5 9 14 10 11 19 19 16 14 11 29 36 30 17 55 66 59 33 26 62 112 75 74 84 41 41 44 62 87 52 42 56 56 57 82 140 124 119 111 73 74 41 13 39 24 29 51 8 1 2 2 1 1 1 1 1 1 0 1 1 13 42 37 10 2 2 3 3 2 2 7 27 28 14 17 21 26 27 14 8 21 43 56 61 51 20 8 4 2 3 3 4 4 6 9 12 11 13 23 29 41 43 27 16
8 3 4 3 5 10 8 10 11 11 14 20 17 13 8 7 9 10 6 4 4 16 48 46 26 19 18 22 24 19 16 15 13 13 14 12 11 16 16 17 33 38 30 24 12 7 3 5 8 6 7 13 12 11 13 34 25 7 12 13 14 42 42 71 76 79 104 116 73 76 65 41 34 50 45 61 60 37 61 69 127 145 123 128 110 100 55 40 56 58 32 37 15 0 3 2 2 1 1 1 1 0 1 6 15 13 17 45 39 7 2 2 1 2 2 2 3 16 22 9 3 2 10 26 31 30 42 58 54 55 60 30 13 13 9 3 4 5 5 6 6 8 9 16 21 19 20 28 22 13
6 4 3 2 6 12 14 12 9 10 17 28 19 11 8 6 7 7 7 5 7 11 14 15 14 12 14 20 26 23 17 13 11 12 12 9 9 13 9 12 23 23 19 15 9 6 4 3 3 4 4 7 8 8 15 14 7 9 14 15 6 19 29 27 59 97 110 127 91 70 62 39 35 37 51 97 63 57 78 97 129 104 106 111 95 75 73 83 63 15 23 23 1 4 4 4 2 2 3 1 0 1 4 17 33 30 15 28 30 6 2 4 2 1 3 3 1 6 17 11 2 3 1 8 33 50 59 57 36 28 38 26 17 20 15 5 4 4 5 9 8 8 10 10 11 9 7 15 23 10
5 6 4 6 7 8 14 9 9 16 25 32 21 9 9 8 8 6 6 7 8 12 29 34 15 15 20 18 18 19 17 14 10 13 12 10 9 14 17 15 15 12 13 13 11 6 4 4 5 6 8 10 10 10 11 11 10 11 13 9 8 5 24 36 65 88 86 97 97 73 71 50 36 39 41 102 81 87 83 98 84 80 118 108 109 100 65 50 11 25 32 1 3 4 4 4 4 3 2 3 6 16 22 21 33 42 24 23 32 17 5 6 6 3 2 3 3 5 9 7 5 3 2 2 26 53 60 64 48 28 23 20 18 16 10 4 3 4 9 12 9 10 11 9 10 10 6 11 28 22
7 6 6 6 5 5 11 14 18 27 28 26 16 7 11 11 8 6 6 8 8 10 39 48 20 26 27 16 13 16 14 11 10 11 12 9 7 12 18 17 16 19 19 17 14 6 6 7 9 10 10 12 11 10 10 9 6 15 35 27 13 22 23 52 99 121 103 138 90 74 66 54 40 42 25 81 110 78 90 83 72 108 115 134 117 57 32 23 27 31 1 3 2 2 2 4 4 1 1 6 16 32 29 15 23 45 38 21 20 20 14 5 6 3 2 2 2 3 3 3 4 3 2 3 14 27 32 53 65 53 25 11 12 9 6 6 5 5 8 10 9 8 11 13 14 13 7 8 32 39
8 8 6 5 4 7 20 23 26 26 14 14 11 6 12 19 10 7 5 9 11 6 19 24 10 18 22 17 14 12 10 9 8 10 11 8 6 12 20 18 17 21 22 16 11 7 5 5 7 13 12 10 11 8 8 6 6 2 10 26 27 42 64 86 106 150 131 126 96 72 67 59 37 32 50 78 97 80 81 70 78 104 119 95 46 41 24 25 20 0 1 8 5 2 4 7 7 2 2 8 18 22 15 17 32 47 33 11 3 10 19 19 14 6 3 3 3 3 3 3 3 2 1 2 4 5 5 19 49 66 44 23 21 13 9 8 6 7 6 9 13 11 10 13 15 10 9 7 31 35
6 7 6 6 4 13 28 27 20 10 5 9 9 5 12 23 12 3 6 10 8 5 4 4 4 6 10 13 11 10 6 6 6 7 8 5 6 13 19 14 11 14 12 7 6 5 3 3 5 12 9 6 9 7 5 4 3 2 7 11 1 13 40 51 81 133 117 98 84 75 54 59 59 59 83 69 89 81 73 57 76 107 87 48 49 50 31 25 13 25 13 7 4 14 9 6 7 3 3 7 11 8 12 26 37 48 38 10 1 5 15 28 29 9 2 4 4 5 9 3 5 9 4 2 2 3 3 6 34 61 60 50 32 16 11 10 7 8 11 12 15 13 11 13 12 14 21 17 23 22
7 6 8 6 10 22 29 22 11 4 7 10 13 6 12 24 12 6 8 12 7 6 9 8 7 7 9 12 7 5 6 6 5 6 7 7 8 10 12 9 9 7 6 6 5 5 4 4 5 8 7 8 9 8 4 3 3 4 5 15 8 27 48 93 121 147 135 100 90 64 73 45 69 85 93 99 109 66 57 63 84 87 70 67 79 70 34 19 14 11 2 8 5 19 6 6 6 6 4 6 5 6 19 24 24 30 29 11 9 20 23 31 38 16 2 2 4 14 23 8 16 27 29 17 11 11 6 17 40 45 50 60 38 17 15 14 12 19 25 27 28 19 14 14 14 23 33 30 29 21
7 5 6 5 8 16 17 11 6 5 4 7 12 8 7 16 10 9 11 14 11 8 7 6 10 13 11 7 3 5 5 3 4 5 5 7 7 5 6 9 10 9 5 7 10 8 3 5 8 8 8 8 9 6 5 3 2 0 3 17 34 57 85 117 122 130 133 92 63 54 46 55 56 58 95 107 99 55 46 65 68 88 47 40 35 14 0 0 0 0 1 8 8 8 3 5 4 3 3 5 3 6 17 13 5 6 6 5 11 28 30 21 23 16 7 3 3 17 26 10 10 20 31 30 20 17 12 23 32 22 27 45 42 31 25 16 16 28 36 36 35 22 15 15 18 28 32 29 30 24
7 5 7 6 9 9 9 7 4 6 4 8 10 8 7 7 7 10 13 17 14 9 6 4 11 17 11 6 4 5 7 5 3 4 6 8 4 3 7 8 11 10 6 7 13 12 6 6 9 8 7 9 5 7 7 3 8 22 31 33 32 29 34 72 110 101 76 72 63 58 44 37 53 78 95 99 81 58 44 60 68 64 52 40 46 25 3 2 3 2 1 14 14 15 5 4 5 3 4 6 5 7 13 10 6 1 0 3 4 11 14 10 6 12 13 12 7 18 23 8 4 6 21 31 21 13 14 20 14 8 22 33 36 43 34 18 15 26 33 32 28 22 20 26 35 36 35 35 41 33
5 6 5 4 7 8 5 5 5 5 4 4 7 7 6 5 8 9 13 13 9 5 2 3 10 12 7 7 5 6 5 4 4 4 5 7 5 4 5 8 10 8 6 9 14 13 7 5 7 5 6 7 7 7 16 29 32 22 11 6 39 57 56 69 90 116 87 55 57 60 52 37 50 78 104 95 54 50 52 92 69 67 66 23 36 24 0 0 0 2 1 28 46 29 3 3 4 4 3 8 9 10 11 7 2 1 1 1 1 0 0 2 2 2 8 13 14 17 15 6 4 6 12 19 15 9 14 14 4 5 17 25 31 45 36 20 16 19 19 21 19 20 25 38 47 45 40 40 47 46
8 9 9 8 7 8 7 7 8 6 5 6 8 8 13 18 11 11 12 7 4 4 3 6 11 8 7 7 5 6 5 5 5 4 6 6 4 3 4 8 10 9 7 14 15 11 8 5 5 4 6 8 13 27 39 30 24 14 11 39 57 76 99 99 83 79 85 77 61 56 52 42 55 64 82 80 54 52 68 95 68 61 34 6 40 18 13 17 16 3 8 51 24 0 2 3 3 3 3 6 9 11 8 4 1 1 2 3 2 1 2 4 8 14 16 18 28 28 16 7 9 7 6 4 7 8 12 13 14 17 14 13 22 41 41 27 24 25 19 15 17 24 36 41 57 59 38 33 39 48
7 8 7 8 7 6 5 4 5 6 5 7 8 7 17 25 13 8 9 5 3 3 3 5 9 6 5 3 3 2 3 5 3 3 5 3 2 3 4 6 8 8 9 13 15 12 7 3 3 5 4 10 26 24 17 27 48 38 51 41 16 19 75 75 53 92 86 60 57 54 50 46 48 54 66 80 63 51 67 59 67 81 52 37 49 39 42 29 11 6 48 30 0 2 1 2 1 1 3 4 6 7 3 0 0 1 3 1 1 1 1 9 30 47 48 37 43 37 21 19 23 16 7 4 5 5 5 8 25 28 9 2 15 33 44 35 28 26 19 17 20 23 38 45 57 58 34 26 33 43
