P2
# morpho.pgm
150 100
255
57 78 49 64 49 58 68 62 59 81 88 55 52 68 67 54 59 53 65 71 50 85 50 61 61 60 68 52 62 53 70 63 86 82 70 42 41 65 40 36 40 50 36 63 72 38 37 58 40 81 53 48 92 77 52 44 59 45 58 34 21 58 63 47 81 57 54 26 47 31 36 53 34 49 28 51 38 31 32 64 37 14 31 39 38 40 46 40 33 43 52 21 62 72 53 37 24 26 32 61 52 45 34 29 25 42 50 45 51 35 77 35 29 45 38 24 29 30 36 51 16 40 54 51 15 16 61 34 28 67 34 66 49 50 34 15 17 32 22 49 26 43 28 41 29 38 41 21 20 12
91 101 64 80 48 50 69 58 69 71 62 53 78 59 58 77 49 61 71 69 62 60 42 43 45 53 71 53 44 54 60 62 80 72 52 49 42 40 48 35 34 46 40 60 78 65 38 38 56 37 47 53 52 53 42 29 72 65 49 28 44 52 28 51 59 44 47 51 39 28 52 50 32 60 34 29 52 38 19 38 65 38 54 40 20 38 31 28 38 40 75 23 29 54 56 79 43 49 40 35 36 52 32 13 37 49 37 30 29 48 32 34 49 42 29 41 47 27 25 49 28 31 40 60 46 26 35 35 48 41 20 53 39 21 6 27 28 34 19 50 41 45 13 17 16 16 42 70 43 46
63 54 63 65 63 66 49 47 71 73 67 84 47 66 67 79 47 81 72 73 84 58 42 70 59 55 51 75 51 43 52 55 50 65 56 37 62 52 60 63 43 58 66 38 70 90 57 41 63 46 47 62 31 55 65 32 52 79 43 40 61 37 32 30 42 68 32 33 45 24 28 39 65 37 42 31 40 45 28 54 55 63 61 59 31 26 32 35 38 13 27 33 38 36 33 45 27 35 36 10 54 61 50 20 53 40 52 34 21 24 24 15 45 57 32 60 50 8 35 26 55 21 22 20 43 37 8 52 51 35 40 34 49 21 3 28 24 9 20 26 27 41 21 8 20 33 7 22 38 27
68 65 49 52 95 88 56 70 54 64 71 64 68 69 41 44 69 63 63 54 54 53 73 58 71 72 51 63 61 73 84 71 67 48 57 45 46 65 56 74 64 52 49 36 56 79 77 56 52 77 68 73 73 54 49 63 51 57 56 58 80 57 29 40 34 38 50 63 33 25 24 50 53 38 31 45 43 33 78 55 46 25 64 29 29 35 65 46 44 66 75 37 31 32 42 31 53 46 31 66 37 54 38 34 69 36 40 45 21 40 35 26 17 14 64 54 23 43 20 14 8 27 41 42 37 35 56 46 25 33 39 41 7 50 38 25 20 10 34 13 21 45 35 18 21 34 49 27 52 58
63 84 63 58 56 72 74 67 57 63 62 44 73 92 51 44 89 76 68 58 47 58 59 61 65 68 50 58 46 75 85 78 61 70 72 50 44 62 36 42 37 54 64 49 44 52 48 83 73 51 60 63 43 52 87 79 64 43 38 78 59 68 50 45 51 21 62 44 39 30 25 55 46 45 65 47 48 47 69 25 54 37 62 30 52 56 52 59 58 47 57 18 53 38 42 52 33 50 27 25 17 45 49 59 41 33 57 56 42 19 15 15 59 28 32 33 12 41 27 24 36 21 35 32 33 68 59 4 17 16 20 32 43 22 16 25 19 20 31 26 43 48 64 35 27 16 39 71 62 35
74 58 71 58 72 94 99 57 77 51 67 58 46 93 73 73 72 55 55 67 60 53 56 64 30 59 77 68 57 56 55 86 58 62 59 69 68 53 44 53 37 58 65 55 60 50 49 47 69 58 46 49 55 45 49 47 44 30 41 42 57 56 48 45 34 50 53 57 40 52 56 45 44 48 58 35 39 43 53 45 82 26 41 40 40 45 44 22 38 32 35 39 42 44 18 43 49 12 23 25 49 21 48 33 35 47 31 31 25 29 31 30 49 65 65 28 27 19 44 60 63 14 14 27 15 28 17 13 36 13 15 41 26 20 16 40 25 33 38 28 33 21 28 41 7 18 28 21 40 16
62 58 87 66 65 76 70 61 64 68 73 69 49 56 57 54 42 66 54 57 66 47 49 52 106 86 67 69 56 63 38 64 60 66 37 48 45 52 52 61 51 42 62 62 67 45 38 52 61 35 50 50 51 38 76 70 36 46 48 53 76 27 42 36 43 40 54 40 21 34 46 70 58 44 32 25 29 48 49 47 57 31 28 51 36 45 40 41 32 41 19 45 57 34 52 46 67 21 25 23 37 13 20 61 29 52 47 29 40 58 15 25 59 32 46 53 33 24 44 39 6 21 64 49 17 57 38 29 26 29 26 28 23 33 21 21 10 17 5 19 50 27 17 49 29 42 59 4 21 44
73 83 56 86 63 59 66 80 79 90 48 75 55 92 65 50 49 84 79 43 59 74 59 76 66 44 67 51 47 72 61 71 43 46 55 78 74 48 52 65 43 44 45 100 58 41 60 58 65 48 42 52 58 32 79 60 36 61 37 35 44 49 26 48 73 37 44 26 28 53 27 34 62 64 37 35 54 53 29 69 65 30 37 61 51 47 40 50 68 41 32 64 73 46 6 28 48 48 45 23 16 20 30 18 42 51 42 20 59 39 11 38 32 36 70 59 20 27 29 21 20 28 37 27 26 71 41 29 21 38 24 39 50 27 22 47 50 44 37 39 40 17 37 68 36 33 36 21 37 24
69 73 56 92 56 49 56 94 62 65 66 67 76 54 71 66 56 55 55 51 56 48 52 79 51 41 67 64 30 57 51 70 77 38 56 74 57 47 60 91 40 49 56 37 51 47 40 68 59 62 40 42 48 52 82 60 69 49 50 63 64 47 37 49 63 46 55 55 47 70 32 36 56 49 59 54 81 45 38 43 43 57 42 33 28 49 14 32 40 42 70 41 44 70 53 22 31 41 72 49 16 21 38 24 40 44 26 25 9 31 30 26 26 25 46 36 56 54 39 25 48 64 19 29 42 34 20 42 46 13 11 19 21 46 34 39 25 37 59 46 13 30 37 35 15 27 16 36 38 24
62 63 74 91 65 63 55 60 67 57 64 75 75 55 67 56 62 65 47 70 50 75 55 45 55 64 47 49 75 56 45 48 62 61 32 41 46 38 61 53 44 45 53 44 63 42 36 39 73 71 59 58 41 54 64 49 49 32 50 71 50 44 29 41 49 41 39 44 61 60 28 40 26 48 33 45 52 54 22 22 65 52 46 71 46 20 20 28 34 31 17 25 37 29 56 20 19 29 41 56 40 23 20 22 43 62 44 36 29 62 22 46 43 11 34 41 45 18 11 32 32 30 12 38 44 10 32 27 43 49 31 8 31 48 37 13 21 16 20 41 42 30 5 27 10 15 13 28 60 19
60 51 64 58 44 81 77 43 69 63 49 51 65 60 66 71 59 78 49 79 55 46 51 43 74 67 45 58 51 61 55 48 40 55 66 49 56 69 66 70 73 67 81 45 54 45 74 32 42 89 88 66 56 48 52 31 44 67 52 44 48 47 26 36 39 33 25 57 49 45 46 51 38 50 39 30 47 33 41 35 23 49 68 68 49 45 36 36 49 24 27 17 37 16 47 26 34 51 53 20 31 25 28 17 36 34 48 34 65 56 24 38 47 59 20 35 80 30 32 37 27 46 19 36 32 37 31 61 29 40 35 9 29 70 66 27 27 52 55 27 30 29 29 25 22 8 31 39 45 15
74 74 64 53 54 55 69 72 62 53 73 73 43 73 78 73 62 51 42 73 50 42 77 53 61 70 75 56 45 52 56 53 60 48 60 49 38 72 43 50 63 44 43 57 56 61 58 49 40 46 42 76 45 61 54 49 37 66 67 41 43 38 29 61 54 54 56 54 57 32 50 47 54 60 55 48 40 42 48 57 53 23 47 55 54 40 31 34 59 55 43 34 44 30 24 16 49 53 45 36 43 46 21 34 31 44 36 44 54 24 14 12 51 61 33 49 67 32 46 52 23 48 40 51 41 13 32 39 17 22 45 31 7 67 29 18 36 33 21 53 47 59 54 31 39 21 30 40 14 40
78 81 80 58 67 75 74 58 87 94 65 62 66 56 52 71 45 60 49 50 59 63 72 61 58 60 57 61 64 69 47 64 49 67 52 45 50 48 66 70 49 35 59 55 64 46 49 54 53 58 47 43 53 47 50 73 44 45 52 46 31 70 53 62 44 40 50 54 27 23 39 48 39 33 55 48 38 62 54 46 51 59 55 26 58 55 31 17 53 73 35 34 49 78 36 39 36 26 44 42 46 44 39 21 37 39 14 33 40 31 57 35 14 40 42 37 24 21 61 39 8 36 34 22 46 57 20 7 44 19 35 12 24 27 28 18 24 9 32 25 37 29 13 13 34 18 8 18 30 60
45 53 84 69 62 97 87 60 56 68 72 52 59 68 64 75 80 54 67 57 52 61 41 55 69 34 63 61 70 58 33 75 41 42 45 73 44 50 60 59 62 57 64 62 56 49 60 60 53 42 40 72 68 29 67 63 51 66 48 52 26 51 50 41 49 56 33 51 36 27 56 44 57 34 47 57 28 27 46 28 33 58 38 61 39 63 51 36 52 46 23 57 44 15 49 57 46 29 30 32 47 39 43 32 45 29 31 47 18 35 36 25 35 37 35 24 29 11 38 36 57 40 12 31 36 36 32 46 44 27 32 23 53 37 38 15 10 18 47 35 63 20 20 36 25 19 19 47 26 27
57 57 80 53 59 80 80 84 55 45 83 69 56 50 50 57 68 62 57 71 59 63 40 54 69 68 73 52 62 47 49 72 68 66 54 33 33 43 58 45 62 62 68 67 53 37 37 70 58 38 39 44 51 51 76 43 65 36 41 31 59 47 45 29 45 30 32 37 39 42 42 43 64 39 38 45 35 55 43 27 48 50 58 46 39 18 41 53 55 32 46 42 44 22 41 14 26 26 18 54 51 8 29 26 21 50 27 42 35 23 28 27 35 26 26 26 22 24 48 34 54 33 11 32 34 34 36 33 37 40 52 11 38 35 22 11 34 9 14 14 22 18 38 25 11 27 17 44 22 8
72 59 51 59 84 70 59 39 63 59 47 59 48 61 53 63 77 61 40 77 66 43 70 62 69 54 53 63 48 79 65 63 74 61 32 50 43 69 53 70 47 55 55 58 40 37 39 57 69 50 29 39 57 81 59 32 68 72 49 41 48 42 54 18 68 60 17 54 39 50 73 48 42 43 35 36 18 41 39 45 64 29 61 26 41 31 42 41 44 53 44 41 57 53 47 41 46 10 34 53 47 14 42 51 37 46 32 59 23 14 30 53 52 47 40 51 34 63 44 25 36 18 10 16 35 37 19 7 16 10 15 22 58 42 33 52 68 40 26 30 16 18 12 25 53 19 2 17 23 21
62 67 52 86 92 72 58 59 77 52 67 81 60 49 68 81 51 89 77 66 93 59 63 63 60 56 76 49 68 87 74 56 61 43 68 86 50 67 65 64 65 48 55 51 52 53 67 39 42 63 41 66 39 66 60 51 65 54 79 66 32 61 50 50 45 54 66 79 70 68 43 68 55 40 24 39 73 41 66 40 57 39 39 31 27 54 34 38 57 48 25 38 35 74 36 31 48 40 56 72 29 43 51 15 53 49 39 22 35 62 65 50 43 43 26 39 68 70 33 43 25 20 25 16 27 31 28 35 33 7 27 29 43 29 24 30 36 34 54 32 36 30 35 21 38 36 51 41 15 22
57 52 79 86 59 79 56 57 62 84 91 56 42 51 66 85 48 44 56 52 72 65 66 65 55 74 53 72 69 61 57 75 49 42 66 53 39 64 59 50 55 43 62 46 44 50 36 52 41 66 65 62 61 63 48 43 44 48 53 53 36 71 60 66 34 44 52 76 43 31 36 38 42 41 31 48 34 40 32 56 44 47 66 52 39 72 50 28 56 28 38 36 22 52 24 35 46 43 30 45 35 43 28 37 62 71 69 36 69 38 40 33 29 24 19 14 42 32 31 62 38 60 48 30 34 23 37 48 51 10 25 37 19 24 60 42 48 21 14 5 32 45 35 21 20 15 45 26 21 34
67 61 46 49 62 56 88 77 60 78 46 75 70 58 46 83 79 69 63 70 74 75 63 55 51 64 56 54 50 44 57 84 68 46 41 59 60 40 44 45 41 46 57 42 50 46 52 51 63 58 56 60 41 53 37 35 30 48 34 60 44 62 75 50 48 43 30 58 45 25 52 42 36 44 63 54 37 46 38 48 35 35 52 34 58 61 55 51 34 20 31 33 46 28 54 45 22 20 34 24 33 25 47 23 20 19 28 67 53 16 18 12 42 45 22 39 41 9 22 29 22 46 29 20 34 13 10 31 73 22 14 25 59 9 31 31 49 28 15 56 53 20 13 12 28 17 24 25 19 0
55 65 55 55 45 52 73 58 62 58 57 55 74 72 61 64 77 57 54 70 66 67 65 52 53 51 66 46 43 55 58 54 39 46 54 48 42 41 51 47 60 54 46 61 53 44 36 38 54 70 51 64 54 76 50 27 48 54 32 41 55 71 29 57 70 65 51 41 46 39 60 31 52 59 52 36 43 49 48 58 26 23 20 35 39 35 46 57 36 27 15 30 35 19 26 20 46 53 22 34 64 38 39 33 29 23 29 31 40 34 30 49 38 15 27 53 40 21 44 40 53 34 41 22 33 34 24 35 44 31 34 38 19 33 68 19 17 43 28 33 22 20 23 22 52 57 44 38 44 30
50 66 48 61 70 89 61 82 65 52 69 50 50 62 73 81 66 58 50 69 69 39 44 48 41 59 56 53 53 45 53 70 55 51 50 68 60 55 46 54 52 57 68 48 39 68 67 36 49 52 30 55 43 29 54 72 60 41 64 69 73 79 48 64 43 48 28 46 52 43 44 34 38 34 32 41 52 51 41 44 29 23 20 23 53 50 59 57 26 38 24 39 56 45 41 46 46 49 29 34 44 35 22 37 63 44 15 14 45 44 71 71 29 37 58 23 40 21 17 35 24 39 56 50 21 26 34 72 37 8 51 27 22 39 35 79 51 46 37 17 33 39 25 35 14 25 25 19 36 18
60 72 66 74 68 55 60 92 50 57 71 48 66 60 63 45 69 74 60 74 59 40 46 80 59 81 73 70 46 35 60 59 49 59 57 63 45 43 59 71 45 50 60 59 47 51 62 43 48 62 36 31 50 49 60 77 45 36 31 50 91 56 63 74 36 35 66 60 37 37 57 47 52 33 18 41 56 60 37 46 53 52 38 35 67 17 45 48 38 68 56 22 42 54 26 54 28 19 41 52 75 72 20 28 25 40 24 40 44 45 38 26 36 34 59 30 56 37 13 46 26 29 35 25 17 30 41 14 50 15 28 26 25 22 36 69 47 19 52 43 25 27 11 29 16 15 24 13 22 32
51 63 55 55 108 51 75 57 53 61 59 48 56 61 65 46 52 53 58 49 92 56 52 66 47 49 62 70 94 56 70 64 71 56 49 70 45 36 58 69 57 77 59 60 74 45 38 46 56 76 59 36 55 70 51 73 55 51 49 58 65 55 48 54 61 35 38 57 38 46 54 55 22 50 57 48 52 29 19 57 51 20 47 55 32 49 54 40 34 28 35 25 12 40 31 62 64 28 24 14 43 38 58 34 35 25 50 39 38 40 31 65 38 35 59 21 34 38 41 53 21 30 56 8 14 35 38 32 25 10 25 32 22 39 33 29 14 6 42 54 30 18 24 37 59 25 35 34 31 57
53 75 70 66 70 66 75 52 74 63 53 76 55 65 67 57 49 51 51 56 64 38 49 53 34 51 88 60 47 52 72 50 44 54 48 65 46 47 37 45 81 68 54 51 88 57 54 53 48 42 85 56 37 42 50 59 61 67 59 73 72 55 74 52 34 49 55 38 21 61 91 44 27 27 41 68 53 36 34 33 55 25 65 44 28 65 62 55 53 54 36 67 52 35 43 28 33 25 58 28 13 54 40 29 51 46 30 41 34 59 39 41 45 42 56 31 35 41 51 32 25 16 50 37 39 37 62 31 7 7 18 48 40 27 25 12 15 17 15 29 23 43 12 29 22 55 26 31 35 33
78 83 48 54 68 63 61 59 87 73 55 80 48 39 50 58 64 49 51 56 35 49 58 58 71 40 73 90 60 56 61 38 34 64 62 71 47 45 42 52 46 44 42 63 44 46 50 39 68 69 53 61 30 46 59 41 73 54 70 83 56 71 40 46 45 53 68 57 50 83 83 70 79 82 58 62 95 83 72 79 74 55 51 42 58 37 57 41 44 58 25 61 50 21 35 42 31 50 40 22 26 78 49 9 25 36 21 75 34 42 29 34 25 27 39 50 53 13 12 29 33 20 7 27 49 24 17 63 41 13 3 22 25 24 13 44 39 27 26 10 4 22 14 31 33 37 23 37 31 24
78 76 63 71 60 79 43 65 55 45 49 59 51 58 41 65 83 53 68 63 49 61 56 68 57 57 35 83 84 48 36 60 49 57 59 61 80 78 42 36 46 58 90 67 60 44 50 53 60 78 62 78 42 49 54 32 57 51 41 47 49 36 45 59 58 56 87 84 78 99 96 103 96 86 102 107 107 102 96 111 87 88 100 99 78 103 73 46 32 35 49 19 53 47 51 69 47 76 39 34 39 19 13 37 40 50 57 43 36 46 53 47 9 35 48 55 30 48 39 56 34 26 44 20 30 56 46 12 18 7 43 24 37 39 8 17 28 21 48 35 3 20 38 19 8 16 26 11 33 28
54 67 74 79 66 84 75 57 58 68 71 49 59 65 68 58 61 58 77 64 54 45 64 69 57 64 42 42 64 56 70 66 59 51 40 60 69 69 62 57 47 60 52 41 49 44 49 37 37 38 75 74 64 66 52 46 39 37 40 67 48 59 73 85 68 90 105 86 77 101 96 93 94 88 90 111 133 124 93 122 111 96 99 104 109 98 103 109 91 91 82 73 34 49 42 31 57 29 38 30 50 50 46 53 40 13 43 43 44 20 23 41 34 37 27 15 34 24 55 68 34 38 65 35 19 26 51 11 37 31 29 56 56 61 41 52 20 16 28 23 20 25 35 36 26 73 36 17 38 36
77 62 49 63 76 80 70 83 60 69 53 67 89 62 56 59 71 101 77 59 62 55 68 53 64 71 41 40 69 48 88 88 65 38 56 72 59 55 61 47 48 60 64 71 49 37 31 41 34 34 37 44 57 50 36 50 39 58 95 79 63 74 87 95 85 102 99 100 99 104 108 94 107 107 99 117 124 134 109 126 128 108 126 128 103 103 100 107 111 101 116 104 111 71 31 26 45 40 29 38 34 30 41 39 31 41 23 24 22 5 26 54 29 53 37 15 33 23 41 31 48 29 20 21 38 45 89 47 38 28 20 31 16 61 29 14 23 34 13 32 23 35 14 25 58 29 15 26 12 32
59 77 63 71 80 53 56 61 55 48 60 52 69 82 75 42 80 82 44 59 47 49 79 67 70 70 73 88 63 35 74 70 59 53 45 41 87 47 35 52 53 53 51 82 68 46 51 49 63 62 47 51 40 25 49 75 63 88 77 97 86 74 92 95 94 106 107 116 101 104 120 116 118 117 112 119 133 145 137 125 123 111 127 120 118 130 138 121 109 115 129 108 123 113 98 91 79 26 31 54 23 36 68 47 22 47 16 46 56 37 15 24 48 20 37 28 42 48 37 44 26 35 19 25 46 15 46 40 30 74 23 7 39 31 24 16 24 25 27 42 47 13 25 14 24 10 19 52 27 36
40 63 72 74 54 61 54 56 58 49 53 55 80 50 56 69 59 52 62 58 53 57 61 75 38 52 90 82 40 52 64 51 50 60 45 61 51 44 51 47 61 54 64 47 36 32 70 45 64 68 67 58 59 63 65 72 66 84 82 77 102 102 101 112 130 121 114 149 121 127 122 131 134 133 123 130 137 131 139 136 137 127 125 124 141 136 150 138 141 124 131 129 125 124 105 119 119 96 75 38 23 80 53 26 10 33 38 24 12 54 36 24 23 28 31 32 29 15 17 36 17 14 60 65 59 55 3 31 32 45 19 15 39 32 18 36 37 43 40 29 40 35 24 15 52 60 11 44 30 6
82 52 64 56 54 68 80 41 53 45 64 93 67 61 59 60 75 67 55 68 61 43 62 55 77 64 56 44 69 66 69 54 52 59 45 73 51 57 40 43 61 83 55 32 63 39 54 51 56 52 67 54 62 85 72 89 81 72 115 92 94 93 105 119 108 122 136 123 137 132 128 130 143 137 139 148 147 134 144 133 144 139 131 142 139 134 146 137 139 142 123 123 125 127 127 112 123 125 123 87 63 57 43 33 58 49 26 33 20 30 43 43 50 45 31 33 38 21 30 18 28 40 57 82 22 21 29 32 43 25 44 30 53 36 17 36 34 33 42 30 20 20 25 55 24 38 8 5 11 23
85 55 64 63 80 67 64 81 103 65 53 46 56 68 63 38 66 65 49 67 63 70 57 59 49 58 52 57 58 65 46 50 89 66 55 62 61 49 34 62 76 73 50 61 54 46 57 38 48 58 78 69 71 69 82 93 81 79 88 107 114 110 118 115 110 125 115 121 129 143 130 138 146 148 139 138 157 152 151 163 148 152 154 166 151 148 157 151 153 142 138 131 145 146 137 117 124 117 108 114 122 67 59 20 49 34 24 15 47 34 34 26 34 44 25 30 40 35 47 50 44 49 32 39 32 13 27 41 46 5 15 45 18 27 58 73 32 35 36 18 2 28 28 36 23 0 0 0 19 22
68 64 64 57 89 83 64 68 109 57 54 64 65 63 67 97 35 41 75 64 38 65 65 42 46 79 55 47 48 60 74 50 47 71 49 66 79 62 50 43 51 44 41 77 56 41 39 55 57 58 65 86 97 80 98 90 96 85 102 109 101 111 131 109 123 120 122 132 149 139 143 148 145 157 150 159 158 162 163 159 168 162 164 160 163 160 162 157 145 162 150 151 155 152 140 155 120 119 136 127 97 102 103 66 22 18 33 39 32 34 14 36 51 42 45 38 30 54 24 41 63 44 22 30 21 38 35 20 24 31 28 25 51 52 46 25 41 39 29 10 15 40 45 25 4 33 21 13 19 30
74 79 59 62 58 51 65 88 69 47 67 68 64 65 67 87 44 50 68 72 72 38 90 90 48 59 106 55 57 67 72 52 51 53 40 71 72 33 72 50 42 65 42 81 49 57 45 38 72 79 81 73 83 87 87 93 87 102 100 118 115 107 128 117 140 147 144 136 142 142 146 160 157 158 163 168 157 166 168 168 174 158 171 176 174 171 169 164 159 163 160 158 147 147 147 146 142 129 124 129 126 112 104 121 55 9 31 36 34 45 20 44 35 34 28 39 17 24 7 30 60 8 29 33 12 27 51 24 57 70 50 31 22 30 37 30 19 36 13 33 27 35 31 19 27 24 35 12 12 32
53 74 65 63 71 41 63 66 67 88 58 51 52 76 81 70 66 59 81 59 75 71 41 69 64 70 59 61 57 46 63 38 53 63 49 74 53 35 48 70 109 61 26 68 58 49 43 40 76 77 99 92 72 72 78 94 106 93 118 130 116 116 134 123 140 143 159 152 169 145 154 162 158 171 163 183 177 174 181 176 171 169 173 181 173 176 174 166 172 170 170 158 149 149 150 155 153 155 137 121 136 116 107 111 115 63 23 25 38 36 59 61 33 45 7 28 40 25 48 39 17 23 21 40 39 24 33 54 23 41 25 35 17 24 55 54 16 20 9 27 11 30 35 24 28 41 41 17 27 33
53 79 86 43 62 91 58 73 69 48 85 90 84 53 55 87 79 80 54 63 65 69 56 62 66 68 50 40 55 64 55 64 54 57 51 56 49 73 62 68 65 57 40 57 57 61 59 52 65 68 69 89 84 81 88 95 98 116 118 127 126 133 121 135 157 138 164 150 165 168 165 163 183 183 171 180 180 181 181 182 190 186 186 176 174 181 180 171 173 170 163 165 168 160 164 150 156 157 144 129 130 125 129 113 111 112 79 59 12 22 33 35 45 31 20 32 32 34 68 23 43 41 26 38 54 22 23 58 36 9 14 14 26 56 34 37 23 27 12 25 21 26 29 31 14 43 29 25 61 45
53 71 88 82 50 65 70 91 57 57 60 78 57 59 60 82 62 81 56 82 42 63 70 62 54 62 69 70 66 44 68 50 58 69 78 51 78 77 73 34 65 63 74 46 64 76 91 66 72 76 70 76 106 100 92 106 124 118 120 119 132 142 132 144 160 162 150 157 163 174 177 177 183 176 180 182 185 188 186 192 194 193 194 197 187 190 186 184 179 172 176 168 174 172 162 162 153 147 138 140 132 124 117 132 124 111 100 83 16 28 68 35 85 24 42 50 20 50 74 45 25 20 22 32 19 29 52 20 31 15 21 36 37 35 19 46 22 37 8 12 18 11 48 10 12 20 16 16 39 26
77 52 74 63 48 51 48 57 67 83 62 73 81 78 59 57 60 63 35 56 45 63 59 54 62 42 64 49 55 46 52 44 69 49 72 57 55 60 71 33 43 57 62 41 60 61 56 61 116 91 72 87 102 108 106 106 104 125 123 129 127 128 145 145 154 164 158 164 169 170 174 182 185 186 192 194 188 190 192 193 202 198 195 204 193 193 189 181 193 189 183 180 182 183 175 176 160 165 157 142 139 136 130 132 129 130 110 98 47 36 19 11 33 45 52 55 9 29 42 22 8 38 60 34 14 23 37 35 31 51 21 14 13 34 41 52 26 14 21 22 35 17 14 33 20 34 38 23 22 22
52 50 74 64 72 97 71 38 60 73 67 67 57 63 48 40 42 50 64 48 56 70 50 73 71 55 56 55 42 36 57 73 53 59 63 80 37 44 60 41 56 66 62 68 63 47 83 96 85 74 82 80 93 86 112 107 116 126 139 130 147 142 149 154 164 168 173 165 174 176 176 181 188 192 197 203 198 201 203 200 201 198 203 200 197 201 197 190 193 190 193 183 178 183 186 169 156 153 164 162 142 134 147 138 119 123 127 118 107 40 54 71 60 16 50 23 9 27 39 22 26 33 21 22 26 39 31 21 35 33 38 28 28 16 56 12 14 9 22 36 24 7 16 52 18 29 42 49 16 16
61 65 76 44 59 86 106 56 77 70 57 67 59 57 51 55 79 53 65 84 83 74 70 49 80 72 45 47 65 60 62 68 62 48 45 50 50 48 61 51 54 47 37 70 52 54 68 103 80 94 103 100 110 102 116 114 128 144 128 139 136 145 160 165 161 166 184 176 178 183 187 185 193 195 199 201 201 205 210 203 201 202 205 207 206 208 205 199 204 196 195 196 182 180 177 175 171 157 153 154 152 139 144 137 130 120 126 111 104 111 35 29 43 71 30 20 15 26 24 27 19 41 56 45 20 21 28 52 22 11 35 41 24 33 38 31 29 16 25 24 6 16 14 17 34 36 25 14 22 51
70 75 47 56 57 51 67 92 52 51 47 79 61 50 52 56 64 71 69 75 54 67 78 81 75 47 51 77 59 64 83 73 48 57 62 48 56 69 57 69 54 42 43 48 67 75 70 84 69 59 125 101 108 103 111 125 123 123 145 144 139 157 150 163 173 173 183 181 188 191 192 192 198 200 201 203 208 210 215 211 207 215 206 208 211 206 209 201 199 197 196 201 195 183 179 184 186 169 166 156 156 140 150 140 131 126 132 118 115 160 89 60 47 41 17 16 28 54 46 42 66 54 38 41 15 45 28 25 19 21 28 20 35 49 46 54 25 12 9 2 0 21 43 14 5 22 23 37 46 29
49 80 54 78 51 54 47 80 67 67 48 62 85 55 82 70 84 85 82 52 53 46 63 71 50 82 61 62 58 70 78 67 61 58 41 66 46 37 51 62 82 57 46 56 47 80 76 85 72 94 95 101 99 116 130 126 135 126 144 147 153 160 156 174 182 177 175 187 184 184 193 197 200 208 209 205 217 213 212 217 211 213 214 215 209 214 213 214 203 202 199 197 187 189 194 177 182 180 167 159 157 154 149 140 141 121 140 126 127 114 121 68 45 19 43 23 45 30 12 42 94 18 48 31 29 35 13 28 37 50 7 18 6 25 50 48 20 65 49 47 50 26 50 35 14 24 24 22 19 56
48 52 76 69 54 45 61 67 51 59 51 68 103 65 56 75 70 64 90 69 53 61 81 87 68 85 79 41 68 63 41 73 69 54 66 66 49 42 89 86 39 52 79 66 56 69 68 66 74 95 106 106 112 100 104 126 115 139 148 137 144 162 169 168 176 180 183 188 183 192 195 207 203 205 208 209 215 210 217 219 218 219 222 214 214 219 217 215 203 199 203 200 192 192 195 196 178 175 170 162 150 147 145 140 142 120 128 119 107 115 118 61 56 33 23 38 34 31 30 12 43 40 37 36 22 17 36 23 41 34 23 39 32 47 33 46 24 32 22 39 66 33 34 8 33 40 37 41 42 30
56 64 64 59 69 62 65 62 50 70 64 59 53 66 53 60 57 54 54 52 48 50 48 60 67 66 67 51 44 54 58 56 44 67 74 51 41 61 49 39 47 56 52 67 65 54 96 90 89 78 107 93 107 129 103 128 128 132 136 144 149 175 171 173 176 175 178 193 194 193 202 209 204 210 213 212 218 215 216 222 218 216 221 221 216 218 219 216 210 210 203 203 202 195 190 187 178 180 168 160 171 155 153 164 168 138 131 140 126 108 107 78 52 69 22 22 10 42 34 37 37 53 19 23 38 19 47 34 26 19 47 26 53 49 17 28 41 28 24 7 19 9 32 14 8 11 29 16 63 29
63 54 77 52 57 98 59 62 71 65 51 52 70 71 61 78 71 41 57 60 50 56 45 105 66 69 52 55 48 44 75 64 50 59 100 66 50 47 42 38 51 83 52 61 69 85 81 81 67 72 94 96 105 111 119 117 129 136 149 143 150 151 162 174 177 181 183 192 204 200 202 205 204 209 217 218 219 220 218 222 222 221 220 219 219 216 212 219 218 207 202 199 197 195 195 186 185 172 172 175 174 152 154 156 139 145 129 125 129 108 95 113 89 25 22 15 12 19 45 11 16 41 15 31 42 13 23 47 27 43 66 5 28 53 34 22 13 44 38 21 15 27 34 37 8 0 25 19 33 24
77 85 64 65 64 85 68 56 74 65 50 67 71 75 58 42 74 81 84 48 65 56 65 88 58 57 47 55 38 54 52 58 50 58 44 56 71 66 78 49 32 67 78 44 60 80 69 68 75 93 87 92 96 104 106 131 131 141 142 154 150 154 165 180 173 194 177 188 192 199 206 207 203 209 212 216 215 219 220 221 230 223 221 223 220 218 217 212 211 207 208 204 199 192 188 188 191 178 177 185 161 161 147 153 135 128 133 123 108 113 107 98 72 19 45 56 17 48 30 23 25 24 24 39 48 33 32 44 32 16 40 52 17 21 38 23 42 27 21 26 45 30 14 22 49 40 12 26 35 47
94 89 61 75 72 62 55 57 63 46 64 73 50 66 54 46 48 65 60 45 62 60 86 75 76 61 113 89 39 61 47 47 55 49 57 72 53 76 56 64 66 53 82 61 58 78 72 72 76 104 94 96 98 103 119 121 124 134 141 140 147 157 161 179 178 182 187 187 192 195 209 203 204 210 216 216 214 224 222 218 224 222 224 224 217 220 216 215 212 212 209 213 210 193 187 189 194 174 170 177 163 156 147 143 138 132 131 121 108 106 97 99 81 42 49 24 22 46 41 24 44 19 47 47 39 48 26 36 44 25 18 10 44 37 38 15 22 27 58 38 22 20 36 35 32 51 11 11 18 25
68 75 64 55 61 68 57 69 49 52 62 61 53 69 57 67 55 83 60 64 51 54 56 62 45 68 92 50 44 55 46 43 50 42 53 48 37 55 73 65 57 54 86 81 48 73 81 68 82 103 91 93 104 111 148 149 128 136 136 135 144 150 161 172 173 171 187 191 192 202 197 201 209 209 214 210 215 219 220 221 220 220 220 218 220 215 217 215 212 211 206 202 196 200 198 180 185 181 165 163 168 160 141 137 142 139 128 115 133 110 107 118 90 32 45 40 21 15 27 18 30 75 36 21 19 36 22 17 59 39 31 25 20 27 29 12 41 59 42 32 24 25 23 54 36 8 4 0 22 18
55 65 75 92 81 55 59 68 75 49 81 47 60 72 53 43 72 53 72 67 54 55 53 38 61 50 59 48 65 48 51 52 62 56 51 75 51 39 40 61 58 74 66 77 63 70 75 84 97 85 92 118 101 117 136 119 133 134 135 139 147 163 169 172 173 183 186 184 190 198 205 207 215 207 214 210 217 215 217 220 217 220 219 222 214 214 215 210 207 216 207 200 196 191 193 189 182 172 174 160 155 153 153 140 139 136 134 108 123 112 116 111 87 19 46 31 7 28 49 44 25 59 41 19 43 31 27 25 50 27 46 41 20 35 44 49 47 48 55 33 37 29 24 40 19 26 28 49 11 19
71 63 74 55 50 65 64 57 66 94 63 55 69 68 55 63 71 83 57 51 53 70 88 48 64 57 72 53 44 39 67 75 64 67 60 60 61 56 35 49 49 53 49 49 77 76 65 58 102 97 106 114 100 118 106 133 146 134 149 152 142 168 158 158 177 182 186 182 182 198 200 198 202 206 208 210 214 212 211 218 216 217 219 215 210 215 214 215 207 206 210 205 194 193 185 179 184 177 167 160 157 153 148 143 138 134 128 134 112 113 129 126 88 38 57 31 33 35 26 48 28 23 27 36 24 50 30 39 34 49 45 52 14 27 21 39 40 53 27 30 27 29 30 20 12 25 19 39 15 25
71 56 61 69 50 71 60 52 59 74 75 80 59 55 93 62 73 79 76 65 62 56 40 69 69 46 62 63 57 56 41 54 53 53 61 66 50 53 82 38 51 64 49 39 52 58 64 91 71 89 125 98 109 121 116 131 113 122 135 136 151 164 148 175 181 174 178 180 186 188 192 192 197 202 203 209 208 208 211 210 211 211 215 214 206 208 207 207 203 202 204 195 187 182 185 181 172 172 162 166 163 153 138 142 123 147 128 125 106 125 110 95 80 55 42 39 31 27 40 67 44 13 9 33 21 47 30 21 75 40 20 44 26 13 42 51 45 27 23 9 1 48 39 31 29 27 32 38 32 10
60 63 66 75 76 63 60 65 61 63 71 67 64 74 63 55 81 69 88 67 61 46 39 70 67 61 71 51 36 70 67 66 45 42 42 73 66 42 50 54 73 66 52 58 84 76 66 77 65 85 93 81 100 107 107 101 111 126 132 149 133 137 151 169 165 167 177 178 180 181 191 194 197 196 203 209 200 206 207 209 207 209 211 209 212 205 206 201 198 203 198 191 193 190 179 170 167 183 164 156 148 144 138 130 130 132 117 111 116 101 98 99 90 29 20 15 18 23 14 33 45 19 24 80 34 16 33 23 30 13 18 62 40 15 36 35 15 36 41 30 4 14 29 40 34 22 41 37 15 17
61 60 91 72 63 57 48 43 63 72 63 61 48 67 73 51 56 70 54 56 73 72 42 67 54 75 52 71 55 53 58 65 53 48 49 43 56 37 39 46 68 64 55 62 73 48 85 93 61 69 107 99 89 103 114 130 105 120 122 151 149 143 142 150 150 159 172 171 178 185 186 190 198 194 193 196 199 202 199 202 202 200 201 205 209 203 206 197 198 185 188 192 193 189 175 173 163 166 160 151 138 131 135 131 132 116 105 114 115 104 100 89 64 31 38 48 24 57 42 20 31 22 50 39 42 26 37 22 39 56 38 50 32 27 14 39 42 19 52 19 6 10 49 34 2 21 40 33 18 36
72 59 73 46 57 86 73 49 73 51 63 60 54 45 53 80 94 51 42 73 80 63 40 42 41 75 64 63 97 51 37 33 55 63 58 77 76 53 43 65 49 60 62 50 52 91 63 70 84 92 85 80 110 102 106 133 119 109 131 127 141 140 139 148 156 149 161 170 177 186 177 175 181 190 194 194 194 200 193 198 199 196 198 200 195 203 209 200 194 185 186 182 177 182 179 165 163 151 156 150 142 137 132 120 124 117 110 122 103 94 89 87 70 58 38 25 56 50 30 40 20 20 29 14 17 28 46 12 51 44 39 38 21 21 42 50 16 24 14 52 28 31 13 36 17 11 29 28 28 41
74 43 53 83 85 77 64 53 66 58 73 77 44 44 73 79 80 52 75 78 85 59 49 50 55 70 91 74 42 39 42 51 63 46 53 40 58 59 41 55 35 30 65 49 33 79 63 60 58 69 74 80 95 99 94 97 122 128 113 129 129 145 143 139 160 163 172 169 163 165 179 186 185 183 188 192 189 183 194 192 192 195 190 185 189 197 189 187 182 180 181 169 175 169 162 161 151 141 145 154 136 135 127 114 119 116 125 113 108 114 99 103 84 47 40 41 23 24 45 45 40 33 7 17 40 38 57 33 13 28 39 25 8 24 37 23 42 47 30 21 27 31 38 17 32 13 33 24 22 23
86 62 54 67 65 53 50 60 85 77 62 52 59 61 55 51 76 70 68 69 57 62 88 74 40 75 85 53 65 61 61 45 36 52 74 44 44 59 70 35 35 62 45 74 63 37 65 64 64 69 81 77 82 86 110 105 104 120 129 118 139 137 136 146 138 157 159 166 184 173 176 175 175 180 175 177 182 183 182 189 181 188 187 185 192 183 182 184 178 167 178 176 164 160 161 157 149 139 132 133 142 132 128 117 123 112 104 111 108 84 83 67 33 40 64 61 64 32 33 42 69 65 6 4 35 56 46 23 21 59 16 12 24 23 41 35 15 22 27 27 37 38 1 4 11 8 19 38 28 28
53 51 72 75 64 61 61 85 51 52 46 71 47 43 78 75 52 66 47 49 56 66 48 44 84 61 52 49 77 51 31 65 82 66 71 51 37 61 43 38 33 50 59 56 58 53 76 68 69 72 73 83 87 92 107 103 113 125 122 100 130 120 156 142 128 141 145 150 165 156 160 171 165 176 164 179 181 178 178 183 178 174 177 182 179 169 167 178 172 172 164 156 162 166 162 152 148 132 128 123 145 124 115 127 102 97 107 114 102 82 96 62 12 49 59 35 47 32 46 38 69 44 29 32 42 42 41 6 23 30 16 9 29 42 37 22 19 52 13 23 37 27 48 34 20 12 28 43 38 49
61 72 81 84 60 56 68 56 42 52 59 95 65 56 62 87 71 77 85 57 83 66 58 50 67 55 52 32 52 36 56 103 65 55 49 50 46 38 37 40 31 49 57 27 51 55 56 49 57 73 68 90 80 91 103 112 117 114 96 104 109 128 136 122 140 135 136 147 147 149 159 166 163 188 164 168 175 168 169 170 169 173 176 169 159 160 165 161 170 155 165 159 166 147 136 137 143 135 141 128 133 121 117 114 107 113 114 86 66 82 93 85 24 42 56 28 11 30 18 30 36 37 42 69 32 42 29 20 21 24 32 38 45 43 27 32 27 20 37 46 11 18 39 50 26 21 29 8 24 34
63 97 57 55 51 72 70 84 71 75 61 102 57 70 68 55 57 71 78 50 84 80 72 84 47 59 72 78 45 49 58 55 47 47 49 60 35 57 53 50 41 52 37 51 73 39 51 37 45 76 70 72 78 92 86 99 86 95 120 113 130 112 118 133 125 127 133 139 139 145 152 147 150 151 164 162 159 164 162 166 152 157 178 162 166 164 163 168 160 153 153 153 142 145 141 144 137 129 139 112 124 109 134 111 100 98 84 81 75 81 60 56 22 48 26 35 32 29 57 63 43 30 33 30 24 53 11 18 64 25 43 21 17 32 34 58 6 14 36 24 23 31 57 55 12 42 51 34 27 33
73 84 45 70 74 65 67 52 69 74 82 81 47 57 79 56 75 66 39 53 64 72 63 71 54 67 85 80 40 46 41 38 59 46 80 74 43 85 42 53 69 50 48 100 52 39 55 48 40 61 73 56 94 74 68 102 106 100 100 103 98 111 117 117 115 114 129 130 130 129 145 159 148 147 145 154 150 150 159 154 165 159 145 157 149 147 150 160 136 143 148 143 126 132 134 132 122 125 123 116 101 124 109 90 84 80 80 77 105 78 39 32 31 31 25 20 54 17 35 40 30 34 19 17 39 35 62 25 13 40 24 55 25 36 19 37 56 14 22 25 22 17 33 37 10 31 51 67 39 18
84 63 63 85 62 45 85 55 48 65 63 79 67 51 45 77 82 60 85 85 50 62 52 47 80 62 37 44 65 51 52 52 61 61 47 50 64 81 56 60 80 73 66 72 55 52 70 68 41 64 75 74 72 73 78 74 89 101 100 101 105 110 122 108 122 109 140 131 130 134 133 143 149 136 146 155 153 142 149 132 141 147 142 152 145 145 139 137 142 162 141 130 140 139 127 130 125 116 102 109 109 97 95 91 88 82 81 74 66 57 27 30 65 32 31 16 32 13 14 20 20 35 64 38 49 28 56 7 58 43 67 41 48 44 29 4 50 23 17 17 25 26 16 45 26 3 2 44 68 41
54 77 62 60 46 44 57 60 48 95 76 67 56 52 58 55 66 69 60 63 77 65 51 54 54 61 70 58 55 46 49 50 50 62 46 48 50 52 63 41 54 81 42 78 53 53 60 42 57 50 54 83 69 63 77 84 64 76 91 102 107 90 119 115 101 98 124 114 116 118 125 122 130 125 137 132 151 133 149 137 131 148 133 138 139 134 145 134 126 146 125 118 122 135 138 125 116 98 111 115 95 88 77 94 85 64 77 60 57 19 33 68 67 33 33 9 23 44 24 58 35 18 14 52 30 14 45 59 41 17 31 42 34 57 12 59 26 40 42 26 27 15 41 38 37 23 31 34 23 43
59 72 45 62 60 54 75 77 94 102 53 49 65 59 70 63 62 51 68 63 59 57 59 72 76 68 72 51 48 64 58 71 47 37 53 46 83 75 52 48 51 61 62 28 28 37 47 54 48 40 52 83 68 52 65 94 80 71 80 88 77 99 112 92 97 100 120 104 106 112 115 126 119 138 138 124 121 123 131 135 137 131 119 134 123 128 138 117 114 119 121 120 108 107 105 103 92 115 110 90 88 92 88 82 73 64 64 60 63 54 43 29 56 35 22 36 44 20 49 47 73 37 19 38 40 57 45 24 26 5 39 51 0 26 43 49 28 9 28 11 35 35 25 35 41 34 10 32 16 29
73 90 61 51 60 70 50 69 79 73 51 48 43 62 50 77 66 48 53 89 65 52 65 55 47 79 74 37 43 52 46 41 66 42 48 47 67 72 44 70 57 70 86 57 56 79 42 32 59 45 44 51 69 55 51 59 65 68 80 63 67 78 101 85 110 104 98 92 104 121 106 118 112 104 118 115 128 125 118 109 115 132 111 120 120 113 119 113 110 123 113 120 114 111 98 98 116 105 100 90 88 69 79 75 81 54 67 45 32 60 46 43 26 46 23 31 56 42 22 36 24 20 40 16 67 52 14 23 36 21 57 17 28 34 55 47 43 42 51 0 26 31 7 12 30 53 12 20 28 26
57 65 68 67 72 60 54 76 78 87 75 64 56 70 52 70 64 76 69 71 70 58 42 62 66 74 71 72 52 69 94 46 79 63 67 58 62 60 38 50 70 52 55 53 66 36 60 41 48 28 41 60 51 44 46 54 55 72 79 69 84 80 70 72 101 99 89 93 101 92 101 97 93 93 110 109 121 121 129 114 107 113 113 124 114 106 91 99 127 95 95 99 86 98 99 92 83 75 89 72 84 75 74 74 83 57 25 57 43 35 36 28 24 33 12 26 27 43 28 27 40 10 20 73 43 26 40 41 29 58 40 29 58 33 45 20 32 36 19 18 30 32 23 15 27 47 24 21 46 45
69 57 57 49 86 57 42 80 73 61 46 70 81 55 69 73 59 50 47 57 66 81 49 45 55 46 45 45 50 54 65 41 85 62 45 54 58 52 60 71 52 65 44 55 71 61 53 70 42 43 65 55 40 83 67 70 55 42 85 79 71 88 84 58 73 74 82 72 82 116 85 79 97 115 102 111 118 109 96 107 95 92 87 105 111 105 96 97 102 91 86 79 104 71 87 103 99 74 68 83 88 83 56 83 61 29 19 27 56 51 25 26 31 31 43 31 37 40 54 38 38 39 24 38 25 59 20 37 37 41 30 57 31 17 27 21 48 38 20 45 40 22 31 10 30 32 6 15 13 48
55 64 58 67 62 63 70 59 56 52 48 62 77 81 82 106 62 44 48 43 39 58 51 44 44 49 39 48 67 59 60 61 61 68 38 62 48 65 59 86 53 67 52 56 49 47 33 32 32 71 42 38 46 47 54 60 52 41 49 48 80 78 87 91 99 88 70 79 76 91 93 91 86 88 78 103 94 88 77 93 88 100 79 109 113 87 105 99 88 80 73 82 105 82 64 81 87 65 74 67 49 88 84 50 43 34 26 70 55 44 15 34 26 27 60 62 46 41 35 37 16 30 27 50 57 45 46 21 18 42 37 49 33 17 21 42 44 18 68 48 7 30 44 19 21 32 31 19 39 11
68 58 62 73 61 54 57 69 57 58 52 39 69 80 59 65 52 53 55 50 58 50 51 66 72 58 39 66 45 51 47 58 46 52 50 40 48 37 47 83 52 45 53 80 75 78 80 66 55 54 43 28 25 45 49 36 65 56 49 63 50 67 60 79 83 72 81 83 73 69 92 84 72 98 70 67 82 115 95 86 91 99 89 85 85 93 85 80 92 85 78 82 83 105 67 49 66 80 61 80 70 62 70 55 78 58 18 15 41 36 23 37 68 39 43 19 33 42 65 55 19 42 47 51 85 17 33 52 28 28 52 38 61 54 24 19 25 41 39 14 34 19 18 11 18 31 12 26 22 10
68 75 72 58 59 84 97 67 82 57 60 52 42 87 61 63 65 51 42 63 68 73 67 44 51 56 52 82 73 53 83 65 57 61 45 43 57 43 43 64 46 45 67 84 63 49 57 60 60 35 49 70 55 43 29 56 42 68 56 64 44 58 55 73 67 56 56 64 73 79 95 74 78 81 74 73 91 100 92 65 104 90 84 67 91 85 65 83 88 69 69 73 55 83 71 67 79 63 70 50 27 50 59 43 49 65 50 14 31 31 14 21 59 83 25 55 34 30 26 37 30 29 32 23 50 41 4 25 60 25 44 34 19 34 22 37 35 36 21 29 39 27 25 21 27 41 35 19 15 34
41 54 75 76 59 85 64 71 69 59 77 62 56 64 55 62 60 40 73 63 70 50 39 48 52 60 66 67 92 50 43 51 42 41 52 81 46 57 49 30 59 59 73 51 49 72 60 57 45 35 50 83 46 72 59 28 36 45 69 52 47 51 52 50 80 51 48 50 72 66 62 81 74 77 74 63 66 65 61 54 80 96 110 75 69 79 58 91 68 60 54 73 58 55 56 62 71 54 32 33 21 18 31 47 42 45 59 20 32 65 49 30 41 59 47 69 21 16 82 29 37 24 39 38 26 30 24 33 61 33 29 29 31 32 11 28 43 28 39 42 26 35 38 38 39 51 36 17 19 22
62 68 82 62 87 63 51 93 79 60 57 64 73 67 56 52 50 59 56 62 76 52 57 55 48 48 44 58 61 45 67 54 48 55 34 65 72 67 57 50 45 48 56 75 67 52 61 47 43 60 59 45 94 46 30 28 32 84 48 37 71 62 52 50 63 58 67 44 47 51 72 61 47 64 87 60 74 54 66 64 60 71 75 71 76 53 50 55 70 81 58 59 60 60 60 74 61 40 27 38 28 23 42 30 40 42 43 31 26 43 61 23 16 39 46 22 16 38 57 44 39 48 23 25 58 32 40 28 30 37 16 10 37 23 17 17 46 36 26 40 55 32 29 44 19 46 35 26 31 20
64 71 61 44 58 54 85 69 79 70 81 71 54 86 53 74 78 63 73 56 45 41 71 69 47 58 48 65 61 61 62 64 47 50 36 73 50 53 73 60 44 61 38 50 53 42 53 42 68 60 67 61 60 46 54 62 31 45 47 46 36 44 83 54 42 45 47 57 77 42 44 53 62 42 46 79 86 77 76 75 58 55 70 66 47 71 60 62 52 72 51 50 64 50 53 40 37 14 49 85 79 34 63 37 30 51 41 59 41 34 33 26 31 26 13 19 28 61 52 15 23 53 30 39 61 47 30 43 34 18 29 33 45 41 25 5 14 20 27 33 28 47 8 31 46 16 40 40 39 28
61 76 66 52 50 67 82 85 70 78 69 66 72 68 69 86 71 48 57 61 59 51 80 45 45 44 73 63 53 52 56 82 61 56 56 67 43 49 69 50 54 49 32 57 53 53 59 65 52 43 71 54 51 50 40 51 45 27 62 60 46 22 51 47 58 41 53 43 54 53 40 37 44 51 80 41 50 65 58 43 42 39 51 66 50 54 53 43 31 32 34 40 34 36 47 41 41 19 36 41 32 31 27 50 37 66 50 60 61 32 28 19 23 24 35 32 37 43 52 37 35 47 18 59 30 19 61 42 19 47 54 37 27 46 24 27 40 15 16 5 21 47 31 12 27 21 19 33 30 48
43 76 102 52 79 78 58 59 75 50 74 70 70 74 79 58 79 51 80 53 47 69 80 52 69 59 87 72 59 69 77 65 58 52 67 64 70 50 48 63 51 40 55 54 49 91 55 60 54 72 90 54 49 58 53 48 42 79 30 44 29 37 35 49 44 24 30 32 42 41 40 81 72 40 62 46 45 49 45 58 39 54 32 68 59 42 43 55 36 42 43 38 29 79 45 30 68 34 9 32 35 29 44 46 70 77 44 33 5 24 39 71 23 24 27 44 69 28 22 32 49 42 18 47 46 19 46 35 29 32 21 3 25 41 27 15 52 17 37 21 38 44 34 45 24 11 20 33 21 31
76 53 67 55 74 83 62 49 60 68 68 70 66 62 64 78 64 60 81 51 58 56 68 42 55 46 52 70 46 54 48 63 66 50 67 62 71 82 41 56 43 73 75 54 37 49 70 67 50 43 34 70 64 41 32 40 72 48 51 70 46 46 48 59 96 46 60 48 45 24 32 76 72 36 40 44 42 30 62 73 26 63 32 15 50 52 32 29 50 52 33 41 42 35 35 24 63 47 19 43 47 29 23 37 47 42 21 49 41 26 35 34 15 22 10 26 55 29 31 35 36 42 43 53 42 37 47 55 50 11 36 31 31 22 18 29 37 10 21 34 27 64 20 24 52 21 44 12 27 24
67 48 55 41 70 77 55 72 71 65 84 68 76 65 78 68 67 73 50 58 47 43 75 51 36 54 48 47 57 51 69 51 64 59 88 64 68 60 38 40 51 56 56 58 62 79 48 43 51 58 37 59 60 46 42 55 47 61 103 58 83 48 39 33 55 48 42 34 45 24 38 43 64 63 26 33 48 60 31 45 47 43 43 40 33 64 52 31 24 63 31 31 16 35 49 30 63 43 47 59 51 20 25 35 36 18 54 84 54 28 34 31 19 15 41 22 18 41 26 39 54 40 14 26 53 47 13 20 6 17 24 39 48 26 27 27 14 13 35 52 53 49 31 43 63 18 34 14 7 23
51 66 72 76 63 66 58 74 64 61 50 63 46 50 60 80 79 57 46 47 86 55 83 44 50 86 64 69 71 67 75 82 74 72 72 50 90 65 29 52 79 57 31 75 49 32 28 59 81 99 59 63 62 46 67 73 81 52 30 35 37 50 61 55 31 49 24 46 54 25 34 24 43 54 49 42 47 40 42 41 63 58 68 68 47 42 40 43 23 44 39 47 44 48 42 62 42 23 58 25 44 29 41 60 12 37 62 51 45 31 38 40 59 43 62 31 18 13 22 33 49 22 10 27 61 27 19 32 58 44 20 2 59 64 48 38 18 12 26 22 21 26 28 40 21 26 28 11 21 31
64 77 74 70 57 72 71 73 48 73 57 50 48 59 100 79 38 47 63 79 58 72 78 46 74 72 100 65 66 68 73 64 76 84 66 66 84 59 48 71 62 64 44 59 59 48 44 52 52 64 67 60 41 59 42 48 48 53 57 61 50 39 35 63 44 21 28 31 63 37 43 24 41 73 50 53 51 25 37 58 56 35 37 36 62 20 36 49 33 26 61 18 35 23 47 61 35 42 31 62 35 60 19 35 54 36 61 25 32 64 37 25 63 26 28 24 36 16 61 54 7 49 30 29 29 13 26 19 30 19 32 49 21 59 30 5 14 58 40 21 59 50 40 25 44 26 20 22 24 52
68 68 79 43 56 85 95 54 64 72 64 63 82 87 70 53 54 69 48 51 69 73 46 49 43 71 84 43 59 58 56 59 63 48 65 64 56 63 64 57 66 58 64 43 57 67 52 37 41 54 45 29 61 38 50 67 38 55 51 29 31 35 46 79 76 31 64 44 46 38 28 53 33 32 40 39 45 52 19 31 51 53 28 31 32 67 34 39 77 35 41 29 50 46 60 35 52 56 45 55 30 16 19 49 53 26 44 38 37 43 49 34 30 36 54 56 63 39 42 49 50 51 72 51 34 11 30 44 41 41 32 46 45 35 39 33 36 32 59 40 22 9 13 67 44 51 45 24 58 53
80 56 58 64 50 68 78 52 62 65 59 70 54 57 71 52 83 63 49 57 90 49 45 42 37 64 62 51 46 58 63 59 64 54 73 46 49 60 54 59 101 63 49 30 40 54 70 92 52 59 37 44 42 43 46 32 62 51 39 45 53 31 56 57 48 24 40 53 26 58 35 38 57 56 51 39 37 42 55 38 58 28 20 25 40 36 50 45 43 39 61 50 42 52 24 38 47 36 55 33 33 34 42 57 52 21 8 15 30 27 31 38 27 44 76 28 30 43 20 37 45 6 15 38 56 23 11 48 53 62 42 41 14 29 59 74 39 42 9 37 8 8 5 11 12 15 27 28 33 31
64 64 67 76 46 54 73 52 73 62 53 79 42 59 62 68 70 55 74 52 45 54 46 43 55 58 65 96 50 52 88 67 69 70 78 45 38 44 69 52 57 36 57 55 50 65 90 94 67 93 55 80 71 63 71 38 65 72 60 60 75 54 52 57 81 65 43 55 47 55 49 59 38 74 87 52 67 64 62 81 46 50 88 56 74 94 59 36 57 47 60 60 53 48 49 54 57 57 58 51 43 60 56 54 50 55 55 54 41 72 69 57 39 59 64 50 71 42 40 43 51 52 61 42 49 55 56 43 45 42 58 73 55 47 62 44 58 55 34 71 62 64 65 52 22 36 62 42 84 45
48 60 77 81 58 68 55 70 70 51 48 51 51 56 59 86 58 76 68 45 61 50 67 65 72 78 62 47 77 59 49 49 41 36 48 62 56 64 60 46 43 64 87 84 85 77 54 56 82 104 69 64 74 72 103 82 57 61 84 84 70 65 64 78 66 68 66 73 67 61 63 60 71 66 76 75 85 81 72 80 58 87 73 54 70 67 62 58 65 97 86 80 106 99 65 67 68 64 84 76 67 78 89 78 68 56 60 65 90 86 74 60 63 84 73 76 89 85 92 61 88 100 79 56 79 89 80 92 68 64 82 88 79 78 55 66 78 66 81 79 81 73 58 77 101 71 74 62 72 46
65 55 77 63 58 73 53 51 71 83 59 68 47 76 75 49 56 68 88 52 55 56 60 57 60 78 49 48 86 53 37 50 41 47 38 53 57 83 45 78 102 85 90 86 63 63 66 75 98 66 84 85 77 92 61 84 72 66 71 74 61 72 87 78 61 91 81 86 60 71 81 68 104 100 89 90 80 51 58 59 80 87 85 61 74 68 75 62 77 99 87 90 75 63 86 85 82 62 75 104 67 69 96 86 78 63 78 96 67 54 84 84 86 80 78 67 62 62 75 87 97 80 79 63 80 63 70 75 82 78 65 71 101 67 75 57 64 71 67 67 65 71 74 80 77 58 90 57 17 25
57 48 71 72 64 67 86 79 58 70 62 64 80 51 64 69 67 44 59 62 63 49 55 83 60 55 67 49 67 53 75 44 74 75 45 49 47 73 66 71 81 66 80 81 87 75 104 83 72 62 101 95 84 101 62 76 79 74 96 80 67 62 84 84 77 71 74 75 95 68 75 83 83 73 73 72 109 81 80 88 63 69 81 75 81 100 68 92 81 64 81 92 67 88 100 70 75 92 81 93 96 86 91 78 59 83 98 101 95 95 76 74 96 90 79 88 76 83 79 76 84 88 76 76 89 64 83 81 96 84 87 77 85 84 73 71 80 103 83 83 81 65 68 83 97 83 58 11 17 16
71 71 74 76 75 66 57 62 79 62 91 55 80 54 61 51 53 61 48 60 52 56 71 54 73 76 70 78 49 84 55 84 59 40 53 76 97 89 83 105 96 84 97 82 94 91 84 71 83 85 92 76 82 81 76 91 92 71 85 88 88 84 77 73 84 76 83 73 76 89 59 72 82 67 68 67 68 79 97 67 58 55 55 86 96 60 78 82 83 70 108 84 72 106 88 66 80 110 107 91 85 85 120 87 73 84 91 70 82 98 76 81 75 79 72 87 103 95 92 75 86 85 81 75 94 88 97 95 75 97 79 86 99 79 102 101 114 92 85 102 101 86 87 82 99 58 21 34 34 55
73 58 77 64 56 57 63 79 80 80 57 65 81 71 60 69 59 58 59 53 57 63 60 51 77 57 80 81 43 72 71 52 67 74 100 91 109 102 113 82 104 82 91 87 95 92 93 82 84 81 75 117 97 97 83 94 69 81 85 69 73 84 69 67 65 90 55 73 83 67 57 83 84 66 69 64 88 64 67 79 87 58 55 65 81 52 84 108 81 72 71 65 75 77 78 65 98 100 94 97 108 96 104 77 83 109 99 90 103 92 79 83 99 79 95 74 97 95 104 93 96 87 103 93 82 94 83 71 82 90 105 85 105 118 124 111 105 91 79 96 78 99 89 46 55 44 27 44 33 31
55 57 75 59 59 65 61 81 69 52 64 50 62 58 73 52 54 79 62 62 57 74 65 42 47 53 59 63 77 45 77 85 80 81 107 115 82 95 93 90 108 100 108 122 101 75 92 101 87 77 104 88 86 80 78 107 79 74 75 84 71 69 94 84 65 81 78 61 75 74 64 90 78 70 83 85 105 68 80 82 76 87 80 80 94 68 77 80 69 82 85 107 85 64 91 95 78 61 90 89 115 79 100 104 87 113 104 84 94 106 93 99 100 101 76 105 95 77 101 104 95 96 98 95 93 98 82 98 92 87 91 97 84 86 88 96 83 82 88 92 98 68 45 48 52 42 40 29 5 3
79 69 45 45 60 44 49 69 81 57 68 66 73 67 58 47 56 77 66 96 51 43 55 47 35 52 57 54 88 101 111 109 113 103 118 99 92 93 91 106 95 104 97 95 107 113 95 73 86 78 78 68 92 94 70 70 94 90 87 89 93 94 84 59 76 102 95 77 77 108 78 75 82 87 90 85 105 80 87 118 91 79 93 91 72 60 75 98 71 71 78 100 82 66 83 93 80 80 95 89 78 78 89 116 112 89 93 89 94 92 110 97 92 108 110 102 94 100 102 98 101 104 97 92 117 99 113 118 98 93 103 106 87 89 92 93 94 80 100 104 62 13 57 51 22 11 41 10 12 29
60 70 54 49 71 58 61 68 40 50 52 69 87 60 40 76 58 42 58 38 65 51 39 54 58 84 80 89 104 103 106 111 113 111 93 89 104 101 112 104 103 112 108 115 119 102 74 71 92 87 76 82 85 82 81 92 105 74 84 90 82 87 74 94 109 100 98 102 84 99 74 89 89 79 76 96 87 101 89 103 92 90 79 101 76 85 91 79 74 86 79 93 87 90 106 81 103 83 83 96 79 89 89 75 104 95 97 108 99 132 123 109 86 99 105 105 109 95 102 114 106 108 101 91 105 89 112 108 104 120 119 88 104 95 93 94 95 110 69 48 39 38 52 25 36 12 55 42 18 5
76 55 103 64 43 52 54 54 83 77 34 57 74 65 75 55 56 57 64 62 60 77 52 75 101 116 109 107 112 132 104 101 107 123 102 108 114 117 126 105 100 113 102 106 105 121 99 83 84 79 93 104 91 83 98 100 77 81 87 89 77 76 86 91 91 91 81 88 87 92 105 116 79 99 87 85 77 79 101 91 102 99 86 71 83 101 102 98 94 82 91 85 77 114 117 92 77 90 89 88 91 103 98 71 93 113 116 108 98 114 115 109 110 102 104 105 101 95 108 107 106 116 93 108 102 101 114 110 114 134 107 102 109 112 104 113 104 47 16 63 55 10 25 29 22 29 48 20 21 12
57 60 80 69 106 76 41 43 90 48 47 50 49 77 72 89 60 49 69 63 66 84 100 113 112 113 120 126 113 121 117 119 112 113 119 125 121 107 129 110 118 105 101 111 108 111 121 115 97 98 115 97 96 107 86 88 83 106 116 97 92 92 101 88 74 86 111 89 91 105 107 96 121 113 105 91 94 91 83 97 100 103 106 88 104 97 94 108 110 90 83 91 105 80 91 106 91 105 98 84 100 111 106 110 102 106 106 108 111 105 111 107 102 108 103 112 115 114 126 117 107 110 110 113 125 112 117 129 112 116 132 113 110 112 112 97 33 0 30 50 41 30 25 39 33 43 26 10 22 34
47 71 70 77 70 60 68 85 58 69 86 76 48 70 70 77 58 41 55 72 118 128 111 117 105 111 120 123 107 94 128 113 120 113 122 110 106 109 117 113 116 120 104 114 118 100 126 129 111 112 110 87 99 90 80 90 104 115 119 102 97 96 105 93 109 112 112 93 96 96 96 91 106 122 118 92 102 103 88 105 124 97 98 102 90 92 89 113 107 101 104 104 95 98 96 102 98 101 112 101 113 122 124 124 117 110 115 122 118 122 115 113 119 125 106 114 117 120 123 112 114 111 114 109 103 113 108 113 117 112 115 106 113 112 93 10 26 24 11 17 23 27 35 30 44 23 21 19 53 42
63 56 67 55 63 54 58 61 60 90 80 54 83 71 58 51 69 87 103 124 126 109 112 140 120 127 120 121 119 126 133 133 132 120 120 112 126 137 119 104 120 125 120 139 135 115 112 125 132 113 108 104 122 123 106 107 117 109 95 99 107 121 118 93 121 101 108 133 112 103 123 123 93 104 112 109 112 115 106 110 110 98 94 120 119 95 99 105 111 95 90 123 114 102 101 111 112 118 117 117 132 145 115 113 112 117 130 117 126 124 118 126 129 133 123 116 117 124 118 121 127 128 132 124 127 128 124 115 109 116 123 112 96 36 39 31 59 50 25 5 23 33 40 41 16 9 16 27 36 34
83 71 77 67 70 71 53 48 70 64 61 57 46 61 84 103 135 123 130 133 131 130 122 147 122 130 130 112 122 136 147 135 129 129 146 139 139 132 127 125 119 118 123 130 128 123 126 133 126 128 120 121 128 147 119 130 134 120 122 132 115 127 142 114 103 135 121 134 128 113 102 111 117 110 115 112 119 114 105 114 111 118 112 105 111 102 114 118 119 125 114 113 117 117 121 134 123 131 132 127 122 134 115 117 139 123 132 127 126 121 125 142 121 124 126 128 116 117 124 115 114 116 135 124 124 125 125 127 109 131 124 94 49 20 24 44 26 46 38 11 23 32 23 36 24 36 15 27 27 29
60 70 72 80 67 67 58 50 60 65 62 49 72 116 139 146 134 129 138 137 139 125 118 122 137 139 138 117 151 139 140 129 134 123 127 135 131 146 129 126 130 127 135 129 135 135 134 128 121 122 142 141 119 125 143 136 145 129 136 132 122 129 141 130 128 135 138 118 119 131 146 129 127 122 122 130 128 124 130 136 119 121 131 133 135 141 128 148 128 139 138 124 134 153 138 128 123 145 154 125 121 124 130 123 122 121 127 133 126 127 135 132 142 122 116 136 134 134 127 118 124 126 128 131 139 129 123 122 130 113 36 26 51 65 63 60 46 37 24 42 36 11 40 26 24 21 17 22 40 33
64 58 86 44 62 70 53 72 86 80 111 124 129 139 126 124 138 142 143 141 147 129 128 143 142 130 134 128 131 137 139 135 139 148 139 132 137 135 148 123 138 138 118 138 137 140 142 140 152 137 133 139 129 137 132 135 135 133 123 135 137 135 131 123 126 124 133 141 139 131 137 154 127 128 131 142 141 125 125 137 158 142 151 148 147 141 149 125 139 126 124 134 127 145 137 135 133 141 128 128 144 139 135 131 139 122 126 138 142 131 128 135 130 134 134 140 137 133 130 144 134 132 131 132 142 138 136 130 62 38 25 8 19 45 33 34 32 48 17 33 31 13 49 33 57 39 33 9 23 11
96 70 68 67 69 72 70 74 96 133 141 149 129 136 142 137 145 129 155 142 138 149 139 145 141 137 140 145 134 133 139 133 145 158 137 137 128 135 140 149 136 137 134 144 142 146 137 149 149 136 148 145 144 138 154 151 134 139 139 140 146 144 147 147 137 141 144 153 145 142 148 140 151 157 134 153 136 143 146 147 144 148 143 142 146 140 153 139 130 142 151 131 131 146 141 149 154 131 130 137 139 139 133 157 165 132 136 136 145 136 141 132 138 141 143 149 140 137 141 148 136 147 143 145 155 158 130 74 71 65 36 40 36 38 22 26 8 43 19 32 36 37 27 45 46 64 41 5 20 17
56 69 67 38 52 68 126 142 147 143 138 140 150 142 135 150 157 141 146 143 139 146 140 141 153 160 153 144 142 147 146 136 150 146 145 149 146 149 143 153 150 139 145 141 148 154 134 140 138 141 145 145 146 145 153 162 142 137 140 147 147 166 152 148 143 156 162 150 143 138 141 150 158 157 150 156 151 159 151 143 138 140 136 150 143 142 145 144 143 139 153 144 133 147 142 142 145 146 138 138 137 142 141 151 152 162 157 140 138 142 142 147 149 142 137 139 153 137 141 145 153 146 142 142 132 100 46 23 87 37 45 49 36 54 52 27 30 27 18 29 52 26 22 49 31 35 49 16 43 41
67 40 64 96 137 153 155 154 154 149 149 151 160 160 160 151 146 153 155 150 145 149 150 151 152 150 156 143 143 148 147 167 159 141 149 142 152 151 151 151 160 154 141 140 153 152 145 154 153 148 149 163 154 141 147 153 146 147 158 144 145 163 148 152 152 164 161 144 156 152 142 143 143 157 158 154 157 150 147 160 150 160 163 155 140 150 142 149 156 165 154 145 142 152 147 153 146 149 151 144 147 151 149 140 167 156 152 150 145 145 144 150 151 148 153 153 167 150 149 156 143 146 154 134 61 33 40 30 40 38 18 28 41 22 27 39 25 31 27 53 32 42 24 28 17 6 37 8 10 34
72 82 145 164 159 156 146 157 168 149 150 167 159 160 154 168 163 158 156 150 145 154 159 163 164 150 161 156 145 158 159 174 156 154 146 148 159 151 155 144 156 157 157 157 163 146 154 157 166 168 152 150 152 162 162 144 145 156 149 148 157 163 155 150 155 143 145 151 155 145 149 148 155 165 159 146 154 147 147 153 161 158 148 154 159 155 158 148 172 177 155 148 152 160 163 156 151 161 161 162 148 161 164 142 155 148 150 149 148 161 157 153 151 147 158 151 172 159 169 159 144 144 100 71 14 22 20 29 31 19 24 40 29 44 12 32 31 55 58 47 16 17 45 13 14 19 48 3 29 56
