P2
# testes/result-multiplicar2.pgm
150 100
255
164 163 163 166 166 166 166 166 166 164 163 162 162 159 146 146 146 146 146 145 146 146 145 145 145 145 146 136 129 131 132 134 136 138 140 141 142 143 143 144 141 127 127 127 125 125 125 126 128 130 132 135 138 142 129 121 124 124 124 125 126 126 125 124 124 123 123 117 99 99 96 95 92 89 87 84 84 83 81 80 80 68 61 62 61 61 61 63 64 65 66 67 70 73 70 57 57 58 58 58 58 58 59 58 57 56 57 58 43 35 37 36 36 36 36 36 36 37 37 37 38 34 18 19 19 20 20 20 20 20 20 20 20 19 20 5 0 0 0 0 0 0 0 0 0 0 0 0 0 0 
164 164 166 167 167 167 167 167 167 166 166 164 164 159 146 148 148 148 147 147 147 146 145 146 145 145 146 137 130 132 132 136 137 139 142 143 144 145 145 146 143 128 129 129 127 127 127 128 130 131 133 136 139 144 130 123 124 126 127 127 126 126 126 125 125 124 123 118 101 99 97 96 93 91 87 84 84 83 82 81 80 68 62 62 61 61 61 63 64 65 66 68 70 73 70 57 57 58 58 58 58 59 59 58 58 55 58 57 43 34 37 36 37 36 36 37 37 37 37 37 38 34 18 19 19 20 20 20 20 20 20 20 20 19 20 5 0 0 0 0 0 0 0 0 0 0 0 0 0 0 
166 166 167 167 167 168 170 168 168 168 168 167 167 162 150 151 151 151 148 148 149 148 147 146 146 146 147 137 130 132 133 136 138 141 143 145 146 147 147 148 145 130 130 130 129 128 128 129 130 132 134 137 139 144 130 123 125 126 127 127 127 127 127 126 126 124 124 118 101 99 98 96 94 92 89 85 84 83 82 81 81 69 62 62 62 61 62 64 64 65 66 68 70 73 70 57 57 58 58 58 58 59 57 59 56 51 47 50 42 36 36 36 37 37 37 37 37 37 37 37 38 34 19 19 19 20 20 20 20 20 20 20 20 19 20 5 0 0 0 0 0 0 0 0 0 0 0 0 0 0 
168 168 168 168 168 171 172 175 172 172 170 170 170 165 152 152 152 152 152 151 149 149 148 147 147 148 150 137 131 133 136 138 140 143 144 146 147 148 149 149 146 130 131 131 130 130 130 130 130 132 136 138 140 144 131 123 126 127 127 127 128 128 127 127 126 124 124 119 101 99 98 96 94 92 89 86 85 84 82 81 82 69 62 62 62 62 62 64 64 65 66 68 71 74 71 57 58 58 59 59 59 58 60 54 37 28 27 33 23 25 33 38 35 36 37 37 37 37 37 38 39 34 19 19 20 20 20 20 20 20 20 20 20 20 20 5 0 0 0 0 0 0 0 0 0 0 0 0 0 0 
168 168 170 171 172 175 177 180 178 177 175 175 173 167 154 155 155 155 154 153 153 151 151 149 148 148 151 138 132 136 137 139 142 144 146 147 148 149 150 151 148 132 133 132 131 131 131 131 132 134 136 138 141 145 131 123 127 127 127 128 129 128 127 127 127 125 126 120 101 101 99 97 94 93 90 86 85 84 82 82 82 69 62 63 63 61 62 64 64 66 67 69 71 74 71 57 58 58 59 59 58 62 46 37 39 34 28 18 7 9 13 28 35 37 37 37 37 37 38 38 39 34 19 20 20 20 20 20 20 20 20 20 20 20 20 5 0 0 0 0 0 0 0 0 0 0 0 0 0 0 
168 170 173 175 177 180 182 183 182 181 180 180 178 173 160 160 160 160 159 157 155 153 152 151 148 148 151 140 133 137 138 140 144 146 148 148 150 151 151 152 150 133 134 133 132 132 133 132 133 135 137 138 141 145 132 125 127 128 128 129 129 128 128 128 127 126 126 121 103 101 99 98 96 94 91 88 85 84 84 83 84 70 62 63 63 62 63 64 65 66 68 69 72 75 72 58 58 58 59 59 59 46 39 39 26 18 17 11 13 9 11 10 19 36 37 37 37 38 38 38 39 35 19 20 20 20 20 20 20 20 20 20 20 20 20 5 0 0 0 0 0 0 0 0 0 0 0 0 0 0 
171 173 176 178 181 183 186 187 186 185 183 183 183 177 164 164 164 163 162 160 159 156 154 152 149 149 152 142 134 138 140 142 146 149 150 151 151 152 153 155 151 135 134 134 134 133 133 133 135 136 138 140 142 146 133 125 128 129 130 130 130 130 130 129 129 127 127 122 103 101 100 99 96 94 92 89 86 85 84 84 84 71 63 64 63 63 63 64 65 66 68 70 73 75 72 58 58 59 59 61 43 33 26 22 18 19 19 16 11 9 14 13 10 17 36 38 37 38 38 38 39 35 19 20 20 20 20 20 20 20 20 20 20 20 20 5 0 0 0 0 0 0 0 0 0 0 0 0 0 0 
176 177 180 182 185 186 189 190 190 189 189 187 186 181 167 168 168 167 164 163 162 160 157 154 152 152 154 143 136 140 143 146 148 150 152 152 153 153 154 157 153 137 137 136 135 135 135 135 137 138 138 141 143 147 133 126 128 130 130 130 130 130 130 129 129 128 127 122 103 103 100 99 97 95 93 90 87 84 84 83 84 71 64 65 64 64 63 64 65 66 69 71 74 76 73 58 59 59 61 51 34 27 21 25 18 18 16 11 9 9 12 15 14 12 16 37 37 38 38 38 39 35 19 20 20 20 20 20 20 20 20 20 20 20 20 5 0 0 0 0 0 0 0 0 0 0 0 0 0 0 
178 181 183 185 187 189 191 192 191 191 191 190 190 185 170 170 169 169 168 167 164 163 160 157 155 153 154 143 137 141 144 147 150 152 153 154 154 154 156 157 153 137 137 137 136 136 136 136 137 138 139 141 145 149 135 127 129 130 130 130 130 130 130 130 130 129 127 123 104 103 101 99 98 96 93 91 87 85 84 83 84 71 64 65 64 64 64 64 65 67 69 71 74 76 73 58 58 59 58 38 26 22 16 16 16 18 16 18 13 10 11 14 14 14 11 21 39 38 38 38 39 35 19 20 20 20 20 20 20 20 20 20 20 20 20 5 0 0 0 0 0 0 0 0 0 0 0 0 0 0 
181 183 186 187 190 191 194 195 195 194 194 192 192 186 173 173 172 171 171 169 167 165 163 160 157 155 156 145 139 144 145 148 152 153 154 154 156 156 156 158 154 138 138 138 137 137 137 137 137 138 140 143 146 150 135 127 130 130 131 131 132 132 131 130 130 129 128 123 105 103 101 100 98 96 94 92 89 85 84 84 85 71 64 65 65 65 64 64 66 67 69 72 74 76 73 58 58 59 47 21 19 20 20 22 26 19 17 19 12 9 10 10 12 15 17 12 24 40 38 39 40 35 19 20 20 20 20 20 20 20 20 20 20 20 20 6 0 0 0 0 0 0 0 0 0 0 0 0 0 0 
185 186 187 190 191 194 196 196 197 196 196 195 194 188 174 175 173 173 172 171 170 168 165 163 159 157 159 147 141 145 147 150 153 154 155 155 156 157 157 159 156 139 139 138 138 138 138 137 138 139 141 144 146 150 135 127 130 130 131 132 132 132 132 130 130 130 129 124 105 103 102 100 99 97 95 92 89 85 84 84 85 72 64 65 65 64 64 65 66 67 69 72 74 76 73 58 60 57 28 11 27 24 15 16 26 25 24 20 17 11 8 8 10 17 19 17 12 34 39 38 40 35 19 20 20 20 20 20 20 20 20 20 20 20 20 6 0 0 0 0 0 0 0 0 0 0 0 0 0 0 
187 189 190 191 194 195 197 199 197 197 197 196 196 191 175 176 175 175 175 173 171 170 168 164 161 159 161 149 142 147 148 150 153 154 155 156 156 157 158 160 156 139 139 139 138 138 138 138 138 139 141 144 146 150 136 127 130 131 131 132 132 132 132 131 130 130 130 124 105 103 102 100 99 97 95 92 89 87 85 84 85 72 64 65 65 64 64 65 66 68 69 72 74 76 73 58 58 45 14 28 34 22 9 19 27 22 30 45 29 18 9 6 9 19 23 23 15 19 40 38 40 35 19 20 20 20 20 20 20 20 20 20 20 20 20 6 0 0 0 0 0 0 0 0 0 0 0 0 0 0 
189 190 191 194 195 197 199 200 200 199 199 199 199 192 176 177 177 177 176 173 172 172 170 167 163 161 162 151 143 148 150 152 154 156 156 156 158 159 159 160 156 139 139 139 139 138 139 139 139 140 142 145 147 151 137 128 131 132 132 133 133 133 133 132 131 130 130 125 106 104 102 101 99 98 95 93 91 87 85 84 84 72 64 65 65 64 65 65 66 68 70 72 74 77 73 60 51 30 18 27 23 17 18 24 30 32 42 41 26 21 12 6 8 20 27 26 19 12 35 39 39 35 19 20 20 20 20 20 20 20 20 20 20 20 20 6 0 0 0 0 0 0 0 0 0 0 0 0 0 0 
190 192 194 196 197 200 200 200 200 200 200 200 200 194 178 179 178 178 177 176 175 173 171 169 165 163 165 152 145 149 150 152 154 156 157 157 158 158 159 160 157 140 140 140 139 139 139 139 140 141 143 146 148 152 137 128 131 133 132 133 133 133 133 133 132 130 130 125 106 105 102 101 99 98 96 94 91 87 85 84 85 72 64 65 65 65 65 65 66 68 70 72 74 76 72 60 41 29 19 25 23 16 24 49 44 42 44 23 17 15 8 8 9 19 27 25 23 15 33 40 39 35 19 20 20 20 20 20 20 20 20 20 20 20 20 6 0 0 0 0 0 0 0 0 0 0 0 0 0 0 
191 194 195 197 197 200 201 202 202 202 201 201 201 196 180 179 179 179 178 177 175 173 172 171 168 165 166 154 146 149 151 152 154 156 157 158 159 159 159 161 158 141 141 141 140 139 139 139 140 141 143 146 148 152 137 129 131 133 133 133 133 133 133 133 133 131 131 126 106 105 103 101 99 98 96 94 91 88 85 84 86 72 64 65 65 65 65 65 66 68 70 73 74 75 73 51 28 21 19 27 18 23 44 51 47 49 32 20 24 8 8 6 12 21 26 24 23 16 27 41 39 35 19 20 20 20 20 20 20 20 20 20 20 20 20 6 0 0 0 0 0 0 0 0 0 0 0 0 0 0 
192 194 196 199 200 200 204 205 205 205 204 204 202 196 181 180 180 180 179 177 176 175 173 172 170 165 168 156 146 150 153 153 155 157 157 158 160 160 160 162 159 142 142 142 142 140 140 140 141 142 143 146 149 153 138 130 132 133 133 133 134 134 133 133 132 132 131 126 106 105 103 101 100 98 96 94 92 89 86 84 86 72 64 65 65 65 65 65 66 69 70 73 73 72 70 37 21 18 21 31 27 44 56 49 50 42 26 41 21 13 8 9 15 22 25 22 22 20 19 38 40 35 19 20 20 20 20 20 20 21 21 20 20 20 20 6 0 0 0 0 0 0 0 0 0 0 0 0 0 0 
194 196 197 199 201 204 204 206 206 206 206 205 205 198 183 184 181 180 180 179 178 177 175 173 171 169 169 156 148 152 153 154 156 157 158 160 161 161 160 162 160 143 142 142 142 141 141 141 142 143 144 147 150 153 139 130 132 133 133 135 135 135 134 133 133 132 131 126 106 105 104 102 101 99 96 95 92 89 86 84 86 72 64 65 65 65 64 65 66 69 71 74 74 64 52 23 19 21 31 36 26 54 52 48 42 23 41 40 23 9 7 12 17 22 22 19 24 28 14 26 42 35 19 20 20 20 20 20 20 21 21 21 20 20 20 6 0 0 0 0 0 0 0 0 0 0 0 0 0 0 
196 197 199 201 202 204 206 209 208 208 208 208 208 201 185 186 184 183 180 180 179 178 176 173 173 171 170 158 150 154 154 155 156 158 160 160 162 162 162 163 159 143 143 142 142 142 142 142 142 143 145 147 150 153 139 131 133 133 133 135 135 135 135 133 133 132 131 126 107 106 104 102 101 99 97 96 92 89 85 85 85 72 65 66 66 66 66 64 66 64 64 62 59 35 39 17 25 27 32 29 43 45 49 55 29 44 44 32 12 3 6 11 17 21 21 20 23 33 21 11 40 35 19 20 20 20 20 20 20 21 21 21 20 20 20 6 0 0 0 0 0 0 0 0 0 0 0 0 0 0 
197 199 199 201 204 205 208 209 210 210 210 210 210 203 187 187 186 184 183 181 180 179 178 176 173 171 173 160 151 154 155 157 158 159 161 161 162 163 164 165 161 144 145 145 143 142 142 142 143 144 146 147 151 154 139 131 134 135 135 135 135 135 135 134 133 133 133 127 108 106 105 103 101 99 98 96 92 85 77 71 68 71 60 49 45 58 48 26 27 22 23 19 14 26 40 16 29 25 27 39 54 44 53 38 41 55 37 19 8 10 11 16 21 20 19 21 25 35 25 3 33 36 19 20 20 20 20 20 20 21 20 20 20 20 20 6 0 0 0 0 0 0 0 0 0 0 0 0 0 0 
199 201 202 204 206 208 210 211 213 213 213 213 211 206 190 189 187 186 184 183 180 179 179 177 175 173 175 160 153 155 157 158 159 160 161 162 163 163 164 165 161 143 144 144 142 142 143 143 144 144 146 148 152 155 140 132 134 135 136 136 136 136 136 135 133 133 132 127 108 106 105 103 101 99 98 96 92 73 56 32 29 34 29 18 9 13 6 2 7 8 4 3 12 35 29 14 32 20 22 54 42 37 32 36 56 45 24 15 9 9 10 13 17 17 19 24 34 37 30 5 26 37 19 20 20 20 20 20 20 21 21 21 20 20 20 6 0 0 0 0 0 0 0 0 0 0 0 0 0 0 
200 202 202 204 206 209 211 214 215 215 215 215 214 208 192 192 189 187 185 184 181 180 179 177 176 173 175 161 154 156 157 158 159 160 161 162 163 163 164 166 165 152 150 149 149 147 146 143 143 144 146 149 152 155 140 132 134 135 136 136 136 136 136 135 133 133 132 127 108 106 105 103 101 99 99 98 83 38 12 5 9 3 5 8 4 0 0 6 12 6 3 11 11 30 23 18 23 14 36 37 37 45 44 54 47 33 18 16 11 7 10 11 12 15 18 23 37 40 35 9 21 37 19 20 20 20 20 20 20 21 21 21 20 20 20 6 0 0 0 0 0 0 0 0 0 0 0 0 0 0 
201 202 204 206 208 210 213 215 216 216 216 216 216 210 194 193 191 188 187 185 184 181 180 178 176 176 177 163 154 156 157 159 159 161 161 163 164 164 161 157 125 101 114 118 120 127 134 146 151 149 146 146 151 154 140 132 134 135 136 137 137 137 136 135 133 133 131 126 107 105 105 103 102 98 89 71 36 23 9 7 4 7 10 11 5 1 3 8 8 1 7 26 18 32 16 14 22 22 35 44 47 34 35 40 33 22 22 23 12 7 12 16 15 14 16 24 40 39 23 4 16 36 18 20 20 20 20 20 20 21 21 20 20 20 20 6 0 0 0 0 0 0 0 0 0 0 0 0 0 0 
202 204 205 208 210 213 215 216 219 219 219 219 218 212 195 195 193 191 189 186 184 183 180 179 177 177 177 163 154 157 159 159 160 161 162 162 162 165 152 75 67 98 88 76 69 75 72 79 105 121 147 154 155 153 137 131 133 135 136 136 137 136 136 135 133 133 129 123 107 103 105 101 76 54 33 12 12 19 18 9 5 16 12 8 3 1 11 16 4 3 11 21 29 28 11 13 23 17 27 31 21 29 46 36 21 26 20 11 8 10 10 8 6 11 20 29 39 17 7 10 10 25 17 19 20 20 20 20 20 20 20 21 20 20 20 6 0 0 0 0 0 0 0 0 0 0 0 0 0 0 
202 205 208 208 210 213 216 219 220 220 220 220 219 212 195 196 195 193 191 188 186 183 180 179 178 177 177 163 154 158 159 159 160 161 163 164 163 159 98 89 103 63 66 55 57 65 65 48 47 43 62 89 130 151 141 131 130 134 135 136 135 135 133 133 130 130 116 107 96 101 93 69 29 8 0 14 20 15 13 1 13 13 23 9 2 0 7 12 3 9 26 18 28 19 7 6 12 18 23 26 38 36 26 25 30 32 23 22 16 10 5 4 10 15 26 36 34 13 24 31 13 12 18 20 20 20 20 20 20 20 20 21 20 20 20 6 0 0 0 0 0 0 0 0 0 0 0 0 0 0 
204 205 208 210 211 214 216 220 222 222 220 222 222 214 198 197 196 195 193 191 187 184 181 180 179 177 178 165 155 158 159 160 161 162 163 164 165 150 100 88 53 60 70 64 77 70 68 55 38 40 31 22 32 54 87 120 128 137 137 135 134 135 135 130 125 121 85 60 42 50 24 12 19 37 10 2 22 22 8 3 1 11 19 7 1 18 17 7 1 15 35 13 32 16 5 6 6 4 11 32 37 39 44 45 51 50 52 48 35 24 20 21 21 18 25 25 25 26 24 27 24 11 18 20 20 20 20 20 20 21 21 21 20 20 20 6 0 0 0 0 0 0 0 0 0 0 0 0 0 0 
205 206 208 210 214 216 219 222 223 223 223 224 223 217 200 200 199 196 194 192 188 185 183 181 179 178 180 166 156 159 160 161 162 163 164 164 169 138 59 45 71 66 61 55 53 58 56 73 75 54 48 37 31 24 27 34 52 74 114 118 133 124 123 98 74 81 39 25 15 21 8 1 12 29 17 0 30 24 13 31 5 16 12 1 6 22 18 8 4 17 15 9 41 10 8 5 6 6 14 29 29 31 38 46 49 54 49 35 24 20 26 29 25 25 25 13 11 22 21 12 23 13 14 20 20 20 20 20 20 21 21 20 20 20 21 6 0 0 0 0 0 0 0 0 0 0 0 0 0 0 
205 208 210 213 215 218 220 224 224 225 225 225 224 218 201 201 199 197 195 193 191 187 184 181 180 178 180 166 156 159 160 161 162 162 164 165 172 141 47 52 65 44 52 61 72 54 66 81 81 79 81 75 62 49 26 17 24 24 25 21 38 47 42 33 27 39 32 20 15 15 35 3 15 21 15 3 14 26 40 43 28 22 18 3 23 27 18 11 2 8 9 2 40 30 5 7 9 7 12 33 36 30 40 45 55 50 47 55 39 34 34 29 19 21 21 9 12 15 25 15 11 9 11 20 20 20 20 20 20 21 21 20 20 20 21 6 0 0 0 0 0 0 0 0 0 0 0 0 0 0 
206 209 210 214 216 219 222 224 227 228 227 227 227 220 202 202 200 199 196 194 192 188 185 183 180 179 181 166 157 160 160 162 162 164 165 166 171 148 63 54 57 48 52 93 74 73 74 89 88 70 79 86 74 57 41 30 27 28 28 23 7 4 10 19 22 33 27 14 6 27 34 10 3 38 24 1 31 39 43 19 15 13 34 6 29 27 16 10 5 21 10 3 20 37 7 11 13 9 21 36 37 36 38 57 59 53 50 45 29 25 18 13 5 17 17 13 21 21 23 20 15 3 12 20 20 20 20 20 20 21 21 21 20 20 21 6 0 0 0 0 0 0 0 0 0 0 0 0 0 0 
208 210 213 215 218 220 224 225 228 228 228 228 228 222 205 204 202 200 199 196 193 191 187 185 183 180 182 168 158 161 160 162 163 165 166 168 170 164 78 44 53 40 69 75 73 73 81 95 85 86 82 87 88 97 73 47 28 13 18 24 38 25 3 8 18 12 33 31 6 19 29 9 1 29 30 7 30 25 7 6 3 3 11 9 22 12 4 10 27 40 18 3 8 31 14 14 18 8 29 20 18 25 37 34 33 43 37 34 29 27 24 14 11 18 10 11 24 23 19 23 14 0 13 21 20 20 20 20 20 21 21 21 20 20 21 6 0 0 0 0 0 0 0 0 0 0 0 0 0 0 
209 211 215 216 220 222 225 228 230 230 229 229 230 223 206 205 204 202 199 197 195 192 188 185 183 180 182 168 158 161 162 163 165 166 168 169 168 166 99 54 51 46 72 56 72 70 105 117 122 113 92 105 108 99 89 84 70 44 26 21 19 36 38 11 0 6 21 41 20 7 21 10 13 39 24 19 35 10 1 5 12 6 8 21 27 9 3 19 43 30 18 10 12 33 12 9 19 19 30 27 28 21 25 23 26 24 15 14 12 9 7 10 13 8 7 12 18 16 19 19 10 3 15 20 20 20 20 20 20 21 21 21 20 20 21 6 0 0 0 0 0 0 0 0 0 0 0 0 0 0 
210 213 216 218 222 224 227 229 232 233 232 232 232 224 207 208 205 203 200 199 196 193 189 186 183 181 183 169 159 161 162 163 165 167 169 169 168 171 111 71 51 54 44 65 67 89 109 107 109 94 107 133 111 95 89 73 68 58 49 22 16 9 28 45 26 0 8 28 26 14 8 3 15 43 50 22 19 8 6 1 3 5 20 39 39 11 10 32 36 23 28 28 26 30 24 14 26 34 29 34 23 26 35 41 34 40 34 26 11 8 18 20 8 5 11 15 18 13 12 13 9 9 12 18 20 20 20 20 20 20 21 21 20 20 21 6 0 0 0 0 0 0 0 0 0 0 0 0 0 0 
211 214 216 220 223 225 229 230 233 234 233 233 234 227 209 208 205 203 202 200 197 194 192 188 184 181 183 169 160 162 163 164 165 167 169 171 170 176 123 57 54 51 47 61 55 78 90 81 105 104 150 134 105 86 89 95 94 81 83 63 44 19 15 26 44 29 0 8 13 18 7 7 15 26 38 26 31 9 17 31 28 19 14 41 28 3 13 35 18 31 25 30 21 31 24 24 33 41 31 32 14 25 26 22 30 33 35 37 27 19 32 20 5 7 12 22 18 10 12 10 9 4 6 18 20 20 20 20 20 21 21 21 20 20 21 6 0 0 0 0 0 0 0 0 0 0 0 0 0 0 
213 215 216 220 224 227 229 232 234 234 234 235 234 228 209 210 208 205 203 201 199 196 193 188 184 181 183 169 160 162 163 164 165 167 169 171 172 175 162 84 61 57 60 62 50 69 82 88 101 148 154 113 106 152 136 100 104 106 88 60 46 28 12 22 25 54 32 0 8 15 18 43 21 22 48 59 51 24 33 28 49 14 8 40 35 1 11 23 12 26 15 28 27 17 23 16 22 36 39 29 10 18 17 21 28 38 31 46 35 29 28 28 8 11 22 22 15 9 13 9 8 0 4 17 20 20 20 20 20 21 21 21 20 20 21 6 0 0 0 0 0 0 0 0 0 0 0 0 0 0 
213 215 219 222 225 228 232 234 237 237 237 237 237 229 211 211 208 205 204 202 199 196 194 189 185 183 183 170 160 162 163 164 166 167 169 172 173 173 179 132 79 60 66 80 84 96 110 121 154 169 160 153 174 153 114 109 106 89 84 73 41 33 19 11 19 36 68 11 3 28 34 60 39 8 26 68 45 13 41 28 29 25 29 35 30 21 25 24 18 29 17 16 26 17 25 14 13 32 36 22 4 19 24 48 36 43 42 58 33 22 29 25 11 31 23 15 8 5 8 8 6 2 0 11 20 19 20 20 20 21 21 21 20 20 21 6 0 0 0 0 0 0 0 0 0 0 0 0 0 0 
214 218 220 223 227 229 233 235 239 238 238 238 238 231 214 211 210 208 205 203 201 197 195 191 186 184 184 170 160 163 164 164 167 168 171 172 174 174 179 165 73 62 86 86 92 98 117 161 160 151 154 146 127 117 118 102 86 102 94 75 58 38 22 14 19 29 67 20 10 22 19 52 34 15 13 46 53 22 30 23 28 26 47 36 21 35 26 34 40 26 26 21 22 29 13 10 17 29 20 10 17 25 29 27 37 43 35 41 24 26 29 21 33 22 11 18 11 8 4 6 8 4 0 6 18 20 20 20 20 21 21 21 20 20 21 6 0 0 0 0 0 0 0 0 0 0 0 0 0 0 
214 218 222 225 228 230 234 237 239 239 239 239 239 233 214 213 211 209 207 204 202 199 195 192 187 184 184 170 160 163 164 164 167 168 171 172 174 176 175 182 126 58 66 73 95 105 120 131 112 122 126 119 104 104 108 101 114 106 88 86 63 44 34 22 25 28 41 24 17 25 17 42 25 28 22 24 48 31 12 11 23 23 54 53 2 31 32 28 27 38 23 25 24 26 16 15 13 18 17 13 29 16 7 17 31 14 24 32 29 25 17 21 18 18 31 28 12 2 2 4 6 3 2 3 16 20 20 20 20 21 21 21 20 20 21 6 0 0 0 0 0 0 0 0 0 0 0 0 0 0 
216 220 222 225 229 232 235 238 241 242 241 241 241 234 216 215 212 210 208 205 202 200 196 193 188 184 185 171 161 163 165 165 167 169 171 173 175 176 177 178 176 81 60 74 80 89 97 105 97 108 120 111 89 112 128 114 115 111 104 84 57 44 45 31 20 25 31 30 42 52 38 33 49 64 17 15 43 52 15 23 31 34 46 49 5 20 34 28 19 21 28 24 21 15 13 18 18 13 13 16 19 14 11 19 15 14 24 18 18 12 8 13 21 28 23 10 3 2 3 5 7 7 2 2 14 20 20 20 20 21 21 21 21 20 21 6 0 0 0 0 0 0 0 0 0 0 0 0 0 0 
216 220 224 227 230 233 235 239 242 243 243 243 242 235 217 216 213 212 210 207 203 201 197 194 189 185 186 172 161 163 165 166 168 170 171 173 174 176 178 178 182 127 53 65 80 75 89 89 97 104 97 99 121 153 130 119 111 118 106 78 41 41 51 47 31 22 44 45 45 50 38 45 40 42 8 13 34 47 7 23 35 35 48 52 22 0 15 28 29 20 30 31 18 15 13 7 15 14 14 7 15 19 14 19 20 14 15 14 9 10 6 11 14 18 8 10 12 5 8 8 7 7 2 3 15 19 20 20 20 21 21 21 21 20 21 6 0 0 0 0 0 0 0 0 0 0 0 0 0 0 
219 222 225 229 232 234 237 241 243 243 243 243 243 235 217 217 215 212 210 208 205 202 200 195 191 186 186 172 162 164 165 166 168 171 173 174 175 176 177 178 176 156 78 59 81 90 99 100 103 100 100 120 131 144 146 121 101 117 95 66 57 52 52 66 61 36 32 53 43 28 46 45 53 20 5 14 42 30 25 41 46 41 26 42 32 12 15 31 29 25 22 11 17 25 16 21 18 22 31 12 13 21 13 15 11 9 16 15 10 13 14 8 11 9 10 24 22 15 4 6 4 2 1 3 14 18 19 20 20 21 21 21 21 20 21 6 0 0 0 0 0 0 0 0 0 0 0 0 0 0 
220 223 228 229 233 235 239 242 244 246 246 246 244 236 218 218 216 213 211 209 207 203 200 196 192 188 188 173 163 165 166 167 169 171 173 174 176 178 178 179 174 160 141 78 82 105 116 119 91 91 113 126 138 158 133 123 124 111 76 56 60 75 86 79 80 45 30 32 42 39 40 39 23 28 7 10 47 41 33 45 30 37 24 28 27 7 18 25 25 27 34 19 14 25 27 24 11 20 30 16 26 21 16 19 14 19 12 10 21 14 10 6 4 3 18 20 14 21 16 11 3 1 0 2 13 19 20 20 20 21 21 21 21 20 21 6 0 0 0 0 0 0 0 0 0 0 0 0 0 0 
220 224 228 232 234 237 241 243 247 248 248 248 246 239 221 220 217 215 213 211 209 205 201 197 193 189 188 173 163 165 166 168 169 172 173 175 177 178 180 181 178 158 160 114 85 102 122 135 117 110 121 128 149 143 103 138 136 97 60 46 61 92 98 78 54 45 42 37 48 40 34 38 20 25 17 17 36 57 41 43 23 51 39 35 42 12 12 34 32 22 34 36 34 26 22 27 21 14 13 15 31 16 12 27 27 27 9 21 20 12 7 4 6 10 13 11 15 18 22 16 8 4 0 2 14 19 20 20 21 21 21 21 21 20 21 6 0 0 0 0 0 0 0 0 0 0 0 0 0 0 
223 227 230 233 235 238 241 243 247 248 248 248 247 240 222 219 218 216 213 211 209 205 201 197 193 189 188 173 163 165 166 168 169 172 173 176 177 178 180 181 177 157 162 130 88 96 97 109 144 143 125 134 136 103 153 132 119 99 94 82 74 85 104 89 55 66 76 29 38 40 41 56 39 24 15 8 38 39 41 40 39 61 35 40 36 30 14 38 28 27 35 35 26 25 22 27 26 16 14 21 26 11 13 21 24 25 14 22 20 7 6 11 12 16 15 12 18 19 17 14 20 13 1 1 9 16 18 20 21 21 21 21 21 20 21 6 0 0 0 0 0 0 0 0 0 0 0 0 0 0 
224 228 230 233 237 239 243 246 247 249 249 249 249 241 223 223 219 217 215 212 210 207 203 199 194 191 189 173 164 166 166 168 170 172 174 176 177 179 180 182 178 159 160 148 46 41 39 51 128 139 123 128 97 157 141 123 102 101 99 102 95 79 102 87 51 42 58 27 24 52 47 47 29 24 15 16 40 15 35 54 29 56 28 26 51 39 16 11 17 25 34 34 16 19 33 18 22 16 31 18 26 17 15 23 37 27 19 27 14 7 10 12 10 14 17 17 18 22 14 17 19 8 2 0 4 14 17 20 21 21 21 21 21 20 21 6 0 0 0 0 0 0 0 0 0 0 0 0 0 0 
225 229 232 234 237 241 244 247 248 251 251 251 251 243 224 223 219 218 217 215 211 208 203 199 195 192 190 174 165 167 167 169 170 172 174 176 178 179 180 183 179 160 157 165 68 9 62 123 106 78 105 83 88 137 118 105 110 116 108 79 75 86 92 87 51 27 52 31 33 42 25 31 38 35 31 38 53 46 10 46 43 54 41 53 60 56 24 16 23 23 38 42 23 24 32 18 19 23 29 24 32 13 27 25 30 39 14 12 14 14 11 9 14 10 12 13 21 16 13 12 10 7 4 2 3 12 19 20 20 21 21 21 21 20 21 6 0 0 0 0 0 0 0 0 0 0 0 0 0 0 
225 229 232 235 238 242 244 247 249 251 251 252 252 244 224 223 220 218 217 216 212 209 204 201 196 192 190 175 165 167 167 169 170 172 174 176 178 179 180 183 179 160 157 165 102 8 72 121 80 79 51 32 94 104 104 102 117 117 112 118 117 102 80 61 63 43 44 55 14 31 24 37 37 40 45 44 38 61 24 31 40 63 30 51 69 50 32 17 14 18 32 35 29 37 25 14 8 18 27 26 31 17 26 29 33 32 12 26 24 10 11 10 11 11 10 12 19 18 14 9 11 6 3 3 1 7 17 18 20 21 21 21 21 20 21 6 0 0 0 0 0 0 0 0 0 0 0 0 0 0 
227 230 233 237 241 243 246 248 251 252 252 252 252 244 225 225 223 220 218 216 213 210 205 202 199 193 191 176 165 167 168 168 170 172 174 177 178 180 180 183 180 161 159 162 144 17 62 111 59 35 16 82 95 134 112 106 117 111 106 117 112 92 73 49 46 44 15 29 35 27 55 22 26 26 42 69 58 71 42 38 34 51 26 33 47 52 53 26 18 20 29 27 20 31 31 8 13 15 37 25 16 11 30 31 21 17 27 34 24 20 17 13 13 13 7 12 14 16 13 9 10 5 1 1 1 4 14 18 20 21 21 21 21 20 21 6 0 0 0 0 0 0 0 0 0 0 0 0 0 0 
226 230 232 236 240 241 245 247 250 251 251 251 251 244 225 223 221 220 217 215 213 208 204 200 197 191 191 175 166 167 167 168 170 172 174 177 178 179 180 183 179 160 159 157 163 77 45 93 46 24 56 72 89 102 87 94 100 114 103 95 90 44 25 40 43 40 37 34 43 49 35 26 33 28 47 68 58 57 48 25 29 37 36 38 41 38 53 46 36 25 28 28 26 33 33 15 27 29 26 12 5 20 29 22 33 38 38 32 24 13 11 9 9 12 13 9 11 12 16 14 8 4 2 2 0 3 16 21 21 22 22 23 22 22 23 7 1 1 1 1 1 1 1 1 1 1 1 1 1 1 
228 232 235 238 243 244 247 249 252 255 255 255 255 255 235 235 232 228 227 224 222 220 215 211 206 200 199 182 171 173 173 174 176 178 180 183 185 185 188 190 185 164 164 164 164 154 81 104 80 57 77 70 71 88 114 105 89 101 109 97 91 70 60 39 31 30 57 51 37 53 19 36 26 21 46 56 42 54 50 30 37 32 25 9 18 18 30 50 32 28 15 22 19 20 21 29 45 26 14 0 17 21 20 27 37 25 26 23 17 6 9 6 9 13 18 13 14 15 11 9 5 1 1 0 0 3 11 12 13 14 14 14 14 14 15 0 0 0 0 0 0 0 0 0 0 0 0 0 0 0 
57 58 59 60 61 61 62 63 64 64 64 64 64 70 78 76 75 74 73 73 72 71 70 68 67 65 65 73 74 73 73 73 74 75 76 77 78 79 79 79 85 93 93 92 92 93 80 65 55 48 51 52 29 33 65 98 101 89 74 65 51 37 42 48 48 34 47 44 38 37 57 37 34 25 66 64 31 36 56 40 30 38 56 32 18 16 16 56 50 36 46 18 24 16 33 55 98 52 17 15 36 29 51 34 53 66 63 87 76 70 51 44 61 61 71 75 71 42 28 17 14 11 7 6 2 13 72 122 138 141 147 147 146 144 142 139 146 142 136 131 126 121 114 110 106 103 103 107 113 118 
0 0 0 0 0 0 0 0 0 0 0 0 0 0 18 15 14 14 14 14 14 13 13 13 13 12 12 31 36 35 35 35 36 36 37 37 38 38 38 37 47 66 65 65 65 64 63 52 43 39 35 36 33 37 57 78 78 72 47 26 33 36 33 38 47 36 26 19 43 41 48 53 29 39 61 64 20 20 57 35 20 44 66 61 41 10 22 52 87 52 39 16 10 13 29 44 102 65 23 18 25 53 54 77 103 95 91 78 77 90 65 64 56 97 92 74 53 27 27 15 20 11 5 7 7 10 104 170 179 194 199 199 197 195 191 194 196 191 182 176 170 162 153 147 142 138 138 143 150 158 
2 2 2 2 2 2 2 2 3 3 3 3 3 14 30 28 27 27 27 26 26 26 25 25 24 24 23 41 45 44 44 44 44 45 45 46 47 47 47 46 55 71 71 71 71 70 70 64 44 26 29 29 29 41 68 74 72 73 51 15 13 19 36 56 43 32 51 28 47 59 56 51 24 32 49 62 12 5 59 53 32 40 60 77 65 7 33 62 66 71 34 13 4 4 11 46 84 64 34 23 48 56 46 63 83 74 80 95 112 98 52 57 88 65 37 32 34 36 24 13 17 21 13 2 7 6 68 140 170 186 184 187 188 184 180 183 194 189 180 174 168 160 151 145 140 136 136 141 149 156 
0 0 0 0 0 0 0 0 0 0 0 0 0 11 28 26 25 25 25 24 24 24 23 23 23 22 22 39 43 42 42 42 43 43 44 44 45 45 46 44 53 71 70 70 70 69 68 67 49 32 29 18 12 13 26 51 59 50 38 21 9 35 30 31 43 45 45 49 57 64 56 38 45 15 57 63 34 2 50 42 35 36 37 82 66 19 37 82 70 71 54 13 8 0 3 48 69 86 53 58 81 81 81 56 65 83 97 97 73 51 36 53 58 20 20 6 7 13 20 15 12 16 14 13 6 2 42 133 175 180 187 189 188 186 182 185 196 190 182 176 170 162 153 145 142 138 138 143 150 158 
0 0 0 0 0 0 0 0 0 0 0 0 0 11 28 26 25 25 25 25 24 24 23 23 23 22 22 39 43 42 42 42 43 43 44 44 45 45 45 44 54 71 70 70 70 70 69 68 62 34 17 19 12 18 30 45 52 37 25 37 24 28 56 32 44 55 42 36 54 52 33 24 57 38 34 70 63 17 34 37 36 24 24 72 103 40 32 68 84 69 71 33 7 2 2 13 76 103 68 65 74 75 75 77 95 80 67 47 30 16 12 21 53 37 10 7 3 1 1 5 8 10 23 18 5 2 46 135 161 181 187 187 188 186 182 185 196 191 183 176 170 163 154 147 142 138 139 144 152 159 
0 0 0 0 0 0 0 0 0 0 0 0 0 11 28 26 25 25 25 25 24 24 23 23 23 22 22 39 43 42 42 42 43 43 44 44 45 45 45 44 54 71 70 70 70 70 70 68 67 43 10 19 19 16 26 57 54 51 30 23 26 31 59 60 37 36 34 54 59 55 43 14 17 48 36 56 74 25 29 36 39 9 8 42 102 64 44 79 104 86 72 41 12 3 3 6 65 99 73 71 88 61 40 70 69 65 35 29 49 40 55 98 106 85 65 33 17 6 4 5 5 7 15 8 3 2 30 102 168 184 184 188 188 187 182 185 196 191 183 176 170 163 156 147 142 139 139 144 152 159 
0 0 0 0 0 0 0 0 0 0 0 0 0 11 28 26 26 25 25 25 24 24 24 23 23 22 22 39 43 42 42 42 43 43 44 44 45 45 46 44 54 71 70 70 70 70 70 68 69 65 35 19 15 7 33 67 70 59 37 29 50 46 50 64 33 32 35 47 80 57 45 33 4 12 25 53 71 36 17 53 45 3 23 28 75 65 29 82 99 62 66 48 29 3 4 2 57 84 73 97 56 19 16 28 28 18 8 47 112 126 144 145 119 116 53 24 18 19 10 7 6 5 4 2 2 3 30 122 165 177 186 191 189 187 183 185 196 191 185 176 170 163 157 148 143 139 139 144 153 159 
0 0 0 0 0 0 0 0 0 0 0 0 0 11 28 26 26 25 25 25 24 24 24 23 23 22 22 39 43 42 42 42 43 43 44 45 45 45 46 44 54 71 70 70 70 70 70 70 68 65 45 24 16 18 42 62 49 40 36 31 61 54 44 50 44 42 39 46 63 67 33 30 19 1 14 63 71 47 8 57 49 32 37 51 72 84 60 35 86 72 65 56 25 7 2 3 42 78 65 24 6 18 21 0 2 14 6 51 140 152 151 133 83 64 43 28 15 18 14 8 4 2 1 2 3 1 35 127 163 181 188 186 187 187 183 186 196 192 186 177 171 164 157 149 144 139 139 144 152 159 
0 0 0 0 0 0 0 0 0 0 0 0 0 11 28 26 26 25 25 25 24 24 24 23 23 22 22 39 43 42 42 42 43 43 44 45 45 45 46 44 54 71 70 70 70 70 70 70 69 67 44 16 11 15 43 63 40 48 50 39 54 43 50 53 41 46 34 46 70 57 50 27 10 3 3 50 64 69 24 42 42 50 43 55 63 64 73 45 57 87 54 48 47 16 13 13 47 53 11 48 25 0 15 19 4 20 11 70 153 163 149 96 79 71 49 51 19 13 17 15 15 11 6 2 3 4 25 91 156 172 180 186 188 186 183 186 196 192 186 178 172 164 157 149 144 140 142 145 153 159 
0 0 0 0 0 0 0 0 0 0 0 0 0 11 28 26 26 25 25 25 24 24 24 23 23 22 22 39 43 42 42 42 43 43 44 45 45 46 46 44 54 71 71 71 71 70 70 69 68 66 52 14 14 29 45 53 42 50 50 39 44 42 36 40 35 32 28 15 45 53 52 33 13 3 0 30 66 73 40 32 40 49 41 44 58 57 67 61 36 63 59 51 57 46 38 24 20 0 0 2 0 1 0 2 5 38 24 99 169 162 114 82 80 57 71 55 23 15 17 16 20 19 14 9 10 8 11 81 156 179 188 188 187 187 184 187 197 194 186 178 172 164 158 150 145 142 142 147 154 161 
0 0 0 0 0 0 0 0 0 0 0 0 0 11 28 26 26 26 25 25 25 24 24 23 23 22 22 40 43 43 43 43 43 44 44 45 45 46 46 44 54 72 71 71 71 70 70 69 68 66 57 27 16 39 54 45 52 63 48 50 42 42 57 45 54 34 27 23 33 64 74 44 14 7 3 36 64 67 66 49 61 54 40 50 66 55 58 51 48 45 39 53 56 61 50 15 0 1 1 0 1 0 2 0 21 67 30 118 172 160 92 54 72 59 54 44 22 20 16 22 18 19 23 18 13 5 38 141 177 181 181 185 187 186 183 185 195 190 183 178 172 166 158 152 147 143 143 147 154 161 
0 0 0 0 0 0 0 0 0 0 0 0 0 11 28 26 26 26 25 25 25 24 24 23 23 22 22 40 43 43 43 43 43 44 44 45 45 46 46 44 54 72 71 71 71 70 70 70 70 68 66 57 27 34 62 55 71 56 26 40 57 58 58 55 63 73 49 37 44 47 77 64 21 4 2 17 47 61 54 57 50 51 36 39 46 46 51 50 52 32 35 47 74 75 47 0 0 2 0 0 2 2 2 0 53 59 45 143 155 113 66 54 48 46 37 18 25 15 16 30 19 20 22 19 20 16 37 116 153 163 181 189 187 184 182 185 199 194 187 180 172 167 159 152 147 143 143 147 154 161 
0 0 0 0 0 0 0 0 0 0 0 0 0 11 28 26 26 26 25 25 25 24 24 24 23 22 22 40 44 43 43 43 43 44 44 45 45 46 46 45 54 72 71 71 71 70 70 70 70 70 70 68 46 35 49 59 60 51 42 44 51 53 58 69 63 65 50 40 57 82 78 75 50 15 3 6 42 56 42 31 49 49 50 50 47 48 60 75 47 33 35 47 87 86 44 0 1 8 17 3 0 0 0 29 60 32 120 146 127 80 39 23 73 74 4 9 25 25 33 50 34 31 33 27 26 14 20 85 148 176 184 187 187 186 182 185 197 192 186 180 172 167 159 152 147 143 144 148 154 161 
0 0 0 0 0 0 0 0 0 0 0 0 0 11 29 26 26 26 26 25 25 24 24 24 23 22 22 40 44 43 43 43 43 44 45 45 45 46 46 45 54 72 71 71 70 71 71 71 71 71 70 72 63 37 44 72 64 69 52 38 42 40 50 73 66 48 40 45 59 70 82 82 69 33 1 5 36 52 38 25 36 64 48 57 66 54 50 51 52 29 38 64 96 105 48 0 0 8 26 42 32 28 43 48 6 82 151 129 102 44 53 59 72 41 29 27 27 28 30 39 34 27 33 21 6 6 45 121 175 187 188 188 186 185 182 185 195 192 185 177 172 166 158 152 147 144 144 149 156 162 
0 0 0 0 0 0 0 0 0 0 0 0 0 11 29 26 26 26 26 25 25 24 24 24 23 22 22 40 44 43 43 43 43 44 45 45 45 46 46 45 54 72 71 71 71 71 71 71 71 71 70 70 61 30 36 53 55 63 58 47 36 54 67 80 57 49 42 39 59 59 58 63 66 57 34 32 45 33 38 38 33 64 52 42 59 56 58 54 55 34 35 75 111 128 58 0 1 0 15 37 61 64 28 0 78 148 94 59 60 47 68 69 36 72 41 26 17 11 15 25 27 26 16 10 21 30 35 99 156 176 185 188 189 187 183 186 196 191 185 177 172 166 157 152 148 144 144 149 156 162 
0 0 0 0 0 0 0 0 0 0 0 0 0 11 29 26 26 26 26 25 25 24 24 24 23 22 22 40 44 43 43 43 43 44 44 45 46 46 46 45 54 72 71 72 72 71 71 71 71 71 71 70 62 46 31 31 58 63 68 51 41 45 53 48 50 35 25 21 20 4 0 0 38 22 29 41 56 70 63 63 45 42 43 49 60 60 54 50 52 50 32 72 121 139 58 0 2 2 2 1 6 14 25 89 145 105 89 71 69 94 93 91 74 65 18 10 19 15 11 9 3 6 20 34 24 8 27 121 168 181 188 189 189 187 184 186 197 194 187 178 172 167 159 153 148 144 144 148 156 163 
0 0 0 0 0 0 0 0 0 0 0 0 0 11 29 26 26 26 26 25 25 25 24 24 23 23 22 40 44 43 43 43 43 44 44 45 46 46 46 45 54 72 72 72 72 71 71 71 71 71 70 70 69 60 40 31 50 62 71 64 42 29 30 15 24 38 14 7 10 8 1 1 1 0 0 0 0 17 79 106 85 59 60 53 66 66 54 54 54 63 45 70 122 136 51 0 3 2 46 104 105 130 151 159 84 74 83 89 109 105 76 91 74 29 15 17 8 5 1 5 24 32 24 6 3 4 30 117 159 178 185 187 186 184 182 186 199 194 187 181 173 167 159 153 148 145 145 149 157 163 
0 0 0 0 0 0 0 0 0 0 0 0 0 11 29 26 26 26 26 25 25 25 24 24 23 23 22 40 44 43 43 43 43 44 44 45 46 46 47 45 54 72 72 72 72 71 71 71 71 71 71 70 68 51 23 38 32 51 57 35 24 17 8 16 48 77 25 1 23 17 0 1 1 1 2 2 3 11 15 103 123 103 75 65 61 66 57 40 51 61 48 57 111 118 28 0 8 2 48 149 184 184 160 92 65 87 69 74 73 45 42 23 15 18 19 10 5 10 36 47 32 9 1 5 10 9 22 94 154 179 184 187 187 186 185 189 200 195 191 181 173 168 159 153 148 145 145 149 157 163 
0 0 0 0 0 0 0 0 0 0 0 0 0 11 29 27 26 26 26 26 25 25 24 24 23 23 22 40 44 43 43 43 43 44 45 45 46 46 46 45 55 72 72 72 72 71 71 71 71 71 71 70 69 59 28 30 39 42 29 15 23 44 56 65 78 93 60 3 15 35 14 0 1 1 2 0 9 35 7 47 131 130 93 77 53 62 72 49 54 79 76 51 71 102 26 0 18 21 40 109 173 160 105 78 70 94 74 101 66 68 44 15 23 32 19 14 15 40 44 24 9 7 8 5 0 1 24 75 124 154 163 171 176 179 178 181 195 191 187 181 173 168 162 154 150 147 145 149 157 163 
0 0 0 0 0 0 0 0 0 0 0 0 0 11 29 27 26 26 26 26 25 25 24 24 23 23 22 40 44 43 43 43 44 44 45 45 46 46 47 45 54 73 72 72 72 72 71 71 72 72 72 72 71 69 53 33 42 28 5 10 46 76 82 79 85 96 95 35 0 33 47 16 0 0 0 4 44 38 5 5 97 138 102 64 56 50 62 51 48 60 64 66 61 62 21 0 10 40 54 95 114 89 97 102 96 108 98 72 64 59 49 35 16 10 13 8 12 17 12 14 8 2 0 12 44 65 60 35 24 50 97 137 157 168 167 170 185 183 181 177 173 168 161 154 150 148 148 150 157 163 
0 0 0 0 0 0 0 0 0 0 0 0 0 11 29 27 26 26 26 26 25 25 24 24 23 23 22 40 44 43 43 43 44 44 45 45 46 46 47 45 54 73 72 72 72 72 71 71 72 72 72 72 72 71 75 47 41 29 13 13 60 81 75 70 90 103 100 81 22 3 45 70 35 22 27 59 68 17 4 0 32 130 100 73 69 57 61 66 58 47 51 55 55 49 32 2 6 36 75 101 103 122 103 97 91 97 113 59 55 61 33 33 33 18 10 7 10 15 13 3 5 24 57 68 51 19 0 0 1 5 21 38 60 92 125 151 167 175 178 175 173 168 161 154 150 147 148 154 158 166 
0 0 0 0 0 0 0 0 0 0 0 0 0 11 29 27 26 26 26 26 25 25 24 24 23 23 22 40 44 43 43 43 44 44 45 45 46 46 47 45 55 73 72 72 72 72 72 72 72 72 72 72 72 71 86 70 32 18 11 20 60 66 54 44 70 84 89 104 100 39 11 21 33 29 28 28 1 5 9 5 4 76 110 86 65 49 47 62 56 48 45 42 39 32 30 22 16 41 70 81 100 124 98 106 104 86 73 53 32 40 49 34 13 3 11 16 9 5 20 47 63 57 34 10 1 2 4 2 1 2 0 0 0 25 95 149 176 180 177 173 171 167 161 156 150 145 148 150 157 167 
0 0 0 0 0 0 0 0 0 0 0 0 0 11 29 27 26 26 26 26 25 25 24 24 23 23 22 40 45 43 43 43 44 44 45 46 46 46 47 45 55 73 72 73 72 72 72 72 72 72 72 73 73 72 88 94 69 20 5 11 52 62 42 51 53 45 61 82 115 115 82 49 20 10 8 14 54 75 20 15 5 27 92 91 54 44 44 47 46 47 48 33 30 24 18 28 34 29 48 70 66 96 97 113 104 73 58 63 63 70 37 6 14 23 16 3 19 58 75 52 27 12 11 16 12 8 5 4 3 2 2 2 2 5 36 86 120 137 145 158 162 162 159 156 150 144 149 149 157 166 
0 0 0 0 0 0 0 0 0 0 0 0 0 11 29 27 26 26 26 26 25 25 24 24 24 23 22 40 45 43 43 43 44 44 45 46 46 46 47 45 55 73 72 73 72 72 72 72 72 72 72 73 73 72 87 92 87 46 16 39 45 47 54 43 19 10 17 27 56 80 90 106 94 96 97 109 129 111 35 33 6 9 67 61 48 52 56 47 56 54 52 35 33 20 12 8 15 40 30 70 98 93 99 96 97 89 72 82 53 37 18 21 20 10 20 61 81 54 27 15 17 11 3 2 1 1 0 0 0 1 1 2 1 1 0 0 16 74 123 156 162 162 158 153 147 144 148 148 158 163 
0 0 0 0 0 0 0 0 0 0 0 0 0 11 29 27 27 26 26 26 25 25 25 24 24 23 22 40 45 44 44 44 44 44 45 46 46 46 47 45 55 73 73 73 73 72 72 72 72 72 72 72 73 72 88 97 95 85 49 43 45 34 47 55 48 31 18 35 33 36 38 54 68 79 97 120 127 106 52 26 8 19 60 46 41 70 75 53 60 61 53 49 38 23 11 7 12 50 53 48 97 98 91 90 76 77 53 55 21 17 20 14 14 36 62 38 8 8 20 27 28 43 47 45 40 29 28 24 18 9 2 0 0 1 2 3 3 12 43 102 139 150 148 148 140 143 148 147 154 166 
0 0 0 0 0 0 0 0 0 0 0 0 0 11 29 27 27 26 26 26 26 25 25 24 24 23 22 40 45 44 44 44 44 44 45 46 46 46 47 46 55 73 73 73 73 72 72 72 72 72 72 73 73 72 89 98 96 92 76 56 66 59 27 42 70 50 38 51 42 45 57 48 54 49 42 60 83 84 66 42 23 29 50 39 47 70 62 62 61 60 54 45 30 21 14 12 31 37 54 105 115 104 88 74 88 73 53 36 71 120 106 60 26 9 11 25 47 56 55 53 47 38 26 24 29 34 32 25 26 27 29 20 8 0 0 2 3 5 3 29 82 115 130 138 134 140 147 135 156 166 
0 0 0 0 0 0 0 0 0 0 0 0 0 11 29 27 27 26 26 26 26 25 25 24 24 23 22 40 45 44 44 44 44 44 45 46 46 46 47 46 55 73 73 73 73 72 72 72 72 72 72 73 73 72 90 98 97 95 89 78 77 80 69 42 43 59 45 43 45 41 56 64 54 45 61 61 64 70 61 45 28 50 47 25 50 63 62 70 73 67 52 45 31 16 9 7 16 29 69 83 79 86 59 41 92 74 26 70 142 135 79 43 45 52 57 57 42 31 24 20 17 18 24 12 5 6 10 12 6 3 2 13 22 18 4 0 6 8 5 3 12 49 101 135 131 142 139 126 159 167 
0 0 0 0 0 0 0 0 0 0 0 0 0 11 29 27 27 26 26 26 26 25 25 24 24 23 23 41 45 44 44 44 44 44 45 46 46 47 47 46 55 73 73 73 73 72 72 72 72 72 73 73 73 72 91 99 97 95 90 86 80 82 79 56 29 37 29 33 60 64 51 63 50 64 53 57 55 70 62 42 33 51 13 22 43 48 68 70 79 69 51 51 33 13 8 12 21 40 74 84 105 108 99 98 41 45 102 134 135 113 83 72 63 55 49 43 45 36 30 30 28 22 24 34 33 22 17 12 14 14 12 2 8 11 31 39 31 32 2 5 3 15 49 101 130 148 138 137 156 164 
0 0 0 0 0 0 0 0 0 0 0 0 0 11 29 27 27 26 26 26 26 25 25 24 24 23 23 41 45 44 44 44 44 44 45 46 46 47 47 46 55 74 73 73 73 73 72 72 72 72 72 73 73 73 92 100 98 98 97 93 86 63 59 54 45 47 38 42 58 57 75 65 63 80 59 66 66 63 54 49 45 56 26 20 32 54 61 70 79 70 60 50 37 16 6 23 22 58 110 120 137 132 93 77 52 124 131 88 75 99 77 41 45 44 49 38 44 41 39 36 32 21 20 17 11 8 18 13 5 10 14 17 34 2 36 62 58 53 24 7 7 31 15 39 87 125 128 131 143 153 
0 0 0 0 0 0 0 0 0 0 0 0 0 11 29 27 27 26 26 26 26 25 25 24 24 23 23 41 45 44 44 44 44 44 45 46 46 47 47 46 55 74 73 73 73 73 72 72 72 72 72 73 73 73 92 99 99 99 98 93 90 64 27 15 12 14 45 39 25 43 44 41 47 54 70 77 73 69 61 64 50 58 43 12 19 46 52 63 79 79 66 55 38 22 11 29 15 92 154 140 144 72 41 115 136 122 81 54 86 99 45 17 21 26 30 22 15 12 5 3 5 3 15 12 18 1 11 19 24 8 0 6 34 22 51 30 69 43 20 8 27 35 20 27 38 78 77 116 161 140 
0 0 0 0 0 0 0 0 0 0 0 0 0 11 29 27 27 26 26 26 26 25 25 24 24 23 23 41 45 44 44 44 44 44 45 46 46 47 47 46 55 74 73 73 73 73 72 72 72 72 72 73 74 73 91 100 99 98 98 96 91 83 53 19 11 13 33 33 44 43 54 37 54 67 63 82 73 67 66 66 76 68 57 26 16 35 51 68 73 80 76 70 47 24 14 9 8 135 169 176 167 130 141 136 99 65 71 81 86 48 42 48 32 29 34 29 23 17 27 18 11 16 52 45 34 8 13 22 34 16 30 36 21 40 38 22 72 52 29 40 40 62 15 38 52 26 31 112 139 101 
0 0 0 0 0 0 0 0 0 0 0 0 0 11 29 27 27 27 26 26 26 25 25 24 24 23 23 41 45 44 44 44 44 45 45 46 46 47 47 46 56 74 73 73 73 73 73 73 72 72 73 73 73 72 92 100 99 99 99 99 97 93 82 57 32 31 54 45 36 24 29 38 54 66 80 78 85 83 96 104 100 91 70 43 27 33 62 78 83 87 81 63 34 11 8 0 50 185 188 184 179 163 122 93 59 84 92 53 36 47 42 51 53 41 41 32 36 32 16 17 23 27 35 77 44 27 30 43 65 32 37 52 21 33 9 66 58 11 43 73 45 52 29 60 52 64 77 93 81 73 
0 0 0 0 0 0 0 0 0 0 0 0 0 11 29 27 27 27 26 26 26 25 25 24 24 23 23 41 45 44 44 44 44 45 45 46 46 47 47 46 56 74 73 73 73 73 73 73 72 73 73 73 73 73 92 100 100 100 99 98 97 96 92 81 65 56 58 65 73 62 63 78 87 88 93 84 94 94 74 82 96 110 126 76 38 28 47 70 71 59 53 20 11 9 10 0 119 203 191 179 150 91 80 133 146 117 71 22 36 13 5 18 11 6 0 0 1 38 20 15 3 22 6 56 58 54 44 42 70 37 17 53 34 16 39 69 20 34 92 69 48 67 53 60 85 95 98 85 92 90 
0 0 0 0 0 0 0 0 0 0 0 0 0 11 29 27 27 26 26 26 26 25 25 24 24 23 23 41 45 44 44 44 44 45 45 46 46 47 47 46 56 74 73 73 73 73 73 72 73 73 73 73 73 73 92 100 100 100 98 97 96 94 91 85 81 68 59 73 91 69 61 76 101 107 88 74 70 77 43 76 114 131 147 131 62 15 15 19 15 26 25 18 18 10 0 61 184 187 173 148 122 150 160 153 128 70 67 50 61 71 49 46 51 24 30 23 7 4 27 46 52 44 30 41 51 38 62 36 67 28 57 112 48 22 71 62 24 81 111 59 65 105 55 91 76 41 82 77 91 48 
0 0 0 0 0 0 0 0 0 0 0 0 0 11 29 27 27 27 26 26 26 25 25 24 24 23 23 41 46 44 44 44 44 45 45 46 46 47 47 46 56 74 73 73 73 73 72 73 73 72 72 73 74 73 92 100 99 99 98 98 97 95 89 86 78 79 86 86 84 65 58 47 65 99 77 65 56 55 82 97 84 131 162 162 149 73 12 7 19 21 25 27 15 0 17 157 191 177 159 162 173 183 157 114 69 62 35 17 17 30 25 10 29 44 33 60 49 17 26 27 63 72 48 62 46 35 61 56 54 38 109 139 64 80 67 56 77 114 60 60 112 92 63 76 57 85 109 97 49 48 
0 0 0 0 0 0 0 0 0 0 0 0 0 11 29 27 27 27 26 26 26 25 25 24 24 23 23 41 46 44 44 44 44 45 45 46 46 47 47 46 56 74 73 73 73 73 73 73 73 72 73 73 74 73 92 99 99 99 99 98 92 75 73 76 75 84 90 92 110 101 82 69 71 81 109 101 82 77 64 78 60 135 171 170 171 170 133 50 8 22 16 14 14 0 76 183 172 172 177 173 144 109 95 101 95 55 25 29 46 39 34 29 12 26 21 51 43 33 54 40 44 42 38 85 50 65 72 68 65 41 85 101 78 94 48 89 104 77 48 58 87 76 55 55 76 123 77 62 71 43 
0 0 0 0 0 0 0 0 0 0 0 0 0 11 29 27 27 27 26 26 26 26 25 25 24 23 23 41 45 44 44 44 44 45 45 46 46 47 47 46 56 74 73 73 73 73 73 73 72 72 73 73 73 73 91 100 99 99 98 93 76 56 65 81 82 78 78 86 101 93 97 96 95 100 117 130 130 128 126 126 122 145 165 173 167 169 172 160 76 9 12 7 8 5 116 183 174 175 163 133 132 126 103 71 61 73 70 28 17 61 61 45 16 20 38 50 25 43 42 34 63 47 33 81 42 99 92 96 105 50 74 81 98 74 48 112 96 43 52 64 72 88 53 54 63 57 44 57 64 40 
0 0 0 0 0 0 0 0 0 0 0 0 0 11 29 27 27 27 26 26 26 26 25 25 24 24 23 41 45 44 44 44 44 45 45 46 46 47 47 46 56 74 73 73 73 73 72 73 73 73 72 72 73 74 92 100 99 97 94 77 53 57 69 64 66 69 75 87 105 102 91 85 64 77 115 118 80 84 83 66 95 101 138 143 160 168 163 163 162 89 9 0 0 13 123 154 154 146 122 110 108 90 68 35 61 31 42 60 31 26 47 37 34 48 36 53 43 33 29 40 78 44 48 75 45 113 97 99 59 89 80 80 104 75 76 90 72 41 45 78 43 63 57 55 43 46 53 43 49 30 
0 0 0 0 0 0 0 0 0 0 0 0 0 11 29 27 27 27 26 26 26 26 25 25 24 24 23 41 45 44 44 44 44 45 45 46 46 47 47 46 56 74 73 73 73 73 73 73 72 72 73 73 74 73 92 100 98 95 85 58 37 53 61 53 54 54 55 59 63 65 77 80 87 82 92 91 94 98 90 86 102 110 136 152 159 162 163 159 155 157 87 17 4 41 93 113 122 111 89 60 25 32 57 56 30 48 9 36 38 37 33 39 42 58 57 41 50 63 32 57 75 73 73 63 65 119 81 78 57 81 99 60 86 70 37 49 41 50 63 62 39 44 50 45 35 39 39 32 21 16 
0 0 0 0 0 0 0 0 0 0 0 0 0 11 29 27 27 27 26 26 26 26 25 25 24 24 23 41 45 44 44 44 44 45 45 46 46 47 47 46 55 74 73 73 73 73 73 72 72 73 73 74 74 73 92 98 96 90 65 36 35 42 30 30 34 47 55 67 91 98 75 42 27 31 38 47 81 88 89 105 114 145 159 152 153 157 156 153 147 128 121 89 34 40 74 78 74 56 40 19 34 42 50 44 46 53 60 51 78 43 58 54 68 36 31 47 54 87 60 76 97 87 78 70 100 97 77 64 68 67 85 52 69 46 26 57 52 60 53 46 29 44 27 20 24 32 24 29 17 13 
0 0 0 0 0 0 0 0 0 0 0 0 0 11 29 27 27 27 27 26 26 26 25 25 24 24 23 41 46 44 44 44 44 45 45 46 46 47 47 46 55 74 73 73 73 73 72 73 73 73 73 74 74 73 91 97 97 87 59 45 45 27 18 18 34 61 82 88 95 77 62 54 65 80 94 94 82 57 44 78 95 110 115 125 133 137 133 136 133 102 92 66 37 22 54 76 61 51 63 92 88 105 82 49 48 35 38 61 81 65 63 78 50 45 45 53 82 65 56 95 99 95 97 91 96 78 86 70 86 68 41 80 66 56 44 55 45 40 32 21 22 26 25 29 17 25 25 20 20 10 
0 0 0 0 0 0 0 0 0 0 0 0 0 11 29 27 27 27 27 26 26 26 25 25 24 24 23 41 46 44 44 44 44 45 45 46 46 47 47 46 55 74 73 73 73 73 73 73 73 73 73 74 74 73 90 96 95 92 80 66 64 58 52 53 59 65 67 73 87 91 99 105 97 85 67 42 26 32 55 59 79 86 109 115 108 103 111 105 86 54 30 22 39 40 82 125 101 116 95 109 128 97 74 44 29 35 23 29 73 65 60 55 63 66 41 58 82 84 44 98 82 92 79 68 73 88 102 93 65 84 53 56 38 45 44 34 36 31 32 32 29 22 32 26 21 36 35 17 15 13 
0 0 0 0 0 0 0 0 0 0 0 0 0 11 29 27 27 27 27 26 26 26 25 25 24 24 23 41 46 44 44 44 44 45 45 46 46 47 47 46 56 74 73 74 73 73 73 73 73 73 73 72 73 74 91 95 92 92 89 87 81 82 86 87 81 81 80 78 92 105 110 89 64 45 35 25 38 54 30 15 25 63 82 83 79 74 63 48 36 38 48 51 69 83 91 144 139 154 139 125 105 51 23 10 14 38 56 39 66 63 59 61 71 69 59 99 86 65 72 102 94 88 61 74 92 91 85 51 41 41 61 59 40 40 46 45 39 46 34 30 35 29 26 12 13 22 24 17 17 20 
0 0 0 0 0 0 0 0 0 0 0 0 0 11 29 27 27 27 27 26 26 26 25 25 24 24 23 42 46 44 44 44 44 45 45 46 46 47 47 46 56 74 73 73 73 73 73 73 72 73 73 72 72 72 88 95 93 92 91 86 85 86 88 83 87 87 84 89 108 99 80 66 56 40 30 44 35 15 16 17 21 48 43 60 55 47 47 61 95 119 123 66 104 124 127 147 136 151 138 128 108 42 22 30 16 27 54 44 56 69 68 69 69 51 82 95 86 59 78 77 62 80 98 93 70 38 38 29 33 33 49 57 41 51 44 41 27 34 31 27 30 26 17 12 8 13 15 11 12 21 
0 0 0 0 0 0 0 0 0 0 0 0 0 11 29 27 27 27 27 26 26 26 25 25 24 24 23 42 46 44 44 44 44 45 45 46 46 47 47 46 56 74 73 73 73 73 73 73 73 72 72 73 73 71 86 90 88 89 87 86 85 84 83 84 87 85 82 85 97 86 77 61 42 31 40 34 26 21 20 19 30 27 23 12 12 18 33 72 109 133 114 114 136 119 121 147 98 92 115 109 87 56 16 18 45 43 41 63 67 87 81 75 69 59 61 72 55 55 60 46 63 61 70 62 46 29 37 36 40 32 50 45 28 38 38 29 17 16 20 25 24 19 10 16 15 12 15 15 10 10 
0 0 0 0 0 0 0 0 0 0 0 0 0 11 29 27 27 27 27 26 26 26 25 25 24 24 23 42 46 44 44 44 44 45 45 46 46 47 47 46 56 74 73 73 74 73 73 73 73 73 74 74 74 72 89 94 89 84 79 81 82 86 88 85 88 88 80 77 91 86 80 60 43 50 31 24 24 14 3 19 28 22 19 8 9 13 19 44 60 63 68 74 121 87 87 111 99 43 56 56 63 40 13 2 27 58 63 56 61 87 74 66 77 45 49 68 33 47 56 69 63 38 25 25 52 30 36 48 42 28 32 29 21 34 25 15 16 17 24 24 20 21 15 15 27 22 13 15 11 10 
0 0 0 0 0 0 0 0 0 0 0 0 0 11 29 27 27 27 27 26 26 26 25 25 24 24 23 42 46 44 44 44 44 45 45 46 46 47 47 46 56 74 74 74 74 74 73 73 73 73 73 74 74 72 87 92 91 88 84 78 77 77 80 80 86 87 82 85 94 74 56 47 54 41 29 24 23 18 14 27 31 25 11 6 8 19 27 25 15 34 38 53 81 60 49 73 60 41 33 33 28 37 22 11 26 36 64 44 33 58 55 69 68 47 62 72 47 68 39 48 40 35 33 28 38 25 24 24 20 19 24 17 13 21 22 11 19 19 25 30 26 26 35 21 24 26 15 13 10 10 
0 0 0 0 0 0 0 0 0 0 0 0 0 11 29 27 27 27 27 26 26 26 25 25 24 24 23 42 46 44 44 44 44 45 45 46 46 47 47 46 56 74 74 74 74 74 73 73 73 72 73 73 71 67 81 92 90 83 81 79 73 77 81 84 84 85 81 75 81 72 68 59 48 38 36 34 33 35 31 30 18 22 6 11 12 25 37 15 11 12 26 24 29 33 16 42 49 37 48 45 28 32 19 27 59 53 35 30 23 45 45 76 80 97 93 72 60 58 27 31 33 35 39 41 38 20 18 13 13 13 22 24 14 14 21 19 22 26 25 30 30 24 27 29 13 15 19 16 12 13 
0 0 0 0 0 0 0 0 0 0 0 0 0 11 30 27 27 27 27 26 26 26 25 25 24 24 23 42 46 44 44 44 44 45 45 46 46 47 47 46 56 74 74 74 74 74 73 73 73 72 72 72 68 55 62 69 71 76 78 75 72 77 78 80 81 83 77 69 87 78 66 57 45 49 48 40 37 24 20 19 10 21 10 22 21 28 21 12 12 19 26 19 25 28 40 27 32 46 36 55 46 28 21 27 35 55 30 27 25 64 74 89 113 127 98 57 49 34 22 28 29 26 35 39 32 24 30 27 29 20 12 21 25 24 22 23 25 24 20 22 26 25 25 21 8 10 24 27 30 25 
0 0 0 0 0 0 0 0 0 0 0 0 0 11 30 27 27 27 27 26 26 26 25 25 24 24 23 42 46 44 44 44 44 45 45 46 46 47 47 46 56 74 74 74 74 74 73 73 73 73 72 71 69 63 77 79 73 75 73 74 81 81 78 78 85 85 79 84 91 65 42 56 69 59 45 34 22 10 12 11 13 17 16 21 16 8 8 7 16 18 33 28 23 15 44 76 65 41 32 43 56 58 46 55 48 27 24 21 41 89 99 95 121 108 65 34 31 23 22 26 21 24 22 22 29 27 30 30 25 28 20 17 14 14 14 14 19 15 15 22 24 17 25 30 17 15 24 34 43 31 
0 0 0 0 0 0 0 0 0 0 0 0 0 11 30 27 27 27 27 26 26 26 25 25 24 24 23 42 46 44 44 44 44 45 45 46 46 47 47 46 56 74 74 74 74 74 73 73 73 73 73 74 72 68 86 93 94 91 82 76 76 83 83 86 90 89 81 78 81 69 73 72 59 47 24 8 7 8 9 11 11 9 10 7 6 8 3 7 8 13 20 31 49 47 37 51 74 53 40 57 66 50 48 43 35 19 32 30 65 103 96 56 46 66 48 20 20 31 35 30 22 22 23 34 41 33 26 19 19 13 12 12 10 5 11 16 13 11 22 26 22 20 27 32 29 24 27 40 40 30 
0 0 0 0 0 0 0 0 0 0 0 0 0 11 29 27 27 27 27 26 26 26 26 25 24 24 23 42 46 44 44 44 44 45 45 46 46 47 47 46 56 74 74 75 74 73 73 73 73 73 73 74 73 71 85 85 85 86 85 88 88 87 86 86 87 90 75 62 69 78 85 57 28 15 12 8 7 7 9 7 5 4 9 5 3 12 25 25 11 16 25 22 30 43 56 46 35 48 48 64 64 41 38 35 28 23 29 44 69 74 89 52 40 33 40 36 33 36 39 39 32 23 19 34 34 20 18 12 9 6 10 11 9 5 9 14 11 13 25 24 16 22 26 25 26 29 39 45 39 30 
