P2
# testes/result-script1_1.pgm
150 100
255
0 0 0 1 1 0 1 1 1 1 1 2 2 2 2 2 3 4 4 2 1 2 2 2 2 2 3 5 6 5 6 7 7 8 7 5 9 7 7 7 7 8 8 7 8 9 7 8 10 9 9 9 10 11 11 12 13 12 13 14 14 14 15 18 24 30 33 33 33 33 33 33 32 32 32 32 30 30 29 29 29 28 28 28 26 25 24 24 23 23 22 20 18 16 16 15 14 14 14 13 13 12 11 11 11 11 9 8 7 6 7 5 5 4 3 3 2 2 1 2 1 1 2 2 1 1 1 1 1 1 1 1 1 1 1 1 1 1 1 1 1 1 1 1 1 1 1 1 1 1 
0 0 0 1 1 1 1 1 1 1 1 1 2 2 1 1 2 4 4 2 1 2 2 2 2 2 3 4 5 5 6 7 7 7 6 5 8 7 7 7 7 8 8 8 8 8 8 9 9 9 9 10 10 11 11 13 14 17 15 15 15 15 18 22 34 35 35 34 34 34 34 34 34 34 34 33 33 33 33 32 30 30 29 29 29 27 27 27 26 26 26 23 22 19 18 18 16 15 16 14 14 13 12 12 11 10 10 9 8 8 7 6 5 5 5 3 2 2 1 2 1 1 2 1 1 1 1 1 2 1 1 1 1 1 1 1 1 1 1 1 1 1 1 1 1 1 1 1 1 1 
0 0 0 0 0 0 0 1 1 1 1 1 2 2 2 3 3 4 4 2 1 2 2 2 2 3 3 5 5 6 6 6 7 9 6 6 8 7 7 7 8 8 9 9 8 8 8 9 9 9 10 10 10 13 12 12 13 18 18 17 16 17 21 26 37 35 34 37 38 37 37 37 37 37 37 36 36 36 35 35 33 33 33 32 30 29 27 27 28 29 28 26 26 21 18 18 17 16 17 16 15 14 13 12 12 11 10 10 9 9 8 7 6 5 5 4 3 2 2 2 2 1 1 1 1 1 1 1 2 1 1 1 1 1 1 1 1 1 1 1 2 1 1 1 1 1 1 1 1 1 
0 0 0 0 0 0 1 1 1 1 1 1 2 1 2 2 3 3 3 1 2 2 2 2 2 3 4 6 7 6 6 6 8 8 6 6 10 8 7 7 9 8 9 9 8 8 9 10 11 10 9 10 11 12 13 14 14 15 17 16 17 19 23 27 29 24 35 40 41 41 40 40 40 40 40 40 37 37 37 37 36 36 35 35 31 31 30 29 28 28 28 28 24 21 19 18 19 17 17 17 16 17 16 14 14 12 11 11 10 10 9 8 6 5 4 4 3 2 2 2 2 2 1 1 1 1 1 1 1 1 1 1 1 1 1 1 1 1 1 1 2 2 1 1 1 1 1 1 1 1 
0 1 0 0 0 1 2 1 1 0 1 1 2 1 1 4 2 4 3 1 2 2 2 2 2 3 4 5 5 5 5 7 8 9 5 8 12 8 7 7 8 8 9 11 9 9 9 10 11 11 10 12 13 13 13 15 15 15 16 18 19 19 20 22 22 22 32 45 44 44 44 43 43 43 42 42 40 40 40 39 39 37 38 36 33 32 30 30 31 25 24 24 22 22 21 20 19 19 18 17 17 17 16 15 14 14 13 13 11 9 8 8 7 6 4 4 4 3 2 2 1 2 1 1 1 1 1 1 1 1 1 1 1 1 1 1 1 1 1 1 1 2 2 1 1 1 1 1 1 1 
0 1 0 0 0 1 2 1 1 0 1 1 1 1 1 2 3 4 3 1 2 2 2 2 2 3 4 4 5 5 5 6 7 9 5 11 15 7 7 7 8 8 9 11 10 10 10 10 11 11 12 12 13 14 15 15 16 18 17 18 21 20 22 24 24 26 41 48 46 45 48 48 47 47 46 46 44 44 42 42 43 42 40 38 35 34 32 32 31 28 27 26 25 24 25 21 21 21 19 18 18 18 17 16 14 14 13 12 11 11 9 9 8 6 4 4 3 3 2 2 2 1 1 1 1 1 1 1 1 1 1 1 1 1 1 1 1 1 1 1 1 2 2 2 1 1 1 1 1 1 
1 0 0 0 0 1 2 1 1 0 0 0 1 1 2 2 2 3 3 1 2 2 2 2 2 3 4 4 5 5 6 7 7 9 5 11 15 7 7 7 9 8 10 12 12 9 9 11 11 11 12 12 13 15 15 15 17 20 21 20 21 22 23 24 24 28 42 42 41 48 53 52 51 51 50 50 50 47 46 46 44 43 43 41 37 36 36 35 34 29 28 29 26 26 25 24 22 20 21 20 18 17 17 16 16 15 13 12 12 11 10 8 7 6 5 5 4 4 3 2 2 2 2 1 1 0 1 1 1 1 1 1 1 1 1 1 1 1 1 1 1 1 1 2 2 1 1 1 1 1 
1 1 0 0 0 0 1 2 1 1 1 0 1 1 1 1 3 3 2 1 2 2 2 2 2 3 4 4 5 6 7 7 7 9 5 10 11 7 7 7 8 8 11 14 13 10 10 12 12 12 12 14 14 16 16 17 18 20 21 21 23 23 24 25 26 28 31 42 52 57 57 57 57 56 54 54 54 53 52 50 49 47 45 42 40 39 38 37 35 31 32 29 27 26 25 25 24 23 23 21 20 19 18 18 17 16 14 13 12 12 11 8 7 7 6 5 4 4 3 3 3 2 2 1 1 0 1 1 1 1 1 1 1 0 0 1 0 1 1 1 1 1 1 3 2 1 1 1 1 1 
0 1 0 0 0 0 0 1 1 1 1 1 1 1 1 1 2 3 2 1 1 2 2 2 2 3 4 5 4 6 7 7 7 7 5 7 8 7 7 7 9 8 10 12 13 10 10 12 12 12 13 14 14 15 16 18 19 20 23 23 24 25 29 27 30 28 38 59 64 64 62 61 61 61 60 59 57 57 56 54 53 52 48 46 44 41 40 39 37 33 33 32 27 28 28 27 26 25 24 24 23 22 20 19 17 16 15 14 14 12 11 9 8 9 8 7 5 4 3 3 3 3 2 1 1 0 1 1 1 1 0 1 0 0 0 0 0 0 1 1 1 2 2 2 2 1 1 1 1 1 
0 1 1 0 0 0 1 0 1 1 1 1 1 1 1 2 1 2 2 1 1 1 2 2 2 3 4 4 4 4 6 7 8 6 4 9 9 7 7 8 9 9 10 11 12 10 11 12 14 14 14 14 15 17 17 18 20 22 24 23 26 28 31 32 31 34 50 54 53 56 58 65 69 68 66 64 63 61 61 60 57 56 53 51 45 44 43 44 39 34 32 31 32 30 29 29 28 27 26 25 24 24 21 21 19 17 16 16 14 12 11 10 9 8 7 7 6 5 4 3 3 3 1 1 1 1 1 1 1 1 0 1 1 0 0 0 0 0 0 0 1 1 2 1 1 1 1 1 1 1 
0 1 1 1 0 0 1 1 0 1 1 1 1 1 2 2 2 2 2 1 2 2 2 2 2 3 4 4 5 5 6 6 7 7 5 9 9 7 7 8 8 9 10 11 11 10 11 14 15 13 14 16 18 19 19 20 21 24 24 26 28 30 33 34 34 39 51 47 51 55 58 60 68 73 71 70 68 67 67 64 63 60 59 53 48 48 46 47 41 35 33 36 35 31 31 29 29 29 27 27 26 24 23 22 21 19 19 17 14 11 10 9 9 8 7 6 6 6 4 3 3 3 2 1 1 1 0 1 1 1 0 1 0 0 0 0 0 0 0 0 1 1 1 1 2 1 1 1 1 1 
0 0 1 1 0 0 1 0 0 0 0 1 1 1 2 2 2 3 2 1 1 2 2 2 2 3 4 4 5 5 6 6 7 7 5 8 8 6 7 8 9 9 10 11 12 10 12 13 13 14 15 15 17 20 20 22 24 25 27 26 29 30 34 38 40 45 56 53 50 50 52 60 75 79 77 75 74 71 70 70 67 63 58 52 52 50 48 47 41 38 35 36 36 32 33 31 29 29 29 29 27 27 26 25 24 21 19 18 17 12 10 10 10 8 8 7 6 6 5 5 4 3 2 3 1 1 1 1 1 1 0 1 1 0 0 0 0 0 0 0 0 0 1 2 2 1 1 1 1 1 
1 0 2 2 1 0 0 1 0 1 0 1 1 1 2 2 1 2 2 1 1 1 2 2 2 3 4 4 5 5 6 8 8 7 5 8 8 6 7 7 9 8 11 13 14 12 12 13 14 14 15 16 17 18 21 23 27 28 28 29 31 32 32 40 52 62 71 73 70 77 81 86 84 82 81 80 78 77 75 75 73 68 61 55 52 51 50 50 44 39 38 39 40 36 32 32 33 32 30 29 28 28 27 28 24 22 20 20 19 17 14 14 11 9 8 7 7 6 5 4 4 4 3 2 2 1 1 1 1 1 0 1 1 0 0 0 0 0 0 0 0 0 1 1 1 1 1 1 1 1 
0 0 1 2 2 1 0 0 1 0 1 1 1 1 1 2 2 1 1 1 1 1 2 2 2 3 4 4 4 5 6 8 9 7 5 8 8 6 7 8 9 9 10 11 13 12 12 14 16 16 16 18 18 20 22 24 26 28 29 30 32 31 32 43 58 63 65 87 91 88 82 85 88 88 87 85 84 81 80 78 77 72 64 57 53 53 52 50 44 43 40 39 41 35 35 35 35 34 31 30 30 30 28 25 26 26 23 21 19 17 16 14 11 9 9 9 7 7 6 5 4 3 3 3 2 1 1 1 1 1 0 1 0 0 0 0 0 0 0 0 0 0 1 1 1 1 1 1 1 1 
0 0 1 1 2 2 1 1 1 1 0 1 1 1 2 2 2 2 1 1 1 1 2 2 2 3 4 4 4 5 6 7 9 7 5 10 8 6 7 7 9 9 11 11 12 11 13 15 20 17 17 19 20 21 22 24 28 28 30 30 31 33 36 38 39 56 59 74 79 72 72 90 92 91 91 90 87 85 82 81 75 66 62 60 59 57 53 52 47 43 42 42 43 42 38 36 36 34 34 33 33 31 28 27 28 26 23 22 20 18 15 12 12 10 8 9 8 7 6 5 4 3 3 4 3 2 1 1 1 1 0 1 1 0 0 0 0 0 0 0 0 0 0 1 1 1 1 1 0 1 
1 1 1 1 2 1 1 0 0 1 0 1 1 1 2 2 2 2 1 1 1 1 2 2 2 3 4 5 4 5 6 7 9 7 6 12 9 6 7 7 9 9 11 11 12 13 13 16 17 18 18 19 22 23 23 24 27 29 30 33 34 34 37 36 50 69 67 67 60 72 91 100 97 95 93 92 91 89 87 86 79 66 64 62 59 59 57 56 54 50 47 47 44 45 40 39 38 37 36 36 34 31 31 30 28 26 25 23 21 20 17 15 13 11 10 9 8 7 6 7 6 5 5 4 3 2 1 1 1 1 0 1 1 0 0 0 0 0 0 0 0 0 0 1 1 1 1 1 0 1 
1 2 1 1 1 2 1 0 0 0 1 1 1 1 2 3 2 2 1 1 1 1 2 2 2 3 3 4 4 5 5 6 9 6 6 12 9 6 7 8 9 9 11 12 13 12 14 16 16 18 19 21 23 24 26 29 31 31 32 35 39 41 37 43 56 67 69 70 71 89 105 101 100 99 98 95 93 92 91 90 84 72 66 62 61 60 59 57 56 55 51 52 48 44 44 41 40 39 38 37 35 35 34 31 30 28 27 24 22 20 17 15 13 12 11 9 8 8 7 7 6 7 5 3 3 2 1 1 1 1 0 1 1 0 0 0 0 0 0 0 0 0 0 0 1 1 1 1 0 0 
1 2 1 1 1 2 2 0 1 1 1 1 1 1 1 2 2 2 1 1 1 1 1 2 3 3 4 4 5 6 7 8 9 5 6 12 8 7 7 8 9 9 12 13 13 13 15 16 18 19 21 22 24 27 26 31 35 34 35 37 41 45 43 42 45 50 51 69 99 112 107 106 105 102 99 98 96 95 92 90 87 76 67 65 65 63 62 58 47 49 46 44 45 44 43 45 44 41 40 39 37 36 37 34 31 30 28 25 23 20 19 17 15 13 12 10 9 9 8 7 6 7 5 4 3 2 2 1 1 1 0 1 1 0 0 0 0 0 0 0 0 0 0 0 1 1 1 1 1 1 
0 1 1 1 1 1 2 1 1 1 1 1 1 1 2 2 2 2 1 1 1 1 2 2 3 3 4 4 4 4 6 8 10 6 7 12 8 7 7 9 9 9 12 12 13 14 15 17 19 18 21 22 24 28 27 30 35 38 37 40 41 42 41 42 43 43 57 84 91 98 115 112 106 102 102 100 99 98 95 94 88 76 70 68 68 66 65 62 54 50 50 48 45 44 48 48 45 43 42 40 38 37 38 39 34 29 27 25 24 21 20 19 16 14 12 10 10 9 8 7 6 6 6 4 3 4 2 1 1 1 1 1 0 0 0 0 0 0 0 0 0 0 0 0 0 0 1 1 1 1 
0 0 1 1 1 1 1 2 1 1 2 1 1 1 1 2 2 2 1 1 1 1 1 2 3 3 4 5 4 4 5 7 10 5 8 10 7 7 8 9 11 11 13 13 13 15 15 17 20 20 21 24 24 27 28 31 34 37 41 41 41 45 42 44 53 60 78 80 70 79 95 87 84 93 106 102 101 99 97 96 85 76 71 68 67 67 66 63 62 61 55 50 51 54 48 46 46 44 43 41 40 39 39 40 34 29 28 26 24 22 21 19 17 14 12 11 11 9 8 7 6 6 5 4 3 3 2 2 1 1 0 1 1 0 0 0 0 0 0 0 0 0 0 0 0 1 1 0 0 1 
0 1 0 0 0 1 1 2 1 1 2 2 3 1 1 1 2 2 1 1 1 2 2 2 2 3 5 5 5 4 4 6 9 5 7 8 7 7 7 8 10 11 13 14 14 15 16 18 21 21 24 27 27 27 29 32 34 36 38 42 42 44 44 46 51 71 74 67 70 79 85 92 106 109 109 105 103 100 99 97 90 81 74 71 70 69 69 66 64 62 56 55 56 51 49 48 47 46 45 45 42 40 37 36 33 33 30 26 24 23 21 21 18 17 13 12 12 9 8 7 7 6 6 4 4 3 2 2 1 2 1 1 1 0 0 0 1 0 0 0 0 0 0 0 0 0 0 1 0 1 
0 1 1 0 0 1 1 1 1 1 2 3 3 2 1 1 2 2 1 1 1 1 2 2 2 3 5 5 4 5 5 5 8 5 8 9 7 7 7 8 9 11 12 13 14 16 17 18 21 21 22 25 30 32 32 34 35 41 43 42 43 45 44 46 47 62 77 77 73 81 95 105 113 103 108 106 104 103 99 93 87 83 75 73 70 70 70 67 66 61 58 56 51 52 52 50 53 50 48 47 43 41 40 37 36 34 31 29 27 24 23 20 20 17 14 13 11 10 9 7 6 7 6 4 4 3 2 2 2 2 1 1 1 0 0 0 0 0 0 1 0 0 0 0 0 0 0 1 0 1 
0 0 1 1 0 1 1 1 1 1 3 4 3 3 2 1 2 2 1 1 1 1 1 2 2 3 4 5 4 4 5 6 7 5 10 11 7 7 8 10 10 11 12 14 15 16 19 20 20 22 23 25 30 35 38 38 39 41 43 43 46 53 46 47 54 79 83 82 74 89 82 78 84 90 109 106 103 100 95 86 82 79 74 71 70 69 69 67 66 66 62 61 58 55 54 56 57 56 50 47 45 42 41 39 37 35 32 30 29 26 25 21 19 17 15 14 12 11 9 8 7 6 5 5 4 4 3 2 2 2 1 1 1 1 0 0 0 0 0 0 0 0 0 0 0 0 0 0 1 0 
0 0 1 1 1 1 2 2 2 1 1 3 3 3 3 2 3 2 1 1 1 1 2 2 3 3 4 4 3 4 5 5 5 5 9 10 7 7 8 9 11 12 14 16 16 17 19 21 21 21 25 27 29 34 38 38 38 42 45 42 47 46 51 47 57 85 86 83 86 98 90 86 102 110 108 105 102 100 95 85 80 76 73 71 70 70 70 68 68 69 69 64 58 59 60 58 58 58 54 54 48 45 45 41 36 35 33 31 30 28 26 22 19 16 14 14 12 10 9 8 7 8 7 5 4 4 3 2 2 2 1 1 1 0 1 0 0 0 0 1 0 0 0 0 0 0 0 1 0 0 
1 1 0 1 1 0 2 3 3 1 1 2 3 3 3 2 2 2 1 1 1 1 2 2 3 3 4 4 4 4 4 5 6 5 13 13 8 8 8 8 13 13 16 16 16 17 20 21 22 24 25 29 29 32 36 35 36 39 44 46 47 49 48 51 53 64 79 85 91 99 113 107 112 109 107 104 101 98 92 84 78 73 71 72 69 69 68 65 64 61 57 55 55 57 59 57 58 57 56 56 52 47 47 44 40 38 35 33 28 26 23 22 20 17 15 14 13 10 10 9 8 7 6 5 4 4 3 3 2 2 1 1 1 1 1 0 0 0 0 1 0 0 0 0 0 0 0 0 1 0 
0 1 1 0 1 1 1 2 3 2 1 1 2 3 2 2 2 1 1 1 1 2 2 2 3 3 4 4 4 4 4 5 5 6 13 12 8 9 10 11 11 13 14 15 18 18 20 21 24 24 26 29 32 35 39 41 37 44 54 50 54 53 60 64 59 64 72 95 113 116 120 116 113 108 104 100 98 93 85 76 72 70 69 68 68 67 66 62 56 61 61 61 59 60 60 60 59 57 57 58 55 51 47 43 42 40 36 35 32 29 25 23 20 17 16 15 14 11 10 9 8 7 6 5 5 4 3 3 2 2 2 2 1 1 1 0 0 0 0 1 1 0 0 0 0 0 0 0 0 0 
1 1 1 0 0 1 1 1 3 3 1 1 2 2 3 3 3 2 1 1 1 2 2 2 3 4 5 5 5 4 4 5 5 6 10 9 7 8 9 9 11 13 14 16 18 19 20 22 25 24 27 31 37 38 34 38 40 44 46 50 49 53 59 59 63 68 70 75 87 101 100 98 97 103 100 97 94 86 77 73 69 67 68 67 68 68 67 67 59 61 61 61 60 60 61 62 64 60 58 57 57 54 51 47 44 43 38 36 36 33 28 25 22 17 16 15 14 12 10 10 9 7 6 6 5 5 4 3 2 3 2 2 2 1 1 1 0 0 0 0 0 0 0 0 0 0 0 0 0 0 
2 1 2 1 1 1 1 1 3 3 1 1 1 3 3 2 3 2 1 1 1 2 2 2 4 4 5 5 5 5 5 6 6 7 12 11 8 8 9 11 12 13 16 18 18 20 21 24 26 25 28 32 35 36 38 39 43 46 50 47 46 49 52 49 53 58 66 66 67 73 82 77 84 85 92 93 89 83 72 68 65 62 64 64 65 64 64 66 65 62 60 63 60 58 60 65 66 61 62 58 56 58 55 52 49 44 40 37 34 34 30 26 22 19 17 16 15 12 12 11 8 8 7 6 5 5 4 3 3 3 2 2 1 1 1 0 0 0 0 0 0 0 0 0 0 0 0 0 0 0 
2 2 2 2 1 1 1 1 1 2 2 2 2 2 2 2 3 2 1 1 2 2 2 2 3 4 5 5 5 5 6 6 6 8 12 12 9 10 11 12 12 14 16 19 20 21 22 26 27 25 29 31 37 37 38 38 42 42 55 50 45 52 52 53 55 67 80 69 62 59 62 61 65 68 88 86 82 79 69 63 60 58 59 60 61 64 66 64 64 65 59 61 59 62 61 64 66 62 63 61 57 55 53 54 51 48 42 39 36 31 29 27 23 20 18 17 15 13 11 10 9 8 7 6 5 4 4 4 3 4 2 2 2 1 1 0 0 0 0 0 0 0 0 0 0 0 0 0 0 0 
1 2 2 2 1 1 3 1 1 2 3 3 3 3 2 2 2 1 1 1 2 2 2 2 3 4 5 5 5 5 6 6 6 7 12 12 9 9 10 12 13 14 17 18 20 21 23 26 28 27 31 32 37 40 39 39 43 43 45 51 49 48 57 52 63 81 88 83 87 64 68 80 80 82 84 80 76 73 63 57 56 55 55 56 57 59 60 64 60 56 51 52 54 58 61 62 62 64 65 63 62 58 55 53 51 45 43 41 38 36 30 29 27 23 19 16 15 13 12 11 9 8 7 6 5 5 4 3 3 5 2 2 2 2 1 0 0 0 0 0 0 0 0 0 0 0 0 0 0 0 
1 2 3 3 2 2 2 3 1 2 3 3 3 3 3 3 2 1 1 1 2 2 2 2 4 4 5 6 6 5 6 8 7 8 12 14 9 10 12 13 14 15 20 21 20 23 24 27 29 28 31 37 41 39 41 43 44 45 45 49 49 48 56 53 63 74 72 70 76 89 90 85 88 82 79 74 70 65 57 54 52 52 51 53 54 53 54 58 63 66 61 55 53 52 55 57 60 62 61 64 61 60 60 56 51 48 45 44 44 40 36 34 29 22 20 18 16 13 13 12 10 9 8 6 5 5 5 4 4 5 2 2 2 2 1 0 0 1 0 0 0 0 0 0 0 0 0 0 0 0 
2 2 3 1 1 1 3 5 4 1 2 3 3 3 3 2 2 1 1 1 2 2 2 3 4 4 6 6 5 7 8 8 6 8 15 17 11 12 13 14 13 15 22 21 21 25 25 27 30 31 33 34 42 43 41 44 43 42 42 44 43 46 50 55 61 68 63 62 73 82 81 89 82 77 71 66 63 61 53 51 48 48 49 51 52 52 53 55 59 65 67 60 60 58 58 55 56 59 58 59 60 59 60 55 55 51 46 43 43 40 41 34 28 24 21 20 17 14 13 12 11 9 8 7 6 5 5 4 4 5 3 2 2 2 2 1 0 1 0 0 0 0 0 0 0 1 0 0 0 0 
2 3 3 2 1 2 2 2 2 2 2 3 3 3 3 2 2 1 1 1 2 2 2 3 3 4 6 6 5 7 8 7 6 8 13 15 9 10 13 13 13 16 21 25 25 26 28 29 30 31 35 39 44 46 46 43 44 43 44 43 44 39 47 54 64 66 67 62 63 63 75 81 76 71 65 60 59 58 52 47 46 47 46 48 48 50 51 55 57 58 62 54 51 56 58 58 61 61 63 61 57 60 58 53 52 54 52 49 44 43 36 33 30 26 23 22 17 15 14 13 12 10 8 8 6 5 4 3 3 4 3 2 2 2 1 1 0 0 0 0 0 0 0 0 0 0 0 0 0 0 
2 3 4 4 4 2 3 1 2 2 2 2 3 3 3 2 2 1 1 2 2 2 2 3 4 4 5 6 5 5 6 8 6 10 13 12 10 11 14 13 16 17 20 27 28 28 30 31 32 32 35 37 43 46 44 45 43 44 45 42 42 40 41 48 64 63 62 64 64 72 72 71 72 64 59 58 55 54 51 45 44 45 44 46 47 48 50 56 59 57 54 56 56 61 64 65 61 65 60 60 59 60 60 53 51 50 47 47 43 39 36 35 35 30 28 25 19 16 14 13 12 10 9 8 6 6 6 4 3 5 3 3 2 2 1 1 1 1 0 0 1 0 0 0 0 0 0 0 0 0 
3 4 2 4 4 2 2 2 2 3 2 2 3 3 2 2 2 1 1 1 2 2 2 3 4 4 5 5 6 7 7 8 7 10 15 13 10 12 13 15 15 17 21 24 25 30 34 37 34 33 38 39 41 47 46 50 48 43 42 42 40 45 45 58 64 61 60 60 58 63 63 66 66 59 55 52 51 51 45 41 41 42 44 44 45 48 49 54 58 61 62 63 69 66 66 73 71 64 63 65 65 59 55 55 51 52 49 47 45 40 36 33 31 29 25 24 20 17 15 14 12 11 9 9 6 6 6 4 3 5 3 3 2 2 2 1 1 1 1 1 0 0 0 0 0 0 0 0 0 0 
2 3 3 3 4 3 1 2 2 2 2 2 3 3 2 2 2 1 1 2 2 2 2 4 4 5 6 4 5 8 7 8 7 10 16 14 12 14 15 15 15 18 25 28 28 30 34 38 35 35 40 45 48 52 56 54 52 51 47 44 44 44 53 59 59 60 58 55 55 52 62 62 59 55 52 49 47 48 41 38 39 40 40 42 43 45 48 54 58 61 65 65 66 67 68 73 77 73 68 66 65 62 59 52 53 49 47 45 44 43 37 36 34 32 29 28 21 17 16 15 13 10 9 9 7 6 5 4 3 4 4 4 3 2 2 1 1 1 1 0 0 0 0 0 0 0 0 0 0 0 
1 1 3 4 3 2 1 2 2 2 2 2 2 3 2 3 2 1 1 2 2 3 2 4 4 4 5 5 5 7 8 9 7 12 17 15 15 17 17 17 16 19 24 28 29 32 32 36 36 37 42 46 52 51 57 55 53 53 46 44 44 48 47 51 52 58 56 53 54 50 49 54 57 53 49 46 45 42 38 36 37 37 38 40 42 44 48 53 57 60 65 66 70 66 72 80 72 76 69 64 65 62 62 56 50 50 49 50 51 52 46 40 36 32 33 31 26 20 16 15 13 10 9 9 7 6 5 4 4 4 3 4 3 2 2 2 1 1 0 1 0 0 0 0 0 0 0 0 0 0 
1 2 2 4 4 3 1 1 1 2 3 2 3 3 2 3 2 1 2 2 2 3 3 4 4 5 5 6 5 5 8 10 8 12 17 16 16 15 14 16 18 20 25 28 30 32 34 37 38 37 43 44 46 50 48 47 47 48 47 44 44 51 56 50 56 58 54 51 46 41 46 52 51 48 46 43 43 38 36 35 34 35 38 40 40 43 48 51 57 60 65 71 63 60 71 75 73 71 71 64 62 66 64 65 53 58 59 55 54 45 41 35 33 28 28 26 26 21 17 16 13 10 9 9 7 6 4 4 4 6 3 3 3 2 2 1 1 1 0 1 0 0 0 0 0 0 0 0 0 0 
3 3 2 3 4 2 1 2 1 2 3 3 3 3 2 4 3 1 2 2 2 2 2 4 4 5 6 5 6 7 6 10 8 13 16 16 13 13 15 16 20 22 26 29 31 33 34 40 39 38 43 45 47 47 49 50 49 47 49 46 45 44 53 55 56 57 53 50 47 49 57 53 48 45 43 42 39 39 35 32 32 33 35 37 39 43 47 51 56 62 67 71 71 73 79 69 64 63 66 71 64 68 67 67 63 57 56 49 48 46 39 36 35 31 30 24 21 17 16 16 13 11 10 10 10 7 5 4 4 6 3 3 4 2 2 1 1 1 0 1 0 0 0 0 0 0 0 0 0 0 
3 2 3 2 3 2 2 2 2 2 1 2 3 2 4 4 2 1 2 2 2 2 3 4 4 5 6 6 6 7 7 9 8 14 18 15 14 15 16 18 19 21 29 32 32 34 35 40 38 39 44 45 53 54 52 55 53 56 51 50 52 48 48 51 55 54 52 49 57 61 53 52 49 44 42 39 38 36 32 32 33 33 34 37 40 43 47 51 55 62 69 75 81 84 80 69 65 66 66 72 71 68 68 69 66 57 52 52 50 47 41 38 42 34 34 26 22 18 16 15 13 12 10 8 10 9 5 4 4 6 3 3 3 2 2 1 1 1 0 1 0 0 0 0 0 0 0 0 0 0 
2 2 2 1 2 2 2 2 2 2 2 1 3 2 4 2 2 1 1 2 2 2 3 4 5 5 5 6 6 7 9 8 9 15 19 15 15 16 17 18 20 21 31 31 34 35 40 40 37 40 46 46 46 50 56 55 55 56 54 51 51 55 54 53 54 52 51 48 59 60 55 49 46 43 41 39 38 36 32 33 32 33 34 37 39 43 48 52 56 65 71 76 82 86 83 82 64 67 68 68 75 71 68 67 70 69 54 53 49 44 40 39 48 32 25 23 22 18 17 16 13 10 12 13 13 8 5 4 3 6 4 2 4 3 2 1 1 1 0 0 0 1 1 0 0 0 0 0 0 0 
3 3 1 2 2 2 2 3 3 2 3 3 2 2 3 3 3 1 1 2 2 2 3 4 5 5 6 6 7 8 8 9 10 16 19 15 17 19 18 17 19 23 27 28 35 36 40 43 39 41 47 48 49 54 54 52 51 55 56 59 55 57 56 55 55 53 50 47 44 46 44 37 43 46 41 39 37 35 33 31 31 33 35 37 40 45 48 53 59 66 72 78 85 89 96 84 71 67 70 67 73 78 77 75 71 69 62 55 54 51 45 38 41 31 27 24 21 18 16 16 14 12 11 10 12 10 6 5 4 7 4 3 5 3 2 1 1 1 0 1 0 1 0 0 0 0 0 0 0 0 
2 1 1 2 2 2 1 2 3 3 3 4 3 1 2 3 2 1 1 2 2 2 3 4 5 5 7 6 7 9 9 9 11 16 18 17 17 16 17 18 19 24 28 32 36 36 38 43 40 42 46 50 57 57 55 53 54 55 55 58 57 58 57 56 55 54 48 48 45 40 35 37 43 45 43 39 37 34 31 30 32 33 35 40 43 48 50 55 59 67 72 78 84 86 79 77 78 69 73 69 70 83 78 75 79 87 79 59 61 54 46 40 38 33 27 24 22 18 16 16 16 12 10 12 13 8 7 6 5 8 4 3 5 3 2 1 1 1 1 0 0 0 0 0 0 0 0 0 0 0 
2 2 3 3 2 2 2 2 3 3 3 3 3 1 3 3 2 1 1 2 2 2 3 4 5 5 7 6 7 9 9 9 10 17 18 16 15 16 17 18 21 26 28 32 36 37 39 42 40 42 48 50 54 54 57 55 56 56 54 56 54 58 58 54 53 52 49 46 44 41 39 47 50 48 44 41 39 35 31 32 32 34 37 40 43 47 52 56 61 70 74 81 87 86 76 74 71 71 70 77 75 83 102 96 90 82 75 62 54 50 46 41 36 32 28 25 22 20 22 19 16 14 15 18 13 8 6 4 4 7 4 3 5 3 2 1 1 1 1 0 0 0 0 0 0 0 0 0 0 0 
1 2 3 3 2 3 2 2 2 3 3 3 3 1 3 3 2 1 1 2 2 2 3 3 5 6 7 7 8 10 10 9 11 17 17 14 15 16 18 20 21 24 31 34 37 38 39 43 42 43 51 55 59 59 59 59 59 57 55 55 56 57 56 54 52 51 50 49 45 46 51 56 56 52 46 44 43 39 34 34 36 38 42 45 47 50 55 60 65 72 78 84 91 100 96 81 77 66 66 76 88 91 92 76 69 71 74 66 54 54 50 51 47 35 34 29 25 20 23 24 20 19 19 17 9 9 7 5 4 8 4 3 5 4 3 1 1 1 1 0 0 0 0 0 0 0 0 0 0 0 
2 1 3 3 2 4 1 2 2 3 3 3 2 1 3 3 2 1 2 2 2 2 3 3 4 6 7 7 8 10 11 9 12 16 18 14 15 17 20 21 21 23 32 33 36 38 37 41 42 44 51 57 68 63 63 62 64 59 57 59 56 57 56 54 51 51 50 48 46 41 39 43 49 52 51 48 46 40 37 38 40 44 46 49 50 53 57 61 67 74 83 88 94 90 87 72 81 71 70 77 81 73 77 83 75 70 81 81 63 52 66 65 51 48 36 31 27 20 18 17 17 18 17 13 7 7 5 4 4 8 5 2 4 4 2 1 1 1 1 0 0 0 0 0 0 0 0 0 0 0 
3 3 4 3 3 4 2 2 2 3 3 3 3 2 3 3 2 1 2 1 2 3 3 4 4 6 7 7 8 11 12 9 12 18 17 14 15 18 19 21 23 24 32 34 37 40 38 41 44 44 58 67 67 64 64 64 65 60 57 62 56 58 58 54 54 53 50 47 48 54 50 50 50 57 58 52 50 46 45 44 45 48 50 51 53 55 62 64 69 80 86 91 100 97 94 85 90 79 69 72 77 70 83 89 71 65 76 79 65 57 62 47 41 37 27 30 28 20 18 17 17 16 16 17 10 8 7 5 4 8 6 3 4 4 2 2 1 1 1 1 0 0 0 0 0 0 0 0 0 0 
4 3 5 3 4 3 2 2 1 2 3 3 2 2 3 3 1 1 2 1 2 3 3 5 4 6 7 7 8 12 12 10 13 17 17 15 16 18 22 23 23 24 32 35 37 40 38 45 44 44 56 72 80 68 62 67 65 62 61 61 56 56 56 55 57 55 54 54 49 53 55 67 63 63 60 56 55 56 49 48 49 50 55 56 57 59 65 66 73 84 88 93 105 107 97 97 85 86 75 74 82 82 74 81 84 63 68 81 66 56 54 49 39 33 28 27 29 20 23 22 19 11 11 14 9 6 5 5 4 9 6 2 4 4 3 2 1 1 0 1 0 0 0 0 0 0 0 0 0 0 
4 4 3 2 4 3 2 2 1 3 3 3 1 2 3 3 1 1 2 1 2 3 3 6 4 5 7 7 8 12 12 9 14 18 17 15 19 22 22 19 20 24 32 35 35 40 41 45 46 45 59 71 85 93 69 66 68 64 63 65 58 59 58 56 57 55 56 62 53 65 70 72 68 68 67 63 61 57 52 52 55 59 59 59 61 63 69 73 78 86 93 98 108 100 94 100 89 99 86 75 89 84 70 76 84 66 76 78 68 53 46 44 37 35 29 26 28 21 23 22 19 20 18 13 7 8 8 5 3 9 5 4 6 3 3 2 2 1 1 1 0 0 0 0 0 0 0 0 0 0 
4 4 2 2 4 3 2 2 2 2 2 3 1 2 3 3 1 1 2 1 2 3 3 5 4 5 6 6 8 11 12 9 13 16 15 19 19 20 18 18 21 27 31 32 34 39 38 46 44 46 54 56 65 80 82 67 65 66 64 65 59 59 60 57 55 54 54 59 71 80 74 70 75 75 74 71 71 65 59 60 64 67 64 63 66 69 75 79 86 96 100 102 110 106 86 87 89 95 89 71 69 82 71 71 79 74 78 77 71 60 48 44 35 33 29 26 29 22 22 17 17 18 13 15 9 9 6 4 3 8 5 4 5 4 3 2 2 1 1 1 0 0 0 0 0 0 0 0 0 0 
3 4 2 3 5 3 2 2 1 2 3 2 1 2 3 3 1 1 2 1 2 4 3 4 4 6 7 7 10 12 11 9 13 15 16 19 19 17 17 18 20 28 33 31 33 38 37 47 44 45 54 60 69 66 77 81 75 66 63 62 60 60 60 58 56 55 54 56 60 59 56 68 82 80 79 76 76 73 66 68 70 73 75 75 74 75 84 84 92 100 103 108 119 122 112 96 94 91 89 75 73 77 73 66 76 76 79 74 77 69 49 41 36 34 29 26 28 23 21 20 18 14 8 10 9 5 5 5 4 9 5 3 5 4 3 2 1 1 1 0 0 0 0 0 0 0 0 0 0 0 
3 4 2 4 5 3 2 2 3 3 3 2 0 3 3 3 1 1 2 2 2 4 3 3 5 6 8 7 10 12 12 10 13 14 15 13 12 14 14 15 18 24 30 29 31 37 37 47 43 45 50 55 57 58 65 71 80 74 63 63 60 59 61 65 59 54 55 60 59 63 80 92 90 90 88 85 84 77 77 76 78 82 83 80 79 82 90 92 100 105 107 111 119 117 107 101 99 92 87 73 74 68 77 64 71 73 90 74 71 62 49 38 35 33 28 26 29 20 30 23 21 14 8 9 8 6 5 5 4 9 6 4 5 4 3 2 1 1 1 0 0 0 0 0 0 0 0 0 0 0 
4 4 3 4 3 3 4 5 5 4 2 2 0 2 3 4 1 1 2 2 2 3 3 3 4 6 7 8 12 12 12 10 12 16 15 10 11 14 16 17 20 20 28 29 29 34 36 48 40 45 51 51 56 71 65 54 59 61 63 64 57 57 60 63 66 56 61 72 66 77 92 94 95 99 97 94 93 88 87 83 84 89 91 89 87 91 94 98 104 111 116 118 128 123 119 122 117 89 88 85 79 70 75 64 67 72 83 72 61 59 47 40 33 32 27 23 32 24 33 28 23 10 7 7 6 6 5 5 4 9 5 4 6 4 3 2 1 1 1 0 0 0 0 0 0 0 0 0 0 0 
3 3 2 4 4 2 4 3 5 3 2 2 1 3 2 2 1 1 2 2 1 3 3 3 4 6 6 8 12 13 14 10 13 14 15 12 12 13 14 12 15 21 25 28 28 35 38 46 39 42 47 52 51 54 59 63 61 60 62 62 56 56 59 63 68 68 73 80 82 92 99 100 104 108 106 105 104 97 91 91 92 94 98 98 93 96 102 103 106 115 123 121 137 129 115 128 99 72 93 91 70 67 71 67 62 64 86 68 61 59 51 40 30 30 25 21 28 35 41 32 26 22 13 7 6 6 5 4 3 9 5 5 6 4 3 2 1 1 1 0 0 0 0 0 0 0 0 0 0 0 
3 2 4 4 4 2 2 3 3 3 2 2 1 3 3 2 1 1 2 2 1 3 3 2 4 6 5 7 10 13 14 8 13 13 15 10 12 12 12 11 11 21 25 24 26 33 30 43 38 41 46 53 59 52 54 72 69 57 63 60 55 57 61 63 67 75 79 85 87 93 98 107 113 114 116 115 111 99 98 98 100 107 104 100 100 101 104 106 108 115 122 122 137 127 118 121 91 82 89 82 71 66 66 70 61 61 75 60 54 56 49 39 28 30 24 20 21 33 22 27 35 28 16 7 6 5 5 5 3 8 5 4 6 4 3 2 1 1 1 0 0 0 0 0 0 0 0 0 0 0 
2 2 2 4 3 3 2 3 3 3 2 2 1 3 3 2 0 0 2 2 1 3 3 1 3 6 6 8 10 12 10 8 13 16 18 9 9 10 10 12 16 20 23 26 26 29 30 41 37 37 55 57 60 59 55 56 54 55 60 57 53 57 61 61 66 72 78 86 90 92 102 114 124 125 125 123 124 115 112 113 113 114 118 117 108 106 110 112 110 116 125 128 139 138 123 120 99 81 83 85 72 69 61 72 62 56 78 68 52 58 50 41 28 28 24 20 22 30 29 33 27 11 6 7 6 5 4 4 3 8 6 5 7 4 3 2 1 1 1 0 0 0 0 0 0 0 0 0 0 0 
1 1 2 3 2 3 5 4 3 2 1 1 1 2 3 1 1 1 1 2 1 3 2 2 4 6 5 7 8 9 9 8 12 12 11 12 13 6 17 15 17 22 22 26 26 28 26 38 37 36 48 58 64 75 62 52 49 52 56 53 49 55 60 64 68 75 79 87 96 98 104 114 133 136 136 135 135 132 127 124 123 126 126 118 112 119 121 118 118 125 129 131 138 138 124 116 101 87 83 84 70 70 63 69 58 54 65 79 55 46 41 35 28 26 23 20 18 26 22 16 13 8 8 9 7 5 4 5 3 8 8 5 7 4 3 2 1 1 1 0 0 0 0 0 0 0 0 0 0 0 
1 3 4 3 2 5 4 3 3 3 3 1 2 2 3 2 0 1 1 2 1 2 3 2 3 5 4 5 6 7 8 9 12 12 8 8 13 12 16 18 18 19 21 24 22 31 33 37 33 34 39 47 47 59 55 47 48 48 52 53 44 50 54 57 64 70 79 86 93 105 116 123 136 144 146 145 148 139 133 129 130 135 134 121 117 129 127 125 125 129 132 129 146 146 122 110 98 86 92 84 66 64 57 70 60 53 60 66 50 47 47 38 26 23 22 17 17 26 16 11 9 8 7 9 6 4 3 4 3 8 6 5 6 4 2 2 1 1 0 0 0 0 0 0 0 0 0 0 0 0 
0 2 2 2 3 5 2 2 4 4 2 1 2 2 2 1 1 1 1 2 1 2 2 2 3 5 4 4 6 8 7 8 10 10 12 11 11 7 12 17 15 21 20 25 22 26 26 30 27 32 36 38 47 47 57 43 42 42 48 50 42 49 49 52 55 61 73 84 93 105 113 121 135 149 155 153 154 148 139 140 141 143 144 135 120 121 124 130 126 126 134 133 144 132 105 123 127 91 99 111 96 82 63 72 62 52 61 64 43 47 48 35 26 21 21 16 16 24 17 9 10 8 6 5 4 4 7 5 2 7 6 4 7 5 2 2 1 1 0 0 0 0 0 0 0 0 0 0 0 0 
2 3 3 3 5 4 2 2 3 3 1 0 2 2 1 1 1 1 1 2 1 3 3 2 2 5 6 6 7 9 7 8 11 10 11 11 9 8 15 15 16 28 17 22 21 22 16 28 30 28 37 34 38 40 52 43 42 39 42 45 41 49 51 50 51 60 66 79 92 101 121 130 147 157 162 161 165 162 148 146 145 150 159 138 127 131 128 136 129 133 136 129 129 118 110 117 99 89 73 99 71 61 53 57 62 51 55 67 52 44 42 34 25 19 19 16 16 18 20 9 9 6 6 6 5 5 10 9 3 7 6 4 6 4 2 2 1 1 0 0 0 0 0 0 0 0 0 0 0 0 
2 2 3 4 4 3 1 2 3 2 1 1 1 1 2 0 1 1 1 1 1 3 3 2 2 4 5 4 7 9 5 7 8 7 7 4 6 13 15 10 13 21 18 20 17 26 23 29 30 25 33 28 34 36 38 39 39 35 37 39 36 47 51 55 51 53 64 75 85 94 112 137 152 166 172 173 174 168 156 148 155 161 162 136 145 144 129 129 133 139 139 133 140 130 133 127 92 81 75 79 60 53 52 56 55 52 46 57 45 42 39 33 24 18 16 22 19 17 12 11 15 12 7 12 8 9 12 8 2 5 6 5 6 4 2 2 1 1 0 0 0 0 0 0 0 0 0 0 0 0 
1 1 2 3 2 3 2 2 2 3 0 1 3 2 3 1 1 1 1 1 2 2 2 3 2 3 4 6 6 5 5 6 4 4 6 10 11 8 9 14 9 12 18 15 16 30 25 26 27 24 32 22 27 31 30 30 37 34 36 37 34 44 42 49 59 50 59 69 77 86 112 129 156 171 176 178 177 176 172 159 159 166 167 154 133 127 120 130 130 138 137 131 138 141 142 128 98 80 78 71 62 58 50 51 51 44 42 44 40 35 34 31 24 16 15 19 12 18 11 8 9 8 5 5 8 13 10 4 2 5 6 5 6 4 2 1 1 1 0 0 0 0 0 0 0 0 0 0 0 0 
2 2 1 2 3 3 2 1 3 2 1 1 3 2 1 1 0 1 1 1 1 2 2 3 2 3 4 6 5 7 4 6 3 4 7 15 12 10 11 7 9 11 17 14 14 26 35 26 23 19 38 26 18 28 26 26 30 27 30 30 32 37 36 46 53 45 54 67 74 88 111 129 157 171 180 183 185 178 171 168 168 165 161 146 134 127 122 126 125 125 133 125 133 137 104 120 89 70 86 77 60 55 41 60 53 39 38 50 52 35 32 28 23 15 21 22 13 10 7 7 7 5 4 4 3 4 5 7 6 7 7 4 5 4 2 1 1 1 0 1 1 0 0 0 0 0 0 0 0 0 
2 3 3 2 4 3 2 2 2 2 2 1 1 2 0 0 1 1 1 1 1 2 2 2 3 3 4 3 4 5 3 7 6 8 11 8 6 9 10 4 9 14 15 14 14 25 31 25 22 17 35 36 24 19 18 28 29 22 25 25 28 32 37 41 43 42 47 61 69 80 95 125 159 171 179 181 179 173 171 176 168 161 162 145 129 137 126 121 115 118 124 122 135 125 123 106 80 78 85 78 61 48 39 47 42 40 33 47 45 35 30 27 22 15 22 21 11 10 7 7 7 5 4 3 2 5 5 3 2 6 6 4 5 3 2 1 2 1 1 1 1 0 0 0 0 0 0 0 0 0 
1 2 4 3 2 3 2 3 2 2 1 2 2 2 2 0 1 1 1 1 1 2 2 1 3 2 5 5 3 4 3 6 9 6 5 6 8 6 9 13 13 12 15 13 14 21 24 21 16 16 31 42 40 27 31 27 30 27 26 22 24 34 34 36 48 38 42 48 62 70 81 105 141 158 174 181 182 173 161 152 136 155 154 149 135 130 122 126 109 113 113 117 127 112 117 98 85 72 79 71 50 40 38 45 42 39 30 40 38 28 29 26 20 15 13 10 10 9 6 6 5 5 4 6 6 7 5 6 4 5 6 5 4 4 3 2 3 3 1 1 2 0 0 0 0 0 0 0 0 0 
1 1 3 3 3 2 3 3 2 1 0 2 2 2 2 0 1 1 1 1 1 2 2 2 3 2 4 4 4 3 3 5 8 6 7 5 3 7 9 8 12 12 14 12 13 22 23 19 16 17 34 37 32 28 25 16 20 28 25 23 20 32 40 43 55 50 35 41 63 63 67 78 99 117 141 165 167 169 144 119 144 145 124 125 114 107 114 115 114 102 99 107 118 115 106 105 87 89 94 61 46 37 33 46 39 34 26 34 33 30 34 30 20 13 11 11 10 10 6 9 10 4 3 6 11 11 8 7 2 6 7 4 4 4 4 3 2 3 2 2 2 1 0 0 0 0 0 1 0 0 
0 1 1 1 2 2 2 1 2 1 1 3 2 2 1 0 1 1 0 2 1 2 2 1 2 2 2 3 5 3 3 4 4 6 12 7 5 7 6 5 7 10 12 11 13 18 23 20 15 15 13 30 28 18 19 14 20 22 26 23 23 32 35 41 41 52 51 44 53 59 70 101 122 130 141 174 141 143 129 164 179 161 125 129 102 98 95 98 93 111 115 107 102 95 103 118 87 142 97 51 45 34 31 40 36 43 24 31 30 31 28 25 19 12 11 12 11 8 5 7 12 16 14 8 10 8 3 4 2 5 6 4 4 3 3 3 3 2 2 2 1 1 0 0 0 0 0 0 1 0 
0 0 0 0 1 1 2 2 3 0 0 3 4 3 0 0 1 1 1 1 0 2 2 1 2 2 2 4 4 2 3 5 2 2 6 8 9 9 5 2 3 10 11 10 12 10 18 18 9 12 16 26 37 24 28 35 32 29 25 29 30 33 32 36 32 32 38 44 60 106 170 201 224 223 248 255 239 198 181 173 142 115 130 132 88 69 79 104 102 125 123 116 122 113 88 95 96 125 84 49 37 31 28 38 37 52 27 30 26 25 22 21 16 11 11 12 9 8 6 5 4 8 13 10 7 3 5 7 6 5 6 2 5 4 4 4 3 3 2 1 1 1 1 1 0 0 0 0 1 0 
1 0 0 1 1 1 2 2 2 0 0 2 2 1 0 0 0 1 1 2 1 1 2 1 2 3 2 4 4 1 3 2 1 3 5 6 8 7 6 0 6 9 10 8 12 12 14 21 10 13 20 9 27 30 27 29 38 37 36 33 29 30 29 27 34 49 68 94 138 177 180 191 202 170 206 217 230 253 250 223 198 159 149 123 105 102 115 132 146 163 180 128 98 106 109 87 83 97 75 51 34 24 22 44 41 27 37 36 23 23 20 18 15 10 10 12 8 9 7 6 5 2 3 6 4 2 2 2 3 4 7 1 4 4 4 4 3 2 2 2 1 1 1 1 0 0 0 0 0 0 
0 0 0 0 1 2 1 1 2 1 0 1 2 1 0 0 0 1 1 1 1 1 2 2 2 2 3 4 4 0 2 5 6 5 3 5 4 3 5 4 15 11 8 6 9 8 6 17 24 22 14 22 30 47 48 38 31 36 33 32 28 35 41 53 59 74 102 127 141 130 145 184 173 141 173 214 209 205 232 244 240 232 232 237 231 221 209 196 161 146 139 97 72 87 118 83 97 90 78 83 59 17 24 53 46 41 31 47 30 34 31 18 14 10 12 12 8 9 6 5 4 4 3 2 3 3 2 1 1 3 7 3 4 4 5 5 3 2 2 1 1 1 1 1 0 1 1 0 0 0 
0 0 0 1 0 1 2 1 2 1 1 1 2 1 0 0 0 0 1 1 1 1 1 1 3 2 2 3 4 3 2 2 5 5 6 4 2 4 11 11 10 6 7 12 12 11 9 12 12 16 24 20 19 26 37 36 38 61 65 65 70 74 78 86 113 136 146 146 133 141 179 190 172 147 166 209 223 208 195 216 220 218 210 205 213 235 231 216 217 206 160 118 110 102 85 81 75 71 81 58 73 57 71 73 76 38 37 34 26 33 26 15 11 6 11 12 8 9 6 4 4 2 3 2 2 4 2 1 1 3 7 2 5 4 4 3 3 2 2 1 1 1 0 1 1 1 0 0 0 1 
0 0 0 0 0 1 1 1 1 1 2 1 2 1 0 0 0 0 1 1 1 2 3 2 3 2 1 3 6 6 4 4 6 6 5 5 6 8 11 12 14 16 24 28 25 21 14 15 14 16 24 29 36 44 42 48 51 53 56 61 65 69 93 123 136 140 143 127 131 166 186 185 164 140 148 190 208 211 195 186 212 233 228 225 214 201 209 228 227 226 253 247 211 188 106 82 67 55 68 54 52 63 77 78 57 38 35 30 23 18 31 34 10 18 14 7 7 6 4 4 4 5 10 3 2 4 2 1 0 3 7 1 5 5 4 3 2 2 2 1 1 1 1 0 0 1 0 0 0 0 
0 0 0 0 1 1 1 1 1 1 0 1 1 0 0 0 0 0 0 0 1 1 2 2 3 3 2 2 2 5 7 5 5 6 8 9 11 12 15 18 16 11 12 15 7 20 29 33 41 47 44 39 37 36 36 39 43 50 54 55 73 106 121 119 126 127 112 118 147 166 174 163 139 130 127 161 192 209 214 198 185 201 218 213 205 199 190 188 196 211 218 188 222 204 171 156 119 92 67 54 55 48 72 65 61 73 64 39 28 13 25 27 11 23 13 4 7 5 3 4 4 11 11 8 6 6 4 3 3 2 7 3 3 4 4 3 2 3 2 2 1 1 0 0 0 0 0 0 0 0 
0 0 0 1 2 1 1 1 1 0 0 1 1 1 0 1 1 2 2 1 2 2 1 1 1 2 1 1 2 6 8 7 7 9 9 10 10 8 7 11 11 13 16 24 28 34 37 34 29 27 25 30 34 36 40 48 56 59 70 99 118 113 113 117 111 97 103 126 146 156 158 150 138 139 129 154 188 205 212 210 198 187 186 195 200 202 202 193 191 188 172 193 188 159 166 186 163 154 106 71 58 58 65 36 59 66 54 58 42 43 33 18 15 6 16 10 16 10 9 3 3 6 7 4 0 4 6 3 6 5 7 3 4 3 3 2 2 1 1 1 1 1 0 0 0 0 0 0 0 0 
0 0 0 1 1 1 1 0 0 0 0 0 1 1 1 1 1 0 1 3 3 4 4 3 1 1 2 1 2 4 2 5 6 4 6 5 5 6 10 17 26 31 34 32 31 31 33 39 44 52 64 75 86 92 94 98 109 126 137 139 134 142 147 144 137 136 143 149 157 162 161 151 144 146 127 146 172 194 207 212 200 178 164 170 185 191 188 196 202 176 178 170 147 150 166 164 151 151 146 131 101 102 73 29 32 34 37 43 36 45 46 40 34 28 21 22 19 19 15 13 10 10 11 8 9 10 8 7 4 5 7 3 5 4 3 1 2 2 2 1 0 0 0 1 0 0 1 1 0 0 
0 0 0 0 0 0 0 0 0 0 1 1 1 1 1 1 1 2 1 2 3 3 3 4 2 1 2 4 4 4 5 7 11 13 16 20 24 28 32 35 38 38 40 37 35 36 37 40 45 51 55 59 65 66 72 102 114 107 103 106 110 106 99 95 98 113 127 139 145 145 140 130 131 135 125 135 162 181 187 193 194 188 177 164 163 174 192 185 163 175 188 157 140 136 140 134 143 139 135 115 115 121 107 98 75 43 28 27 24 34 38 35 38 39 28 21 17 19 17 20 17 13 12 11 13 12 10 6 5 6 7 5 4 4 3 1 1 2 1 1 0 0 0 1 0 0 0 0 0 0 
0 0 0 0 0 0 0 0 0 0 0 0 0 1 0 0 1 1 2 1 0 1 1 1 3 3 4 5 9 13 16 20 23 25 26 24 22 21 20 21 22 25 27 28 27 28 29 31 32 35 38 40 44 70 90 83 74 80 89 91 87 80 78 81 93 110 123 129 133 132 130 111 110 127 102 97 122 145 165 177 180 178 173 169 163 159 156 151 160 162 139 135 143 153 134 120 110 111 112 105 106 104 97 99 97 98 80 55 41 41 29 27 28 23 18 15 15 14 15 18 16 16 15 10 11 12 8 7 7 7 4 4 4 3 2 3 2 2 0 0 0 0 0 0 0 0 0 0 0 0 
0 0 0 1 0 1 0 0 0 0 0 0 0 1 1 0 0 1 1 1 1 2 3 4 6 6 8 9 10 11 12 12 11 11 10 9 10 12 13 14 15 16 18 20 23 25 26 26 29 31 33 52 76 74 59 61 72 76 77 75 71 72 72 84 99 111 119 125 124 120 116 100 108 118 100 89 110 132 145 151 160 161 163 158 145 130 126 134 134 124 121 125 128 119 121 130 115 101 85 84 92 89 85 83 75 79 69 66 66 59 43 33 23 13 14 14 20 12 16 16 12 14 12 10 10 7 6 7 6 7 6 6 5 4 2 1 2 2 1 0 0 0 1 0 1 0 0 0 0 0 
0 0 0 0 0 0 0 0 0 0 0 0 0 0 1 1 1 2 2 3 4 5 6 7 8 9 10 11 11 11 10 9 9 9 9 9 10 11 12 12 14 15 16 18 18 19 21 24 23 35 59 64 49 46 56 62 64 64 62 59 57 62 69 80 92 100 107 114 113 111 106 93 111 119 106 82 95 111 131 148 155 156 151 138 129 129 124 114 103 103 107 112 116 106 102 93 101 102 97 84 75 69 72 70 68 67 54 53 54 52 48 44 37 30 22 19 15 12 14 16 15 11 10 10 9 9 7 7 6 6 7 6 4 4 4 1 0 1 1 0 1 1 1 1 1 1 1 1 1 0 
0 1 0 0 0 0 0 0 0 0 1 1 1 1 1 3 3 4 5 5 6 7 9 11 11 9 9 10 10 9 9 9 9 8 9 10 10 11 11 13 14 16 16 16 18 19 19 26 46 55 42 34 41 48 51 54 53 52 50 50 52 59 68 80 89 95 100 103 103 98 96 84 105 104 98 76 89 103 121 130 134 134 133 134 130 123 112 99 92 94 93 95 89 94 90 92 81 74 74 86 83 70 57 50 55 54 49 48 46 42 38 35 33 34 32 28 25 21 14 11 10 8 4 5 8 7 5 6 5 4 7 4 4 4 4 2 1 2 1 1 2 1 1 1 0 1 1 1 1 1 
0 0 0 0 0 0 0 1 1 1 1 2 3 4 4 3 5 5 6 6 7 6 7 8 7 6 6 6 7 7 7 7 8 9 9 10 11 12 13 13 15 15 16 19 17 20 36 50 41 30 33 39 41 42 44 43 41 40 41 44 49 57 66 76 82 87 90 91 90 88 86 71 106 99 97 67 77 89 99 112 118 124 127 124 117 108 100 95 93 91 88 79 79 75 76 75 74 69 63 62 60 65 66 58 50 38 39 40 38 36 34 30 28 25 23 24 24 22 21 18 12 8 5 5 7 5 3 2 3 4 4 3 4 4 3 3 2 2 1 1 1 1 1 1 1 1 0 1 1 1 
0 0 0 0 1 1 2 2 2 2 2 3 3 4 5 4 5 6 6 6 6 5 5 6 7 8 9 10 10 10 10 9 9 8 10 10 10 11 11 12 13 15 15 15 28 40 37 29 30 35 36 38 39 39 38 35 34 35 37 40 47 55 64 71 77 78 81 84 82 80 75 67 98 87 87 62 68 76 88 100 108 109 109 105 103 97 93 93 87 79 73 75 67 63 64 60 59 60 63 56 50 46 44 51 56 49 38 31 30 31 28 26 25 23 22 21 19 18 18 18 18 17 15 13 9 4 2 0 0 2 3 3 3 3 2 2 2 1 1 1 1 1 2 1 1 1 1 1 1 1 
1 1 1 1 1 1 1 2 1 2 2 2 3 2 3 3 3 2 4 4 5 5 6 7 7 8 8 8 8 8 8 8 8 9 9 9 9 10 11 12 12 12 18 31 32 23 20 24 27 29 31 32 32 32 30 28 29 30 35 40 47 56 62 68 72 73 73 73 71 69 66 63 94 76 86 57 63 67 75 82 88 89 93 91 95 94 92 85 76 70 68 59 58 57 50 50 48 48 49 51 47 42 39 37 33 37 42 42 32 23 22 22 21 21 21 20 19 18 17 16 14 14 15 15 13 12 9 7 4 3 1 1 2 1 1 2 3 2 2 2 1 1 1 1 1 1 1 0 0 1 
1 1 1 1 1 1 1 1 1 2 2 2 2 1 1 1 1 1 2 2 2 2 3 3 3 3 4 4 5 5 6 6 7 7 7 7 8 10 10 9 12 23 28 20 15 17 20 22 23 24 25 25 24 24 23 24 26 29 32 37 43 50 55 59 61 64 65 64 63 62 59 58 91 69 85 50 51 55 63 66 72 80 84 87 88 85 82 76 70 66 59 55 52 47 49 44 42 40 39 39 41 38 37 33 28 27 25 28 32 33 25 19 17 18 18 17 17 17 16 16 14 14 13 12 11 12 11 12 10 9 7 5 2 1 2 2 2 1 1 2 1 1 1 1 1 1 0 0 0 1 
1 1 1 1 1 1 1 1 1 1 1 1 1 1 1 1 1 1 1 1 2 2 2 2 2 3 3 4 4 5 5 5 6 6 6 8 8 8 9 18 25 19 12 13 16 17 18 20 21 21 21 21 19 19 20 22 24 27 30 34 40 45 48 52 56 55 58 56 54 52 50 52 80 60 77 44 48 48 54 60 66 71 76 77 75 73 74 72 62 55 54 49 45 44 39 38 38 36 34 33 33 32 32 30 27 24 23 20 18 20 25 27 21 15 14 14 15 14 14 14 14 13 13 12 11 10 10 9 9 9 8 8 6 5 4 3 2 1 0 0 0 0 1 1 0 0 0 0 0 0 
1 1 1 1 1 1 1 0 0 0 0 0 0 0 0 1 1 1 1 1 1 2 2 2 2 2 3 3 4 4 4 5 5 6 7 7 6 12 20 19 11 11 13 14 15 15 17 17 17 17 16 16 17 17 18 20 23 25 29 33 36 41 44 44 46 47 47 47 45 44 41 48 74 52 74 42 44 45 48 54 58 63 66 66 68 66 65 59 56 54 48 43 42 37 33 32 31 31 30 29 28 27 25 24 23 22 21 19 18 16 14 15 20 23 19 13 11 12 12 12 12 12 12 12 11 11 10 9 8 7 8 7 6 5 5 5 5 5 2 1 1 1 1 0 0 0 0 0 0 0 
0 0 0 0 0 0 0 0 0 0 0 0 0 1 1 1 1 1 1 0 1 1 1 2 2 2 2 3 3 3 4 5 6 6 5 9 17 17 11 8 10 12 12 13 14 14 14 14 15 14 13 13 13 15 16 18 22 25 29 33 36 38 40 40 41 41 39 40 39 37 34 45 66 47 75 39 39 37 41 44 50 53 57 60 59 56 54 55 52 47 42 40 36 34 33 31 27 25 26 24 25 25 21 20 20 19 18 18 17 14 14 13 12 12 16 20 17 11 10 10 11 10 10 10 10 9 10 9 9 8 7 6 5 5 5 5 5 4 4 3 3 3 1 1 1 0 0 0 0 0 
0 0 0 0 0 0 0 0 0 0 0 0 0 1 1 0 0 0 0 1 1 1 1 1 2 2 2 2 3 4 5 5 5 6 12 16 11 7 7 9 10 11 11 12 12 12 12 12 11 11 11 11 12 13 15 17 20 23 25 29 31 33 35 36 37 36 35 34 35 33 30 44 61 40 67 36 36 33 35 39 43 45 46 48 49 50 48 47 43 41 39 36 33 32 30 28 25 22 21 21 20 19 19 18 17 17 16 16 15 14 14 12 11 11 9 10 14 17 15 11 8 8 8 9 9 8 8 8 8 8 7 6 5 5 5 5 5 4 4 3 3 3 2 2 2 2 1 1 0 0 
0 0 0 0 0 0 0 0 0 0 0 0 0 0 0 0 0 0 0 1 1 0 1 1 1 2 2 2 3 3 3 4 10 13 11 7 6 8 8 9 9 9 10 11 10 11 11 10 10 9 10 10 11 12 14 16 18 21 22 26 27 28 31 31 31 32 32 31 31 30 26 43 54 34 61 32 34 33 33 35 36 37 38 41 43 43 42 41 41 39 35 34 31 28 26 25 23 21 18 18 19 17 16 15 15 15 15 14 13 12 12 12 10 10 9 9 8 8 12 14 13 9 7 7 8 7 7 7 7 6 6 6 5 5 5 5 4 4 4 3 2 2 2 2 2 2 1 1 1 1 
0 0 0 0 0 0 0 0 0 0 0 0 0 0 0 0 0 0 0 0 0 1 1 1 1 2 2 2 2 2 5 10 10 6 5 6 7 7 8 9 9 9 9 9 9 9 9 9 9 9 9 10 11 12 13 15 17 19 21 23 24 25 27 28 27 28 28 28 28 27 24 41 48 31 55 28 26 26 25 26 30 32 33 36 34 36 38 38 35 34 34 31 30 26 23 22 20 18 17 15 14 15 14 14 14 13 12 12 11 12 11 10 10 10 10 8 7 7 7 7 9 13 13 8 5 6 6 6 6 5 4 5 5 5 5 5 4 4 3 3 2 2 2 2 2 2 1 1 1 1 
0 0 0 0 0 0 0 0 0 0 0 0 0 0 0 0 0 0 0 0 1 1 1 1 1 1 1 1 3 7 7 5 3 4 5 6 6 7 8 8 8 8 8 7 7 7 7 7 8 8 8 9 9 11 12 13 15 17 18 19 21 22 23 25 24 22 24 24 23 24 21 38 41 26 49 26 24 24 25 25 27 28 29 31 32 32 32 33 32 30 29 27 25 24 21 19 18 17 16 14 12 13 13 12 11 11 11 10 10 10 10 9 9 9 9 9 8 7 6 6 6 5 7 10 11 7 5 4 4 4 4 4 4 4 4 5 3 3 3 3 2 2 2 2 1 1 1 1 1 1 
0 0 0 0 0 0 0 0 0 0 0 0 0 0 1 0 1 1 1 1 1 1 1 1 1 1 2 5 7 5 3 3 4 4 4 5 6 6 7 7 7 7 7 7 6 6 6 6 7 7 7 8 9 11 12 13 14 16 17 17 19 20 20 21 21 21 20 21 20 20 18 36 35 23 47 24 22 21 20 21 22 24 25 25 28 28 27 28 28 26 26 25 23 20 19 17 15 16 15 12 12 11 11 10 10 9 9 10 9 9 8 9 8 8 7 8 8 7 7 6 5 5 5 4 6 8 9 6 3 3 3 4 4 4 4 3 2 3 3 3 2 2 2 2 1 1 1 1 1 1 
0 0 0 0 0 0 0 0 0 0 0 0 0 0 0 1 1 1 1 1 1 1 1 1 1 3 4 3 2 1 2 3 3 3 4 4 5 5 5 6 6 6 5 6 6 5 6 6 6 6 6 8 9 10 11 12 13 14 15 16 16 17 17 17 18 18 19 19 18 17 17 35 31 22 44 22 18 19 18 18 19 21 22 23 24 26 24 24 25 23 23 21 20 19 17 16 14 13 13 11 12 10 9 8 8 8 8 8 8 8 8 8 7 7 7 7 6 6 6 6 5 5 5 5 4 3 4 6 7 5 3 3 3 3 2 2 2 2 2 2 2 2 2 2 1 1 1 1 1 1 
0 0 0 0 0 0 0 0 0 0 0 0 0 0 0 0 1 1 1 1 1 0 0 1 4 4 2 1 2 2 2 3 3 3 3 4 4 4 4 4 5 5 5 5 5 5 5 6 6 6 6 7 8 9 10 11 12 13 14 14 15 15 15 16 16 16 17 17 16 18 15 33 27 18 37 22 16 18 17 18 17 18 20 20 20 21 21 21 21 20 19 20 18 17 16 15 13 12 11 11 10 10 8 8 8 7 7 7 7 6 7 7 7 6 6 6 6 6 5 5 4 5 4 3 3 3 3 2 3 6 7 5 3 2 2 2 2 2 2 2 2 2 2 2 1 1 1 1 1 1 
0 0 0 0 0 0 0 0 0 0 0 0 0 0 0 0 1 1 1 1 0 1 3 3 2 1 1 1 2 1 1 2 2 3 3 3 3 3 3 4 3 3 4 4 4 5 5 5 5 6 6 7 8 8 9 10 11 12 12 14 14 14 14 14 14 14 15 13 15 19 13 29 24 16 35 19 15 20 14 15 15 16 16 17 17 18 18 19 18 18 17 17 16 15 14 13 13 12 10 10 10 9 8 8 7 7 7 7 6 6 6 6 6 6 6 6 5 5 5 5 4 4 4 4 2 2 3 3 3 2 3 5 4 4 2 1 1 1 2 2 1 2 1 1 1 1 1 1 2 2 
0 0 0 0 0 0 0 0 0 0 0 0 0 0 0 0 1 1 0 1 2 3 2 1 0 1 1 1 1 2 2 2 2 2 2 2 2 3 3 2 3 3 3 3 3 4 4 4 5 5 6 6 7 8 9 9 10 11 11 12 12 13 13 12 13 13 13 12 14 19 12 28 21 15 31 18 16 25 15 13 13 13 14 15 15 16 16 17 16 16 15 15 15 14 13 12 12 10 9 9 8 8 8 7 7 6 6 6 6 6 5 5 5 5 5 5 5 5 4 4 4 3 3 3 3 3 2 2 2 3 2 2 2 3 4 4 1 1 1 2 1 1 1 1 1 1 1 1 2 2 
0 0 0 0 0 0 0 0 0 0 0 0 0 0 0 0 1 1 2 3 3 1 0 1 1 1 1 1 1 1 1 1 1 1 1 2 2 2 2 2 3 2 2 3 3 3 3 4 4 5 5 7 7 7 9 9 9 10 10 10 11 11 11 11 12 11 11 12 15 14 12 27 18 13 29 18 12 14 12 11 12 12 12 13 14 13 14 14 14 14 13 14 13 12 11 11 11 10 9 8 8 8 7 7 6 6 5 5 5 5 5 5 5 5 4 4 4 4 4 3 4 3 3 3 3 3 3 2 1 1 2 2 1 1 1 2 3 3 1 0 0 1 1 1 1 1 2 2 1 2 
0 0 0 0 0 0 0 0 0 0 0 0 0 0 0 0 1 3 3 2 1 1 1 1 1 1 1 1 1 1 1 1 2 2 1 1 1 1 2 2 2 2 2 2 3 3 3 3 4 4 5 6 6 7 7 8 8 9 9 9 9 9 10 11 10 10 10 11 12 12 13 25 16 12 25 17 11 12 12 11 10 11 10 11 12 12 12 13 12 12 12 12 12 11 10 10 9 8 8 8 7 7 7 7 6 6 5 5 5 5 4 4 4 4 4 4 4 4 3 3 3 3 3 3 3 3 2 2 1 1 2 1 1 1 1 1 1 2 2 2 1 0 0 1 1 1 1 2 1 1 
0 0 0 0 0 0 0 0 0 0 0 0 0 0 0 1 2 2 1 0 1 1 1 1 1 1 1 1 1 1 1 1 1 1 1 1 1 1 1 1 2 2 1 2 2 2 2 3 3 4 4 5 5 6 7 7 7 8 8 8 8 8 9 9 9 9 9 9 10 10 12 24 14 11 23 16 9 10 10 9 9 10 9 10 10 10 11 10 11 10 10 10 11 10 10 9 10 9 8 8 7 7 6 6 6 5 5 5 5 4 4 4 4 3 3 3 3 3 2 2 3 3 3 3 2 1 1 1 1 1 2 1 1 1 1 1 0 0 0 1 2 2 1 0 1 1 1 1 1 1 
0 0 0 0 0 0 0 0 0 0 0 0 0 1 2 2 1 1 1 1 1 1 1 1 1 1 1 1 1 1 1 1 1 1 1 1 1 1 1 1 1 1 1 1 2 2 2 2 3 3 4 5 5 5 6 7 7 7 8 8 8 8 8 8 8 8 8 9 9 8 11 22 12 11 22 15 9 10 10 8 8 8 9 9 9 10 9 9 9 10 9 9 9 9 8 9 8 7 7 7 7 6 6 6 5 5 5 5 4 4 4 3 3 3 3 3 3 2 2 2 3 3 2 2 2 1 1 1 1 1 1 1 0 0 0 0 0 0 0 0 0 1 2 2 2 1 1 0 1 1 
