P2
# testes/result-script2_1.pgm
150 100
255
0 0 0 0 0 0 0 0 0 0 0 0 0 0 0 0 0 0 0 0 0 0 0 0 0 0 0 0 0 0 0 0 0 0 0 0 0 0 0 0 0 0 0 0 0 0 0 0 0 0 0 0 0 0 0 0 0 0 0 0 0 0 0 0 0 0 0 0 0 0 0 0 0 0 0 0 0 0 0 0 0 0 0 0 0 0 0 0 0 0 0 0 0 0 0 0 0 0 0 0 0 0 0 0 0 0 0 0 0 0 0 0 0 0 0 0 0 0 0 0 0 0 0 0 0 0 0 0 0 0 0 0 0 0 0 0 0 0 0 0 0 0 0 0 0 0 0 0 0 0 
0 0 0 0 0 0 0 0 0 0 0 0 0 0 0 0 0 0 0 0 0 0 0 0 0 0 0 0 0 0 0 0 0 0 0 0 0 0 0 0 0 0 0 0 0 0 0 0 0 0 0 0 0 0 0 0 0 0 0 0 0 0 0 0 0 0 0 0 0 0 0 0 0 0 0 0 0 0 0 0 0 0 0 0 0 0 0 0 0 0 0 0 0 0 0 0 0 0 0 0 0 0 0 0 0 0 0 0 0 0 0 0 0 0 0 0 0 0 0 0 0 0 0 0 0 0 0 0 0 0 0 0 0 0 0 0 0 0 0 0 0 0 0 0 0 0 0 0 0 0 
0 0 0 0 0 0 0 0 0 0 0 0 0 0 0 0 0 0 0 0 0 0 0 0 0 0 0 0 0 0 0 0 0 0 0 0 0 0 0 0 0 0 0 0 0 0 0 0 0 0 0 0 0 0 0 0 0 0 0 0 0 0 0 0 0 0 0 0 0 0 0 0 0 0 0 0 0 0 0 0 0 0 0 0 0 0 0 0 0 0 0 0 0 0 0 0 0 0 0 0 0 0 0 0 0 0 0 0 0 0 0 0 0 0 0 0 0 0 0 0 0 0 0 0 0 0 0 0 0 0 0 0 0 0 0 0 0 0 0 0 0 0 0 0 0 0 0 0 0 0 
0 0 0 0 0 0 0 0 0 0 0 0 0 0 0 0 0 0 0 0 0 0 0 0 0 0 0 0 0 0 0 0 0 0 0 0 0 0 0 0 0 0 0 0 0 0 0 0 0 0 0 0 0 0 0 0 0 0 0 0 0 0 0 0 0 0 0 0 0 0 0 0 0 0 0 0 0 0 0 0 0 0 0 0 0 0 0 0 0 0 0 0 0 0 0 0 0 0 0 0 0 0 0 0 0 0 0 0 0 0 0 0 0 0 0 0 0 0 0 0 0 0 0 0 0 0 0 0 0 0 0 0 0 0 0 0 0 0 0 0 0 0 0 0 0 0 0 0 0 0 
0 0 0 0 0 0 0 0 0 0 0 0 0 0 0 0 0 0 0 0 0 0 0 0 0 0 0 0 0 0 0 0 0 0 0 0 0 0 0 0 0 0 0 0 0 0 0 0 0 0 0 0 0 0 0 0 0 0 0 0 0 0 0 0 0 0 0 0 0 0 0 0 0 0 0 0 0 0 0 0 0 0 0 0 0 0 0 0 0 0 0 0 0 0 0 0 0 0 0 0 0 0 0 0 0 0 0 0 0 0 0 0 0 0 0 0 0 0 0 0 0 0 0 0 0 0 0 0 0 0 0 0 0 0 0 0 0 0 0 0 0 0 0 0 0 0 0 0 0 0 
0 0 0 0 0 0 0 0 0 0 0 0 0 0 0 0 0 0 0 0 0 0 0 0 0 0 0 0 0 0 0 0 0 0 0 0 0 0 0 0 0 0 0 0 0 0 0 0 0 0 0 0 0 0 0 0 0 0 0 0 0 0 0 0 0 0 0 0 0 0 0 0 0 0 0 0 0 0 0 0 0 0 0 0 0 0 0 0 0 0 0 0 0 0 0 0 0 0 0 0 0 0 0 0 0 0 0 0 0 0 0 0 0 0 0 0 0 0 0 0 0 0 0 0 0 0 0 0 0 0 0 0 0 0 0 0 0 0 0 0 0 0 0 0 0 0 0 0 0 0 
0 0 0 0 0 0 172 173 172 171 170 170 170 169 169 169 169 168 166 164 163 160 158 156 153 153 155 157 157 159 162 164 169 172 173 175 175 176 177 178 178 178 177 177 177 176 0 0 0 0 0 0 0 0 0 0 0 0 0 0 0 0 0 0 0 0 0 0 0 0 0 0 0 0 0 0 0 0 0 0 0 0 0 0 0 0 0 0 0 0 0 0 0 0 0 0 0 0 0 0 0 0 0 0 0 0 0 0 0 0 0 0 0 0 0 0 0 0 0 0 0 0 0 0 0 0 0 0 0 0 0 0 0 0 0 0 0 0 0 0 0 0 0 0 0 0 0 0 0 0 
0 0 0 0 0 0 175 176 176 175 175 173 172 172 172 172 172 171 169 168 166 164 162 158 156 156 157 158 159 162 165 169 171 173 176 176 177 177 178 180 180 180 180 179 178 178 0 0 0 0 0 0 0 0 0 0 0 0 0 0 0 0 0 0 0 0 0 0 0 0 0 0 0 0 0 0 0 0 0 0 0 0 0 0 0 0 0 0 0 0 0 0 0 0 0 0 0 0 0 0 0 0 0 0 0 0 0 0 0 0 0 0 0 0 0 0 0 0 0 0 0 0 0 0 0 0 0 0 0 0 0 0 0 0 0 0 0 0 0 0 0 0 0 0 0 0 0 0 0 0 
0 0 0 0 0 0 177 178 177 177 177 176 176 176 176 175 173 173 172 171 169 168 164 162 159 157 157 158 160 163 166 170 173 176 177 178 178 178 180 180 180 180 180 180 179 179 0 0 0 0 0 0 0 0 0 0 0 0 0 0 0 0 0 0 0 0 0 0 0 0 0 0 0 0 0 0 0 0 0 0 0 0 0 0 0 0 0 0 0 0 0 0 0 0 0 0 0 0 0 0 0 0 0 0 0 56 51 56 52 49 54 65 69 65 54 101 183 177 178 179 180 182 183 184 184 185 186 188 189 189 189 189 186 184 180 176 170 163 158 151 144 132 123 119 117 117 117 0 0 0 
0 0 0 0 0 0 179 180 180 179 179 178 178 177 178 178 177 176 176 173 171 170 168 164 162 159 159 160 163 166 168 171 176 177 178 178 180 180 180 182 182 182 183 182 180 180 0 0 0 0 0 0 0 0 0 0 0 0 0 0 0 0 0 0 0 0 0 0 0 0 0 0 0 0 0 0 0 0 0 0 0 0 0 0 0 0 0 0 0 0 0 0 0 0 0 0 0 0 0 0 0 0 0 0 0 61 54 57 48 44 50 47 56 74 79 58 111 186 178 180 182 183 183 184 185 185 185 186 189 190 189 189 186 184 180 177 171 164 158 152 144 132 124 119 117 116 118 0 0 0 
0 0 0 0 0 0 182 182 183 182 182 180 179 179 179 179 178 178 177 176 175 172 170 168 163 162 162 163 165 168 170 173 177 178 179 179 180 182 182 183 184 184 184 183 182 182 0 0 0 0 0 0 0 0 0 0 0 0 0 0 0 0 0 0 0 0 0 0 0 0 0 0 0 0 0 0 0 0 0 0 0 0 0 0 0 0 0 0 0 0 0 0 0 0 0 0 0 0 0 0 0 0 0 0 0 78 75 62 69 54 41 37 47 79 88 79 56 158 184 179 182 182 183 184 184 185 185 188 189 190 190 190 188 185 180 177 171 164 158 152 144 133 125 119 117 116 117 0 0 0 
0 0 0 0 0 0 183 184 183 183 183 182 182 182 180 180 179 179 179 178 176 175 172 169 165 163 164 164 166 170 171 173 177 178 179 180 180 182 183 184 184 184 184 184 183 182 0 0 0 0 0 0 0 0 0 0 0 0 0 0 0 0 0 0 0 0 0 0 0 0 0 0 0 0 0 0 0 0 0 0 0 0 0 0 0 0 0 0 0 0 0 0 0 0 0 0 0 0 0 0 0 0 0 0 0 68 92 138 119 88 45 28 43 88 108 109 72 89 186 179 182 182 183 184 184 185 186 188 189 190 190 190 188 185 180 177 171 164 158 152 144 133 125 121 118 117 117 0 0 0 
0 0 0 0 0 0 184 185 185 184 184 184 184 183 182 182 182 182 180 178 177 177 175 171 168 165 165 166 168 171 173 176 178 180 180 180 183 184 184 184 184 184 184 184 184 183 0 0 0 0 0 0 0 0 0 0 0 0 0 0 0 0 0 0 0 0 0 0 0 0 0 0 0 0 0 0 0 0 0 0 0 0 0 0 0 0 0 0 0 0 0 0 0 0 0 0 0 0 0 0 0 0 0 0 0 101 130 125 104 104 56 31 38 92 125 123 90 59 164 184 180 184 184 184 185 186 186 186 190 190 190 190 188 185 182 177 172 165 158 153 145 136 126 122 119 118 118 0 0 0 
0 0 0 0 0 0 185 185 185 185 185 185 185 185 184 184 183 183 182 180 179 178 176 173 170 168 168 168 170 172 173 176 178 180 182 182 183 183 184 184 185 185 185 185 184 184 0 0 0 0 0 0 0 0 0 0 0 0 0 0 0 0 0 0 0 0 0 0 0 0 0 0 0 0 0 0 0 0 0 0 0 0 0 0 0 0 0 0 0 0 0 0 0 0 0 0 0 0 0 0 0 0 0 0 0 131 136 70 69 72 37 37 45 88 129 119 110 71 153 185 180 184 184 185 185 186 188 186 189 190 190 190 188 185 182 177 173 166 158 153 146 137 128 123 119 119 119 0 0 0 
0 0 0 0 0 0 186 188 188 188 186 186 186 186 185 184 184 184 183 182 179 178 177 176 172 170 169 170 171 172 175 176 178 180 182 183 184 184 184 185 186 186 186 186 185 184 0 0 0 0 0 0 0 0 0 0 0 0 0 0 0 0 0 0 0 0 0 0 0 0 0 0 0 0 0 0 0 0 0 0 0 0 0 0 0 0 0 0 0 0 0 0 0 0 0 0 0 0 0 0 0 0 0 0 0 151 99 63 97 42 37 29 57 99 124 113 106 77 128 190 180 183 184 185 185 186 188 188 189 190 190 190 188 185 182 178 173 166 159 153 146 137 128 123 119 119 119 0 0 0 
0 0 0 0 0 0 189 190 190 190 189 189 188 186 186 185 185 185 184 182 180 179 178 177 175 170 171 172 171 173 177 177 179 182 182 183 185 185 185 186 188 188 188 188 188 185 0 0 0 0 0 0 0 0 0 0 0 0 0 0 0 0 0 0 0 0 0 0 0 0 0 0 0 0 0 0 0 0 0 0 0 0 0 0 0 0 0 0 0 0 0 0 0 0 0 0 0 0 0 0 0 0 0 0 0 130 81 125 84 63 38 42 70 104 116 104 102 95 91 179 184 183 184 185 186 186 188 189 190 191 191 190 189 186 183 179 175 166 160 153 146 138 128 123 122 121 121 0 0 0 
0 0 0 0 0 0 189 191 191 191 191 190 190 189 189 189 186 185 185 184 183 182 179 178 176 173 172 172 173 176 177 178 180 182 183 185 186 186 185 186 189 189 188 188 188 186 0 0 0 0 0 0 0 0 0 0 0 0 0 0 0 0 0 0 0 0 0 0 0 0 0 0 0 0 0 0 0 0 0 0 0 0 0 0 0 0 0 0 0 0 0 0 0 0 0 0 0 0 0 0 0 0 0 0 0 71 128 122 95 44 34 56 82 102 104 91 111 130 65 124 192 182 184 185 186 188 188 189 190 191 191 191 189 185 183 179 175 168 162 155 149 139 130 124 121 121 121 0 0 0 
0 0 0 0 0 0 191 193 192 192 192 192 192 191 191 191 189 188 185 185 184 183 180 178 178 176 173 175 176 178 178 179 180 183 185 185 188 188 188 188 188 189 189 188 188 188 0 0 0 0 0 0 0 0 0 0 0 0 0 0 0 0 0 0 0 0 0 0 0 0 0 0 0 0 0 0 0 0 0 0 0 0 0 0 0 0 0 0 0 0 0 0 0 0 0 0 0 0 0 0 0 0 0 0 0 136 136 99 48 16 29 51 78 99 101 92 110 155 101 51 185 183 184 185 186 188 188 189 190 191 191 191 189 185 183 179 175 168 162 155 149 139 130 124 121 121 121 0 0 0 
0 0 0 0 0 0 192 193 195 195 195 195 195 193 193 192 191 189 188 186 185 184 183 180 178 176 176 177 177 178 179 182 183 184 186 186 188 189 190 190 190 190 191 191 189 188 0 0 0 0 0 0 0 0 0 0 0 0 0 0 0 0 0 0 0 0 0 0 0 0 0 0 0 0 0 0 0 0 0 0 0 0 0 0 0 0 0 0 0 0 0 0 0 0 0 0 0 0 0 0 0 0 0 0 0 170 113 57 35 50 54 75 97 96 89 97 118 163 118 15 153 189 184 185 185 186 188 188 190 191 190 190 189 186 183 179 176 169 160 156 148 139 130 125 123 121 122 0 0 0 
0 0 0 0 0 0 195 196 197 197 197 197 196 196 196 195 192 191 189 188 185 184 184 182 179 178 178 177 179 179 182 183 184 185 186 188 189 189 190 190 190 189 190 190 188 188 0 0 0 0 0 0 0 0 0 0 0 0 0 0 0 0 0 0 0 0 0 0 0 0 0 0 0 0 0 0 0 0 0 0 0 0 0 0 0 0 0 0 0 0 0 0 0 0 0 0 0 0 0 0 0 0 0 0 0 141 74 45 39 45 50 61 79 78 89 113 158 171 143 27 119 193 183 185 185 186 188 188 190 191 191 191 189 186 183 179 175 169 162 156 148 141 131 125 122 122 122 0 0 0 
0 0 0 0 0 0 196 198 199 199 199 199 198 198 198 197 195 192 190 189 186 185 184 182 180 178 178 178 180 180 182 183 184 185 186 188 189 189 190 191 195 200 198 197 197 195 0 0 0 0 0 0 0 0 0 0 0 0 0 0 0 0 0 0 0 0 0 0 0 0 0 0 0 0 0 0 0 0 0 0 0 0 0 0 0 0 0 0 0 0 0 0 0 0 0 0 0 0 0 0 0 0 0 0 0 103 56 50 44 37 47 55 59 74 84 106 173 186 163 45 96 191 179 183 186 186 188 188 190 191 191 191 189 186 183 179 175 169 162 156 149 141 131 125 122 122 122 0 0 0 
0 0 0 0 0 0 197 199 200 200 200 200 200 200 200 198 196 193 192 190 189 186 185 183 180 180 180 180 180 180 182 184 184 186 186 189 190 190 186 180 148 133 151 156 158 168 0 0 0 0 0 0 0 0 0 206 207 209 210 211 211 211 210 209 206 205 202 199 198 195 193 190 189 182 164 131 66 43 17 12 8 16 24 27 11 3 8 18 18 3 17 61 43 75 41 45 0 0 0 0 0 0 0 0 0 69 70 70 50 34 57 76 71 65 76 112 186 184 109 21 75 185 177 182 184 186 188 188 190 191 191 190 189 185 183 179 175 168 160 156 150 141 131 125 123 122 122 0 0 0 
0 0 0 0 0 0 199 200 203 203 203 203 202 202 202 200 198 196 195 191 189 188 185 184 182 182 180 180 180 182 184 184 185 186 188 188 188 191 176 86 79 130 116 101 91 99 0 0 0 0 0 0 0 0 0 205 206 209 210 210 211 210 210 209 205 205 198 195 198 191 193 188 141 99 61 23 23 35 34 17 10 35 29 19 7 3 27 38 9 8 25 49 69 64 27 41 0 0 0 0 0 0 0 0 0 82 62 35 34 50 48 37 28 54 95 138 183 81 35 47 47 132 166 180 185 186 186 188 189 190 190 191 189 186 183 179 175 169 162 156 150 142 132 126 123 122 122 0 0 0 
0 0 0 0 0 0 200 203 204 204 204 204 203 202 202 202 200 198 196 193 191 188 185 184 183 182 180 180 180 183 184 184 185 186 189 190 189 184 113 103 122 83 88 72 76 85 0 0 0 0 0 0 0 0 0 205 202 207 209 210 209 209 206 205 202 200 178 170 177 186 172 128 55 15 1 25 37 29 24 2 24 28 56 21 5 1 17 28 7 21 61 42 65 44 17 21 0 0 0 0 0 0 0 0 0 98 71 69 65 49 25 21 47 71 121 169 158 64 111 145 62 63 178 183 186 186 186 188 189 190 190 191 189 186 183 179 175 169 162 156 150 143 133 126 123 122 122 0 0 0 
0 0 0 0 0 0 200 204 205 205 204 205 205 204 204 203 202 200 198 196 192 189 186 185 184 182 182 182 182 183 184 185 186 188 189 190 191 173 116 102 63 79 92 84 102 92 0 0 0 0 0 0 0 0 0 188 198 212 211 209 207 209 209 200 193 186 131 95 78 92 45 23 35 69 19 4 41 41 16 5 2 24 45 17 3 42 39 16 3 36 82 31 75 38 14 18 0 0 0 0 0 0 0 0 0 155 162 145 143 116 94 98 97 84 119 118 118 124 113 126 110 58 178 184 185 186 186 186 190 191 191 191 189 186 183 179 175 169 162 157 151 143 133 128 124 123 123 0 0 0 
0 0 0 0 0 0 203 205 206 206 206 207 206 206 206 205 204 202 199 197 193 190 188 186 184 183 183 183 183 184 185 186 188 189 190 190 196 159 69 52 84 88 81 72 70 77 0 0 0 0 0 0 0 0 0 54 81 115 177 183 205 191 190 151 115 125 61 39 28 38 16 3 23 55 31 0 56 44 24 58 10 35 30 2 15 52 43 19 9 39 36 21 95 23 19 17 0 0 0 0 0 0 0 0 0 165 151 106 97 101 122 136 119 119 117 64 55 102 97 59 108 69 133 188 184 186 188 188 189 191 191 190 189 186 184 180 176 170 163 157 151 144 135 129 125 123 123 0 0 0 
0 0 0 0 0 0 204 207 207 209 209 209 207 207 207 206 204 203 200 198 196 192 189 186 185 183 183 183 183 184 185 186 188 188 190 191 199 163 55 59 77 58 69 81 95 71 0 0 0 0 0 0 0 0 0 27 37 37 39 32 59 74 65 51 42 61 50 31 28 28 65 7 28 38 29 5 25 49 74 79 51 48 44 7 55 64 42 27 5 19 21 4 94 69 14 23 0 0 0 0 0 0 0 0 0 156 146 166 157 164 158 135 89 99 98 44 58 70 118 71 52 50 112 188 183 186 188 188 189 191 191 190 189 186 184 180 176 170 163 157 151 144 136 129 125 123 123 0 0 0 
0 0 0 0 0 0 205 207 210 211 210 210 210 210 209 207 205 204 202 199 197 193 190 188 185 184 184 183 184 185 185 188 188 190 191 192 198 171 74 62 68 63 69 123 98 96 0 0 0 0 0 0 0 0 0 47 42 43 43 36 11 7 16 29 35 51 42 22 11 50 63 18 7 71 44 2 57 72 81 36 28 28 81 14 69 63 38 24 12 49 23 8 48 86 18 34 0 0 0 0 0 0 0 0 0 163 155 137 118 122 84 64 23 78 78 62 97 99 110 95 71 18 118 190 183 186 188 188 190 191 191 191 189 186 184 180 176 170 163 157 152 144 135 129 124 124 124 0 0 0 
0 0 0 0 0 0 207 209 211 211 211 211 211 211 211 210 207 205 204 202 198 196 192 190 188 185 185 185 185 186 185 188 189 191 192 195 197 190 90 51 63 54 91 99 96 96 0 0 0 0 0 0 0 0 0 74 43 21 28 37 58 39 4 12 28 18 51 50 11 35 54 17 3 54 56 14 56 47 12 11 7 7 27 22 52 29 10 24 64 94 42 7 18 72 36 43 0 0 0 0 0 0 0 0 0 133 113 105 117 130 112 65 55 86 50 55 113 110 91 109 65 4 125 192 185 186 188 188 190 191 191 191 190 188 184 180 177 170 164 158 152 145 137 130 124 124 124 0 0 0 
0 0 0 0 0 0 209 211 213 213 212 212 213 212 212 211 210 207 204 203 200 197 193 190 188 185 185 185 185 186 188 189 191 192 195 196 195 192 115 62 61 61 95 75 95 92 0 0 0 0 0 0 0 0 0 131 109 69 41 32 29 56 59 17 1 10 32 65 37 14 39 19 24 72 45 36 64 19 2 10 23 12 19 49 63 22 7 44 101 71 42 24 29 76 29 28 0 0 0 0 0 0 0 0 0 74 47 44 48 48 35 50 62 41 32 59 86 77 89 88 49 16 142 188 183 186 188 188 190 191 191 191 190 188 184 180 177 170 164 158 152 145 137 130 124 124 124 0 0 0 
0 0 0 0 0 0 210 212 215 216 215 215 215 213 213 213 211 209 205 204 202 198 195 191 188 186 186 186 186 186 188 189 191 193 196 196 195 198 129 82 61 71 58 85 89 118 0 0 0 0 0 0 0 0 0 115 105 90 76 34 25 15 44 70 41 0 12 44 48 27 16 7 28 81 92 42 36 16 11 3 5 11 48 90 90 27 23 75 84 55 65 65 62 70 59 43 0 0 0 0 0 0 0 0 0 124 105 81 45 39 86 92 41 25 52 74 84 64 59 63 44 47 119 164 182 184 188 189 189 190 192 191 189 188 184 180 177 170 164 158 153 146 137 130 125 124 124 0 0 0 
0 0 0 0 0 0 212 213 216 217 216 216 217 216 216 213 211 209 207 205 203 199 197 193 189 186 186 186 188 188 189 190 191 193 196 198 197 204 143 65 64 68 62 81 72 103 0 0 0 0 0 0 0 0 0 149 145 125 129 98 68 29 24 41 69 45 1 12 24 34 14 14 28 49 71 49 58 17 32 57 51 41 34 95 66 7 30 82 43 72 58 70 50 72 58 75 0 0 0 0 0 0 0 0 0 102 108 113 109 96 152 95 25 32 57 102 83 50 59 49 43 23 64 166 183 185 188 188 190 191 191 191 190 188 184 180 177 170 164 158 153 146 137 130 125 124 124 0 0 0 
0 0 0 0 0 0 212 215 217 217 217 218 217 217 216 216 213 211 209 206 204 202 198 193 189 186 186 186 188 188 189 190 191 193 196 198 199 203 188 97 72 76 79 82 66 91 0 0 0 0 0 0 0 0 0 157 160 164 136 92 71 44 18 35 39 84 49 1 15 28 34 79 38 41 89 110 95 44 61 51 90 30 19 94 81 2 27 54 28 62 36 65 63 39 57 49 0 0 0 0 0 0 0 0 0 117 95 142 143 141 133 130 41 52 102 102 71 45 62 44 37 0 39 160 183 184 188 188 190 191 191 191 190 188 184 180 177 170 164 158 153 146 137 130 125 124 124 0 0 0 
0 0 0 0 0 0 215 217 219 219 219 219 219 218 218 217 213 211 210 207 204 202 199 195 190 188 186 188 188 188 189 190 192 193 196 199 200 200 207 152 94 79 88 105 111 126 0 0 0 0 0 0 0 0 0 171 164 137 130 112 64 51 29 17 30 56 105 17 5 52 63 111 72 15 49 126 83 24 76 52 52 55 69 81 70 50 59 56 43 68 39 37 61 39 62 43 0 0 0 0 0 0 0 0 0 132 129 178 132 106 138 119 54 146 106 71 39 25 41 38 30 14 8 108 185 180 185 188 190 191 191 191 190 188 184 182 177 171 164 158 152 145 137 130 126 124 124 0 0 0 
0 0 0 0 0 0 216 218 222 220 220 220 220 220 220 217 216 213 211 209 206 203 200 196 191 189 188 188 188 189 190 190 193 195 198 199 202 202 207 190 86 82 113 113 122 130 0 0 0 0 0 0 0 0 0 160 133 157 145 116 90 59 35 22 30 45 103 32 19 41 36 96 63 28 24 85 98 41 56 43 51 56 111 83 50 82 62 79 92 62 62 50 52 68 32 31 0 0 0 0 0 0 0 0 0 133 109 125 96 129 135 101 153 103 54 85 55 37 19 29 36 21 8 57 169 183 184 186 190 191 191 192 190 188 185 182 177 171 165 158 153 146 138 131 126 125 124 0 0 0 
0 0 0 0 0 0 217 219 222 222 222 222 222 222 220 219 217 215 212 210 207 204 200 197 192 189 188 188 188 189 190 190 193 195 198 199 202 204 203 210 149 77 88 97 125 138 0 0 0 0 0 0 0 0 0 158 177 164 136 133 98 69 52 35 38 44 63 38 31 47 31 77 47 51 41 45 89 57 22 21 42 50 128 123 5 72 76 65 64 89 55 58 56 59 41 48 0 0 0 0 0 0 0 0 0 43 76 98 117 123 81 101 84 84 148 130 56 12 12 19 31 18 19 31 148 183 182 186 190 191 191 192 190 188 185 182 177 171 165 158 153 146 138 131 126 125 124 0 0 0 
0 0 0 0 0 0 218 220 223 224 223 223 223 223 223 220 218 216 213 211 207 205 202 198 193 189 189 189 189 189 191 191 193 196 198 200 203 204 205 205 207 106 79 98 105 118 0 0 0 0 0 0 0 0 0 178 178 171 160 130 89 69 70 49 31 38 48 48 77 97 71 62 91 119 31 29 81 97 29 43 56 74 109 113 12 47 79 66 45 49 66 56 49 36 31 57 0 0 0 0 0 0 0 0 0 45 76 56 75 61 41 63 98 132 110 47 17 9 17 25 32 39 27 25 132 182 184 188 190 192 193 192 191 189 185 183 178 172 165 159 155 148 139 132 128 125 125 0 0 0 
0 0 0 0 0 0 218 222 224 225 225 225 224 224 224 222 219 218 216 212 209 206 203 199 195 190 190 190 189 189 191 192 195 197 198 200 202 204 206 205 215 168 70 85 105 99 0 0 0 0 0 0 0 0 0 186 171 183 164 121 63 64 78 72 48 34 68 72 83 92 70 83 75 78 16 24 63 86 12 43 64 76 115 122 52 0 36 66 69 48 70 72 42 36 31 23 0 0 0 0 0 0 0 0 0 44 48 44 39 49 31 54 69 83 41 48 58 25 39 38 32 38 19 29 138 179 183 186 190 192 193 193 192 190 186 183 179 173 165 159 155 148 139 132 129 126 125 0 0 0 
0 0 0 0 0 0 219 223 225 225 225 225 225 224 224 223 220 218 216 213 211 207 205 200 196 191 190 190 190 190 191 192 195 198 200 202 203 204 205 205 207 206 103 78 106 119 0 0 0 0 0 0 0 0 0 190 156 182 148 103 89 81 81 102 95 56 50 84 81 52 85 84 98 37 9 25 78 56 47 76 84 89 62 98 75 29 36 74 69 59 51 27 41 58 41 64 0 0 0 0 0 0 0 0 0 29 50 48 42 64 66 39 54 45 47 113 103 71 18 28 19 10 10 34 129 165 180 189 190 192 193 193 192 190 186 183 179 173 165 159 155 148 141 133 129 126 125 0 0 0 
0 0 0 0 0 0 222 224 226 227 227 227 226 225 225 224 222 219 217 215 212 209 205 202 197 193 191 191 191 191 192 193 196 198 200 202 204 206 206 206 205 211 186 103 109 138 0 0 0 0 0 0 0 0 0 192 191 172 117 86 94 116 132 122 124 70 47 51 78 72 75 72 43 52 12 19 86 76 62 84 55 79 57 66 63 17 42 59 58 64 79 44 32 58 66 74 0 0 0 0 0 0 0 0 0 59 37 32 84 68 47 28 21 17 85 92 68 98 77 55 17 9 4 25 123 173 189 190 190 193 193 193 192 189 186 183 179 173 166 160 155 148 139 133 129 126 126 0 0 0 
0 0 0 0 0 0 223 225 229 230 230 230 227 227 227 226 223 220 219 217 215 211 206 203 198 195 191 191 191 191 192 195 196 199 200 203 205 206 209 209 210 209 211 151 112 135 0 0 0 0 0 0 0 0 0 216 210 150 94 71 95 142 151 121 83 70 64 59 89 74 63 71 37 47 32 31 66 106 76 79 43 109 92 81 97 28 28 78 76 51 79 83 78 61 55 84 0 0 0 0 0 0 0 0 0 83 28 65 81 62 32 19 29 48 64 51 72 86 102 76 37 24 9 19 133 180 182 184 191 192 195 195 192 190 186 183 179 173 165 159 155 148 139 133 128 125 125 0 0 0 
0 0 0 0 0 0 223 225 229 230 230 230 229 229 229 225 224 222 219 217 215 211 206 203 198 195 191 191 191 191 192 195 196 199 200 204 205 206 209 209 209 207 215 171 116 126 0 0 0 0 0 0 0 0 0 206 184 153 145 126 115 131 160 138 85 103 117 47 71 75 76 104 72 44 29 16 70 72 76 74 71 130 83 94 84 70 34 89 65 63 81 81 62 57 54 85 0 0 0 0 0 0 0 0 0 78 43 66 81 35 31 52 58 75 70 58 83 90 82 65 95 66 15 9 85 153 168 184 191 192 195 195 192 190 186 183 179 173 165 159 155 148 139 133 128 125 125 0 0 0 
0 0 0 0 0 0 225 227 229 231 231 231 231 230 230 229 225 223 220 218 216 212 209 204 199 196 192 191 192 192 192 195 197 199 202 204 205 207 209 210 210 210 211 196 61 55 0 0 0 0 0 0 0 0 0 193 158 156 153 157 146 122 157 135 78 65 90 43 45 97 88 86 55 45 28 30 74 29 64 101 54 119 66 62 118 90 37 25 41 59 78 79 37 44 82 55 0 0 0 0 0 0 0 0 0 83 58 84 58 36 50 56 50 65 81 78 86 103 66 78 89 45 24 5 38 130 163 184 191 193 195 195 192 190 186 183 179 173 166 160 155 149 141 135 129 125 125 0 0 0 
0 0 0 0 0 0 0 0 0 0 0 0 0 0 0 0 0 0 0 0 0 0 0 0 0 0 0 0 0 0 0 0 0 0 0 0 0 0 0 0 0 0 0 0 0 0 0 0 0 0 0 0 0 0 0 164 170 179 166 122 116 133 142 135 79 42 79 50 61 77 47 58 71 64 57 70 98 85 18 85 78 116 98 123 139 130 57 38 55 54 88 97 55 55 78 55 0 0 0 0 0 0 0 0 0 122 45 38 59 70 54 42 65 47 59 64 97 75 61 59 48 39 44 21 29 109 172 185 186 191 193 193 192 190 188 184 179 173 168 162 156 149 142 133 129 125 126 0 0 0 
0 0 0 0 0 0 0 0 0 0 0 0 0 0 0 0 0 0 0 0 0 0 0 0 0 0 0 0 0 0 0 0 0 0 0 0 0 0 0 0 0 0 0 0 0 0 0 0 0 0 0 0 0 0 0 159 180 182 173 183 180 158 124 95 97 66 68 88 27 58 45 69 69 74 84 82 71 112 45 57 74 135 72 119 159 116 75 41 32 43 75 82 69 86 61 45 0 0 0 0 0 0 0 0 0 101 38 81 97 52 55 49 54 51 50 58 89 83 65 44 51 32 32 32 10 70 163 171 184 192 193 193 192 190 188 184 179 173 168 162 156 149 142 133 129 125 126 0 0 0 
0 0 0 0 0 0 0 0 0 0 0 0 0 0 0 0 0 0 0 0 0 0 0 0 0 0 0 0 0 0 0 0 0 0 0 0 0 0 0 0 0 0 0 0 0 0 0 0 0 0 0 0 0 0 0 166 182 171 164 180 173 143 113 76 71 68 23 47 65 50 102 42 48 48 78 128 108 131 77 70 63 110 63 77 109 121 124 61 42 48 69 64 48 71 76 27 0 0 0 0 0 0 0 0 0 54 83 104 98 99 81 64 64 63 36 57 68 75 64 45 47 28 16 14 9 44 133 171 189 191 192 193 193 190 189 185 179 173 168 160 156 150 141 135 130 128 128 0 0 0 
0 0 0 0 0 0 0 0 0 0 0 0 0 0 0 0 0 0 0 0 0 0 0 0 0 0 0 0 0 0 0 0 0 0 0 0 0 0 0 0 0 0 0 0 0 0 0 0 0 0 0 0 0 0 0 148 155 176 159 148 139 69 39 62 66 62 57 54 79 90 65 49 62 52 86 126 108 106 89 47 54 79 86 88 96 89 123 106 83 59 65 65 62 76 81 48 0 0 0 0 0 0 0 0 0 115 117 97 95 64 54 44 43 58 63 43 54 58 74 64 38 24 21 18 7 29 135 183 183 189 192 195 193 190 189 184 180 175 169 162 156 150 142 135 131 126 126 0 0 0 
0 0 0 0 0 0 0 0 0 0 0 0 0 0 0 0 0 0 0 0 0 0 0 0 0 0 0 0 0 0 0 0 0 0 0 0 0 0 0 0 0 0 0 0 0 0 0 0 0 0 0 0 0 0 0 163 136 153 166 149 139 106 91 59 48 47 86 79 69 98 36 66 48 39 85 103 77 99 92 56 68 70 62 22 43 44 72 118 76 68 37 52 45 48 54 96 0 0 0 0 0 0 0 0 0 81 85 74 77 37 49 32 48 71 96 71 75 82 62 49 29 10 22 10 3 39 150 166 178 189 193 195 193 190 189 184 180 175 169 162 156 150 142 135 131 128 128 0 0 0 
0 0 0 0 0 0 0 0 0 0 0 0 0 0 0 0 0 0 0 0 0 0 0 0 0 0 0 0 0 0 0 0 0 0 0 0 0 0 0 0 0 0 0 0 0 0 0 0 0 0 0 0 0 0 0 203 207 184 153 135 105 76 86 99 99 71 98 88 71 69 106 69 63 47 123 118 58 66 104 75 56 66 95 54 30 27 28 95 85 61 78 30 41 27 56 86 0 0 0 0 0 0 0 0 0 102 97 136 115 99 72 63 88 88 102 108 101 59 39 24 19 16 9 8 3 17 95 162 183 186 195 195 193 190 189 184 180 176 169 162 156 150 142 136 131 128 128 0 0 0 
0 0 0 0 0 0 0 0 0 0 0 0 0 0 0 0 0 0 0 0 0 0 0 0 0 0 0 0 0 0 0 0 0 0 0 0 0 0 0 0 0 0 0 0 0 0 0 0 0 0 0 0 0 0 0 184 186 172 112 62 79 88 78 91 112 88 64 44 81 76 89 98 54 72 113 118 37 37 105 64 37 72 98 92 62 16 34 78 132 79 59 24 16 21 44 57 0 0 0 0 0 0 0 0 0 122 117 102 92 99 72 71 63 108 103 83 59 30 30 17 22 12 5 7 7 10 102 166 176 190 195 195 193 191 188 185 182 177 169 163 157 150 142 136 131 128 128 0 0 0 
0 0 0 0 0 0 0 0 0 0 0 0 0 0 0 0 0 0 0 0 0 0 0 0 0 0 0 0 0 0 0 0 0 0 0 0 0 0 0 0 0 0 0 0 0 0 0 0 0 0 0 0 0 0 0 169 166 168 118 36 30 45 83 130 98 75 118 63 86 109 103 95 45 59 90 115 23 9 110 98 61 66 92 121 101 11 51 96 103 110 52 21 7 7 17 62 0 0 0 0 0 0 0 0 0 98 106 128 141 113 61 66 103 76 43 37 39 42 28 15 19 24 14 2 8 7 70 145 176 192 191 193 195 191 188 185 182 177 169 163 157 150 142 136 131 128 128 0 0 0 
0 0 0 0 0 0 0 0 0 0 0 0 0 0 0 0 0 0 0 0 0 0 0 0 0 0 0 0 0 0 0 0 0 0 0 0 0 0 0 0 0 0 0 0 0 0 0 0 0 0 0 0 0 0 0 118 137 116 88 49 21 82 71 74 99 104 105 109 106 119 103 71 84 28 105 116 63 4 94 77 66 59 57 126 102 30 57 126 109 110 83 21 12 1 5 64 0 0 0 0 0 0 0 0 0 110 129 130 91 58 42 62 68 23 23 7 8 15 23 17 14 18 15 14 7 2 43 137 179 185 192 195 193 191 188 185 182 176 169 163 157 150 142 135 131 128 128 0 0 0 
0 0 0 0 0 0 0 0 0 0 0 0 0 0 0 0 0 0 0 0 0 0 0 0 0 0 0 0 0 0 0 0 0 0 0 0 0 0 0 0 0 0 0 0 0 0 0 0 0 0 0 0 0 0 0 103 122 86 59 85 56 65 131 75 102 129 98 79 101 96 62 44 106 70 63 129 116 31 63 69 69 41 37 111 159 62 50 105 130 106 110 51 11 3 3 17 0 0 0 0 0 0 0 0 0 105 89 63 37 18 14 24 62 43 11 8 3 1 1 5 9 11 24 18 5 2 48 138 165 186 192 192 193 191 188 185 182 177 170 163 157 151 143 136 131 128 129 0 0 0 
0 0 0 0 0 0 0 0 0 0 0 0 0 0 0 0 0 0 0 0 0 0 0 0 0 0 0 0 0 0 0 0 0 0 0 0 0 0 0 0 0 0 0 0 0 0 0 0 0 0 0 0 0 0 0 132 125 118 70 54 62 72 137 139 85 83 79 119 109 102 79 27 32 89 68 104 137 47 55 66 74 16 12 65 157 99 69 122 160 132 111 64 18 4 4 8 0 0 0 0 0 0 0 0 0 86 47 38 61 47 64 113 123 98 76 38 19 7 4 5 5 8 16 8 3 2 31 105 172 189 189 193 193 192 188 185 182 177 170 163 157 151 144 136 131 129 129 0 0 0 
0 0 0 0 0 0 0 0 0 0 0 0 0 0 0 0 0 0 0 0 0 0 0 0 0 0 0 0 0 0 0 0 0 0 0 0 0 0 0 0 0 0 0 0 0 0 0 0 0 0 0 0 0 0 0 155 163 137 85 68 116 108 116 149 77 75 83 105 149 106 84 62 8 22 47 98 131 66 31 98 85 5 36 43 116 101 45 128 153 96 103 75 45 5 7 3 0 0 0 0 0 0 0 0 0 24 10 63 139 144 166 168 138 135 62 28 21 22 11 8 7 5 4 2 2 3 31 125 170 182 191 196 195 192 189 185 182 177 171 163 157 151 145 137 132 129 129 0 0 0 
0 0 0 0 0 0 0 238 240 242 242 243 242 242 242 239 237 235 232 229 226 223 219 215 210 205 202 199 198 198 198 198 200 203 206 209 210 212 215 216 216 216 217 217 216 216 216 215 210 199 0 0 0 0 0 143 115 94 84 74 142 125 102 116 102 97 92 103 116 124 62 56 35 2 27 116 132 88 15 106 92 54 57 79 111 130 92 55 133 111 101 86 39 11 3 4 0 0 0 0 0 0 0 0 0 18 8 69 175 175 175 155 96 75 50 32 17 21 16 9 4 2 1 2 3 1 36 130 168 186 193 191 192 192 189 186 182 178 172 164 158 152 145 138 133 129 129 0 0 0 
0 0 0 0 0 0 0 238 240 242 242 243 243 242 242 239 237 235 232 229 226 223 219 215 210 205 202 199 198 198 198 198 200 203 206 209 210 212 215 216 216 216 217 217 216 216 216 216 212 206 0 0 0 0 0 144 92 111 116 91 125 101 116 123 95 108 81 102 129 106 92 50 18 5 5 94 119 128 45 77 78 83 66 85 98 99 112 70 88 135 84 75 72 25 19 17 0 0 0 0 0 0 0 0 0 27 15 94 190 188 172 111 91 82 57 59 22 15 19 17 17 12 7 2 3 4 25 94 160 177 185 191 193 191 189 186 182 178 172 165 159 152 145 138 133 130 131 0 0 0 
0 0 0 0 0 0 0 239 242 243 243 244 244 244 243 240 238 235 232 230 226 224 220 216 210 206 203 200 198 198 198 198 200 203 206 209 211 213 215 216 216 217 218 218 218 216 215 213 209 204 0 0 0 0 0 122 98 116 116 90 102 97 83 94 82 75 65 34 83 98 97 62 24 7 0 56 122 136 75 59 76 82 63 69 90 88 104 95 56 97 91 79 88 71 58 32 0 0 0 0 0 0 0 0 0 50 32 132 210 186 132 95 92 66 82 64 27 17 19 18 23 22 15 9 10 8 11 83 160 184 193 193 192 192 190 188 183 179 172 165 159 152 146 139 135 131 131 0 0 0 
0 0 0 0 0 0 0 239 243 244 244 244 244 244 244 242 238 236 233 231 227 225 220 217 211 205 203 202 199 199 199 199 202 204 206 210 212 213 216 216 217 218 218 218 218 217 215 212 209 203 0 0 0 0 0 104 122 148 111 116 97 98 133 104 125 78 63 51 61 118 137 82 25 12 5 68 119 124 123 91 115 89 62 77 103 85 90 78 75 70 61 82 86 95 76 21 0 0 0 0 0 0 0 0 0 89 39 158 213 184 106 63 83 69 63 51 25 23 18 25 21 22 24 18 14 5 39 145 182 186 186 190 192 191 189 185 180 176 170 165 159 153 146 141 136 132 132 0 0 0 
0 0 0 0 0 0 0 239 243 244 244 244 244 244 244 242 238 236 233 231 229 225 220 217 211 205 203 202 199 199 199 199 202 204 206 210 212 213 216 216 217 218 218 218 218 217 216 217 216 211 0 0 0 0 0 126 164 130 62 94 132 136 135 129 148 169 115 83 82 86 142 118 39 8 4 32 88 113 101 105 94 84 55 61 71 71 78 77 81 50 55 74 115 117 71 1 0 0 0 0 0 0 0 0 0 78 59 191 192 130 77 63 56 54 43 21 29 17 18 35 22 23 23 19 21 16 38 119 157 168 186 195 192 189 188 185 184 179 173 166 159 155 148 141 136 132 132 0 0 0 
0 0 0 0 0 0 0 240 243 244 244 245 244 244 244 243 239 237 235 232 230 226 222 218 212 206 204 203 200 199 199 200 203 205 207 210 212 213 216 217 218 219 219 219 218 217 217 217 217 217 0 0 0 0 0 136 139 118 98 102 119 123 135 159 146 151 117 89 106 151 144 138 94 29 7 11 78 104 78 57 92 81 77 77 72 75 94 116 72 51 55 74 135 135 68 1 0 0 0 0 0 0 0 0 0 42 158 195 158 92 45 27 84 85 4 10 29 29 38 58 39 36 35 28 27 15 21 88 152 180 189 192 192 191 188 185 183 178 172 166 159 155 148 141 136 132 133 0 0 0 
0 0 0 0 0 0 0 242 244 245 245 246 245 245 245 243 240 238 236 232 229 226 223 218 213 207 205 203 200 200 200 200 203 205 209 210 212 213 216 217 219 219 219 218 217 218 218 218 218 218 0 0 0 0 0 165 150 160 121 89 98 94 117 170 153 112 94 99 110 129 151 152 128 62 3 10 66 97 70 47 68 105 74 88 103 84 77 79 81 45 59 99 149 163 74 0 0 0 0 0 0 0 0 0 0 109 199 172 126 50 62 69 83 48 34 31 31 32 35 45 39 31 35 22 7 7 47 124 179 192 193 193 191 190 188 185 180 178 171 164 159 153 146 141 136 133 133 0 0 0 
0 0 0 0 0 0 0 242 244 246 246 246 246 245 245 243 240 238 236 232 229 226 223 218 215 207 205 203 200 200 200 200 203 205 209 210 212 213 216 217 219 219 218 219 219 218 218 218 218 218 0 0 0 0 0 122 129 146 136 110 83 125 156 186 133 113 99 88 109 109 108 116 122 106 63 59 83 62 71 71 63 106 79 65 91 86 90 83 85 52 54 116 172 199 89 0 0 0 0 0 0 0 0 0 0 196 124 78 75 54 78 79 42 83 48 30 19 12 17 29 31 30 17 10 22 31 36 102 160 180 190 193 195 192 189 186 182 177 171 164 159 153 145 141 137 133 133 0 0 0 
0 0 0 0 0 0 0 244 246 246 246 247 247 247 246 244 240 238 236 233 230 226 224 219 213 207 205 203 200 200 200 200 203 205 207 211 213 215 216 218 219 218 218 220 220 219 218 218 218 218 0 0 0 0 0 71 135 146 158 119 96 105 124 111 116 81 58 48 37 8 0 0 71 41 55 76 103 129 117 116 84 70 66 76 94 92 83 77 81 77 50 111 188 216 89 0 0 0 0 0 0 0 0 0 0 139 117 95 86 108 108 105 85 76 21 11 22 17 12 10 3 7 21 35 24 8 28 124 172 186 193 195 195 192 190 186 183 179 173 165 159 155 148 142 137 133 133 0 0 0 
0 0 0 0 0 0 0 244 246 247 247 247 247 247 247 244 240 239 237 235 231 227 224 219 213 209 205 203 202 200 202 202 203 206 207 211 213 216 217 218 219 218 222 222 220 219 219 218 219 218 0 0 0 0 0 71 116 144 164 150 97 69 71 36 56 89 34 17 19 16 2 2 2 0 0 0 1 32 146 196 160 97 92 82 102 103 83 83 84 98 70 109 189 212 78 0 0 0 0 0 0 0 0 0 0 98 110 119 136 121 88 105 85 34 17 19 9 5 1 5 28 37 25 7 3 4 31 121 163 183 190 192 191 189 188 186 184 179 173 168 160 155 148 142 137 135 135 0 0 0 
0 0 0 0 0 0 0 244 246 247 247 247 247 247 247 244 240 239 237 235 231 227 224 219 213 209 205 203 202 200 202 202 203 206 207 211 213 216 218 218 219 220 222 222 220 219 219 218 219 219 0 0 0 0 0 88 75 118 133 82 57 41 18 37 111 179 59 3 43 32 0 2 2 3 4 4 5 21 28 190 231 171 115 101 95 103 88 62 79 95 75 88 172 184 43 0 0 0 0 0 0 0 0 0 0 115 91 99 91 51 49 27 17 21 22 11 5 11 42 55 37 10 1 5 10 9 23 97 158 184 189 192 192 191 191 189 185 180 177 168 160 156 148 142 137 135 135 0 0 0 
0 0 0 0 0 0 0 245 247 249 249 249 249 249 247 245 243 240 238 236 232 229 224 220 215 209 205 203 202 202 202 202 203 205 209 211 213 216 217 218 220 220 222 222 222 219 219 219 219 219 0 0 0 0 0 70 90 98 68 35 55 103 130 151 182 217 141 7 28 64 27 0 2 2 4 0 17 65 14 88 246 215 142 119 82 96 111 76 83 122 117 79 110 158 41 0 0 0 0 0 0 0 0 0 0 124 98 135 82 78 51 17 27 37 22 16 17 47 51 28 10 8 9 5 0 1 24 77 128 158 168 176 180 184 184 182 180 177 173 168 160 156 150 143 139 136 135 0 0 0 
0 0 0 0 0 0 0 246 249 250 250 250 249 249 247 245 244 240 239 236 232 230 225 222 216 210 206 204 202 202 202 202 204 206 210 211 213 216 218 219 219 222 222 222 222 220 219 219 220 220 0 0 0 0 0 77 97 65 12 24 106 176 191 183 198 223 223 78 1 61 88 30 0 0 0 8 82 70 10 9 182 227 156 99 86 77 96 79 75 92 99 103 95 96 32 0 0 0 0 0 0 0 0 0 0 143 130 96 79 68 57 41 18 11 15 9 14 19 14 16 9 2 0 12 45 66 62 36 24 51 99 141 162 172 172 170 171 170 168 164 160 156 149 143 139 137 137 0 0 0 
0 0 0 0 0 0 0 246 249 250 250 250 249 249 247 245 244 240 239 236 232 230 225 222 216 210 206 204 202 202 202 202 204 206 210 211 213 216 218 219 219 222 222 222 222 220 219 219 220 220 0 0 0 0 0 108 96 68 31 30 139 189 173 163 210 238 235 180 41 7 83 129 64 42 50 109 126 31 8 0 61 216 152 113 106 89 95 102 90 74 78 85 85 76 49 3 0 0 0 0 0 0 0 0 0 128 149 79 69 70 38 38 38 21 11 8 11 17 15 3 5 28 59 70 52 19 0 0 1 5 22 39 62 95 129 151 155 162 165 162 160 156 149 143 139 136 137 0 0 0 
0 0 0 0 0 0 0 247 250 251 251 251 250 249 249 246 243 240 239 236 235 230 226 222 216 210 207 204 203 202 202 203 204 207 210 212 215 217 218 219 220 222 223 223 223 222 220 220 220 220 0 0 0 0 0 160 76 42 25 48 141 153 125 103 162 195 210 230 185 72 21 38 62 55 52 52 3 10 17 9 8 126 168 133 101 76 72 96 86 75 70 65 61 50 47 29 0 0 0 0 0 0 0 0 0 113 97 71 39 47 57 39 15 3 12 18 10 5 23 55 74 66 36 10 1 2 4 2 1 2 0 0 0 25 98 149 163 166 164 160 158 155 149 144 139 135 137 0 0 0 
0 0 0 0 0 0 0 249 251 251 251 251 251 250 249 246 244 242 239 237 235 231 226 223 217 211 206 205 204 203 203 203 205 207 210 213 215 217 219 220 222 223 223 224 223 223 222 222 222 222 0 0 0 0 0 216 159 47 11 27 121 144 97 118 123 104 143 182 212 213 152 90 37 18 16 27 101 139 37 29 9 44 141 141 84 69 68 72 71 72 75 51 47 38 28 37 0 0 0 0 0 0 0 0 0 96 77 84 78 81 43 7 16 27 18 3 22 68 86 61 31 14 11 16 12 8 5 4 3 2 2 2 2 5 37 86 111 126 135 146 150 150 148 144 139 133 138 0 0 0 
0 0 0 0 0 0 0 249 251 251 251 251 251 251 249 246 244 242 239 237 235 231 226 223 218 212 206 205 204 203 203 203 205 207 210 213 215 217 219 220 222 223 223 224 223 223 223 222 222 222 0 0 0 0 0 212 203 106 38 90 104 109 126 99 44 23 39 61 104 149 166 197 175 178 179 202 238 205 65 62 11 15 102 95 75 81 86 74 86 83 81 55 51 31 18 11 0 0 0 0 0 0 0 0 0 118 95 110 66 43 21 24 23 11 23 71 94 63 31 17 19 12 3 2 1 1 0 0 0 1 1 2 1 1 0 0 15 69 113 144 150 150 146 142 136 133 137 0 0 0 
0 0 0 0 0 0 0 249 251 252 251 251 251 251 250 247 245 242 240 238 235 232 227 223 218 212 207 205 204 204 204 204 206 207 210 213 216 217 219 220 222 223 224 224 224 223 222 222 222 223 0 0 0 0 0 223 220 198 115 99 105 79 109 128 111 74 42 78 62 68 71 101 126 146 179 222 235 197 97 49 15 32 91 71 63 109 116 82 92 95 82 76 58 36 17 10 0 0 0 0 0 0 0 0 0 102 70 74 27 19 23 16 16 42 72 44 9 9 23 31 32 50 49 47 41 30 29 24 18 9 2 0 0 1 2 3 3 11 39 95 129 139 137 137 130 132 137 0 0 0 
0 0 0 0 0 0 0 250 252 252 252 252 251 251 249 247 245 243 240 238 236 232 227 224 218 212 207 205 205 205 204 204 206 207 210 213 216 217 219 222 223 223 224 224 224 223 223 223 223 223 0 0 0 0 0 226 224 215 176 130 155 137 64 98 162 117 90 113 78 83 105 89 99 91 77 111 153 156 123 77 43 49 77 61 74 109 96 96 95 92 84 70 47 34 22 16 0 0 0 0 0 0 0 0 0 96 70 49 89 138 123 70 30 10 12 29 55 65 64 62 55 44 28 24 30 35 32 25 27 28 30 21 8 0 0 2 3 4 3 27 76 106 121 128 124 130 136 0 0 0 
0 0 0 0 0 0 0 250 252 252 252 252 251 251 249 247 245 243 240 238 236 232 227 224 218 212 207 205 205 205 204 204 206 207 210 213 216 217 219 222 223 223 224 224 224 223 223 223 223 223 0 0 0 0 0 0 0 0 0 0 0 0 0 0 0 0 0 0 0 0 0 0 0 0 0 0 0 0 0 0 0 0 0 0 0 0 0 0 0 0 0 0 0 0 0 0 0 0 0 0 0 0 0 0 0 98 35 94 177 155 91 50 52 61 66 66 49 36 28 23 19 21 25 12 5 7 10 12 7 3 2 14 23 18 4 0 5 8 4 3 11 45 94 125 122 131 129 0 0 0 
0 0 0 0 0 0 0 250 252 253 252 252 252 252 250 247 245 243 242 238 236 233 229 224 218 212 209 206 205 205 204 204 206 207 210 213 216 218 219 222 223 223 225 225 224 223 223 223 223 223 0 0 0 0 0 0 0 0 0 0 0 0 0 0 0 0 0 0 0 0 0 0 0 0 0 0 0 0 0 0 0 0 0 0 0 0 0 0 0 0 0 0 0 0 0 0 0 0 0 0 0 0 0 0 0 59 135 179 168 130 96 83 74 64 57 50 52 42 35 35 32 25 25 35 34 23 17 12 15 15 12 2 8 11 32 39 29 30 2 4 3 14 45 94 121 137 128 0 0 0 
0 0 0 0 0 0 0 250 253 253 253 253 252 252 251 247 245 243 242 239 236 233 229 225 219 213 209 206 206 205 205 205 205 207 211 215 217 218 219 222 223 224 225 225 225 224 223 223 223 223 0 0 0 0 0 0 0 0 0 0 0 0 0 0 0 0 0 0 0 0 0 0 0 0 0 0 0 0 0 0 0 0 0 0 0 0 0 0 0 0 0 0 0 0 0 0 0 0 0 0 0 0 0 0 0 164 173 117 94 113 89 48 52 51 57 44 51 48 45 42 37 24 21 17 11 8 18 14 5 10 15 17 35 2 37 62 54 49 22 7 7 29 14 36 81 116 118 0 0 0 
0 0 0 0 0 0 0 250 253 253 253 253 252 252 251 247 245 243 242 239 236 233 229 225 219 213 209 206 206 205 205 205 205 207 211 215 217 218 219 222 223 224 225 225 225 224 223 223 223 223 0 0 0 0 0 0 0 0 0 0 0 0 0 0 0 0 0 0 0 0 0 0 0 0 0 0 0 0 0 0 0 0 0 0 0 0 0 0 0 0 0 0 0 0 0 0 0 0 0 0 0 0 0 0 0 162 108 72 108 113 52 19 24 30 35 25 17 14 5 3 5 3 16 12 18 1 11 19 24 8 0 7 35 23 52 30 64 39 18 8 25 32 18 25 35 72 71 0 0 0 
0 0 0 0 0 0 0 251 252 253 253 253 252 252 251 249 246 244 242 239 237 233 229 225 220 215 210 207 205 205 205 205 205 207 211 215 217 218 219 222 223 224 226 226 226 224 223 223 223 222 0 0 0 0 0 0 0 0 0 0 0 0 0 0 0 0 0 0 0 0 0 0 0 0 0 0 0 0 0 0 0 0 0 0 0 0 0 0 0 0 0 0 0 0 0 0 0 0 0 0 0 0 0 0 0 86 94 108 106 55 49 56 37 34 39 34 27 19 31 21 12 18 55 47 35 8 14 23 35 16 31 37 22 41 39 22 66 48 27 37 37 57 14 35 48 24 29 0 0 0 
0 0 0 0 0 0 0 251 252 253 253 253 252 252 250 247 246 245 243 239 237 233 230 225 222 216 211 209 206 205 205 206 206 209 211 215 217 218 219 222 224 224 226 226 226 225 224 224 223 223 0 0 0 0 0 0 0 0 0 0 0 0 0 0 0 0 0 0 0 0 0 0 0 0 0 0 0 0 0 0 0 0 0 0 0 0 0 0 0 0 0 0 0 0 0 0 0 0 0 0 0 0 0 0 0 111 122 71 45 54 49 59 62 48 48 37 42 37 18 19 27 31 37 78 45 28 31 44 66 32 38 54 22 34 9 66 54 10 39 68 42 48 27 56 48 59 71 0 0 0 
0 0 0 0 0 0 0 251 252 253 253 253 252 252 250 247 246 245 243 239 237 233 230 225 222 216 211 209 206 205 205 206 206 209 211 215 217 218 219 222 224 224 226 226 226 225 225 224 223 224 0 0 0 0 0 0 0 0 0 0 0 0 0 0 0 0 0 0 0 0 0 0 0 0 0 0 0 0 0 0 0 0 0 0 0 0 0 0 0 0 0 0 0 0 0 0 0 0 0 0 0 0 0 0 0 155 94 30 45 15 5 21 12 7 0 0 1 44 23 17 3 25 7 57 59 56 45 43 72 38 17 55 35 16 41 69 18 31 85 64 44 62 49 56 78 88 91 0 0 0 
0 0 0 0 0 0 0 251 253 255 253 253 253 253 251 249 247 244 243 239 238 235 230 226 222 216 211 209 207 206 205 206 206 209 211 215 216 219 220 223 224 225 226 226 226 225 224 223 224 224 0 0 0 0 0 0 0 0 0 0 0 0 0 0 0 0 0 0 0 0 0 0 0 0 0 0 0 0 0 0 0 0 0 0 0 0 0 0 0 0 0 0 0 0 0 0 0 0 0 0 0 0 0 0 0 92 89 66 76 82 57 54 59 28 35 27 8 4 31 54 61 51 31 42 52 39 64 37 69 29 58 115 49 23 74 62 22 75 103 55 61 97 51 84 70 38 76 0 0 0 
0 0 0 0 0 0 0 251 253 255 255 253 252 252 251 249 247 245 243 240 237 235 230 226 222 216 212 209 209 206 206 206 206 209 211 215 216 219 220 223 224 225 226 226 226 224 223 224 224 223 0 0 0 0 0 0 0 0 0 0 0 0 0 0 0 0 0 0 0 0 0 0 0 0 0 0 0 0 0 0 0 0 0 0 0 0 0 0 0 0 0 0 0 0 0 0 0 0 0 0 0 0 0 0 0 82 47 23 22 35 29 11 34 51 38 70 57 19 30 31 74 83 50 63 48 36 63 57 56 39 112 143 65 82 69 56 71 105 56 56 104 85 58 70 52 78 101 0 0 0 
0 0 0 0 0 0 0 251 253 255 255 253 252 252 251 249 247 245 243 240 237 235 230 226 222 216 212 209 209 206 206 206 206 209 211 215 216 219 220 223 224 225 226 226 226 224 224 224 224 223 0 0 0 0 0 0 0 0 0 0 0 0 0 0 0 0 0 0 0 0 0 0 0 0 0 0 0 0 0 0 0 0 0 0 0 0 0 0 0 0 0 0 0 0 0 0 0 0 0 0 0 0 0 0 0 72 34 38 57 45 39 34 14 30 24 59 50 38 63 47 51 49 39 86 51 66 74 70 66 42 88 104 81 97 50 89 96 71 44 54 81 70 51 51 70 113 71 0 0 0 
0 0 0 0 0 0 0 251 253 255 255 255 252 252 251 249 247 245 243 240 238 236 231 227 223 217 212 210 207 207 206 206 206 209 211 215 216 219 220 223 224 225 226 226 226 225 224 224 223 223 0 0 0 0 0 0 0 0 0 0 0 0 0 0 0 0 0 0 0 0 0 0 0 0 0 0 0 0 0 0 0 0 0 0 0 0 0 0 0 0 0 0 0 0 0 0 0 0 0 0 0 0 0 0 0 97 92 37 21 70 71 52 18 23 44 58 29 50 49 39 74 55 35 83 43 102 95 98 108 51 76 83 101 76 50 112 89 39 48 59 66 82 49 50 58 52 41 0 0 0 
0 0 0 0 0 0 0 252 253 255 255 255 253 252 251 250 247 246 244 242 239 236 231 227 223 218 213 210 207 207 206 205 206 209 211 215 216 218 222 223 224 225 226 226 226 225 223 224 224 224 0 0 0 0 0 0 0 0 0 0 0 0 0 0 0 0 0 0 0 0 0 0 0 0 0 0 0 0 0 0 0 0 0 0 0 0 0 0 0 0 0 0 0 0 0 0 0 0 0 0 0 0 0 0 0 41 56 81 38 30 55 43 39 56 42 62 50 38 34 47 90 51 50 77 47 116 99 102 61 91 82 82 106 77 78 90 66 38 42 72 39 58 52 51 39 43 49 0 0 0 
0 0 0 0 0 0 0 252 253 255 255 255 253 252 251 250 247 246 244 242 239 236 231 227 223 218 213 210 207 207 206 205 206 209 211 215 216 218 222 223 224 225 226 226 226 226 224 224 222 223 0 0 0 0 0 0 0 0 0 0 0 0 0 0 0 0 0 0 0 0 0 0 0 0 0 0 0 0 0 0 0 0 0 0 0 0 0 0 0 0 0 0 0 0 0 0 0 0 0 0 0 0 0 0 0 63 12 48 48 43 38 45 49 68 66 48 58 74 37 66 86 84 76 64 66 122 83 81 58 83 102 62 89 72 38 49 38 47 58 57 36 41 47 42 32 36 36 0 0 0 
0 0 0 0 0 0 0 252 253 255 255 255 253 252 252 250 249 246 244 242 239 237 232 229 224 218 213 210 207 207 206 206 206 209 211 215 217 218 222 223 223 224 225 225 226 226 224 220 223 225 0 0 0 0 0 0 0 0 0 0 0 0 0 0 0 0 0 0 0 0 0 0 0 0 0 0 0 0 0 0 0 0 0 0 0 0 0 0 0 0 0 0 0 0 0 0 0 0 0 0 0 0 0 0 0 70 79 69 97 49 68 63 78 42 36 55 63 101 70 88 112 101 82 71 103 99 79 65 70 69 88 54 71 48 27 57 48 56 49 43 27 41 25 18 22 30 22 0 0 0 
0 0 0 0 0 0 0 252 253 255 253 253 253 252 252 250 249 246 245 243 240 237 232 229 224 218 213 210 209 207 206 206 206 209 211 215 216 218 222 223 223 224 226 226 226 225 223 224 224 224 0 0 0 0 0 0 0 0 0 0 0 0 0 0 0 0 0 0 0 0 0 0 0 0 0 0 0 0 0 0 0 0 0 0 0 0 0 0 0 0 0 0 0 0 0 0 0 0 0 0 0 0 0 0 0 47 50 82 101 75 74 90 58 52 52 62 95 76 65 110 115 110 102 94 98 81 89 72 89 70 42 82 68 57 45 55 42 37 30 19 21 24 23 27 16 23 23 0 0 0 
0 0 0 0 0 0 0 252 253 255 253 253 253 252 252 250 249 246 245 243 240 237 232 229 224 218 213 210 209 207 206 206 206 209 211 215 216 218 222 223 223 224 226 226 226 224 224 224 224 224 0 0 0 0 0 0 0 0 0 0 0 0 0 0 0 0 0 0 0 0 0 0 0 0 0 0 0 0 0 0 0 0 0 0 0 0 0 0 0 0 0 0 0 0 0 0 0 0 0 0 0 0 0 0 0 47 30 38 91 75 70 64 74 77 48 68 95 97 51 113 95 106 83 70 75 90 105 96 66 86 55 57 39 47 45 34 34 29 30 30 27 21 30 24 19 34 32 0 0 0 
0 0 0 0 0 0 0 251 253 255 255 255 253 252 252 251 249 247 245 243 240 237 233 229 225 219 213 210 209 206 206 206 206 209 211 213 216 219 220 223 225 225 226 227 225 225 225 224 224 224 0 0 0 0 0 0 0 0 0 0 0 0 0 0 0 0 0 0 0 0 0 0 0 0 0 0 0 0 0 0 0 0 0 0 0 0 0 0 0 0 0 0 0 0 0 0 0 0 0 0 0 0 0 0 0 50 74 52 82 72 69 71 82 79 69 115 99 76 83 118 109 102 64 76 95 94 88 52 42 42 63 61 41 41 48 45 36 43 31 28 32 27 24 11 12 21 22 0 0 0 
0 0 0 0 0 0 0 251 253 255 255 255 253 252 252 251 249 247 246 243 240 237 233 230 224 218 215 211 210 207 206 206 206 209 211 215 216 219 220 223 224 225 226 226 225 226 224 224 223 224 0 0 0 0 0 0 0 0 0 0 0 0 0 0 0 0 0 0 0 0 0 0 0 0 0 0 0 0 0 0 0 0 0 0 0 0 0 0 0 0 0 0 0 0 0 0 0 0 0 0 0 0 0 0 0 36 71 59 70 79 78 79 79 59 95 110 99 69 90 89 72 92 103 95 72 39 39 30 34 34 50 58 42 52 45 41 25 31 29 25 28 24 16 11 8 12 14 0 0 0 
0 0 0 0 0 0 0 251 253 255 255 255 253 252 252 251 249 247 246 243 240 237 233 230 225 219 213 211 210 207 206 206 206 209 211 215 216 219 220 223 224 225 226 225 226 226 224 224 225 223 0 0 0 0 0 0 0 0 0 0 0 0 0 0 0 0 0 0 0 0 0 0 0 0 0 0 0 0 0 0 0 0 0 0 0 0 0 0 0 0 0 0 0 0 0 0 0 0 0 0 0 0 0 0 0 57 55 84 83 99 94 86 79 69 71 83 64 64 70 54 74 71 74 63 48 30 38 37 41 32 51 47 29 39 39 29 16 15 18 23 22 17 9 15 14 11 14 0 0 0 
0 0 0 0 0 0 0 252 253 255 255 255 255 255 252 251 249 247 245 244 242 238 233 230 225 219 215 211 210 207 206 206 206 209 211 215 217 218 220 223 224 225 226 226 227 226 226 224 224 224 0 0 0 0 0 0 0 0 0 0 0 0 0 0 0 0 0 0 0 0 0 0 0 0 0 0 0 0 0 0 0 0 0 0 0 0 0 0 0 0 0 0 0 0 0 0 0 0 0 0 0 0 0 0 0 77 83 75 76 99 85 77 89 52 57 78 38 55 65 79 74 44 27 25 54 31 37 49 43 29 32 30 22 35 25 15 15 16 22 22 18 19 14 14 25 21 12 0 0 0 
0 0 0 0 0 0 0 252 253 255 255 255 255 255 252 251 249 247 245 244 242 238 235 230 225 220 215 211 210 207 206 207 207 209 211 213 217 219 220 223 224 225 227 227 229 227 225 225 224 224 0 0 0 0 0 0 0 0 0 0 0 0 0 0 0 0 0 0 0 0 0 0 0 0 0 0 0 0 0 0 0 0 0 0 0 0 0 0 0 0 0 0 0 0 0 0 0 0 0 0 0 0 0 0 0 48 84 59 41 66 64 79 78 55 72 83 55 78 45 56 47 41 35 29 39 25 24 24 21 19 24 17 14 22 23 11 17 17 23 28 24 24 32 19 22 24 14 0 0 0 
0 0 0 0 0 0 0 252 253 255 255 255 255 255 252 251 249 247 245 244 242 238 235 230 225 220 215 211 210 207 206 207 207 209 211 213 217 219 220 223 224 225 227 227 229 229 225 225 225 222 0 0 0 0 0 0 0 0 0 0 0 0 0 0 0 0 0 0 0 0 0 0 0 0 0 0 0 0 0 0 0 0 0 0 0 0 0 0 0 0 0 0 0 0 0 0 0 0 0 0 0 0 0 0 0 70 47 41 29 51 52 88 92 112 108 83 70 68 31 36 38 41 41 42 39 21 18 14 14 14 23 24 15 15 22 19 21 24 23 28 28 22 25 27 12 14 17 0 0 0 
0 0 0 0 0 0 0 0 0 0 0 0 0 0 0 0 0 0 0 0 0 0 0 0 0 0 0 0 0 0 0 0 0 0 0 0 0 0 0 0 0 0 0 0 0 0 0 0 0 0 0 0 0 0 0 0 0 0 0 0 0 0 0 0 0 0 0 0 0 0 0 0 0 0 0 0 0 0 0 0 0 0 0 0 0 0 0 0 0 0 0 0 0 0 0 0 0 0 0 0 0 0 0 0 0 72 39 36 31 74 85 103 131 148 113 66 57 39 25 32 34 30 37 39 32 24 31 28 30 21 12 22 25 24 23 23 23 22 18 21 24 23 23 19 8 9 22 0 0 0 
0 0 0 0 0 0 0 0 0 0 0 0 0 0 0 0 0 0 0 0 0 0 0 0 0 0 0 0 0 0 0 0 0 0 0 0 0 0 0 0 0 0 0 0 0 0 0 0 0 0 0 0 0 0 0 0 0 0 0 0 0 0 0 0 0 0 0 0 0 0 0 0 0 0 0 0 0 0 0 0 0 0 0 0 0 0 0 0 0 0 0 0 0 0 0 0 0 0 0 0 0 0 0 0 0 0 0 0 0 0 0 0 0 0 0 0 0 0 0 0 0 0 0 0 0 0 0 0 0 0 0 0 0 0 0 0 0 0 0 0 0 0 0 0 0 0 0 0 0 0 
0 0 0 0 0 0 0 0 0 0 0 0 0 0 0 0 0 0 0 0 0 0 0 0 0 0 0 0 0 0 0 0 0 0 0 0 0 0 0 0 0 0 0 0 0 0 0 0 0 0 0 0 0 0 0 0 0 0 0 0 0 0 0 0 0 0 0 0 0 0 0 0 0 0 0 0 0 0 0 0 0 0 0 0 0 0 0 0 0 0 0 0 0 0 0 0 0 0 0 0 0 0 0 0 0 0 0 0 0 0 0 0 0 0 0 0 0 0 0 0 0 0 0 0 0 0 0 0 0 0 0 0 0 0 0 0 0 0 0 0 0 0 0 0 0 0 0 0 0 0 
0 0 0 0 0 0 0 0 0 0 0 0 0 0 0 0 0 0 0 0 0 0 0 0 0 0 0 0 0 0 0 0 0 0 0 0 0 0 0 0 0 0 0 0 0 0 0 0 0 0 0 0 0 0 0 0 0 0 0 0 0 0 0 0 0 0 0 0 0 0 0 0 0 0 0 0 0 0 0 0 0 0 0 0 0 0 0 0 0 0 0 0 0 0 0 0 0 0 0 0 0 0 0 0 0 0 0 0 0 0 0 0 0 0 0 0 0 0 0 0 0 0 0 0 0 0 0 0 0 0 0 0 0 0 0 0 0 0 0 0 0 0 0 0 0 0 0 0 0 0 
