P2
# testes/result-script2_2.pgm
150 100
255
0 0 0 0 0 0 0 0 0 0 0 0 0 0 0 0 0 0 0 0 0 0 0 0 0 0 0 0 0 0 0 0 0 0 0 0 0 0 0 0 0 0 0 0 0 0 0 0 0 0 0 0 0 0 0 0 0 0 0 0 0 0 0 0 0 0 0 0 0 0 0 0 0 0 0 0 0 0 0 0 0 0 0 0 0 0 0 0 0 0 0 0 0 0 0 0 0 0 0 0 0 0 0 0 0 0 0 0 0 0 0 0 0 0 0 0 0 0 0 0 0 0 0 0 0 0 0 0 0 0 0 0 0 0 0 0 0 0 0 0 0 0 0 0 0 0 0 0 0 0 
0 0 0 0 0 0 0 0 0 0 0 0 0 0 0 0 0 0 0 0 0 0 0 0 0 0 0 0 0 0 0 0 0 0 0 0 0 0 0 0 0 0 0 0 0 0 0 0 0 0 0 0 0 0 0 0 0 0 0 0 0 0 0 0 0 0 0 0 0 0 0 0 0 0 0 0 0 0 0 0 0 0 0 0 0 0 0 0 0 0 0 0 0 0 0 0 0 0 0 0 0 0 0 0 0 0 0 0 0 0 0 0 0 0 0 0 0 0 0 0 0 0 0 0 0 0 0 0 0 0 0 0 0 0 0 0 0 0 0 0 0 0 0 0 0 0 0 0 0 0 
0 0 0 0 0 0 0 0 0 0 0 0 0 0 0 0 0 0 0 0 0 0 0 0 0 0 0 0 0 0 0 0 0 0 0 0 0 0 0 0 0 0 0 0 0 0 0 0 0 0 0 0 0 0 0 0 0 0 0 0 0 0 0 0 0 0 0 0 0 0 0 0 0 0 0 0 0 0 0 0 0 0 0 0 0 0 0 0 0 0 0 0 0 0 0 0 0 0 0 0 0 0 0 0 0 0 0 0 0 0 0 0 0 0 0 0 0 0 0 0 0 0 0 0 0 0 0 0 0 0 0 0 0 0 0 0 0 0 0 0 0 0 0 0 0 0 0 0 0 0 
0 0 0 0 0 0 0 0 0 0 0 0 0 0 0 0 0 0 0 0 0 0 0 0 0 0 0 0 0 0 0 0 0 0 0 0 0 0 0 0 0 0 0 0 0 0 0 0 0 0 0 0 0 0 0 0 0 0 0 0 0 0 0 0 0 0 0 0 0 0 0 0 0 0 0 0 0 0 0 0 0 0 0 0 0 0 0 0 0 0 0 0 0 0 0 0 0 0 0 0 0 0 0 0 0 0 0 0 0 0 0 0 0 0 0 0 0 0 0 0 0 0 0 0 0 0 0 0 0 0 0 0 0 0 0 0 0 0 0 0 0 0 0 0 0 0 0 0 0 0 
0 0 0 0 0 0 0 0 0 0 0 0 0 0 0 0 0 0 0 0 0 0 0 0 0 0 0 0 0 0 0 0 0 0 0 0 0 0 0 0 0 0 0 0 0 0 0 0 0 0 0 0 0 0 0 0 0 0 0 0 0 0 0 0 0 0 0 0 0 0 0 0 0 0 0 0 0 0 0 0 0 0 0 0 0 0 0 0 0 0 0 0 0 0 0 0 0 0 0 0 0 0 0 0 0 0 0 0 0 0 0 0 0 0 0 0 0 0 0 0 0 0 0 0 0 0 0 0 0 0 0 0 0 0 0 0 0 0 0 0 0 0 0 0 0 0 0 0 0 0 
0 0 0 0 0 0 0 0 0 0 0 0 0 0 0 0 0 0 0 0 0 0 0 0 0 0 0 0 0 0 0 0 0 0 0 0 0 0 0 0 0 0 0 0 0 0 0 0 0 0 0 0 0 0 0 0 0 0 0 0 0 0 0 0 0 0 0 0 0 0 0 0 0 0 0 0 0 0 0 0 0 0 0 0 0 0 0 0 0 0 0 0 0 0 0 0 0 0 0 0 0 0 0 0 0 0 0 0 0 0 0 0 0 0 0 0 0 0 0 0 0 0 0 0 0 0 0 0 0 0 0 0 0 0 0 0 0 0 0 0 0 0 0 0 0 0 0 0 0 0 
0 0 0 0 0 0 199 207 187 203 156 110 107 134 144 147 122 143 190 184 143 142 139 25 127 118 102 103 124 144 201 209 122 125 112 101 194 194 158 163 170 142 116 186 209 160 0 0 0 0 0 0 0 0 0 0 0 0 0 0 0 0 0 0 0 0 0 0 0 0 0 0 0 0 0 0 0 0 0 0 0 0 0 0 0 0 0 0 0 0 0 0 0 0 0 0 0 0 0 0 0 0 0 0 0 0 0 0 0 0 0 0 0 0 0 0 0 0 0 0 0 0 0 0 0 0 0 0 0 0 0 0 0 0 0 0 0 0 0 0 0 0 0 0 0 0 0 0 0 0 
0 0 0 0 0 0 222 192 169 183 183 120 122 162 187 162 129 133 151 171 144 117 115 22 130 174 54 123 122 149 166 188 109 119 99 111 171 193 132 158 143 156 112 170 221 174 0 0 0 0 0 0 0 0 0 0 0 0 0 0 0 0 0 0 0 0 0 0 0 0 0 0 0 0 0 0 0 0 0 0 0 0 0 0 0 0 0 0 0 0 0 0 0 0 0 0 0 0 0 0 0 0 0 0 0 0 0 0 0 0 0 0 0 0 0 0 0 0 0 0 0 0 0 0 0 0 0 0 0 0 0 0 0 0 0 0 0 0 0 0 0 0 0 0 0 0 0 0 0 0 
0 0 0 0 0 0 182 164 133 163 172 153 98 137 164 153 137 136 119 114 139 139 99 32 115 133 114 98 140 110 172 193 119 134 160 136 119 172 112 130 181 177 135 151 153 151 0 0 0 0 0 0 0 0 0 0 0 0 0 0 0 0 0 0 0 0 0 0 0 0 0 0 0 0 0 0 0 0 0 0 0 0 0 0 0 0 0 0 0 0 0 0 0 0 0 0 0 0 0 0 0 0 0 0 0 85 102 106 115 119 120 123 126 128 129 130 131 154 168 164 168 169 169 170 172 175 175 176 175 176 179 179 180 180 180 180 180 182 185 188 189 193 159 33 22 24 60 0 0 0 
0 0 0 0 0 0 105 162 138 127 139 132 108 116 133 86 97 91 127 122 155 132 74 34 126 123 176 102 142 178 110 139 139 105 164 176 128 95 129 126 129 142 79 129 117 144 0 0 0 0 0 0 0 0 0 0 0 0 0 0 0 0 0 0 0 0 0 0 0 0 0 0 0 0 0 0 0 0 0 0 0 0 0 0 0 0 0 0 0 0 0 0 0 0 0 0 0 0 0 0 0 0 0 0 0 106 99 113 113 109 105 102 101 95 91 90 91 64 129 170 166 168 170 171 174 175 175 176 176 181 184 185 184 181 180 181 183 185 187 188 187 196 101 12 33 79 111 0 0 0 
0 0 0 0 0 0 115 181 184 163 128 132 103 89 99 93 84 89 106 92 112 108 44 31 142 135 166 207 94 168 138 147 114 119 189 223 172 166 171 131 192 97 147 192 167 111 0 0 0 0 0 0 0 0 0 0 0 0 0 0 0 0 0 0 0 0 0 0 0 0 0 0 0 0 0 0 0 0 0 0 0 0 0 0 0 0 0 0 0 0 0 0 0 0 0 0 0 0 0 0 0 0 0 0 0 157 176 184 180 179 179 177 177 176 176 175 176 140 81 168 167 170 173 173 173 172 174 177 179 179 182 183 182 182 182 184 185 185 185 185 188 186 44 23 72 91 132 0 0 0 
0 0 0 0 0 0 111 126 182 128 149 167 118 78 90 111 108 93 98 126 123 153 50 49 157 179 128 195 113 117 154 120 93 158 203 197 171 150 158 159 129 114 145 191 131 186 0 0 0 0 0 0 0 0 0 0 0 0 0 0 0 0 0 0 0 0 0 0 0 0 0 0 0 0 0 0 0 0 0 0 0 0 0 0 0 0 0 0 0 0 0 0 0 0 0 0 0 0 0 0 0 0 0 0 0 173 177 173 171 169 168 167 168 168 167 167 165 153 68 151 170 171 173 173 172 174 176 177 177 179 181 183 183 182 184 185 184 183 186 185 201 102 20 64 131 126 117 0 0 0 
0 0 0 0 0 0 130 133 162 167 153 155 165 81 85 102 120 98 100 176 153 116 58 67 160 154 103 135 146 82 133 111 138 131 153 136 146 133 158 190 150 92 202 144 149 217 0 0 0 0 0 0 0 0 0 0 0 0 0 0 0 0 0 0 0 0 0 0 0 0 0 0 0 0 0 0 0 0 0 0 0 0 0 0 0 0 0 0 0 0 0 0 0 0 0 0 0 0 0 0 0 0 0 0 0 176 174 173 172 172 172 172 170 171 170 169 170 137 29 139 173 171 174 175 177 180 179 177 179 180 181 182 182 184 185 185 185 187 188 205 109 18 66 119 126 108 108 0 0 0 
0 0 0 0 0 0 143 74 90 98 90 110 95 82 98 139 179 136 138 125 159 138 36 82 151 165 142 124 168 79 117 151 125 141 136 159 190 160 217 215 161 132 208 191 197 141 0 0 0 0 0 0 0 0 0 0 0 0 0 0 0 0 0 0 0 0 0 0 0 0 0 0 0 0 0 0 0 0 0 0 0 0 0 0 0 0 0 0 0 0 0 0 0 0 0 0 0 0 0 0 0 0 0 0 0 162 175 174 174 174 173 171 171 172 171 170 170 142 33 139 174 174 177 179 179 179 179 179 179 181 183 184 187 187 187 188 190 190 205 118 14 75 101 139 135 101 93 0 0 0 
0 0 0 0 0 0 160 112 146 137 147 107 80 63 84 96 154 138 143 165 161 128 35 88 110 153 154 113 167 124 91 147 128 168 151 125 159 141 170 185 147 144 153 189 233 196 0 0 0 0 0 0 0 0 0 0 0 0 0 0 0 0 0 0 0 0 0 0 0 0 0 0 0 0 0 0 0 0 0 0 0 0 0 0 0 0 0 0 0 0 0 0 0 0 0 0 0 0 0 0 0 0 0 0 0 163 168 162 167 175 173 173 174 174 173 171 171 147 34 134 173 173 175 177 176 177 178 179 181 184 185 189 189 188 193 197 186 196 127 17 75 122 109 114 122 80 65 0 0 0 
0 0 0 0 0 0 141 115 168 178 159 113 101 143 126 107 141 167 174 147 169 144 43 91 87 114 95 82 166 164 77 137 137 183 168 166 100 131 182 202 154 111 165 214 208 204 0 0 0 0 0 0 0 0 0 0 0 0 0 0 0 0 0 0 0 0 0 0 0 0 0 0 0 0 0 0 0 0 0 0 0 0 0 0 0 0 0 0 0 0 0 0 0 0 0 0 0 0 0 0 0 0 0 0 0 145 148 159 175 175 175 175 174 175 174 171 172 151 33 129 174 173 176 176 177 178 180 181 184 185 188 190 189 197 197 105 93 86 23 78 129 119 105 134 116 81 47 0 0 0 
0 0 0 0 0 0 152 132 149 191 142 133 116 184 155 145 143 137 119 111 108 106 41 111 143 127 161 98 110 114 78 99 141 193 193 130 159 120 191 179 98 101 144 192 242 236 0 0 0 0 0 0 0 0 0 0 0 0 0 0 0 0 0 0 0 0 0 0 0 0 0 0 0 0 0 0 0 0 0 0 0 0 0 0 0 0 0 0 0 0 0 0 0 0 0 0 0 0 0 0 0 0 0 0 0 97 129 173 178 175 178 176 174 175 174 173 173 154 37 129 176 175 177 177 179 182 183 185 185 185 187 188 196 199 125 103 82 16 53 112 133 133 117 99 96 68 45 0 0 0 
0 0 0 0 0 0 192 123 150 206 176 176 151 168 126 135 179 223 189 110 143 151 53 94 169 165 163 148 147 159 92 67 113 173 171 146 180 120 184 171 83 125 150 171 207 230 0 0 0 0 0 0 0 0 0 0 0 0 0 0 0 0 0 0 0 0 0 0 0 0 0 0 0 0 0 0 0 0 0 0 0 0 0 0 0 0 0 0 0 0 0 0 0 0 0 0 0 0 0 0 0 0 0 0 0 125 138 173 178 178 177 177 176 177 176 174 173 154 38 130 180 176 178 179 182 183 185 186 186 193 199 205 206 121 130 135 16 20 72 124 143 134 106 72 66 45 61 0 0 0 
0 0 0 0 0 0 149 142 108 191 195 179 147 155 152 150 228 179 203 184 140 125 28 96 206 209 152 126 110 119 155 113 60 177 131 132 166 157 159 151 106 187 202 223 239 241 0 0 0 0 0 0 0 0 0 0 0 0 0 0 0 0 0 0 0 0 0 0 0 0 0 0 0 0 0 0 0 0 0 0 0 0 0 0 0 0 0 0 0 0 0 0 0 0 0 0 0 0 0 0 0 0 0 0 0 140 172 165 169 173 179 177 178 178 177 176 173 156 38 131 182 177 181 183 183 186 188 187 195 168 146 158 124 126 144 41 24 68 79 133 147 124 88 44 44 63 56 0 0 0 
0 0 0 0 0 0 107 91 51 75 133 161 161 159 152 134 224 205 194 200 186 78 14 127 207 196 203 148 132 138 133 160 70 65 141 146 182 153 161 107 86 212 234 194 181 186 0 0 0 0 0 0 0 0 0 0 0 0 0 0 0 0 0 0 0 0 0 0 0 0 0 0 0 0 0 0 0 0 0 0 0 0 0 0 0 0 0 0 0 0 0 0 0 0 0 0 0 0 0 0 0 0 0 0 0 134 147 151 157 172 178 179 179 179 179 178 174 160 39 131 186 181 186 185 187 189 188 187 192 102 54 84 130 148 44 38 65 79 93 133 126 102 87 62 69 65 42 0 0 0 
0 0 0 0 0 0 169 148 118 101 80 114 91 166 152 137 217 216 186 178 217 96 17 152 190 169 200 204 142 127 122 127 166 43 110 200 176 121 158 160 58 155 183 177 181 164 0 0 0 0 0 0 0 0 0 0 0 0 0 0 0 0 0 0 0 0 0 0 0 0 0 0 0 0 0 0 0 0 0 0 0 0 0 0 0 0 0 0 0 0 0 0 0 0 0 0 0 0 0 0 0 0 0 0 0 141 130 148 166 162 180 180 180 179 180 178 174 165 42 129 186 183 186 187 191 189 187 190 87 38 77 158 156 46 35 72 72 74 105 111 103 90 96 88 172 110 93 0 0 0 
0 0 0 0 0 0 194 160 165 129 78 77 94 161 110 141 196 170 163 185 207 73 38 156 201 216 172 188 217 208 135 116 88 66 55 170 164 114 170 161 102 90 153 197 179 139 0 0 0 0 0 0 0 0 0 150 38 78 144 90 96 144 166 150 133 80 62 112 173 185 89 117 124 155 134 126 121 118 127 127 140 171 122 151 183 198 194 187 185 181 181 180 176 181 170 125 0 0 0 0 0 0 0 0 0 184 169 152 164 177 182 182 183 182 180 178 176 169 43 128 188 183 186 190 190 190 187 195 86 8 78 176 50 23 74 68 65 64 91 134 135 130 85 86 219 148 129 0 0 0 
0 0 0 0 0 0 149 163 179 131 141 184 116 77 149 166 167 149 150 148 156 36 55 188 213 185 172 188 199 226 203 201 114 83 58 100 145 128 169 172 138 74 131 138 137 130 0 0 0 0 0 0 0 0 0 85 15 50 84 119 121 146 173 147 83 64 92 135 168 194 146 92 97 116 139 154 97 103 93 155 140 148 145 94 185 193 190 188 185 182 182 184 180 171 141 132 0 0 0 0 0 0 0 0 0 155 176 172 182 182 182 183 184 184 183 181 179 170 42 128 190 186 190 191 191 192 198 147 35 38 85 66 26 65 62 67 83 81 116 124 120 91 74 98 212 154 137 0 0 0 
0 0 0 0 0 0 165 173 149 163 152 182 183 106 120 229 194 189 199 132 126 20 94 182 192 190 192 183 159 192 203 204 186 142 54 79 121 157 167 152 157 88 112 135 124 144 0 0 0 0 0 0 0 0 0 9 45 101 123 94 135 162 117 84 103 104 165 161 142 163 156 82 103 88 90 140 126 93 138 137 153 145 170 146 169 191 187 188 185 183 184 179 172 153 158 143 0 0 0 0 0 0 0 0 0 116 139 145 178 181 183 184 183 183 182 182 182 172 44 129 194 189 192 195 197 194 196 62 34 57 22 34 89 94 60 68 71 96 101 107 85 89 104 109 203 147 150 0 0 0 
0 0 0 0 0 0 166 140 129 164 193 170 177 167 75 156 200 173 206 187 116 48 152 157 165 176 165 165 129 122 172 187 166 172 110 51 79 109 155 181 182 107 161 151 137 114 0 0 0 0 0 0 0 0 0 29 118 162 156 90 133 122 74 103 89 103 151 145 168 176 147 134 104 87 99 117 114 90 112 132 146 177 187 150 176 192 189 187 186 185 182 178 167 161 164 140 0 0 0 0 0 0 0 0 0 101 119 164 175 185 184 183 183 184 185 187 184 176 45 134 200 192 195 199 196 200 214 90 42 20 46 73 98 82 58 56 56 80 72 71 65 106 90 83 198 149 160 0 0 0 
0 0 0 0 0 0 114 117 185 201 199 198 190 165 142 83 147 121 140 198 94 30 152 162 141 122 130 127 125 119 159 179 146 151 109 52 98 87 64 135 175 131 137 152 180 98 0 0 0 0 0 0 0 0 0 116 143 153 138 109 111 64 88 116 129 121 130 118 116 174 158 134 69 84 113 134 122 108 106 144 142 157 191 180 189 191 189 187 186 184 182 176 171 168 167 146 0 0 0 0 0 0 0 0 0 126 153 182 182 188 190 190 189 190 190 190 189 181 46 134 198 193 199 196 206 169 138 116 29 31 81 72 78 54 60 48 58 86 77 50 54 83 55 70 196 162 151 0 0 0 
0 0 0 0 0 0 110 124 134 134 164 206 206 173 141 122 77 176 114 153 77 8 125 180 162 104 110 162 184 158 132 136 138 145 102 104 73 166 103 47 185 109 116 157 146 81 0 0 0 0 0 0 0 0 0 161 103 87 111 155 97 55 169 156 140 195 175 129 104 129 109 123 69 63 108 145 172 135 154 162 179 139 182 184 191 190 188 188 187 188 185 175 177 183 177 138 0 0 0 0 0 0 0 0 0 164 176 186 194 196 199 197 192 191 190 188 189 186 50 135 204 197 197 209 183 108 93 49 33 68 88 85 54 55 56 59 69 76 58 49 51 67 45 69 198 152 61 0 0 0 
0 0 0 0 0 0 143 193 208 187 139 142 138 160 177 159 98 122 174 136 51 25 128 145 173 143 143 167 165 169 157 179 172 177 89 70 83 71 159 92 120 73 193 165 100 61 0 0 0 0 0 0 0 0 0 97 77 110 143 104 85 115 156 113 88 115 130 131 126 100 101 86 55 46 84 138 139 142 165 147 168 151 158 190 193 192 193 190 190 190 188 189 187 178 162 142 0 0 0 0 0 0 0 0 0 183 197 199 204 204 201 197 192 189 189 192 193 194 53 133 204 193 209 188 114 158 55 32 59 61 85 54 58 73 64 56 56 62 55 46 44 55 43 77 197 154 75 0 0 0 
0 0 0 0 0 0 72 187 175 213 208 153 90 106 160 156 135 91 170 138 31 48 156 123 145 176 159 151 192 203 198 182 146 152 112 108 94 86 94 154 47 148 173 90 56 142 0 0 0 0 0 0 0 0 0 135 182 146 137 84 83 148 89 115 100 100 104 82 99 115 108 97 82 65 75 113 107 104 121 155 160 179 177 203 202 197 195 193 191 188 187 185 166 164 170 139 0 0 0 0 0 0 0 0 0 200 207 205 204 206 205 200 196 193 194 194 195 192 51 129 196 201 190 113 146 80 17 67 57 88 81 46 73 72 46 38 39 62 67 44 48 54 48 80 196 171 95 0 0 0 
0 0 0 0 0 0 103 80 129 116 131 145 101 59 74 81 82 85 139 105 21 63 145 133 123 140 126 147 210 181 201 178 149 152 106 129 105 169 95 70 95 162 81 88 143 191 0 0 0 0 0 0 0 0 0 148 158 157 144 39 48 109 145 197 141 163 135 115 114 96 125 115 92 38 100 113 103 91 75 110 175 211 181 175 194 198 199 194 192 188 184 181 183 176 159 128 0 0 0 0 0 0 0 0 0 203 202 202 211 210 203 198 195 198 197 193 192 197 54 135 213 188 127 149 86 19 56 62 51 86 55 66 75 58 49 38 39 62 54 37 52 64 42 84 199 171 109 0 0 0 
0 0 0 0 0 0 183 78 178 146 108 148 151 157 123 134 81 46 147 152 10 75 190 172 155 130 191 176 135 192 199 170 165 155 78 110 71 147 164 60 69 97 57 140 144 124 0 0 0 0 0 0 0 0 0 161 132 180 92 62 117 166 141 174 173 119 127 173 157 136 97 116 93 37 71 84 114 121 92 91 140 183 159 145 196 213 205 197 190 185 187 195 186 156 160 134 0 0 0 0 0 0 0 0 0 205 211 213 210 205 205 204 202 197 189 187 192 162 58 109 124 34 125 101 17 73 63 57 49 54 58 91 77 58 41 27 51 56 50 39 49 67 46 89 200 168 98 0 0 0 
0 0 0 0 0 0 150 80 167 179 155 93 171 161 169 115 139 117 71 93 6 69 187 161 182 187 183 200 156 149 158 185 150 154 73 113 76 119 117 155 83 123 91 144 148 62 0 0 0 0 0 0 0 0 0 159 133 91 56 185 186 150 176 163 123 113 142 124 145 120 115 144 132 66 86 87 77 101 132 129 161 186 168 173 167 204 197 192 188 187 191 188 182 182 160 128 0 0 0 0 0 0 0 0 0 216 218 210 208 208 204 205 200 193 185 201 96 21 62 23 33 34 66 45 67 68 56 48 45 52 73 73 61 40 29 31 44 58 47 52 51 65 45 85 201 169 104 0 0 0 
0 0 0 0 0 0 45 57 93 120 142 94 101 195 200 130 106 155 126 33 18 68 115 119 134 148 168 187 155 102 125 120 109 87 157 184 105 125 148 143 92 138 141 131 110 12 0 0 0 0 0 0 0 0 0 202 109 27 106 182 193 144 135 104 102 168 198 169 137 92 148 170 116 105 117 126 137 130 152 175 195 199 202 198 161 147 191 196 191 194 193 194 196 189 197 172 0 0 0 0 0 0 0 0 0 216 214 213 211 209 205 202 195 191 203 148 93 56 55 29 50 28 43 87 65 49 59 39 44 57 83 55 45 39 33 33 44 61 60 53 47 63 49 92 198 184 137 0 0 0 
0 0 0 0 0 0 73 60 126 130 150 128 94 148 200 158 121 95 133 46 18 67 92 125 95 88 97 145 108 144 164 119 104 89 169 168 85 124 190 164 89 101 130 135 33 21 0 0 0 0 0 0 0 0 0 124 53 144 149 162 196 113 99 179 179 150 180 161 123 93 150 161 147 91 113 130 159 148 138 166 171 199 202 194 200 167 178 200 208 205 208 209 202 203 204 194 0 0 0 0 0 0 0 0 0 218 216 215 214 213 217 213 203 212 156 126 81 47 48 26 29 49 61 71 74 59 55 40 53 56 65 61 38 38 31 32 46 57 63 56 55 66 52 94 202 125 46 0 0 0 
0 0 0 0 0 0 140 102 111 169 148 162 176 169 113 111 99 123 89 16 32 76 46 117 146 105 93 77 103 152 161 156 81 135 177 199 120 181 197 170 94 79 127 80 5 42 0 0 0 0 0 0 0 0 0 21 121 121 79 87 109 111 159 163 146 136 154 157 114 117 126 114 131 79 65 76 78 141 183 158 183 212 210 218 208 206 201 194 195 210 215 212 210 214 207 195 0 0 0 0 0 0 0 0 0 218 216 214 210 210 215 208 211 174 127 90 28 52 47 6 51 107 57 74 80 60 57 48 57 63 148 66 29 32 35 31 31 59 61 52 54 62 54 111 81 30 81 0 0 0 
0 0 0 0 0 0 181 196 89 129 195 170 154 125 136 137 107 130 52 2 64 123 25 56 113 147 145 153 94 87 113 101 60 159 182 171 103 184 212 206 91 53 139 39 11 67 0 0 0 0 0 0 0 0 0 66 69 40 29 52 87 60 52 57 106 149 174 206 160 87 129 102 91 96 66 83 63 107 161 155 180 217 231 224 219 218 222 204 199 208 207 208 211 216 207 210 0 0 0 0 0 0 0 0 0 216 211 210 208 207 204 210 194 125 118 36 24 53 44 19 88 102 64 83 70 69 47 79 39 158 200 53 30 37 34 26 36 69 62 65 69 62 47 35 36 77 73 0 0 0 
0 0 0 0 0 0 94 115 117 44 113 141 114 126 146 114 126 101 22 13 97 93 29 72 122 119 129 144 148 140 127 127 83 93 123 116 105 193 198 179 87 74 114 7 25 125 0 0 0 0 0 0 0 0 0 159 155 162 141 170 139 151 137 103 89 71 73 95 147 101 95 111 85 92 66 92 82 76 106 147 202 223 226 225 223 220 211 206 208 208 214 220 221 217 216 219 0 0 0 0 0 0 0 0 0 203 203 205 204 202 205 206 135 108 62 65 29 42 37 43 102 98 79 66 59 52 37 125 93 162 182 59 31 34 32 23 46 72 86 112 93 67 36 43 72 36 68 0 0 0 
0 0 0 0 0 0 125 98 69 37 22 86 163 147 136 155 98 52 11 23 122 110 92 48 47 51 105 150 150 114 153 212 186 60 103 128 75 203 188 193 84 120 65 2 60 149 0 0 0 0 0 0 0 0 0 160 162 201 188 198 215 173 169 161 170 168 159 175 88 57 108 152 125 98 112 88 78 95 88 71 173 207 224 220 224 225 217 219 220 224 226 223 218 219 222 222 0 0 0 0 0 0 0 0 0 193 195 200 198 196 205 140 116 50 72 75 21 40 45 42 102 83 76 69 55 53 35 132 109 177 193 50 29 31 35 29 47 83 127 127 77 76 42 64 39 26 113 0 0 0 
0 0 0 0 0 0 155 181 178 149 91 49 105 145 134 157 48 4 9 49 142 103 90 92 122 65 8 58 136 139 144 182 210 105 89 158 92 148 155 173 93 92 28 17 102 119 0 0 0 0 0 0 0 0 0 188 163 142 194 200 180 187 177 169 191 207 159 179 177 102 135 167 155 104 107 88 92 117 108 128 132 179 173 220 235 235 234 231 229 225 223 219 220 217 216 218 0 0 0 0 0 0 0 0 0 188 191 194 190 207 154 114 59 54 77 59 27 56 42 44 80 64 58 63 47 45 37 139 118 159 111 44 30 39 27 28 53 95 141 111 96 75 62 56 19 72 80 0 0 0 
0 0 0 0 0 0 69 73 117 165 198 155 80 48 109 149 91 35 6 57 148 124 80 67 134 125 90 48 37 108 160 178 183 148 75 130 144 165 113 128 90 45 14 46 138 53 0 0 0 0 0 0 0 0 0 138 143 132 165 178 186 184 157 168 206 217 205 108 149 153 118 120 106 102 110 87 109 153 120 171 195 182 205 238 237 237 233 229 222 219 218 213 211 209 205 201 0 0 0 0 0 0 0 0 0 191 191 192 207 167 120 74 61 89 79 68 46 14 39 31 69 39 46 55 45 49 41 143 114 71 150 58 33 27 54 136 92 107 109 97 111 65 63 21 40 63 51 0 0 0 
0 0 0 0 0 0 155 110 83 74 113 175 180 83 22 55 96 55 10 23 121 136 76 76 119 133 181 128 77 38 87 153 141 193 92 103 137 174 156 157 90 7 24 61 63 57 0 0 0 0 0 0 0 0 0 109 134 113 134 134 134 180 185 198 199 210 221 186 131 175 126 97 129 105 136 99 96 120 142 151 222 234 242 241 237 233 226 224 217 211 210 205 203 200 197 199 0 0 0 0 0 0 0 0 0 204 198 209 182 125 79 54 77 135 65 89 40 22 38 25 57 50 73 50 50 47 38 142 78 95 191 45 25 104 144 60 64 131 118 89 93 65 42 23 43 52 60 0 0 0 
0 0 0 0 0 0 129 143 170 104 97 74 102 175 145 36 18 81 52 0 70 137 66 67 141 112 159 123 60 65 32 47 110 121 78 94 110 165 187 158 109 7 37 47 115 135 0 0 0 0 0 0 0 0 0 120 149 158 128 140 148 139 157 180 154 175 191 212 153 123 166 115 97 107 119 122 102 105 132 134 211 233 231 227 221 216 210 211 209 206 208 205 201 199 198 200 0 0 0 0 0 0 0 0 0 202 214 196 130 92 45 67 67 130 82 145 41 32 39 27 60 100 97 44 46 42 35 141 116 106 191 69 121 115 79 47 67 130 140 97 80 75 29 30 40 47 69 0 0 0 
0 0 0 0 0 0 77 153 130 164 196 185 116 70 112 148 53 48 83 18 20 93 83 93 142 96 76 57 87 101 146 88 41 110 68 42 134 210 169 148 85 10 30 35 156 158 0 0 0 0 0 0 0 0 0 75 66 109 105 109 122 136 140 105 160 184 223 218 209 132 172 149 93 82 77 95 131 163 133 182 216 226 208 183 214 209 205 204 203 204 204 201 199 199 202 203 0 0 0 0 0 0 0 0 0 172 131 137 89 52 59 71 63 132 151 148 18 43 30 62 74 187 111 31 51 45 33 145 113 103 215 131 51 45 127 81 67 138 115 72 79 65 19 33 49 62 70 0 0 0 
0 0 0 0 0 0 0 0 0 0 0 0 0 0 0 0 0 0 0 0 0 0 0 0 0 0 0 0 0 0 0 0 0 0 0 0 0 0 0 0 0 0 0 0 0 0 0 0 0 0 0 0 0 0 0 79 69 113 137 89 89 69 105 144 184 205 191 227 233 186 189 164 128 61 75 100 101 105 139 193 196 198 204 203 205 203 204 204 204 204 200 199 202 207 208 208 0 0 0 0 0 0 0 0 0 49 71 121 40 75 112 60 79 158 151 55 20 64 27 81 118 189 111 35 46 45 38 140 136 144 115 29 11 78 146 112 68 98 106 70 82 59 24 56 57 47 37 0 0 0 
0 0 0 0 0 0 0 0 0 0 0 0 0 0 0 0 0 0 0 0 0 0 0 0 0 0 0 0 0 0 0 0 0 0 0 0 0 0 0 0 0 0 0 0 0 0 0 0 0 0 0 0 0 0 0 129 147 152 185 207 147 144 83 128 142 201 244 192 202 172 192 166 139 50 61 130 111 86 100 163 196 180 194 211 209 208 206 202 201 201 202 204 206 201 198 206 0 0 0 0 0 0 0 0 0 74 127 63 56 80 120 70 169 140 48 45 31 60 23 79 127 187 91 37 50 46 30 156 160 62 36 38 23 55 161 100 66 98 94 48 64 55 32 101 70 27 57 0 0 0 
0 0 0 0 0 0 0 0 0 0 0 0 0 0 0 0 0 0 0 0 0 0 0 0 0 0 0 0 0 0 0 0 0 0 0 0 0 0 0 0 0 0 0 0 0 0 0 0 0 0 0 0 0 0 0 92 139 168 146 198 174 168 194 116 128 120 139 140 201 189 211 164 122 101 73 113 73 114 120 102 176 200 196 211 208 206 201 196 199 201 203 199 202 199 200 202 0 0 0 0 0 0 0 0 0 127 63 71 62 71 140 157 140 23 40 55 31 59 20 81 126 101 73 45 41 40 113 112 26 69 88 35 27 46 100 56 54 80 77 71 77 44 29 115 128 45 59 0 0 0 
0 0 0 0 0 0 0 0 0 0 0 0 0 0 0 0 0 0 0 0 0 0 0 0 0 0 0 0 0 0 0 0 0 0 0 0 0 0 0 0 0 0 0 0 0 0 0 0 0 0 0 0 0 0 0 113 114 166 186 195 205 141 163 188 93 84 128 151 145 152 170 188 134 116 81 63 34 102 161 144 136 164 182 186 205 206 204 206 208 208 209 210 211 215 211 208 0 0 0 0 0 0 0 0 0 78 51 115 65 64 162 134 41 40 39 47 34 89 18 82 97 113 107 26 73 121 70 21 26 81 136 51 30 39 39 27 42 69 83 92 69 44 25 117 143 56 69 0 0 0 
0 0 0 0 0 0 0 0 0 0 0 0 0 0 0 0 0 0 0 0 0 0 0 0 0 0 0 0 0 0 0 0 0 0 0 0 0 0 0 0 0 0 0 0 0 0 0 0 0 0 0 0 0 0 0 150 143 168 194 171 185 156 152 191 152 117 100 102 132 141 195 167 141 101 90 62 51 116 143 160 161 188 204 209 209 202 201 202 202 202 206 209 216 233 235 221 0 0 0 0 0 0 0 0 0 56 62 115 90 150 124 34 55 59 49 46 35 94 17 77 123 124 102 92 109 39 16 29 16 95 152 61 31 34 31 31 46 91 141 126 54 41 23 119 154 68 90 0 0 0 
0 0 0 0 0 0 0 0 0 0 0 0 0 0 0 0 0 0 0 0 0 0 0 0 0 0 0 0 0 0 0 0 0 0 0 0 0 0 0 0 0 0 0 0 0 0 0 0 0 0 0 0 0 0 0 163 167 192 230 224 190 166 212 155 196 114 168 131 100 126 124 138 131 141 139 120 140 164 142 162 196 201 213 206 210 215 219 221 220 222 215 217 226 225 220 221 0 0 0 0 0 0 0 0 0 110 51 113 170 118 32 48 61 95 70 43 32 87 22 79 117 131 177 83 13 27 32 19 27 77 64 28 35 36 44 70 73 98 160 135 46 50 21 119 160 81 95 0 0 0 
0 0 0 0 0 0 0 0 0 0 0 0 0 0 0 0 0 0 0 0 0 0 0 0 0 0 0 0 0 0 0 0 0 0 0 0 0 0 0 0 0 0 0 0 0 0 0 0 0 0 0 0 0 0 0 144 133 203 198 214 208 147 192 182 220 150 144 158 65 79 107 117 101 158 165 150 159 183 189 213 238 224 232 227 228 232 239 240 231 225 224 221 229 235 229 235 0 0 0 0 0 0 0 0 0 114 68 157 113 34 44 41 55 153 84 33 31 64 21 78 171 107 90 59 21 33 30 20 30 41 36 16 32 40 83 122 85 119 174 85 35 42 24 122 159 61 69 0 0 0 
0 0 0 0 0 0 0 0 0 0 0 0 0 0 0 0 0 0 0 0 0 0 0 0 0 0 0 0 0 0 0 0 0 0 0 0 0 0 0 0 0 0 0 0 0 0 0 0 0 0 0 0 0 0 0 115 124 165 155 184 196 149 136 155 233 161 163 154 124 112 118 144 122 149 178 158 187 189 225 255 249 244 236 229 220 229 238 229 219 231 236 245 230 228 253 249 0 0 0 0 0 0 0 0 0 139 156 106 36 44 50 41 51 163 89 33 30 54 18 69 94 53 121 89 27 38 25 20 29 33 33 35 25 39 114 145 80 140 131 37 46 46 25 127 164 70 72 0 0 0 
0 0 0 0 0 0 0 0 0 0 0 0 0 0 0 0 0 0 0 0 0 0 0 0 0 0 0 0 0 0 0 0 0 0 0 0 0 0 0 0 0 0 0 0 0 0 0 0 0 0 0 0 0 0 0 128 90 91 172 184 152 168 91 106 220 183 184 175 163 164 144 160 181 169 220 218 226 215 239 249 246 245 242 243 245 244 244 241 242 242 241 241 105 111 243 235 0 0 0 0 0 0 0 0 0 175 97 33 43 61 98 41 53 156 62 33 28 100 42 9 48 127 143 72 27 40 24 24 22 38 99 99 16 48 139 122 60 112 90 32 52 43 29 128 165 69 93 0 0 0 
0 0 0 0 0 0 0 0 0 0 0 0 0 0 0 0 0 0 0 0 0 0 0 0 0 0 0 0 0 0 0 0 0 0 0 0 0 0 0 0 0 0 0 0 0 0 0 0 0 0 0 0 0 0 0 164 134 100 162 179 166 185 107 124 210 214 160 167 110 133 103 98 140 138 158 177 180 226 229 218 224 222 218 223 223 225 214 216 219 213 219 195 86 114 216 207 0 0 0 0 0 0 0 0 0 107 44 44 37 72 150 38 54 157 50 35 57 72 18 22 37 154 133 39 36 40 17 23 49 91 163 133 20 53 119 94 54 82 57 37 46 51 34 126 166 74 109 0 0 0 
0 0 0 0 0 0 0 0 0 0 0 0 0 0 0 0 0 0 0 0 0 0 0 0 0 0 0 0 0 0 0 0 0 0 0 0 0 0 0 0 0 0 0 0 0 0 0 0 0 0 0 0 0 0 0 113 159 141 137 172 183 178 124 135 191 195 205 161 102 64 58 88 81 95 119 118 129 218 212 203 218 215 199 205 209 207 195 203 200 197 198 195 110 125 204 201 0 0 0 0 0 0 0 0 0 51 55 77 45 70 146 34 55 164 57 36 24 36 28 11 35 95 67 33 33 34 12 65 97 144 227 136 21 41 60 34 50 65 43 45 56 44 21 126 166 91 90 0 0 0 
0 0 0 0 0 0 0 0 0 0 0 0 0 0 0 0 0 0 0 0 0 0 0 0 0 0 0 0 0 0 0 0 0 0 0 0 0 0 0 0 0 0 0 0 0 0 0 0 0 0 0 0 0 0 0 94 69 76 67 73 94 76 74 62 73 87 95 94 74 49 45 66 54 66 73 74 79 82 83 86 89 94 101 94 82 79 79 88 88 85 86 78 56 71 79 87 0 0 0 0 0 0 0 0 0 49 42 131 61 71 134 23 65 158 63 38 22 47 34 12 35 35 29 28 33 39 14 74 138 91 162 123 20 31 31 29 53 64 48 33 50 48 25 127 142 56 47 0 0 0 
0 0 0 0 0 0 0 44 47 77 56 52 60 83 72 39 28 109 80 163 136 83 176 130 122 164 75 16 8 16 10 24 111 44 8 39 130 193 194 135 148 68 30 17 62 147 85 90 106 105 0 0 0 0 0 131 83 63 61 69 94 100 80 82 83 87 99 106 73 51 44 76 50 43 42 42 54 75 60 102 112 105 104 94 102 101 103 91 110 102 113 89 84 100 89 131 0 0 0 0 0 0 0 0 0 84 45 133 59 73 142 25 61 59 59 76 20 49 34 17 31 46 51 32 37 42 12 76 148 105 171 109 16 34 37 35 51 55 41 54 76 65 32 120 155 82 57 0 0 0 
0 0 0 0 0 0 0 72 64 39 37 18 38 128 121 42 55 120 99 200 85 101 142 212 221 251 110 7 14 17 9 118 205 177 102 50 14 104 171 133 141 89 64 29 48 151 130 116 121 137 0 0 0 0 0 106 100 81 66 56 61 81 95 79 70 68 99 108 72 51 54 91 96 121 129 105 148 168 133 121 129 112 78 94 119 117 118 97 114 102 117 97 102 114 101 136 0 0 0 0 0 0 0 0 0 134 42 129 47 79 144 45 54 46 59 70 22 43 30 17 51 71 89 43 33 38 10 80 152 113 165 98 19 40 49 44 54 59 67 94 78 59 27 117 163 88 48 0 0 0 
0 0 0 0 0 0 0 98 99 136 121 71 41 69 142 79 92 126 73 99 95 166 166 203 217 147 59 13 16 15 19 63 115 143 143 170 73 4 62 137 161 59 69 40 79 152 139 153 118 109 0 0 0 0 0 95 78 61 47 53 51 43 76 63 79 48 92 103 81 71 44 120 169 141 123 139 147 174 213 143 120 113 89 94 115 121 115 95 109 106 103 88 98 111 103 90 0 0 0 0 0 0 0 0 0 132 36 136 64 52 38 64 65 28 37 40 22 44 27 46 115 105 148 51 34 44 13 87 146 103 164 98 28 49 51 45 61 48 79 106 77 63 32 112 124 66 36 0 0 0 
0 0 0 0 0 0 0 123 93 107 103 105 98 66 97 87 65 76 67 93 104 57 63 67 55 58 37 15 19 10 88 53 13 53 118 133 180 88 4 58 78 31 55 26 88 141 135 122 89 137 0 0 0 0 0 108 115 124 93 87 82 52 83 63 104 68 83 97 91 92 45 112 177 127 122 150 117 159 220 147 116 123 119 117 118 117 115 113 111 112 110 108 103 111 102 100 0 0 0 0 0 0 0 0 0 119 36 130 59 22 24 62 53 23 37 50 18 48 21 48 147 146 152 45 28 38 13 88 151 118 185 110 27 48 56 53 61 44 95 110 81 57 19 66 82 60 44 0 0 0 
0 0 0 0 0 0 0 86 88 122 132 88 94 84 53 100 93 101 69 147 93 83 77 58 95 100 15 10 15 19 89 166 87 7 32 83 113 137 103 7 25 49 32 5 83 147 73 55 60 59 0 0 0 0 0 135 115 121 106 94 94 50 77 87 74 91 88 91 83 102 71 72 56 51 60 59 63 66 58 115 124 120 127 128 116 115 114 122 129 124 128 116 96 105 98 91 0 0 0 0 0 0 0 0 0 143 47 42 30 32 28 36 32 30 61 83 25 49 17 45 141 134 126 33 33 41 11 90 157 124 131 81 34 45 52 46 44 42 79 75 55 51 10 69 89 53 37 0 0 0 
0 0 0 0 0 0 0 65 44 31 42 17 12 37 53 91 104 93 72 123 95 109 95 92 110 76 13 14 16 49 111 122 126 104 45 14 41 127 143 15 14 39 43 11 80 129 50 61 63 54 0 0 0 0 0 149 107 55 37 56 65 59 70 93 61 57 34 46 51 95 77 94 104 130 76 77 117 131 112 119 119 130 176 173 116 115 113 162 182 181 185 152 87 96 91 36 0 0 0 0 0 0 0 0 0 94 37 27 32 34 65 57 61 151 145 80 29 49 17 47 134 128 117 26 38 39 13 92 133 50 57 55 27 40 43 40 40 54 72 63 58 56 11 45 65 53 42 0 0 0 
0 0 0 0 0 0 0 46 75 107 86 34 36 54 66 66 65 79 38 68 59 110 119 74 48 41 6 16 22 59 113 106 123 178 126 46 13 88 73 75 8 31 20 13 48 101 113 85 93 86 0 0 0 0 0 99 80 64 28 50 67 82 55 70 54 49 21 34 55 103 92 118 118 129 122 97 161 129 141 134 115 132 179 159 115 117 113 156 176 177 158 117 85 91 81 45 0 0 0 0 0 0 0 0 0 24 46 28 43 97 137 117 149 176 138 55 30 51 13 49 137 114 94 29 37 39 13 88 145 53 73 64 24 31 44 35 43 61 85 77 59 49 15 41 59 60 50 0 0 0 
0 0 0 0 0 0 0 21 39 34 72 50 43 31 49 81 45 42 26 40 48 64 58 56 59 19 10 24 10 65 101 157 128 111 135 149 51 13 63 139 9 32 19 17 49 99 131 132 101 99 0 0 0 0 0 89 46 81 67 52 69 75 74 79 90 104 95 93 68 91 85 171 176 120 115 119 118 125 203 149 112 114 106 104 113 116 111 99 99 98 93 79 83 86 75 67 0 0 0 0 0 0 0 0 0 41 44 22 27 125 160 116 153 128 125 38 29 50 12 48 141 78 65 30 42 46 13 94 151 53 83 66 30 38 54 31 44 84 137 119 66 53 21 29 38 49 60 0 0 0 
0 0 0 0 0 0 0 42 112 105 76 76 58 40 43 43 45 23 45 54 73 112 82 99 34 2 14 21 33 80 75 136 142 110 139 140 144 54 30 60 25 26 23 3 80 113 89 91 63 77 0 0 0 0 0 79 72 93 88 98 104 89 75 79 128 144 135 131 103 113 88 135 180 132 110 109 104 135 166 127 116 120 117 119 115 111 110 116 111 108 105 97 81 81 71 69 0 0 0 0 0 0 0 0 0 31 34 74 83 114 100 97 144 156 120 39 28 49 12 54 133 68 58 35 41 41 20 63 85 59 69 40 25 52 58 28 65 109 188 163 57 33 12 19 48 94 159 0 0 0 
0 0 0 0 0 0 0 19 66 88 65 40 70 71 47 60 53 33 68 36 40 102 133 92 9 10 20 8 62 97 101 109 107 85 73 137 150 50 12 22 32 25 31 20 155 137 52 49 50 51 0 0 0 0 0 96 65 54 57 65 86 111 104 108 94 89 60 68 75 112 117 116 95 79 43 66 64 40 37 113 124 132 172 117 115 113 112 86 72 43 60 67 83 80 71 60 0 0 0 0 0 0 0 0 0 101 85 126 77 129 134 71 130 156 122 39 27 38 53 95 147 71 62 33 38 28 7 55 97 61 56 37 43 56 30 74 67 98 174 133 74 99 105 112 150 210 230 0 0 0 
0 0 0 0 0 0 0 100 61 91 86 66 82 58 62 92 65 36 102 40 40 86 138 31 2 17 13 46 48 62 137 146 97 62 59 132 111 38 23 11 18 14 37 42 131 102 75 94 115 124 0 0 0 0 0 108 49 55 27 42 57 90 110 124 67 49 9 35 56 116 109 133 133 130 48 114 146 71 73 105 95 144 224 148 115 112 107 55 81 56 68 50 85 77 70 48 0 0 0 0 0 0 0 0 0 130 90 134 72 133 147 58 129 159 123 48 23 35 57 93 116 63 48 39 39 26 3 57 92 56 53 38 26 23 50 120 101 160 225 193 172 175 156 132 120 155 190 0 0 0 
0 0 0 0 0 0 0 56 77 90 95 72 54 49 53 86 52 21 71 61 58 97 34 0 12 19 13 62 36 24 56 102 71 75 111 107 56 19 76 62 14 13 26 43 104 100 104 85 102 88 0 0 0 0 0 102 55 62 50 57 65 91 90 105 89 75 47 70 83 133 112 148 176 126 98 107 135 143 175 104 77 116 144 118 96 110 105 67 91 96 90 60 76 77 68 54 0 0 0 0 0 0 0 0 0 110 83 159 80 133 152 64 133 140 106 53 29 36 53 74 74 64 40 50 42 32 12 68 81 50 68 52 57 121 182 194 200 239 233 174 125 126 129 139 147 165 185 0 0 0 
0 0 0 0 0 0 0 14 33 32 47 76 56 32 18 12 19 20 49 58 57 22 6 9 14 16 38 102 93 83 85 128 56 57 99 104 29 97 175 154 32 8 4 15 70 96 182 174 80 100 0 0 0 0 0 105 70 100 108 100 89 88 98 103 127 127 120 124 122 132 109 170 232 135 121 124 109 180 236 135 114 109 96 106 88 94 106 92 88 85 81 78 72 75 67 63 0 0 0 0 0 0 0 0 0 142 81 163 79 133 140 63 134 158 109 41 27 42 42 83 97 65 53 78 28 21 9 53 65 48 75 117 145 201 232 214 158 180 201 173 166 177 182 177 169 165 192 0 0 0 
0 0 0 0 0 0 0 10 18 12 18 30 36 39 25 9 28 48 52 38 32 23 25 25 16 20 116 136 86 82 68 75 50 49 101 67 41 156 139 132 45 8 15 16 116 88 73 82 62 70 0 0 0 0 0 110 76 97 106 112 112 112 111 120 128 129 115 122 124 133 129 115 75 71 75 75 75 81 86 107 107 115 127 115 84 86 101 104 100 94 97 90 71 73 64 66 0 0 0 0 0 0 0 0 0 145 81 157 79 137 143 58 121 132 105 41 31 55 26 79 94 64 68 98 75 105 90 85 95 99 112 141 156 194 214 196 176 170 179 190 180 193 191 179 169 188 120 0 0 0 
0 0 0 0 0 0 0 7 8 23 19 21 13 14 45 46 22 99 83 7 7 20 23 20 35 61 77 96 58 57 61 96 81 60 97 38 46 103 124 115 42 24 24 27 101 122 48 48 80 48 0 0 0 0 0 122 93 132 163 134 150 121 125 111 118 113 55 93 116 123 131 127 81 86 43 36 74 108 98 111 108 124 132 98 89 87 101 105 112 125 115 95 72 72 62 23 0 0 0 0 0 0 0 0 0 134 85 165 83 112 124 61 38 79 111 64 24 53 12 35 59 70 184 179 147 156 153 157 153 149 166 207 187 171 165 158 169 203 197 106 67 84 169 188 172 200 118 0 0 0 
0 0 0 0 0 0 0 7 10 18 24 23 28 34 60 62 33 124 104 3 18 23 17 17 37 99 60 103 59 56 70 76 51 60 69 27 77 103 122 84 29 25 30 34 87 80 101 110 123 87 0 0 0 0 0 128 113 143 188 152 155 122 127 111 115 116 60 96 126 128 125 134 119 166 95 60 156 169 126 116 118 89 53 78 83 85 95 102 118 131 113 90 70 71 64 29 0 0 0 0 0 0 0 0 0 132 70 125 74 19 100 72 43 93 170 159 80 118 32 85 109 119 182 180 165 178 180 177 168 180 209 163 143 184 178 183 202 229 107 46 55 35 99 182 174 193 140 0 0 0 
0 0 0 0 0 0 0 5 10 11 10 27 28 38 10 5 36 70 44 17 23 21 16 25 94 85 53 101 47 49 57 98 57 40 49 39 75 116 126 82 31 21 33 38 120 85 180 171 73 72 0 0 0 0 0 134 103 92 118 108 92 105 137 112 99 107 97 99 103 128 119 168 137 136 112 52 110 125 107 113 104 90 76 89 78 84 93 73 77 74 70 64 69 72 65 58 0 0 0 0 0 0 0 0 0 91 25 57 84 36 94 165 157 193 203 212 103 175 31 110 177 163 170 179 174 154 136 125 171 228 170 48 42 128 214 206 225 174 64 77 61 74 75 139 183 179 137 0 0 0 
0 0 0 0 0 0 0 32 40 49 11 12 23 43 45 24 58 91 15 7 16 9 17 62 103 80 74 81 31 56 59 87 54 45 43 55 97 85 97 59 28 21 26 29 47 109 160 148 110 98 0 0 0 0 0 136 125 118 131 127 116 109 136 116 130 134 136 134 131 124 112 158 192 133 108 103 93 144 191 113 95 103 102 100 79 81 93 91 86 82 81 78 67 69 64 62 0 0 0 0 0 0 0 0 0 84 93 93 150 138 135 180 192 207 189 175 97 147 64 93 142 151 206 204 169 74 34 70 177 210 89 63 57 80 205 213 218 131 85 88 69 96 97 133 185 176 132 0 0 0 
0 0 0 0 0 0 0 41 53 68 45 21 21 56 60 30 79 98 8 6 10 10 62 116 120 113 121 128 44 82 123 85 67 62 32 79 103 91 93 60 36 19 30 24 67 125 68 38 60 40 0 0 0 0 0 127 138 114 69 98 116 116 128 117 88 90 74 86 101 120 118 99 36 44 38 33 48 54 46 93 98 101 111 103 78 77 87 87 87 92 99 80 68 68 60 47 0 0 0 0 0 0 0 0 0 144 169 148 153 177 177 177 180 186 183 172 95 118 83 61 75 149 213 203 169 108 61 106 185 169 82 78 67 67 175 201 194 127 110 105 95 109 108 129 182 176 126 0 0 0 
0 0 0 0 0 0 0 66 38 55 63 65 65 43 45 36 60 48 4 11 15 12 78 126 101 92 62 96 62 56 81 91 69 46 39 117 135 119 105 40 41 17 29 30 62 116 126 105 135 90 0 0 0 0 0 0 0 0 0 0 0 0 0 0 0 0 0 0 0 0 0 0 0 0 0 0 0 0 0 0 0 0 0 0 0 0 0 0 0 0 0 0 0 0 0 0 0 0 0 0 0 0 0 0 0 125 125 142 148 183 173 182 184 152 186 193 101 150 83 78 120 169 188 185 170 120 81 112 187 155 101 98 90 90 157 182 190 132 115 82 112 56 26 72 180 174 127 0 0 0 
0 0 0 0 0 0 0 15 40 78 61 69 84 44 36 39 68 27 6 12 19 11 84 126 105 97 69 142 60 59 61 97 55 29 39 125 143 82 106 28 31 24 11 18 31 109 168 164 160 119 0 0 0 0 0 0 0 0 0 0 0 0 0 0 0 0 0 0 0 0 0 0 0 0 0 0 0 0 0 0 0 0 0 0 0 0 0 0 0 0 0 0 0 0 0 0 0 0 0 0 0 0 0 0 0 148 139 138 178 144 86 185 174 65 157 184 98 157 86 82 108 158 181 178 173 126 74 107 187 158 110 76 116 106 153 182 193 130 107 112 142 23 4 67 178 172 134 0 0 0 
0 0 0 0 0 0 0 82 78 73 69 82 83 56 32 33 54 6 9 12 19 24 42 80 81 68 44 91 53 46 52 82 54 21 54 102 90 55 56 17 46 27 16 27 47 79 136 149 127 111 0 0 0 0 0 0 0 0 0 0 0 0 0 0 0 0 0 0 0 0 0 0 0 0 0 0 0 0 0 0 0 0 0 0 0 0 0 0 0 0 0 0 0 0 0 0 0 0 0 0 0 0 0 0 0 100 118 74 180 151 83 177 170 86 148 166 94 150 77 84 94 157 183 180 175 131 81 123 186 156 99 123 91 0 120 177 186 129 111 126 143 31 13 72 176 170 133 0 0 0 
0 0 0 0 0 0 0 90 81 103 77 82 74 112 50 37 10 5 4 4 18 48 59 80 72 52 84 107 60 50 73 83 31 27 58 75 50 20 13 31 46 37 21 21 30 38 67 47 71 93 0 0 0 0 0 0 0 0 0 0 0 0 0 0 0 0 0 0 0 0 0 0 0 0 0 0 0 0 0 0 0 0 0 0 0 0 0 0 0 0 0 0 0 0 0 0 0 0 0 0 0 0 0 0 0 118 144 103 185 159 99 178 170 94 151 163 101 164 26 87 112 159 180 180 182 131 92 117 184 153 106 134 96 3 122 170 180 129 117 130 140 28 11 73 175 170 119 0 0 0 
0 0 0 0 0 0 0 90 89 154 130 73 78 108 43 31 41 2 5 12 11 73 77 87 99 76 92 133 69 56 97 88 14 28 54 39 14 23 32 42 53 48 41 20 15 48 34 45 78 39 0 0 0 0 0 0 0 0 0 0 0 0 0 0 0 0 0 0 0 0 0 0 0 0 0 0 0 0 0 0 0 0 0 0 0 0 0 0 0 0 0 0 0 0 0 0 0 0 0 0 0 0 0 0 0 131 146 101 183 159 101 175 167 95 148 158 103 170 21 85 76 139 180 177 179 128 81 110 183 152 55 115 99 2 122 167 177 130 49 107 141 21 5 72 171 168 116 0 0 0 
0 0 0 0 0 0 0 75 67 102 99 62 63 45 24 45 45 3 9 20 14 83 52 53 66 48 43 71 61 44 57 33 18 37 59 37 21 20 17 30 28 28 39 35 12 41 57 86 128 78 0 0 0 0 0 0 0 0 0 0 0 0 0 0 0 0 0 0 0 0 0 0 0 0 0 0 0 0 0 0 0 0 0 0 0 0 0 0 0 0 0 0 0 0 0 0 0 0 0 0 0 0 0 0 0 130 151 104 184 149 87 175 165 78 130 156 99 164 35 114 77 142 181 175 171 141 104 132 183 151 40 112 98 0 122 167 178 133 21 105 150 27 3 74 171 167 118 0 0 0 
0 0 0 0 0 0 0 18 22 23 29 31 36 27 17 16 8 9 14 10 8 39 16 7 22 22 25 24 12 19 21 14 12 12 29 17 14 14 15 21 14 12 29 54 10 8 15 18 20 30 0 0 0 0 0 0 0 0 0 0 0 0 0 0 0 0 0 0 0 0 0 0 0 0 0 0 0 0 0 0 0 0 0 0 0 0 0 0 0 0 0 0 0 0 0 0 0 0 0 0 0 0 0 0 0 93 128 104 178 159 87 127 161 89 132 160 110 166 45 105 92 123 149 141 140 121 93 89 160 149 84 131 94 1 114 157 155 117 98 109 113 26 3 62 165 161 118 0 0 0 
0 0 0 0 0 0 0 16 28 29 29 27 45 35 15 11 5 7 13 8 12 30 12 17 19 15 20 30 15 18 23 12 19 18 26 15 13 12 10 17 11 11 21 30 11 2 24 17 13 22 0 0 0 0 0 0 0 0 0 0 0 0 0 0 0 0 0 0 0 0 0 0 0 0 0 0 0 0 0 0 0 0 0 0 0 0 0 0 0 0 0 0 0 0 0 0 0 0 0 0 0 0 0 0 0 40 41 43 74 77 46 90 105 63 92 118 77 99 35 79 62 92 108 77 74 73 55 56 100 116 65 102 75 7 81 121 111 90 96 81 75 28 18 56 137 139 122 0 0 0 
0 0 0 0 0 0 0 24 18 19 24 29 20 29 37 10 5 8 14 6 16 33 13 22 26 12 16 14 16 9 17 14 19 24 32 13 12 15 11 16 11 7 15 2 3 9 18 9 14 16 0 0 0 0 0 0 0 0 0 0 0 0 0 0 0 0 0 0 0 0 0 0 0 0 0 0 0 0 0 0 0 0 0 0 0 0 0 0 0 0 0 0 0 0 0 0 0 0 0 0 0 0 0 0 0 11 14 14 36 37 31 109 115 105 108 94 70 96 21 84 104 116 78 26 34 40 47 49 54 52 45 75 50 10 54 83 107 73 72 100 78 23 24 54 117 113 101 0 0 0 
0 0 0 0 0 0 0 23 21 33 39 36 35 36 32 6 5 8 12 5 15 34 20 19 29 15 17 22 16 6 6 16 15 9 14 10 16 18 6 15 7 4 6 6 3 12 12 7 6 11 0 0 0 0 0 0 0 0 0 0 0 0 0 0 0 0 0 0 0 0 0 0 0 0 0 0 0 0 0 0 0 0 0 0 0 0 0 0 0 0 0 0 0 0 0 0 0 0 0 0 0 0 0 0 0 15 13 22 49 48 33 102 155 87 41 33 22 35 0 83 127 116 79 46 43 32 59 85 84 70 50 62 44 12 52 67 83 54 60 74 47 18 14 47 102 81 59 0 0 0 
0 0 0 0 0 0 0 22 28 32 31 31 25 29 17 2 3 7 12 6 4 7 6 22 40 22 28 31 13 3 8 18 17 31 26 17 19 10 16 26 13 7 1 0 5 11 23 21 21 34 0 0 0 0 0 0 0 0 0 0 0 0 0 0 0 0 0 0 0 0 0 0 0 0 0 0 0 0 0 0 0 0 0 0 0 0 0 0 0 0 0 0 0 0 0 0 0 0 0 0 0 0 0 0 0 24 32 23 47 42 28 84 107 45 10 15 10 43 28 73 117 117 70 41 49 18 37 74 77 65 48 63 44 5 53 73 88 50 60 64 40 16 18 43 74 27 26 0 0 0 
0 0 0 0 0 0 0 30 33 45 41 44 42 44 17 3 4 9 9 3 19 21 5 28 43 32 35 40 13 4 11 19 30 28 9 10 10 16 16 28 15 20 15 6 23 31 18 18 18 17 0 0 0 0 0 0 0 0 0 0 0 0 0 0 0 0 0 0 0 0 0 0 0 0 0 0 0 0 0 0 0 0 0 0 0 0 0 0 0 0 0 0 0 0 0 0 0 0 0 0 0 0 0 0 0 33 37 10 33 42 23 83 84 24 15 23 28 35 21 43 113 110 60 41 63 37 45 65 68 49 47 60 47 5 53 71 93 52 66 64 39 15 14 47 49 0 14 0 0 0 
0 0 0 0 0 0 0 24 25 35 22 24 43 49 9 2 3 4 19 13 30 56 16 39 62 46 25 36 18 3 11 13 15 13 19 19 23 34 34 28 33 33 15 2 13 8 1 10 17 29 0 0 0 0 0 0 0 0 0 0 0 0 0 0 0 0 0 0 0 0 0 0 0 0 0 0 0 0 0 0 0 0 0 0 0 0 0 0 0 0 0 0 0 0 0 0 0 0 0 0 0 0 0 0 0 134 120 98 80 53 34 83 58 35 61 48 35 27 1 19 87 104 66 51 71 63 59 45 50 40 33 44 44 30 67 65 90 49 70 63 32 15 14 49 77 46 21 0 0 0 
0 0 0 0 0 0 0 32 32 39 13 20 43 29 3 4 11 2 15 16 8 37 17 27 34 13 18 15 12 13 32 39 39 45 39 29 27 16 9 2 11 13 16 48 22 33 46 59 66 77 0 0 0 0 0 0 0 0 0 0 0 0 0 0 0 0 0 0 0 0 0 0 0 0 0 0 0 0 0 0 0 0 0 0 0 0 0 0 0 0 0 0 0 0 0 0 0 0 0 0 0 0 0 0 0 69 94 120 143 158 152 114 58 45 69 48 25 24 1 16 54 54 32 26 31 29 32 23 23 17 16 20 21 35 41 59 80 39 63 56 21 11 17 81 112 98 59 0 0 0 
0 0 0 0 0 0 0 19 16 22 25 25 15 8 10 10 8 7 15 9 6 30 11 25 25 45 34 35 34 35 32 29 17 13 10 3 7 4 8 18 27 33 50 72 61 68 72 68 69 56 0 0 0 0 0 0 0 0 0 0 0 0 0 0 0 0 0 0 0 0 0 0 0 0 0 0 0 0 0 0 0 0 0 0 0 0 0 0 0 0 0 0 0 0 0 0 0 0 0 0 0 0 0 0 0 78 70 61 68 95 91 41 24 23 14 14 33 25 1 15 48 47 23 20 30 39 54 35 36 27 27 28 44 36 17 56 65 36 49 40 28 36 50 94 98 83 70 0 0 0 
0 0 0 0 0 0 0 8 9 12 16 12 6 7 8 12 16 17 22 24 32 60 36 28 47 38 24 29 27 23 10 6 6 10 14 21 32 49 64 74 78 71 65 67 65 52 38 31 29 31 0 0 0 0 0 0 0 0 0 0 0 0 0 0 0 0 0 0 0 0 0 0 0 0 0 0 0 0 0 0 0 0 0 0 0 0 0 0 0 0 0 0 0 0 0 0 0 0 0 0 0 0 0 0 0 84 78 77 80 75 72 71 59 55 57 39 38 29 0 23 107 131 120 75 59 49 46 37 72 68 62 55 84 81 59 53 76 83 84 76 70 74 79 81 31 8 72 0 0 0 
0 0 0 0 0 0 0 9 7 12 14 18 31 39 38 38 41 24 22 31 36 40 23 18 35 14 13 13 16 10 16 27 41 53 61 67 70 73 74 70 57 52 41 33 35 28 31 37 39 37 0 0 0 0 0 0 0 0 0 0 0 0 0 0 0 0 0 0 0 0 0 0 0 0 0 0 0 0 0 0 0 0 0 0 0 0 0 0 0 0 0 0 0 0 0 0 0 0 0 0 0 0 0 0 0 77 86 92 101 111 129 138 153 128 98 93 76 39 0 14 38 87 148 159 157 142 125 98 99 75 51 44 67 75 64 60 65 75 68 64 61 65 67 69 65 43 68 0 0 0 
0 0 0 0 0 0 0 22 27 35 42 44 35 29 26 12 11 5 4 18 16 8 19 6 2 20 23 28 41 54 61 72 73 78 78 71 73 66 57 47 36 32 38 37 38 39 37 34 39 38 0 0 0 0 0 0 0 0 0 0 0 0 0 0 0 0 0 0 0 0 0 0 0 0 0 0 0 0 0 0 0 0 0 0 0 0 0 0 0 0 0 0 0 0 0 0 0 0 0 0 0 0 0 0 0 85 116 127 117 119 117 140 131 66 29 45 85 47 0 18 60 36 35 81 44 67 153 186 192 157 134 119 106 88 56 47 58 76 68 70 73 74 79 76 100 80 35 0 0 0 
0 0 0 0 0 0 0 41 29 21 22 11 10 13 8 8 7 4 1 7 13 18 21 26 39 52 63 70 70 75 81 76 73 74 60 46 34 32 36 38 51 46 44 40 38 40 38 42 46 44 0 0 0 0 0 0 0 0 0 0 0 0 0 0 0 0 0 0 0 0 0 0 0 0 0 0 0 0 0 0 0 0 0 0 0 0 0 0 0 0 0 0 0 0 0 0 0 0 0 0 0 0 0 0 0 82 144 190 175 190 186 187 93 29 28 18 33 28 4 10 30 22 14 12 34 25 67 95 116 119 138 149 164 175 146 121 109 84 54 46 42 41 42 55 94 72 41 0 0 0 
0 0 0 0 0 0 0 20 15 10 12 9 10 10 10 10 16 19 25 29 37 47 55 61 67 65 66 69 74 75 79 59 44 27 24 29 38 43 45 41 35 37 39 38 38 43 47 47 52 43 0 0 0 0 0 0 0 0 0 0 0 0 0 0 0 0 0 0 0 0 0 0 0 0 0 0 0 0 0 0 0 0 0 0 0 0 0 0 0 0 0 0 0 0 0 0 0 0 0 0 0 0 0 0 0 81 141 202 191 188 183 173 51 18 30 36 40 11 5 3 15 30 31 30 27 9 42 88 60 52 56 58 65 101 128 151 157 169 164 147 126 107 81 70 100 69 41 0 0 0 
0 0 0 0 0 0 0 25 11 14 14 15 20 26 32 40 47 55 62 61 66 63 59 58 67 70 69 60 50 34 15 13 27 38 45 49 46 45 46 46 49 45 42 48 52 47 49 60 73 54 0 0 0 0 0 0 0 0 0 0 0 0 0 0 0 0 0 0 0 0 0 0 0 0 0 0 0 0 0 0 0 0 0 0 0 0 0 0 0 0 0 0 0 0 0 0 0 0 0 0 0 0 0 0 0 85 97 101 97 111 150 133 36 45 66 41 31 54 7 0 2 9 19 25 21 9 3 66 80 75 66 60 57 51 47 51 61 94 119 140 167 197 204 181 134 68 53 0 0 0 
0 0 0 0 0 0 0 19 25 31 36 42 53 63 72 69 69 68 62 60 59 63 68 74 68 47 26 14 17 29 46 62 61 63 63 62 61 67 60 62 68 66 92 88 82 89 58 57 58 83 0 0 0 0 0 0 0 0 0 0 0 0 0 0 0 0 0 0 0 0 0 0 0 0 0 0 0 0 0 0 0 0 0 0 0 0 0 0 0 0 0 0 0 0 0 0 0 0 0 0 0 0 0 0 0 133 88 45 28 31 69 51 26 81 149 150 98 63 26 62 71 56 2 23 13 0 2 21 69 79 71 72 67 67 64 67 71 67 59 62 76 104 133 140 89 51 35 0 0 0 
0 0 0 0 0 0 0 0 0 0 0 0 0 0 0 0 0 0 0 0 0 0 0 0 0 0 0 0 0 0 0 0 0 0 0 0 0 0 0 0 0 0 0 0 0 0 0 0 0 0 0 0 0 0 0 0 0 0 0 0 0 0 0 0 0 0 0 0 0 0 0 0 0 0 0 0 0 0 0 0 0 0 0 0 0 0 0 0 0 0 0 0 0 0 0 0 0 0 0 0 0 0 0 0 0 60 114 117 106 75 67 56 21 28 13 76 150 67 76 72 105 129 124 104 89 69 12 5 40 79 74 72 77 74 69 72 74 81 82 78 77 71 63 52 32 29 26 0 0 0 
0 0 0 0 0 0 0 0 0 0 0 0 0 0 0 0 0 0 0 0 0 0 0 0 0 0 0 0 0 0 0 0 0 0 0 0 0 0 0 0 0 0 0 0 0 0 0 0 0 0 0 0 0 0 0 0 0 0 0 0 0 0 0 0 0 0 0 0 0 0 0 0 0 0 0 0 0 0 0 0 0 0 0 0 0 0 0 0 0 0 0 0 0 0 0 0 0 0 0 0 0 0 0 0 0 0 0 0 0 0 0 0 0 0 0 0 0 0 0 0 0 0 0 0 0 0 0 0 0 0 0 0 0 0 0 0 0 0 0 0 0 0 0 0 0 0 0 0 0 0 
0 0 0 0 0 0 0 0 0 0 0 0 0 0 0 0 0 0 0 0 0 0 0 0 0 0 0 0 0 0 0 0 0 0 0 0 0 0 0 0 0 0 0 0 0 0 0 0 0 0 0 0 0 0 0 0 0 0 0 0 0 0 0 0 0 0 0 0 0 0 0 0 0 0 0 0 0 0 0 0 0 0 0 0 0 0 0 0 0 0 0 0 0 0 0 0 0 0 0 0 0 0 0 0 0 0 0 0 0 0 0 0 0 0 0 0 0 0 0 0 0 0 0 0 0 0 0 0 0 0 0 0 0 0 0 0 0 0 0 0 0 0 0 0 0 0 0 0 0 0 
0 0 0 0 0 0 0 0 0 0 0 0 0 0 0 0 0 0 0 0 0 0 0 0 0 0 0 0 0 0 0 0 0 0 0 0 0 0 0 0 0 0 0 0 0 0 0 0 0 0 0 0 0 0 0 0 0 0 0 0 0 0 0 0 0 0 0 0 0 0 0 0 0 0 0 0 0 0 0 0 0 0 0 0 0 0 0 0 0 0 0 0 0 0 0 0 0 0 0 0 0 0 0 0 0 0 0 0 0 0 0 0 0 0 0 0 0 0 0 0 0 0 0 0 0 0 0 0 0 0 0 0 0 0 0 0 0 0 0 0 0 0 0 0 0 0 0 0 0 0 
