P2
# testes/result-filtrar6.pgm
150 100
255
0 0 0 0 0 0 0 0 0 0 0 0 0 0 0 0 0 0 0 0 0 0 0 0 0 0 0 0 0 0 0 0 0 0 0 0 0 0 0 0 0 0 0 0 0 0 0 0 0 0 0 0 0 0 0 0 0 0 0 0 0 0 0 0 0 0 0 0 0 0 0 0 0 0 0 0 0 0 0 0 0 0 0 0 0 0 0 0 0 0 0 0 0 0 0 0 0 0 0 0 0 0 0 0 0 0 0 0 0 0 0 0 0 0 0 0 0 0 0 0 0 0 0 0 0 0 0 0 0 0 0 0 0 0 0 0 0 0 0 0 0 0 0 0 0 0 0 0 0 0 
0 0 0 0 0 0 0 0 0 0 0 0 0 0 0 0 0 0 0 0 0 0 0 0 0 0 0 0 0 0 0 0 0 0 0 0 0 0 0 0 0 0 0 0 0 0 0 0 0 0 0 0 0 0 0 0 0 0 0 0 0 0 0 0 0 0 0 0 0 0 0 0 0 0 0 0 0 0 0 0 0 0 0 0 0 0 0 0 0 0 0 0 0 0 0 0 0 0 0 0 0 0 0 0 0 0 0 0 0 0 0 0 0 0 0 0 0 0 0 0 0 0 0 0 0 0 0 0 0 0 0 0 0 0 0 0 0 0 0 0 0 0 0 0 0 0 0 0 0 0 
0 0 73 73 74 73 70 69 73 77 77 75 73 72 70 70 72 75 77 76 73 68 64 65 67 67 67 67 65 66 70 72 72 69 63 57 57 60 61 59 58 58 59 62 71 74 67 62 61 62 63 64 63 61 59 59 63 64 60 57 57 53 46 47 51 53 52 48 43 38 41 49 52 50 46 44 46 47 49 54 56 57 56 49 42 40 43 44 45 47 48 43 43 46 49 50 47 44 42 43 49 52 47 43 47 49 47 42 37 35 34 35 40 45 48 48 42 35 33 34 34 35 38 41 42 41 41 44 44 43 42 42 39 32 26 25 25 24 27 32 37 38 31 25 25 30 36 41 0 0 
0 0 71 73 78 80 76 72 72 73 74 74 75 74 69 68 73 76 75 71 68 66 67 69 70 70 68 67 68 73 77 77 72 68 64 59 59 62 62 62 61 60 59 59 66 72 71 68 68 68 68 68 65 64 65 65 64 62 61 64 66 59 49 46 47 50 53 51 44 38 40 49 53 51 49 48 49 52 56 57 55 54 54 49 44 46 51 52 52 53 52 45 42 43 45 47 47 44 41 42 46 50 50 49 50 50 48 44 37 33 31 32 37 43 47 46 40 34 31 31 31 32 35 39 43 45 44 40 36 35 36 38 36 32 29 27 24 24 27 30 36 40 37 30 27 31 38 45 0 0 
0 0 73 73 79 85 82 76 72 71 71 71 74 77 72 70 75 76 72 68 65 65 67 69 70 71 70 68 69 74 80 80 75 71 67 63 61 60 58 57 57 60 62 61 62 65 67 70 70 68 66 65 63 64 68 68 62 56 57 64 68 63 54 49 47 49 54 53 46 42 44 51 54 54 53 50 50 54 58 57 55 51 50 48 48 51 54 53 53 53 50 46 44 44 45 47 46 41 37 37 40 45 48 50 50 49 48 45 39 33 30 33 41 46 47 42 35 34 35 36 34 32 34 37 41 45 42 33 28 27 31 34 34 31 28 27 26 26 29 32 38 42 42 36 30 32 40 46 0 0 
0 0 76 76 80 86 85 79 75 73 71 70 72 77 75 72 72 72 70 67 65 64 65 68 72 74 74 71 68 70 74 76 73 69 67 65 63 60 57 56 56 60 64 65 63 60 60 65 67 63 60 60 59 61 66 65 57 51 53 59 63 59 53 49 48 50 54 51 46 46 50 55 56 54 51 47 48 52 57 58 56 49 47 47 49 51 50 48 47 46 45 46 48 46 45 47 46 38 33 33 35 38 42 46 47 47 46 43 40 35 32 37 47 52 51 43 35 35 40 42 37 33 34 35 37 41 37 30 26 26 29 33 33 29 28 28 28 28 30 33 37 38 39 37 32 32 37 39 0 0 
0 0 79 79 79 81 82 80 79 77 74 72 72 75 73 68 68 70 69 67 66 65 66 71 76 77 75 70 66 66 68 71 68 65 64 65 64 61 60 60 57 58 65 69 65 59 57 62 63 59 56 56 57 60 66 65 56 51 52 57 58 54 49 49 52 52 51 47 44 46 51 56 58 55 49 45 47 51 55 58 57 48 45 48 50 49 47 47 46 44 45 50 54 49 44 46 47 41 35 32 31 31 36 41 45 48 45 41 41 39 34 37 45 52 54 48 39 36 39 38 35 34 38 38 39 43 39 33 30 29 30 33 34 31 30 31 31 31 32 34 36 35 38 41 38 37 36 33 0 0 
0 0 81 81 77 75 77 81 82 79 76 75 75 75 72 67 67 70 69 66 65 66 69 73 73 71 69 66 64 65 67 69 66 62 63 67 66 63 64 64 59 57 63 68 65 58 58 63 64 60 55 55 57 61 69 67 59 55 54 56 56 51 48 51 56 54 51 47 46 48 48 52 57 57 52 50 53 53 53 56 56 51 48 50 49 47 44 46 48 48 49 54 57 52 44 42 45 46 44 37 30 27 31 37 44 47 43 39 39 38 34 35 40 46 52 51 44 38 36 35 34 37 38 39 41 44 42 37 34 31 30 32 36 36 35 36 37 37 38 39 36 34 38 42 39 36 34 32 0 0 
0 0 80 81 75 71 73 79 79 77 75 76 76 75 73 69 68 69 67 65 65 66 67 69 68 65 65 63 62 63 65 67 65 61 61 64 64 62 66 67 61 57 60 62 60 56 56 62 67 65 60 57 57 62 69 67 61 57 57 60 58 51 47 51 56 54 52 52 54 53 48 48 52 55 54 56 58 54 48 50 54 54 53 52 48 42 38 41 45 46 47 50 53 51 45 38 40 46 50 44 34 29 30 35 43 47 43 37 38 38 36 36 37 40 46 49 47 41 36 35 38 39 37 37 39 40 39 39 38 33 28 29 35 40 39 37 36 39 42 41 36 33 34 35 31 28 30 34 0 0 
0 0 78 79 74 71 72 74 74 72 72 74 75 74 73 72 70 69 67 67 66 65 64 64 66 65 64 63 63 63 62 62 63 61 59 59 60 62 66 68 64 61 61 60 58 56 55 59 66 71 69 63 60 61 64 60 57 57 59 61 57 50 45 48 51 50 50 54 58 55 49 47 49 51 51 53 55 50 44 45 51 56 59 58 51 41 36 38 41 41 39 39 43 45 42 36 37 45 50 46 37 31 29 33 42 47 45 42 43 43 39 39 40 40 42 47 49 41 35 36 38 38 35 36 38 36 36 40 41 37 30 28 35 45 44 36 33 37 41 41 38 34 31 28 24 23 27 36 0 0 
0 0 74 72 71 73 74 73 72 71 71 71 72 73 75 74 71 68 67 68 65 63 63 64 68 69 66 64 63 63 61 60 60 61 60 58 59 64 67 69 67 65 64 61 60 59 58 57 62 70 73 68 62 60 59 55 55 59 60 58 53 48 45 47 50 49 50 55 56 53 50 50 51 52 51 50 50 48 46 46 49 54 60 61 55 45 39 41 44 42 37 36 38 39 39 36 40 46 48 44 39 34 31 32 39 45 46 47 49 45 39 39 44 45 44 48 51 45 39 39 38 38 37 39 39 36 37 40 40 38 33 29 36 48 46 36 34 37 41 42 41 39 34 30 25 24 29 36 0 0 
0 0 75 71 70 75 77 75 76 75 74 71 70 72 75 75 70 66 64 66 65 64 66 67 69 71 69 66 64 63 62 61 61 62 61 58 59 63 66 67 65 62 62 63 63 62 60 57 58 63 66 66 62 60 59 57 57 60 60 55 51 50 50 53 53 53 54 55 51 48 49 52 53 54 53 51 49 50 51 51 51 53 57 59 56 49 43 44 50 50 44 41 43 42 39 38 43 47 47 45 43 40 36 34 38 41 43 45 47 42 36 37 43 47 46 48 49 45 44 42 39 39 40 41 41 38 36 36 35 35 33 30 35 43 41 33 31 34 38 42 44 43 37 33 29 26 28 33 0 0 
0 0 78 74 75 80 82 79 79 79 77 72 69 70 73 74 70 66 64 64 65 66 67 67 68 68 69 68 67 65 63 63 62 61 60 58 57 61 65 66 64 61 63 64 64 61 61 60 58 57 59 61 61 60 62 62 60 60 57 52 50 53 55 56 55 53 53 51 46 43 47 52 53 52 53 52 49 50 52 51 52 54 55 55 55 52 46 46 53 54 48 46 48 47 44 43 43 43 43 45 46 44 39 37 38 39 38 40 41 40 37 36 39 43 43 41 39 39 44 44 40 38 37 39 41 40 36 35 35 34 33 31 34 38 34 27 25 28 34 40 42 38 33 30 28 26 26 31 0 0 
0 0 78 77 79 85 85 79 76 76 76 72 68 68 70 73 73 69 67 67 66 65 64 66 67 67 68 69 68 65 63 65 64 61 58 56 55 58 63 66 65 65 67 67 62 58 59 62 60 55 54 59 61 61 64 65 62 59 55 51 50 53 54 53 52 50 48 47 44 44 49 53 53 51 51 49 47 47 48 47 50 54 55 53 52 50 48 49 52 52 48 48 48 46 45 44 41 37 39 44 46 42 39 38 39 39 39 39 38 36 37 36 37 39 38 35 33 35 42 44 43 37 32 34 39 40 37 37 38 36 34 33 37 38 33 26 24 26 31 36 37 33 29 29 27 25 26 31 0 0 
0 0 74 76 80 84 82 76 71 70 72 70 67 65 67 72 74 72 70 71 69 65 63 66 69 69 69 68 68 67 67 70 69 64 58 55 54 58 63 65 66 67 68 66 59 54 56 62 61 54 51 55 61 65 66 64 63 60 55 51 52 53 51 49 50 49 46 47 48 50 54 56 54 49 47 46 45 46 47 47 51 54 54 50 46 45 47 50 52 50 48 49 48 46 44 41 37 34 39 46 45 39 37 38 40 42 42 41 37 35 37 40 41 40 38 36 37 40 43 44 42 34 27 29 36 38 36 34 35 34 33 35 40 39 35 32 32 30 30 30 30 28 28 29 29 26 27 30 0 0 
0 0 72 77 82 81 76 70 69 69 71 70 66 64 68 73 75 73 72 74 74 69 67 69 71 70 69 68 70 73 73 73 70 65 60 58 58 63 66 67 65 64 65 62 56 53 55 60 60 56 52 55 62 67 66 62 64 64 60 55 54 54 52 50 53 53 52 55 56 58 59 58 54 48 43 43 45 48 50 51 53 53 51 46 43 44 46 50 52 50 47 48 50 50 47 42 39 38 43 49 46 39 39 42 45 47 46 43 39 39 43 46 47 43 41 43 47 49 47 43 38 31 25 27 33 35 32 30 28 27 29 34 41 41 39 41 42 38 33 30 29 28 29 31 32 30 29 29 0 0 
0 0 74 81 84 80 73 70 72 74 75 72 66 65 71 76 75 74 74 77 78 74 71 70 70 70 70 70 73 76 76 73 68 63 64 64 64 66 67 66 63 61 61 59 56 55 55 57 59 60 59 60 63 66 63 59 61 64 64 59 57 59 59 56 55 57 60 65 63 59 57 57 53 47 44 46 49 50 52 54 54 52 50 47 46 49 49 49 50 48 44 44 48 51 48 44 43 44 48 51 47 42 42 44 49 53 50 47 46 47 48 48 46 41 39 43 50 52 47 43 39 34 30 29 31 33 33 34 31 26 27 33 38 39 40 43 44 40 35 33 33 32 31 31 33 34 34 31 0 0 
0 0 73 77 79 77 75 73 75 78 77 73 67 66 72 77 75 72 72 75 78 77 73 70 68 69 69 69 70 72 73 72 66 61 62 64 62 62 63 61 59 58 59 57 55 55 55 56 60 64 65 65 64 63 57 53 54 57 59 59 59 63 65 61 56 56 60 64 59 52 51 51 50 48 48 49 49 49 51 52 51 51 51 50 53 56 54 50 47 42 39 40 43 46 45 43 43 43 44 46 44 42 41 42 48 52 52 52 51 47 43 41 40 36 34 38 43 43 42 43 43 42 38 33 31 31 34 40 39 31 28 33 36 37 41 43 42 36 32 33 36 35 31 28 30 33 35 32 0 0 
0 0 68 69 70 74 77 77 75 75 74 72 70 70 73 78 77 72 71 74 78 76 71 66 65 66 66 64 63 64 68 70 64 59 59 60 58 57 56 56 57 58 59 57 55 54 54 56 61 65 66 65 62 60 54 49 49 52 54 57 61 66 66 63 58 55 56 56 53 48 48 48 49 51 53 51 50 49 50 50 46 44 45 48 53 58 57 52 44 36 34 37 40 41 41 41 41 40 39 40 42 42 40 39 40 42 45 49 49 42 38 38 38 36 35 38 38 35 36 40 43 44 40 35 31 29 33 42 44 35 31 33 35 37 41 43 40 36 33 35 37 33 28 27 31 34 35 33 0 0 
0 0 65 65 68 73 77 77 73 71 69 69 71 72 75 78 77 72 70 73 74 70 66 62 62 65 65 61 58 59 64 66 62 58 58 60 58 55 55 57 59 60 61 59 57 56 55 55 59 62 61 61 60 59 56 53 52 52 54 60 66 68 65 63 61 57 54 53 51 49 49 48 49 51 51 51 51 52 52 49 41 36 37 42 49 54 56 53 44 36 34 37 41 40 40 42 43 41 39 42 46 44 40 38 38 36 37 41 44 43 44 44 41 38 39 41 39 33 34 39 42 44 42 37 33 31 35 43 44 37 34 34 35 39 45 46 43 39 36 36 34 30 27 29 34 37 37 34 0 0 
0 0 68 70 73 76 78 78 73 69 67 66 68 72 74 75 75 71 70 72 70 64 61 61 63 67 68 64 59 59 63 65 62 60 62 63 60 57 58 61 62 63 63 61 59 59 58 55 57 58 55 54 55 58 61 62 58 54 56 65 73 72 67 63 59 55 53 53 51 51 51 49 47 46 46 49 53 54 51 48 42 37 36 41 48 52 54 52 46 41 39 40 44 44 44 45 45 43 41 46 51 48 41 39 40 38 34 37 43 48 51 50 45 42 45 44 40 35 34 37 39 42 43 38 33 33 39 43 41 35 34 33 33 38 48 52 48 43 40 37 34 31 29 30 32 32 32 31 0 0 
0 0 72 75 78 77 77 76 71 68 67 65 67 70 71 69 69 69 70 71 69 62 60 64 66 70 73 71 65 62 65 67 65 63 64 64 59 57 61 65 65 66 66 65 63 61 58 56 58 60 55 52 54 59 65 68 62 55 57 67 74 73 68 63 57 52 53 54 52 52 54 52 47 44 45 50 54 52 49 49 47 43 42 46 49 51 53 52 49 47 44 41 43 45 46 48 46 41 40 46 53 52 44 40 40 39 37 40 45 49 50 49 46 46 48 45 42 38 37 38 37 39 40 35 31 34 39 40 35 29 30 32 32 36 44 48 43 39 40 40 35 30 28 31 31 30 29 30 0 0 
0 0 73 77 80 78 76 74 71 69 68 66 67 68 68 65 64 64 66 69 68 63 61 63 63 68 74 76 71 67 68 67 65 64 64 64 58 55 59 65 69 69 68 68 67 62 57 57 61 64 61 56 55 59 65 68 65 61 62 69 73 70 66 61 55 52 54 53 52 57 61 56 48 47 51 56 56 50 47 50 51 48 49 50 51 53 55 53 50 48 45 43 42 43 45 48 46 40 38 40 47 51 47 41 40 41 42 44 46 48 48 48 46 47 48 44 42 41 41 39 35 36 37 33 32 37 40 37 29 23 27 32 34 35 36 36 31 30 35 38 34 29 28 33 36 35 33 33 0 0 
0 0 74 75 78 76 74 73 73 72 70 69 67 65 65 64 63 62 62 64 63 60 60 61 61 65 74 77 73 68 66 62 60 62 65 65 59 54 55 61 67 68 67 68 68 62 58 58 63 68 67 60 55 56 61 65 67 67 69 72 72 68 64 59 55 56 58 56 58 68 74 67 58 57 62 67 68 61 58 60 59 56 56 56 55 58 60 56 52 50 49 49 47 44 44 46 45 43 40 37 41 48 46 41 40 42 44 47 47 48 46 45 44 46 48 46 43 41 40 38 34 32 35 35 37 40 42 37 27 20 24 31 34 32 30 28 26 26 29 30 28 27 28 32 36 38 36 35 0 0 
0 0 75 73 75 75 72 72 74 72 70 68 64 62 63 66 67 64 64 62 60 59 62 65 64 65 72 77 74 67 62 58 57 62 66 68 65 60 55 56 60 64 66 66 64 59 57 58 64 70 70 64 56 55 57 60 64 66 68 71 68 64 61 59 59 64 70 70 73 83 89 85 80 78 81 87 90 87 83 82 79 74 72 70 69 70 67 61 55 53 52 52 50 46 46 48 49 49 44 38 40 46 43 38 39 43 47 50 48 47 45 42 38 41 46 47 43 39 39 39 35 32 33 35 39 41 42 37 29 22 24 31 35 32 29 29 29 29 28 25 22 24 27 30 33 35 34 33 0 0 
0 0 76 76 77 77 73 71 71 69 67 67 65 63 64 69 72 71 70 66 62 62 66 69 67 64 66 72 72 67 63 62 60 62 65 70 72 68 60 56 58 64 68 66 61 56 54 56 61 67 71 69 62 58 56 55 57 59 62 65 63 63 65 68 71 79 86 88 90 98 103 102 99 98 101 109 114 113 108 107 103 98 96 95 93 91 85 75 68 65 62 59 55 51 51 52 53 52 46 41 41 43 41 40 41 43 47 48 45 43 42 40 37 39 43 44 42 41 44 46 41 37 37 36 38 42 42 36 29 26 30 36 40 38 33 31 30 30 30 26 22 25 29 30 32 34 32 30 0 0 
0 0 76 78 81 81 77 73 70 69 68 69 70 69 69 71 75 78 76 70 64 64 68 71 69 65 62 65 69 69 71 71 66 61 62 69 73 71 63 58 59 64 67 65 59 53 50 50 53 59 65 68 64 60 56 54 54 59 65 69 68 71 77 84 88 95 102 102 103 108 111 111 110 109 114 124 131 131 126 125 121 117 117 117 114 111 107 101 95 91 87 80 72 63 55 53 53 49 44 42 43 44 45 44 42 41 42 43 39 36 37 40 39 39 38 36 37 41 47 50 46 41 39 36 38 44 46 40 34 32 35 40 45 46 39 33 29 29 30 29 26 28 30 33 36 37 33 30 0 0 
0 0 75 78 80 80 77 74 70 68 68 71 76 75 72 72 78 82 78 70 65 66 70 72 72 69 66 66 67 69 76 77 69 61 60 67 70 67 61 59 60 64 68 67 60 53 50 50 51 54 58 61 59 57 56 58 62 70 79 83 82 84 92 99 103 109 114 115 114 117 120 120 120 120 123 132 141 143 139 137 134 130 131 131 128 126 125 123 119 117 115 110 100 86 71 63 58 50 44 42 43 46 48 46 40 38 37 37 35 32 33 38 41 40 37 34 35 39 44 46 42 38 37 36 40 46 51 46 41 38 35 35 41 43 37 31 28 29 30 32 32 30 29 32 37 36 32 31 0 0 
0 0 75 77 77 74 72 69 66 64 66 72 77 76 73 72 77 78 73 67 64 66 71 73 72 73 75 73 68 67 73 74 67 61 60 64 66 62 57 57 61 64 67 67 61 54 54 56 59 60 60 59 58 58 62 69 74 83 91 95 95 98 104 111 116 122 126 128 127 128 130 132 133 133 134 140 148 151 149 146 142 139 139 140 140 142 143 140 136 134 134 131 125 114 101 91 82 68 56 49 46 50 52 45 38 37 36 37 37 35 34 36 38 38 36 35 36 37 39 39 36 36 39 43 44 44 45 44 44 42 34 31 35 37 33 30 31 33 35 37 36 31 28 30 35 34 31 32 0 0 
0 0 74 75 73 71 69 67 64 63 66 72 76 74 71 71 73 73 69 66 64 65 70 71 70 73 76 74 68 66 68 68 65 62 61 64 63 58 55 58 64 67 66 61 57 55 57 60 64 67 67 65 65 68 74 80 84 91 98 102 105 109 115 122 127 132 137 140 140 140 141 144 147 147 147 150 155 157 156 154 151 148 148 149 151 154 156 154 150 146 144 141 139 133 126 120 112 99 83 68 59 59 54 44 39 38 36 34 36 38 38 37 38 38 37 36 35 33 33 34 34 38 48 53 49 41 36 38 41 40 34 32 36 36 33 34 37 38 39 37 35 31 30 33 36 34 28 28 0 0 
0 0 72 73 74 74 73 72 70 67 68 73 74 72 69 70 71 70 69 68 67 66 68 68 68 69 70 69 67 68 67 66 66 65 64 66 64 58 55 59 68 70 65 59 56 55 57 59 63 68 72 73 75 80 86 90 92 96 103 109 113 117 122 128 132 137 141 145 148 149 149 152 156 157 157 160 163 163 164 163 162 160 160 161 162 163 165 163 160 155 151 148 148 146 141 136 132 124 112 96 82 71 59 47 43 40 36 33 35 38 40 40 42 41 38 37 36 35 35 36 38 44 52 54 45 35 32 36 38 36 34 36 39 39 39 41 41 41 38 32 29 29 33 35 34 28 20 18 0 0 
0 0 72 74 78 79 79 81 82 74 69 70 72 72 71 70 68 67 69 70 68 68 68 66 66 68 67 65 66 68 67 67 68 68 67 69 67 61 57 60 67 68 65 62 60 56 55 57 62 69 76 81 84 89 94 97 97 100 108 115 120 124 129 132 135 139 142 147 152 155 156 159 164 165 166 169 172 173 174 174 174 173 174 175 174 173 173 171 169 165 160 158 159 158 153 146 141 136 130 120 106 90 73 56 46 38 34 34 36 37 38 40 43 43 40 38 39 39 40 43 46 46 46 44 37 32 33 36 36 33 33 36 40 43 46 47 43 40 34 27 24 29 34 33 28 21 15 14 0 0 
0 0 73 74 78 79 80 85 86 77 69 69 71 74 76 74 67 65 69 71 69 69 70 68 67 70 70 66 65 68 68 65 66 66 67 70 70 64 59 61 63 63 63 66 63 56 54 57 65 74 82 88 92 95 99 102 103 106 113 121 125 129 134 137 141 145 149 153 158 161 163 167 171 174 175 178 180 182 184 185 184 184 185 186 185 184 182 179 177 175 172 169 168 166 162 157 150 144 141 135 124 111 95 76 54 38 34 36 38 38 37 40 44 44 40 39 38 38 39 44 47 43 37 35 32 33 36 38 39 38 37 37 40 44 46 44 40 36 30 25 26 32 35 31 25 23 20 18 0 0 
0 0 75 73 73 73 77 82 83 76 72 71 73 76 80 78 70 68 72 74 72 71 73 73 71 74 74 69 66 68 68 63 62 63 65 69 68 63 62 65 67 63 62 66 64 58 54 59 70 81 89 92 94 95 99 104 107 112 121 128 131 134 139 143 150 156 160 163 166 168 171 175 179 182 185 188 189 191 192 193 192 191 193 195 194 193 190 187 185 184 181 177 173 171 169 166 160 154 148 143 136 126 116 100 74 50 39 38 39 40 41 44 44 41 37 35 35 35 36 40 42 36 33 33 33 35 39 42 44 45 41 36 36 40 43 41 34 30 26 25 28 33 34 30 28 30 28 24 0 0 
0 0 77 73 71 71 75 79 79 76 75 75 75 76 80 81 77 74 75 75 74 72 72 73 73 74 72 67 65 66 65 62 61 63 65 67 66 63 66 72 74 67 61 64 65 62 59 62 74 85 92 94 94 94 99 106 113 120 128 135 137 139 144 150 159 165 170 173 176 177 179 184 188 191 194 197 198 199 201 201 201 200 201 201 201 199 197 194 192 190 187 183 178 176 174 173 170 164 156 148 143 136 129 120 101 76 57 45 39 40 45 48 46 39 33 33 35 38 41 41 37 33 32 36 36 36 40 43 42 39 35 32 33 39 43 40 32 26 22 23 26 31 32 30 31 34 33 31 0 0 
0 0 80 75 72 73 76 78 76 76 78 80 78 75 77 81 81 78 75 73 72 71 71 71 71 71 68 65 64 64 64 63 64 66 67 67 68 69 70 71 72 68 62 63 66 68 68 70 77 84 90 95 98 99 103 111 119 127 134 140 143 146 150 157 166 172 176 179 183 186 189 193 198 200 201 204 206 207 208 209 210 210 210 209 207 206 204 201 198 196 192 189 187 184 182 179 175 170 161 153 147 142 137 133 123 105 82 60 42 39 45 49 48 41 36 36 38 44 49 44 37 33 34 37 37 36 39 41 37 31 27 28 33 39 42 40 32 25 21 22 24 28 31 29 28 32 32 33 0 0 
0 0 81 76 72 72 75 76 75 75 78 81 78 74 74 77 77 75 70 68 68 69 70 69 69 68 67 66 64 62 63 64 66 69 71 70 71 72 70 65 65 67 65 64 68 73 77 80 85 88 89 96 104 108 112 118 126 133 138 143 148 152 156 164 173 178 180 183 188 193 197 201 205 207 208 210 212 213 215 217 219 219 219 217 215 213 211 208 205 203 200 197 196 194 190 185 179 174 167 159 152 147 144 141 136 125 106 80 53 42 44 48 49 46 43 40 39 45 50 43 35 34 35 35 34 35 38 39 35 30 27 28 33 38 40 39 32 26 21 22 23 26 28 27 26 29 30 32 0 0 
0 0 77 75 72 73 73 72 74 76 78 79 77 73 69 68 68 67 65 65 66 68 70 69 68 66 65 63 60 59 62 65 67 69 71 69 68 68 65 59 60 65 66 65 67 72 80 88 94 94 93 99 108 114 118 123 130 138 143 147 152 157 163 170 178 183 186 188 192 197 201 206 210 213 216 218 219 220 221 223 225 225 225 225 223 220 217 214 213 211 208 205 204 202 198 191 184 178 173 166 159 153 151 148 143 136 123 101 73 53 46 46 48 48 46 40 34 37 41 36 31 35 38 35 31 33 36 37 36 34 31 29 30 35 39 37 30 24 23 24 24 23 26 28 28 31 33 32 0 0 
0 0 74 73 75 80 78 73 73 76 76 75 73 69 64 62 63 65 66 69 71 72 72 72 72 68 64 61 59 60 65 68 67 66 67 66 62 62 62 59 59 63 65 66 67 72 82 93 98 98 99 104 110 116 122 128 135 144 149 153 157 163 170 177 184 189 193 195 198 202 205 210 214 219 223 225 226 227 229 229 229 229 230 230 229 227 224 221 220 219 216 212 209 206 202 196 188 182 178 173 165 160 157 153 146 141 133 119 98 75 59 52 51 48 43 34 28 31 35 33 32 37 40 36 31 33 35 36 35 34 34 32 31 35 39 35 26 22 23 24 22 20 24 29 31 33 35 33 0 0 
0 0 71 70 74 81 83 78 74 73 72 73 71 66 63 64 68 71 74 76 76 76 76 76 75 70 65 63 64 67 72 72 68 64 63 62 60 61 63 62 61 59 60 64 68 73 84 93 96 99 106 112 115 120 126 133 141 148 154 158 162 168 176 183 189 195 199 202 205 208 211 215 219 224 227 230 232 234 235 234 233 234 234 234 234 233 231 228 226 224 221 218 213 209 205 200 194 187 182 177 170 165 161 156 149 143 139 131 120 101 77 61 53 47 38 30 28 33 36 37 41 44 44 39 33 33 34 34 32 31 32 33 34 38 42 38 29 23 23 22 20 20 24 27 28 31 32 33 0 0 
0 0 71 68 68 73 78 79 74 69 68 73 73 69 68 71 76 79 80 77 74 74 78 79 77 72 68 68 70 74 77 75 68 63 62 61 60 62 66 68 65 59 58 62 69 77 85 90 92 99 110 117 120 124 131 138 144 151 157 162 167 173 180 188 194 199 204 207 210 213 217 220 225 228 231 234 237 239 241 240 239 239 239 239 239 238 237 233 230 227 225 222 217 212 209 206 201 194 187 180 174 169 165 159 152 146 143 139 134 123 99 72 55 44 35 30 33 37 40 45 51 51 46 40 34 33 33 32 31 30 29 30 33 40 46 43 35 30 27 25 25 27 30 27 25 27 30 33 0 0 
0 0 72 70 66 66 71 75 72 68 68 74 78 75 74 77 81 83 81 74 68 70 76 80 78 76 73 70 70 73 76 74 69 66 64 62 60 61 67 71 68 63 62 65 70 78 84 88 91 100 112 118 121 126 133 140 145 152 159 165 171 178 185 192 198 202 206 210 213 216 221 225 229 233 235 238 241 243 244 244 244 244 244 243 243 243 242 238 233 230 228 225 220 216 214 210 205 199 191 183 177 171 167 162 156 149 146 142 138 131 111 82 58 43 35 33 36 37 38 45 53 51 44 38 33 32 31 33 34 33 29 28 32 40 45 44 39 37 36 36 36 36 34 29 26 28 31 35 0 0 
0 0 73 72 68 66 69 71 70 68 69 75 79 77 74 76 78 79 77 71 65 67 74 80 80 79 74 68 66 68 70 71 69 69 69 65 60 61 67 69 66 65 67 69 72 78 85 89 93 101 111 117 122 126 132 139 145 153 160 165 172 182 189 195 200 204 208 212 216 219 225 230 233 236 239 241 243 245 247 248 248 248 248 247 246 246 246 242 237 233 230 227 223 220 218 213 207 200 193 186 180 174 170 167 161 153 148 143 137 129 114 88 64 46 36 33 34 35 35 40 46 45 40 35 32 31 33 35 36 36 34 33 37 42 42 41 38 37 37 37 39 36 33 27 25 28 32 37 0 0 
0 0 73 72 72 73 72 71 70 69 69 71 75 75 73 73 73 71 70 66 62 64 71 78 79 77 71 63 60 63 66 67 67 71 73 68 61 60 62 61 61 65 69 71 74 81 88 91 93 99 108 115 121 127 132 138 146 154 160 166 173 183 191 197 201 205 209 215 220 224 229 233 235 238 241 244 246 247 249 250 251 251 250 250 248 248 247 245 240 236 232 229 226 222 219 214 208 201 195 190 185 178 175 173 167 158 150 145 137 128 114 95 72 51 36 29 29 33 35 35 39 39 36 34 33 32 35 37 37 38 39 38 41 42 39 35 35 35 32 30 31 30 29 25 22 23 28 34 0 0 
0 0 75 73 76 79 76 72 72 70 68 70 73 74 72 71 71 70 68 65 63 65 72 80 79 74 68 62 58 60 65 65 65 70 74 70 65 63 60 57 60 67 71 71 75 83 88 89 90 96 104 111 118 125 131 139 147 155 162 167 173 181 189 197 202 206 211 217 223 227 231 234 236 239 243 246 248 249 251 252 253 253 252 251 250 248 247 245 242 238 234 231 227 223 219 214 209 203 198 195 189 181 176 172 166 157 150 144 136 126 117 102 78 53 37 29 28 33 34 32 32 34 34 36 37 35 36 39 38 39 41 38 38 40 36 33 33 34 32 29 28 29 29 28 25 23 25 30 0 0 
0 0 78 75 77 79 75 72 71 69 68 70 73 73 69 68 71 73 71 67 65 69 76 82 79 75 72 66 59 59 62 62 62 64 68 69 69 69 66 62 63 70 73 72 75 82 85 86 90 98 104 109 115 123 132 141 148 156 162 167 172 179 188 197 203 208 211 216 222 227 232 234 236 239 243 246 248 250 252 253 255 254 253 252 251 249 247 245 242 239 236 233 228 223 218 215 211 205 200 197 190 181 173 168 161 154 148 141 133 125 117 105 81 55 42 36 33 35 35 32 31 34 36 40 41 39 38 39 39 37 37 35 35 36 35 32 33 36 36 34 31 30 31 33 33 29 24 25 0 0 
0 0 80 77 77 75 72 70 68 67 68 70 71 71 67 65 69 73 72 67 66 70 76 78 76 78 80 73 62 58 58 58 58 60 63 66 67 69 70 67 67 72 77 75 75 80 84 86 93 102 107 110 116 125 137 145 149 154 159 164 169 177 187 196 202 207 211 216 221 226 231 234 236 240 243 245 248 250 252 253 254 254 253 252 250 249 247 245 242 240 238 234 230 224 219 215 211 204 199 194 188 179 170 164 158 153 146 139 132 125 119 108 85 59 46 38 34 35 36 34 36 40 41 41 41 39 37 39 40 37 34 32 33 35 34 32 35 41 43 38 33 31 33 37 37 31 22 20 0 0 
0 0 80 78 76 73 70 70 68 68 69 69 69 70 67 66 70 74 72 68 65 67 69 69 70 75 78 71 62 58 57 58 59 60 62 63 62 63 66 68 69 73 78 78 76 80 84 89 97 105 109 113 120 131 143 149 151 154 157 162 168 177 187 195 200 205 210 215 220 226 230 234 237 240 242 244 246 249 250 251 252 252 252 251 249 247 246 244 242 240 237 233 228 223 219 214 209 202 196 190 185 177 169 163 158 153 147 139 134 129 124 113 88 61 46 37 31 32 35 37 41 46 43 38 37 36 35 37 42 41 36 33 32 34 35 36 42 48 47 40 34 31 34 37 35 27 21 20 0 0 
0 0 79 79 75 72 70 71 73 73 73 70 70 71 68 68 72 76 73 69 66 66 66 64 65 69 71 66 60 58 60 63 64 64 65 65 61 59 60 63 66 70 74 75 76 79 84 90 99 107 113 118 123 132 142 149 152 154 158 163 170 179 187 193 199 205 210 213 218 224 229 233 236 238 240 242 244 246 248 249 249 250 250 249 247 245 244 242 240 239 236 231 225 221 217 212 207 201 193 187 182 176 169 162 158 154 147 140 135 132 129 117 90 61 46 37 31 33 38 41 42 44 40 36 36 37 35 38 44 45 42 38 33 33 38 42 48 50 46 39 34 33 34 34 30 26 26 27 0 0 
0 0 76 75 73 71 70 71 75 79 78 74 72 73 72 73 77 79 76 70 67 67 67 66 67 67 68 64 60 59 63 66 67 66 67 67 64 59 58 59 62 65 66 68 73 77 81 88 98 108 116 120 124 130 137 144 149 153 158 164 171 179 185 191 199 204 208 210 214 220 225 229 232 235 238 240 242 243 244 245 246 247 247 246 244 242 242 240 238 236 234 228 222 217 213 209 204 199 192 185 180 174 167 161 157 153 147 140 135 132 130 117 91 63 48 39 33 35 41 44 41 36 34 35 37 38 38 40 45 46 44 41 33 32 37 44 47 46 39 32 30 32 34 32 28 28 31 32 0 0 
0 0 75 75 72 71 69 69 73 79 79 76 74 75 76 76 80 82 80 73 68 65 65 68 70 69 68 65 61 61 64 66 64 63 65 67 65 61 60 60 63 64 62 64 71 76 80 86 94 104 113 117 121 127 132 137 141 147 155 162 168 174 180 189 196 200 204 207 211 216 220 224 227 230 234 236 238 239 240 241 242 243 243 242 240 239 238 236 233 232 229 225 219 214 209 204 200 196 190 184 177 170 163 157 153 150 144 138 132 129 124 111 88 62 45 37 33 35 40 45 40 32 32 37 39 38 37 39 43 43 42 41 35 32 36 42 43 39 33 26 24 30 35 34 30 31 34 34 0 0 
0 0 77 77 75 71 68 67 71 76 77 75 73 74 75 75 78 80 79 75 70 64 62 67 70 71 70 66 64 64 65 64 60 58 61 65 64 59 58 62 67 68 65 67 73 78 82 86 89 97 107 111 116 122 128 132 134 141 151 160 164 168 174 182 188 193 198 203 207 211 216 220 223 226 229 232 233 234 235 236 237 237 238 239 238 236 235 232 229 226 224 221 217 212 206 200 196 193 187 179 171 164 158 153 149 144 138 133 128 123 116 104 82 57 41 35 34 35 38 40 37 33 36 42 40 36 34 36 40 40 41 43 38 32 35 39 38 36 33 26 21 26 34 34 31 31 35 35 0 0 
0 0 78 78 76 73 68 66 69 73 73 71 68 69 73 75 77 75 74 75 74 67 61 63 68 72 73 71 68 64 62 61 60 59 61 65 63 57 56 60 66 67 66 68 73 78 83 85 87 93 102 107 112 119 126 131 133 138 147 156 161 164 168 174 180 186 192 198 203 208 212 215 219 221 224 226 228 229 230 231 231 231 232 233 233 233 232 228 224 220 217 215 213 209 202 195 190 186 181 173 165 158 153 148 144 138 133 129 125 118 110 98 79 56 42 38 39 41 39 37 34 33 36 40 38 35 35 35 39 42 43 43 36 32 34 37 36 35 34 29 24 26 32 32 27 28 33 34 0 0 
0 0 74 76 77 76 71 68 70 72 72 69 64 65 71 78 79 73 72 76 78 70 61 60 65 74 78 76 70 62 57 57 59 61 63 66 65 60 57 58 60 62 64 65 69 76 80 82 84 90 96 102 109 116 123 130 133 137 143 151 157 161 164 169 175 182 189 194 199 203 207 209 213 216 219 221 222 223 224 225 225 225 225 226 227 228 227 223 218 213 210 208 206 203 197 190 183 178 174 169 162 155 149 143 139 135 131 128 123 116 108 97 79 59 48 44 44 44 42 39 36 32 30 31 34 38 39 37 39 42 42 37 31 31 35 38 36 34 34 32 29 29 30 28 24 24 29 32 0 0 
0 0 71 76 79 77 72 71 73 74 73 69 63 63 71 78 80 75 74 78 78 72 66 63 67 76 80 76 69 60 55 56 59 62 63 63 63 61 58 54 53 56 61 63 65 70 74 76 79 84 90 96 104 111 118 125 131 136 141 146 153 158 162 166 172 179 186 191 196 199 202 205 208 210 212 214 215 216 217 219 219 219 218 218 219 220 219 215 211 206 204 201 198 194 190 183 175 169 165 163 159 153 145 139 135 132 130 127 122 114 105 92 74 60 53 49 46 43 44 46 45 37 27 26 34 43 43 37 35 38 35 29 26 30 36 37 35 34 33 33 33 32 28 24 21 22 27 31 0 0 
0 0 72 76 76 73 71 72 74 73 71 69 64 65 71 76 77 75 74 74 74 73 70 68 70 75 76 72 67 61 58 60 63 65 65 60 59 60 57 51 49 54 61 63 64 66 71 73 76 81 87 93 100 107 115 122 129 135 137 140 147 155 160 163 166 173 180 186 191 193 196 199 202 203 204 207 208 209 211 212 212 212 212 211 211 209 208 206 203 199 197 194 191 187 183 177 169 162 157 157 155 150 143 136 132 128 126 123 116 108 97 81 63 55 56 53 48 43 44 50 53 45 32 29 38 46 43 34 31 33 30 25 27 33 36 34 32 33 32 32 34 33 28 24 20 21 27 33 0 0 
0 0 77 78 74 71 71 73 70 69 70 71 68 67 72 77 77 75 73 71 72 72 70 69 70 71 69 65 63 60 62 68 70 69 65 59 55 55 53 48 47 53 59 61 62 64 68 71 74 80 86 92 98 106 115 121 127 131 132 133 140 149 156 158 159 163 169 176 181 184 188 192 195 197 198 200 202 203 203 204 203 203 204 203 201 198 197 198 196 192 190 187 185 181 176 171 165 157 153 151 150 145 139 133 127 123 120 116 108 101 91 73 53 50 53 50 44 40 42 49 53 48 40 38 42 44 38 30 29 31 29 27 32 37 37 34 31 32 32 32 33 34 35 31 25 24 29 34 0 0 
0 0 80 77 73 72 73 73 69 69 75 79 74 71 74 77 78 78 76 74 76 76 73 70 70 69 66 63 59 58 63 71 71 67 63 59 54 54 51 48 49 53 56 59 60 61 62 64 68 77 84 90 96 103 111 118 122 125 126 128 134 142 148 150 152 154 159 165 170 174 179 184 187 190 191 193 194 194 194 194 194 195 196 195 191 189 189 190 188 185 182 180 177 172 167 163 159 155 151 147 144 140 136 129 122 118 113 105 98 93 85 68 50 46 46 41 37 37 41 46 48 45 43 43 43 42 35 29 30 32 32 33 36 39 38 35 31 30 32 32 31 34 41 40 32 30 33 34 0 0 
0 0 78 75 73 74 76 75 74 76 81 83 77 72 74 76 77 77 75 74 78 79 76 73 70 71 71 67 60 57 60 65 65 63 63 62 59 59 57 55 55 57 59 63 63 59 58 57 62 73 80 86 92 97 103 110 115 118 122 125 130 135 140 142 144 147 152 157 160 165 171 175 178 180 182 184 185 185 185 185 185 186 187 186 183 182 182 182 179 177 174 171 167 163 160 157 154 150 145 140 136 134 130 123 114 108 103 97 92 85 73 58 46 41 39 36 35 36 42 45 44 40 39 40 41 41 37 33 35 37 38 37 37 37 38 37 32 29 29 30 29 34 41 41 34 35 40 41 0 0 
0 0 76 74 73 73 74 73 74 79 83 82 74 70 72 75 77 76 73 73 75 76 74 72 71 72 73 69 61 56 56 58 61 63 65 66 66 67 64 63 65 66 67 70 66 60 59 58 60 69 77 83 88 91 95 102 108 113 117 120 124 128 133 135 136 140 146 150 153 157 163 168 169 170 172 175 176 176 176 176 176 177 177 176 175 173 173 172 170 169 167 162 158 156 154 151 146 141 137 132 128 125 121 113 105 98 94 91 86 75 59 49 44 39 34 32 33 34 37 40 39 37 37 38 40 42 41 37 38 41 43 43 40 38 36 37 35 30 28 27 27 31 37 37 32 32 40 46 0 0 
0 0 75 73 70 69 71 71 73 79 82 79 71 67 69 74 77 76 76 75 74 71 68 69 71 71 69 66 61 58 57 58 61 63 63 64 68 70 67 66 70 72 72 71 66 62 62 61 60 66 75 81 84 85 88 95 100 105 111 115 119 124 129 130 130 133 140 144 145 148 153 158 160 161 164 167 168 167 167 166 166 167 166 167 166 164 163 162 162 162 159 153 151 151 149 145 138 133 128 124 120 115 110 104 97 91 87 83 75 62 51 49 49 42 33 29 31 31 33 36 37 37 39 41 42 43 44 41 41 43 46 47 44 40 36 37 37 32 28 26 27 29 34 36 31 28 33 43 0 0 
0 0 72 69 66 65 70 74 79 83 80 74 68 66 68 72 74 74 75 76 73 69 67 68 71 72 69 64 61 60 60 60 61 60 59 61 67 70 66 64 68 72 70 66 61 59 60 59 59 62 70 78 80 79 83 89 91 95 102 107 111 117 123 123 122 126 132 134 135 138 143 147 150 152 155 157 158 158 158 157 157 157 156 156 156 156 155 152 151 152 148 144 142 143 141 136 130 126 123 118 112 105 101 98 92 85 80 74 65 54 48 51 52 44 34 30 32 34 38 42 41 37 37 41 43 43 44 42 39 38 42 43 41 40 40 40 38 34 31 28 28 30 33 37 35 30 29 35 0 0 
0 0 71 67 66 67 72 80 86 86 76 68 65 67 69 72 72 70 73 75 73 69 67 69 73 75 72 64 60 61 63 62 60 58 57 62 70 71 65 63 66 70 68 61 56 56 56 56 55 57 64 72 74 72 76 82 84 87 92 96 100 107 113 115 116 119 123 124 126 130 134 137 139 142 145 146 147 148 148 148 148 148 146 146 146 146 144 141 139 140 138 135 132 130 128 124 122 120 117 111 104 98 95 92 86 78 72 66 59 53 49 49 48 42 35 34 38 39 42 45 44 37 36 41 46 46 43 38 34 34 38 38 36 39 43 44 40 35 31 27 29 30 31 34 36 34 29 29 0 0 
0 0 72 69 69 70 72 81 87 85 74 66 65 67 70 73 72 70 72 76 74 69 66 68 72 76 73 64 61 63 65 65 64 61 60 64 70 69 64 64 68 71 69 64 61 59 56 54 53 52 57 65 67 66 68 73 77 81 85 87 90 97 102 105 110 113 114 114 118 122 125 126 127 130 134 137 140 141 139 137 137 137 137 137 136 134 132 130 130 129 127 125 122 120 117 115 114 112 108 102 97 92 90 88 81 71 62 58 55 52 47 43 41 37 34 36 41 42 41 41 39 34 35 43 49 47 40 36 35 38 40 39 37 40 44 45 41 37 32 27 29 29 26 28 34 35 29 28 0 0 
0 0 72 72 73 71 71 78 84 81 74 70 70 71 73 75 73 70 71 74 73 68 64 64 68 71 69 64 63 67 70 69 70 68 64 65 67 66 64 66 68 68 67 65 64 62 58 54 52 51 55 60 62 63 65 67 70 75 81 84 87 91 93 95 101 105 104 105 110 114 115 114 115 119 124 129 133 133 131 127 125 125 126 129 129 124 120 121 121 118 114 113 112 109 108 108 105 100 97 94 92 89 86 83 75 61 51 50 51 48 42 37 35 35 34 37 41 42 41 39 36 33 36 45 49 46 39 37 39 43 44 43 40 39 40 40 40 38 34 31 31 30 26 25 31 34 29 27 0 0 
0 0 70 72 74 71 70 75 77 73 70 72 76 78 79 79 73 66 64 66 68 67 62 60 61 62 61 61 63 67 69 69 72 69 63 62 63 64 66 70 69 66 64 65 66 63 59 56 53 54 55 56 58 63 66 66 65 67 74 80 85 89 90 91 95 96 95 96 101 106 107 105 107 111 115 120 123 122 118 116 114 113 115 120 121 117 114 113 112 106 102 103 104 101 99 100 98 91 88 87 88 86 83 77 66 51 43 47 51 46 38 34 35 38 40 42 44 45 45 41 36 34 38 46 49 46 41 38 39 43 46 45 41 35 34 36 39 40 39 37 34 31 28 26 29 30 26 26 0 0 
0 0 70 72 73 72 72 73 71 66 64 69 77 82 84 81 72 62 58 59 62 64 61 60 60 58 57 60 63 65 67 67 68 65 60 58 59 62 68 72 69 65 65 68 68 65 61 57 56 56 54 51 52 57 61 62 61 62 66 72 78 84 88 91 93 91 89 89 93 99 101 100 101 103 103 107 111 111 108 107 107 107 107 111 113 111 108 106 104 98 94 96 99 96 91 89 89 85 82 80 80 81 78 71 61 49 41 45 48 43 36 36 40 44 47 47 46 47 47 43 37 36 41 50 53 48 41 38 38 41 45 47 43 35 32 35 39 41 42 38 33 30 28 26 27 29 27 26 0 0 
0 0 73 73 74 75 76 75 71 66 63 65 73 80 80 77 68 61 59 61 64 65 63 62 62 61 61 65 67 66 66 65 64 61 57 56 56 58 63 68 65 64 68 73 74 71 67 63 59 56 53 51 50 52 54 57 59 61 63 66 69 74 79 85 87 84 82 84 87 92 96 96 95 95 92 94 101 105 103 100 103 105 102 102 103 101 99 99 97 92 88 90 93 91 84 80 81 80 76 72 69 70 70 66 62 53 43 39 41 39 35 40 49 52 50 46 44 46 48 44 38 38 43 51 53 45 38 38 40 41 44 46 44 38 33 34 37 39 39 36 32 30 27 25 28 31 29 26 0 0 
0 0 76 76 77 80 82 81 76 71 67 65 70 75 74 71 66 62 62 66 69 67 63 61 62 63 67 72 73 69 67 65 61 59 58 59 58 57 58 61 61 63 70 75 73 71 69 65 59 55 57 59 58 55 51 51 55 62 64 64 63 65 70 76 78 74 72 75 80 85 90 90 89 89 87 87 92 96 93 92 98 102 100 95 93 91 89 90 90 85 81 81 82 82 78 76 76 72 65 57 52 53 56 58 59 55 46 37 37 39 38 42 52 57 53 46 41 42 46 44 39 37 40 45 46 39 34 38 43 42 41 40 38 35 31 33 37 38 37 36 35 33 31 30 34 37 33 27 0 0 
0 0 77 78 79 81 83 83 80 75 72 70 71 72 70 68 65 64 66 70 71 66 61 59 60 62 67 74 74 68 65 62 58 56 59 64 64 61 58 57 58 63 69 71 70 68 66 62 57 56 61 67 67 60 52 47 51 60 63 61 61 62 64 68 70 67 65 67 71 76 80 81 81 82 82 82 83 83 81 81 88 95 95 90 85 81 79 82 82 78 74 73 72 72 72 72 69 61 53 46 40 40 45 49 52 53 47 39 40 44 43 41 46 52 51 44 39 42 48 46 40 38 38 40 42 38 35 39 43 40 35 33 34 31 28 31 36 38 38 39 39 37 36 36 39 41 37 30 0 0 
0 0 77 76 76 78 81 84 83 78 76 74 74 74 71 69 68 67 69 70 68 65 63 61 59 60 64 69 70 67 65 63 58 56 59 66 68 66 63 59 58 60 64 67 66 64 62 60 59 61 65 69 69 61 52 47 49 57 60 58 59 61 63 64 64 63 62 62 65 66 69 70 70 73 77 79 79 78 76 75 77 82 85 82 77 73 70 72 74 73 69 67 66 65 66 65 59 50 47 47 44 41 43 45 47 50 49 45 44 46 44 38 37 41 41 37 37 44 50 46 42 40 39 42 45 43 39 39 39 36 32 32 34 32 27 27 32 34 36 39 41 39 36 37 39 40 38 34 0 0 
0 0 74 70 71 75 81 85 84 81 79 78 77 77 76 76 74 71 70 67 65 64 67 65 61 61 65 68 68 67 68 68 62 59 60 65 66 66 66 63 59 57 58 61 62 62 62 61 63 66 69 69 66 60 54 51 50 54 56 55 54 56 61 61 59 57 57 60 61 60 59 60 62 65 70 74 76 76 74 70 67 68 72 73 70 67 64 63 63 62 60 58 59 59 58 55 48 42 46 52 51 46 45 46 49 53 53 51 47 44 40 34 32 32 33 34 39 47 49 43 41 42 41 44 47 45 43 41 38 35 34 35 37 35 29 26 28 29 30 33 37 38 35 34 34 34 35 36 0 0 
0 0 76 70 71 76 81 83 82 80 80 79 79 80 80 80 77 72 70 66 64 67 70 66 62 64 70 71 68 68 71 72 67 64 65 67 66 65 65 63 59 56 56 59 62 64 65 65 65 68 70 68 63 58 55 53 53 54 55 54 49 49 54 57 56 52 52 54 56 54 55 59 61 62 64 65 66 67 67 62 57 57 61 64 64 61 58 55 52 51 49 49 51 53 53 49 45 39 40 47 47 44 45 49 55 59 56 52 45 40 38 35 31 30 32 37 44 47 45 42 42 43 42 45 45 44 45 43 39 37 36 35 37 36 32 29 29 27 26 28 35 39 36 32 30 29 30 34 0 0 
0 0 77 74 76 79 78 76 76 77 79 79 79 80 81 80 77 73 71 67 65 69 71 66 63 66 72 72 69 69 71 72 69 67 69 71 70 66 63 61 59 60 60 61 63 68 69 67 65 67 69 67 62 57 54 55 57 59 59 56 50 47 51 56 57 51 48 49 49 48 53 63 65 61 58 56 56 58 60 58 54 52 53 56 57 56 52 49 48 47 45 45 47 50 49 48 48 42 38 40 42 40 42 49 57 59 54 48 41 37 39 38 32 28 32 40 46 44 40 41 43 43 42 45 45 43 44 43 38 34 33 32 33 34 31 31 31 28 27 31 38 42 39 36 33 29 28 30 0 0 
0 0 73 73 77 79 75 72 73 76 78 79 78 77 79 79 77 74 71 66 64 67 69 64 61 63 67 68 66 67 69 71 70 70 74 75 74 68 60 58 60 64 65 64 63 66 67 65 63 63 64 65 63 56 53 56 62 65 65 63 57 53 53 58 61 56 51 48 45 43 50 62 65 58 52 49 50 53 56 57 54 52 49 49 52 53 49 46 46 48 45 42 43 46 46 48 51 47 42 43 43 38 38 44 49 51 51 50 44 38 38 37 31 28 31 37 41 39 37 41 44 43 41 44 46 44 42 41 36 31 31 32 35 34 31 30 29 27 30 36 43 45 41 40 38 33 29 26 0 0 
0 0 70 71 76 77 75 74 74 75 76 75 74 74 78 80 77 72 68 65 66 68 69 63 61 64 67 68 67 69 72 73 74 76 77 78 76 68 58 57 62 65 65 65 63 62 61 62 66 66 64 65 63 58 57 61 66 68 68 65 61 56 55 56 57 53 49 47 45 41 44 53 60 57 50 48 50 51 52 54 55 55 52 51 52 52 48 44 44 47 45 41 41 44 47 50 52 49 48 48 45 39 38 41 42 45 53 57 50 42 39 38 35 34 35 34 34 33 36 41 44 40 36 40 45 41 36 34 33 30 30 35 41 41 36 30 26 26 32 39 44 44 41 42 41 35 29 23 0 0 
0 0 74 74 75 77 76 75 74 73 71 69 68 72 79 80 74 68 65 67 71 73 71 65 66 73 76 73 72 74 76 78 79 79 79 78 77 69 60 61 66 65 62 63 62 57 55 61 69 73 69 65 62 60 61 65 66 64 62 59 56 55 55 56 53 47 44 46 47 42 40 45 53 56 53 51 50 48 48 53 57 57 56 54 52 50 47 44 43 45 45 42 42 45 50 53 51 48 49 49 46 41 40 42 42 45 53 55 51 45 43 42 44 43 41 36 32 32 37 42 42 38 34 37 40 36 31 33 35 34 32 37 45 48 41 32 27 29 34 38 41 41 40 40 39 34 28 25 0 0 
0 0 77 74 74 78 80 76 73 72 69 68 69 76 81 77 70 65 65 70 74 75 70 65 69 78 81 76 73 74 76 77 78 78 77 76 75 70 65 67 71 67 62 61 61 58 56 59 66 69 66 61 59 58 59 62 62 60 57 53 50 50 55 59 54 45 43 47 49 45 41 43 49 55 55 52 50 46 46 51 55 53 50 49 49 48 46 47 46 46 45 43 43 46 51 53 51 49 50 49 45 41 40 44 46 46 48 47 46 46 45 44 45 45 45 42 38 38 43 45 44 41 40 40 37 30 29 34 38 38 37 40 45 47 42 34 32 37 39 39 38 36 37 40 40 36 32 30 0 0 
0 0 75 71 72 79 81 76 72 72 71 71 73 78 79 74 69 67 66 69 73 71 64 59 64 74 78 72 68 69 72 73 73 73 72 70 69 68 68 71 74 69 61 58 59 62 64 64 63 63 59 56 55 55 56 58 59 58 55 51 48 49 57 64 59 50 48 50 50 47 45 46 50 54 54 52 50 48 47 50 53 49 44 44 48 50 50 51 52 50 49 47 48 49 51 52 52 52 52 49 43 39 41 48 49 44 41 40 42 46 46 44 44 48 51 50 47 44 45 47 46 45 46 45 39 32 32 40 45 45 44 44 44 45 46 43 41 43 42 39 34 30 32 37 39 38 37 38 0 0 
0 0 73 70 70 75 78 74 72 72 71 71 71 73 74 74 73 70 68 68 70 66 58 55 60 69 73 70 66 67 71 71 71 71 70 65 62 64 67 71 73 68 62 57 60 68 75 76 72 68 62 59 60 60 59 59 61 62 60 57 55 55 60 66 63 56 53 53 52 52 51 52 56 60 61 58 56 56 56 57 56 52 48 49 55 58 56 54 55 56 58 57 56 54 52 53 55 57 56 52 47 47 51 55 53 45 40 41 45 50 51 48 48 54 59 57 54 49 47 48 49 48 49 49 47 42 42 48 53 55 54 52 48 50 54 55 52 48 46 44 39 35 35 37 38 39 42 46 0 0 
0 0 75 74 70 71 73 72 72 70 68 68 66 68 72 75 75 74 70 66 65 62 59 60 64 70 73 72 69 68 70 69 67 67 66 62 60 62 66 67 69 68 68 67 69 75 81 84 84 81 75 72 72 72 71 68 68 69 70 70 68 65 67 71 71 66 63 62 60 60 60 62 66 72 74 72 70 70 70 69 67 66 65 64 68 70 66 61 63 69 72 72 71 67 63 62 64 65 66 63 61 63 67 67 63 56 54 56 61 65 65 61 60 66 70 68 66 63 59 60 63 63 61 60 61 61 61 62 63 64 67 68 64 62 64 65 63 60 59 61 60 57 55 54 52 53 56 58 0 0 
0 0 77 77 72 71 71 72 73 71 67 66 65 68 73 75 75 75 73 67 63 63 64 67 71 73 72 71 71 68 65 61 59 59 60 61 63 67 68 69 73 77 82 83 80 79 81 85 90 90 86 83 84 85 84 80 76 77 80 80 77 75 77 79 79 77 76 75 72 71 71 74 80 85 87 85 83 80 78 77 77 80 79 76 77 78 74 71 76 84 88 88 87 83 79 76 75 77 80 80 78 80 84 81 75 70 72 76 79 80 79 76 77 80 81 79 79 78 77 79 83 83 78 74 75 78 79 79 77 76 80 83 82 77 72 72 73 74 75 77 77 75 74 75 75 73 70 64 0 0 
0 0 77 78 75 74 73 74 76 75 71 69 69 71 73 72 72 73 73 68 64 64 68 71 74 73 70 69 71 68 62 59 59 57 57 61 68 73 75 79 84 88 92 91 87 84 85 87 90 92 92 92 92 92 89 86 83 83 86 85 81 81 84 85 84 85 85 84 82 80 81 85 90 93 92 92 90 84 81 81 82 85 85 82 83 84 81 81 86 93 96 95 93 91 90 87 85 87 91 93 91 92 94 90 83 82 87 91 91 88 87 87 89 90 88 86 85 86 88 90 94 94 88 83 84 85 87 89 89 87 87 90 91 87 81 79 82 85 86 85 84 82 83 87 88 82 71 56 0 0 
0 0 77 78 77 76 77 77 78 78 76 75 74 73 71 70 68 68 68 67 65 65 69 73 75 74 72 71 71 70 68 66 65 63 63 68 76 83 85 90 94 94 95 95 94 92 92 91 90 92 96 98 97 95 90 89 88 88 90 89 85 85 88 88 87 87 88 88 87 85 84 88 91 90 88 89 91 89 86 83 81 81 83 86 88 88 88 89 90 93 95 95 93 95 95 91 92 97 101 102 100 100 101 95 88 91 97 100 98 95 92 92 94 94 92 92 93 93 94 94 97 96 92 89 90 91 92 95 96 95 94 95 97 95 93 93 96 97 95 94 91 88 88 91 90 78 61 44 0 0 
0 0 79 79 76 75 76 79 81 80 78 77 77 73 70 68 67 66 65 65 65 67 69 72 74 76 77 75 73 73 74 73 72 72 76 85 93 98 99 101 102 100 100 100 100 99 98 94 92 94 99 102 100 97 94 94 92 91 92 91 89 88 88 87 87 87 86 87 87 85 83 86 88 85 83 85 89 89 88 85 79 76 78 85 89 88 90 93 92 91 93 93 93 95 94 92 96 104 107 107 106 106 106 99 95 99 102 102 102 100 96 95 96 95 94 97 101 102 101 99 99 98 97 96 97 97 97 97 98 99 100 100 104 106 108 109 108 104 101 101 99 94 90 87 81 67 50 38 0 0 
0 0 77 75 72 71 75 80 82 79 76 75 76 74 71 68 68 68 68 67 67 68 68 67 69 73 76 76 74 76 79 81 82 86 95 103 107 108 108 108 108 106 107 108 107 104 101 97 95 96 100 104 103 99 97 97 94 91 91 91 90 89 88 86 86 87 85 84 85 84 83 86 88 84 84 87 90 89 89 88 84 79 80 85 87 85 90 94 92 90 92 93 91 92 92 93 97 103 107 109 109 109 108 105 103 107 107 105 105 105 101 100 101 100 99 102 105 107 107 106 105 104 104 103 103 103 101 99 100 102 104 106 108 112 115 115 110 105 102 102 99 92 82 74 66 54 43 35 0 0 
0 0 71 69 67 68 72 78 79 74 72 73 75 74 70 67 69 72 73 71 69 67 64 61 61 66 72 77 81 86 92 95 98 103 110 112 111 110 110 111 112 113 115 115 113 108 103 99 97 96 98 101 101 98 97 97 96 93 92 92 92 92 90 88 88 91 90 87 87 88 87 89 90 89 90 95 97 93 93 96 94 90 89 90 88 85 89 93 90 90 94 97 93 91 94 96 96 97 102 106 107 106 108 109 111 112 110 107 108 110 109 108 108 108 107 107 108 108 111 112 111 110 109 109 109 109 108 107 106 107 108 108 107 109 111 110 106 102 101 99 89 77 67 58 51 44 38 31 0 0 
0 0 68 65 64 65 69 74 74 70 70 73 76 73 68 66 68 71 73 72 68 64 60 59 62 69 77 85 94 103 109 113 115 116 117 115 112 112 113 114 116 117 119 120 119 112 104 98 96 95 95 96 98 97 95 97 98 96 96 96 96 95 93 92 96 100 99 95 95 96 94 94 94 94 96 100 102 100 102 105 102 98 96 95 91 88 91 93 90 90 95 99 97 95 98 100 97 96 99 102 101 101 105 110 113 113 111 110 113 117 118 115 113 113 114 114 112 111 114 116 116 115 113 112 114 115 117 117 116 115 115 112 108 107 107 107 104 100 95 87 73 58 52 47 40 36 36 29 0 0 
0 0 72 68 66 65 66 70 70 67 67 72 77 74 70 68 67 67 68 69 68 65 65 69 78 89 95 102 112 118 121 123 124 123 119 117 117 119 121 120 119 120 121 123 123 117 106 98 96 96 97 98 99 98 98 100 100 99 98 99 97 96 96 98 103 106 105 102 101 103 102 101 100 99 99 101 102 103 106 109 107 103 100 98 95 96 99 99 95 94 97 100 101 103 106 104 101 99 100 101 101 102 104 107 111 114 115 116 119 125 126 121 116 116 118 118 116 115 118 120 121 119 116 115 116 118 122 124 125 126 123 117 114 112 111 109 101 89 79 69 57 45 42 39 35 34 37 31 0 0 
0 0 79 76 73 68 66 69 72 69 65 68 74 76 75 73 68 65 67 71 75 78 82 91 102 112 117 121 125 128 127 126 127 127 125 124 125 128 129 126 123 122 122 123 125 122 115 107 103 103 105 105 104 103 102 102 102 103 104 103 99 98 100 102 104 106 106 105 105 108 110 111 110 108 105 102 101 102 106 110 111 108 104 100 101 104 107 108 104 101 100 101 104 109 111 108 104 104 104 104 107 110 110 109 113 118 121 122 123 127 128 124 120 119 120 121 121 121 124 125 124 122 120 120 121 122 126 129 131 132 129 123 121 119 115 104 86 66 55 53 47 38 35 35 34 35 36 30 0 0 
0 0 81 83 80 73 68 70 75 73 68 68 71 77 79 77 70 67 72 80 91 100 106 114 121 127 130 131 131 131 132 131 131 131 131 130 131 132 132 130 127 126 124 126 127 127 126 122 117 114 114 112 110 107 105 105 107 112 114 111 106 105 106 106 107 109 111 109 109 112 115 117 119 119 115 109 106 106 107 112 116 114 110 107 107 109 112 115 113 108 106 107 108 110 112 111 110 111 111 112 116 122 122 120 120 123 126 127 127 129 128 127 125 125 124 125 127 129 131 130 128 126 125 126 127 128 130 132 133 134 132 127 123 118 106 85 61 42 36 39 39 35 34 36 36 34 31 29 0 0 
0 0 79 81 79 74 71 73 77 78 76 73 73 76 79 79 76 77 86 100 113 122 126 130 131 133 135 135 133 134 137 138 137 135 135 134 134 134 134 132 131 131 131 132 133 132 134 134 130 125 121 118 117 115 111 112 117 122 122 118 115 116 116 114 115 118 120 119 116 117 118 120 122 125 122 117 115 114 114 118 120 118 115 114 113 112 114 119 119 115 113 115 115 114 115 117 118 121 122 123 129 134 133 130 129 130 132 133 134 133 133 133 134 133 131 130 132 134 135 133 132 132 132 132 132 132 133 132 132 133 132 125 115 101 83 62 45 34 28 28 31 34 36 37 34 30 27 29 0 0 
0 0 77 77 75 72 69 71 75 80 79 74 74 79 84 90 95 102 112 125 133 135 137 141 140 140 139 138 138 142 146 146 144 142 141 141 142 141 138 135 135 136 139 141 141 138 139 141 139 134 129 128 130 130 126 127 129 130 127 125 126 129 129 125 125 128 131 131 128 125 125 125 125 126 126 125 125 124 122 124 125 122 121 122 122 119 120 124 125 123 122 125 125 124 124 127 130 133 135 136 140 142 139 136 135 137 139 140 139 139 139 141 142 141 138 136 136 137 137 136 136 138 140 139 139 138 137 134 133 132 127 113 94 74 59 48 44 38 30 25 27 33 36 36 31 26 25 29 0 0 
0 0 79 78 75 72 68 68 73 78 77 75 80 92 105 116 125 131 138 144 146 143 143 147 147 147 144 142 145 151 154 152 149 148 149 149 150 149 145 140 140 141 144 147 147 145 145 145 144 141 140 140 142 143 142 142 143 140 137 137 138 141 141 136 135 138 141 141 138 135 135 134 132 131 132 134 134 133 132 133 132 131 132 133 133 132 133 136 137 135 134 135 137 138 139 140 142 145 146 145 145 145 142 139 140 142 144 144 144 143 145 147 147 144 142 142 141 141 139 138 139 141 144 145 145 144 141 137 131 123 108 89 71 56 49 47 46 42 34 28 28 31 35 35 31 27 25 28 0 0 
0 0 80 78 76 73 69 71 77 84 88 92 102 117 131 141 147 150 153 155 153 148 147 150 152 152 149 148 151 156 157 154 153 153 153 153 154 154 151 147 146 146 147 150 152 152 152 151 150 149 150 150 149 150 152 153 152 149 147 146 147 149 149 145 144 146 148 148 146 146 148 147 143 141 142 144 144 142 142 145 146 146 147 148 149 148 148 148 148 146 145 145 148 151 151 150 150 153 153 150 148 148 146 146 146 145 146 148 149 148 149 151 150 147 147 149 149 147 145 144 144 146 148 150 152 150 144 134 120 100 76 59 52 50 50 48 45 41 36 33 31 32 35 37 36 32 28 27 0 0 
0 0 78 75 74 75 77 83 94 106 116 124 132 141 148 153 156 158 160 161 158 154 153 155 157 156 154 153 154 156 157 157 158 159 157 155 155 157 156 154 153 152 152 154 157 158 158 158 158 157 157 156 155 156 158 159 156 153 152 153 155 156 155 152 150 153 156 156 155 155 158 158 155 153 153 155 154 152 153 156 158 159 160 160 160 160 159 156 153 153 152 151 153 158 158 157 156 156 154 153 153 153 154 155 155 151 151 153 154 153 153 153 153 153 154 156 156 154 153 153 153 153 154 156 158 153 140 121 98 74 52 40 41 45 45 42 39 37 34 34 34 34 37 42 44 41 33 26 0 0 
0 0 76 74 77 86 96 108 122 135 145 151 154 156 158 160 161 162 164 163 162 160 160 161 163 163 161 159 158 158 159 160 164 165 162 159 158 160 161 162 160 158 157 159 162 163 162 163 163 162 162 162 161 162 165 165 161 157 157 160 163 165 164 161 159 162 165 165 163 161 163 165 166 165 164 165 164 162 162 164 164 164 165 165 165 164 163 160 158 159 159 157 157 161 162 163 162 159 156 156 157 158 161 165 166 163 159 159 159 158 157 158 158 159 160 162 161 159 160 161 161 161 160 159 154 141 119 96 79 61 46 40 41 43 40 35 33 33 33 35 37 36 38 43 47 45 37 27 0 0 
0 0 79 84 96 111 128 141 151 157 161 165 166 166 166 167 168 168 167 166 165 165 165 167 169 170 169 165 163 164 165 167 169 168 166 164 164 166 167 168 168 165 163 164 167 167 165 165 166 166 167 168 167 168 170 170 165 163 163 166 170 173 171 169 168 171 173 171 167 165 165 168 171 173 173 172 171 170 169 168 168 168 168 168 166 166 166 165 166 168 167 163 162 164 166 167 166 164 161 161 162 163 166 170 174 172 168 165 163 162 163 164 165 164 165 167 168 166 166 167 166 164 159 148 129 106 82 67 61 53 45 42 43 43 39 35 32 33 34 38 40 37 36 38 39 39 35 28 0 0 
0 0 0 0 0 0 0 0 0 0 0 0 0 0 0 0 0 0 0 0 0 0 0 0 0 0 0 0 0 0 0 0 0 0 0 0 0 0 0 0 0 0 0 0 0 0 0 0 0 0 0 0 0 0 0 0 0 0 0 0 0 0 0 0 0 0 0 0 0 0 0 0 0 0 0 0 0 0 0 0 0 0 0 0 0 0 0 0 0 0 0 0 0 0 0 0 0 0 0 0 0 0 0 0 0 0 0 0 0 0 0 0 0 0 0 0 0 0 0 0 0 0 0 0 0 0 0 0 0 0 0 0 0 0 0 0 0 0 0 0 0 0 0 0 0 0 0 0 0 0 
0 0 0 0 0 0 0 0 0 0 0 0 0 0 0 0 0 0 0 0 0 0 0 0 0 0 0 0 0 0 0 0 0 0 0 0 0 0 0 0 0 0 0 0 0 0 0 0 0 0 0 0 0 0 0 0 0 0 0 0 0 0 0 0 0 0 0 0 0 0 0 0 0 0 0 0 0 0 0 0 0 0 0 0 0 0 0 0 0 0 0 0 0 0 0 0 0 0 0 0 0 0 0 0 0 0 0 0 0 0 0 0 0 0 0 0 0 0 0 0 0 0 0 0 0 0 0 0 0 0 0 0 0 0 0 0 0 0 0 0 0 0 0 0 0 0 0 0 0 0 
