P2
# testes/result-script1_2.pgm
150 100
255
0 0 0 0 0 0 0 0 0 0 0 0 0 0 0 0 0 0 0 0 0 0 0 0 0 0 0 0 0 0 0 0 0 0 0 0 0 0 0 0 0 0 0 0 0 0 0 0 0 0 0 0 0 0 0 55 57 55 55 57 58 55 54 55 57 55 55 55 55 57 57 58 58 58 59 59 59 61 63 65 67 0 0 0 0 0 0 0 0 0 0 0 0 0 0 0 0 0 0 0 0 0 0 0 0 0 0 0 0 0 0 0 0 0 0 0 0 0 0 0 0 0 0 0 0 0 0 0 0 0 0 0 0 0 0 0 0 0 0 0 0 0 0 0 0 0 0 0 0 0 
0 0 0 0 0 0 0 0 0 0 0 0 0 0 0 0 0 0 0 0 0 0 0 0 0 0 0 0 0 0 0 0 0 0 0 0 0 0 0 0 0 0 0 0 0 0 0 0 0 0 0 0 0 0 50 51 52 54 54 55 55 54 55 58 59 57 57 55 55 55 55 55 55 57 58 58 58 60 60 62 64 65 64 65 64 0 0 0 0 0 0 0 0 0 0 0 0 0 0 0 0 0 0 0 0 0 0 0 0 0 0 0 0 0 0 0 0 0 0 0 0 0 0 0 0 0 0 0 0 0 0 0 0 0 0 0 0 0 0 0 0 0 0 0 0 0 0 0 0 0 
0 0 0 0 0 0 0 0 0 0 0 0 0 0 0 0 0 0 0 0 0 0 0 0 0 0 0 0 0 0 0 0 0 0 0 0 0 0 0 0 0 0 0 0 0 0 0 0 0 0 47 45 44 44 47 48 51 54 57 59 60 59 60 63 59 55 55 55 55 55 55 55 57 57 57 57 59 60 61 61 61 61 62 64 64 60 59 59 59 61 0 0 0 0 0 0 0 0 0 0 0 0 0 0 0 0 0 0 0 0 0 0 0 0 0 0 0 0 0 0 0 0 0 0 0 0 0 0 0 0 0 0 0 0 0 0 0 0 0 0 0 0 0 0 0 0 0 0 0 0 
0 0 0 0 0 0 0 0 0 0 0 0 0 0 0 0 0 0 0 0 0 0 0 0 0 0 0 0 0 0 0 0 0 0 0 0 0 0 0 0 0 0 0 0 0 0 0 0 48 49 52 53 50 48 46 48 51 54 59 61 64 67 68 66 60 55 54 55 57 57 55 55 55 57 58 57 58 59 61 61 62 63 61 62 64 61 60 60 59 60 60 61 62 62 0 0 0 0 0 0 0 0 0 0 0 0 0 0 0 0 0 0 0 0 0 0 0 0 0 0 0 0 0 0 0 0 0 0 0 0 0 0 0 0 0 0 0 0 0 0 0 0 0 0 0 0 0 0 0 0 
0 0 0 0 0 0 0 0 0 0 0 0 0 0 0 0 0 0 0 0 0 0 0 0 0 0 0 0 0 0 0 0 0 0 0 0 0 0 0 0 0 0 0 0 0 0 0 47 47 47 48 51 52 53 51 49 50 51 54 57 59 64 72 67 59 55 53 53 53 54 55 57 57 57 57 57 60 64 65 65 65 65 65 66 65 60 60 60 59 59 59 59 60 61 60 60 60 0 0 0 0 0 0 0 0 0 0 0 0 0 0 0 0 0 0 0 0 0 0 0 0 0 0 0 0 0 0 0 0 0 0 0 0 0 0 0 0 0 0 0 0 0 0 0 0 0 0 0 0 0 
0 0 0 0 0 0 0 0 0 0 0 0 0 0 0 0 0 0 0 0 0 0 0 0 0 0 0 0 0 0 0 0 0 0 0 0 0 0 0 0 0 0 0 0 0 48 48 48 47 47 47 48 48 49 52 52 52 52 53 54 55 57 59 58 57 57 55 55 55 57 57 58 58 60 61 61 63 67 69 67 64 63 62 64 62 60 59 59 59 59 59 59 60 61 61 61 62 62 63 0 0 0 0 0 0 0 0 0 0 0 0 0 0 0 0 0 0 0 0 0 0 0 0 0 0 0 0 0 0 0 0 0 0 0 0 0 0 0 0 0 0 0 0 0 0 0 0 0 0 0 
0 0 0 0 0 0 0 0 0 0 0 0 0 0 0 0 0 0 0 0 0 0 0 0 0 0 0 0 0 0 0 0 0 0 0 0 0 0 0 0 0 0 0 0 48 48 48 48 48 48 49 49 49 50 52 55 57 57 55 58 60 60 57 54 54 57 57 57 58 58 59 59 60 64 68 66 64 64 65 62 60 60 60 61 61 62 61 61 61 61 61 61 61 61 62 63 64 64 64 64 62 0 0 0 0 0 0 0 0 0 0 0 0 0 0 0 0 0 0 0 0 0 0 0 0 0 0 0 0 0 0 0 0 0 0 0 0 0 0 0 0 0 0 0 0 0 0 0 0 0 
0 0 0 0 0 0 0 0 0 0 0 0 0 0 0 0 0 0 0 0 0 0 0 0 0 0 0 0 0 0 0 0 0 0 0 0 0 0 0 0 0 0 0 46 46 47 49 50 48 48 48 48 50 53 54 57 58 58 55 54 60 62 60 58 58 55 57 57 57 59 61 63 65 63 62 62 62 61 60 60 60 60 60 59 60 61 61 62 63 64 65 64 63 63 65 66 65 64 64 63 63 61 61 63 0 0 0 0 0 0 0 0 0 0 0 0 0 0 0 0 0 0 0 0 0 0 0 0 0 0 0 0 0 0 0 0 0 0 0 0 0 0 0 0 0 0 0 0 0 0 
0 0 0 0 0 0 0 0 0 0 0 0 0 0 0 0 0 0 0 0 0 0 0 0 0 0 0 0 0 0 0 0 0 0 0 0 0 0 0 0 0 0 48 50 49 49 49 50 51 50 50 50 53 54 55 54 53 53 53 53 54 59 62 61 59 58 59 60 61 62 63 68 71 67 62 62 61 59 60 60 61 61 60 59 60 61 61 63 66 65 65 66 67 67 69 68 66 65 65 64 63 62 63 63 63 0 0 0 0 0 0 0 0 0 0 0 0 0 0 0 0 0 0 0 0 0 0 0 0 0 0 0 0 0 0 0 0 0 0 0 0 0 0 0 0 0 0 0 0 0 
0 0 0 0 0 0 0 0 0 0 0 0 0 0 0 0 0 0 0 0 0 0 0 0 0 0 0 0 0 0 0 0 0 0 0 0 0 0 0 0 0 48 48 50 53 52 52 51 53 51 50 49 49 52 53 52 50 48 51 53 54 57 60 60 58 59 64 76 78 67 65 66 66 66 64 62 60 59 60 61 61 62 62 62 63 64 65 66 68 68 67 67 67 67 67 66 65 65 65 65 63 63 64 63 63 62 0 0 0 0 0 0 0 0 0 0 0 0 0 0 0 0 0 0 0 0 0 0 0 0 0 0 0 0 0 0 0 0 0 0 0 0 0 0 0 0 0 0 0 0 
0 0 0 0 0 0 0 0 0 0 0 0 0 0 0 0 0 0 0 0 0 0 0 0 0 0 0 0 0 0 0 0 0 0 0 0 0 0 0 0 0 47 48 48 50 52 52 52 52 49 49 48 47 47 47 49 50 52 52 53 55 58 62 63 63 64 67 82 86 76 71 64 63 62 62 60 59 60 60 61 61 62 62 64 66 69 71 68 68 68 68 67 68 66 65 64 66 65 66 65 65 65 65 64 63 62 60 61 0 0 0 0 0 0 0 0 0 0 0 0 0 0 0 0 0 0 0 0 0 0 0 0 0 0 0 0 0 0 0 0 0 0 0 0 0 0 0 0 0 0 
0 0 0 0 0 0 0 0 0 0 0 0 0 0 0 0 0 0 0 0 0 0 0 0 0 0 0 0 0 0 0 0 0 0 0 0 0 0 0 0 44 46 47 48 48 50 51 52 52 52 51 50 50 49 50 52 52 53 55 55 58 59 61 62 62 64 67 78 76 73 71 65 65 62 60 59 59 59 59 60 61 62 62 63 64 66 69 68 67 67 68 69 69 68 68 68 68 68 71 67 66 66 66 66 63 62 61 62 62 0 0 0 0 0 0 0 0 0 0 0 0 0 0 0 0 0 0 0 0 0 0 0 0 0 0 0 0 0 0 0 0 0 0 0 0 0 0 0 0 0 
0 0 0 0 0 0 0 0 0 0 0 0 0 0 0 0 0 0 0 0 0 0 0 0 0 0 0 0 0 0 0 0 0 0 0 0 0 0 0 0 44 46 48 48 49 50 51 53 53 52 49 49 49 50 51 53 53 55 55 57 58 58 58 59 63 65 67 72 68 62 61 60 60 59 59 60 60 59 59 59 60 61 60 62 64 66 71 72 71 68 68 69 71 72 72 73 73 73 73 69 68 68 67 66 65 64 63 64 66 67 0 0 0 0 0 0 0 0 0 0 0 0 0 0 0 0 0 0 0 0 0 0 0 0 0 0 0 0 0 0 0 0 0 0 0 0 0 0 0 0 
0 0 0 0 0 0 0 0 0 0 0 0 0 0 0 0 0 0 0 0 0 0 0 0 0 0 0 0 0 0 0 0 0 0 0 0 0 0 0 40 41 44 45 48 49 49 51 53 51 47 48 49 49 51 52 52 52 53 55 55 58 58 58 61 64 65 65 66 67 64 61 62 61 59 59 59 60 59 59 60 61 61 62 64 66 69 71 74 73 71 72 73 75 75 73 74 75 74 74 74 75 75 73 69 67 68 68 68 67 69 74 0 0 0 0 0 0 0 0 0 0 0 0 0 0 0 0 0 0 0 0 0 0 0 0 0 0 0 0 0 0 0 0 0 0 0 0 0 0 0 
0 0 0 0 0 0 0 0 0 0 0 0 0 0 0 0 0 0 0 0 0 0 0 0 0 0 0 0 0 0 0 0 0 0 0 0 0 0 48 47 45 43 43 45 48 48 49 51 50 48 49 49 49 50 52 52 52 53 53 54 58 59 61 61 62 64 63 63 63 62 62 62 61 59 59 60 60 60 60 63 65 62 64 65 66 69 71 72 72 71 73 75 73 72 72 73 74 73 73 75 79 79 77 74 75 72 71 69 71 73 72 0 0 0 0 0 0 0 0 0 0 0 0 0 0 0 0 0 0 0 0 0 0 0 0 0 0 0 0 0 0 0 0 0 0 0 0 0 0 0 
0 0 0 0 0 0 0 0 0 0 0 0 0 0 0 0 0 0 0 0 0 0 0 0 0 0 0 0 0 0 0 0 0 0 0 0 0 0 48 49 52 52 45 43 44 47 48 48 49 49 50 51 49 48 50 51 52 53 54 57 58 60 63 62 63 65 64 63 62 62 63 62 59 59 59 61 60 60 61 64 65 64 65 66 66 68 69 68 69 71 73 74 71 69 68 72 75 74 75 78 79 80 80 90 93 78 78 78 78 78 76 82 0 0 0 0 0 0 0 0 0 0 0 0 0 0 0 0 0 0 0 0 0 0 0 0 0 0 0 0 0 0 0 0 0 0 0 0 0 0 
0 0 0 0 0 0 0 0 0 0 0 0 0 0 0 0 0 0 0 0 0 0 0 0 0 0 0 0 0 0 0 0 0 0 0 0 0 49 47 47 51 61 59 48 46 46 45 47 48 48 49 50 51 52 53 53 53 53 53 55 55 58 58 58 59 60 59 59 60 59 60 60 59 59 60 59 60 62 64 68 69 68 67 67 69 69 68 67 68 71 72 72 72 68 68 71 72 78 86 85 83 82 87 90 86 86 85 85 85 83 85 91 92 0 0 0 0 0 0 0 0 0 0 0 0 0 0 0 0 0 0 0 0 0 0 0 0 0 0 0 0 0 0 0 0 0 0 0 0 0 
0 0 0 0 0 0 0 0 0 0 0 0 0 0 0 0 0 0 0 0 0 0 0 0 0 0 0 0 0 0 0 0 0 0 0 0 0 48 49 49 51 54 54 50 48 48 46 47 46 47 48 48 49 50 51 52 52 52 52 53 54 55 58 58 55 57 58 58 57 57 59 59 60 61 62 60 60 62 65 66 68 69 69 68 69 71 69 71 72 73 72 71 69 68 69 73 78 86 85 83 86 86 86 82 82 89 86 85 87 90 92 92 94 88 0 0 0 0 0 0 0 0 0 0 0 0 0 0 0 0 0 0 0 0 0 0 0 0 0 0 0 0 0 0 0 0 0 0 0 0 
0 0 0 0 0 0 0 0 0 0 0 0 0 0 0 0 0 0 0 0 0 0 0 0 0 0 0 0 0 0 0 0 0 0 0 0 50 52 54 55 55 55 54 53 49 48 47 47 46 47 47 46 46 47 48 51 53 55 58 57 57 58 58 57 58 58 58 58 59 58 59 60 62 63 66 62 60 63 66 66 67 67 67 68 68 69 69 71 72 74 74 74 73 72 74 77 82 85 86 85 83 85 87 86 87 86 86 90 95 90 88 88 88 89 0 0 0 0 0 0 0 0 0 0 0 0 0 0 0 0 0 0 0 0 0 0 0 0 0 0 0 0 0 0 0 0 0 0 0 0 
0 0 0 0 0 0 0 0 0 0 0 0 0 0 0 0 0 0 0 0 0 0 0 0 0 0 0 0 0 0 0 0 0 0 0 0 51 54 55 61 58 55 54 53 51 48 48 48 48 48 48 48 48 49 51 54 58 61 65 66 67 69 71 64 61 61 60 59 59 59 59 59 60 62 63 66 69 69 68 68 72 75 75 76 75 72 73 75 73 74 75 79 81 80 82 83 82 80 85 90 88 85 89 91 89 90 92 98 95 89 88 91 90 85 82 0 0 0 0 0 0 0 0 0 0 0 0 0 0 0 0 0 0 0 0 0 0 0 0 0 0 0 0 0 0 0 0 0 0 0 
0 0 0 0 0 0 0 0 0 0 0 0 0 0 0 0 0 0 0 0 0 0 0 0 0 0 0 0 0 0 0 0 0 0 0 0 51 54 54 50 48 47 47 46 46 48 48 48 50 51 52 52 54 57 59 61 64 65 63 65 69 73 73 69 67 67 64 61 59 59 61 63 65 66 63 68 76 77 73 72 74 77 81 79 81 81 79 78 76 76 79 81 83 83 85 86 85 85 90 94 91 87 88 92 98 98 94 95 95 94 92 90 87 86 85 85 0 0 0 0 0 0 0 0 0 0 0 0 0 0 0 0 0 0 0 0 0 0 0 0 0 0 0 0 0 0 0 0 0 0 
0 0 0 0 0 0 0 0 0 0 0 0 0 0 0 0 0 0 0 0 0 0 0 0 0 0 0 0 0 0 0 0 0 0 0 46 48 50 52 50 45 43 43 43 43 46 48 49 49 51 54 55 57 58 60 63 64 65 66 68 72 76 71 67 68 68 68 65 63 62 64 65 66 67 65 64 67 71 72 72 69 73 78 79 80 79 80 78 80 80 80 81 82 85 85 83 88 93 90 89 96 96 94 93 95 92 89 89 88 89 88 86 82 82 85 83 85 0 0 0 0 0 0 0 0 0 0 0 0 0 0 0 0 0 0 0 0 0 0 0 0 0 0 0 0 0 0 0 0 0 
0 0 0 0 0 0 0 0 0 0 0 0 0 0 0 0 0 0 0 0 0 0 0 0 0 0 0 0 0 0 0 0 0 0 0 48 48 48 48 48 48 47 45 47 49 50 51 52 53 53 54 55 59 58 59 60 62 66 68 69 73 71 72 74 69 67 67 67 66 66 66 65 65 66 67 66 66 68 69 72 72 74 76 76 74 73 76 76 78 81 79 76 77 79 83 92 98 98 95 101 108 103 95 92 90 86 88 93 93 91 88 82 81 83 85 83 83 0 0 0 0 0 0 0 0 0 0 0 0 0 0 0 0 0 0 0 0 0 0 0 0 0 0 0 0 0 0 0 0 0 
0 0 0 0 0 0 0 0 0 0 0 0 0 0 0 0 0 0 0 0 0 0 0 0 0 0 0 0 0 0 0 0 0 0 47 47 49 50 47 47 49 51 51 50 53 55 54 54 54 54 55 57 58 59 61 63 65 68 68 68 68 71 69 67 65 65 65 65 65 66 66 67 64 63 62 63 66 67 69 72 73 73 74 73 72 74 75 75 75 77 78 79 82 85 89 92 93 92 93 95 98 98 93 86 83 83 89 91 88 86 83 81 82 83 83 83 86 87 0 0 0 0 0 0 0 0 0 0 0 0 0 0 0 0 0 0 0 0 0 0 0 0 0 0 0 0 0 0 0 0 
0 0 0 0 0 0 0 0 0 0 0 0 0 0 0 0 0 0 0 0 0 0 0 0 0 0 0 0 0 0 0 0 0 0 47 48 48 48 47 48 49 49 50 50 51 54 55 54 55 55 54 54 54 57 58 62 68 67 71 74 76 78 77 74 73 72 68 66 65 65 66 66 64 62 63 64 65 66 68 69 69 69 69 69 72 74 75 75 76 78 83 90 89 88 89 91 92 93 94 94 94 93 91 86 83 85 87 85 82 82 82 82 85 86 89 90 90 93 0 0 0 0 0 0 0 0 0 0 0 0 0 0 0 0 0 0 0 0 0 0 0 0 0 0 0 0 0 0 0 0 
0 0 0 0 0 0 0 0 0 0 0 0 0 0 0 0 0 0 0 0 0 0 0 0 0 0 0 0 0 0 0 0 0 51 49 47 45 45 47 49 49 50 52 53 55 55 55 59 62 66 73 71 69 67 69 76 88 109 101 94 85 80 82 75 71 71 68 66 67 66 66 65 64 64 64 65 66 67 68 69 72 72 73 73 74 75 76 76 79 83 89 93 94 94 92 92 93 93 93 96 97 95 92 88 87 88 86 86 87 88 86 86 86 87 90 92 91 94 97 0 0 0 0 0 0 0 0 0 0 0 0 0 0 0 0 0 0 0 0 0 0 0 0 0 0 0 0 0 0 0 
0 0 0 0 0 0 0 0 0 0 0 0 0 0 0 0 0 0 0 0 0 0 0 0 0 0 0 0 0 0 0 0 0 52 53 52 50 49 48 49 57 59 58 59 63 66 66 67 71 71 72 74 79 76 74 77 81 89 87 83 80 76 77 90 87 82 95 93 77 73 71 71 74 73 72 69 69 69 71 71 73 73 75 75 75 75 78 79 80 81 82 85 87 88 86 87 89 89 89 91 94 93 90 88 87 88 89 92 91 88 86 86 91 93 93 92 90 89 91 96 0 0 0 0 0 0 0 0 0 0 0 0 0 0 0 0 0 0 0 0 0 0 0 0 0 0 0 0 0 0 
0 0 0 0 0 0 0 0 0 0 0 0 0 0 0 0 0 0 0 0 0 0 0 0 0 0 0 0 0 0 0 0 55 55 55 53 53 54 54 55 58 60 59 60 61 62 63 63 66 71 76 71 64 65 66 68 72 72 74 78 80 77 79 103 119 130 151 205 170 83 77 78 82 85 77 75 73 73 73 72 72 73 73 73 75 76 79 82 83 82 81 83 86 83 81 83 85 85 85 88 92 93 93 89 87 88 87 87 86 85 87 92 97 96 95 94 93 91 90 92 0 0 0 0 0 0 0 0 0 0 0 0 0 0 0 0 0 0 0 0 0 0 0 0 0 0 0 0 0 0 
0 0 0 0 0 0 0 0 0 0 0 0 0 0 0 0 0 0 0 0 0 0 0 0 0 0 0 0 0 0 0 55 54 54 53 52 51 51 51 52 51 51 51 53 53 53 54 59 64 72 79 76 66 66 68 72 73 75 75 83 92 85 90 103 110 125 147 209 205 129 94 95 97 94 85 76 72 74 76 73 71 73 73 75 76 76 77 80 82 85 87 87 83 86 88 89 90 89 89 91 93 91 88 87 86 85 86 88 87 92 97 94 95 94 91 91 92 91 91 90 95 0 0 0 0 0 0 0 0 0 0 0 0 0 0 0 0 0 0 0 0 0 0 0 0 0 0 0 0 0 
0 0 0 0 0 0 0 0 0 0 0 0 0 0 0 0 0 0 0 0 0 0 0 0 0 0 0 0 0 0 0 59 59 59 59 58 57 57 58 59 57 57 60 62 67 64 64 66 69 71 69 67 63 60 61 63 66 68 72 80 89 88 95 100 107 121 121 107 116 114 93 90 90 82 80 77 76 74 74 78 77 75 76 75 75 78 78 78 80 81 82 85 85 86 88 88 88 89 90 90 91 89 90 93 90 87 89 89 89 91 93 92 93 92 90 89 91 95 97 101 103 100 0 0 0 0 0 0 0 0 0 0 0 0 0 0 0 0 0 0 0 0 0 0 0 0 0 0 0 0 
0 0 0 0 0 0 0 0 0 0 0 0 0 0 0 0 0 0 0 0 0 0 0 0 0 0 0 0 0 0 75 71 69 66 66 67 64 63 62 68 75 69 63 61 62 64 63 61 60 60 62 65 63 63 65 69 74 72 71 72 73 80 88 102 137 150 116 91 90 87 83 81 79 78 75 76 78 78 79 83 83 85 82 76 77 76 77 79 81 80 79 79 82 83 85 86 87 89 89 89 93 93 93 90 88 88 89 89 89 90 90 91 90 91 93 93 95 98 101 103 104 104 0 0 0 0 0 0 0 0 0 0 0 0 0 0 0 0 0 0 0 0 0 0 0 0 0 0 0 0 
0 0 0 0 0 0 0 0 0 0 0 0 0 0 0 0 0 0 0 0 0 0 0 0 0 0 0 0 0 0 65 64 63 61 64 68 66 68 69 76 80 73 65 62 60 58 57 57 58 60 62 63 67 69 72 76 77 74 75 75 77 77 75 68 68 79 80 79 79 80 81 82 82 80 76 74 75 77 75 72 74 79 83 86 81 79 78 80 82 82 82 82 85 85 86 87 89 90 89 87 87 88 87 87 88 87 87 86 85 85 83 87 91 95 95 95 98 98 94 92 96 102 0 0 0 0 0 0 0 0 0 0 0 0 0 0 0 0 0 0 0 0 0 0 0 0 0 0 0 0 
0 0 0 0 0 0 0 0 0 0 0 0 0 0 0 0 0 0 0 0 0 0 0 0 0 0 0 0 0 59 62 64 64 61 58 62 69 69 66 62 59 58 58 58 58 57 55 57 57 58 60 62 66 67 68 71 72 75 77 76 74 77 80 79 76 69 66 67 68 68 68 68 68 68 69 71 73 76 73 78 83 83 85 82 81 80 82 85 85 92 98 93 87 85 85 83 85 86 87 88 87 86 85 86 83 81 81 83 83 86 92 104 121 122 108 107 103 107 111 105 104 103 111 0 0 0 0 0 0 0 0 0 0 0 0 0 0 0 0 0 0 0 0 0 0 0 0 0 0 0 
0 0 0 0 0 0 0 0 0 0 0 0 0 0 0 0 0 0 0 0 0 0 0 0 0 0 0 0 0 59 58 55 52 52 52 52 52 53 54 54 53 53 54 53 53 53 54 54 54 58 59 59 61 63 66 68 74 82 89 91 88 78 73 69 73 78 80 83 88 85 79 77 75 73 69 71 73 73 75 79 80 79 80 80 82 83 85 82 80 87 86 81 82 83 82 85 88 89 87 86 86 83 83 83 81 82 86 91 94 100 107 105 107 107 111 109 112 121 116 106 103 103 106 0 0 0 0 0 0 0 0 0 0 0 0 0 0 0 0 0 0 0 0 0 0 0 0 0 0 0 
0 0 0 0 0 0 0 0 0 0 0 0 0 0 0 0 0 0 0 0 0 0 0 0 0 0 0 0 58 57 57 57 55 53 53 54 54 54 54 54 54 54 54 52 52 53 53 53 54 55 57 57 58 59 63 66 72 76 80 85 88 87 82 80 75 72 74 76 75 80 83 83 83 82 77 75 77 79 78 76 78 79 78 78 80 80 77 78 85 88 89 90 91 90 91 93 94 90 88 86 83 82 83 85 89 94 98 101 100 102 104 109 104 101 108 111 106 104 106 105 101 98 95 100 0 0 0 0 0 0 0 0 0 0 0 0 0 0 0 0 0 0 0 0 0 0 0 0 0 0 
0 0 0 0 0 0 0 0 0 0 0 0 0 0 0 0 0 0 0 0 0 0 0 0 0 0 0 0 58 58 59 58 58 59 59 60 59 55 55 55 54 54 57 57 55 54 54 54 54 55 57 57 57 58 60 64 67 68 71 74 77 82 82 83 86 81 81 83 83 83 81 80 80 85 85 79 78 79 77 74 74 77 78 75 78 82 86 87 89 91 92 93 91 90 89 90 90 89 89 87 83 85 87 89 94 96 95 96 97 100 100 102 103 102 103 106 104 105 108 107 104 103 101 100 0 0 0 0 0 0 0 0 0 0 0 0 0 0 0 0 0 0 0 0 0 0 0 0 0 0 
0 0 0 0 0 0 0 0 0 0 0 0 0 0 0 0 0 0 0 0 0 0 0 0 0 0 0 52 53 53 54 54 54 54 54 54 55 61 62 61 63 65 66 64 61 59 55 55 54 55 57 58 59 58 59 62 65 66 68 69 73 76 78 79 81 81 79 78 79 82 82 81 80 79 81 81 80 78 76 75 78 81 82 83 89 91 94 93 89 88 86 86 86 90 94 94 92 94 90 87 88 88 90 93 93 95 98 101 98 98 97 101 101 103 104 104 105 107 108 107 104 102 98 97 0 0 0 0 0 0 0 0 0 0 0 0 0 0 0 0 0 0 0 0 0 0 0 0 0 0 
0 0 0 0 0 0 0 0 0 0 0 0 0 0 0 0 0 0 0 0 0 0 0 0 0 0 0 53 53 53 53 54 53 54 54 54 57 59 59 60 61 62 62 62 63 63 62 60 58 58 57 58 59 59 59 60 62 65 67 69 69 69 72 74 74 74 77 79 78 77 78 81 81 81 82 82 82 83 85 85 87 88 91 94 89 88 92 90 85 81 82 88 91 93 95 95 95 92 91 90 91 92 98 104 102 100 100 102 102 101 100 101 101 100 98 100 100 101 100 102 101 97 96 96 96 0 0 0 0 0 0 0 0 0 0 0 0 0 0 0 0 0 0 0 0 0 0 0 0 0 
0 0 0 0 0 0 0 0 0 0 0 0 0 0 0 0 0 0 0 0 0 0 0 0 0 0 52 53 53 54 53 54 54 55 55 54 55 55 57 57 58 58 58 58 60 62 63 62 61 59 59 58 59 60 60 63 65 67 68 69 72 73 73 73 73 75 76 77 78 79 80 80 80 81 90 89 85 83 85 87 88 88 89 93 93 94 96 95 94 89 90 93 97 97 96 101 107 102 104 105 106 108 114 118 114 104 102 103 103 101 101 101 103 106 106 105 106 105 105 105 101 98 97 97 96 0 0 0 0 0 0 0 0 0 0 0 0 0 0 0 0 0 0 0 0 0 0 0 0 0 
0 0 0 0 0 0 0 0 0 0 0 0 0 0 0 0 0 0 0 0 0 0 0 0 0 0 55 57 57 57 55 57 57 57 57 58 58 59 58 58 60 60 60 60 61 64 65 65 64 63 61 60 61 62 64 67 68 69 69 72 73 75 79 79 79 82 82 80 79 80 80 78 79 80 86 85 81 82 86 88 88 86 86 88 91 94 95 101 102 101 101 104 109 109 110 112 112 116 116 116 117 117 117 114 111 110 107 108 108 106 109 110 110 110 108 106 105 104 101 97 97 97 97 96 96 95 0 0 0 0 0 0 0 0 0 0 0 0 0 0 0 0 0 0 0 0 0 0 0 0 
0 0 0 0 0 0 0 0 0 0 0 0 0 0 0 0 0 0 0 0 0 0 0 0 0 0 55 57 57 58 58 57 55 57 57 57 57 58 57 58 59 59 59 61 61 62 65 66 66 66 66 65 65 66 68 68 69 69 72 74 76 79 85 86 85 83 83 82 81 80 79 81 82 86 88 87 85 88 92 93 92 91 91 92 93 100 104 103 104 108 107 107 106 105 106 106 108 111 111 111 110 110 110 108 107 105 103 103 101 100 102 103 104 105 105 104 104 103 103 102 100 97 97 97 96 95 0 0 0 0 0 0 0 0 0 0 0 0 0 0 0 0 0 0 0 0 0 0 0 0 
0 0 0 0 0 0 0 0 0 0 0 0 0 0 0 0 0 0 0 0 0 0 0 0 0 58 58 59 61 61 63 65 65 65 64 63 62 60 59 59 59 60 61 62 63 64 65 66 67 68 69 72 74 75 74 73 72 74 76 78 78 79 81 80 80 79 78 80 85 86 86 87 86 85 88 89 91 92 93 96 97 101 104 105 105 103 105 106 106 108 107 107 107 107 108 108 109 110 111 111 109 109 109 107 106 104 104 103 102 102 102 102 102 102 102 102 102 101 100 98 98 96 96 95 94 94 0 0 0 0 0 0 0 0 0 0 0 0 0 0 0 0 0 0 0 0 0 0 0 0 
0 0 0 0 0 0 0 0 0 0 0 0 0 0 0 0 0 0 0 0 0 0 0 0 0 62 63 64 65 65 66 67 67 67 67 68 68 68 67 67 67 66 66 66 67 68 68 69 69 69 69 69 72 73 74 77 81 82 82 83 82 83 85 85 86 87 87 86 87 88 90 91 91 92 94 95 98 101 104 107 108 110 112 112 112 112 112 112 112 112 114 114 114 114 114 115 116 117 118 118 118 117 116 115 112 111 109 108 107 106 106 107 107 107 106 106 105 103 103 103 102 101 100 100 100 98 100 0 0 0 0 0 0 0 0 0 0 0 0 0 0 0 0 0 0 0 0 0 0 0 
0 0 0 0 0 0 0 0 0 0 0 0 0 0 0 0 0 0 0 0 0 0 0 0 0 64 65 65 64 65 65 65 65 65 66 67 68 69 71 72 72 72 72 73 74 75 76 80 83 86 90 96 104 109 102 92 88 86 87 87 89 91 92 93 96 96 94 95 96 95 96 96 96 97 98 103 109 110 112 114 114 114 115 115 116 118 118 118 119 120 120 121 122 122 122 123 124 124 124 124 124 124 124 122 121 119 118 117 116 115 115 115 115 114 112 112 111 109 109 109 106 105 105 105 104 104 103 0 0 0 0 0 0 0 0 0 0 0 0 0 0 0 0 0 0 0 0 0 0 0 
0 0 0 0 0 0 0 0 0 0 0 0 0 0 0 0 0 0 0 0 0 0 0 0 68 69 74 74 69 68 69 69 71 69 72 74 78 81 82 82 82 83 83 83 86 89 91 95 102 106 130 156 162 168 157 128 112 104 104 102 100 100 100 102 103 103 102 102 103 103 103 105 107 108 110 114 115 115 117 117 119 120 120 122 123 125 126 128 128 129 129 131 132 132 132 134 134 134 134 134 132 133 134 131 129 128 125 124 124 122 122 121 120 120 119 117 115 114 114 111 112 112 111 110 107 107 106 0 0 0 0 0 0 0 0 0 0 0 0 0 0 0 0 0 0 0 0 0 0 0 
0 0 0 0 0 0 0 0 0 0 0 0 0 0 0 0 0 0 0 0 0 0 0 0 71 71 72 72 72 72 72 74 77 76 77 78 79 80 82 85 85 85 86 86 86 89 95 97 98 97 97 97 98 101 102 103 103 104 103 103 103 103 103 104 105 106 107 108 108 108 109 110 111 112 115 117 118 120 122 122 121 121 122 125 128 130 130 133 134 135 136 138 140 140 138 137 142 142 142 142 140 142 137 136 135 133 129 128 125 125 124 124 123 123 122 121 119 117 116 117 107 98 90 80 103 101 100 0 0 0 0 0 0 0 0 0 0 0 0 0 0 0 0 0 0 0 0 0 0 0 
0 0 0 0 0 0 0 0 0 0 0 0 0 0 0 0 0 0 0 0 0 0 0 0 69 68 69 69 69 69 72 74 75 77 78 79 79 81 83 85 86 87 89 90 91 92 93 93 94 97 100 100 101 101 101 101 103 105 104 103 104 105 106 107 108 110 112 112 115 117 118 119 122 122 122 123 126 129 130 136 148 158 156 147 149 153 156 150 145 145 145 147 149 137 124 124 144 150 150 149 145 131 120 117 124 131 133 134 133 132 132 131 131 129 128 125 122 119 112 96 77 71 69 68 72 71 67 69 0 0 0 0 0 0 0 0 0 0 0 0 0 0 0 0 0 0 0 0 0 0 
0 0 0 0 0 0 0 0 0 0 0 0 0 0 0 0 0 0 0 0 0 0 0 0 69 69 71 71 72 72 74 74 75 76 77 79 79 80 81 81 83 86 87 89 92 92 92 93 95 97 98 100 101 102 103 103 104 104 105 106 107 108 110 111 112 114 115 116 118 120 122 125 132 129 128 131 132 132 133 140 150 160 159 157 150 159 161 158 154 154 157 150 140 138 138 138 140 146 152 157 137 125 123 119 115 112 114 114 114 111 112 112 117 122 115 104 96 92 86 79 78 78 76 76 71 66 65 63 0 0 0 0 0 0 0 0 0 0 0 0 0 0 0 0 0 0 0 0 0 0 
0 0 0 0 0 0 0 0 0 0 0 0 0 0 0 0 0 0 0 0 0 0 0 67 68 69 69 69 69 72 73 74 75 76 77 79 80 82 81 82 85 87 88 90 91 92 93 95 97 98 100 101 102 102 104 104 106 106 107 108 109 110 111 112 114 115 116 118 118 120 121 122 123 126 128 129 130 130 132 133 135 136 140 135 114 140 157 162 162 162 165 156 152 157 158 157 157 154 152 150 148 146 140 136 132 125 119 114 109 108 106 105 103 101 97 94 91 88 87 86 83 80 77 73 71 69 68 66 0 0 0 0 0 0 0 0 0 0 0 0 0 0 0 0 0 0 0 0 0 0 
0 0 0 0 0 0 0 0 0 0 0 0 0 0 0 0 0 0 0 0 0 0 0 65 66 67 68 68 69 71 72 74 75 76 78 79 81 82 82 85 86 88 89 91 92 94 94 96 97 100 101 102 103 103 105 106 107 108 109 109 110 111 112 112 112 115 117 117 118 120 121 123 125 126 126 128 130 133 134 138 140 143 140 129 117 98 89 116 168 176 172 166 168 171 172 172 173 172 168 165 163 159 154 150 145 138 132 125 120 117 115 112 110 107 103 100 95 92 89 86 82 78 74 72 71 68 65 62 0 0 0 0 0 0 0 0 0 0 0 0 0 0 0 0 0 0 0 0 0 0 
0 0 0 0 0 0 0 0 0 0 0 0 0 0 0 0 0 0 0 0 0 0 0 64 66 67 67 68 68 69 71 73 75 77 78 79 80 81 83 85 87 89 90 92 93 93 95 97 98 100 102 103 105 106 106 108 108 109 110 111 112 114 115 115 116 117 118 119 120 121 123 124 125 126 129 132 135 138 142 142 148 147 130 104 71 64 71 73 104 175 185 178 182 186 188 187 188 187 185 180 176 172 165 160 153 145 137 131 126 121 118 115 112 108 104 101 96 92 89 86 81 78 76 72 67 64 62 59 0 0 0 0 0 0 0 0 0 0 0 0 0 0 0 0 0 0 0 0 0 0 
0 0 0 0 0 0 0 0 0 0 0 0 0 0 0 0 0 0 0 0 0 0 0 60 61 62 63 65 66 66 67 68 71 73 73 76 77 78 80 82 85 87 89 90 91 94 95 97 100 103 104 105 106 107 108 109 110 111 112 115 116 117 118 118 118 119 119 120 121 122 123 126 129 131 133 135 138 140 154 175 181 129 85 63 66 73 75 82 87 111 192 207 203 200 200 203 204 201 197 203 201 195 186 170 160 150 143 137 131 126 122 118 114 110 107 103 97 93 90 87 83 80 74 68 67 66 64 61 0 0 0 0 0 0 0 0 0 0 0 0 0 0 0 0 0 0 0 0 0 0 
0 0 0 0 0 0 0 0 0 0 0 0 0 0 0 0 0 0 0 0 0 0 0 57 58 58 59 60 62 63 64 66 67 69 75 73 75 77 79 82 85 88 90 92 95 98 101 103 105 107 109 110 111 112 114 115 116 118 119 120 120 121 120 122 123 122 124 124 125 126 126 132 134 137 140 145 149 167 189 176 106 63 63 69 73 72 75 79 90 94 121 183 213 219 215 218 220 222 224 177 120 124 167 189 173 154 147 140 135 130 128 122 119 117 110 103 101 100 95 89 85 78 74 71 68 67 64 61 0 0 0 0 0 0 0 0 0 0 0 0 0 0 0 0 0 0 0 0 0 0 
0 0 0 0 0 0 0 0 0 0 0 0 0 0 0 0 0 0 0 0 0 0 0 58 59 57 58 59 60 62 62 64 65 68 72 73 75 77 80 83 88 92 96 100 103 106 108 110 111 114 117 118 119 120 121 122 124 125 126 125 126 126 128 116 94 91 102 124 132 132 136 139 143 146 156 160 165 172 137 72 60 68 69 72 71 73 76 79 86 92 100 117 151 204 239 247 244 211 139 85 69 65 69 111 171 173 152 139 136 139 132 133 135 122 106 111 110 112 121 91 82 79 76 73 71 67 65 65 0 0 0 0 0 0 0 0 0 0 0 0 0 0 0 0 0 0 0 0 0 0 
0 0 0 0 0 0 0 0 0 0 0 0 0 0 0 0 0 0 0 0 0 0 0 46 50 55 55 57 58 59 61 62 64 66 69 73 75 78 82 89 95 101 107 111 116 119 120 121 123 125 128 128 129 130 131 132 133 134 135 138 139 142 118 87 85 88 86 98 134 151 151 147 153 159 158 140 122 89 63 67 72 69 71 72 72 75 78 80 71 68 91 145 136 120 163 221 178 103 80 86 81 77 74 64 80 122 160 166 159 153 158 160 149 146 131 124 114 97 96 90 87 82 79 76 75 73 71 68 0 0 0 0 0 0 0 0 0 0 0 0 0 0 0 0 0 0 0 0 0 0 
0 0 0 0 0 0 0 0 0 0 0 0 0 0 0 0 0 0 0 0 0 0 0 49 50 51 52 53 54 57 59 61 63 65 69 73 77 83 90 98 108 120 128 131 133 135 135 136 135 135 135 144 146 144 146 147 149 154 151 151 131 111 102 100 96 92 96 105 128 134 102 91 93 96 82 73 69 69 73 72 72 73 74 74 74 72 73 69 63 67 69 110 158 156 151 157 136 102 110 89 83 80 78 78 72 66 88 134 145 177 181 161 159 145 137 124 104 119 109 100 92 96 86 78 75 77 73 69 0 0 0 0 0 0 0 0 0 0 0 0 0 0 0 0 0 0 0 0 0 0 
0 0 0 0 0 0 0 0 0 0 0 0 0 0 0 0 0 0 0 0 0 0 0 47 47 48 50 52 53 55 59 61 64 67 72 76 80 88 96 110 135 140 173 199 179 178 178 177 173 164 158 178 178 170 163 157 156 171 187 150 134 131 133 124 126 125 129 152 143 103 101 95 104 89 85 82 80 76 73 73 75 76 72 71 66 64 65 65 63 66 69 69 111 156 168 175 146 110 100 89 89 87 86 82 81 80 75 75 79 101 115 157 158 139 130 105 89 101 101 116 109 115 115 98 107 91 87 86 0 0 0 0 0 0 0 0 0 0 0 0 0 0 0 0 0 0 0 0 0 0 
0 0 0 0 0 0 0 0 0 0 0 0 0 0 0 0 0 0 0 0 0 0 0 47 48 49 51 53 57 58 60 64 66 69 75 79 93 112 147 183 193 195 217 252 242 239 246 238 232 232 231 220 224 221 209 213 200 204 204 183 191 179 171 173 158 153 145 137 132 140 156 140 152 135 114 88 96 95 89 91 86 77 67 66 66 65 66 67 66 68 68 69 67 81 120 145 151 133 101 101 100 91 90 86 85 88 103 105 96 123 145 133 143 154 149 143 142 129 136 149 167 133 144 145 139 125 129 104 0 0 0 0 0 0 0 0 0 0 0 0 0 0 0 0 0 0 0 0 0 0 
0 0 0 0 0 0 0 0 0 0 0 0 0 0 0 0 0 0 0 0 0 0 0 48 49 50 52 54 57 62 66 64 67 68 72 74 105 153 162 187 172 171 182 220 208 209 223 204 200 211 208 204 228 228 233 224 229 251 248 238 231 220 202 177 147 147 149 157 153 135 133 171 197 140 132 123 115 106 102 90 72 62 64 63 65 68 69 68 69 69 71 72 76 69 71 108 130 167 166 149 149 146 107 125 119 98 105 110 111 119 183 179 130 144 135 140 142 143 150 129 178 164 146 143 148 163 130 125 0 0 0 0 0 0 0 0 0 0 0 0 0 0 0 0 0 0 0 0 0 0 
0 0 0 0 0 0 0 0 0 0 0 0 0 0 0 0 0 0 0 0 0 0 0 48 50 52 54 57 59 62 64 64 65 66 69 74 77 85 90 95 102 111 124 156 143 148 166 143 139 145 145 154 173 168 183 197 199 214 232 239 248 245 233 200 153 129 130 133 186 152 132 174 174 87 65 50 41 39 46 43 46 47 50 57 59 65 71 69 71 72 72 75 82 129 137 109 89 102 132 161 196 208 149 134 137 145 145 135 166 208 175 168 163 152 128 135 154 154 151 162 156 156 171 173 170 146 137 125 0 0 0 0 0 0 0 0 0 0 0 0 0 0 0 0 0 0 0 0 0 0 
0 0 0 0 0 0 0 0 0 0 0 0 0 0 0 0 0 0 0 0 0 0 0 0 47 47 49 51 55 57 60 62 63 65 67 72 76 79 86 92 97 102 109 123 121 123 133 124 124 128 129 137 148 142 147 164 194 189 190 208 223 241 248 176 143 136 138 116 154 138 100 74 58 30 34 36 37 43 48 49 51 51 52 54 58 59 65 72 72 72 76 79 87 122 142 129 95 95 125 120 130 151 147 137 121 105 103 125 150 202 219 160 151 159 154 161 160 201 200 206 164 151 150 160 156 149 157 131 0 0 0 0 0 0 0 0 0 0 0 0 0 0 0 0 0 0 0 0 0 0 
0 0 0 0 0 0 0 0 0 0 0 0 0 0 0 0 0 0 0 0 0 0 0 0 47 48 49 51 53 57 60 60 62 64 67 72 76 79 83 89 92 95 102 109 109 112 119 116 116 120 124 130 135 130 142 161 154 181 202 209 227 214 202 156 175 188 152 150 134 71 35 30 33 39 38 39 44 44 50 50 53 57 55 47 52 62 63 66 71 74 79 82 91 106 108 115 98 109 201 145 177 145 156 167 157 110 101 105 123 156 183 180 153 144 131 148 133 158 175 152 151 132 121 106 111 123 145 0 0 0 0 0 0 0 0 0 0 0 0 0 0 0 0 0 0 0 0 0 0 0 
0 0 0 0 0 0 0 0 0 0 0 0 0 0 0 0 0 0 0 0 0 0 0 0 48 50 51 53 55 59 60 61 63 66 72 75 77 79 83 87 90 93 98 105 106 108 115 114 115 118 119 121 130 149 178 157 107 163 210 234 218 167 163 159 166 151 106 83 47 32 38 39 39 39 41 41 47 46 48 51 53 59 53 48 57 63 62 60 68 78 83 89 97 98 130 142 112 119 199 153 192 145 189 189 161 142 128 128 153 172 175 186 181 159 163 151 134 125 139 129 124 116 121 130 136 131 144 0 0 0 0 0 0 0 0 0 0 0 0 0 0 0 0 0 0 0 0 0 0 0 
0 0 0 0 0 0 0 0 0 0 0 0 0 0 0 0 0 0 0 0 0 0 0 0 0 51 53 55 58 60 61 64 66 71 73 75 78 81 83 88 91 94 97 103 104 107 110 111 110 112 124 140 167 177 192 171 138 171 147 154 153 138 147 82 76 57 33 30 36 39 37 38 38 39 45 45 46 45 53 55 53 57 50 50 59 62 59 60 64 71 88 103 109 115 138 156 130 125 202 174 199 153 191 199 171 145 131 136 154 193 170 133 159 145 159 148 160 146 153 150 138 146 129 111 96 116 114 0 0 0 0 0 0 0 0 0 0 0 0 0 0 0 0 0 0 0 0 0 0 0 
0 0 0 0 0 0 0 0 0 0 0 0 0 0 0 0 0 0 0 0 0 0 0 0 0 53 55 58 60 62 65 68 69 73 75 77 80 83 88 92 93 94 97 102 107 107 107 110 123 149 172 186 193 215 247 191 94 95 87 105 78 51 38 30 30 33 38 39 38 37 39 40 40 43 46 47 47 54 61 55 54 59 52 51 55 60 60 59 62 66 74 101 139 136 146 165 178 213 209 208 207 177 201 182 179 178 178 150 133 152 159 162 175 160 157 147 168 153 168 157 178 144 112 85 130 89 76 0 0 0 0 0 0 0 0 0 0 0 0 0 0 0 0 0 0 0 0 0 0 0 
0 0 0 0 0 0 0 0 0 0 0 0 0 0 0 0 0 0 0 0 0 0 0 0 0 57 59 60 62 64 66 69 72 74 77 79 82 86 88 91 94 97 103 103 105 116 130 150 172 180 202 219 225 191 126 58 27 25 30 30 31 34 35 36 37 38 38 38 37 38 40 41 43 46 49 47 47 54 62 58 57 61 59 60 64 62 62 59 62 65 71 71 134 167 171 205 216 194 171 153 167 160 156 160 193 217 203 197 158 150 158 162 150 152 157 144 162 192 157 136 138 105 110 91 85 75 0 0 0 0 0 0 0 0 0 0 0 0 0 0 0 0 0 0 0 0 0 0 0 0 
0 0 0 0 0 0 0 0 0 0 0 0 0 0 0 0 0 0 0 0 0 0 0 0 0 59 60 61 63 65 68 72 75 77 80 81 85 88 90 94 98 100 103 124 154 168 183 199 200 197 149 92 64 31 18 26 33 35 35 36 36 35 34 36 37 37 37 38 39 44 41 44 46 49 49 47 49 58 62 61 60 62 63 60 59 62 60 57 63 62 66 73 80 110 160 232 236 161 151 151 168 152 147 163 167 213 246 244 225 166 142 183 207 166 153 158 165 202 167 148 123 133 129 101 97 88 0 0 0 0 0 0 0 0 0 0 0 0 0 0 0 0 0 0 0 0 0 0 0 0 
0 0 0 0 0 0 0 0 0 0 0 0 0 0 0 0 0 0 0 0 0 0 0 0 0 0 62 65 67 67 69 74 76 79 82 85 88 92 94 95 103 132 165 174 180 199 196 115 75 52 18 16 22 29 34 34 33 33 32 33 34 34 34 39 39 40 40 43 47 47 49 54 55 50 47 49 59 64 63 63 60 62 65 63 58 55 53 55 60 64 65 68 77 89 115 163 188 164 136 142 164 154 167 154 145 160 171 166 142 165 172 159 191 147 179 161 132 158 214 192 174 171 154 132 134 118 0 0 0 0 0 0 0 0 0 0 0 0 0 0 0 0 0 0 0 0 0 0 0 0 
0 0 0 0 0 0 0 0 0 0 0 0 0 0 0 0 0 0 0 0 0 0 0 0 0 0 65 67 69 71 74 77 79 82 85 87 90 93 107 132 158 176 178 200 207 122 39 17 16 22 27 30 31 31 34 32 32 35 35 33 32 32 37 43 44 44 46 46 49 55 58 62 59 53 51 57 69 61 66 66 61 62 66 63 57 52 51 53 55 61 65 66 72 81 96 101 116 161 144 130 138 135 159 164 165 178 182 145 139 148 179 160 137 173 164 158 176 153 194 211 174 176 186 170 131 0 0 0 0 0 0 0 0 0 0 0 0 0 0 0 0 0 0 0 0 0 0 0 0 0 
0 0 0 0 0 0 0 0 0 0 0 0 0 0 0 0 0 0 0 0 0 0 0 0 0 0 0 71 72 75 78 81 85 86 90 95 109 143 183 186 192 213 232 191 76 10 22 26 26 25 26 27 31 35 33 33 35 38 37 34 34 34 37 40 45 41 44 46 58 66 59 61 63 59 58 60 72 66 72 71 64 61 63 60 51 51 54 54 57 60 65 66 68 74 77 82 85 101 164 136 160 159 177 195 200 203 109 75 101 46 100 116 90 123 102 158 166 139 142 83 92 176 197 188 158 0 0 0 0 0 0 0 0 0 0 0 0 0 0 0 0 0 0 0 0 0 0 0 0 0 
0 0 0 0 0 0 0 0 0 0 0 0 0 0 0 0 0 0 0 0 0 0 0 0 0 0 0 77 77 81 85 86 87 90 97 119 176 203 191 217 219 154 93 20 15 26 23 22 23 24 25 25 30 34 32 34 35 37 36 34 36 35 38 44 44 46 45 54 61 61 62 62 64 62 62 61 71 77 75 74 69 63 61 57 50 50 53 55 58 60 62 64 66 66 87 110 130 153 111 118 152 145 161 172 181 167 47 38 35 40 53 59 39 37 102 140 75 87 103 67 51 57 89 119 125 0 0 0 0 0 0 0 0 0 0 0 0 0 0 0 0 0 0 0 0 0 0 0 0 0 
0 0 0 0 0 0 0 0 0 0 0 0 0 0 0 0 0 0 0 0 0 0 0 0 0 0 0 0 82 82 82 96 121 97 117 145 170 214 248 189 50 17 11 24 24 21 20 21 23 23 23 25 29 34 33 31 35 37 37 33 35 36 40 44 46 50 52 65 61 60 61 57 63 66 65 63 71 87 76 79 72 64 58 53 52 53 54 55 58 59 64 64 64 64 108 138 106 137 137 165 166 158 167 163 93 38 38 37 40 39 39 39 55 63 107 163 151 227 217 164 71 48 46 95 0 0 0 0 0 0 0 0 0 0 0 0 0 0 0 0 0 0 0 0 0 0 0 0 0 0 
0 0 0 0 0 0 0 0 0 0 0 0 0 0 0 0 0 0 0 0 0 0 0 0 0 0 0 0 89 110 139 173 180 123 146 164 199 209 149 40 13 24 23 21 20 20 20 21 24 23 24 29 36 38 34 44 36 35 37 36 36 38 40 45 49 49 49 61 71 67 53 58 65 69 68 67 71 83 78 80 72 63 54 54 55 53 53 57 62 68 64 65 64 62 65 85 100 96 123 181 219 178 143 78 33 36 33 32 35 39 45 44 50 130 180 96 92 145 177 104 60 63 51 46 0 0 0 0 0 0 0 0 0 0 0 0 0 0 0 0 0 0 0 0 0 0 0 0 0 0 
0 0 0 0 0 0 0 0 0 0 0 0 0 0 0 0 0 0 0 0 0 0 0 0 0 0 0 0 0 207 213 223 218 140 171 202 140 61 16 17 21 19 19 20 21 21 23 24 23 25 29 29 37 41 44 69 44 38 39 38 40 43 46 49 51 50 52 65 71 60 57 64 72 78 77 74 76 82 86 77 76 63 57 54 54 53 54 58 73 72 61 61 64 62 75 147 167 157 139 145 123 101 61 35 35 32 32 35 34 40 52 75 130 177 162 153 131 132 136 54 64 58 54 0 0 0 0 0 0 0 0 0 0 0 0 0 0 0 0 0 0 0 0 0 0 0 0 0 0 0 
0 0 0 0 0 0 0 0 0 0 0 0 0 0 0 0 0 0 0 0 0 0 0 0 0 0 0 0 0 0 222 209 210 156 181 109 16 13 22 21 19 20 20 20 22 22 22 22 25 25 32 36 39 47 61 71 63 43 41 40 44 45 54 54 50 55 60 67 62 59 61 74 77 85 86 78 80 86 91 80 75 65 61 57 55 55 55 60 63 64 58 54 58 68 96 129 95 109 144 144 79 49 33 32 33 33 35 40 40 47 60 107 178 205 222 214 199 197 140 53 55 52 48 0 0 0 0 0 0 0 0 0 0 0 0 0 0 0 0 0 0 0 0 0 0 0 0 0 0 0 
0 0 0 0 0 0 0 0 0 0 0 0 0 0 0 0 0 0 0 0 0 0 0 0 0 0 0 0 0 0 197 196 163 72 31 12 20 21 19 19 19 19 19 21 21 21 21 24 29 31 34 37 47 67 77 65 51 41 39 45 54 54 55 61 57 59 62 62 61 65 69 83 85 88 97 91 91 92 91 86 74 69 65 60 57 54 55 62 53 62 77 95 125 129 144 143 131 156 180 77 26 31 30 31 32 33 33 36 41 51 71 125 176 183 214 189 154 132 79 65 55 39 47 0 0 0 0 0 0 0 0 0 0 0 0 0 0 0 0 0 0 0 0 0 0 0 0 0 0 0 
0 0 0 0 0 0 0 0 0 0 0 0 0 0 0 0 0 0 0 0 0 0 0 0 0 0 0 0 0 0 0 105 47 10 17 21 19 18 19 19 19 21 21 22 21 21 22 25 31 39 45 44 61 74 67 45 49 44 45 54 67 60 59 66 64 64 61 61 67 72 80 90 90 93 101 98 103 102 92 87 81 75 72 64 57 60 60 66 89 138 168 189 165 128 133 171 210 186 52 26 32 27 29 27 30 32 33 35 39 51 85 177 227 167 149 115 69 49 62 59 58 45 0 0 0 0 0 0 0 0 0 0 0 0 0 0 0 0 0 0 0 0 0 0 0 0 0 0 0 0 
0 0 0 0 0 0 0 0 0 0 0 0 0 0 0 0 0 0 0 0 0 0 0 0 0 0 0 0 0 0 0 8 12 19 18 19 17 19 19 20 20 20 21 21 21 21 22 27 37 57 64 62 54 57 46 46 60 51 48 63 75 61 74 65 65 68 64 68 76 80 86 94 100 102 101 103 106 111 108 102 96 88 74 80 86 69 65 57 115 151 183 178 168 160 143 178 133 31 22 30 23 24 25 27 29 33 33 34 38 49 114 203 246 188 104 82 65 68 64 51 44 0 0 0 0 0 0 0 0 0 0 0 0 0 0 0 0 0 0 0 0 0 0 0 0 0 0 0 0 0 
0 0 0 0 0 0 0 0 0 0 0 0 0 0 0 0 0 0 0 0 0 0 0 0 0 0 0 0 0 0 0 0 17 15 16 16 17 17 19 20 19 19 20 20 21 21 24 31 55 64 73 57 45 51 53 55 62 53 60 78 66 77 85 62 68 74 74 77 78 87 91 101 117 148 164 176 145 144 140 142 128 119 146 154 150 125 98 85 83 85 72 71 95 178 177 101 15 26 25 19 23 22 24 26 30 30 31 34 41 54 93 135 185 150 81 55 45 37 44 40 0 0 0 0 0 0 0 0 0 0 0 0 0 0 0 0 0 0 0 0 0 0 0 0 0 0 0 0 0 0 
0 0 0 0 0 0 0 0 0 0 0 0 0 0 0 0 0 0 0 0 0 0 0 0 0 0 0 0 0 0 0 0 0 13 15 16 16 16 17 19 19 20 20 19 20 22 30 49 55 43 43 37 48 54 57 55 55 64 89 103 79 77 89 72 72 79 83 93 119 122 131 148 172 202 202 188 164 208 216 199 180 146 170 202 199 170 149 172 122 89 78 65 80 91 52 26 25 22 19 20 22 23 25 26 26 29 31 35 38 52 53 72 97 85 57 48 39 36 34 36 0 0 0 0 0 0 0 0 0 0 0 0 0 0 0 0 0 0 0 0 0 0 0 0 0 0 0 0 0 0 
0 0 0 0 0 0 0 0 0 0 0 0 0 0 0 0 0 0 0 0 0 0 0 0 0 0 0 0 0 0 0 0 0 0 13 16 15 16 16 17 18 18 19 19 21 24 35 45 31 35 35 44 51 53 63 63 69 80 76 86 87 71 77 80 89 109 107 115 156 153 160 167 190 213 186 182 187 222 228 232 230 196 170 187 174 142 145 145 176 165 139 119 96 35 21 25 22 20 20 20 21 23 25 24 25 29 27 30 34 35 41 57 61 58 47 41 38 37 34 0 0 0 0 0 0 0 0 0 0 0 0 0 0 0 0 0 0 0 0 0 0 0 0 0 0 0 0 0 0 0 
0 0 0 0 0 0 0 0 0 0 0 0 0 0 0 0 0 0 0 0 0 0 0 0 0 0 0 0 0 0 0 0 0 0 13 15 15 16 16 17 18 18 19 19 25 27 31 27 30 35 37 50 57 59 69 87 79 62 53 67 83 77 80 92 116 157 133 147 202 222 220 216 206 208 216 243 252 229 202 213 217 207 222 211 166 148 164 187 175 166 162 171 58 17 24 24 20 19 19 19 18 19 22 24 23 27 26 26 29 34 43 44 43 49 43 34 34 33 0 0 0 0 0 0 0 0 0 0 0 0 0 0 0 0 0 0 0 0 0 0 0 0 0 0 0 0 0 0 0 0 
0 0 0 0 0 0 0 0 0 0 0 0 0 0 0 0 0 0 0 0 0 0 0 0 0 0 0 0 0 0 0 0 0 0 0 0 15 16 16 16 19 19 19 21 22 24 30 31 32 36 43 49 53 63 63 69 61 53 75 93 100 97 120 165 185 179 166 185 211 232 237 210 200 191 175 217 233 225 195 203 193 191 193 216 205 187 185 187 150 173 165 54 20 27 22 23 19 19 20 20 18 20 23 24 24 24 26 27 30 32 34 35 37 39 38 30 32 0 0 0 0 0 0 0 0 0 0 0 0 0 0 0 0 0 0 0 0 0 0 0 0 0 0 0 0 0 0 0 0 0 
0 0 0 0 0 0 0 0 0 0 0 0 0 0 0 0 0 0 0 0 0 0 0 0 0 0 0 0 0 0 0 0 0 0 0 0 0 16 13 17 20 19 19 23 23 23 31 35 38 37 50 51 54 65 66 64 57 67 85 107 105 144 188 200 218 206 218 231 235 215 199 199 194 171 152 171 190 183 180 186 165 159 147 176 201 190 139 87 61 88 67 19 27 21 23 20 19 19 20 20 21 21 23 23 26 25 26 31 31 31 32 32 37 33 38 36 0 0 0 0 0 0 0 0 0 0 0 0 0 0 0 0 0 0 0 0 0 0 0 0 0 0 0 0 0 0 0 0 0 0 
0 0 0 0 0 0 0 0 0 0 0 0 0 0 0 0 0 0 0 0 0 0 0 0 0 0 0 0 0 0 0 0 0 0 0 0 0 0 16 19 17 21 23 23 24 25 30 35 43 51 61 51 66 67 77 77 67 93 125 194 197 181 190 189 200 208 234 247 246 227 216 225 203 191 174 174 175 170 168 190 172 146 165 191 173 119 79 79 67 37 25 30 21 20 20 18 20 21 20 21 24 22 23 24 23 25 25 27 27 26 30 32 35 34 32 0 0 0 0 0 0 0 0 0 0 0 0 0 0 0 0 0 0 0 0 0 0 0 0 0 0 0 0 0 0 0 0 0 0 0 
0 0 0 0 0 0 0 0 0 0 0 0 0 0 0 0 0 0 0 0 0 0 0 0 0 0 0 0 0 0 0 0 0 0 0 0 0 0 0 0 20 21 18 21 24 24 30 38 48 57 51 65 74 76 98 100 114 142 131 159 175 168 220 224 206 230 245 247 244 234 233 238 213 223 222 196 208 208 187 172 162 145 178 204 110 100 82 66 44 32 33 26 20 22 21 20 22 22 20 21 22 21 23 21 22 26 26 23 24 23 27 30 30 30 0 0 0 0 0 0 0 0 0 0 0 0 0 0 0 0 0 0 0 0 0 0 0 0 0 0 0 0 0 0 0 0 0 0 0 0 
0 0 0 0 0 0 0 0 0 0 0 0 0 0 0 0 0 0 0 0 0 0 0 0 0 0 0 0 0 0 0 0 0 0 0 0 0 0 0 0 0 25 22 21 23 24 32 48 44 48 47 71 85 108 111 124 126 132 140 172 191 203 222 214 211 223 231 244 247 248 246 243 239 247 234 205 232 238 199 174 189 207 182 182 122 95 76 45 35 40 34 25 23 23 21 22 24 22 22 22 20 25 23 22 23 23 24 23 23 24 25 27 33 0 0 0 0 0 0 0 0 0 0 0 0 0 0 0 0 0 0 0 0 0 0 0 0 0 0 0 0 0 0 0 0 0 0 0 0 0 
0 0 0 0 0 0 0 0 0 0 0 0 0 0 0 0 0 0 0 0 0 0 0 0 0 0 0 0 0 0 0 0 0 0 0 0 0 0 0 0 0 0 0 22 25 27 36 39 48 62 83 101 110 100 87 74 79 88 109 182 187 174 217 228 211 222 225 237 245 246 247 248 247 246 241 223 230 227 204 185 179 171 123 126 138 94 53 45 46 43 34 27 26 21 23 24 24 20 21 22 23 24 24 24 25 24 23 24 24 25 26 0 0 0 0 0 0 0 0 0 0 0 0 0 0 0 0 0 0 0 0 0 0 0 0 0 0 0 0 0 0 0 0 0 0 0 0 0 0 0 
0 0 0 0 0 0 0 0 0 0 0 0 0 0 0 0 0 0 0 0 0 0 0 0 0 0 0 0 0 0 0 0 0 0 0 0 0 0 0 0 0 0 0 0 0 39 49 72 81 91 81 63 53 53 58 66 73 80 97 161 163 145 208 213 185 200 209 231 247 245 239 239 237 234 237 239 230 200 206 208 167 134 129 103 73 61 57 48 41 37 31 31 24 24 27 23 19 23 24 24 24 23 26 26 25 23 24 25 23 25 0 0 0 0 0 0 0 0 0 0 0 0 0 0 0 0 0 0 0 0 0 0 0 0 0 0 0 0 0 0 0 0 0 0 0 0 0 0 0 0 
0 0 0 0 0 0 0 0 0 0 0 0 0 0 0 0 0 0 0 0 0 0 0 0 0 0 0 0 0 0 0 0 0 0 0 0 0 0 0 0 0 0 0 0 0 0 0 52 46 40 39 44 52 58 62 67 73 81 97 142 152 138 193 204 168 174 179 221 255 242 242 249 235 223 228 232 213 197 183 174 157 122 102 85 72 68 54 43 50 39 35 34 27 29 24 21 19 21 23 24 23 24 24 23 24 23 23 23 0 0 0 0 0 0 0 0 0 0 0 0 0 0 0 0 0 0 0 0 0 0 0 0 0 0 0 0 0 0 0 0 0 0 0 0 0 0 0 0 0 0 
0 0 0 0 0 0 0 0 0 0 0 0 0 0 0 0 0 0 0 0 0 0 0 0 0 0 0 0 0 0 0 0 0 0 0 0 0 0 0 0 0 0 0 0 0 0 0 0 37 43 49 51 52 57 63 68 74 80 95 128 134 137 189 196 163 163 178 219 250 235 235 255 233 237 242 228 211 195 154 115 96 88 74 66 64 50 38 48 50 35 43 39 29 24 22 22 23 25 26 26 25 25 24 23 23 23 24 0 0 0 0 0 0 0 0 0 0 0 0 0 0 0 0 0 0 0 0 0 0 0 0 0 0 0 0 0 0 0 0 0 0 0 0 0 0 0 0 0 0 0 
0 0 0 0 0 0 0 0 0 0 0 0 0 0 0 0 0 0 0 0 0 0 0 0 0 0 0 0 0 0 0 0 0 0 0 0 0 0 0 0 0 0 0 0 0 0 0 0 0 0 0 53 55 60 64 68 73 79 92 116 118 131 181 189 156 152 174 217 241 232 232 248 228 237 244 213 185 128 107 104 91 74 69 68 51 48 45 49 45 43 44 34 25 24 23 25 25 24 23 24 24 24 23 24 23 0 0 0 0 0 0 0 0 0 0 0 0 0 0 0 0 0 0 0 0 0 0 0 0 0 0 0 0 0 0 0 0 0 0 0 0 0 0 0 0 0 0 0 0 0 
0 0 0 0 0 0 0 0 0 0 0 0 0 0 0 0 0 0 0 0 0 0 0 0 0 0 0 0 0 0 0 0 0 0 0 0 0 0 0 0 0 0 0 0 0 0 0 0 0 0 0 0 57 60 64 69 73 79 91 108 114 131 175 178 148 139 162 211 233 230 233 241 225 230 185 130 104 95 91 87 81 76 72 61 51 51 51 46 43 43 39 30 31 27 27 24 22 22 23 23 23 22 22 0 0 0 0 0 0 0 0 0 0 0 0 0 0 0 0 0 0 0 0 0 0 0 0 0 0 0 0 0 0 0 0 0 0 0 0 0 0 0 0 0 0 0 0 0 0 0 
0 0 0 0 0 0 0 0 0 0 0 0 0 0 0 0 0 0 0 0 0 0 0 0 0 0 0 0 0 0 0 0 0 0 0 0 0 0 0 0 0 0 0 0 0 0 0 0 0 0 0 0 0 0 64 69 72 78 89 103 110 132 165 168 144 134 163 211 228 227 230 234 225 229 188 97 86 85 81 79 76 74 62 51 49 52 45 46 46 38 33 33 32 26 26 24 23 22 24 24 24 22 0 0 0 0 0 0 0 0 0 0 0 0 0 0 0 0 0 0 0 0 0 0 0 0 0 0 0 0 0 0 0 0 0 0 0 0 0 0 0 0 0 0 0 0 0 0 0 0 
0 0 0 0 0 0 0 0 0 0 0 0 0 0 0 0 0 0 0 0 0 0 0 0 0 0 0 0 0 0 0 0 0 0 0 0 0 0 0 0 0 0 0 0 0 0 0 0 0 0 0 0 0 0 0 0 72 78 86 97 108 124 148 154 140 138 174 209 224 223 225 228 225 208 137 82 81 80 76 75 67 62 58 50 53 47 46 44 62 50 31 34 29 24 24 22 21 25 26 24 0 0 0 0 0 0 0 0 0 0 0 0 0 0 0 0 0 0 0 0 0 0 0 0 0 0 0 0 0 0 0 0 0 0 0 0 0 0 0 0 0 0 0 0 0 0 0 0 0 0 
0 0 0 0 0 0 0 0 0 0 0 0 0 0 0 0 0 0 0 0 0 0 0 0 0 0 0 0 0 0 0 0 0 0 0 0 0 0 0 0 0 0 0 0 0 0 0 0 0 0 0 0 0 0 0 0 0 0 83 92 102 114 137 143 133 136 168 204 219 221 223 225 207 107 81 80 76 72 73 66 63 55 49 51 49 45 50 40 47 62 36 31 25 24 23 21 26 0 0 0 0 0 0 0 0 0 0 0 0 0 0 0 0 0 0 0 0 0 0 0 0 0 0 0 0 0 0 0 0 0 0 0 0 0 0 0 0 0 0 0 0 0 0 0 0 0 0 0 0 0 
0 0 0 0 0 0 0 0 0 0 0 0 0 0 0 0 0 0 0 0 0 0 0 0 0 0 0 0 0 0 0 0 0 0 0 0 0 0 0 0 0 0 0 0 0 0 0 0 0 0 0 0 0 0 0 0 0 0 0 0 93 108 129 136 124 128 164 196 210 220 221 219 213 123 76 74 66 63 66 64 59 49 45 46 45 47 45 30 47 61 33 29 23 23 20 0 0 0 0 0 0 0 0 0 0 0 0 0 0 0 0 0 0 0 0 0 0 0 0 0 0 0 0 0 0 0 0 0 0 0 0 0 0 0 0 0 0 0 0 0 0 0 0 0 0 0 0 0 0 0 
0 0 0 0 0 0 0 0 0 0 0 0 0 0 0 0 0 0 0 0 0 0 0 0 0 0 0 0 0 0 0 0 0 0 0 0 0 0 0 0 0 0 0 0 0 0 0 0 0 0 0 0 0 0 0 0 0 0 0 0 0 0 117 125 122 128 165 196 208 216 217 219 207 101 59 59 59 62 55 51 52 46 43 44 44 49 41 48 49 39 38 25 22 0 0 0 0 0 0 0 0 0 0 0 0 0 0 0 0 0 0 0 0 0 0 0 0 0 0 0 0 0 0 0 0 0 0 0 0 0 0 0 0 0 0 0 0 0 0 0 0 0 0 0 0 0 0 0 0 0 
0 0 0 0 0 0 0 0 0 0 0 0 0 0 0 0 0 0 0 0 0 0 0 0 0 0 0 0 0 0 0 0 0 0 0 0 0 0 0 0 0 0 0 0 0 0 0 0 0 0 0 0 0 0 0 0 0 0 0 0 0 0 0 0 109 120 159 190 204 207 213 205 94 54 54 49 54 50 44 43 39 35 39 39 43 38 41 67 40 0 0 0 0 0 0 0 0 0 0 0 0 0 0 0 0 0 0 0 0 0 0 0 0 0 0 0 0 0 0 0 0 0 0 0 0 0 0 0 0 0 0 0 0 0 0 0 0 0 0 0 0 0 0 0 0 0 0 0 0 0 
0 0 0 0 0 0 0 0 0 0 0 0 0 0 0 0 0 0 0 0 0 0 0 0 0 0 0 0 0 0 0 0 0 0 0 0 0 0 0 0 0 0 0 0 0 0 0 0 0 0 0 0 0 0 0 0 0 0 0 0 0 0 0 0 0 0 142 180 195 197 213 138 44 52 48 48 40 38 37 38 35 32 35 36 38 36 0 0 0 0 0 0 0 0 0 0 0 0 0 0 0 0 0 0 0 0 0 0 0 0 0 0 0 0 0 0 0 0 0 0 0 0 0 0 0 0 0 0 0 0 0 0 0 0 0 0 0 0 0 0 0 0 0 0 0 0 0 0 0 0 
