P2
# testes/result-script3_2.pgm
150 100
255
98 98 98 98 98 98 98 98 98 98 98 98 98 98 98 98 98 98 98 98 98 98 98 98 98 98 98 98 98 98 98 98 98 98 98 98 98 98 98 98 98 98 98 98 98 98 98 98 98 98 98 98 98 98 98 98 98 98 98 98 98 98 98 98 98 98 98 98 98 98 98 98 98 98 98 98 98 98 98 98 98 98 98 98 98 98 98 98 98 98 98 98 98 98 98 98 98 98 98 98 98 98 98 98 98 98 98 98 98 98 98 98 98 98 98 98 98 98 98 98 98 98 98 98 98 98 98 98 98 98 98 98 98 98 98 98 98 98 98 98 98 98 98 98 98 98 98 98 98 98 
98 98 98 98 95 98 98 96 101 98 98 99 95 99 99 99 97 99 99 100 97 98 97 96 97 97 97 98 98 99 98 98 99 97 98 100 99 99 99 100 99 97 99 98 98 99 98 97 98 96 98 98 99 100 96 96 98 98 100 101 97 98 99 99 98 99 98 97 100 101 99 98 100 98 100 99 96 96 97 100 99 97 98 98 96 97 97 98 99 96 96 101 99 96 95 99 98 100 99 99 98 97 98 97 98 98 99 98 100 94 93 94 94 99 98 98 98 97 98 98 97 97 97 99 98 96 98 99 96 100 98 99 99 98 98 98 97 96 98 96 98 99 99 97 101 99 97 99 98 98 
98 99 98 99 99 99 97 96 99 98 98 99 100 102 98 97 97 99 98 99 98 101 100 100 98 99 100 99 100 98 97 96 99 98 97 99 96 98 97 96 98 100 100 98 99 99 97 98 100 99 99 99 99 96 96 98 100 101 98 99 97 98 100 99 100 98 97 95 97 96 99 98 99 98 99 97 99 100 100 99 98 99 99 100 98 102 99 99 99 98 96 99 97 98 100 99 97 98 98 97 98 96 98 96 99 98 96 97 95 96 99 103 103 99 99 96 97 97 97 95 98 98 97 97 97 99 100 99 100 99 98 98 98 99 99 99 99 100 99 99 97 99 100 97 99 97 98 96 97 98 
98 100 99 100 99 99 100 99 99 96 98 98 96 98 97 99 98 98 97 97 97 99 97 97 98 98 97 98 99 98 98 99 100 98 98 98 99 98 97 98 98 98 95 96 98 99 98 98 101 98 97 96 99 97 98 98 98 101 96 96 96 98 97 99 98 98 99 98 99 97 98 96 95 95 97 97 99 100 101 97 98 98 99 97 97 98 98 97 98 101 97 99 99 100 98 97 98 99 98 98 100 100 100 98 99 98 96 100 100 101 101 99 98 96 99 97 99 98 99 97 100 101 100 99 98 99 99 99 97 99 98 98 97 97 97 97 97 98 97 100 98 99 95 96 97 97 98 98 100 98 
98 96 98 98 98 97 99 96 99 100 98 99 98 99 99 100 100 100 99 97 97 99 98 99 99 100 98 97 97 99 100 98 97 97 98 96 98 99 98 98 97 98 100 97 99 97 97 95 96 98 97 97 99 100 97 99 98 98 99 100 99 99 99 96 97 99 100 98 99 100 98 97 98 98 100 97 95 94 96 96 97 97 97 98 98 99 99 97 99 99 95 98 97 98 100 97 99 97 99 98 99 98 97 98 98 99 102 99 95 97 98 96 98 98 98 98 101 100 98 100 98 98 99 100 99 98 96 98 97 99 98 98 98 101 99 99 98 99 98 97 97 97 99 99 99 100 100 98 100 98 
98 97 98 97 100 100 101 97 99 99 100 98 97 96 96 98 97 98 98 99 98 98 97 95 98 99 98 99 98 98 98 99 100 99 99 99 98 98 98 98 98 100 99 97 97 98 97 98 97 98 99 98 99 98 99 97 98 98 97 99 99 98 97 98 99 98 98 98 98 98 97 96 98 100 101 99 100 98 99 98 98 99 98 96 98 96 98 99 98 98 99 99 99 98 99 97 100 99 96 97 97 97 98 98 97 97 99 96 96 100 99 98 99 99 100 99 99 98 98 97 97 100 98 97 98 99 96 97 98 98 97 100 98 98 97 96 97 96 98 99 100 99 99 97 99 99 99 97 96 98 
98 97 98 97 96 96 98 96 98 98 98 100 99 100 99 97 99 100 98 101 99 98 100 99 99 97 98 99 98 99 98 98 99 100 99 97 98 99 97 100 100 98 99 100 101 99 99 101 101 100 99 98 98 97 99 98 98 97 99 97 97 98 98 97 100 98 95 97 99 99 97 98 99 100 99 98 98 100 99 100 101 102 98 98 99 98 99 96 97 98 98 99 100 98 98 98 98 97 98 97 98 100 99 99 101 97 100 98 98 99 97 98 97 97 97 98 98 99 99 98 99 98 98 97 96 98 99 99 100 99 97 97 96 98 100 98 102 100 100 98 96 98 97 96 98 96 96 97 95 98 
98 99 101 98 99 98 97 96 97 96 97 99 97 97 99 97 97 98 97 97 98 100 99 97 98 99 98 98 98 99 100 97 97 97 97 98 100 99 98 99 97 98 97 100 98 98 101 98 99 97 97 98 100 98 99 100 96 98 98 98 99 96 97 98 98 97 95 98 98 97 98 99 98 98 97 97 96 98 96 95 97 98 98 99 99 99 99 99 100 97 97 97 100 100 97 100 97 98 98 101 98 99 97 98 98 94 98 98 98 101 100 99 96 99 99 98 97 97 99 97 99 97 99 99 100 98 99 97 98 98 99 99 100 98 97 99 97 97 97 100 98 98 99 98 101 98 100 101 98 98 
98 99 99 96 99 101 99 101 99 98 99 98 98 98 98 100 98 98 97 100 96 98 99 98 97 98 100 96 98 98 98 95 97 98 97 96 96 97 97 96 98 96 96 95 95 96 95 96 99 98 98 99 100 99 99 99 98 99 101 95 99 100 99 100 101 99 99 98 100 99 99 99 98 98 98 99 98 99 100 99 99 97 96 96 98 99 98 97 98 98 97 98 99 98 98 99 96 97 97 99 98 99 101 99 99 99 99 97 97 95 95 96 99 98 98 99 99 97 98 97 97 96 98 96 98 98 98 99 98 97 98 97 98 98 98 98 99 100 98 98 100 99 101 99 99 98 99 99 100 98 
98 97 99 96 97 98 98 99 98 98 98 97 97 98 98 96 97 98 96 99 96 98 99 99 97 99 100 97 98 99 100 97 97 97 97 95 96 98 95 97 100 99 100 97 97 99 97 98 97 99 96 96 99 97 97 98 97 95 101 93 91 106 95 93 99 96 98 100 100 97 97 98 98 100 99 97 99 99 98 97 100 99 99 99 96 99 97 96 100 99 99 98 100 97 98 99 98 99 100 99 97 95 96 96 97 97 99 97 99 98 98 98 99 99 97 97 99 99 97 100 100 100 99 98 97 98 96 96 97 97 98 97 96 96 95 97 96 97 97 96 97 95 97 98 98 98 98 97 101 98 
98 97 99 99 99 98 98 98 100 98 100 101 99 99 101 100 101 99 98 98 99 99 97 99 97 99 99 99 99 98 99 97 99 101 100 101 100 102 98 100 100 97 99 101 100 99 97 98 99 100 99 96 95 97 99 96 98 97 101 101 94 107 89 103 99 98 100 100 100 99 98 100 97 97 97 98 97 98 99 96 98 97 99 99 99 100 99 99 99 96 95 96 99 97 97 99 98 100 100 99 97 97 102 100 100 100 98 98 98 100 102 100 100 99 98 98 99 98 98 98 96 98 97 98 98 100 100 100 100 100 97 97 97 98 99 99 98 97 98 99 99 98 98 100 97 96 97 97 98 98 
98 98 98 97 97 96 97 96 96 96 97 96 96 96 96 96 96 99 98 98 99 98 97 99 97 97 96 96 97 97 99 97 97 101 99 100 99 100 99 98 97 100 100 100 102 102 101 100 98 96 94 97 101 101 98 99 100 101 101 104 96 103 94 106 96 98 98 98 100 96 94 96 99 99 97 99 96 98 98 97 96 99 97 98 97 97 98 99 97 97 99 101 98 99 96 97 98 97 96 98 98 98 99 97 96 98 99 102 101 101 99 98 96 98 98 98 99 98 98 99 98 100 99 98 99 98 98 98 98 100 100 101 102 100 100 99 101 99 99 98 99 98 95 97 99 97 99 99 97 98 
98 97 97 96 99 99 99 100 100 100 99 99 98 98 99 99 100 98 98 98 97 99 98 97 99 99 98 99 100 99 101 100 100 99 99 97 97 97 98 98 99 99 97 94 97 97 97 97 99 99 100 102 103 101 96 94 94 97 86 95 101 81 110 102 89 99 97 95 96 96 98 100 98 99 99 100 99 99 100 99 98 99 97 96 97 95 98 98 99 100 99 101 99 98 100 101 98 99 97 99 99 98 97 99 98 99 99 95 95 97 94 97 97 97 98 98 96 97 99 97 97 98 98 97 100 98 98 98 99 99 99 99 99 99 99 97 98 98 98 98 98 98 98 98 98 97 98 99 100 98 
98 103 100 99 98 98 98 98 96 98 98 100 98 100 99 97 99 97 99 99 97 98 98 97 97 99 98 102 99 98 98 97 97 95 99 95 96 96 98 97 99 98 99 96 97 99 96 98 98 95 98 97 96 99 97 99 98 104 93 105 124 61 118 98 88 103 98 97 99 99 100 97 96 99 98 98 98 98 100 97 98 99 99 98 97 98 100 99 99 99 96 97 96 97 99 98 96 98 99 100 98 98 98 99 98 97 98 97 97 97 97 98 99 99 97 99 97 99 98 99 99 99 98 99 98 97 98 98 97 97 95 95 96 95 97 97 98 97 98 97 95 98 100 98 100 100 99 98 97 98 
98 105 104 106 99 99 98 98 99 98 97 98 95 97 98 97 99 99 99 99 98 99 102 100 100 99 97 95 95 99 96 97 97 98 98 95 100 97 96 96 99 101 98 97 97 98 97 96 98 98 98 94 94 98 98 103 99 101 107 123 128 82 125 100 95 101 98 97 97 100 101 99 95 98 98 95 97 97 99 98 99 101 98 99 99 103 100 97 96 98 97 98 97 97 97 97 99 97 98 96 97 98 96 97 97 95 98 98 99 99 99 99 98 98 98 99 100 99 98 98 98 99 98 99 96 99 96 99 96 98 99 98 99 97 98 98 97 98 100 99 100 98 100 98 99 100 97 98 95 98 
98 90 93 101 103 99 100 98 98 99 100 101 99 100 98 97 99 98 98 99 98 97 97 95 95 97 97 98 96 98 99 98 98 100 101 98 101 101 99 96 97 99 97 98 99 100 98 99 97 99 99 98 97 97 102 90 94 85 68 88 57 65 110 114 86 99 98 98 98 100 99 100 98 101 101 98 98 99 100 99 96 100 99 99 98 99 100 97 99 100 99 99 97 100 100 98 99 98 98 100 98 99 97 98 100 99 101 98 100 99 98 99 99 98 99 98 98 99 100 97 97 96 98 99 98 101 98 98 99 98 99 98 100 101 100 100 100 99 101 99 100 97 97 99 98 98 96 98 99 98 
98 91 87 92 95 101 102 101 97 95 95 96 97 96 99 97 98 99 97 98 97 98 97 97 99 99 99 100 99 97 99 100 99 99 98 96 97 102 102 99 99 97 95 97 99 100 97 97 97 100 102 100 100 99 101 99 104 112 111 126 83 95 60 153 89 91 101 98 99 95 96 96 98 97 96 98 102 99 97 98 96 95 93 99 98 98 96 95 98 95 96 96 98 98 96 98 96 97 98 99 96 99 97 98 99 98 98 99 100 98 98 98 99 99 96 98 96 96 96 96 99 99 98 100 96 98 98 100 101 99 99 99 98 98 97 98 96 96 96 97 97 99 97 98 95 96 98 98 100 98 
98 106 102 98 96 97 95 103 107 105 98 99 100 98 97 96 95 94 96 98 97 99 100 98 99 101 99 98 100 100 99 101 99 97 97 99 98 99 99 99 98 99 99 97 99 99 100 99 101 98 98 97 98 100 98 98 97 95 99 136 62 90 61 135 113 77 107 95 99 98 99 99 100 99 99 97 98 99 97 100 99 100 99 101 97 97 98 98 98 98 98 99 99 98 98 99 99 100 100 99 98 101 99 99 99 99 96 96 96 97 98 95 96 97 96 98 99 97 100 100 101 101 99 99 98 100 98 99 97 99 96 99 98 96 97 98 98 99 98 98 98 97 98 99 98 101 100 98 99 98 
98 91 101 103 99 98 84 88 102 108 100 103 111 105 103 103 100 95 95 96 95 96 96 97 95 97 96 95 97 98 96 96 97 99 98 100 97 95 95 98 96 97 99 97 98 97 98 95 98 96 96 93 97 97 98 98 100 97 89 113 140 77 50 122 141 68 106 98 102 101 99 99 97 99 97 97 95 98 98 98 97 94 94 95 91 95 99 97 98 98 98 101 100 99 97 99 99 96 97 98 98 100 96 97 97 98 100 98 97 99 98 99 100 103 101 100 102 99 98 100 98 98 98 98 96 99 96 98 96 98 98 99 99 100 100 100 100 98 98 98 99 98 100 99 100 98 98 99 99 98 
98 84 89 92 95 100 97 91 90 91 84 88 92 93 99 108 108 105 104 104 103 101 101 100 96 98 99 97 97 96 95 95 96 97 96 96 99 97 96 99 98 99 98 99 99 99 99 97 99 98 101 98 98 97 97 96 96 96 96 84 138 140 25 84 156 75 98 103 99 94 97 101 96 99 98 98 97 98 95 95 95 96 98 99 97 101 102 101 99 100 99 96 97 98 98 98 99 98 98 97 98 98 99 99 97 98 99 98 100 100 101 100 99 97 98 97 100 97 99 99 97 98 96 96 99 97 99 99 99 100 101 97 96 98 97 96 97 96 99 99 98 97 99 96 97 98 99 99 97 98 
98 108 101 95 96 102 105 102 93 96 102 95 88 88 87 94 98 105 106 105 99 103 100 100 101 100 100 99 101 100 102 98 98 99 102 100 101 100 102 101 97 97 100 99 96 99 98 98 100 99 99 99 101 98 100 100 99 98 98 87 84 142 72 28 153 81 83 98 94 90 96 97 94 96 99 101 95 102 96 97 98 101 102 101 99 102 100 98 95 95 96 94 98 95 98 96 100 100 100 98 100 98 98 99 102 98 99 98 98 98 98 98 96 100 97 96 98 99 98 98 98 98 98 100 101 98 98 99 97 95 95 95 96 94 94 95 95 96 98 96 96 95 98 96 97 96 95 96 96 98 
98 109 106 105 101 101 103 100 96 103 110 104 105 101 98 93 87 92 91 83 81 96 99 98 98 98 98 98 97 97 101 100 101 100 102 97 93 98 101 100 98 97 98 97 98 98 97 97 98 98 99 98 100 102 101 100 97 97 99 100 98 101 144 76 114 103 82 102 102 86 101 96 96 96 103 95 89 103 101 102 104 105 103 100 99 100 97 96 97 98 99 100 102 100 101 101 97 97 97 98 99 99 98 97 97 97 99 97 97 98 97 98 96 100 98 100 100 100 98 99 98 100 97 99 98 96 96 97 95 98 97 98 100 98 98 100 98 97 98 97 99 98 100 100 100 99 97 98 99 98 
98 96 101 101 98 99 98 97 95 98 101 97 99 92 93 99 99 101 103 96 94 99 98 96 95 95 96 98 99 96 96 97 96 98 98 94 84 93 99 99 98 97 98 97 97 97 97 97 98 98 97 95 95 92 91 99 94 91 95 90 91 83 102 88 106 117 86 102 111 87 116 101 98 102 107 85 101 106 102 99 98 95 94 92 94 94 96 100 101 101 101 98 99 97 97 96 97 98 98 96 97 98 98 99 98 96 98 99 99 98 96 99 99 99 98 97 95 96 96 97 95 95 95 93 93 95 97 95 97 99 99 102 103 105 104 103 102 100 102 101 102 100 99 99 100 101 101 102 102 98 
98 88 87 90 95 97 96 99 101 96 96 95 100 100 97 93 96 99 107 110 106 102 100 99 98 99 99 98 98 98 100 98 96 98 99 98 98 99 100 100 98 98 99 100 100 100 103 99 99 99 98 99 98 104 93 99 106 97 99 98 97 100 119 79 54 153 98 99 108 87 112 92 103 111 85 98 108 96 96 97 93 93 98 98 100 99 103 101 99 98 98 97 100 98 98 100 101 98 99 100 100 98 98 97 99 99 97 98 98 99 100 98 98 98 95 96 96 96 96 96 99 97 99 99 101 101 101 101 101 103 98 97 98 98 97 96 102 101 101 102 100 97 97 99 99 97 97 99 99 98 
98 104 100 99 97 100 95 96 100 98 98 98 100 102 100 100 97 89 91 92 95 96 98 96 98 97 96 97 97 98 97 99 97 100 102 102 103 101 100 97 97 99 100 99 97 96 96 96 97 96 97 98 98 99 105 90 100 103 100 99 93 93 94 161 38 84 116 98 98 99 85 100 111 82 94 111 98 93 96 98 95 104 100 103 100 99 99 96 97 97 98 97 99 99 98 98 97 98 98 99 97 98 98 96 98 98 100 100 98 97 98 97 96 96 99 98 100 100 100 102 100 101 100 103 103 103 101 101 100 103 98 95 94 93 93 91 95 97 97 95 96 97 99 99 98 97 96 99 99 98 
98 113 101 109 97 97 96 95 102 102 101 95 102 103 98 104 110 100 93 96 96 96 102 98 96 98 100 100 96 100 97 96 99 99 99 97 97 97 101 97 98 98 99 97 98 100 100 101 99 97 98 96 97 97 100 101 87 103 104 108 86 115 66 147 97 82 132 81 85 111 87 126 76 93 110 98 95 100 103 101 96 104 94 97 96 97 97 95 98 99 99 97 98 97 97 96 98 98 98 97 97 100 99 100 98 97 97 96 96 96 96 97 98 98 98 100 100 101 98 100 99 100 99 101 98 96 98 94 94 98 98 98 100 101 100 99 98 98 96 94 95 94 98 99 98 99 99 97 97 98 
98 110 69 105 102 94 105 108 106 99 109 95 114 110 93 99 109 105 99 110 107 91 104 98 94 97 99 105 102 99 98 95 95 94 97 97 98 98 97 98 98 97 95 99 99 96 95 99 99 98 100 101 99 100 98 100 105 89 98 126 84 105 101 90 80 44 146 70 85 122 116 61 88 115 93 100 92 95 100 93 93 100 96 98 97 97 99 98 98 97 96 98 98 98 97 98 98 97 98 98 97 97 95 96 96 97 98 97 98 98 99 98 98 98 99 97 97 97 94 97 95 95 95 98 95 94 98 98 96 96 97 98 100 98 99 98 100 98 98 99 101 99 97 96 97 96 96 96 96 98 
98 122 68 92 139 105 112 101 75 85 107 81 104 94 81 91 94 95 90 109 99 79 110 97 96 107 110 98 98 111 105 95 92 96 99 97 100 96 92 99 99 99 98 95 95 98 97 99 96 96 99 100 100 102 101 100 108 107 74 104 123 61 136 119 127 62 112 98 96 118 85 70 137 88 97 103 90 100 103 91 103 101 96 99 98 99 99 97 100 97 99 98 98 97 98 99 98 97 96 98 95 98 98 99 100 101 101 101 100 101 99 102 100 100 99 97 100 98 100 102 99 98 100 98 98 98 99 100 102 98 98 98 98 99 99 98 99 97 96 100 100 99 98 99 99 100 100 98 99 98 
98 114 89 63 131 85 85 96 82 86 116 84 82 90 98 103 97 91 105 121 79 66 135 115 94 113 112 67 64 105 126 114 102 97 95 94 96 93 86 103 99 93 99 95 97 100 102 102 101 100 101 98 94 94 92 92 89 88 95 76 109 50 93 85 156 98 79 101 119 106 65 119 106 85 103 101 89 105 99 92 104 94 102 100 99 99 97 98 99 97 97 97 98 98 97 98 97 98 99 100 100 100 101 101 101 99 99 99 101 100 99 101 99 101 99 99 99 99 99 100 100 96 96 97 98 97 101 99 95 95 98 95 96 96 97 97 97 96 99 100 97 98 96 98 97 96 97 97 99 98 
98 93 115 56 76 101 82 103 85 94 125 98 90 95 95 101 95 63 84 147 82 50 145 92 57 95 110 88 101 76 80 107 108 108 101 94 104 114 116 131 108 104 111 98 96 94 96 97 99 98 98 98 100 100 101 98 96 105 96 121 137 79 107 52 70 171 92 56 117 61 113 126 86 94 100 100 88 107 94 100 97 96 97 95 97 96 97 95 97 98 99 99 100 97 99 100 98 101 100 100 100 98 100 100 97 97 99 95 95 96 95 94 95 96 97 97 95 97 99 96 94 96 96 96 98 96 97 96 97 96 99 98 99 98 100 99 98 99 99 98 99 97 100 99 99 98 102 100 102 98 
98 100 138 110 60 153 92 91 84 108 118 91 102 102 99 101 120 83 55 126 108 62 130 85 95 90 96 101 109 105 87 65 80 106 118 116 118 96 84 81 60 85 125 110 101 95 95 97 96 97 95 98 93 91 98 109 111 105 83 107 132 80 124 114 68 129 109 70 134 65 121 100 92 92 106 104 90 113 94 97 98 99 96 96 98 98 98 99 99 100 98 99 100 99 102 101 101 96 98 96 98 94 95 95 94 95 96 95 98 97 98 96 97 99 98 96 96 96 99 99 99 100 99 100 101 100 99 99 101 103 102 101 101 101 99 98 99 100 99 101 100 98 100 98 101 101 99 95 98 98 
98 68 128 117 54 156 103 78 82 116 105 97 117 110 114 106 128 132 84 120 117 80 120 91 103 103 104 97 98 106 113 108 90 87 94 88 76 75 86 104 105 78 76 113 113 100 96 96 97 101 99 100 101 106 101 85 85 90 106 99 35 49 90 114 74 71 88 85 127 103 87 94 118 84 106 95 88 113 83 99 102 95 100 101 101 99 102 101 98 99 100 99 97 96 97 96 98 97 96 96 95 96 97 95 96 98 95 96 100 98 100 101 99 100 99 100 98 98 100 98 97 99 98 97 100 99 98 99 96 97 96 97 97 99 99 99 98 99 97 98 96 96 97 98 96 96 98 98 98 98 
98 47 132 121 58 111 96 79 86 114 99 115 80 77 87 82 105 125 94 90 92 88 111 89 95 99 99 97 94 93 97 105 99 94 94 93 100 108 104 110 107 103 84 68 102 109 100 95 96 99 97 97 96 95 95 101 101 107 113 98 122 122 100 46 54 128 95 82 114 82 66 112 114 74 106 91 98 103 82 109 97 102 98 102 98 99 98 99 99 94 98 99 99 99 97 98 97 101 100 99 100 102 104 104 104 102 99 98 97 95 98 97 97 97 99 101 100 100 100 99 99 100 99 99 98 97 97 98 95 98 97 97 97 96 95 96 98 95 98 99 97 99 97 99 98 98 97 96 97 98 
98 71 139 129 56 82 108 81 95 124 128 102 51 94 90 80 76 74 83 87 93 102 101 97 104 100 97 99 101 99 98 101 98 100 104 104 101 99 97 91 97 102 111 91 77 119 107 95 91 94 97 97 96 100 100 97 97 76 119 87 101 118 141 129 137 172 75 72 124 66 115 117 112 66 116 101 113 88 102 102 101 98 88 102 97 97 97 100 100 95 97 98 98 100 99 98 99 98 97 97 100 106 112 106 116 112 107 99 94 93 96 94 96 95 96 96 96 97 97 97 98 97 97 98 99 98 97 101 100 99 98 98 100 99 100 99 98 97 98 98 98 99 97 99 98 98 98 99 99 98 
98 81 120 139 80 103 115 79 96 124 121 54 91 157 123 84 104 103 104 111 96 96 92 96 96 100 100 98 97 96 98 99 98 94 94 98 97 98 100 98 102 98 103 111 84 89 121 113 102 96 99 100 102 101 102 97 105 85 70 120 93 103 53 114 57 119 112 60 121 62 135 93 113 66 132 81 91 93 107 100 94 94 97 105 90 96 96 98 99 97 97 98 96 96 96 96 97 96 96 92 101 101 78 68 75 80 112 124 108 110 106 95 96 95 94 96 95 96 96 97 98 99 96 97 97 98 97 100 96 98 97 98 98 99 98 99 100 98 99 98 98 99 98 97 98 99 99 100 97 98 
98 103 49 98 80 102 108 81 93 138 77 64 107 138 72 85 108 106 103 102 92 100 98 95 95 95 99 97 100 99 99 97 99 101 100 101 98 97 101 99 102 98 105 105 96 73 86 116 107 98 98 97 97 91 94 98 106 123 93 60 106 113 68 113 129 42 164 85 97 68 140 74 88 83 140 63 120 81 107 96 93 111 95 99 99 100 98 96 98 98 100 99 99 99 98 101 100 99 97 94 108 109 69 91 105 76 80 100 70 101 122 110 109 107 102 101 100 98 97 98 97 99 99 99 99 99 98 99 97 100 100 99 98 97 97 97 98 98 100 97 98 99 99 97 100 98 98 98 100 98 
98 141 73 102 99 100 101 94 89 103 75 99 96 81 88 115 91 92 97 93 100 112 105 99 99 96 99 95 102 100 100 94 96 100 97 99 100 98 99 100 97 97 91 88 100 104 67 73 101 99 97 99 99 102 102 94 86 98 119 98 85 130 115 67 176 36 114 111 54 63 152 96 101 138 68 96 107 103 115 88 96 99 86 107 97 93 100 98 101 99 98 99 99 98 100 98 101 98 94 95 114 112 88 118 128 102 100 103 77 85 97 85 100 114 109 109 113 105 101 95 95 99 97 100 98 98 98 97 97 98 98 97 100 98 99 99 100 98 99 99 98 97 98 98 99 98 98 98 97 98 
98 97 95 109 98 97 99 97 110 108 90 103 104 87 114 134 83 95 102 95 95 105 98 96 101 102 99 95 99 94 99 97 97 96 96 95 98 95 94 98 99 98 94 102 91 110 109 82 108 106 97 98 97 98 100 104 98 93 97 130 99 69 89 72 99 77 94 147 19 154 128 74 87 106 54 151 86 103 67 91 109 103 90 103 94 104 99 97 97 97 98 96 99 98 98 97 97 95 93 106 120 94 82 102 102 87 99 103 103 96 98 89 79 88 83 86 96 94 110 104 96 97 98 98 98 98 100 98 99 99 99 98 99 98 99 97 98 98 97 97 98 99 98 99 98 100 98 99 99 98 
98 66 103 110 100 101 100 98 97 93 96 101 108 90 99 103 92 101 98 98 94 95 90 95 100 98 99 96 98 98 100 99 100 99 102 97 98 101 98 96 98 98 96 109 92 112 117 89 97 103 98 93 95 96 95 90 110 103 85 96 90 71 107 91 104 97 82 123 25 245 58 51 92 79 106 128 67 78 125 126 107 83 96 102 98 101 96 99 99 97 97 98 97 98 98 97 98 98 101 111 103 74 92 101 93 97 102 98 103 101 104 102 99 98 91 95 84 75 110 113 98 96 97 97 99 97 98 99 98 98 99 97 99 97 98 98 99 98 98 100 99 98 98 98 98 98 97 98 98 98 
98 103 68 92 99 94 94 96 98 94 98 100 105 93 84 95 100 99 96 99 97 101 96 95 97 96 99 99 97 99 100 99 95 96 107 98 99 98 100 100 100 100 88 110 95 105 108 87 78 103 102 95 101 102 102 94 83 97 120 107 115 73 123 125 113 126 107 106 4 237 40 85 125 116 94 71 87 134 128 62 76 101 111 92 94 103 97 97 98 100 98 99 100 99 99 99 98 97 96 99 77 82 107 109 100 105 103 98 100 95 95 96 100 103 103 107 103 91 102 95 101 97 95 96 98 99 99 96 98 98 98 97 99 97 99 99 98 96 98 97 97 97 97 98 95 96 98 98 98 98 
98 118 97 90 99 100 99 99 102 96 98 103 102 98 104 105 96 91 95 101 99 107 108 99 99 97 95 97 100 100 98 99 97 96 100 96 98 98 96 97 98 100 87 102 88 96 127 107 88 112 101 96 101 95 95 107 113 91 73 65 103 109 50 60 42 67 107 103 16 211 14 105 112 99 74 111 154 107 35 90 124 96 103 88 96 100 95 97 97 98 97 97 99 98 99 97 98 96 97 106 105 93 98 102 95 90 88 91 97 99 102 99 100 102 98 98 105 94 82 85 105 103 97 96 98 99 100 99 98 99 99 99 98 100 98 98 99 99 99 98 100 99 99 101 101 103 99 98 96 98 
98 114 128 101 95 100 101 99 97 104 99 99 91 89 98 97 94 98 98 98 95 98 93 91 102 102 101 103 98 98 97 96 96 95 96 95 101 99 100 99 96 101 96 95 89 84 135 86 84 120 97 94 101 100 92 93 113 93 114 149 117 122 119 119 112 95 44 89 54 237 12 118 109 88 86 100 75 52 115 121 91 84 102 89 95 97 93 94 94 93 94 93 93 92 95 96 94 94 95 114 117 82 96 106 94 83 113 93 90 97 106 99 97 99 97 98 103 100 92 114 111 107 97 93 98 96 98 98 96 99 96 98 96 97 98 98 98 97 98 97 95 94 98 96 94 100 97 98 97 98 
98 88 95 87 94 108 99 97 98 104 95 96 98 98 101 97 98 107 103 99 98 94 96 96 103 98 94 93 96 99 101 100 99 99 102 98 100 95 100 99 97 99 106 94 92 112 123 40 74 115 89 93 93 87 90 117 110 63 89 104 78 102 100 98 130 255 151 56 78 199 30 114 110 75 128 92 63 140 108 96 99 107 117 105 108 110 106 98 103 101 100 99 101 98 97 98 95 90 96 106 93 82 102 107 88 96 133 105 86 100 100 96 95 97 99 98 101 103 91 84 98 102 99 93 93 96 92 94 95 97 95 96 96 95 93 93 92 93 93 93 92 95 99 93 86 98 96 95 98 98 
98 86 87 91 96 102 95 96 97 99 91 96 101 102 101 94 97 105 98 97 101 106 105 93 100 95 97 96 91 96 99 99 98 101 98 96 98 96 100 98 103 96 99 97 94 111 99 69 106 112 90 95 97 100 95 126 86 83 99 77 96 140 71 64 39 77 116 76 62 92 69 86 104 83 140 61 134 131 98 116 109 103 102 98 103 111 108 111 117 116 115 113 112 113 115 110 103 105 113 118 85 85 105 105 93 83 134 107 88 99 102 103 95 97 99 97 96 99 102 84 91 113 103 100 100 101 103 99 96 101 104 99 101 103 101 101 101 101 103 102 102 100 107 107 92 93 95 102 110 98 
98 97 113 99 103 103 93 97 99 100 98 101 101 100 97 101 97 95 98 99 92 102 95 90 102 97 100 109 101 94 99 99 96 98 98 99 99 97 100 97 96 96 96 99 91 92 100 98 128 116 100 106 104 110 115 105 67 96 115 74 58 108 79 99 144 68 60 121 85 103 191 79 97 93 83 73 135 85 75 71 80 73 78 80 72 79 79 75 79 80 81 82 85 89 97 101 92 97 127 130 77 94 104 100 99 78 103 99 91 85 98 104 96 100 100 94 93 99 101 101 87 99 110 112 104 101 103 103 102 102 106 95 98 106 103 109 105 106 110 110 111 108 110 124 113 103 111 115 113 98 
98 102 101 94 98 97 94 93 90 92 98 99 92 99 93 101 95 93 98 92 87 103 97 93 99 100 99 108 103 94 98 100 97 94 99 98 98 97 97 97 99 102 100 104 99 96 93 89 120 114 98 97 100 102 95 92 109 106 116 81 114 135 124 103 118 94 115 100 84 74 142 48 102 109 75 135 93 70 81 115 102 113 114 110 104 110 102 99 95 95 96 97 89 86 89 88 83 69 78 88 82 101 101 98 101 93 96 102 90 96 107 97 94 98 97 97 101 102 98 102 94 78 88 107 103 103 105 98 96 97 112 106 92 102 99 106 108 99 98 92 101 93 76 98 94 75 96 109 91 98 
98 102 101 94 95 104 107 104 101 98 104 102 97 101 98 103 94 95 103 96 97 108 94 97 100 92 101 95 96 98 100 100 98 96 101 98 99 98 99 98 96 100 100 102 100 99 95 91 82 81 79 80 91 94 99 90 127 81 76 120 106 103 68 58 105 91 109 102 76 111 144 49 124 75 141 108 85 98 120 127 80 111 95 90 114 99 104 109 110 110 103 106 109 107 106 101 111 96 86 102 100 98 99 99 99 100 96 96 90 104 109 93 94 101 97 101 104 100 96 100 104 98 92 93 80 83 91 92 88 82 91 92 88 89 87 78 71 72 79 81 76 78 85 88 88 93 89 86 77 98 
98 95 98 95 94 100 96 100 108 99 96 98 103 101 97 98 99 104 104 97 108 104 83 106 120 81 91 93 93 97 96 95 97 97 99 97 99 97 97 99 94 94 94 98 98 98 98 98 96 104 102 101 107 96 88 74 67 92 86 69 73 115 121 66 73 98 111 101 73 81 135 59 87 87 101 41 106 99 107 93 80 104 83 112 94 85 93 99 106 99 90 99 103 96 96 99 112 112 113 108 97 95 100 96 97 99 100 100 95 105 111 90 97 99 99 103 100 95 97 100 100 99 101 102 96 97 103 105 105 99 99 100 99 103 116 101 98 110 106 112 115 103 109 110 106 104 100 104 104 98 
98 103 97 95 102 105 94 91 100 98 92 99 97 95 96 93 100 96 96 94 102 101 85 109 133 84 94 106 100 100 103 102 101 99 98 96 101 97 99 101 99 100 100 98 96 100 101 97 100 106 105 98 96 102 106 115 123 134 168 150 96 102 110 133 122 74 95 80 135 116 115 54 118 152 129 133 88 96 95 80 103 82 100 96 86 98 96 89 96 86 89 99 102 94 86 85 100 106 106 94 93 100 100 97 99 98 97 101 96 93 99 96 97 98 98 96 98 96 97 96 98 95 98 106 101 102 98 93 98 98 100 100 98 93 106 101 106 109 94 98 105 100 91 84 94 103 98 96 97 98 
98 100 99 100 98 100 97 94 96 94 96 99 101 104 101 95 99 101 102 93 91 99 97 89 100 88 99 109 100 93 96 97 97 96 96 96 99 97 97 99 97 99 98 97 99 100 99 97 94 97 101 93 96 100 97 95 90 64 56 78 67 90 115 52 94 142 112 70 97 115 69 105 75 94 104 19 92 101 104 97 74 125 126 64 109 115 105 78 100 93 96 103 105 101 88 77 93 101 97 79 92 102 101 97 102 99 96 105 98 95 98 102 96 98 97 100 100 101 99 98 103 96 97 99 97 100 98 99 97 96 100 98 99 92 94 90 104 114 103 98 98 102 100 92 98 103 95 96 98 98 
98 96 91 94 95 96 98 96 102 104 99 101 100 97 93 96 102 104 105 97 94 98 95 94 96 98 99 101 97 93 97 101 103 98 99 100 100 100 98 97 97 96 97 99 96 98 102 101 95 100 102 87 97 117 103 92 99 101 102 81 107 121 112 147 80 76 96 91 92 172 71 141 85 59 154 120 117 98 126 79 101 134 96 82 108 102 103 94 123 105 96 102 101 106 115 101 95 103 111 92 91 99 97 99 101 99 95 99 96 98 97 99 97 99 96 94 95 98 101 95 100 96 98 98 97 97 96 100 99 98 99 97 96 99 100 90 87 100 97 96 98 101 107 101 102 100 101 102 93 98 
98 94 99 101 98 92 95 98 102 100 96 95 94 94 94 97 96 94 98 97 92 98 97 100 102 98 95 101 97 93 97 99 98 100 99 99 96 98 100 92 98 98 102 107 96 97 102 104 98 102 96 109 104 88 86 103 104 92 130 102 89 96 76 52 101 116 94 55 41 82 72 109 105 79 128 91 72 84 107 94 122 79 73 98 104 101 107 89 100 98 90 97 89 93 106 100 91 97 112 106 91 98 98 98 98 98 98 99 100 97 101 100 98 98 102 99 100 99 97 95 99 98 97 98 100 98 96 105 101 100 97 98 103 101 102 102 98 95 89 97 99 95 96 99 101 95 98 100 94 98 
98 107 103 110 108 102 107 103 96 98 96 103 101 98 98 98 99 94 102 100 100 105 101 102 102 97 93 99 103 100 99 101 94 96 96 97 97 99 97 98 102 93 98 103 98 101 96 87 84 93 91 89 94 113 90 91 81 64 103 94 99 84 128 123 60 69 169 135 149 128 62 123 72 79 121 64 75 110 110 95 81 47 130 106 90 99 97 93 108 99 89 103 94 90 100 100 97 97 101 105 92 98 98 99 97 97 97 97 98 98 98 99 97 96 101 98 98 97 99 101 97 100 97 99 100 99 92 98 97 102 95 97 98 96 97 97 102 101 93 102 102 96 92 99 101 94 101 107 107 98 
98 109 88 94 94 94 96 95 98 100 99 100 94 97 110 100 105 102 99 100 99 98 96 97 102 99 95 101 102 98 98 102 97 98 97 98 99 101 99 101 105 98 97 96 92 95 96 91 93 104 107 88 90 108 105 126 126 101 102 97 74 116 102 139 96 69 123 72 41 149 83 97 69 132 92 123 122 144 62 105 120 148 148 93 94 96 92 88 100 99 99 109 104 99 102 101 104 94 91 107 94 95 99 99 101 102 98 98 96 101 99 98 99 97 97 98 99 99 98 99 99 97 96 98 98 101 98 97 98 102 95 99 97 98 98 96 100 100 96 96 99 100 98 101 102 94 99 100 105 98 
98 102 85 97 93 78 91 90 91 95 97 93 97 93 102 89 97 92 91 94 97 99 97 95 97 98 96 92 96 97 96 100 97 99 97 98 97 95 95 99 98 99 106 91 84 102 111 107 109 105 118 101 95 88 77 93 98 115 123 129 72 61 57 94 101 118 138 77 63 136 60 95 128 132 95 96 97 58 112 134 102 36 31 38 90 98 100 100 92 102 102 96 98 98 99 95 98 92 97 109 92 94 101 98 99 96 96 100 99 97 96 96 99 97 98 97 95 97 96 98 98 97 98 98 96 98 100 96 98 100 95 96 98 99 96 94 98 98 98 96 98 96 94 98 105 89 94 94 94 98 
98 89 84 111 116 101 115 108 104 100 101 97 103 101 99 97 107 103 95 97 96 94 95 100 100 100 101 99 99 99 95 98 95 103 102 103 102 100 95 97 94 99 108 88 88 115 111 99 101 93 103 99 105 108 92 90 78 82 67 129 154 97 117 119 92 96 52 85 160 130 71 101 48 105 84 91 93 77 74 80 59 102 182 133 102 117 122 110 89 101 96 91 99 98 97 93 94 97 106 103 90 98 101 99 99 99 97 100 100 98 98 99 101 97 99 98 102 99 99 99 98 99 99 100 99 98 97 100 96 100 99 103 103 101 101 98 99 97 101 100 100 99 97 97 98 91 103 100 100 98 
98 81 103 124 88 94 105 107 100 88 100 95 98 101 88 97 103 101 97 100 98 99 97 96 95 97 95 100 100 98 100 97 94 96 96 94 93 94 93 98 97 96 100 89 97 111 89 84 89 88 89 95 102 101 105 103 94 101 88 82 61 105 118 114 88 108 93 90 86 93 126 92 47 167 88 83 84 126 107 154 138 148 113 72 95 94 90 84 92 104 96 94 101 94 96 99 99 102 98 96 93 100 99 96 93 98 96 97 97 96 100 99 98 96 96 100 102 96 95 96 98 97 94 98 96 97 97 95 97 96 93 96 97 94 98 97 97 92 100 100 98 98 101 101 95 93 100 99 103 98 
98 87 123 116 84 92 87 103 95 85 104 97 97 102 94 103 99 97 94 102 107 107 100 100 102 101 96 100 98 96 101 103 101 103 101 100 102 98 102 103 95 98 106 103 99 102 92 97 106 100 97 95 87 91 103 114 111 105 87 91 49 69 70 94 102 97 101 106 88 98 115 97 97 125 93 82 133 101 89 120 35 40 49 100 103 92 107 96 96 100 98 96 99 97 101 103 101 103 100 92 96 98 96 95 101 104 96 100 100 98 99 98 98 101 97 100 97 97 103 100 98 100 99 103 98 99 103 102 102 100 101 97 102 99 98 100 103 100 99 97 97 95 104 103 97 103 100 97 93 98 
98 83 95 101 94 92 89 105 104 92 98 94 100 99 94 106 96 94 97 94 98 95 92 90 92 98 97 95 97 93 95 97 98 97 97 99 102 99 104 102 97 97 95 104 96 88 96 102 101 99 102 95 92 96 93 94 101 113 100 139 144 158 161 91 92 95 94 93 90 115 90 77 164 89 81 92 92 44 94 68 81 139 125 101 94 103 87 93 115 100 100 97 100 101 103 95 95 97 100 96 100 103 102 100 98 101 94 100 98 96 98 98 97 98 97 98 95 98 97 94 99 97 96 99 96 95 97 95 93 97 95 98 96 97 99 98 99 97 95 98 97 95 96 101 96 100 94 92 98 98 
98 96 89 101 98 96 97 104 100 108 99 102 106 100 98 104 96 95 102 98 95 101 105 106 96 103 101 96 107 108 94 101 95 85 92 89 91 95 96 97 99 99 93 101 99 92 102 108 98 98 104 101 106 110 105 103 87 66 73 70 85 25 65 93 73 92 107 110 83 107 83 70 164 69 95 98 74 128 152 137 124 86 80 105 108 92 82 132 86 87 92 98 98 99 98 94 94 96 94 96 104 104 98 100 99 98 98 99 98 99 99 100 99 100 98 100 98 99 98 100 99 99 98 98 99 99 98 101 103 99 100 101 97 101 97 96 97 99 101 97 100 99 97 100 97 96 100 99 107 98 
98 102 98 102 100 102 96 104 93 101 89 92 96 97 96 97 91 91 107 100 88 103 111 107 95 99 95 95 106 102 95 100 96 103 112 110 92 94 99 99 98 101 95 99 101 109 101 95 93 96 100 101 99 100 93 91 105 120 133 105 161 136 97 140 107 92 81 99 102 103 88 69 132 68 77 63 119 141 90 90 72 95 102 108 97 74 129 96 65 134 86 101 94 99 99 95 95 100 99 93 96 95 93 99 101 97 99 97 98 98 96 95 96 95 95 99 98 99 98 97 99 98 99 95 101 101 96 95 99 96 96 98 96 100 96 100 101 93 101 99 98 97 97 97 99 101 97 94 99 98 
98 101 90 93 95 96 93 105 96 101 91 104 101 94 96 102 95 97 112 99 89 91 78 87 93 87 82 99 103 91 87 100 99 109 107 113 107 94 93 102 100 101 98 98 95 103 93 89 88 94 91 96 91 95 85 111 111 85 98 66 41 62 67 102 114 109 125 96 99 99 126 64 140 86 91 154 126 70 59 88 92 107 101 95 73 122 111 67 106 126 78 106 96 99 98 96 100 106 104 97 100 99 92 97 100 95 98 97 97 98 97 100 104 99 102 98 98 99 98 97 99 98 99 98 96 97 96 98 101 100 98 99 96 97 96 105 100 95 99 100 95 100 100 98 97 99 101 96 103 98 
98 104 96 101 97 97 99 98 96 100 85 107 105 94 95 108 94 97 107 88 89 107 92 100 108 111 95 93 100 104 96 85 93 90 79 97 100 97 87 91 98 97 100 100 97 96 102 110 100 109 100 99 97 102 99 101 85 88 78 104 111 141 156 102 105 54 60 105 109 90 134 70 106 79 86 126 74 55 88 120 73 118 104 80 116 123 73 77 136 75 100 102 98 101 97 98 97 100 96 94 103 104 94 99 97 98 99 98 99 100 98 100 99 95 97 97 97 98 99 99 99 98 98 99 100 103 98 98 97 98 97 101 99 100 95 99 96 95 97 98 102 99 96 99 98 98 97 98 99 98 
98 101 95 108 102 94 98 97 95 106 95 97 99 98 93 104 97 93 106 103 92 126 109 105 99 116 110 86 93 107 115 91 93 93 88 102 98 106 99 93 95 94 89 90 89 89 105 104 95 105 100 95 95 103 98 93 98 102 124 128 110 81 52 55 116 126 104 52 75 86 103 99 104 99 72 128 137 94 130 131 80 117 65 95 137 77 57 137 101 79 110 94 97 104 97 100 96 101 97 97 101 99 91 99 101 96 98 99 98 100 98 98 97 99 99 98 98 98 98 96 98 98 98 97 98 98 97 98 98 99 97 98 96 97 100 100 97 98 101 94 98 97 99 96 97 97 94 97 100 98 
98 101 94 109 102 99 95 106 102 109 96 97 103 102 94 96 98 96 100 103 89 110 93 90 81 108 121 91 95 104 105 108 108 108 100 98 98 114 107 104 99 100 102 106 106 90 95 98 93 99 100 99 99 104 102 101 98 94 119 71 67 111 136 89 65 121 112 167 93 84 101 106 104 91 117 98 44 120 106 104 79 69 90 126 93 59 105 157 58 97 101 98 101 97 93 98 103 98 94 105 101 94 97 103 103 96 99 99 98 96 96 97 99 98 99 100 97 98 100 98 99 99 99 98 98 96 98 99 98 98 99 100 99 98 97 99 99 98 108 98 100 98 100 96 103 103 101 101 97 98 
98 102 84 96 94 91 93 100 93 98 94 96 100 97 97 94 99 100 99 101 92 91 89 95 86 89 100 87 102 95 88 95 104 105 95 86 88 92 93 94 101 98 94 109 119 101 99 97 93 97 97 97 95 98 91 94 102 88 105 129 83 93 107 70 131 161 41 118 103 97 84 106 95 77 101 90 117 110 80 80 42 158 160 75 76 109 148 84 83 103 94 96 102 96 91 96 104 94 90 99 101 93 100 99 94 96 99 96 98 99 97 98 97 99 98 98 97 99 96 97 98 96 99 98 98 97 98 98 96 97 98 97 97 97 98 97 98 93 98 95 99 98 96 98 99 98 99 95 96 98 
98 105 93 103 99 90 101 101 99 97 95 100 101 96 99 97 104 103 95 93 97 101 101 105 98 95 100 93 102 98 92 93 97 100 102 103 104 93 101 97 108 106 92 94 110 99 97 93 96 98 99 95 96 108 106 102 100 97 75 95 119 87 99 93 67 99 56 76 92 99 84 86 109 112 104 50 110 83 114 99 110 154 65 73 85 133 59 103 96 105 97 102 103 102 97 102 103 97 93 101 100 98 100 100 97 99 98 99 99 101 100 97 102 98 98 97 98 99 98 99 100 96 102 98 98 100 102 97 99 103 98 100 99 101 100 97 101 101 99 96 97 99 99 99 99 93 99 99 100 98 
98 99 93 105 106 95 100 101 95 92 96 99 100 94 95 93 102 104 91 95 98 102 96 98 94 95 109 98 92 96 99 98 93 94 97 97 99 95 101 96 104 95 88 88 95 95 90 94 104 100 102 100 97 90 79 78 84 83 83 80 68 79 54 62 115 97 128 173 109 88 126 66 118 92 100 159 87 113 95 146 124 68 54 76 119 106 81 109 83 106 105 102 95 98 98 99 96 98 98 103 100 96 95 99 97 97 97 99 97 95 99 95 98 95 99 98 96 100 99 98 97 95 98 97 99 95 99 96 95 98 94 96 95 97 96 97 96 97 97 98 99 97 94 98 99 98 97 95 98 98 
98 105 95 98 104 98 101 97 102 98 100 101 103 98 103 95 98 104 91 103 101 108 99 98 97 100 113 105 95 101 100 102 99 97 101 98 101 98 99 96 97 97 100 98 95 99 95 108 107 88 105 101 79 101 122 129 136 143 123 163 144 160 166 104 134 137 48 75 60 145 137 57 107 61 58 119 79 89 68 91 20 40 113 124 112 85 117 111 93 106 75 75 94 92 101 99 101 101 98 95 98 96 96 101 102 99 99 99 99 99 98 98 101 99 98 100 97 98 101 98 100 100 98 101 99 99 100 99 99 102 99 100 100 99 100 101 98 100 100 98 101 99 99 100 99 98 102 100 101 98 
98 101 88 97 94 90 100 92 99 104 94 96 98 94 94 98 100 98 86 92 89 101 97 95 93 92 96 92 90 102 96 99 96 93 102 97 98 97 97 96 97 97 98 100 97 97 97 109 99 84 84 96 123 117 83 74 39 59 71 59 65 89 93 92 75 95 95 85 92 76 80 122 104 91 152 103 119 78 93 149 147 167 138 95 119 101 102 95 68 77 108 142 119 91 103 93 97 99 99 97 101 100 95 98 98 96 98 97 97 97 98 97 97 97 98 101 98 97 97 96 99 95 96 100 96 97 98 97 97 98 96 97 99 97 96 98 99 95 98 96 98 98 95 99 99 96 96 96 96 98 
98 106 96 106 105 93 107 97 89 108 97 99 103 98 97 105 95 97 114 105 90 101 100 98 95 98 108 99 90 103 99 102 99 97 104 100 98 97 102 100 101 99 95 103 100 98 102 100 98 95 103 126 88 77 81 144 167 108 91 103 85 66 22 46 115 100 110 108 84 92 90 162 13 101 119 63 102 79 88 134 70 59 107 104 94 49 92 71 125 145 117 78 77 99 101 95 99 96 97 96 102 98 97 100 100 97 99 100 98 100 99 99 100 98 99 97 98 97 99 98 98 98 100 100 99 99 99 98 100 98 98 100 97 98 100 98 99 99 99 101 97 98 100 101 96 100 98 100 103 98 
98 96 96 92 97 93 106 98 86 96 93 98 95 94 100 101 89 92 113 110 92 94 97 100 93 98 114 105 88 101 97 97 97 95 98 96 96 96 98 97 96 96 97 98 101 97 95 92 98 100 93 84 88 112 102 61 61 103 105 80 83 128 169 159 133 116 86 138 106 84 102 156 63 146 117 49 119 98 114 80 96 116 76 49 49 82 146 129 103 65 78 98 102 97 97 94 98 100 96 98 99 96 96 98 98 100 96 99 97 96 96 97 97 96 98 98 96 98 97 98 99 97 98 95 96 97 98 97 98 99 97 99 98 99 97 96 98 98 95 99 97 99 97 98 98 96 97 95 98 98 
98 102 100 97 105 99 102 106 110 105 101 104 96 96 106 104 95 98 103 95 102 99 102 111 99 87 105 95 89 104 100 99 100 101 101 99 100 100 99 99 100 101 100 96 99 99 98 101 99 101 101 102 109 97 83 104 119 111 110 147 108 110 118 94 44 65 96 51 100 111 94 74 68 128 115 67 126 85 96 92 84 57 80 154 143 148 108 63 85 109 105 99 98 103 105 100 97 101 97 100 99 97 98 98 97 99 99 97 98 101 100 100 99 98 98 98 101 101 100 101 100 97 102 99 100 100 98 97 100 99 99 99 99 100 98 99 99 96 98 101 97 99 98 99 98 101 100 100 101 98 
98 90 93 97 107 93 92 92 95 94 90 103 95 95 94 95 92 95 92 90 97 94 100 102 84 93 97 97 80 94 101 99 98 97 98 96 98 97 97 96 96 99 96 95 98 95 97 98 97 97 97 98 103 87 122 123 80 63 79 90 106 59 57 73 105 93 146 153 83 91 62 92 90 114 98 91 111 58 126 121 106 156 143 91 84 91 67 104 104 74 99 95 90 99 100 96 96 98 96 97 98 97 99 99 97 97 96 99 101 99 95 98 99 99 98 98 98 96 97 98 96 95 97 98 95 98 98 96 98 96 96 97 96 97 96 98 99 96 99 100 96 96 99 98 97 94 97 95 97 98 
98 101 92 101 106 90 94 96 101 103 92 105 100 103 98 103 97 102 102 99 100 97 102 98 86 114 121 117 102 90 102 98 94 97 94 101 101 101 99 98 98 100 100 97 101 97 100 102 97 98 99 96 99 95 98 85 99 140 123 84 88 138 102 70 142 119 59 104 42 123 97 151 78 63 133 97 86 91 111 107 112 48 56 99 86 116 97 87 81 121 136 94 94 100 97 97 96 99 98 97 101 100 98 100 99 98 99 99 97 99 97 100 95 98 99 97 97 96 100 97 99 98 98 102 98 98 100 100 96 103 102 98 100 99 99 100 99 97 98 98 98 102 101 102 101 102 99 101 101 98 
98 109 85 100 105 96 102 94 99 97 90 97 96 101 97 97 94 98 101 98 93 100 102 95 91 102 96 104 111 97 93 83 94 105 90 94 98 101 105 102 97 97 100 97 98 97 97 99 98 98 100 97 100 97 89 84 84 71 65 94 97 89 117 55 77 136 73 100 119 92 159 144 74 85 129 64 97 122 59 97 62 91 122 87 100 106 68 104 140 96 71 89 95 106 97 97 100 100 98 96 100 98 97 98 96 97 99 98 97 99 97 99 98 98 98 98 100 98 101 97 101 97 97 97 98 98 97 97 96 99 99 95 99 96 99 98 97 98 98 100 96 98 90 90 90 100 98 97 97 98 
98 118 85 98 101 99 112 95 104 98 93 105 101 101 97 98 99 101 103 98 91 103 102 98 96 91 85 87 97 97 94 101 115 119 94 91 89 82 91 91 92 102 98 97 100 99 97 97 98 96 100 97 98 95 99 108 108 118 127 103 81 63 161 142 91 95 79 64 110 0 81 82 88 81 132 73 107 99 88 140 138 110 105 88 106 66 122 125 77 86 101 101 102 108 99 98 99 98 102 96 98 96 98 99 99 101 98 98 96 98 99 100 97 99 98 99 98 98 98 98 99 99 98 99 98 97 97 99 99 97 97 97 100 96 99 96 99 97 95 100 99 95 99 107 93 88 96 96 100 98 
98 105 87 96 101 91 90 84 104 102 87 105 102 96 94 100 99 96 96 101 99 99 95 97 99 100 107 102 95 94 100 114 107 98 88 106 117 101 84 89 100 112 92 95 101 100 95 98 99 96 96 97 98 96 115 117 98 96 104 128 127 83 36 91 70 128 151 71 145 122 155 74 108 96 119 85 101 113 91 109 100 74 69 68 94 114 116 73 84 122 99 97 91 89 92 98 97 99 98 100 101 99 100 98 97 97 96 96 99 99 98 100 97 100 99 98 100 99 97 99 97 99 98 97 100 99 101 99 100 99 99 100 97 99 100 97 100 100 100 98 99 95 103 115 116 99 100 96 99 98 
98 97 96 108 107 83 103 98 101 108 90 99 94 96 91 101 101 96 99 101 98 103 100 101 95 95 99 101 97 100 95 98 86 87 85 105 118 112 102 105 108 106 92 95 99 101 99 98 98 100 103 103 102 97 94 86 84 86 63 55 87 124 107 133 111 45 136 83 121 116 66 104 91 90 102 93 98 83 74 107 86 62 108 170 146 102 80 101 102 122 89 90 105 112 92 100 97 95 97 96 96 95 98 96 98 99 100 98 99 96 98 98 97 97 96 96 94 95 87 92 99 96 98 97 98 97 95 97 96 96 95 99 96 99 98 100 97 96 98 98 99 92 93 91 96 106 96 93 100 98 
98 95 101 108 95 79 128 123 81 101 102 102 98 103 102 97 102 95 101 97 87 96 99 95 101 97 98 95 93 100 95 100 97 91 96 103 95 90 96 105 101 95 96 100 98 99 102 100 101 96 90 80 87 103 107 107 102 97 127 103 82 69 103 115 109 118 38 113 99 76 61 133 93 93 106 105 67 106 90 98 125 93 135 119 43 97 102 76 97 91 85 76 130 87 97 100 100 99 100 98 101 99 101 100 97 98 100 95 99 98 98 100 98 101 100 103 98 107 102 99 103 96 99 101 98 102 99 99 100 100 100 101 98 100 97 97 99 100 99 101 100 101 97 88 84 106 102 90 99 98 
98 90 95 98 93 83 119 100 80 101 98 97 95 100 100 91 98 92 93 93 95 88 87 90 103 104 104 97 89 99 94 96 95 97 100 97 96 88 85 94 93 95 99 98 93 93 93 94 98 91 120 128 94 71 80 96 83 102 136 115 179 122 67 90 95 148 62 85 100 115 95 131 99 100 97 87 63 171 102 137 135 78 76 70 45 74 76 117 111 104 55 115 118 71 103 97 98 97 100 96 98 98 96 98 97 97 99 98 98 98 97 97 96 97 96 99 91 100 111 108 93 92 99 97 96 97 98 98 96 98 97 98 95 97 99 97 95 97 95 98 97 96 96 106 106 110 98 85 97 98 
98 102 99 105 101 94 94 86 93 102 97 100 101 96 98 93 102 108 100 99 124 122 104 89 100 101 113 106 94 107 105 92 97 105 109 97 109 106 104 104 97 94 101 102 99 98 101 100 97 94 86 89 118 145 102 60 118 111 84 51 50 71 111 98 77 140 107 76 102 124 72 82 88 125 88 85 123 114 63 24 102 48 59 96 137 122 120 134 90 103 92 160 88 92 107 103 102 97 98 98 99 99 99 100 100 98 98 99 99 99 99 100 102 99 100 100 88 87 98 104 89 89 107 101 100 100 98 101 99 100 99 98 100 100 99 100 102 102 99 99 100 98 96 103 98 98 108 94 105 98 
98 107 92 93 98 94 100 103 98 103 93 92 99 93 95 101 104 101 91 96 98 110 108 94 99 88 96 94 95 106 104 95 100 106 103 89 96 93 94 102 100 97 98 99 99 98 107 107 96 96 95 92 71 65 112 134 94 68 95 108 107 97 101 107 63 68 128 87 85 105 85 125 92 93 57 120 89 109 88 104 202 131 158 167 150 79 76 113 64 118 104 100 71 94 91 94 97 96 96 98 97 99 95 96 97 97 98 97 97 97 97 94 99 95 99 98 93 101 99 122 99 82 104 97 95 97 98 96 96 97 95 96 99 99 96 94 98 92 98 94 99 95 97 99 87 83 109 97 101 98 
98 109 100 101 102 96 105 109 97 97 96 106 109 96 98 106 102 94 93 94 76 96 94 94 105 90 97 87 93 108 96 91 100 96 97 91 98 96 99 98 101 102 96 99 98 95 102 102 101 98 96 119 121 99 98 80 135 99 79 115 119 119 79 100 125 104 104 112 104 115 71 116 87 81 102 160 62 124 76 89 87 24 102 12 51 112 99 84 94 102 97 96 74 108 108 94 102 99 101 98 97 101 98 102 99 97 101 99 99 98 100 98 103 98 101 97 99 111 89 113 106 77 106 105 95 96 102 96 99 103 100 101 98 100 99 98 103 97 106 99 100 99 101 103 100 93 109 110 97 98 
98 97 92 97 97 93 96 99 95 94 96 105 101 95 91 98 104 93 92 99 93 106 99 96 95 83 115 106 83 101 93 90 101 101 86 97 104 96 99 94 93 102 98 99 96 95 91 95 96 98 90 98 96 115 107 67 84 145 93 74 96 60 96 80 53 95 93 97 76 109 83 86 132 68 95 118 79 107 62 97 104 92 153 106 99 59 66 135 99 95 93 71 115 133 92 96 101 95 98 97 97 99 96 96 98 98 98 97 100 99 98 97 97 97 99 99 95 101 78 82 116 80 90 106 97 95 100 91 96 98 98 97 96 97 97 96 99 93 99 96 97 97 98 99 95 88 91 92 92 98 
98 100 100 100 101 96 99 97 95 98 100 99 89 101 96 95 105 100 88 110 128 102 90 86 91 87 129 117 84 104 102 94 110 113 96 100 100 92 100 104 85 94 101 100 97 100 98 100 101 100 92 95 95 86 93 106 94 75 121 64 82 129 167 150 131 125 89 104 87 115 115 78 152 59 129 102 83 101 89 126 104 77 122 55 130 109 103 121 90 90 98 140 105 73 90 100 99 98 101 99 98 98 98 100 99 100 98 97 94 97 100 98 100 98 100 101 89 102 102 78 132 107 79 99 100 100 120 104 87 93 101 101 101 102 99 99 101 96 100 100 98 97 98 98 94 107 107 92 82 98 
98 94 95 95 104 100 97 97 100 99 98 99 94 101 94 98 98 99 88 104 103 67 109 112 91 83 106 101 90 103 101 92 98 100 91 99 100 96 104 109 97 90 87 93 97 102 96 95 103 97 96 99 99 97 105 95 86 72 110 159 121 70 25 40 64 114 113 83 116 102 74 92 104 82 134 100 68 105 97 113 59 120 116 55 151 107 83 101 92 76 143 54 80 94 100 101 96 98 99 97 98 98 99 99 102 99 92 97 92 92 99 97 101 97 97 98 89 108 107 78 118 114 95 94 87 95 101 98 94 87 93 86 99 97 96 99 100 97 96 101 96 99 100 93 87 100 114 106 92 98 
98 100 99 99 99 97 95 97 98 100 97 100 96 103 99 102 97 103 94 99 88 79 136 131 94 96 96 93 95 95 95 95 96 96 97 98 98 100 100 99 110 112 97 105 100 98 97 100 107 97 97 107 103 101 95 82 118 127 103 51 112 139 135 96 54 72 141 61 81 136 68 99 91 95 137 80 93 126 113 80 62 134 81 90 98 57 126 104 57 109 76 91 166 90 98 100 99 98 98 98 99 99 100 94 95 89 87 123 116 91 99 99 100 100 99 100 92 113 110 84 95 95 105 114 93 79 82 99 108 114 118 86 95 97 95 98 98 99 96 98 100 104 99 97 105 95 103 112 98 98 
98 95 100 96 95 101 94 100 101 99 94 102 96 100 96 96 99 103 97 100 96 87 119 106 90 100 99 100 102 96 99 102 100 99 102 99 94 102 96 84 102 106 100 107 95 99 95 96 101 96 95 102 96 95 93 129 107 71 93 92 71 104 88 152 140 90 95 125 61 112 116 101 90 105 62 95 105 63 103 62 132 136 88 125 113 132 70 61 115 145 97 116 85 76 101 98 98 97 98 99 101 100 98 94 103 97 84 122 114 80 100 100 96 98 98 99 89 98 105 89 92 88 91 110 109 94 98 117 101 101 130 95 92 103 99 94 99 101 98 98 94 96 94 102 107 96 90 101 94 98 
98 97 98 94 97 102 103 101 97 94 91 108 95 95 99 96 97 97 100 99 101 90 75 74 87 95 94 98 107 102 97 96 95 98 98 95 94 101 90 89 104 97 93 96 94 99 99 97 96 97 93 96 95 94 98 92 83 98 111 116 91 104 95 56 81 123 110 152 93 86 101 82 95 104 79 161 73 83 112 101 146 71 81 92 70 67 95 156 133 51 84 107 83 103 101 99 97 98 101 98 94 91 88 96 113 108 73 94 103 77 96 102 96 95 100 101 93 91 108 101 96 104 93 84 102 102 97 98 73 71 106 93 93 107 106 96 100 97 94 101 97 98 99 94 95 94 89 94 105 98 
98 100 97 101 101 95 105 93 90 95 96 110 100 93 101 98 101 97 98 99 101 93 107 115 83 95 101 95 96 98 99 101 95 102 100 100 97 104 106 98 97 88 92 96 100 96 97 97 97 98 99 101 100 98 99 102 101 92 86 84 94 88 112 93 89 91 40 77 94 91 120 100 92 115 60 156 76 110 95 109 76 54 115 75 105 137 102 101 40 100 133 84 99 104 99 99 100 100 99 98 91 100 106 95 102 116 84 92 118 98 94 102 104 99 98 101 100 98 102 98 100 101 102 86 100 118 104 113 95 81 96 102 105 103 98 94 97 97 101 104 97 100 101 94 97 102 97 91 112 98 
98 97 98 100 99 91 97 93 95 108 102 105 98 91 101 98 95 98 97 99 99 84 119 135 86 113 109 91 93 101 98 98 97 98 99 98 94 96 100 96 97 102 101 100 103 94 100 101 101 99 96 100 99 98 100 99 95 104 135 113 82 92 63 74 106 124 57 162 79 89 99 101 98 127 41 109 131 70 112 104 75 121 98 140 147 81 73 93 112 136 79 95 99 98 96 97 98 95 96 97 98 118 113 83 79 113 108 96 105 106 100 86 96 95 97 98 97 97 96 96 100 100 102 96 97 102 88 112 121 111 86 83 96 92 94 100 99 98 99 99 95 94 99 100 102 105 101 84 116 98 
98 101 97 99 98 92 105 98 104 110 88 97 100 93 98 108 95 101 96 100 106 86 97 105 79 103 105 99 99 99 97 100 97 99 102 100 95 96 104 99 98 104 107 100 100 98 99 98 95 103 100 98 102 96 100 98 101 82 83 114 115 137 149 147 108 164 94 131 96 97 106 110 78 78 93 102 121 76 112 93 87 107 119 104 49 92 88 108 94 67 79 109 98 93 95 101 103 97 97 98 102 102 88 89 93 107 92 83 89 98 107 101 100 95 100 100 99 98 99 99 100 98 99 101 98 95 82 80 98 118 93 84 104 99 100 101 98 101 96 98 105 100 96 99 102 93 99 79 116 98 
98 98 97 99 90 91 106 99 98 92 88 97 100 91 93 111 93 91 97 101 99 94 89 89 90 93 92 98 97 101 95 97 96 97 99 94 94 99 106 96 93 99 96 92 96 98 96 97 94 105 96 92 99 96 97 97 99 97 95 101 65 70 76 45 27 100 58 70 85 96 80 100 108 88 123 53 103 91 114 74 87 124 89 44 72 102 83 104 88 131 109 104 87 111 97 96 100 95 96 98 100 89 90 104 101 113 112 89 91 89 88 98 108 87 95 103 98 91 101 87 92 93 84 89 94 102 100 78 88 110 104 108 101 95 99 100 93 94 94 89 95 94 95 100 95 92 106 86 97 98 
98 97 103 99 99 107 110 100 96 94 103 102 108 93 95 116 94 96 97 103 94 98 107 105 101 98 97 105 96 97 100 101 98 99 100 100 100 98 100 94 97 95 96 98 96 99 99 99 95 99 96 98 101 100 97 99 103 107 100 116 79 89 74 116 110 132 115 92 126 96 135 72 119 118 116 94 144 78 98 100 106 109 96 127 163 162 115 113 102 103 82 105 87 121 91 100 100 102 98 101 98 93 108 106 95 104 113 95 97 106 94 98 122 95 92 100 96 100 118 88 108 115 115 98 95 105 93 96 115 100 95 121 95 82 97 101 95 100 101 98 106 98 99 103 96 101 114 102 108 98 
98 95 99 94 93 98 97 93 95 100 95 93 103 96 90 107 94 99 97 100 96 96 98 94 98 101 98 97 93 99 98 94 98 99 95 99 99 95 96 98 100 101 96 99 102 99 93 98 100 99 98 98 101 97 101 101 96 81 71 91 112 145 147 150 100 104 139 96 80 83 90 106 96 55 100 99 118 73 88 113 84 136 67 69 64 48 59 85 87 94 92 107 91 99 88 101 96 96 95 100 96 92 106 93 82 87 91 93 97 118 111 90 102 97 94 96 87 97 114 86 96 97 104 104 96 106 93 103 112 84 80 105 100 96 102 96 95 105 105 99 108 96 94 94 89 96 98 87 96 98 
98 97 104 99 102 97 98 99 96 103 97 102 103 99 99 99 96 99 98 104 102 101 102 94 100 107 98 98 97 99 103 100 97 98 99 102 95 95 101 97 101 102 97 95 102 102 96 98 102 99 97 103 96 101 97 80 86 115 135 125 97 62 35 72 101 72 52 93 105 110 94 84 102 105 98 99 104 108 76 98 82 91 95 96 138 117 103 114 109 108 91 99 79 96 91 101 101 98 98 101 96 93 103 100 103 100 97 101 92 96 99 95 92 106 107 109 91 102 112 91 96 86 96 110 97 94 95 105 99 87 102 102 90 108 105 94 93 104 105 100 100 98 97 99 104 99 97 93 107 98 
98 96 95 92 98 99 94 96 96 98 96 94 97 96 93 91 96 95 99 99 97 96 94 92 98 99 92 100 96 99 96 96 98 97 96 100 98 99 98 97 98 97 94 96 100 100 96 95 100 95 98 99 93 82 91 113 124 107 81 49 90 104 78 78 92 149 110 72 90 106 110 84 94 102 123 118 68 97 71 146 84 112 152 69 120 100 81 90 89 102 75 109 132 125 91 99 99 99 95 102 99 98 101 97 96 99 99 98 96 93 91 97 96 91 95 100 93 94 99 93 101 98 99 105 99 91 100 100 85 88 102 103 92 109 98 89 92 94 89 96 94 93 93 99 101 96 97 100 111 98 
98 102 102 101 98 101 100 101 103 99 98 99 101 97 101 110 97 99 102 95 95 100 98 99 105 97 98 102 98 101 99 99 100 97 100 100 98 97 96 100 101 100 94 104 101 96 99 97 100 96 99 96 97 112 125 93 86 75 78 123 131 129 148 137 90 78 101 116 103 98 104 88 107 87 97 105 81 99 98 143 76 94 78 35 129 77 90 109 115 89 73 144 86 68 93 101 99 99 96 98 99 102 99 98 97 98 99 101 101 101 101 98 94 94 92 88 104 106 96 89 99 95 94 89 96 97 103 101 101 106 99 92 89 108 106 93 100 108 98 94 96 99 107 92 108 116 89 90 96 98 
98 98 98 98 98 98 98 98 98 98 98 98 98 98 98 98 98 98 98 98 98 98 98 98 98 98 98 98 98 98 98 98 98 98 98 98 98 98 98 98 98 98 98 98 98 98 98 98 98 98 98 98 98 98 98 98 98 98 98 98 98 98 98 98 98 98 98 98 98 98 98 98 98 98 98 98 98 98 98 98 98 98 98 98 98 98 98 98 98 98 98 98 98 98 98 98 98 98 98 98 98 98 98 98 98 98 98 98 98 98 98 98 98 98 98 98 98 98 98 98 98 98 98 98 98 98 98 98 98 98 98 98 98 98 98 98 98 98 98 98 98 98 98 98 98 98 98 98 98 98 
