P2
# testes/result-filtrar1.pgm
3 3
255
0 0 0 
0 -8 0 
0 0 0 
