P2
# testes/result-script3_1.pgm
150 100
255
115 108 52 66 135 103 51 33 68 84 80 99 106 0 165 165 162 159 156 156 157 158 156 153 148 141 134 128 60 72 154 149 147 133 118 108 10 147 165 163 161 160 156 152 151 151 150 147 145 142 142 136 131 124 117 34 67 91 25 34 121 52 107 162 163 162 158 154 154 155 153 150 150 152 152 143 130 119 91 15 142 142 139 136 134 118 87 43 13 0 123 136 129 121 116 116 117 117 116 116 118 120 119 117 111 106 32 94 138 129 122 116 113 112 61 11 86 107 105 103 102 103 101 101 102 103 100 98 95 91 73 26 73 109 84 71 70 46 35 35 11 0 0 46 105 103 100 99 95 95 
106 83 16 149 151 151 152 153 156 105 87 53 0 0 72 162 160 158 150 152 152 152 146 140 136 132 126 101 24 0 0 0 0 0 0 0 0 110 162 162 159 158 158 155 154 153 151 149 148 146 140 135 128 122 108 36 0 36 131 167 163 162 91 73 164 162 157 154 155 155 153 151 151 150 148 138 128 120 35 96 144 139 137 135 132 132 132 131 129 13 75 136 131 123 119 119 118 118 117 117 117 114 112 108 104 52 61 135 132 125 120 120 120 121 118 101 37 25 84 104 103 103 102 103 102 98 97 94 90 74 9 75 113 111 111 110 109 107 108 109 111 112 62 0 11 81 101 94 93 92 
98 29 112 148 149 150 150 150 153 155 156 158 163 91 0 35 139 148 143 145 145 140 135 129 123 112 64 0 18 130 167 164 163 161 158 158 51 17 140 157 156 155 155 152 152 151 149 149 147 140 133 128 125 99 11 0 112 176 173 170 166 165 168 111 55 162 156 154 153 153 152 150 149 149 142 134 127 88 31 144 140 138 136 134 132 135 133 132 129 55 15 136 133 128 125 122 119 118 117 116 114 109 107 102 63 44 134 132 128 126 128 130 130 127 125 120 118 90 12 24 85 105 101 102 97 93 90 87 53 0 78 115 114 113 113 112 112 112 112 113 113 114 114 99 24 0 43 94 91 90 
61 61 143 145 147 149 149 150 151 151 154 155 157 160 125 17 15 92 132 134 129 121 120 114 93 23 0 72 165 165 162 161 160 156 154 153 134 16 33 154 150 148 146 146 147 147 146 143 138 131 124 119 87 12 17 148 175 177 174 170 168 167 166 167 110 53 161 157 155 153 151 149 148 145 139 132 124 12 129 143 140 137 135 131 131 132 132 131 130 112 0 91 136 133 128 124 120 119 117 115 111 107 103 62 44 135 134 133 131 131 133 134 133 131 130 128 128 127 126 55 0 24 82 98 91 85 79 32 0 81 119 117 115 114 114 113 113 115 115 117 117 117 115 115 115 63 0 10 72 88 
14 135 139 140 143 144 147 147 149 151 151 152 152 154 154 131 46 0 14 44 68 77 107 52 0 17 125 159 158 159 158 156 154 153 151 149 149 114 0 49 144 144 144 142 142 141 141 134 127 121 115 71 0 36 151 174 175 176 175 172 169 168 167 165 165 128 17 142 158 156 153 151 152 147 141 131 64 64 145 142 139 137 133 132 131 132 132 129 128 123 38 30 137 135 131 124 119 114 112 107 104 101 82 14 120 137 137 133 130 132 134 134 135 135 135 135 136 135 133 127 108 24 0 0 0 0 0 0 81 122 120 118 118 118 117 117 117 118 119 120 121 121 121 121 121 117 98 22 0 0 
102 134 134 135 139 141 143 143 145 147 149 149 149 142 137 132 67 74 152 114 74 54 0 0 70 159 158 155 153 152 152 151 150 149 148 147 146 138 85 0 94 137 137 136 135 135 136 128 119 110 43 0 58 178 179 176 175 174 172 171 170 168 166 166 166 165 145 17 143 160 156 153 149 145 137 105 16 150 149 145 143 140 136 133 133 132 132 132 127 122 87 0 108 136 128 121 116 110 102 99 95 77 14 120 136 136 135 131 131 134 135 135 136 137 138 138 138 136 129 122 115 46 75 134 131 128 124 40 81 121 119 120 119 119 119 119 120 121 123 125 127 127 127 126 122 117 110 53 55 124 
117 133 133 134 134 136 138 138 140 142 144 146 139 133 127 101 17 163 165 164 164 161 161 52 69 154 151 150 149 148 146 145 145 145 144 143 138 131 123 35 0 0 0 0 0 0 0 0 0 0 0 98 181 181 181 178 175 173 173 170 169 168 167 167 168 166 164 146 17 144 155 150 142 135 126 37 103 154 149 147 145 143 139 137 136 135 134 131 128 121 113 22 62 131 123 115 109 98 96 91 82 9 121 137 137 135 133 132 133 135 135 135 135 136 137 137 136 129 122 114 79 29 134 131 127 127 125 124 26 95 121 120 120 121 122 122 125 126 128 129 130 132 132 128 123 116 90 14 134 134 
72 134 135 135 135 136 136 136 137 138 140 138 131 124 119 24 119 155 154 155 155 156 155 153 83 49 130 145 144 142 141 139 139 139 139 136 131 125 119 48 71 166 165 167 167 167 171 173 177 177 98 80 183 183 182 180 176 174 173 171 170 169 169 170 170 169 164 162 140 50 104 143 131 122 81 33 155 152 149 145 143 142 140 139 138 137 135 133 131 121 112 56 0 0 40 39 60 64 70 85 25 91 138 137 136 133 133 133 134 136 136 135 134 136 136 135 128 120 114 98 10 117 132 129 129 127 127 126 111 13 110 124 124 123 123 125 126 128 130 134 135 137 137 131 124 116 35 97 144 144 
27 133 135 134 136 138 138 139 138 138 137 130 124 118 58 66 150 148 147 148 147 149 150 149 148 98 15 107 138 138 138 133 133 135 132 126 121 116 72 35 165 166 165 163 163 165 167 170 173 174 175 137 39 160 180 176 173 173 173 170 173 174 174 173 169 164 161 158 155 148 44 91 118 107 10 139 155 151 148 145 143 141 139 138 138 137 135 133 132 123 113 106 0 149 96 92 59 44 29 0 0 91 138 137 136 136 135 135 135 135 135 135 136 135 134 130 123 114 107 31 88 131 130 128 129 129 129 130 130 114 13 113 127 126 126 127 129 131 132 135 138 140 137 130 123 84 32 151 151 150 
106 102 135 135 136 138 139 140 139 139 132 125 118 93 16 147 147 145 143 143 142 144 146 146 145 146 97 15 75 137 133 129 129 130 125 119 113 91 0 146 170 170 170 168 166 167 167 168 170 172 171 172 155 18 113 170 169 171 172 168 169 177 169 163 162 157 154 152 138 105 29 0 0 0 0 103 152 149 146 142 142 141 140 139 137 137 135 133 133 124 114 103 0 146 142 140 137 136 138 136 44 14 119 136 137 137 138 138 139 139 139 138 137 135 131 123 117 109 64 44 134 133 133 132 133 135 136 137 138 138 121 14 134 132 131 132 132 134 135 136 138 136 132 126 119 11 133 151 152 149 
121 44 137 138 138 139 140 140 141 134 126 117 111 22 115 148 147 144 142 141 142 143 143 144 144 145 145 128 15 45 115 126 128 126 120 114 88 10 93 172 173 174 174 175 173 172 170 169 169 169 169 169 171 173 95 73 166 165 169 166 160 164 156 157 152 147 136 105 29 0 37 135 173 169 55 0 98 146 143 140 140 139 139 138 137 137 136 135 132 120 108 98 0 145 141 139 137 138 138 136 118 14 14 121 138 139 138 139 140 141 142 140 137 134 127 119 112 87 14 119 135 136 137 138 140 143 145 147 150 150 147 97 48 144 143 141 139 138 139 140 140 134 127 122 60 65 149 150 149 147 
125 53 123 141 141 141 141 137 133 123 114 105 52 65 147 146 145 145 142 142 143 143 143 144 144 145 145 146 126 15 14 98 122 117 109 102 31 37 173 175 175 176 176 174 174 173 171 169 167 166 166 170 174 174 169 126 34 142 159 152 145 144 142 145 131 101 28 0 37 131 167 166 167 165 162 106 0 96 143 141 139 139 137 136 135 135 133 130 126 114 105 96 0 146 141 139 138 136 135 135 135 120 14 45 134 134 133 135 135 135 133 131 129 125 117 112 106 32 91 139 139 141 143 144 147 150 152 154 156 158 157 157 102 51 150 145 142 140 140 140 135 127 120 94 16 149 150 149 146 143 
130 95 78 143 144 143 138 134 126 115 105 78 16 151 151 148 147 145 144 144 144 145 145 145 147 148 149 145 141 135 39 0 0 0 0 0 0 150 172 173 174 175 171 167 167 167 166 165 165 165 167 171 174 167 157 147 127 16 94 133 125 118 120 97 26 0 36 127 164 163 163 163 162 161 159 157 103 0 96 143 141 140 137 135 132 129 127 124 120 110 99 84 0 146 145 142 139 137 136 137 137 137 88 0 43 128 127 126 126 125 124 124 122 115 110 103 51 62 143 142 143 146 149 151 154 155 156 157 159 160 160 155 149 77 65 143 140 139 139 136 128 121 114 34 102 152 150 149 146 142 
131 122 15 144 145 138 133 128 116 98 89 17 121 155 152 150 148 146 147 147 146 147 148 148 149 151 146 143 136 129 40 112 171 170 171 168 56 112 169 170 171 171 167 163 162 163 162 163 163 163 165 164 159 154 146 139 110 42 0 27 89 67 24 0 35 128 161 159 160 161 162 158 156 156 154 153 153 103 16 95 142 140 135 130 126 125 122 117 112 98 49 8 0 147 146 143 140 139 139 139 138 137 131 82 0 82 119 118 117 117 116 116 110 108 102 80 15 147 148 149 150 153 155 157 158 158 159 159 159 159 153 146 139 131 38 93 135 134 133 126 115 114 79 34 158 155 151 147 143 140 
116 106 32 103 132 128 118 117 71 32 9 0 122 155 154 151 150 149 149 149 148 149 151 151 152 148 142 135 129 66 74 169 170 170 171 170 172 57 55 168 169 167 163 161 162 163 163 163 165 166 163 155 148 144 138 112 12 19 135 128 31 0 30 121 161 160 158 155 156 160 160 157 153 153 152 150 151 152 135 16 92 132 127 123 121 120 107 92 45 10 63 125 0 149 148 146 144 143 143 142 142 140 131 122 38 0 0 26 40 40 66 80 74 90 94 18 118 154 154 155 157 159 161 162 161 162 161 162 160 154 147 140 133 117 39 0 0 45 45 84 77 105 10 140 157 154 149 147 142 142 
92 80 44 35 84 61 24 0 50 103 139 34 33 157 155 153 151 150 150 150 149 149 150 151 149 144 139 133 79 56 173 173 173 174 175 173 176 177 57 55 164 163 160 160 162 164 167 168 169 167 160 152 145 139 86 0 61 154 151 126 68 46 27 99 156 158 156 155 153 152 151 153 151 152 152 150 150 150 145 122 14 81 116 113 105 82 46 16 81 129 144 142 0 154 153 151 150 148 148 149 148 143 134 126 75 50 155 119 103 102 67 50 50 16 0 0 104 158 159 160 162 165 167 167 166 166 165 162 152 142 136 132 106 13 0 110 167 110 111 54 54 0 0 69 154 152 149 147 146 146 
77 66 24 0 24 54 102 141 146 148 149 133 16 85 156 154 152 152 151 151 151 152 153 152 149 143 138 82 57 174 177 176 176 174 173 173 175 178 176 56 17 142 156 157 161 165 167 170 167 163 158 149 132 57 21 131 197 197 185 145 67 40 69 137 40 67 132 144 141 144 146 147 150 148 148 149 146 139 132 126 119 35 71 78 21 33 82 147 148 144 144 138 0 158 157 157 154 154 155 155 154 148 138 130 25 123 158 157 157 155 155 155 157 158 158 53 0 107 163 166 170 171 170 169 166 164 157 146 135 124 118 85 12 17 143 163 161 160 160 160 158 158 87 0 16 118 151 145 148 149 
70 41 0 61 98 104 109 124 137 143 141 144 98 0 136 156 156 154 155 156 156 158 156 147 140 136 110 18 157 178 175 176 174 172 172 173 173 173 172 170 54 16 138 155 158 163 165 162 160 154 148 117 44 44 177 200 200 200 200 186 88 45 54 156 196 139 40 31 95 143 143 144 149 148 145 138 134 129 122 118 95 23 0 33 117 152 154 151 151 149 140 128 0 162 163 162 162 162 162 161 159 151 141 109 17 163 160 157 157 157 158 158 160 162 163 166 56 0 113 172 174 173 170 166 159 153 141 127 115 105 64 0 35 140 159 158 157 157 157 157 157 157 158 140 34 0 66 148 147 148 
53 0 31 98 98 98 94 103 120 128 126 129 136 60 32 157 162 163 163 164 160 156 146 136 126 100 19 156 177 174 171 170 170 171 171 171 169 167 167 167 158 50 0 104 155 156 155 150 148 142 115 14 110 200 200 199 199 198 197 199 172 71 48 138 204 179 185 143 40 15 64 130 147 144 138 133 127 122 111 48 0 16 120 158 154 158 161 158 157 142 129 117 0 167 166 168 167 165 164 164 158 151 140 68 73 164 163 160 159 161 162 164 166 169 169 170 172 57 0 114 170 167 160 152 145 141 125 111 90 35 0 53 158 158 156 156 156 155 156 157 158 158 161 162 163 90 0 16 115 145 
7 22 104 108 110 113 110 106 109 113 110 109 109 112 26 80 160 167 168 165 160 148 137 125 104 11 161 180 177 175 172 169 170 171 170 168 167 166 167 163 154 148 42 0 34 118 144 137 137 85 22 181 204 203 200 197 193 191 192 191 204 149 52 114 203 185 182 186 181 132 35 0 111 144 138 133 119 91 12 0 90 169 172 170 168 170 170 157 147 131 109 102 0 170 171 171 170 167 165 162 153 143 133 13 147 165 163 161 162 163 165 166 167 167 168 168 170 169 56 0 107 152 144 138 134 128 108 76 19 0 87 156 155 155 155 155 155 156 159 162 162 163 165 165 165 158 134 30 0 80 
15 124 136 131 133 137 136 129 122 124 126 115 103 98 88 11 122 150 153 149 144 136 115 105 31 124 186 183 182 179 177 175 175 175 173 167 164 166 166 161 151 143 43 102 143 41 31 103 54 93 209 209 209 206 204 198 191 186 185 186 186 189 117 105 205 193 185 188 178 167 86 74 36 148 145 116 43 0 39 160 184 186 185 181 178 171 154 143 129 106 49 11 0 173 174 171 170 160 157 151 141 131 87 36 168 164 162 160 159 161 162 162 162 164 163 163 164 164 162 52 0 93 132 128 117 89 23 33 121 16 140 159 160 159 160 160 162 164 167 168 169 170 172 172 164 154 145 73 73 73 
119 157 158 157 156 156 156 150 145 149 151 139 123 108 97 62 24 127 132 118 119 93 50 11 0 165 185 183 181 179 180 180 180 178 173 162 156 158 160 157 148 89 62 187 189 188 146 41 0 140 211 209 209 208 205 199 191 185 184 186 191 189 193 164 203 220 201 200 191 146 19 165 143 87 82 15 20 130 198 198 195 192 184 171 157 139 121 73 28 17 70 138 0 177 174 172 159 149 146 138 128 117 45 90 162 160 159 157 157 157 157 157 157 159 158 158 158 157 155 146 46 0 83 89 25 34 122 160 160 108 36 169 173 173 173 176 176 177 179 180 181 181 182 175 166 155 120 18 155 174 
125 149 158 163 164 167 167 165 164 167 167 157 144 120 104 99 40 67 96 54 13 38 100 161 19 80 183 183 181 178 179 180 179 178 172 162 150 151 155 152 92 20 170 191 191 191 191 192 64 0 70 209 209 206 202 204 198 192 191 190 194 201 206 198 219 238 223 214 203 39 115 206 198 85 0 84 176 205 200 193 180 168 146 138 75 29 0 56 131 164 159 140 0 173 170 158 140 131 130 119 109 100 0 161 160 157 157 157 157 156 155 156 156 156 155 154 153 153 147 140 132 38 0 36 128 168 169 170 172 174 38 99 181 182 183 184 187 188 190 190 189 187 182 172 162 151 30 99 180 178 
56 143 151 159 166 170 171 174 177 177 176 172 160 141 122 108 33 0 36 98 161 185 186 184 100 0 162 183 181 180 181 180 179 179 177 167 154 149 148 107 0 150 195 194 194 195 196 195 195 129 0 71 215 216 211 214 218 214 213 211 212 223 241 208 199 248 229 216 126 22 213 206 202 197 59 89 204 189 177 154 143 91 45 0 36 93 151 167 161 154 140 122 0 163 119 97 91 56 42 39 11 0 0 122 157 158 157 157 157 157 157 156 156 156 155 156 157 153 148 141 136 41 117 181 183 184 185 184 185 185 132 19 154 175 175 177 183 187 188 187 183 180 171 163 152 88 19 177 176 175 
0 136 161 165 170 173 172 174 179 181 182 177 168 154 136 78 0 107 168 174 179 184 186 185 184 19 81 184 183 183 181 180 176 175 171 160 149 139 110 13 107 195 195 193 192 192 194 195 196 196 132 0 73 199 229 220 223 228 230 226 223 226 239 255 177 188 208 157 19 132 194 194 193 174 177 125 20 127 110 59 0 0 74 130 166 164 159 153 149 142 124 67 0 0 35 52 51 85 102 102 135 153 33 17 158 159 160 159 158 158 159 159 159 161 164 166 165 158 152 147 89 61 188 192 193 192 189 187 186 179 170 52 54 164 164 165 169 171 169 166 164 159 152 144 111 13 112 168 166 162 
46 69 158 168 170 169 164 162 166 171 172 168 164 152 85 0 120 174 169 173 177 181 186 186 182 95 0 163 181 183 177 171 166 165 155 143 132 99 12 64 194 193 191 189 189 191 194 198 199 200 203 138 22 25 206 225 213 223 230 229 216 226 215 233 176 151 168 63 38 190 176 183 157 166 178 174 111 0 0 35 106 162 158 155 153 151 147 143 140 128 112 31 52 157 154 153 153 151 151 151 151 154 136 0 71 162 163 163 161 160 161 163 165 167 169 168 161 155 147 91 61 187 189 189 187 184 182 178 175 171 165 140 0 127 161 157 156 155 153 150 147 138 132 125 49 35 161 158 157 155 
100 0 115 153 162 159 150 137 132 134 142 141 144 111 0 107 171 170 170 177 173 168 180 181 175 170 16 75 168 168 168 162 154 151 140 119 109 31 20 169 191 188 185 185 186 187 191 197 200 202 207 211 188 23 24 192 210 197 206 218 192 196 201 184 146 112 98 0 120 177 169 135 150 170 163 162 154 134 16 102 152 151 148 146 143 141 140 136 126 117 106 0 120 155 153 153 152 151 153 154 155 157 159 89 0 132 169 165 164 163 164 165 167 168 167 158 150 142 112 20 163 181 179 180 177 175 176 174 170 164 160 154 63 17 155 152 149 146 144 143 137 126 116 77 0 122 157 155 153 152 
127 24 47 118 148 131 117 93 76 90 110 107 90 10 88 136 139 147 155 164 151 145 172 175 165 156 72 0 108 144 154 143 139 121 86 39 11 0 139 185 186 184 182 180 181 186 190 195 197 199 203 205 205 177 20 0 127 177 161 173 167 131 163 158 138 97 9 45 140 152 134 130 167 155 157 154 145 147 127 14 97 145 139 137 133 130 127 124 118 110 66 17 160 160 158 159 157 157 158 161 162 166 168 166 34 19 171 168 165 163 163 164 165 165 155 144 136 103 20 168 183 176 173 171 171 172 173 172 168 162 158 148 121 13 66 143 139 136 135 136 126 114 102 9 52 159 158 157 157 155 
123 60 0 9 37 60 60 52 46 67 99 86 8 83 130 129 120 118 142 152 120 116 163 161 133 122 100 6 28 85 84 44 14 18 59 119 158 37 113 175 173 170 177 179 180 183 188 191 192 193 194 192 185 175 164 51 0 0 0 0 0 0 0 0 0 0 0 96 120 121 113 153 157 149 153 149 142 147 137 125 41 88 126 122 121 120 119 114 114 107 32 91 167 166 166 166 165 166 168 170 172 173 175 167 136 0 73 156 154 151 151 150 151 152 140 128 117 35 125 187 180 172 168 167 168 170 172 170 164 162 156 144 134 67 0 0 0 0 0 0 0 0 0 0 142 160 161 160 159 157 
130 72 48 83 57 28 6 4 13 49 92 30 94 137 137 138 120 94 114 148 106 89 141 118 76 76 68 25 0 7 30 83 128 164 172 170 167 142 16 133 137 146 169 177 178 177 178 179 180 179 178 175 166 157 149 74 83 189 181 186 157 93 77 63 98 159 33 41 89 84 127 155 146 148 151 149 143 145 132 125 61 0 0 26 41 41 83 78 85 103 0 155 176 174 175 174 173 174 174 175 175 175 174 163 149 74 0 0 0 0 0 0 0 0 0 0 0 0 123 180 174 170 167 167 170 170 170 167 166 163 156 145 134 65 76 170 168 169 169 168 167 164 164 54 109 163 163 162 160 157 
131 51 138 137 86 106 58 30 38 41 18 0 164 153 147 149 146 109 93 125 108 80 107 82 62 50 47 23 29 70 66 65 91 126 147 148 137 112 74 9 64 95 142 163 173 173 171 170 168 167 165 158 147 138 111 20 186 183 170 163 135 69 67 59 51 92 70 6 51 73 120 140 146 148 154 152 145 144 130 121 12 74 170 0 146 97 96 47 46 0 0 182 181 179 180 178 177 174 174 173 173 171 167 156 144 82 57 170 170 169 168 168 170 172 172 170 169 56 19 158 175 172 171 172 173 172 170 168 168 162 153 143 96 37 172 169 168 168 167 167 164 162 162 142 17 108 160 156 153 150 
89 14 185 160 94 104 59 30 67 143 178 0 109 140 134 136 146 133 96 101 92 72 82 64 53 46 32 6 54 68 71 68 66 80 96 94 78 66 63 35 7 51 77 128 156 167 168 165 161 160 155 146 138 132 25 125 165 170 176 152 86 66 66 65 46 47 55 46 8 51 94 130 156 146 153 151 144 142 124 90 0 154 179 58 100 151 150 146 143 139 0 121 180 178 176 174 174 173 172 172 171 171 165 153 142 56 95 172 170 168 168 168 168 169 169 169 168 150 18 19 173 172 171 170 171 170 167 166 159 151 143 134 13 148 166 165 163 162 160 160 158 157 157 157 138 16 102 148 143 140 
39 48 182 161 84 64 41 34 80 153 175 69 38 90 87 86 99 102 75 60 57 56 61 47 41 40 4 29 55 59 64 66 62 60 65 65 64 63 61 65 20 19 54 68 119 152 163 161 158 156 146 138 130 77 53 162 160 171 174 157 151 141 119 80 84 110 70 44 39 0 55 141 157 142 152 153 146 137 123 27 79 181 178 119 49 149 148 145 140 132 43 59 178 176 172 171 168 171 171 171 172 170 157 145 136 13 153 172 169 167 167 167 166 166 167 168 167 167 146 0 56 168 167 166 165 163 162 160 150 142 133 52 88 160 158 158 158 155 156 156 155 155 154 154 152 98 0 94 136 133 
32 98 169 147 63 31 33 37 89 155 164 87 0 79 70 51 44 44 44 38 39 43 40 35 34 13 5 50 53 55 58 59 56 55 58 60 60 59 59 57 59 6 21 57 72 126 150 155 152 144 137 129 100 18 148 164 160 148 171 161 174 179 183 165 177 176 86 42 53 36 0 100 155 137 156 154 146 129 95 0 161 177 171 154 15 142 143 141 137 130 81 0 173 173 170 165 161 159 160 162 160 149 125 104 85 15 158 163 164 163 166 165 164 163 163 162 161 158 148 92 0 88 157 157 158 157 156 151 143 133 91 34 159 158 157 156 154 153 153 153 153 153 152 151 149 141 87 0 88 126 
26 101 124 112 50 32 33 34 83 129 117 54 6 72 84 41 40 41 40 41 35 32 29 26 17 0 34 46 47 49 51 52 51 49 51 55 55 56 57 58 60 52 0 26 52 77 126 148 149 137 129 122 49 94 173 171 171 156 141 171 167 174 151 183 157 168 113 45 50 60 37 0 82 134 159 141 129 129 54 80 176 171 171 169 31 106 138 136 133 126 115 0 112 168 163 157 154 150 150 150 148 120 74 48 25 37 121 141 143 154 163 163 163 162 161 160 155 145 136 128 49 0 67 151 150 151 147 141 132 125 12 138 156 155 153 153 153 152 152 151 151 151 150 148 143 135 126 38 0 27 
65 91 51 53 33 30 31 30 62 96 52 29 31 32 62 49 49 43 38 36 34 35 27 21 1 7 37 39 43 45 45 44 45 47 49 51 51 51 54 55 55 50 33 0 31 47 78 120 128 122 121 82 37 171 173 177 182 186 161 135 161 156 131 156 158 104 122 59 44 64 40 100 64 43 151 118 133 99 0 155 170 174 165 159 80 59 135 134 132 123 110 33 55 159 154 149 144 139 138 138 134 103 49 35 12 33 66 87 84 113 141 146 150 154 154 152 146 137 128 111 36 108 88 16 113 144 135 130 122 49 85 154 152 150 150 150 150 150 150 147 147 147 146 144 137 128 119 57 63 110 
88 85 33 29 27 26 27 31 43 49 26 29 34 0 65 70 45 32 29 25 33 29 14 2 0 28 32 32 37 39 38 35 37 42 43 45 46 45 46 46 43 41 38 15 0 0 21 29 76 78 110 10 155 177 179 177 178 185 187 158 131 134 113 94 136 63 79 68 42 26 76 146 125 93 11 103 123 50 77 165 167 164 154 155 130 13 134 134 131 121 107 62 0 0 16 48 47 45 75 91 86 58 45 40 0 51 49 54 49 65 87 93 106 120 121 120 122 121 110 36 87 158 155 137 33 59 127 118 82 33 151 150 149 147 146 146 146 145 145 144 143 142 142 137 129 120 92 15 138 137 
56 50 33 30 24 23 25 28 38 33 22 29 34 7 45 75 36 25 18 9 2 9 22 30 0 32 28 25 28 29 32 32 33 35 37 38 39 37 34 35 34 33 30 15 56 111 78 76 47 54 0 0 136 177 179 183 183 183 180 174 122 74 65 62 63 52 54 70 19 55 169 105 84 93 80 15 70 10 134 168 170 159 148 148 144 15 116 131 126 118 104 58 51 155 135 99 98 98 65 49 43 25 0 0 0 40 42 43 45 47 54 55 55 64 64 65 74 79 33 52 157 153 151 149 148 81 12 85 10 129 145 144 143 141 141 140 140 140 139 139 139 139 135 128 120 112 22 105 133 131 
59 36 32 28 23 23 23 25 25 21 22 28 33 16 15 34 14 2 5 15 27 32 28 27 11 14 23 21 23 26 29 29 30 33 37 36 34 33 30 27 28 21 5 62 106 141 152 135 141 159 166 35 38 177 177 174 185 183 170 156 109 63 59 52 54 48 42 20 32 224 136 64 59 59 92 105 38 0 156 175 158 144 148 145 142 60 70 127 122 113 98 45 49 147 144 142 141 141 143 133 95 45 33 35 0 36 37 37 39 40 42 42 41 39 36 37 33 15 38 146 150 148 146 143 143 142 125 31 0 123 139 137 136 134 134 134 134 133 133 134 134 133 126 118 111 54 57 129 127 123 
63 75 25 21 22 20 20 22 20 17 20 24 21 6 0 6 16 20 22 27 31 33 28 22 15 4 19 19 20 24 26 25 23 27 34 31 28 26 26 23 13 4 41 81 110 148 162 144 135 157 168 128 0 98 178 175 166 166 166 147 126 77 74 62 53 51 16 6 80 213 111 60 64 65 67 81 115 32 35 132 139 153 153 141 137 103 26 120 117 105 91 25 94 141 138 136 135 135 133 114 68 36 32 32 0 21 30 29 32 33 34 36 36 34 32 28 9 10 78 111 139 147 143 140 139 139 138 135 14 58 133 131 131 129 130 130 129 128 129 129 129 125 118 111 85 13 112 125 122 117 
31 100 56 27 22 22 23 22 21 17 18 12 1 2 16 26 20 17 22 29 32 35 31 21 17 1 13 15 18 21 21 19 17 18 22 21 21 21 17 7 6 30 39 66 92 133 162 146 134 158 167 165 72 0 152 173 163 142 131 131 143 121 71 61 45 16 8 61 93 185 87 63 60 51 44 84 132 98 0 108 160 150 149 136 129 125 12 100 109 96 84 7 91 136 133 130 130 130 129 115 79 39 25 24 6 15 24 26 26 29 33 32 31 29 23 7 4 29 46 84 131 149 146 139 137 135 134 131 99 0 114 127 126 127 126 126 126 126 126 126 125 118 112 105 31 84 125 122 119 116 
24 79 71 35 21 23 24 20 17 16 5 0 4 12 19 20 19 23 27 29 28 26 19 14 17 8 6 14 13 15 16 14 13 12 13 13 15 11 1 9 29 34 39 52 76 107 140 111 115 156 162 159 154 15 35 154 142 111 118 141 142 128 108 96 32 0 87 83 104 184 71 61 54 40 46 75 91 98 61 17 150 146 145 130 123 117 35 73 101 82 73 0 134 133 131 129 126 129 130 122 86 33 19 19 5 8 49 37 24 25 30 27 23 19 6 3 27 28 34 78 119 144 146 139 137 133 130 127 123 39 54 125 123 122 121 120 120 121 123 124 118 113 108 61 39 121 121 122 121 117 
26 36 41 22 18 23 17 10 4 1 0 7 15 18 20 18 23 31 30 27 25 20 16 14 16 11 1 8 9 12 14 13 12 11 10 8 5 0 7 27 29 34 41 44 63 97 103 64 99 153 157 154 144 100 0 81 107 47 48 66 37 40 25 0 0 178 176 77 98 148 63 56 48 35 64 72 83 145 145 14 78 138 131 119 112 107 61 34 71 36 8 0 137 136 133 130 127 129 134 117 69 26 17 16 7 13 71 52 24 22 23 19 15 4 0 20 24 24 24 43 89 126 142 141 139 137 129 124 118 98 0 110 124 120 119 118 117 119 121 119 113 110 97 9 97 113 118 124 127 122 
33 11 18 11 5 2 1 4 8 11 3 9 21 24 23 18 21 27 24 21 22 23 19 12 14 13 2 11 9 9 10 11 8 6 2 0 0 9 19 23 29 31 37 41 51 72 69 70 120 158 159 151 142 133 51 0 0 10 16 19 65 94 95 126 0 170 151 83 72 92 76 54 40 36 69 63 122 139 116 80 11 87 90 77 68 43 8 0 27 69 101 0 107 125 127 122 117 126 133 110 52 16 15 13 6 0 0 0 0 0 0 0 0 0 12 16 16 19 21 22 54 104 130 141 143 140 134 123 111 107 54 53 117 118 118 116 119 120 121 115 108 102 41 69 107 103 112 127 132 125 
20 0 3 7 14 17 10 7 7 9 12 4 18 25 22 21 18 16 16 15 14 20 16 12 16 17 12 8 14 5 2 0 0 2 5 8 1 9 15 19 24 30 35 40 40 44 56 85 137 158 152 140 131 122 56 45 53 45 48 44 71 123 119 122 14 94 81 87 65 90 125 55 34 38 49 71 113 90 70 57 23 24 38 16 0 14 39 62 74 75 27 0 42 84 90 91 85 93 108 88 31 12 11 9 5 4 37 35 17 9 21 25 17 8 6 11 14 19 18 19 26 60 100 124 129 125 120 106 95 90 45 0 10 34 71 84 103 101 96 89 85 55 22 107 92 82 96 111 111 104 
11 16 30 20 17 16 13 9 6 9 17 19 2 22 22 22 16 13 14 11 12 22 21 19 21 21 9 0 2 3 5 8 6 4 7 8 5 2 10 14 22 31 37 42 39 36 44 68 112 126 113 104 100 76 10 75 62 50 55 57 103 131 125 106 31 58 83 65 62 79 103 42 34 51 54 96 75 53 49 55 23 0 14 34 53 65 62 62 60 39 0 28 5 56 61 62 59 54 56 44 20 11 8 6 1 6 14 17 9 16 26 20 12 11 12 3 9 21 16 15 15 20 49 79 87 87 83 70 60 47 6 35 64 53 27 18 0 21 25 33 44 3 36 50 44 33 52 64 56 47 
8 22 22 12 11 18 22 20 17 17 23 26 23 2 22 24 19 19 22 19 22 29 27 32 29 18 2 6 10 8 8 8 6 5 8 8 8 1 8 12 18 27 35 41 40 36 37 49 63 72 69 66 68 12 50 51 62 45 49 88 109 122 92 63 34 30 72 60 50 83 88 30 46 48 92 78 55 53 59 54 3 24 54 51 63 55 59 64 57 5 16 51 16 37 54 58 66 59 47 38 21 8 5 4 0 8 7 7 9 25 31 17 8 11 14 22 14 2 7 12 12 14 22 35 35 37 40 36 27 9 3 39 39 44 48 42 34 23 22 13 0 0 3 10 11 14 17 19 16 14 
5 19 13 7 8 15 16 19 23 20 20 24 29 23 2 21 25 29 28 25 32 29 25 42 43 11 0 5 6 7 7 7 7 7 8 8 9 6 2 13 15 22 30 37 40 39 39 42 49 58 58 57 35 19 47 38 40 66 78 82 97 119 110 63 29 19 61 57 53 71 77 31 42 77 91 52 61 52 51 27 0 41 41 57 48 43 47 50 21 4 36 48 32 10 44 53 72 77 66 42 18 6 4 2 2 8 9 9 12 25 29 12 8 9 14 21 20 12 2 1 7 10 17 21 21 20 22 21 13 0 12 19 22 32 45 42 43 54 57 59 53 26 4 0 1 9 14 15 15 14 
9 16 8 4 9 12 8 8 15 16 15 22 24 22 13 6 28 30 27 22 23 21 20 37 42 6 3 16 11 8 9 10 10 9 8 8 10 9 3 10 19 25 32 37 41 44 42 40 45 51 51 39 6 52 55 54 61 79 108 106 92 110 111 102 75 0 51 45 81 83 66 25 66 113 104 90 51 54 47 6 23 48 59 52 45 51 45 27 0 27 38 47 48 0 27 40 63 77 64 33 11 5 4 0 7 9 10 12 12 14 18 12 7 7 10 12 13 10 8 4 0 1 10 20 19 17 13 9 2 3 10 12 13 18 33 43 59 72 70 70 67 52 31 16 10 0 0 8 15 14 
16 12 7 5 5 6 4 5 10 13 16 19 21 20 17 12 9 34 29 16 8 11 15 18 19 0 11 23 13 4 5 9 10 9 8 9 12 11 11 1 20 27 34 39 43 45 42 38 36 39 40 15 30 59 54 46 43 39 44 61 70 98 119 78 74 7 47 36 66 82 53 51 51 88 104 56 69 68 44 0 56 95 86 45 64 68 46 4 26 45 45 51 50 13 20 40 57 68 56 23 7 4 3 1 11 10 9 13 10 9 11 12 7 6 6 8 9 10 8 7 6 1 0 10 14 14 11 7 1 7 9 8 8 9 17 28 51 71 72 69 67 62 49 37 39 44 20 3 0 9 
14 10 7 7 5 3 4 7 15 19 17 17 15 11 9 15 16 10 27 13 4 5 7 8 2 0 21 18 10 2 3 9 12 9 9 11 13 14 14 6 11 28 36 42 42 42 41 35 29 30 22 9 51 62 49 35 32 35 40 42 72 100 102 104 62 16 37 40 49 89 47 63 47 58 113 99 82 77 35 42 102 113 80 63 70 71 20 20 68 59 51 51 48 28 0 13 27 53 61 29 8 2 0 4 10 9 7 8 7 8 9 10 8 7 5 4 5 7 8 4 5 1 4 2 10 11 11 2 9 13 10 8 7 10 14 16 26 45 51 54 59 61 61 56 54 52 48 18 22 21 
9 14 19 19 14 7 7 12 17 17 14 11 8 6 8 14 19 8 10 11 4 4 3 3 16 1 13 15 9 3 4 7 7 7 7 9 11 15 17 13 1 26 38 42 38 34 34 28 23 23 2 42 50 43 37 36 32 33 56 56 61 84 87 64 68 35 34 56 43 48 42 43 49 60 98 89 70 64 0 111 123 91 73 73 67 39 7 55 65 60 51 47 41 22 35 60 38 15 0 13 8 2 0 4 6 6 5 5 6 6 10 10 8 7 8 6 6 6 4 3 3 1 6 8 1 10 7 4 20 17 11 9 11 11 12 15 18 22 26 38 47 49 52 55 54 51 32 20 54 49 
10 26 27 28 23 15 15 14 12 12 10 10 8 8 13 18 19 16 4 6 3 1 7 17 18 5 4 11 12 8 6 6 2 2 3 6 10 15 16 20 12 12 31 25 20 21 9 7 4 0 0 24 40 48 40 40 35 35 58 59 64 71 108 98 62 41 45 110 96 67 31 41 34 57 92 71 73 35 64 135 117 87 104 71 41 5 42 56 61 56 49 47 42 4 57 76 69 66 60 30 6 0 0 2 4 4 3 2 3 5 7 8 6 5 7 6 5 3 4 4 0 4 5 9 8 6 0 14 18 18 11 9 9 8 8 9 14 15 15 26 35 37 38 45 46 36 6 68 64 50 
11 29 21 22 19 14 11 10 10 9 7 6 3 9 20 20 20 13 1 0 2 5 7 10 13 8 0 8 10 7 5 5 2 2 3 6 9 13 16 20 15 0 0 5 8 11 28 28 36 56 18 0 11 40 43 54 61 61 72 71 55 81 98 115 90 48 0 0 7 30 16 11 28 56 51 72 76 8 106 146 139 131 94 48 12 25 47 46 51 50 45 44 21 13 66 65 63 54 47 40 17 2 0 0 4 5 2 1 1 4 4 4 4 3 3 4 3 2 2 1 2 3 4 7 10 5 0 8 15 16 10 10 9 8 6 5 8 9 10 16 23 27 30 35 32 3 42 54 53 45 
8 25 20 29 28 17 18 16 11 7 3 0 4 7 15 14 9 0 0 1 2 2 2 3 6 7 1 1 5 4 1 2 2 4 6 7 7 6 9 15 9 9 28 16 19 44 62 63 63 64 66 33 0 9 22 35 45 62 82 92 68 65 82 106 101 19 56 92 80 76 38 31 27 33 31 9 0 0 126 150 133 85 49 19 13 49 53 47 39 38 34 30 3 34 52 49 47 43 41 34 12 0 1 0 0 1 1 2 2 1 1 1 2 1 2 3 1 1 0 0 2 2 4 6 7 9 3 0 7 11 9 10 12 11 6 3 4 6 8 11 16 18 20 23 7 15 29 35 34 24 
13 24 30 52 52 38 41 35 21 9 3 2 6 8 8 3 0 10 10 6 4 2 1 3 4 4 3 0 4 3 0 1 2 8 10 10 7 4 4 8 4 11 28 16 25 54 62 55 51 46 48 44 28 4 3 23 25 32 41 77 97 83 108 116 78 0 51 82 133 121 75 64 52 86 75 51 16 0 68 126 111 106 86 7 41 57 55 42 25 24 20 9 3 38 38 36 36 37 37 24 6 1 2 2 0 0 1 2 2 1 1 2 2 0 2 3 5 2 0 0 1 2 3 5 6 6 6 2 0 5 8 12 14 13 10 6 4 4 8 11 13 15 16 8 8 14 22 26 25 19 
9 26 51 69 45 36 38 36 22 5 4 3 5 4 0 2 21 23 15 14 14 12 7 3 1 2 2 1 2 3 4 3 4 6 8 6 4 3 4 8 1 15 26 23 34 48 41 34 31 28 25 28 34 33 4 4 22 30 30 36 46 86 109 107 43 18 63 67 87 104 111 77 60 104 53 10 20 6 36 140 125 100 14 33 42 38 32 21 16 14 11 0 13 26 29 31 32 33 26 15 5 4 4 3 2 1 0 1 1 0 2 2 1 0 0 4 5 0 0 0 1 1 1 3 3 4 5 4 1 0 2 7 10 10 11 9 6 3 6 8 8 11 10 4 14 11 17 19 20 14 
6 27 57 58 31 19 20 28 19 5 6 3 0 0 7 23 22 16 13 19 24 22 12 6 3 2 1 2 0 0 0 2 2 2 4 5 5 4 9 11 0 19 30 33 33 35 30 30 32 26 21 19 20 30 38 16 0 17 33 39 46 77 89 87 7 42 54 56 62 85 99 94 93 81 15 13 42 20 0 110 53 15 12 33 28 21 21 14 11 5 0 0 15 20 24 26 25 24 18 9 7 8 8 7 9 8 1 1 1 0 0 0 0 1 0 2 0 0 3 2 1 2 2 4 2 3 6 6 5 1 0 2 8 9 10 11 10 6 4 3 3 4 2 17 15 15 12 11 9 10 
12 12 29 33 20 9 12 22 19 6 1 5 14 0 18 22 14 10 12 15 20 19 14 6 1 1 1 1 3 6 4 2 3 4 3 3 4 3 0 0 0 18 24 33 29 24 29 33 31 27 25 21 24 33 39 25 13 22 4 54 89 104 106 49 7 50 42 39 48 67 66 79 102 20 18 21 30 29 0 49 40 14 31 21 16 12 5 2 2 5 5 0 12 16 18 14 12 12 11 9 11 15 15 13 11 9 3 0 1 0 0 0 0 0 0 0 0 1 1 0 2 1 1 2 1 1 3 3 2 3 0 0 3 7 9 9 8 6 2 2 1 0 7 15 12 12 8 7 10 10 
18 12 12 16 12 8 12 9 3 12 14 15 19 0 16 15 9 9 15 15 14 19 22 16 4 2 2 0 13 16 4 3 3 5 15 15 11 8 8 10 1 13 18 27 29 27 32 33 25 23 26 27 32 36 36 14 21 24 30 11 33 59 68 28 32 44 40 39 34 44 41 52 28 29 23 25 34 63 13 31 12 19 14 12 4 0 3 18 9 5 4 1 4 10 8 5 5 7 7 9 14 16 13 13 10 7 4 0 0 0 0 0 1 1 0 0 1 2 1 2 2 2 1 1 2 2 2 4 6 4 3 1 0 0 0 0 0 0 0 0 0 0 2 9 10 9 10 11 16 13 
12 6 11 8 6 3 1 15 26 23 12 11 14 0 10 9 6 11 23 18 8 15 23 17 7 2 0 1 19 14 3 1 5 20 36 37 19 8 5 6 4 5 15 22 29 36 31 22 16 16 20 23 24 24 24 2 34 43 48 47 40 7 50 0 74 52 30 32 33 34 27 12 37 32 24 33 62 63 24 0 12 7 0 4 5 3 21 9 2 17 4 1 1 6 5 3 5 11 12 10 11 9 6 7 8 4 1 0 0 1 0 1 1 0 0 0 3 3 2 1 2 2 2 0 3 3 1 2 5 3 2 1 1 6 8 11 10 4 6 5 3 1 0 1 7 11 10 11 15 15 
8 6 7 1 1 6 15 26 23 19 12 17 15 2 6 11 11 19 30 20 10 10 9 13 15 8 0 10 21 12 1 1 5 21 35 43 34 13 2 4 7 1 12 18 24 32 28 20 15 15 13 14 12 13 10 9 33 26 34 29 30 45 14 0 39 58 43 24 25 28 12 14 42 28 38 73 63 33 11 0 4 8 11 7 1 18 12 0 12 18 3 4 0 7 6 6 11 18 18 14 12 8 2 2 4 1 0 0 1 2 3 6 8 5 5 0 2 3 2 1 2 2 2 2 2 2 1 2 4 4 3 1 1 4 7 14 9 4 5 6 3 4 3 0 0 6 11 10 15 15 
12 0 3 12 12 11 15 20 23 21 13 21 18 2 5 15 14 23 30 20 19 26 21 23 29 14 3 23 26 27 16 2 3 6 12 30 34 23 7 2 6 5 6 18 21 26 32 34 26 25 17 11 9 11 8 11 15 23 26 41 47 63 73 47 13 10 21 27 19 6 22 18 24 23 44 68 49 29 7 15 19 19 10 2 15 15 0 3 21 4 5 5 0 6 8 9 13 17 16 15 15 10 2 2 1 0 1 2 3 4 5 7 7 5 4 1 0 2 2 2 2 2 2 3 4 5 2 1 2 3 3 0 2 5 6 9 7 5 5 6 7 5 3 5 2 0 2 9 12 13 
12 0 22 25 19 11 14 20 25 28 21 18 16 3 2 12 15 20 29 27 25 38 28 22 24 3 29 30 28 38 38 19 12 9 10 23 31 35 26 15 14 16 2 21 25 26 34 32 25 24 17 9 8 11 3 8 15 28 46 48 42 35 24 28 53 50 12 17 5 8 18 19 19 25 34 54 57 40 0 44 28 20 2 11 20 1 0 23 13 1 5 4 1 4 9 11 12 15 14 15 14 8 2 2 0 1 2 3 3 4 4 5 5 6 5 2 0 2 2 1 2 2 2 2 3 2 1 1 2 3 2 0 2 4 7 8 7 8 9 6 6 5 5 5 7 5 0 0 7 7 
0 0 19 24 18 10 10 22 27 29 20 16 15 6 1 6 12 17 22 22 16 15 6 2 0 0 48 32 26 33 34 33 30 26 18 17 25 39 38 34 29 30 20 20 48 35 28 22 15 14 12 8 7 9 3 8 11 23 39 22 13 22 29 21 25 27 0 0 0 0 0 0 0 0 0 0 0 0 0 63 38 21 23 22 5 0 19 32 1 2 3 5 3 0 1 7 13 11 9 15 12 6 3 0 0 0 1 3 3 2 2 3 5 5 5 3 0 1 3 2 2 2 1 1 1 0 1 2 2 1 0 0 4 4 5 7 7 8 12 7 6 5 6 6 11 12 8 1 0 0 
20 2 10 16 11 5 8 17 18 18 14 12 11 3 0 3 7 7 5 0 1 2 1 0 3 0 30 23 22 17 14 20 29 29 19 11 15 24 31 36 40 38 40 5 55 44 26 14 7 7 6 5 5 4 2 4 7 8 18 16 3 2 0 0 23 42 44 37 31 37 14 19 20 25 44 56 79 87 0 62 39 62 46 5 1 16 34 13 5 3 3 5 3 5 6 2 1 4 5 10 11 5 0 3 1 0 0 0 2 3 2 4 4 5 3 2 1 1 2 2 2 0 1 1 1 1 1 1 0 1 4 0 4 4 5 5 6 5 6 4 4 4 4 7 9 8 7 2 2 6 
21 15 1 19 15 7 12 15 14 10 9 11 9 2 0 0 5 10 7 4 5 5 3 2 2 0 19 17 14 7 2 6 14 19 19 17 17 17 27 34 42 38 29 17 20 36 21 10 8 8 7 4 3 3 5 3 1 0 0 3 8 7 15 35 55 77 68 12 63 56 24 15 23 35 46 46 78 75 9 75 72 61 15 3 9 29 12 14 7 6 5 7 0 14 12 15 13 4 0 4 8 2 1 7 3 2 0 0 0 2 4 3 5 4 2 1 2 0 4 4 2 0 2 1 1 0 1 1 3 5 3 0 4 5 5 4 6 6 4 2 2 3 4 6 6 3 3 0 6 6 
16 18 7 8 23 15 15 16 11 7 9 11 8 2 0 4 15 16 4 2 6 9 4 1 2 2 17 18 6 1 1 2 3 8 13 15 15 15 21 25 30 22 13 13 1 19 16 14 15 11 9 7 6 1 0 2 5 7 14 21 26 31 25 40 72 73 57 25 86 63 54 17 25 28 47 82 67 75 24 59 70 28 10 13 29 26 16 14 5 7 7 3 3 15 14 14 12 11 11 7 1 0 4 6 4 1 0 1 0 0 0 1 3 2 3 2 2 1 4 5 2 0 0 0 1 1 3 2 2 3 1 0 2 3 3 4 4 4 3 3 3 2 2 4 5 4 1 2 6 5 
14 18 14 2 15 19 17 15 15 12 12 11 9 3 0 6 14 16 5 7 11 15 7 2 4 4 19 20 5 2 2 3 2 4 10 12 13 12 13 14 13 11 9 9 4 7 18 24 18 5 9 11 7 0 27 27 26 26 22 40 44 57 66 57 75 77 15 45 56 79 65 26 29 24 42 75 62 58 32 48 47 33 42 42 35 23 23 14 6 7 5 0 15 12 12 11 11 11 10 9 9 4 2 5 5 2 1 1 1 1 0 0 0 2 3 4 3 2 2 3 1 0 1 4 2 2 3 3 3 4 2 0 3 3 4 5 4 5 4 3 4 3 4 5 5 3 1 6 7 7 
11 15 12 11 1 15 19 14 16 17 11 9 6 3 0 11 17 19 14 13 11 14 9 3 5 5 7 14 3 3 2 3 1 2 9 9 8 7 7 6 6 6 7 8 3 0 0 0 0 0 0 0 0 0 15 16 4 3 3 1 12 26 35 46 52 46 8 53 50 44 51 54 40 40 73 65 61 46 40 28 85 78 62 42 31 19 14 12 5 8 7 9 27 8 9 4 5 7 7 7 7 5 0 1 3 1 1 0 0 0 1 1 0 0 0 3 3 3 0 0 0 0 2 3 1 1 2 2 2 2 1 0 3 2 2 4 5 3 4 3 3 3 2 5 5 0 3 5 6 7 
10 15 13 18 4 4 26 19 12 18 12 9 7 5 0 16 16 25 40 32 16 15 14 10 10 11 10 18 3 3 3 4 2 3 8 7 4 3 5 5 5 5 5 3 0 12 23 22 15 9 16 33 18 0 4 27 34 12 2 2 3 10 14 32 53 20 45 66 41 39 51 70 29 57 67 47 46 47 60 28 67 52 48 31 14 3 14 10 17 19 1 8 6 9 5 1 2 2 3 4 6 1 1 1 0 1 1 1 0 1 1 1 1 0 0 0 0 1 1 2 0 0 2 2 1 1 1 1 2 1 1 0 2 2 3 3 4 4 4 5 3 3 4 5 1 2 4 6 8 6 
9 11 12 13 15 0 16 24 14 15 12 10 6 5 0 16 13 25 45 40 22 16 18 17 13 12 0 24 3 2 2 2 2 2 4 3 1 0 2 3 3 3 2 1 14 15 14 12 14 15 14 11 11 4 3 3 8 18 16 8 12 29 46 47 43 3 56 73 47 34 47 60 44 72 64 33 44 48 60 5 55 49 28 14 9 16 27 20 11 1 1 10 8 6 5 1 1 2 1 3 2 1 2 3 1 0 0 1 1 1 1 1 0 0 0 1 0 0 2 3 1 0 1 0 0 0 0 0 1 2 1 0 3 3 2 2 3 3 3 5 4 3 3 2 0 3 4 4 6 5 
12 10 11 14 19 9 0 11 23 18 15 13 8 8 0 16 13 22 30 26 23 19 20 20 7 1 0 23 5 3 2 2 2 3 2 1 1 1 1 2 3 1 0 7 11 12 11 13 12 13 13 13 15 7 0 0 0 0 0 0 0 0 0 0 0 0 6 14 24 28 33 30 42 64 58 33 41 41 50 17 52 35 31 41 35 33 19 3 1 0 5 7 6 9 10 5 1 2 1 1 0 3 3 3 2 0 0 0 3 4 3 2 1 0 0 1 2 0 3 4 2 0 0 1 1 1 0 0 2 2 2 0 3 3 2 3 3 2 4 5 3 3 3 0 2 4 4 5 6 6 
11 6 9 15 18 4 9 8 3 10 10 15 12 11 0 12 11 15 16 14 13 8 4 2 8 27 0 23 9 2 2 0 0 0 1 0 1 1 1 1 0 2 6 6 8 7 8 9 8 7 6 4 3 0 5 18 5 2 10 13 16 2 0 10 22 2 35 27 8 4 0 8 18 34 39 35 31 25 53 32 36 55 41 26 23 17 3 2 0 0 14 9 1 7 9 4 1 1 0 0 3 4 5 4 1 0 0 2 0 1 1 1 1 1 1 1 0 0 2 2 0 0 0 1 0 1 1 0 2 2 2 0 2 2 2 3 2 1 3 4 2 2 2 0 3 1 3 3 5 5 
20 14 9 14 6 5 11 11 10 1 5 15 17 17 0 15 12 16 11 4 1 6 13 12 12 38 11 34 27 5 1 0 2 5 2 2 2 2 1 0 1 8 9 7 7 4 3 2 0 0 2 3 5 4 1 0 3 14 9 0 2 7 1 6 28 13 10 24 10 28 36 34 14 5 2 0 6 16 32 33 35 23 14 17 9 8 0 0 5 12 20 5 2 7 6 4 2 2 0 3 6 6 5 5 2 0 1 4 4 2 0 1 0 1 2 1 0 0 2 1 1 0 0 0 1 1 2 2 1 4 4 0 3 3 3 3 2 1 2 2 2 3 0 4 4 4 3 5 6 7 
26 20 8 4 8 20 18 14 14 11 3 5 16 18 0 10 5 0 6 10 10 13 13 6 7 23 13 13 31 10 1 2 13 18 8 3 2 1 0 2 4 4 4 0 0 1 2 4 4 4 5 5 6 3 0 0 3 2 0 1 1 2 13 16 22 22 2 19 22 24 44 40 19 15 21 10 9 7 5 0 12 28 19 5 1 3 1 16 29 8 0 2 4 10 6 3 3 0 4 5 6 5 4 3 2 0 3 3 2 3 1 0 0 1 2 2 0 1 2 1 2 0 0 0 1 1 1 1 1 3 2 0 3 1 1 1 1 0 0 0 0 0 0 4 4 5 3 3 4 5 
24 20 2 3 20 21 23 17 20 15 12 13 2 13 0 2 8 18 19 12 6 10 8 3 3 7 6 5 14 7 4 11 20 10 5 3 0 0 0 0 1 5 8 8 10 9 6 4 3 1 3 3 5 3 6 13 12 13 14 8 2 1 20 36 26 21 6 13 28 16 29 26 16 12 16 7 10 13 16 21 19 26 4 4 16 8 22 22 4 7 8 0 6 9 4 2 0 2 8 5 5 4 3 3 2 0 3 2 1 2 3 3 1 0 0 2 0 1 0 0 1 1 0 0 0 1 1 2 2 1 0 0 0 0 1 0 1 1 0 2 2 4 3 2 18 8 5 3 5 6 
12 4 1 13 19 17 16 19 27 22 13 20 18 3 0 2 10 12 11 11 8 6 3 1 2 4 8 0 0 0 3 7 7 12 10 20 33 24 0 0 22 27 13 8 10 9 5 4 3 1 1 3 5 3 10 18 11 9 10 14 14 1 18 38 28 27 21 3 41 38 34 17 15 12 11 6 7 12 13 5 0 12 29 36 36 30 18 1 1 21 9 3 1 2 1 0 0 4 4 5 5 4 3 2 1 1 2 1 2 2 2 3 2 3 2 0 0 1 0 0 0 1 0 0 0 1 3 2 2 1 0 1 2 3 4 3 4 4 4 3 3 5 16 0 13 24 13 5 5 7 
2 1 13 21 19 13 28 33 31 26 16 17 14 12 6 2 0 2 6 7 5 5 3 3 2 5 7 0 1 1 4 8 4 4 14 35 46 36 12 0 20 24 11 6 7 8 6 4 4 4 3 3 4 1 6 8 6 7 5 6 13 0 34 49 37 21 24 6 27 39 22 21 13 9 7 5 7 8 3 0 59 65 68 79 53 18 1 1 6 20 1 1 6 7 0 0 0 1 2 2 2 1 2 1 0 2 3 2 2 1 2 2 2 2 2 3 0 3 3 4 5 1 0 0 1 0 1 1 0 0 0 3 2 3 3 4 3 3 4 4 4 3 10 13 0 24 20 7 6 7 
0 5 14 18 9 11 43 45 20 20 20 17 14 14 12 10 8 1 0 0 1 3 3 2 8 10 10 0 1 1 0 1 1 4 18 33 32 24 19 2 7 14 8 5 3 4 5 5 4 4 5 2 2 0 7 8 10 14 22 21 13 7 35 40 38 26 13 13 7 25 21 22 14 8 6 5 4 2 0 75 116 81 78 52 7 4 4 0 18 7 0 2 33 3 0 1 3 3 3 2 3 2 3 2 0 2 3 1 2 2 2 3 2 3 3 5 3 3 21 17 11 2 0 2 2 0 1 1 1 0 2 3 2 3 2 2 3 4 4 5 4 5 7 12 7 4 25 9 7 6 
0 4 9 9 4 8 33 26 11 14 15 14 12 13 11 7 10 3 6 15 15 6 1 0 4 12 15 0 6 7 4 3 5 13 23 26 23 16 10 5 0 0 0 1 0 0 1 2 2 1 9 19 11 0 3 8 9 21 26 22 19 8 20 27 31 27 14 12 2 20 20 18 13 8 5 3 0 22 0 123 115 76 49 27 5 4 5 22 37 22 2 36 34 0 0 2 4 3 3 1 1 2 1 1 0 1 2 2 2 2 2 2 2 2 1 1 3 0 26 30 12 1 1 2 2 0 0 1 0 1 2 2 1 2 3 2 2 3 3 4 3 3 7 19 27 3 6 13 11 7 
8 1 10 9 5 7 11 10 10 11 11 13 13 10 10 10 11 4 19 27 47 48 28 9 8 6 2 0 14 18 16 9 12 21 24 20 17 10 3 1 0 3 4 3 2 3 4 2 1 0 1 0 0 0 18 5 21 18 10 5 2 7 20 18 19 23 17 11 8 4 13 10 9 8 0 3 0 42 4 52 102 74 55 50 45 28 7 50 38 33 36 60 17 0 2 0 4 2 1 0 1 1 1 0 0 1 1 2 2 2 2 3 4 2 1 0 0 2 14 34 14 0 3 3 2 1 0 1 0 2 2 2 4 4 3 3 4 5 4 4 4 4 7 16 20 19 0 13 20 9 
12 7 3 5 5 5 11 13 11 11 10 12 15 9 10 12 2 17 14 22 35 45 34 15 8 7 14 0 18 22 19 13 14 14 6 1 0 2 4 6 0 3 2 3 3 5 10 10 5 2 5 9 9 0 28 35 17 6 5 6 2 6 13 14 11 14 19 13 10 0 10 12 5 1 8 7 4 41 10 45 115 96 85 76 52 18 13 41 20 42 42 26 1 0 0 1 0 0 0 0 0 1 0 0 0 1 1 1 1 1 1 1 3 1 1 0 3 8 0 8 8 0 2 2 1 1 0 0 1 2 2 3 5 5 2 1 3 2 5 4 5 4 7 8 5 11 11 0 0 5 
10 15 1 5 6 5 12 16 10 8 11 19 19 10 10 5 13 12 9 14 18 31 24 12 7 5 13 0 14 13 5 1 0 0 2 4 7 7 6 4 0 3 1 1 2 3 6 7 6 3 5 13 15 0 19 15 26 11 3 8 2 15 9 12 15 14 16 15 11 4 4 6 7 15 19 0 14 31 9 16 66 61 73 33 18 7 19 18 29 28 22 12 0 12 11 0 0 1 1 0 0 2 1 0 2 1 2 1 1 1 2 2 4 2 2 0 6 10 8 34 17 0 0 1 1 1 0 1 2 5 5 6 5 5 3 2 4 4 9 7 6 6 6 6 5 8 7 23 21 11 
11 10 4 0 4 4 7 9 6 6 11 18 14 7 3 6 17 7 7 18 27 33 22 10 4 9 30 0 0 0 0 2 9 14 8 8 8 6 6 4 0 2 1 1 0 1 1 3 4 4 4 8 11 1 14 1 7 21 8 4 0 10 19 14 10 14 14 13 10 4 0 19 41 26 11 0 25 18 5 3 54 66 73 48 20 3 17 46 27 17 15 4 24 25 4 1 0 0 0 0 0 0 0 0 2 2 1 0 1 1 1 2 2 2 1 1 4 3 7 25 42 14 3 4 2 1 0 1 3 4 6 6 5 4 2 1 3 3 7 7 5 4 4 4 4 1 15 21 12 8 
10 7 6 1 1 5 5 4 4 8 12 11 6 5 0 8 13 8 6 25 42 35 26 17 10 16 40 0 3 8 11 11 18 16 9 8 8 7 9 8 0 1 2 1 1 1 1 3 4 4 3 5 7 1 4 5 3 5 18 8 4 22 24 18 16 15 14 13 8 0 17 32 43 24 5 9 23 13 14 0 54 60 69 45 19 44 48 44 20 14 17 40 19 0 0 0 0 1 3 2 1 0 0 0 1 3 3 3 1 1 2 2 3 2 1 1 1 0 19 22 55 39 7 5 7 14 23 5 0 2 8 8 5 4 2 2 3 2 5 7 6 4 3 2 0 20 39 25 8 6 
5 3 3 4 0 4 3 3 7 9 10 9 6 0 5 8 9 7 5 18 24 21 47 48 25 17 29 0 17 14 10 8 10 10 7 7 8 8 11 12 0 6 3 3 2 2 1 2 5 3 3 5 5 1 5 4 3 5 16 17 8 18 5 3 6 14 15 12 5 4 26 26 25 18 0 23 17 19 20 2 28 73 69 44 13 91 53 37 18 7 43 11 11 8 0 0 0 2 2 1 0 0 0 0 1 2 7 16 13 5 2 2 4 2 0 0 2 8 27 21 44 44 23 10 3 10 23 32 25 6 0 2 4 1 0 2 3 2 3 6 6 6 4 0 9 35 52 41 20 11 
6 4 3 4 2 0 3 5 8 10 10 11 3 8 9 9 8 8 5 7 5 20 62 64 31 19 17 0 13 9 7 6 6 6 6 5 6 8 9 11 0 16 9 7 4 2 1 3 4 3 3 6 5 2 5 5 14 15 11 3 13 23 16 7 4 10 17 8 0 35 22 17 14 9 0 31 25 27 23 6 22 81 64 29 61 73 73 40 12 34 20 23 38 4 0 1 2 0 0 0 0 0 0 0 0 1 13 43 38 10 2 2 3 2 1 1 1 18 29 14 17 21 26 27 14 8 21 44 58 62 41 4 0 0 1 2 2 3 3 4 6 3 0 9 24 30 42 44 27 16 
7 2 3 2 1 6 2 6 9 9 10 9 5 12 7 6 8 8 5 3 3 14 42 40 21 14 12 0 13 9 7 6 5 5 5 4 4 6 5 5 0 14 10 8 3 2 0 1 2 1 2 4 3 2 3 17 11 2 4 1 2 13 9 13 13 12 15 3 16 38 26 13 9 1 9 37 33 17 24 12 24 77 58 5 96 99 52 36 47 45 24 27 8 0 1 0 1 0 0 0 0 0 0 4 0 13 17 46 40 7 2 2 0 1 1 1 0 16 23 9 3 2 10 26 31 30 43 59 55 56 61 29 9 2 0 0 0 0 0 0 0 0 6 16 21 19 20 28 22 13 
5 3 2 0 2 11 13 3 4 7 10 2 15 10 7 5 6 6 6 4 6 9 12 13 11 8 9 0 12 10 7 5 4 4 4 3 3 4 3 4 0 0 0 1 0 0 0 0 0 0 0 1 2 1 2 6 2 3 4 1 1 5 5 4 9 13 9 6 46 34 22 11 6 0 24 59 32 24 29 18 0 0 0 0 0 16 22 24 34 7 12 14 0 2 3 3 1 0 2 0 0 0 3 13 2 24 15 28 30 5 1 3 1 0 2 1 0 6 17 11 2 3 1 8 33 51 60 58 37 28 36 24 15 5 10 5 4 4 5 9 8 2 4 10 11 9 7 15 23 10 
4 4 0 1 6 7 13 8 2 8 3 23 19 8 8 7 7 5 5 6 7 10 25 29 12 10 13 0 7 7 6 5 3 4 4 3 3 4 5 4 0 7 8 5 4 2 1 0 0 1 1 1 0 0 1 5 4 4 4 0 1 1 4 5 8 11 0 37 49 29 21 13 3 2 25 59 38 36 29 9 57 82 106 72 72 65 28 16 3 8 0 0 0 3 3 3 3 2 1 0 4 13 17 16 7 23 24 23 30 15 4 5 5 2 1 0 2 5 9 7 5 3 2 2 26 54 61 65 47 26 20 17 6 9 10 4 3 4 9 12 9 10 7 2 9 10 5 10 27 21 
4 1 1 5 4 4 10 12 16 8 0 13 14 6 9 9 6 5 5 7 7 8 34 42 16 18 17 0 0 0 1 1 1 1 2 2 1 2 5 5 0 11 10 9 7 2 2 3 4 4 5 5 4 3 1 3 2 5 10 0 0 0 0 0 0 0 0 46 39 26 19 14 0 11 14 40 49 30 19 27 73 109 115 132 114 55 31 22 26 29 0 2 0 1 1 3 2 0 0 4 6 6 18 11 9 15 37 19 18 17 11 4 4 2 1 0 2 3 3 3 4 3 2 3 14 27 32 52 61 47 21 5 4 9 6 6 5 5 8 10 9 8 11 8 0 8 6 7 30 37 
1 0 5 4 3 6 18 21 23 23 7 0 3 5 10 16 8 5 4 7 9 5 16 21 8 13 15 0 11 9 5 4 3 4 2 1 1 2 0 0 0 8 11 8 5 3 2 2 3 5 5 3 3 1 0 0 0 0 1 3 6 11 17 23 43 61 17 0 24 21 18 10 0 16 27 36 40 18 26 70 79 103 116 92 44 39 22 23 18 0 0 6 2 0 2 4 4 1 1 5 12 13 4 2 16 0 0 0 0 0 0 0 0 0 0 0 2 3 3 3 3 2 1 2 4 5 5 18 44 56 22 8 22 13 9 8 6 7 6 9 13 11 10 13 13 1 2 5 28 31 
0 6 5 5 3 12 25 24 18 9 4 7 1 0 9 19 9 2 4 8 6 4 3 3 3 4 6 0 8 7 4 4 4 4 5 3 3 8 12 7 1 0 3 3 2 2 1 1 2 4 3 2 2 0 1 2 1 1 3 4 0 4 13 16 25 40 34 8 0 14 14 4 7 32 39 29 25 17 73 57 74 104 83 44 44 44 26 21 10 19 8 2 0 3 6 3 4 1 1 4 6 4 6 11 3 16 40 10 1 5 15 28 29 9 2 0 1 5 9 3 5 9 4 2 2 3 2 5 29 36 13 52 33 16 11 10 7 8 11 12 15 13 11 13 12 12 2 1 15 18 
6 5 7 5 9 20 26 20 10 3 6 9 11 3 1 17 9 4 6 9 5 4 7 6 5 5 6 0 5 3 4 4 3 3 4 4 4 5 3 0 3 1 0 1 1 1 1 1 1 2 2 2 0 0 2 1 1 1 1 4 2 7 12 22 28 34 31 22 6 0 12 0 20 42 40 32 11 58 57 61 81 81 61 56 65 56 25 14 5 1 0 3 3 0 0 0 1 1 0 2 1 2 8 11 3 20 30 11 9 20 22 30 37 15 1 1 0 12 23 8 16 27 29 17 10 10 5 14 27 5 46 63 39 17 15 14 12 19 25 27 28 19 14 14 13 21 29 7 0 1 
6 4 5 4 7 14 15 10 5 4 3 6 10 7 5 2 5 6 8 10 8 5 5 4 7 9 7 0 2 3 3 1 2 2 2 3 2 0 1 4 4 3 0 0 2 2 1 1 2 2 2 1 0 1 2 1 0 0 0 3 7 12 18 25 26 27 27 17 12 3 0 0 27 26 31 11 87 54 44 62 62 74 38 31 25 8 0 0 0 0 0 7 2 3 2 3 2 1 1 1 0 1 1 0 0 6 6 5 11 27 29 20 22 15 6 2 0 7 26 10 9 19 29 28 17 14 9 14 3 20 28 46 43 31 25 16 16 28 36 36 35 22 15 14 17 25 27 10 17 22 
6 4 6 5 8 8 8 6 3 5 3 7 9 6 5 2 0 0 1 4 3 2 2 1 5 9 6 0 3 3 4 3 1 2 2 0 0 1 3 3 3 3 1 0 0 2 2 2 2 2 1 0 0 2 2 0 1 4 6 6 6 5 6 13 21 12 9 4 4 0 0 0 5 24 11 65 79 55 42 53 56 47 34 13 3 5 1 1 2 1 0 8 1 13 4 3 4 2 3 4 3 5 10 7 0 0 0 3 3 10 13 9 5 11 12 11 5 0 20 7 3 5 19 26 16 9 9 1 13 8 22 34 37 44 34 18 15 26 33 32 28 22 20 24 31 30 18 12 43 34 
3 5 4 3 6 7 4 4 4 4 3 3 6 5 4 0 3 8 11 8 5 3 0 0 3 1 0 0 3 4 3 2 1 1 0 2 2 1 1 2 2 2 1 2 0 0 0 0 0 0 0 0 2 2 3 6 6 4 2 0 4 4 3 1 0 0 16 10 19 18 7 15 24 9 0 62 51 46 42 71 28 10 7 12 31 23 0 0 0 1 0 2 30 24 2 2 3 3 2 6 6 7 8 5 0 0 1 1 0 0 0 1 1 1 7 11 11 7 6 5 3 5 10 14 10 5 2 9 4 5 17 25 31 46 36 20 16 19 19 21 19 20 24 34 40 27 9 42 49 48 
0 5 8 7 6 7 6 6 7 5 4 5 6 6 7 0 8 10 11 6 3 3 2 5 10 7 6 0 3 4 2 2 0 0 2 2 1 0 1 2 2 2 1 1 2 5 5 3 3 2 2 0 2 5 5 3 1 0 0 0 11 15 40 40 50 45 46 39 26 7 20 25 31 34 14 0 32 33 17 0 30 47 33 5 39 17 12 16 13 2 2 14 20 0 1 2 2 2 2 4 6 8 5 2 0 0 2 3 1 0 1 3 7 13 14 15 22 10 0 0 0 0 0 0 0 0 0 7 14 17 14 13 22 41 41 27 24 25 19 15 17 23 33 35 38 6 35 34 40 49 
5 0 4 7 6 5 4 3 4 5 4 5 6 5 3 5 12 7 8 4 2 2 2 4 7 5 4 0 2 1 0 0 1 1 1 0 0 0 0 1 1 0 0 6 9 7 4 1 1 2 1 3 0 0 3 5 19 15 31 25 9 11 42 41 27 44 39 24 7 20 29 24 24 26 30 10 0 11 44 58 66 79 50 36 47 37 37 23 8 2 4 22 0 1 0 1 0 0 2 2 4 5 2 0 0 0 1 0 0 0 0 8 29 45 43 31 33 2 9 20 24 16 7 4 5 5 2 0 8 28 9 2 14 32 44 35 28 26 19 17 19 21 33 34 9 47 35 27 34 44 
