P2
# testes/result-normalizar1.pgm
10 10
255
0 28 56 85 113 141 170 198 226 255 
28 56 85 113 141 170 198 226 255 0 
56 85 113 141 170 198 226 255 0 28 
85 113 141 170 198 226 255 0 28 56 
113 141 170 198 226 255 0 28 56 85 
141 170 198 226 255 0 28 56 85 113 
170 198 226 255 0 28 56 85 113 141 
198 226 255 0 28 56 85 113 141 170 
226 255 0 28 56 85 113 141 170 198 
255 0 28 56 85 113 141 170 198 226 
