P2
# testes/result-script2_3.pgm
150 100
255
0 0 0 0 0 0 0 0 0 0 0 0 0 0 0 0 0 0 0 0 0 0 0 0 0 0 0 0 0 0 0 0 0 0 0 0 0 0 0 0 0 0 0 0 0 0 0 0 0 0 0 0 0 0 0 0 0 0 0 0 0 0 0 0 0 0 0 0 0 0 0 0 0 0 0 0 0 0 0 0 0 0 0 0 0 0 0 0 0 0 0 0 0 0 0 0 0 0 0 0 0 0 0 0 0 0 0 0 0 0 0 0 0 0 0 0 0 0 0 0 0 0 0 0 0 0 0 0 0 0 0 0 0 0 0 0 0 0 0 0 0 0 0 0 0 0 0 0 0 0 
0 0 0 0 0 0 0 0 0 0 0 0 0 0 0 0 0 0 0 0 0 0 0 0 0 0 0 0 0 0 0 0 0 0 0 0 0 0 0 0 0 0 0 0 0 0 0 0 0 0 0 0 0 0 0 0 0 0 0 0 0 0 0 0 0 0 0 0 0 0 0 0 0 0 0 0 0 0 0 0 0 0 0 0 0 0 0 0 0 0 0 0 0 0 0 0 0 0 0 0 0 0 0 0 0 0 0 0 0 0 0 0 0 0 0 0 0 0 0 0 0 0 0 0 0 0 0 0 0 0 0 0 0 0 0 0 0 0 0 0 0 0 0 0 0 0 0 0 0 0 
0 0 0 0 0 0 0 0 0 0 0 0 0 0 0 0 0 0 0 0 0 0 0 0 0 0 0 0 0 0 0 0 0 0 0 0 0 0 0 0 0 0 0 0 0 0 0 0 0 0 0 0 0 0 0 0 0 0 0 0 0 0 0 0 0 0 0 0 0 0 0 0 0 0 0 0 0 0 0 0 0 0 0 0 0 0 0 0 0 0 0 0 0 0 0 0 0 0 0 0 0 0 0 0 0 0 0 0 0 0 0 0 0 0 0 0 0 0 0 0 0 0 0 0 0 0 0 0 0 0 0 0 0 0 0 0 0 0 0 0 0 0 0 0 0 0 0 0 0 0 
0 0 0 0 0 0 0 0 0 0 0 0 0 0 0 0 0 0 0 0 0 0 0 0 0 0 0 0 0 0 0 0 0 0 0 0 0 0 0 0 0 0 0 0 0 0 0 0 0 0 0 0 0 0 0 0 0 0 0 0 0 0 0 0 0 0 0 0 0 0 0 0 0 0 0 0 0 0 0 0 0 0 0 0 0 0 0 0 0 0 0 0 0 0 0 0 0 0 0 0 0 0 0 0 0 0 0 0 0 0 0 0 0 0 0 0 0 0 0 0 0 0 0 0 0 0 0 0 0 0 0 0 0 0 0 0 0 0 0 0 0 0 0 0 0 0 0 0 0 0 
0 0 0 0 0 0 0 0 0 0 0 0 0 0 0 0 0 0 0 0 0 0 0 0 0 0 0 0 0 0 0 0 0 0 0 0 0 0 0 0 0 0 0 0 0 0 0 0 0 0 0 0 0 0 0 0 0 0 0 0 0 0 0 0 0 0 0 0 0 0 0 0 0 0 0 0 0 0 0 0 0 0 0 0 0 0 0 0 0 0 0 0 0 0 0 0 0 0 0 0 0 0 0 0 0 0 0 0 0 0 0 0 0 0 0 0 0 0 0 0 0 0 0 0 0 0 0 0 0 0 0 0 0 0 0 0 0 0 0 0 0 0 0 0 0 0 0 0 0 0 
0 0 0 0 0 0 0 0 0 0 0 0 0 0 0 0 0 0 0 0 0 0 0 0 0 0 0 0 0 0 0 0 0 0 0 0 0 0 0 0 0 0 0 0 0 0 0 0 0 0 0 0 0 0 0 0 0 0 0 0 0 0 0 0 0 0 0 0 0 0 0 0 0 0 0 0 0 0 0 0 0 0 0 0 0 0 0 0 0 0 0 0 0 0 0 0 0 0 0 0 0 0 0 0 0 0 0 0 0 0 0 0 0 0 0 0 0 0 0 0 0 0 0 0 0 0 0 0 0 0 0 0 0 0 0 0 0 0 0 0 0 0 0 0 0 0 0 0 0 0 
0 0 0 0 0 0 212 220 199 216 166 117 114 139 137 141 117 137 182 177 137 136 133 24 122 113 99 92 104 122 171 178 104 106 95 86 165 165 134 139 142 106 86 139 156 119 0 0 0 0 0 0 0 0 0 0 0 0 0 0 0 0 0 0 0 0 0 0 0 0 0 0 0 0 0 0 0 0 0 0 0 0 0 0 0 0 0 0 0 0 0 0 0 0 0 0 0 0 0 0 0 0 0 0 0 0 0 0 0 0 0 0 0 0 0 0 0 0 0 0 0 0 0 0 0 0 0 0 0 0 0 0 0 0 0 0 0 0 0 0 0 0 0 0 0 0 0 0 0 0 
0 0 0 0 0 0 236 204 180 195 195 128 130 168 179 155 124 127 145 164 138 112 110 21 125 167 52 110 103 127 141 160 93 101 84 94 145 164 112 135 119 116 83 127 165 130 0 0 0 0 0 0 0 0 0 0 0 0 0 0 0 0 0 0 0 0 0 0 0 0 0 0 0 0 0 0 0 0 0 0 0 0 0 0 0 0 0 0 0 0 0 0 0 0 0 0 0 0 0 0 0 0 0 0 0 0 0 0 0 0 0 0 0 0 0 0 0 0 0 0 0 0 0 0 0 0 0 0 0 0 0 0 0 0 0 0 0 0 0 0 0 0 0 0 0 0 0 0 0 0 
0 0 0 0 0 0 194 174 141 173 183 163 104 142 157 147 131 130 114 109 133 133 95 30 110 127 110 87 118 93 146 164 101 114 136 116 101 146 95 111 151 132 101 113 114 113 0 0 0 0 0 0 0 0 0 0 0 0 0 0 0 0 0 0 0 0 0 0 0 0 0 0 0 0 0 0 0 0 0 0 0 0 0 0 0 0 0 0 0 0 0 0 0 0 0 0 0 0 0 0 0 0 0 0 0 27 32 34 28 24 25 26 26 27 27 27 27 32 35 34 36 32 17 18 18 19 19 19 19 19 19 19 19 19 20 6 0 0 0 0 0 0 0 0 0 0 0 0 0 0 
0 0 0 0 0 0 112 172 147 135 148 140 115 120 127 82 93 87 122 117 149 127 71 32 121 118 170 91 120 151 93 118 118 89 139 150 109 81 110 108 107 106 59 96 87 107 0 0 0 0 0 0 0 0 0 0 0 0 0 0 0 0 0 0 0 0 0 0 0 0 0 0 0 0 0 0 0 0 0 0 0 0 0 0 0 0 0 0 0 0 0 0 0 0 0 0 0 0 0 0 0 0 0 0 0 34 31 36 27 22 22 21 21 20 19 19 19 13 27 36 36 32 17 18 18 19 19 19 19 19 20 20 20 19 20 6 0 0 0 0 0 0 0 0 0 0 0 0 0 0 
0 0 0 0 0 0 122 193 196 173 136 140 109 92 94 89 80 85 102 88 107 103 42 29 136 129 161 185 79 143 117 125 97 101 161 190 146 141 145 112 160 72 110 143 125 83 0 0 0 0 0 0 0 0 0 0 0 0 0 0 0 0 0 0 0 0 0 0 0 0 0 0 0 0 0 0 0 0 0 0 0 0 0 0 0 0 0 0 0 0 0 0 0 0 0 0 0 0 0 0 0 0 0 0 0 50 56 60 44 36 38 37 37 37 37 37 37 29 17 35 36 32 18 18 18 18 18 19 19 19 19 19 19 19 20 6 0 0 0 0 0 0 0 0 0 0 0 0 0 0 
0 0 0 0 0 0 118 134 194 136 158 178 125 80 86 106 103 89 94 121 118 147 48 47 151 172 124 174 95 99 131 102 79 134 173 168 145 128 134 136 107 85 108 143 98 139 0 0 0 0 0 0 0 0 0 0 0 0 0 0 0 0 0 0 0 0 0 0 0 0 0 0 0 0 0 0 0 0 0 0 0 0 0 0 0 0 0 0 0 0 0 0 0 0 0 0 0 0 0 0 0 0 0 0 0 55 57 56 42 34 35 35 35 35 35 35 35 32 14 32 36 32 18 18 18 18 19 19 19 19 19 19 19 19 20 6 0 0 0 0 0 0 0 0 0 0 0 0 0 0 
0 0 0 0 0 0 138 141 172 178 163 165 176 84 81 98 115 94 96 169 147 111 55 64 153 148 99 120 123 69 113 94 117 111 130 116 124 113 134 162 125 68 151 107 111 162 0 0 0 0 0 0 0 0 0 0 0 0 0 0 0 0 0 0 0 0 0 0 0 0 0 0 0 0 0 0 0 0 0 0 0 0 0 0 0 0 0 0 0 0 0 0 0 0 0 0 0 0 0 0 0 0 0 0 0 56 56 56 42 35 36 36 36 36 36 36 36 29 6 29 37 32 18 19 19 19 19 19 19 19 19 19 19 20 20 6 0 0 0 0 0 0 0 0 0 0 0 0 0 0 
0 0 0 0 0 0 152 78 96 104 96 117 101 85 93 133 172 130 132 120 153 132 34 78 145 158 137 111 141 67 99 128 106 120 116 135 162 136 185 184 134 98 155 143 147 105 0 0 0 0 0 0 0 0 0 0 0 0 0 0 0 0 0 0 0 0 0 0 0 0 0 0 0 0 0 0 0 0 0 0 0 0 0 0 0 0 0 0 0 0 0 0 0 0 0 0 0 0 0 0 0 0 0 0 0 52 56 56 42 35 36 36 36 36 36 36 36 30 7 29 37 33 18 19 19 19 19 19 19 19 19 20 20 20 21 6 0 0 0 0 0 0 0 0 0 0 0 0 0 0 
0 0 0 0 0 0 170 119 155 146 156 114 85 65 80 92 148 132 137 158 154 123 33 84 105 147 149 101 141 105 77 125 109 143 128 106 135 120 145 158 123 107 114 141 174 146 0 0 0 0 0 0 0 0 0 0 0 0 0 0 0 0 0 0 0 0 0 0 0 0 0 0 0 0 0 0 0 0 0 0 0 0 0 0 0 0 0 0 0 0 0 0 0 0 0 0 0 0 0 0 0 0 0 0 0 52 54 52 41 35 36 36 37 37 36 36 36 31 7 28 37 33 18 19 19 19 19 19 19 20 20 20 20 20 21 6 0 0 0 0 0 0 0 0 0 0 0 0 0 0 
0 0 0 0 0 0 150 122 179 189 169 120 107 148 120 102 135 160 167 141 162 138 41 87 83 109 92 73 140 139 65 116 116 156 143 141 85 111 155 173 128 83 123 160 155 152 0 0 0 0 0 0 0 0 0 0 0 0 0 0 0 0 0 0 0 0 0 0 0 0 0 0 0 0 0 0 0 0 0 0 0 0 0 0 0 0 0 0 0 0 0 0 0 0 0 0 0 0 0 0 0 0 0 0 0 46 47 51 43 35 37 37 37 37 37 36 36 32 7 27 37 33 18 19 19 19 19 19 20 20 20 20 20 21 22 3 0 0 0 0 0 0 0 0 0 0 0 0 0 0 
0 0 0 0 0 0 162 140 158 203 151 141 123 190 148 139 137 131 114 106 103 102 39 106 137 122 156 87 92 97 66 84 120 164 164 110 135 102 163 153 82 75 107 143 181 176 0 0 0 0 0 0 0 0 0 0 0 0 0 0 0 0 0 0 0 0 0 0 0 0 0 0 0 0 0 0 0 0 0 0 0 0 0 0 0 0 0 0 0 0 0 0 0 0 0 0 0 0 0 0 0 0 0 0 0 31 41 56 43 35 37 37 37 37 37 36 36 32 7 27 38 33 18 19 19 19 19 20 20 20 20 20 21 21 14 3 0 0 0 0 0 0 0 0 0 0 0 0 0 0 
0 0 0 0 0 0 204 131 160 219 187 187 161 174 120 129 172 214 181 105 137 145 51 90 162 158 158 132 124 135 78 57 96 147 145 124 153 102 157 146 69 93 112 128 155 172 0 0 0 0 0 0 0 0 0 0 0 0 0 0 0 0 0 0 0 0 0 0 0 0 0 0 0 0 0 0 0 0 0 0 0 0 0 0 0 0 0 0 0 0 0 0 0 0 0 0 0 0 0 0 0 0 0 0 0 40 44 56 43 36 37 37 37 37 37 37 36 32 8 27 39 33 18 19 19 19 20 20 20 20 21 22 22 13 14 4 0 0 0 0 0 0 0 0 0 0 0 0 0 0 
0 0 0 0 0 0 158 151 115 203 208 190 156 160 145 144 219 172 195 177 134 120 26 92 198 201 147 112 92 101 132 96 51 151 111 112 141 134 135 129 88 140 151 167 179 180 0 0 0 0 0 0 0 0 0 0 0 0 0 0 0 0 0 0 0 0 0 0 0 0 0 0 0 0 0 0 0 0 0 0 0 0 0 0 0 0 0 0 0 0 0 0 0 0 0 0 0 0 0 0 0 0 0 0 0 45 55 53 41 35 38 37 37 37 37 37 36 33 8 27 39 34 18 19 19 20 20 20 21 18 15 17 13 13 16 1 0 0 0 0 0 0 0 0 0 0 0 0 0 0 
0 0 0 0 0 0 114 97 54 80 141 171 171 164 145 128 215 197 186 192 178 75 13 122 199 188 197 132 111 117 113 136 59 55 120 124 155 130 137 91 71 158 175 145 135 139 0 0 0 0 0 0 0 0 0 0 0 0 0 0 0 0 0 0 0 0 0 0 0 0 0 0 0 0 0 0 0 0 0 0 0 0 0 0 0 0 0 0 0 0 0 0 0 0 0 0 0 0 0 0 0 0 0 0 0 43 47 49 38 35 37 38 38 38 38 37 37 34 8 27 40 34 19 20 20 20 20 20 20 11 5 9 14 16 4 1 0 0 0 0 0 0 0 0 0 0 0 0 0 0 
0 0 0 0 0 0 180 157 125 107 85 121 97 172 145 131 208 207 178 171 208 92 16 146 182 162 194 182 120 108 104 108 141 36 93 170 150 103 134 137 48 116 137 132 135 122 0 0 0 0 0 0 0 0 0 0 0 0 0 0 0 0 0 0 0 0 0 0 0 0 0 0 0 0 0 0 0 0 0 0 0 0 0 0 0 0 0 0 0 0 0 0 0 0 0 0 0 0 0 0 0 0 0 0 0 45 41 48 40 33 38 38 38 38 38 37 37 35 8 27 40 35 19 20 20 20 20 20 9 4 8 17 16 5 3 2 0 0 0 0 0 0 0 0 0 0 0 0 0 0 
0 0 0 0 0 0 206 170 176 137 83 82 100 167 105 135 188 163 156 178 199 70 36 150 193 207 166 168 183 177 115 99 75 56 46 145 139 97 145 138 85 67 114 147 134 104 0 0 0 0 0 0 0 0 0 94 24 49 92 57 61 92 106 96 85 51 39 69 92 99 47 62 66 83 71 67 64 63 68 68 76 79 51 64 78 84 82 79 78 77 77 76 75 78 68 40 0 0 0 0 0 0 0 0 0 59 54 49 40 36 38 38 39 38 38 37 37 36 9 27 40 35 19 20 20 20 20 21 9 0 8 19 5 2 8 2 0 0 0 0 0 0 0 0 0 0 0 0 0 0 
0 0 0 0 0 0 158 173 190 139 150 196 123 79 142 159 160 143 144 142 150 34 52 180 204 178 166 168 168 192 173 171 97 70 49 85 123 109 144 147 115 55 98 103 102 97 0 0 0 0 0 0 0 0 0 53 9 32 53 76 77 93 110 94 53 40 59 84 89 103 78 49 51 62 74 82 51 55 49 83 76 68 60 40 78 82 81 80 78 77 77 78 76 73 57 42 0 0 0 0 0 0 0 0 0 49 56 56 44 37 38 39 39 39 39 38 38 36 8 27 41 35 19 20 20 20 21 15 3 4 9 7 2 7 7 2 0 0 0 0 0 0 0 0 0 0 0 0 0 0 
0 0 0 0 0 0 176 184 158 173 162 194 195 109 114 220 186 181 191 127 121 19 90 175 184 182 186 163 134 163 173 174 158 121 46 67 103 134 142 130 131 65 83 101 92 107 0 0 0 0 0 0 0 0 0 5 28 64 78 60 86 103 74 53 65 66 106 100 76 87 83 43 55 47 48 74 67 49 73 73 83 67 71 62 72 81 79 80 78 78 78 76 73 65 64 46 0 0 0 0 0 0 0 0 0 37 44 47 43 37 39 39 39 39 38 38 38 36 9 27 42 36 20 21 21 21 21 6 3 6 2 3 9 10 6 2 0 0 0 0 0 0 0 0 0 0 0 0 0 0 
0 0 0 0 0 0 177 149 137 174 205 181 188 173 71 150 192 166 198 179 111 46 146 151 158 169 160 147 109 104 146 159 141 146 93 43 67 93 132 155 152 80 120 113 102 85 0 0 0 0 0 0 0 0 0 18 75 103 99 57 85 78 47 65 56 65 97 90 89 94 78 71 55 46 53 62 61 48 59 70 79 82 78 64 75 81 80 79 79 78 77 75 71 69 66 45 0 0 0 0 0 0 0 0 0 32 38 53 43 37 39 39 39 39 39 39 39 37 9 28 43 36 20 21 21 21 23 9 4 2 5 7 10 8 6 1 0 0 0 0 0 0 0 0 0 0 0 0 0 0 
0 0 0 0 0 0 121 124 197 214 212 211 202 171 136 79 141 116 134 190 90 28 146 155 135 117 126 113 105 101 135 152 124 128 93 44 83 74 54 115 146 98 102 113 134 73 0 0 0 0 0 0 0 0 0 73 91 97 88 69 71 40 56 74 82 77 83 73 62 93 84 71 36 44 60 71 65 57 56 77 77 72 79 76 80 81 80 79 79 78 77 75 72 72 67 47 0 0 0 0 0 0 0 0 0 40 49 59 44 38 40 40 40 40 40 40 40 38 9 28 43 37 20 21 22 18 15 12 3 3 8 7 8 5 6 1 0 0 0 0 0 0 0 0 0 0 0 0 0 0 
0 0 0 0 0 0 117 132 142 142 174 219 219 179 135 117 74 169 109 147 74 7 120 173 155 100 106 145 155 134 112 116 117 123 87 88 62 141 87 40 154 81 86 117 109 60 0 0 0 0 0 0 0 0 0 101 65 55 71 99 62 35 108 99 89 124 112 80 55 69 58 65 36 33 57 77 92 72 82 86 97 64 76 78 81 81 80 80 79 80 78 74 75 78 71 44 0 0 0 0 0 0 0 0 0 52 56 60 47 40 42 42 40 40 40 40 40 39 10 28 44 37 20 22 19 11 10 5 3 7 9 9 5 5 6 1 0 0 0 0 0 0 0 0 0 0 0 0 0 0 
0 0 0 0 0 0 152 205 221 199 148 151 147 166 169 153 94 117 167 130 49 24 123 139 166 137 138 149 139 144 134 152 146 151 75 59 70 60 135 78 100 54 144 123 74 45 0 0 0 0 0 0 0 0 0 61 49 70 91 66 54 73 99 72 56 73 83 81 67 53 54 46 29 24 44 73 74 76 88 78 91 70 66 81 82 81 82 81 81 81 80 80 79 76 65 45 0 0 0 0 0 0 0 0 0 58 63 64 50 41 42 42 40 40 40 40 41 41 11 28 44 37 21 20 12 17 5 3 6 6 9 5 6 7 7 1 0 0 0 0 0 0 0 0 0 0 0 0 0 0 
0 0 0 0 0 0 76 199 186 227 221 163 96 109 153 150 129 87 163 132 29 46 150 118 139 169 154 135 162 173 169 155 124 129 95 92 80 73 80 132 39 110 129 67 41 106 0 0 0 0 0 0 0 0 0 85 116 93 87 53 53 94 56 73 64 64 67 51 53 61 57 51 43 34 40 60 57 55 64 83 87 83 74 86 86 84 83 82 81 80 79 78 70 70 68 44 0 0 0 0 0 0 0 0 0 64 66 66 50 42 43 42 41 41 41 41 41 40 10 27 42 38 19 12 15 8 1 7 6 9 8 5 7 7 5 1 0 0 0 0 0 0 0 0 0 0 0 0 0 0 
0 0 0 0 0 0 109 85 137 123 139 154 107 61 70 77 78 81 133 101 20 60 139 127 118 134 122 131 177 154 171 151 127 129 90 110 89 144 81 60 79 121 60 65 107 143 0 0 0 0 0 0 0 0 0 93 101 100 92 24 30 69 92 126 90 104 86 71 61 51 66 61 49 20 53 60 55 48 40 58 95 97 75 74 82 84 84 82 81 80 78 77 78 75 64 41 0 0 0 0 0 0 0 0 0 65 65 65 52 43 43 42 41 42 42 41 40 42 11 28 46 36 13 16 9 2 6 6 5 9 5 7 8 6 5 1 0 0 0 0 0 0 0 0 0 0 0 0 0 0 
0 0 0 0 0 0 195 83 189 155 115 157 161 162 117 128 77 44 141 146 9 72 182 165 149 125 185 157 114 163 169 145 140 132 66 93 60 125 139 51 57 72 42 104 107 92 0 0 0 0 0 0 0 0 0 101 84 115 58 39 74 106 90 111 110 76 81 107 84 72 51 62 49 19 38 44 61 64 49 48 76 84 66 61 83 90 87 84 81 78 79 83 79 67 64 43 0 0 0 0 0 0 0 0 0 66 67 69 51 42 43 43 43 42 40 39 40 34 12 23 26 6 13 10 1 7 6 6 5 5 6 9 8 6 4 0 0 0 0 0 0 0 0 0 0 0 0 0 0 0 
0 0 0 0 0 0 160 85 178 190 165 99 182 167 161 110 133 112 68 89 5 66 179 154 175 179 177 179 131 127 134 157 128 131 62 96 64 101 99 132 69 92 68 107 110 46 0 0 0 0 0 0 0 0 0 100 85 58 35 118 119 96 112 104 78 72 91 77 77 64 61 77 70 35 46 46 41 54 70 69 87 86 70 73 71 87 84 81 80 79 81 80 77 78 64 41 0 0 0 0 0 0 0 0 0 69 70 68 51 42 43 43 42 41 39 42 20 4 13 4 7 6 6 4 7 7 6 5 4 5 7 7 6 4 3 1 0 0 0 0 0 0 0 0 0 0 0 0 0 0 
0 0 0 0 0 0 48 60 99 128 151 100 107 202 191 125 102 149 121 31 17 65 110 114 128 142 163 167 131 87 106 102 93 74 134 157 89 106 126 122 76 103 105 98 82 8 0 0 0 0 0 0 0 0 0 127 69 17 67 116 123 92 86 66 65 107 127 105 73 49 79 91 62 56 62 67 73 69 81 93 106 92 84 84 68 62 81 83 81 82 82 82 83 81 79 55 0 0 0 0 0 0 0 0 0 69 68 69 52 42 43 43 41 40 43 31 19 11 11 6 10 5 4 9 7 5 6 4 4 6 9 5 4 4 3 1 0 0 0 0 0 0 0 0 0 0 0 0 0 0 
0 0 0 0 0 0 77 64 134 138 160 136 100 153 191 152 116 91 127 44 17 64 88 120 91 84 94 129 91 122 139 101 88 75 144 143 72 105 162 140 74 75 97 101 24 15 0 0 0 0 0 0 0 0 0 78 33 92 95 103 125 72 63 114 114 96 115 100 65 49 80 86 78 48 60 69 85 79 73 88 93 92 84 82 85 71 75 85 88 87 88 89 86 87 82 62 0 0 0 0 0 0 0 0 0 70 69 70 52 43 46 45 43 45 33 26 17 10 10 5 6 9 6 7 8 6 5 4 5 6 7 6 4 4 3 1 0 0 0 0 0 0 0 0 0 0 0 0 0 0 
0 0 0 0 0 0 149 108 118 180 157 172 187 175 108 106 95 118 85 15 30 73 44 112 140 101 90 68 87 129 137 133 69 115 151 169 102 154 168 145 78 59 95 59 3 31 0 0 0 0 0 0 0 0 0 13 77 77 50 55 69 71 101 104 93 87 99 97 61 62 67 61 70 42 34 40 41 75 98 84 99 98 87 93 88 87 85 82 83 89 91 90 89 92 84 62 0 0 0 0 0 0 0 0 0 70 69 69 51 43 45 44 45 37 27 19 5 11 10 1 11 20 5 8 8 6 6 5 6 6 16 7 3 3 3 1 0 0 0 0 0 0 0 0 0 0 0 0 0 0 
0 0 0 0 0 0 193 209 94 137 208 181 164 129 130 131 102 125 50 1 61 118 24 53 108 141 140 136 79 74 96 86 51 135 155 145 87 157 180 176 76 39 104 29 8 50 0 0 0 0 0 0 0 0 0 41 44 25 18 33 55 38 33 36 67 95 112 128 85 46 69 54 48 51 35 44 33 57 86 83 97 100 96 95 93 93 94 87 84 88 88 88 90 93 84 67 0 0 0 0 0 0 0 0 0 69 67 68 51 42 43 44 41 26 25 7 5 11 9 4 19 19 6 9 7 7 5 8 4 17 21 5 3 4 3 0 0 0 0 0 0 0 0 0 0 0 0 0 0 0 
0 0 0 0 0 0 100 122 124 46 120 150 121 130 139 109 121 97 21 12 93 89 27 69 117 114 125 128 125 119 108 108 70 79 104 99 89 164 169 153 72 55 85 5 18 93 0 0 0 0 0 0 0 0 0 100 99 103 90 108 88 96 87 65 56 45 47 59 78 54 50 59 45 49 35 49 43 40 56 78 109 103 94 96 95 93 90 87 88 88 91 93 94 93 87 70 0 0 0 0 0 0 0 0 0 65 65 66 50 41 43 43 28 23 13 13 6 8 7 9 22 18 8 7 6 5 4 13 10 17 19 6 3 3 3 0 0 0 0 0 0 0 0 0 0 0 0 0 0 0 
0 0 0 0 0 0 133 104 73 39 23 91 173 152 130 149 94 50 10 22 117 105 88 46 45 49 101 134 126 97 130 180 158 51 87 109 64 173 160 165 70 89 48 1 44 111 0 0 0 0 0 0 0 0 0 101 103 128 120 126 137 110 108 103 108 107 102 109 47 30 57 81 66 52 59 47 41 50 47 38 94 96 93 93 95 96 92 93 93 95 96 95 93 94 90 71 0 0 0 0 0 0 0 0 0 62 62 65 48 40 43 29 24 10 15 16 4 8 9 8 22 15 7 7 5 5 3 14 11 19 20 5 3 3 3 0 0 0 0 0 0 0 0 0 0 0 0 0 0 0 
0 0 0 0 0 0 165 193 189 158 97 52 112 150 128 151 46 3 8 47 136 99 86 88 117 62 7 51 114 118 122 155 179 89 75 134 78 126 132 148 77 68 20 12 76 89 0 0 0 0 0 0 0 0 0 118 104 90 124 128 115 119 113 108 122 132 102 111 94 54 72 89 83 55 57 47 49 62 57 68 71 83 72 93 100 100 99 98 97 96 95 93 93 93 87 70 0 0 0 0 0 0 0 0 0 60 61 63 46 42 32 24 12 11 16 12 5 11 8 9 17 12 6 6 5 4 4 15 12 17 12 4 3 4 3 0 0 0 0 0 0 0 0 0 0 0 0 0 0 0 
0 0 0 0 0 0 73 77 124 176 211 165 85 49 104 143 87 33 5 54 142 119 76 64 128 120 87 42 31 92 136 151 156 126 64 110 122 140 96 109 75 33 10 34 103 39 0 0 0 0 0 0 0 0 0 87 91 84 105 113 119 117 100 107 131 138 132 67 79 81 63 64 56 54 58 46 58 81 64 91 106 84 85 101 101 101 99 97 94 93 93 90 90 90 83 64 0 0 0 0 0 0 0 0 0 61 61 62 51 34 25 15 13 18 16 14 9 2 8 6 15 7 4 5 4 5 4 15 12 7 16 6 3 2 6 4 0 0 0 0 0 0 0 0 0 0 0 0 0 0 
0 0 0 0 0 0 165 117 88 78 120 186 192 86 21 52 92 52 9 22 116 130 73 73 114 127 175 114 65 32 74 130 120 164 78 87 116 148 133 134 75 5 17 45 47 42 0 0 0 0 0 0 0 0 0 68 85 72 85 85 85 115 118 126 127 134 142 115 70 93 67 51 69 56 72 53 51 64 76 80 120 108 101 102 101 99 96 95 92 90 89 87 86 86 79 64 0 0 0 0 0 0 0 0 0 65 63 68 44 25 16 11 16 28 13 18 8 4 8 5 12 9 7 5 5 5 4 15 8 10 20 4 2 11 16 2 0 0 0 0 0 0 0 0 0 0 0 0 0 0 
0 0 0 0 0 0 137 152 181 110 103 78 108 181 138 34 17 77 50 0 67 131 63 64 135 107 154 110 50 55 27 40 93 103 66 80 93 140 159 135 91 5 27 35 86 101 0 0 0 0 0 0 0 0 0 75 95 101 81 89 94 88 100 115 98 112 123 132 81 65 88 61 51 57 63 65 54 56 70 71 114 108 96 96 94 92 89 90 89 87 88 87 85 85 80 64 0 0 0 0 0 0 0 0 0 65 68 63 32 18 9 14 14 27 17 30 8 6 8 5 13 19 10 4 5 4 3 15 12 11 20 7 13 12 8 1 0 0 0 0 0 0 0 0 0 0 0 0 0 0 
0 0 0 0 0 0 82 163 138 174 209 197 123 72 107 142 51 46 79 17 19 89 79 89 136 92 73 51 73 86 124 75 34 93 58 35 114 179 144 126 71 7 22 26 116 118 0 0 0 0 0 0 0 0 0 47 42 69 67 69 78 87 89 67 102 117 143 135 111 70 92 79 49 43 41 50 70 87 71 97 117 104 87 78 91 89 87 87 86 87 87 85 84 85 81 65 0 0 0 0 0 0 0 0 0 55 42 44 21 10 12 15 13 28 32 31 3 9 6 13 16 35 11 3 5 4 3 15 12 11 23 14 5 4 14 2 0 0 0 0 0 0 0 0 0 0 0 0 0 0 
0 0 0 0 0 0 0 0 0 0 0 0 0 0 0 0 0 0 0 0 0 0 0 0 0 0 0 0 0 0 0 0 0 0 0 0 0 0 0 0 0 0 0 0 0 0 0 0 0 0 0 0 0 0 0 49 44 72 87 56 56 44 67 92 117 131 123 141 124 99 101 87 68 32 40 53 54 56 74 103 106 91 85 86 87 86 87 87 87 87 85 84 86 89 84 67 0 0 0 0 0 0 0 0 0 15 22 39 9 15 23 12 16 33 32 11 4 13 5 17 25 36 11 3 5 4 4 15 14 15 12 3 1 8 16 3 0 0 0 0 0 0 0 0 0 0 0 0 0 0 
0 0 0 0 0 0 0 0 0 0 0 0 0 0 0 0 0 0 0 0 0 0 0 0 0 0 0 0 0 0 0 0 0 0 0 0 0 0 0 0 0 0 0 0 0 0 0 0 0 0 0 0 0 0 0 81 94 97 118 132 94 92 53 81 90 128 157 119 108 92 102 88 74 26 32 69 59 46 53 87 106 83 81 90 89 88 87 86 85 85 86 87 87 86 80 66 0 0 0 0 0 0 0 0 0 23 40 20 13 16 25 14 36 29 10 9 6 12 4 16 27 35 9 4 5 5 3 16 17 6 3 4 2 5 18 3 0 0 0 0 0 0 0 0 0 0 0 0 0 0 
0 0 0 0 0 0 0 0 0 0 0 0 0 0 0 0 0 0 0 0 0 0 0 0 0 0 0 0 0 0 0 0 0 0 0 0 0 0 0 0 0 0 0 0 0 0 0 0 0 0 0 0 0 0 0 58 88 107 93 126 111 107 124 74 81 76 89 87 107 101 113 87 65 54 39 60 39 61 64 54 95 92 82 90 88 87 85 83 84 85 86 84 86 85 81 65 0 0 0 0 0 0 0 0 0 40 20 23 15 14 29 33 29 4 8 11 6 12 4 17 27 19 7 4 4 4 12 12 2 7 9 3 2 5 11 1 0 0 0 0 0 0 0 0 0 0 0 0 0 0 
0 0 0 0 0 0 0 0 0 0 0 0 0 0 0 0 0 0 0 0 0 0 0 0 0 0 0 0 0 0 0 0 0 0 0 0 0 0 0 0 0 0 0 0 0 0 0 0 0 0 0 0 0 0 0 71 72 106 119 124 131 90 104 120 59 53 82 94 77 81 91 100 71 62 43 33 18 54 86 77 73 76 76 79 87 87 87 87 88 88 89 89 90 92 85 67 0 0 0 0 0 0 0 0 0 25 16 38 16 13 35 29 8 8 8 10 7 19 3 17 21 22 12 3 8 14 8 2 3 9 15 5 3 4 4 1 0 0 0 0 0 0 0 0 1 0 0 0 0 0 
0 0 0 0 0 0 0 0 0 0 0 0 0 0 0 0 0 0 0 0 0 0 0 0 0 0 0 0 0 0 0 0 0 0 0 0 0 0 0 0 0 0 0 0 0 0 0 0 0 0 0 0 0 0 0 96 92 108 125 110 119 101 98 123 98 75 65 64 70 75 104 89 75 54 48 33 27 62 76 85 87 86 83 87 87 84 84 84 84 84 86 87 90 98 93 67 0 0 0 0 0 0 0 0 0 17 18 35 20 26 23 6 10 11 9 8 6 17 3 14 23 20 7 6 8 2 1 2 1 7 11 4 2 2 2 0 0 0 0 0 0 0 0 0 0 0 0 0 0 0 
0 0 0 0 0 0 0 0 0 0 0 0 0 0 0 0 0 0 0 0 0 0 0 0 0 0 0 0 0 0 0 0 0 0 0 0 0 0 0 0 0 0 0 0 0 0 0 0 0 0 0 0 0 0 0 78 80 92 110 107 91 79 102 74 94 54 80 64 53 67 66 73 70 75 74 64 74 87 76 86 104 113 125 120 123 125 128 129 128 130 125 127 132 131 128 140 0 0 0 0 0 0 0 0 0 70 32 71 111 82 22 33 42 65 48 29 22 60 15 54 81 89 130 62 9 20 23 14 20 57 47 20 26 26 32 52 58 78 127 107 36 39 16 95 127 64 75 0 0 0 
0 0 0 0 0 0 0 0 0 0 0 0 0 0 0 0 0 0 0 0 0 0 0 0 0 0 0 0 0 0 0 0 0 0 0 0 0 0 0 0 0 0 0 0 0 0 0 0 0 0 0 0 0 0 0 60 55 84 82 88 86 60 79 75 91 62 59 69 34 42 57 62 54 84 88 80 85 98 101 114 125 135 153 148 148 151 156 156 150 146 146 144 149 152 151 178 0 0 0 0 0 0 0 0 0 87 52 119 93 30 39 36 48 135 74 29 27 56 18 69 151 94 88 59 21 33 30 20 30 41 36 16 32 40 83 126 90 126 185 90 37 44 25 130 169 65 73 0 0 0 
0 0 0 0 0 0 0 0 0 0 0 0 0 0 0 0 0 0 0 0 0 0 0 0 0 0 0 0 0 0 0 0 0 0 0 0 0 0 0 0 0 0 0 0 0 0 0 0 0 0 0 0 0 0 0 50 53 71 66 79 84 64 58 66 100 69 69 68 66 59 63 77 65 79 95 84 100 101 120 136 131 145 152 145 139 145 151 145 139 146 150 155 146 144 163 183 0 0 0 0 0 0 0 0 0 103 116 78 28 37 42 34 43 137 75 27 25 45 15 58 79 44 113 85 25 36 23 19 27 31 31 33 23 37 108 141 84 147 138 39 48 48 26 133 172 73 75 0 0 0 
0 0 0 0 0 0 0 0 0 0 0 0 0 0 0 0 0 0 0 0 0 0 0 0 0 0 0 0 0 0 0 0 0 0 0 0 0 0 0 0 0 0 0 0 0 0 0 0 0 0 0 0 0 0 0 55 38 38 73 78 64 71 38 45 93 78 77 78 87 87 77 85 96 90 117 116 121 115 128 133 129 146 156 155 156 156 156 154 154 154 154 154 67 70 157 174 0 0 0 0 0 0 0 0 0 131 72 24 34 52 83 34 45 133 52 28 23 85 35 7 40 108 135 69 25 38 23 23 21 36 95 95 15 46 133 120 64 119 96 34 55 45 30 136 176 73 99 0 0 0 
0 0 0 0 0 0 0 0 0 0 0 0 0 0 0 0 0 0 0 0 0 0 0 0 0 0 0 0 0 0 0 0 0 0 0 0 0 0 0 0 0 0 0 0 0 0 0 0 0 0 0 0 0 0 0 70 57 42 69 76 70 78 45 52 89 91 67 74 58 71 55 52 74 73 84 94 96 121 122 116 118 132 141 142 142 144 136 138 140 136 140 124 55 72 140 153 0 0 0 0 0 0 0 0 0 80 32 32 29 62 128 32 46 134 42 29 48 61 15 18 31 131 125 37 34 38 16 22 47 87 156 127 19 51 114 92 57 87 60 39 49 54 36 134 177 78 116 0 0 0 
0 0 0 0 0 0 0 0 0 0 0 0 0 0 0 0 0 0 0 0 0 0 0 0 0 0 0 0 0 0 0 0 0 0 0 0 0 0 0 0 0 0 0 0 0 0 0 0 0 0 0 0 0 0 0 48 67 60 58 73 78 75 52 57 81 83 86 72 54 34 31 47 43 50 63 63 69 116 113 108 114 128 129 131 133 132 124 129 128 126 126 124 70 79 132 148 0 0 0 0 0 0 0 0 0 38 41 57 35 60 124 29 46 139 48 30 20 30 23 9 29 81 63 31 31 32 11 62 93 138 218 130 20 39 57 33 53 69 45 48 59 46 22 134 177 97 96 0 0 0 
0 0 0 0 0 0 0 0 0 0 0 0 0 0 0 0 0 0 0 0 0 0 0 0 0 0 0 0 0 0 0 0 0 0 0 0 0 0 0 0 0 0 0 0 0 0 0 0 0 0 0 0 0 0 0 40 29 32 28 31 40 32 31 26 31 37 40 42 39 26 24 35 28 35 39 39 42 43 44 46 46 56 65 60 52 50 50 56 56 54 55 49 35 45 51 64 0 0 0 0 0 0 0 0 0 36 31 97 48 61 114 19 55 134 53 32 18 40 29 10 29 29 27 27 31 37 13 71 132 87 155 118 19 29 29 28 56 68 51 35 53 51 26 135 151 59 50 0 0 0 
0 0 0 0 0 0 0 0 0 0 0 0 0 3 8 4 3 11 8 17 14 9 19 14 13 17 8 3 1 3 2 5 23 9 1 8 27 41 41 27 36 22 9 5 19 47 27 28 34 33 0 0 0 0 0 56 35 26 26 29 40 42 34 34 35 37 41 47 39 27 23 40 26 23 22 22 28 40 32 54 59 62 67 60 65 64 65 58 70 65 72 56 53 63 57 97 0 0 0 0 0 0 0 0 0 62 33 98 46 62 121 21 52 50 50 64 17 41 29 14 26 39 48 30 35 40 11 73 142 101 164 104 15 32 35 34 54 58 43 57 81 69 34 128 165 87 60 0 0 0 
0 0 0 0 0 0 0 0 0 0 0 0 0 5 14 4 5 13 10 21 9 10 15 23 24 27 11 1 3 3 1 25 43 37 21 10 2 22 36 27 34 29 20 9 15 48 41 37 38 44 0 0 0 0 0 45 42 34 28 23 26 34 40 33 29 29 41 48 38 27 28 48 51 64 69 56 79 89 71 64 68 67 50 60 76 74 75 62 72 65 74 62 65 72 65 100 0 0 0 0 0 0 0 0 0 100 31 95 37 68 122 38 46 39 50 59 18 36 25 14 43 60 84 41 31 36 9 76 146 108 158 94 18 38 46 43 57 62 71 100 83 62 28 124 173 93 51 0 0 0 
0 0 0 0 0 0 0 0 0 0 0 0 0 3 16 8 10 13 7 10 10 18 18 22 23 15 6 2 3 3 4 13 24 30 30 36 15 0 13 28 39 19 22 12 25 48 44 49 38 35 0 0 0 0 0 40 33 26 20 22 21 18 32 26 33 20 38 46 43 38 23 64 90 75 65 74 78 93 114 76 63 67 57 60 73 77 73 60 69 67 65 56 62 70 66 66 0 0 0 0 0 0 0 0 0 98 26 100 50 44 32 54 55 23 31 34 18 37 23 39 98 89 139 49 32 42 12 83 140 99 157 94 26 47 48 44 65 51 84 113 82 67 34 119 132 70 38 0 0 0 
0 0 0 0 0 0 0 0 0 0 0 0 0 3 11 9 7 8 7 10 11 6 6 7 5 6 4 2 4 2 18 11 2 11 25 28 38 18 0 11 19 10 17 8 28 45 43 39 28 44 0 0 0 0 0 46 49 52 39 37 34 22 35 26 44 29 35 43 48 49 24 59 94 68 65 80 62 85 117 78 61 73 77 74 75 74 73 72 71 71 70 69 65 70 66 74 0 0 0 0 0 0 0 0 0 89 26 96 46 18 20 52 45 19 31 42 15 40 17 40 125 124 143 43 26 36 12 84 145 113 178 105 25 46 53 52 65 46 101 117 86 60 20 70 87 64 46 0 0 0 
0 0 0 0 0 0 0 0 0 0 0 0 0 3 6 10 10 10 7 15 10 9 8 6 10 10 1 1 3 4 18 35 18 1 6 17 24 29 21 1 6 15 10 1 26 47 23 17 19 19 0 0 0 0 0 58 49 51 45 40 40 21 32 37 31 38 37 40 44 54 38 38 29 27 32 31 33 35 31 61 65 71 82 81 74 73 72 78 82 79 81 74 61 66 63 67 0 0 0 0 0 0 0 0 0 107 35 31 23 27 23 30 27 25 52 70 21 41 14 38 120 114 119 31 31 39 10 86 151 119 126 77 32 43 49 45 46 44 84 80 58 54 10 73 94 56 39 0 0 0 
0 0 0 0 0 0 0 0 0 0 0 0 0 1 6 9 11 10 7 13 10 11 10 10 11 8 1 2 3 10 23 26 26 22 9 2 8 27 30 3 3 12 13 3 25 41 16 19 20 17 0 0 0 0 0 64 45 23 15 23 27 25 29 39 26 24 14 20 27 50 41 50 55 69 40 41 62 70 59 63 62 77 114 110 74 73 72 103 116 115 118 97 55 61 59 26 0 0 0 0 0 0 0 0 0 70 27 19 25 29 55 48 52 128 123 68 24 41 14 40 114 109 110 25 36 37 12 88 127 48 54 52 25 38 41 39 42 57 76 67 61 59 11 48 69 56 44 0 0 0 
0 0 0 0 0 0 0 0 0 0 0 0 0 2 7 7 7 8 4 7 6 11 12 8 5 4 0 3 4 12 24 22 26 37 26 9 2 18 15 15 1 10 6 4 15 32 36 27 29 27 0 0 0 0 0 42 34 27 11 21 28 34 23 29 23 20 8 15 29 55 49 63 63 69 65 51 86 69 75 71 60 78 116 101 73 74 72 99 112 113 101 74 54 57 52 33 0 0 0 0 0 0 0 0 0 17 34 20 34 83 116 99 127 150 117 46 25 43 11 41 116 97 88 28 35 37 12 84 139 51 70 61 23 29 42 34 45 65 90 82 62 52 16 43 62 64 53 0 0 0 
0 0 0 0 0 0 0 0 0 0 0 0 0 1 5 8 4 4 2 4 5 6 6 6 6 2 1 4 2 13 21 33 27 23 28 31 10 2 13 28 2 10 6 5 15 31 42 42 32 31 0 0 0 0 0 38 19 34 28 22 29 32 31 33 38 44 40 41 36 48 45 91 94 64 61 63 63 66 108 79 59 68 68 66 72 74 71 63 63 62 59 50 53 54 48 49 0 0 0 0 0 0 0 0 0 30 32 16 21 107 136 99 130 109 106 32 24 42 10 40 120 66 61 28 40 44 12 90 145 51 79 63 28 36 51 30 46 89 146 126 70 56 22 30 40 52 64 0 0 0 
0 0 0 0 0 0 0 0 0 0 0 0 0 1 5 4 4 2 4 5 7 12 8 10 3 0 1 4 7 17 16 29 30 23 29 29 30 11 6 12 6 8 7 0 25 36 28 29 20 24 0 0 0 0 0 34 30 39 37 41 44 37 32 33 54 61 57 58 55 60 47 72 96 70 58 58 55 72 88 68 61 71 75 76 73 71 70 74 71 69 67 62 51 51 46 51 0 0 0 0 0 0 0 0 0 23 25 54 65 98 85 82 122 133 102 33 23 41 10 46 113 58 54 33 39 39 19 60 81 56 66 38 24 50 55 27 69 116 200 173 60 35 12 20 51 100 169 0 0 0 
0 0 0 0 0 0 0 0 0 0 0 0 0 3 5 6 5 3 7 3 4 11 14 10 0 1 2 1 13 20 21 23 22 18 15 29 32 10 2 4 7 8 9 6 49 44 16 15 16 16 0 0 0 0 0 41 27 23 24 27 36 47 44 46 40 37 25 30 40 59 62 62 50 42 23 35 34 21 19 60 65 78 111 74 73 72 71 55 46 27 38 42 53 50 46 44 0 0 0 0 0 0 0 0 0 75 63 93 61 111 114 60 110 133 104 33 23 32 45 81 125 60 58 31 36 26 6 52 93 58 53 35 41 53 28 73 71 104 185 141 78 105 112 119 160 224 245 0 0 0 
0 0 0 0 0 0 0 0 0 0 0 0 0 2 7 10 7 3 11 4 4 9 15 3 0 1 1 9 10 13 29 31 20 13 12 28 23 8 4 2 4 4 11 13 42 32 24 30 37 39 0 0 0 0 0 46 20 23 11 17 24 38 46 52 28 20 3 15 29 62 58 71 71 69 25 61 78 38 39 56 50 86 145 94 73 71 68 35 51 35 43 32 54 48 45 35 0 0 0 0 0 0 0 0 0 97 67 99 57 114 125 49 110 135 104 40 19 29 48 79 99 53 45 37 37 25 2 54 88 53 51 36 25 22 47 118 107 170 240 205 183 186 166 140 128 165 202 0 0 0 
0 0 0 0 0 0 0 0 0 0 0 0 0 2 6 9 5 2 7 6 6 10 3 0 1 2 1 12 7 5 11 21 15 16 23 22 11 4 16 12 3 4 8 13 33 32 33 27 32 28 0 0 0 0 0 43 23 26 21 24 27 38 38 44 37 32 19 31 44 71 59 79 94 67 52 57 72 76 93 55 40 69 93 75 61 70 67 42 58 61 57 38 48 48 44 39 0 0 0 0 0 0 0 0 0 82 62 117 63 114 129 54 113 119 90 45 24 30 45 63 63 54 37 48 40 30 11 65 77 48 65 50 54 116 174 191 213 255 248 185 133 134 137 148 156 176 197 0 0 0 
0 0 0 0 0 0 0 0 0 0 0 0 0 1 2 1 2 2 5 6 6 2 0 0 1 1 4 20 20 17 18 27 11 12 21 22 6 20 37 31 7 2 1 4 22 30 58 56 25 32 0 0 0 0 0 45 29 42 46 42 37 37 41 43 54 54 50 55 65 70 58 91 124 72 64 66 58 96 126 72 60 65 62 67 56 60 67 58 56 54 51 49 46 47 43 46 0 0 0 0 0 0 0 0 0 106 60 120 62 114 119 53 114 134 93 34 23 35 35 70 82 55 50 75 26 20 8 51 62 46 72 112 139 193 222 211 168 192 214 184 177 188 194 188 180 176 204 0 0 0 
0 0 0 0 0 0 0 0 0 0 0 0 0 1 2 0 3 5 5 4 3 2 2 2 1 2 12 26 18 17 14 16 10 10 21 14 8 33 29 27 11 2 4 5 37 28 23 26 19 22 0 0 0 0 0 47 32 41 45 47 47 47 47 51 54 55 48 54 66 71 69 61 40 38 40 40 40 43 46 57 56 68 82 73 53 55 64 66 64 60 62 57 45 46 41 48 0 0 0 0 0 0 0 0 0 108 60 116 62 118 122 49 103 112 89 34 26 46 22 67 80 54 64 94 72 101 86 81 91 95 107 135 150 186 205 193 187 181 190 202 192 205 203 190 180 200 128 0 0 0 
0 0 0 0 0 0 0 0 0 0 0 0 0 0 5 5 2 10 9 0 0 2 2 2 3 6 8 18 12 12 13 20 17 12 20 8 9 21 26 23 10 7 7 8 32 39 15 15 25 15 0 0 0 0 0 52 39 56 69 57 64 51 53 47 50 48 23 41 62 65 70 68 43 46 23 19 39 57 52 59 56 74 85 62 56 55 64 67 71 80 73 60 46 45 40 17 0 0 0 0 0 0 0 0 0 100 63 122 65 96 105 52 32 67 94 54 20 45 10 29 50 59 173 173 141 150 147 151 147 143 159 199 179 164 158 156 180 216 210 113 71 89 180 200 183 213 125 0 0 0 
0 0 0 0 0 0 0 0 0 0 0 0 0 1 7 6 3 13 11 0 1 2 1 1 4 10 6 20 12 11 14 16 10 12 14 5 16 21 26 17 7 8 9 10 28 25 32 35 39 28 0 0 0 0 0 55 48 61 80 64 66 52 54 47 49 49 25 42 67 68 66 71 63 88 50 32 83 90 67 62 62 53 34 49 53 54 60 65 75 83 72 57 44 45 41 21 0 0 0 0 0 0 0 0 0 98 52 92 58 16 85 61 36 79 145 135 68 100 27 72 93 101 172 173 158 171 173 170 161 173 201 156 137 177 170 180 215 244 114 49 58 37 105 194 185 205 149 0 0 0 
0 0 0 0 0 0 0 0 0 0 0 0 0 1 1 0 3 7 4 1 2 2 1 2 10 9 5 19 10 10 12 20 12 8 10 8 16 24 26 16 7 6 10 12 38 27 57 55 23 23 0 0 0 0 0 57 43 39 50 46 39 44 58 47 42 45 40 44 55 68 63 89 73 72 59 27 58 66 57 60 54 53 49 56 49 53 59 46 49 47 44 40 44 45 42 42 0 0 0 0 0 0 0 0 0 68 18 42 66 31 80 140 134 164 173 180 87 149 26 93 151 139 160 173 167 148 130 120 164 219 163 46 40 123 205 203 240 185 68 82 65 78 80 148 195 190 146 0 0 0 
0 0 0 0 0 0 0 0 0 0 0 0 0 1 5 2 6 9 1 0 1 0 1 6 11 8 8 15 6 11 12 18 11 9 9 11 20 18 20 12 6 6 8 9 15 35 51 47 35 31 0 0 0 0 0 58 53 50 55 54 49 46 58 49 55 57 57 59 70 66 59 84 102 71 57 55 49 77 102 60 50 61 66 64 50 51 59 58 55 52 51 49 42 43 41 45 0 0 0 0 0 0 0 0 0 62 69 68 119 118 115 153 163 176 161 149 82 125 54 79 121 128 194 197 162 71 32 67 170 202 85 60 54 76 196 210 232 139 90 93 73 102 103 141 197 187 140 0 0 0 
0 0 0 0 0 0 0 0 0 0 0 0 0 2 7 3 8 10 0 0 1 1 6 12 13 12 13 25 9 17 26 18 14 13 6 16 21 19 19 12 8 6 9 7 21 40 21 12 19 12 0 0 0 0 0 54 58 48 29 41 49 49 54 49 37 38 31 38 54 64 63 53 19 23 20 17 25 28 24 49 51 60 71 65 49 49 55 55 55 58 63 51 43 43 38 34 0 0 0 0 0 0 0 0 0 107 126 109 121 152 151 151 153 158 156 146 81 100 70 52 64 127 201 196 162 103 58 102 178 162 78 75 64 64 167 198 206 135 117 112 101 116 115 137 194 187 134 0 0 0 
0 0 0 0 0 0 0 0 0 0 0 0 0 1 5 3 6 5 0 1 1 1 8 13 10 10 6 18 13 11 17 19 14 9 8 24 28 25 22 8 10 5 9 9 19 37 40 33 43 28 0 0 0 0 0 0 0 0 0 0 0 0 0 0 0 0 0 0 0 0 0 0 0 0 0 0 0 0 0 0 0 0 0 0 0 0 0 0 0 0 0 0 0 0 0 0 0 0 0 0 0 0 0 0 0 93 93 105 117 157 147 155 157 129 158 164 86 128 70 66 102 144 177 178 163 115 77 107 179 149 97 94 86 86 150 179 202 140 122 87 119 59 27 76 192 185 135 0 0 0 
0 0 0 0 0 0 0 0 0 0 0 0 0 2 4 4 7 2 0 1 2 1 9 13 11 10 7 27 13 12 13 20 11 6 8 26 30 17 22 5 7 7 3 5 9 35 54 52 51 38 0 0 0 0 0 0 0 0 0 0 0 0 0 0 0 0 0 0 0 0 0 0 0 0 0 0 0 0 0 0 0 0 0 0 0 0 0 0 0 0 0 0 0 0 0 0 0 0 0 0 0 0 0 0 0 110 104 102 141 124 73 157 148 55 134 157 83 134 73 69 92 134 171 172 166 121 71 102 179 152 105 73 111 102 146 179 205 138 114 119 151 24 4 71 189 183 142 0 0 0 
0 0 0 0 0 0 0 0 0 0 0 0 0 2 3 3 5 0 0 1 2 2 4 8 8 7 4 17 11 9 11 17 11 4 11 21 19 11 11 3 11 8 5 8 15 25 43 48 40 35 0 0 0 0 0 0 0 0 0 0 0 0 0 0 0 0 0 0 0 0 0 0 0 0 0 0 0 0 0 0 0 0 0 0 0 0 0 0 0 0 0 0 0 0 0 0 0 0 0 0 0 0 0 0 0 74 88 54 143 130 70 151 145 73 126 141 80 128 65 71 80 134 173 173 168 126 77 118 178 150 95 118 87 0 114 174 198 137 118 134 152 33 13 76 187 181 141 0 0 0 
0 0 0 0 0 0 0 0 0 0 0 0 0 5 5 4 1 0 0 0 1 5 6 8 7 5 9 21 13 10 15 17 6 5 12 16 10 4 2 6 11 12 6 6 9 12 21 15 22 29 0 0 0 0 0 0 0 0 0 0 0 0 0 0 0 0 0 0 0 0 0 0 0 0 0 0 0 0 0 0 0 0 0 0 0 0 0 0 0 0 0 0 0 0 0 0 0 0 0 0 0 0 0 0 0 88 107 76 147 137 84 151 145 80 128 139 86 139 22 74 95 135 170 173 175 126 88 112 177 147 102 128 92 2 116 167 192 137 124 138 149 29 11 77 186 181 126 0 0 0 
0 0 0 0 0 0 0 0 0 0 0 0 0 4 5 3 4 0 0 1 1 7 8 9 10 8 10 26 15 11 20 18 2 5 11 8 2 4 6 8 13 15 13 6 4 15 10 14 25 12 0 0 0 0 0 0 0 0 0 0 0 0 0 0 0 0 0 0 0 0 0 0 0 0 0 0 0 0 0 0 0 0 0 0 0 0 0 0 0 0 0 0 0 0 0 0 0 0 0 0 0 0 0 0 0 98 109 74 145 137 86 149 142 81 126 134 87 145 17 72 64 118 170 171 172 123 77 105 176 146 52 110 95 1 116 164 188 138 52 114 150 22 5 76 182 179 123 0 0 0 
0 0 0 0 0 0 0 0 0 0 0 0 0 2 2 4 4 0 0 2 1 9 5 5 7 5 4 13 13 9 12 7 3 7 12 7 4 4 3 6 6 9 12 11 3 13 18 27 41 25 0 0 0 0 0 0 0 0 0 0 0 0 0 0 0 0 0 0 0 0 0 0 0 0 0 0 0 0 0 0 0 0 0 0 0 0 0 0 0 0 0 0 0 0 0 0 0 0 0 0 0 0 0 0 0 97 113 77 146 128 74 149 140 66 110 133 84 139 29 97 65 121 171 169 164 135 100 127 176 145 38 107 94 0 116 164 189 141 22 112 160 28 3 78 182 178 125 0 0 0 
0 0 0 0 0 0 0 0 0 0 0 0 0 1 1 1 0 0 1 1 0 4 1 0 2 2 2 4 2 4 4 2 2 2 6 3 2 2 3 4 3 3 9 17 3 2 4 5 6 9 0 0 0 0 0 0 0 0 0 0 0 0 0 0 0 0 0 0 0 0 0 0 0 0 0 0 0 0 0 0 0 0 0 0 0 0 0 0 0 0 0 0 0 0 0 0 0 0 0 0 0 0 0 0 0 69 95 77 141 137 74 108 137 75 112 136 93 141 38 89 78 104 140 136 134 116 89 85 153 143 80 126 90 0 109 155 165 124 104 116 120 27 3 66 176 171 125 0 0 0 
0 0 0 0 0 0 0 0 0 0 0 0 0 1 1 1 0 0 1 0 1 3 1 1 2 1 2 5 3 3 4 2 4 3 5 3 2 2 2 3 2 3 6 9 3 0 7 5 4 7 0 0 0 0 0 0 0 0 0 0 0 0 0 0 0 0 0 0 0 0 0 0 0 0 0 0 0 0 0 0 0 0 0 0 0 0 0 0 0 0 0 0 0 0 0 0 0 0 0 0 0 0 0 0 0 29 30 31 58 66 39 76 89 53 78 100 65 84 29 67 52 78 102 74 71 70 52 53 96 111 62 98 72 6 77 119 118 96 102 86 80 29 19 59 146 148 130 0 0 0 
0 0 0 0 0 0 0 0 0 0 0 0 0 1 4 1 0 0 1 0 1 3 1 2 2 1 1 2 3 1 3 2 4 5 6 2 2 3 2 3 2 2 4 0 0 2 5 2 4 5 0 0 0 0 0 0 0 0 0 0 0 0 0 0 0 0 0 0 0 0 0 0 0 0 0 0 0 0 0 0 0 0 0 0 0 0 0 0 0 0 0 0 0 0 0 0 0 0 0 0 0 0 0 0 0 8 10 10 28 31 26 93 98 89 92 80 59 81 17 71 88 99 73 25 32 38 45 47 51 50 43 72 48 9 51 81 114 77 76 106 83 24 25 57 124 120 107 0 0 0 
0 0 0 0 0 0 0 0 0 0 0 0 0 1 3 0 0 0 1 0 1 3 2 2 3 1 1 4 3 1 1 3 3 1 2 2 3 3 1 3 1 1 1 1 0 3 3 2 1 3 0 0 0 0 0 0 0 0 0 0 0 0 0 0 0 0 0 0 0 0 0 0 0 0 0 0 0 0 0 0 0 0 0 0 0 0 0 0 0 0 0 0 0 0 0 0 0 0 0 0 0 0 0 0 0 11 9 16 38 41 28 87 132 74 34 28 18 29 0 70 108 99 74 44 41 30 56 81 80 67 48 59 42 11 49 66 88 57 64 78 50 19 14 50 108 86 62 0 0 0 
0 0 0 0 0 0 0 0 0 0 0 0 0 1 1 0 0 0 1 0 0 0 0 2 4 2 3 6 2 0 1 3 3 6 5 3 4 2 3 5 3 2 0 0 1 3 7 6 6 10 0 0 0 0 0 0 0 0 0 0 0 0 0 0 0 0 0 0 0 0 0 0 0 0 0 0 0 0 0 0 0 0 0 0 0 0 0 0 0 0 0 0 0 0 0 0 0 0 0 0 0 0 0 0 0 17 23 17 37 36 23 71 91 38 8 12 8 36 23 62 99 99 66 39 47 17 35 71 74 62 46 60 42 4 50 72 93 53 64 68 42 17 19 45 78 28 27 0 0 0 
0 0 0 0 0 0 0 0 0 0 0 0 0 2 1 0 0 0 0 0 2 2 0 3 4 3 3 7 2 0 2 4 6 5 1 2 2 3 3 5 3 6 4 1 7 9 5 5 5 5 0 0 0 0 0 0 0 0 0 0 0 0 0 0 0 0 0 0 0 0 0 0 0 0 0 0 0 0 0 0 0 0 0 0 0 0 0 0 0 0 0 0 0 0 0 0 0 0 0 0 0 0 0 0 0 24 27 7 26 36 19 70 71 20 12 19 23 29 17 36 96 93 56 39 60 35 43 62 65 47 45 57 45 4 50 70 99 55 70 68 41 16 14 50 52 0 14 0 0 0 
0 0 0 0 0 0 0 0 0 0 0 0 0 2 1 0 0 0 2 1 3 6 1 4 6 5 2 7 3 0 2 2 3 2 4 4 4 7 7 5 8 10 4 0 4 2 0 3 5 9 0 0 0 0 0 0 0 0 0 0 0 0 0 0 0 0 0 0 0 0 0 0 0 0 0 0 0 0 0 0 0 0 0 0 0 0 0 0 0 0 0 0 0 0 0 0 0 0 0 0 0 0 0 0 0 100 89 72 63 45 29 70 49 29 52 40 29 23 0 16 74 88 62 49 68 60 56 43 48 38 31 42 42 28 64 64 96 52 74 67 34 16 14 52 82 49 22 0 0 0 
0 0 0 0 0 0 0 0 0 0 0 0 0 1 0 0 1 0 1 1 0 4 1 2 3 1 1 2 2 2 6 8 8 9 8 6 5 3 1 0 2 4 5 15 7 10 14 19 21 24 0 0 0 0 0 0 0 0 0 0 0 0 0 0 0 0 0 0 0 0 0 0 0 0 0 0 0 0 0 0 0 0 0 0 0 0 0 0 0 0 0 0 0 0 0 0 0 0 0 0 0 0 0 0 0 51 70 88 113 136 129 97 49 38 58 40 21 20 0 13 46 46 30 25 29 27 30 22 22 16 15 19 20 33 39 58 85 41 67 59 22 11 18 86 119 104 62 0 0 0 
0 0 0 0 0 0 0 0 0 0 0 0 0 0 1 1 0 0 1 0 0 3 1 2 2 4 3 6 7 7 6 6 3 2 2 0 1 0 1 3 6 10 16 23 19 21 23 21 22 18 0 0 0 0 0 0 0 0 0 0 0 0 0 0 0 0 0 0 0 0 0 0 0 0 0 0 0 0 0 0 0 0 0 0 0 0 0 0 0 0 0 0 0 0 0 0 0 0 0 0 0 0 0 0 0 58 52 45 54 81 77 34 20 19 11 11 28 21 0 12 40 40 21 19 28 37 51 33 34 25 25 26 42 34 16 55 69 38 52 42 29 38 53 100 104 88 74 0 0 0 
0 0 0 0 0 0 0 0 0 0 0 0 0 0 0 1 1 1 2 2 3 6 3 3 5 4 2 5 5 4 2 1 1 2 2 4 6 10 13 15 19 23 20 21 20 16 12 9 9 9 0 0 0 0 0 0 0 0 0 0 0 0 0 0 0 0 0 0 0 0 0 0 0 0 0 0 0 0 0 0 0 0 0 0 0 0 0 0 0 0 0 0 0 0 0 0 0 0 0 0 0 0 0 0 0 62 58 57 63 64 61 60 50 46 48 33 32 24 0 19 91 111 113 72 56 47 44 35 69 65 59 52 80 77 56 52 81 88 89 81 74 78 84 86 33 8 76 0 0 0 
0 0 0 0 0 0 0 0 0 0 0 0 0 1 4 4 4 2 2 3 3 4 2 1 3 1 1 2 3 2 3 5 8 11 13 14 14 15 15 14 14 16 13 10 11 9 9 11 12 11 0 0 0 0 0 0 0 0 0 0 0 0 0 0 0 0 0 0 0 0 0 0 0 0 0 0 0 0 0 0 0 0 0 0 0 0 0 0 0 0 0 0 0 0 0 0 0 0 0 0 0 0 0 0 0 57 64 68 80 95 110 117 130 109 83 79 64 33 0 11 32 74 139 153 151 136 120 94 95 72 49 42 64 72 61 59 69 80 72 68 65 69 71 73 69 45 72 0 0 0 
0 0 0 0 0 0 0 0 0 0 0 0 0 1 3 1 1 0 0 1 1 0 2 0 0 2 2 5 8 11 13 15 15 16 16 15 15 14 12 9 8 10 12 11 12 12 11 10 12 12 0 0 0 0 0 0 0 0 0 0 0 0 0 0 0 0 0 0 0 0 0 0 0 0 0 0 0 0 0 0 0 0 0 0 0 0 0 0 0 0 0 0 0 0 0 0 0 0 0 0 0 0 0 0 0 63 86 94 93 102 99 119 111 56 24 38 72 40 0 15 51 30 33 78 42 64 147 178 184 151 128 114 102 84 53 46 61 81 72 74 77 78 84 81 106 85 37 0 0 0 
0 0 0 0 0 0 0 0 0 0 0 0 0 0 0 0 0 0 0 0 1 1 2 2 4 5 6 13 15 16 17 16 15 15 12 9 7 6 7 7 12 15 14 12 12 12 12 13 14 14 0 0 0 0 0 0 0 0 0 0 0 0 0 0 0 0 0 0 0 0 0 0 0 0 0 0 0 0 0 0 0 0 0 0 0 0 0 0 0 0 0 0 0 0 0 0 0 0 0 0 0 0 0 0 0 61 107 140 139 163 158 159 79 24 23 15 28 23 3 8 25 18 13 11 32 24 64 91 111 114 132 143 157 168 139 119 116 89 57 49 44 43 44 58 100 76 43 0 0 0 
0 0 0 0 0 0 0 0 0 0 0 0 0 0 1 1 1 2 2 3 4 5 5 6 7 7 7 13 16 16 16 12 9 5 5 6 8 9 9 8 8 12 12 12 12 13 15 15 16 13 0 0 0 0 0 0 0 0 0 0 0 0 0 0 0 0 0 0 0 0 0 0 0 0 0 0 0 0 0 0 0 0 0 0 0 0 0 0 0 0 0 0 0 0 0 0 0 0 0 0 0 0 0 0 0 60 105 149 151 162 156 147 43 15 25 30 34 9 4 2 12 25 29 28 25 8 40 84 57 50 53 55 62 97 122 149 167 180 174 156 134 114 86 74 106 73 43 0 0 0 
0 0 0 0 0 0 0 0 0 0 0 0 0 1 3 4 5 5 6 6 7 6 6 6 7 7 7 11 10 7 3 2 5 8 9 10 9 9 9 9 12 14 13 15 16 15 15 19 23 17 0 0 0 0 0 0 0 0 0 0 0 0 0 0 0 0 0 0 0 0 0 0 0 0 0 0 0 0 0 0 0 0 0 0 0 0 0 0 0 0 0 0 0 0 0 0 0 0 0 0 0 0 0 0 0 63 72 74 77 95 128 113 30 38 56 34 26 46 5 0 1 7 17 24 20 8 2 63 76 72 63 57 54 49 45 50 65 100 126 149 178 210 217 193 142 72 56 0 0 0 
0 0 0 0 0 0 0 0 0 0 0 0 0 2 8 7 7 7 6 6 6 6 7 8 7 5 2 2 3 6 9 13 13 13 13 13 13 14 12 12 16 21 29 28 26 28 18 18 18 26 0 0 0 0 0 0 0 0 0 0 0 0 0 0 0 0 0 0 0 0 0 0 0 0 0 0 0 0 0 0 0 0 0 0 0 0 0 0 0 0 0 0 0 0 0 0 0 0 0 0 0 0 0 0 0 99 65 33 22 26 58 43 22 69 127 128 83 53 22 52 60 47 1 22 12 0 1 20 66 76 68 69 64 64 61 66 75 71 62 66 81 110 141 149 94 54 37 0 0 0 
0 0 0 0 0 0 0 0 0 0 0 0 0 0 0 0 0 0 0 0 0 0 0 0 0 0 0 0 0 0 0 0 0 0 0 0 0 0 0 0 0 0 0 0 0 0 0 0 0 0 0 0 0 0 0 0 0 0 0 0 0 0 0 0 0 0 0 0 0 0 0 0 0 0 0 0 0 0 0 0 0 0 0 0 0 0 0 0 0 0 0 0 0 0 0 0 0 0 0 0 0 0 0 0 0 44 85 86 84 64 57 47 17 23 11 64 128 57 64 61 89 110 117 100 85 66 11 4 38 76 71 69 74 71 66 71 78 86 87 83 82 75 67 55 34 30 27 0 0 0 
0 0 0 0 0 0 0 0 0 0 0 0 0 0 0 0 0 0 0 0 0 0 0 0 0 0 0 0 0 0 0 0 0 0 0 0 0 0 0 0 0 0 0 0 0 0 0 0 0 0 0 0 0 0 0 0 0 0 0 0 0 0 0 0 0 0 0 0 0 0 0 0 0 0 0 0 0 0 0 0 0 0 0 0 0 0 0 0 0 0 0 0 0 0 0 0 0 0 0 0 0 0 0 0 0 0 0 0 0 0 0 0 0 0 0 0 0 0 0 0 0 0 0 0 0 0 0 0 0 0 0 0 0 0 0 0 0 0 0 0 0 0 0 0 0 0 0 0 0 0 
0 0 0 0 0 0 0 0 0 0 0 0 0 0 0 0 0 0 0 0 0 0 0 0 0 0 0 0 0 0 0 0 0 0 0 0 0 0 0 0 0 0 0 0 0 0 0 0 0 0 0 0 0 0 0 0 0 0 0 0 0 0 0 0 0 0 0 0 0 0 0 0 0 0 0 0 0 0 0 0 0 0 0 0 0 0 0 0 0 0 0 0 0 0 0 0 0 0 0 0 0 0 0 0 0 0 0 0 0 0 0 0 0 0 0 0 0 0 0 0 0 0 0 0 0 0 0 0 0 0 0 0 0 0 0 0 0 0 0 0 0 0 0 0 0 0 0 0 0 0 
0 0 0 0 0 0 0 0 0 0 0 0 0 0 0 0 0 0 0 0 0 0 0 0 0 0 0 0 0 0 0 0 0 0 0 0 0 0 0 0 0 0 0 0 0 0 0 0 0 0 0 0 0 0 0 0 0 0 0 0 0 0 0 0 0 0 0 0 0 0 0 0 0 0 0 0 0 0 0 0 0 0 0 0 0 0 0 0 0 0 0 0 0 0 0 0 0 0 0 0 0 0 0 0 0 0 0 0 0 0 0 0 0 0 0 0 0 0 0 0 0 0 0 0 0 0 0 0 0 0 0 0 0 0 0 0 0 0 0 0 0 0 0 0 0 0 0 0 0 0 
