P2
# Rio.pgm
150 100
255
32 33 34 34 35 35 37 38 39 40 40 39 38 37 37 37 38 39 41 43 44 44 45 45 44 43 42 42 43 44 44 44 42 43 43 43 42 44 46 46 45 46 45 45 46 45 44 42 42 44 43 42 43 46 49 52 53 52 52 53 54 52 51 52 53 52 52 52 52 53 53 54 54 54 55 55 55 57 59 61 63 62 61 59 58 58 58 56 56 55 56 57 57 57 57 57 57 58 58 58 58 58 58 56 56 55 56 56 55 54 54 54 54 54 54 55 55 57 57 57 58 58 58 57 57 58 58 59 59 59 60 61 60 62 63 62 61 61 62 61 66 77 76 60 58 58 59 61 63 67
31 32 33 34 35 35 34 34 35 35 36 38 38 37 37 37 38 38 40 42 42 42 42 43 43 42 41 41 43 44 45 45 45 44 43 42 41 41 42 43 45 45 45 46 47 47 45 44 42 42 41 41 42 45 47 48 49 51 51 52 52 51 52 54 55 53 53 52 52 52 52 52 52 53 54 54 54 56 56 58 60 61 60 61 60 56 56 55 55 56 57 57 56 57 56 56 57 57 57 57 59 58 59 58 57 57 56 56 56 54 53 54 54 54 54 55 54 55 55 56 56 56 56 57 58 57 58 58 59 62 62 61 59 57 61 62 62 65 68 65 72 71 60 57 58 59 61 63 64 66
31 32 32 33 33 34 34 33 33 32 33 36 39 40 39 39 39 39 39 40 41 43 46 45 43 41 41 41 41 41 42 43 45 45 45 44 43 42 42 42 44 45 45 46 46 46 45 45 44 45 44 42 41 41 44 45 48 51 53 55 56 55 56 59 55 52 52 52 52 52 52 52 53 53 53 53 55 56 57 57 57 57 58 60 60 56 55 55 55 57 57 56 57 58 56 57 58 57 57 57 58 58 60 64 59 58 57 56 61 57 54 55 55 56 54 54 54 54 55 55 55 56 56 57 58 59 59 59 62 70 71 67 62 57 58 61 71 85 80 71 63 63 64 64 66 64 61 60 60 60
32 31 31 32 32 32 33 33 34 34 33 34 36 37 38 39 42 43 41 39 42 47 47 47 47 47 45 43 42 41 41 42 42 43 42 41 41 41 42 44 44 45 45 46 46 45 45 45 45 46 49 50 47 45 43 45 48 51 55 57 60 63 64 62 56 52 51 52 53 53 52 52 52 53 54 53 54 55 57 57 58 59 57 58 60 57 56 56 55 56 56 57 58 58 56 56 55 55 55 56 57 59 60 65 59 56 57 56 56 57 58 58 55 55 54 54 53 54 54 54 54 55 57 57 58 61 60 64 76 81 79 81 80 72 77 80 97 125 95 75 80 77 70 72 68 59 58 57 56 56
30 30 31 31 31 31 31 32 32 32 32 33 33 32 33 33 35 38 40 40 41 46 46 43 44 45 45 44 44 42 41 41 42 42 42 41 40 41 40 42 45 45 44 44 45 45 45 44 44 44 45 48 49 50 48 46 47 48 51 53 55 60 67 63 55 52 50 50 50 51 52 53 53 53 53 53 56 60 61 61 61 61 61 62 61 56 56 56 55 55 55 55 56 57 56 56 56 57 56 57 58 59 59 59 57 57 58 57 55 56 58 56 54 53 53 53 54 54 53 53 54 55 56 56 59 62 63 69 74 73 69 98 119 100 81 93 137 165 129 126 141 97 67 63 57 54 53 54 53 55
27 28 29 29 30 31 30 30 30 29 29 29 29 30 30 30 31 31 33 35 37 38 40 40 41 41 40 41 42 41 41 42 42 42 42 41 40 40 40 41 42 44 45 45 45 45 45 45 44 44 44 45 45 46 49 49 49 49 50 51 52 53 55 54 53 53 52 52 52 53 53 54 54 56 57 57 59 63 65 63 60 59 58 60 58 56 55 55 55 55 55 55 56 57 57 57 58 58 59 59 59 59 58 57 58 58 58 56 54 55 55 54 53 54 55 54 55 54 53 53 54 56 56 59 61 63 63 63 62 62 65 73 79 70 64 73 114 138 107 100 116 83 58 57 53 52 51 53 54 55
25 25 26 27 28 29 29 30 30 29 29 30 30 29 29 29 29 29 30 30 31 32 34 37 38 38 40 41 41 41 41 43 42 42 41 41 41 40 40 41 40 41 42 43 45 45 45 45 45 45 46 46 46 47 49 52 53 53 52 54 56 56 53 51 51 53 53 53 54 54 55 55 56 60 64 62 60 60 61 58 56 56 56 57 57 58 57 57 57 57 57 57 57 57 58 59 60 60 60 60 58 58 57 58 58 57 58 57 57 57 56 56 55 56 57 56 56 55 55 56 57 58 59 61 63 66 64 62 60 59 62 63 61 63 69 66 66 65 59 57 59 64 62 57 53 52 52 54 55 57
25 25 25 27 27 26 26 27 28 28 29 31 31 32 31 31 31 31 30 30 30 30 30 31 33 34 35 37 39 40 42 43 42 41 41 40 40 40 41 43 44 44 43 43 43 44 46 47 45 45 45 45 47 50 51 53 54 54 52 51 56 58 56 54 54 52 53 53 53 55 57 59 61 59 58 58 58 57 56 56 56 56 56 55 56 57 57 58 59 60 61 60 59 59 61 62 61 60 60 59 59 57 57 59 58 58 57 57 57 57 57 58 57 57 58 58 58 57 58 59 61 60 62 62 65 72 69 68 64 62 64 65 66 68 67 60 59 60 59 56 55 56 62 57 52 53 54 56 58 60
27 26 26 26 25 24 24 24 25 26 28 29 30 30 28 28 31 32 33 33 33 32 32 32 32 32 32 33 34 35 36 38 40 40 41 40 40 40 40 43 45 45 45 47 46 46 46 47 48 47 47 47 50 51 52 51 50 50 50 50 51 55 58 57 55 54 55 56 57 58 59 64 66 63 58 58 57 55 56 56 57 57 56 55 56 57 57 59 62 61 61 62 63 63 65 64 62 61 61 60 59 58 59 59 59 58 57 57 58 58 58 59 59 59 58 59 63 65 69 74 65 60 62 64 67 68 68 72 77 72 66 64 63 63 62 59 59 59 58 58 57 55 55 54 55 56 58 59 60 62
27 27 27 27 26 25 26 26 26 24 25 25 27 27 28 28 29 30 30 31 31 31 33 33 34 35 35 34 33 33 33 34 35 36 37 39 40 41 42 43 45 45 45 47 50 49 49 48 50 48 47 46 46 49 50 49 47 45 48 50 51 53 56 56 54 55 60 71 73 63 61 62 62 62 60 58 56 55 56 57 57 58 58 58 59 60 61 62 64 64 63 63 63 63 63 62 61 61 61 61 59 59 60 59 59 58 57 57 58 60 61 61 61 64 71 76 80 77 77 81 68 60 62 65 67 66 64 67 73 70 60 60 60 61 59 60 60 59 60 60 59 58 57 56 59 60 61 62 62 64
27 27 27 26 25 25 25 26 25 24 24 24 26 28 28 28 28 28 29 29 31 33 33 33 32 34 38 39 38 36 34 33 33 34 35 37 39 41 41 43 43 44 45 45 47 49 49 49 49 46 46 45 44 44 44 46 47 49 49 50 52 54 58 59 59 60 63 77 80 71 66 60 59 58 58 56 55 56 56 57 57 58 58 60 62 65 66 64 64 64 64 63 64 62 61 60 62 61 62 61 61 61 61 60 59 58 56 57 57 60 61 61 62 65 83 91 76 69 70 70 64 62 62 65 68 66 64 64 64 61 62 64 64 64 64 63 63 63 62 60 60 60 60 60 61 61 62 63 65 67
27 27 27 26 24 24 23 23 23 24 25 25 26 27 27 27 28 28 29 31 33 33 33 34 33 33 36 38 38 39 40 38 36 36 36 36 37 39 40 40 41 43 44 45 45 47 48 49 49 49 48 47 47 46 47 49 49 50 52 52 54 55 57 58 58 60 63 73 71 68 66 61 61 58 56 55 55 55 55 56 57 58 58 59 60 62 65 64 63 63 64 65 65 64 64 64 64 64 66 63 62 62 62 62 59 58 57 58 58 60 61 62 64 64 64 64 66 66 66 69 70 67 67 67 69 68 68 67 66 65 65 66 65 64 65 67 65 64 67 65 63 63 61 61 62 62 64 65 67 70
31 29 28 27 25 24 24 24 25 26 26 27 26 26 26 27 28 29 30 31 32 33 33 33 33 35 36 37 38 39 41 41 41 42 42 41 40 39 38 40 41 43 45 45 46 47 48 50 50 49 46 46 46 47 48 50 50 52 52 53 54 54 54 55 59 61 63 67 64 58 57 56 56 55 55 56 56 55 55 55 56 57 56 58 60 62 66 67 66 64 64 65 66 67 67 68 68 68 68 65 64 64 63 62 61 60 59 60 62 63 64 65 64 66 64 64 65 68 69 75 81 72 70 67 67 67 66 65 66 66 66 66 65 63 64 65 63 62 65 65 63 63 63 62 62 62 63 65 67 72
32 31 31 31 29 27 26 27 28 29 27 26 25 24 26 27 28 29 29 30 31 32 33 33 33 34 36 37 38 38 38 39 40 42 43 43 43 43 40 38 39 41 42 45 46 46 48 50 48 44 45 46 46 48 49 49 49 50 52 52 54 54 54 57 60 61 61 62 63 60 57 58 57 55 55 55 56 55 55 56 57 57 58 60 62 65 66 69 68 66 67 68 70 70 68 69 70 69 69 69 70 70 68 65 63 64 64 64 63 65 69 69 67 69 69 68 69 70 73 73 73 68 65 66 67 65 63 64 66 66 66 66 65 65 65 64 65 65 65 65 65 64 63 63 63 63 65 67 69 72
32 32 31 31 30 30 29 29 29 31 31 31 29 27 27 28 29 29 30 32 33 34 34 33 33 34 36 38 38 38 37 39 40 42 44 45 45 44 45 44 42 40 40 42 45 45 46 48 47 45 46 46 46 47 49 49 49 50 50 51 54 55 57 57 58 60 59 59 59 58 58 58 57 55 55 56 56 56 56 59 61 58 60 61 62 65 66 67 67 66 68 70 68 67 67 68 69 68 68 70 74 74 72 69 70 67 66 65 66 68 67 68 78 80 80 74 68 69 69 70 74 68 65 67 66 64 65 66 66 67 67 67 67 68 67 66 67 66 66 66 65 65 64 66 66 66 68 69 72 76
35 35 35 35 34 34 33 31 30 31 32 35 34 32 30 29 29 29 32 33 33 33 33 33 33 34 37 38 38 40 40 40 41 42 44 47 48 45 45 46 49 49 42 40 41 44 45 45 46 46 47 48 46 45 47 48 49 50 51 53 54 56 59 58 59 61 60 59 58 58 59 58 55 55 55 57 56 56 57 60 61 60 61 62 62 64 65 64 65 66 68 69 66 65 64 67 70 69 70 73 74 75 75 84 87 73 73 73 73 73 71 77 86 81 78 79 72 67 65 67 76 74 69 71 72 70 71 69 69 69 69 69 69 69 68 69 68 67 66 67 67 68 69 69 69 70 73 77 81 86
36 36 38 39 38 39 41 39 36 34 32 31 32 32 31 31 30 31 31 31 30 31 32 33 33 35 37 37 38 39 40 40 41 42 45 47 48 46 44 44 48 57 55 45 43 43 42 44 45 45 46 47 48 49 50 50 50 50 50 52 52 54 54 54 55 56 55 55 56 55 56 56 55 55 56 55 56 58 60 64 65 64 63 63 65 65 64 63 64 66 67 67 67 64 64 66 67 73 80 79 78 77 81 84 80 80 79 79 79 78 79 85 86 78 75 78 75 73 74 78 80 80 80 73 71 71 70 71 70 70 70 69 69 70 71 73 70 68 68 69 70 73 75 74 74 77 82 87 92 104
33 34 37 39 40 41 41 38 36 36 35 34 33 32 32 32 32 32 32 32 31 32 33 35 36 36 37 37 38 38 40 41 41 42 43 44 44 45 46 46 48 51 51 47 45 45 43 44 43 44 45 45 46 47 48 49 49 49 49 50 51 52 54 54 52 53 54 54 53 53 55 55 56 57 58 56 56 58 61 62 64 65 65 64 65 66 65 66 67 68 67 66 65 64 65 68 73 80 79 78 80 80 80 77 77 83 80 79 81 84 86 86 88 82 78 78 75 76 78 80 88 89 80 72 69 70 70 70 70 70 70 71 71 72 72 72 71 71 73 75 78 82 82 80 80 84 87 87 95 111
33 33 33 35 38 41 41 41 40 39 38 38 36 36 34 33 33 34 34 34 34 35 36 38 38 40 40 39 39 41 42 42 42 43 43 45 47 49 51 52 52 52 51 50 46 45 44 44 43 44 44 43 43 44 45 48 50 52 54 53 53 54 54 53 54 54 54 54 55 54 55 56 58 59 62 58 56 59 62 62 63 63 63 64 64 65 65 66 67 69 69 69 68 67 69 72 77 79 80 79 78 79 81 80 81 80 80 84 89 84 82 82 82 83 82 79 79 80 79 84 88 81 72 72 72 73 72 73 74 73 73 72 71 72 72 74 77 80 83 85 83 86 86 82 86 88 89 88 95 111
33 33 33 33 33 35 37 39 41 42 41 41 39 39 38 37 37 39 39 38 38 37 38 39 41 43 45 45 42 41 41 41 42 42 44 47 48 51 52 57 54 52 51 50 48 45 45 45 45 45 45 45 45 46 48 51 54 57 61 62 63 65 66 60 57 57 56 55 55 55 55 55 56 58 59 62 65 65 64 64 67 70 70 71 70 67 68 70 68 69 70 74 76 75 77 78 77 75 79 84 82 79 83 85 83 84 86 92 89 83 82 85 84 79 77 79 80 79 79 79 77 75 75 76 76 76 77 79 80 78 75 73 72 74 78 80 83 86 86 85 83 92 108 100 89 85 85 92 96 98
34 33 33 33 33 33 34 34 37 38 39 39 38 38 38 37 37 38 40 40 40 39 40 41 41 43 47 48 47 44 43 42 42 44 45 47 48 51 51 47 45 44 44 43 43 45 45 45 47 48 49 49 51 53 55 57 60 61 59 61 65 68 68 65 63 63 60 57 55 55 57 59 61 62 59 64 71 72 68 67 69 72 76 74 76 76 74 73 71 71 74 76 78 78 79 80 79 79 84 88 85 81 82 86 92 92 88 89 89 88 86 84 81 80 79 79 80 78 79 81 81 80 80 80 78 77 78 80 80 80 79 77 77 79 82 85 85 87 87 88 89 95 101 115 133 109 111 119 98 91
32 32 32 33 33 33 33 33 34 34 36 37 37 38 38 37 38 38 39 41 41 44 46 48 50 49 52 51 49 47 47 46 43 42 42 43 45 47 49 47 42 40 40 40 40 43 45 46 46 48 51 52 53 54 56 59 60 61 62 64 67 71 66 63 64 64 64 61 59 58 60 61 62 63 61 60 63 66 67 67 65 68 73 74 75 74 75 73 75 75 75 76 77 79 79 78 82 87 84 83 90 90 88 87 89 86 83 83 82 83 82 80 77 77 79 78 79 79 79 78 79 82 84 81 81 80 79 79 78 79 79 79 79 81 82 82 83 86 91 91 92 91 94 96 107 106 118 110 99 93
31 30 30 30 31 32 33 34 35 37 38 39 39 39 39 39 40 41 41 41 41 41 44 49 53 53 52 52 48 48 49 46 44 43 44 45 45 45 45 45 45 44 42 44 46 47 48 49 50 50 51 52 55 54 55 56 58 62 64 65 68 66 67 69 65 63 63 63 62 62 62 61 61 62 63 62 62 64 65 67 67 69 71 71 69 68 71 71 73 76 74 71 72 74 78 86 92 92 89 94 101 96 89 86 84 80 82 87 87 85 82 77 76 78 79 78 78 78 79 80 80 81 82 83 82 80 80 81 81 79 77 79 84 82 81 83 86 88 87 86 89 91 88 85 84 89 90 101 109 109
34 32 31 31 30 31 32 32 34 36 36 37 37 38 38 40 41 41 42 41 42 43 44 45 47 48 51 53 54 55 54 50 47 44 44 44 46 47 44 44 46 48 48 47 50 52 51 51 51 51 52 53 54 55 57 59 61 64 64 64 64 66 65 63 61 61 61 61 61 62 62 63 60 59 58 59 62 63 65 67 68 68 69 68 67 69 70 70 70 72 73 74 77 79 83 86 87 86 87 89 92 92 87 80 78 78 83 85 82 80 78 76 77 78 78 78 80 81 82 80 80 82 83 83 84 85 81 80 79 77 89 127 148 115 126 137 98 89 88 86 84 84 81 82 83 83 86 85 89 94
35 34 34 34 33 33 33 33 33 33 33 33 34 35 36 37 38 39 39 41 44 47 49 48 47 47 47 50 51 52 53 53 50 47 44 45 45 45 44 45 46 46 47 47 48 51 52 51 52 52 51 51 51 53 54 58 64 63 66 69 71 73 72 69 68 67 64 62 61 61 62 62 60 58 59 60 61 62 64 65 65 65 65 65 67 69 70 70 71 73 78 84 83 82 83 85 86 87 88 88 88 87 85 80 78 79 81 79 77 77 77 77 79 80 83 84 84 87 89 91 92 88 85 87 87 83 83 90 95 99 139 184 171 130 134 119 96 94 88 87 81 78 78 78 82 84 85 85 87 91
35 35 35 35 34 34 33 33 34 34 34 33 34 35 36 38 38 38 38 40 41 42 44 45 45 46 47 48 49 49 50 50 50 48 46 44 42 42 44 46 46 47 49 50 52 52 52 55 58 62 68 66 65 63 65 71 82 102 94 88 79 75 77 70 66 66 64 62 63 62 62 61 60 60 60 61 62 63 64 65 67 67 68 68 69 70 71 71 74 78 83 87 88 88 86 86 87 87 87 90 91 89 86 82 81 82 80 80 81 82 80 80 80 81 84 86 85 88 91 96 102 96 91 93 92 94 108 107 106 113 124 107 91 97 92 87 92 97 92 90 89 84 81 85 87 88 92 92 93 93
39 41 42 43 42 42 43 40 40 40 40 41 40 39 39 41 40 40 40 40 42 46 52 50 49 49 47 47 49 50 51 52 51 49 50 49 47 46 45 46 53 55 54 55 59 62 62 63 66 66 67 69 74 71 69 72 76 83 81 78 75 71 72 84 81 77 89 87 72 68 66 66 69 68 67 65 65 65 66 66 68 68 70 70 70 70 73 74 75 76 77 79 81 82 80 81 83 83 83 85 88 87 84 82 81 82 83 86 85 82 80 80 85 87 87 86 84 83 85 90 93 90 92 101 99 95 95 99 111 107 94 94 96 94 93 94 92 92 92 91 91 89 89 89 89 89 88 89 89 91
46 50 52 51 47 47 50 52 53 50 46 45 44 45 46 46 46 47 47 47 48 50 55 57 54 50 47 46 48 50 50 51 52 52 52 50 50 51 51 52 54 56 55 56 57 58 59 59 62 66 71 66 60 61 62 64 67 67 69 73 75 72 74 96 111 121 141 191 158 78 72 73 77 79 72 70 68 68 68 67 67 68 68 68 70 71 74 77 78 77 76 78 80 78 76 78 79 79 79 82 86 87 87 83 81 82 81 81 80 79 81 86 91 90 89 88 87 85 84 86 91 98 94 91 90 91 95 97 96 93 95 96 96 96 96 95 93 92 90 88 87 86 84 83 83 84 84 87 88 89
44 45 48 50 48 45 45 48 50 51 51 48 47 48 48 48 48 49 52 54 54 52 50 50 51 51 49 49 51 51 52 52 51 51 50 49 48 48 48 49 48 48 48 50 50 50 51 55 60 67 74 71 62 62 64 67 68 70 70 78 86 79 84 96 103 117 137 195 191 120 88 89 91 88 79 71 67 69 71 68 66 68 68 70 71 71 72 75 77 79 81 81 78 80 82 83 84 83 83 85 87 85 82 81 80 79 80 82 81 86 91 88 89 88 85 85 86 85 85 84 89 94 91 90 90 92 96 94 92 93 92 91 90 90 90 90 89 87 85 85 85 85 83 83 84 85 85 86 86 86
47 42 40 44 46 43 43 45 45 44 45 46 46 45 45 46 47 47 49 50 51 51 51 51 52 52 52 52 53 57 56 55 55 55 55 54 53 53 54 55 53 53 56 58 63 60 60 62 65 66 65 63 59 56 57 59 62 64 67 75 83 82 89 93 100 113 113 100 108 106 87 84 84 77 75 72 71 69 69 73 72 70 71 70 70 73 73 73 75 76 77 79 79 80 82 82 82 83 84 84 85 83 84 87 84 81 83 83 83 85 87 86 87 86 84 83 85 89 91 94 96 93 90 93 92 91 94 96 95 91 87 84 83 82 83 87 88 85 83 82 81 79 79 81 82 81 79 82 85 87
42 42 41 42 44 43 42 43 45 44 42 42 44 44 44 45 47 48 48 48 50 50 50 50 48 48 49 52 60 71 70 66 65 62 62 63 60 59 58 64 70 65 59 57 58 60 59 57 56 56 58 61 59 59 61 65 69 67 66 67 68 75 82 95 128 140 108 85 84 81 78 76 74 73 70 71 73 73 74 78 78 79 77 71 72 71 72 74 76 75 74 74 77 78 79 80 81 83 83 83 87 87 87 84 82 82 83 83 83 84 84 85 84 85 87 87 89 92 94 96 97 97 106 103 94 90 92 97 92 92 93 91 92 94 88 85 86 85 84 81 79 81 81 82 84 86 85 89 93 92
41 41 41 42 42 42 44 45 45 49 48 45 47 48 47 46 45 46 48 47 49 51 53 54 51 51 50 50 55 62 61 60 59 57 60 64 62 64 65 71 75 68 61 58 56 54 53 53 54 56 58 59 63 65 67 71 72 69 70 70 72 72 70 64 64 74 75 74 74 75 76 77 77 75 71 69 70 72 70 67 69 74 78 80 76 74 73 75 77 77 77 77 79 79 80 81 83 84 83 81 81 82 81 81 82 81 81 80 79 79 78 81 85 89 89 89 92 92 88 86 90 95 103 105 102 93 93 93 92 94 96 95 92 89 86 84 84 84 85 84 83 84 86 87 92 90 87 86 87 88
40 40 40 40 40 40 40 42 45 46 47 47 49 50 50 51 50 49 48 49 51 56 60 60 56 55 56 56 56 55 58 60 60 57 54 58 65 65 62 58 55 54 54 54 54 53 52 53 53 54 56 58 62 63 64 66 67 70 72 71 69 72 75 74 71 65 62 63 64 64 64 64 64 64 65 66 68 71 68 73 78 78 79 77 76 75 77 79 79 86 92 87 81 79 79 78 79 80 81 82 81 80 79 80 78 76 76 78 78 80 86 97 113 114 101 100 96 100 104 98 97 96 104 102 98 101 100 92 92 94 96 92 88 86 85 86 86 87 90 89 91 89 87 86 87 87 86 87 88 90
39 39 39 40 40 40 42 43 45 46 46 49 49 47 47 48 51 50 50 51 52 51 52 55 55 55 55 56 56 55 54 52 49 49 49 49 49 50 51 51 50 50 51 50 50 50 51 51 51 54 55 55 57 59 62 64 69 77 83 85 82 73 68 65 68 73 75 78 82 79 74 72 70 68 65 66 68 68 70 74 75 74 75 75 77 78 79 77 75 81 80 76 77 78 77 79 82 83 81 80 80 78 78 78 76 77 80 85 88 93 100 98 100 100 104 102 105 113 108 99 96 96 99 100 96 96 97 93 90 91 89 89 88 87 88 91 92 92 92 90 90 88 89 91 92 93 93 91 92 92
35 35 36 38 38 40 41 42 42 44 45 45 46 46 46 48 49 50 49 50 51 51 51 51 51 52 53 55 54 53 53 53 52 50 50 51 51 51 51 51 51 51 51 49 49 50 50 50 51 52 53 53 54 55 59 62 67 71 75 79 82 81 77 75 70 67 69 71 70 75 78 78 78 77 72 70 72 74 73 71 73 74 73 73 75 75 72 73 79 82 83 84 85 84 85 87 88 84 82 80 78 77 78 79 83 88 92 94 93 95 97 102 97 94 101 104 99 97 99 98 94 92 89 93 93 89 91 89 87 87 90 91 90 91 94 92 91 91 92 91 92 91 91 91 92 92 91 92 93 94
33 33 33 37 37 38 40 41 41 42 43 44 44 45 46 46 47 46 46 46 47 49 50 51 52 53 53 54 54 54 55 54 54 55 55 56 55 52 52 52 51 51 53 53 52 51 51 51 51 52 53 53 53 54 56 60 63 64 66 69 72 77 77 78 80 76 76 78 78 78 76 75 75 79 79 74 73 74 72 69 69 72 73 70 73 77 80 81 83 85 86 87 85 84 83 84 84 83 83 81 78 79 81 83 88 90 89 90 91 93 93 95 96 95 96 99 97 98 101 100 97 96 94 93 91 91 89 87 88 90 92 96 98 98 100 97 92 93 93 96 94 92 93 93 95 94 93 94 96 96
36 35 36 38 38 39 40 41 41 42 43 43 43 42 42 43 44 44 44 44 45 46 47 47 48 47 48 49 50 50 51 51 51 51 51 51 52 57 58 57 59 61 62 60 57 55 52 52 51 52 53 54 55 54 55 58 61 62 64 65 68 71 73 74 76 76 74 73 74 77 77 76 75 74 76 76 75 73 71 70 73 76 77 78 83 85 88 87 83 82 80 80 80 84 88 88 86 88 84 81 82 82 84 87 87 89 92 94 92 92 91 94 94 96 97 97 98 100 101 100 97 95 92 91 90 90 91 92 92 94 95 96 94 94 96 95 96 96 94 93 92 91 91 92 93 92 92 93 95 96
43 41 41 41 40 40 41 41 42 42 42 43 43 43 43 44 45 45 45 46 48 47 47 47 47 49 50 50 50 50 50 51 50 51 51 51 53 55 55 56 57 58 58 58 59 59 58 56 54 54 53 54 55 55 55 56 58 61 63 65 65 65 67 69 69 69 72 74 73 72 73 76 76 76 77 77 77 78 79 79 81 82 85 88 83 82 86 84 79 76 77 82 85 87 89 89 89 86 85 84 85 86 92 97 95 93 93 95 95 94 93 94 94 93 92 93 93 94 93 95 94 91 90 90 90 90 90 91 91 92 93 94 93 93 94 93 93 92 91 92 91 91 91 91 91 91 91 93 95 96
46 45 44 44 43 42 43 42 43 43 43 43 43 44 44 44 44 45 46 47 47 48 47 47 48 49 49 50 50 51 50 51 51 52 52 51 52 52 53 53 54 54 54 54 56 58 59 58 57 55 55 54 55 56 56 59 61 63 64 65 67 68 68 68 68 70 71 72 73 74 75 75 75 76 84 83 79 78 79 81 82 82 83 87 87 88 90 89 88 83 84 87 91 91 90 94 100 95 97 98 99 101 106 110 106 97 95 96 96 94 94 94 96 99 99 98 99 98 98 98 94 92 91 91 90 90 90 90 91 90 91 91 90 90 89 89 88 87 87 88 88 89 89 89 90 91 91 91 93 93
42 42 42 43 43 44 45 46 46 47 49 50 50 49 51 50 49 50 50 50 51 52 52 52 53 51 52 53 53 53 52 53 53 53 53 54 54 55 54 54 56 56 56 56 57 60 61 61 60 59 57 56 57 58 60 63 64 65 65 67 68 70 74 74 74 77 77 75 74 75 75 73 74 75 80 79 76 77 80 82 82 80 80 82 85 88 89 94 95 94 94 97 102 102 103 105 105 108 108 108 109 109 109 106 104 103 100 101 101 99 102 103 103 103 101 99 98 97 94 91 91 91 91 90 90 89 88 88 87 88 88 87 86 86 86 87 87 85 85 86 86 86 86 86 87 88 88 89 89 91
43 43 42 42 42 44 44 45 45 45 45 47 47 48 50 49 50 51 51 51 51 52 52 51 52 51 52 53 53 54 54 53 52 53 53 53 53 54 53 54 55 55 55 57 57 58 61 62 62 62 62 61 61 62 64 64 65 65 67 69 71 74 79 80 79 78 78 77 76 75 74 76 77 80 82 81 79 82 86 87 86 85 85 86 87 93 97 96 97 101 100 100 99 98 99 99 101 104 104 104 103 103 103 101 100 98 96 96 94 93 95 96 97 98 98 97 97 96 96 95 93 91 91 91 90 89 89 88 88 88 88 88 87 87 85 87 88 86 87 88 86 87 87 87 87 86 87 89 90 91
47 48 50 50 47 45 45 47 49 49 48 47 48 49 50 50 50 51 52 51 52 52 53 53 54 54 54 55 57 57 59 61 61 61 60 59 58 56 55 55 55 56 57 58 59 60 61 62 63 64 65 67 69 70 69 68 67 69 71 73 73 74 76 75 75 74 73 75 79 80 80 81 80 79 82 83 85 86 87 90 91 94 97 98 98 96 98 99 99 101 100 100 100 100 101 101 102 103 104 104 102 102 102 100 99 97 97 96 95 95 95 95 95 95 95 95 95 94 93 92 92 90 90 89 88 88 88 88 88 87 87 88 89 86 115 104 84 87 88 92 93 90 89 88 88 89 88 91 90 90
52 53 54 53 51 50 49 49 50 49 49 50 51 53 54 54 54 54 54 54 55 56 57 58 58 58 59 60 61 61 62 63 63 63 63 64 64 64 63 63 63 62 62 62 63 64 64 65 65 65 65 65 67 68 69 72 76 77 77 78 77 78 79 79 80 81 81 80 81 82 84 85 85 86 88 89 92 94 97 100 101 103 105 105 105 105 105 105 105 105 106 106 106 106 106 107 108 109 110 110 110 109 108 107 105 104 102 101 100 99 99 100 100 100 99 99 98 96 96 96 95 94 93 93 93 92 93 92 92 92 91 91 93 87 54 57 93 91 84 78 81 83 87 92 92 90 91 85 91 97
47 49 50 50 51 52 52 51 51 50 51 52 53 54 55 55 55 56 57 57 58 59 60 60 60 60 61 61 60 61 61 61 61 61 62 63 64 65 66 67 67 67 67 68 69 70 71 75 78 80 84 90 97 102 95 86 82 80 81 81 83 85 86 87 90 90 88 89 90 89 90 90 90 91 92 96 102 103 105 106 106 106 107 107 108 110 110 110 111 112 112 113 114 114 114 115 116 116 116 116 116 116 116 114 113 111 110 109 108 107 107 107 107 106 105 105 104 102 102 102 99 98 98 98 97 97 96 96 95 94 96 95 97 58 31 36 49 48 43 37 36 38 43 57 75 87 83 49 58 70
48 50 51 51 52 53 54 56 57 56 54 54 54 55 56 56 59 61 63 65 67 65 65 65 64 65 69 69 65 64 65 65 66 65 67 69 73 76 77 77 77 78 78 78 80 83 85 89 95 99 121 145 151 157 146 119 105 97 97 95 93 93 93 95 96 96 95 95 96 96 96 98 100 101 103 106 107 107 109 109 111 112 112 114 115 117 118 119 119 120 120 122 123 123 123 125 125 125 125 125 123 124 125 122 120 119 117 116 116 114 114 113 112 112 111 109 107 106 106 104 105 105 104 103 100 100 99 98 98 99 88 66 61 46 44 43 37 37 39 41 40 39 39 37 38 44 45 47 48 45
49 51 51 52 53 54 53 54 55 54 54 55 56 57 57 57 57 58 59 61 63 64 65 66 66 66 67 67 67 67 67 69 72 71 72 73 74 75 77 79 79 79 80 80 80 83 89 91 92 91 91 91 92 94 95 96 96 97 96 96 96 96 96 97 98 99 100 101 101 101 102 103 104 105 107 109 110 112 114 114 113 113 114 117 119 121 121 124 125 126 127 129 131 131 129 128 132 132 132 132 131 132 128 127 126 124 120 119 117 117 116 116 115 115 114 113 111 109 108 109 100 92 84 75 96 94 93 99 93 78 57 48 45 45 47 44 43 42 41 41 42 43 44 43 43 41 41 43 44 44
50 52 55 60 71 70 60 56 56 57 58 59 58 59 60 60 59 59 60 60 61 62 62 64 65 64 65 65 65 65 67 69 70 72 73 74 74 76 78 79 80 81 83 84 85 86 87 87 88 91 93 93 94 94 94 94 96 98 97 96 97 98 99 100 101 103 105 105 107 109 110 111 114 114 114 115 118 120 121 127 138 147 145 137 139 143 145 140 135 135 135 137 139 128 116 116 134 140 140 139 135 122 112 109 116 122 124 125 124 123 123 122 122 120 119 117 114 111 105 90 72 66 65 64 67 66 63 65 61 53 52 52 49 47 49 46 46 44 43 43 40 43 44 43 43 44 44 44 44 43
50 51 52 54 53 54 55 54 54 55 54 55 56 57 58 59 59 59 59 61 63 64 64 65 65 65 66 66 67 67 69 69 70 71 72 74 74 75 76 76 78 80 81 83 86 86 86 87 89 91 92 93 94 95 96 96 97 97 98 99 100 101 103 104 105 106 107 108 110 112 114 117 123 120 119 122 123 123 124 131 140 149 148 146 140 148 150 147 144 144 146 140 131 129 129 129 131 136 142 146 128 117 115 111 107 105 106 106 106 104 105 105 109 114 107 97 90 86 80 74 73 73 71 71 66 62 61 59 58 57 56 54 51 51 51 47 47 45 44 45 43 44 44 45 46 45 46 47 46 45
48 49 50 51 51 52 52 53 53 54 54 54 55 56 56 57 58 58 60 60 62 63 63 63 64 65 65 65 65 67 68 69 70 71 72 74 75 77 76 77 79 81 82 84 85 86 87 89 91 92 93 94 95 95 97 97 99 99 100 101 102 103 104 105 106 107 108 110 110 112 113 114 115 118 119 120 121 121 123 124 126 127 131 126 106 131 146 151 151 151 154 145 142 146 147 146 146 144 142 140 138 136 131 127 123 117 111 106 102 101 99 98 96 94 91 88 85 82 81 80 78 75 72 68 66 65 64 62 60 57 53 52 51 50 50 48 47 46 44 44 44 44 45 45 47 47 47 48 48 47
47 49 50 51 52 51 52 52 53 54 54 54 54 55 54 55 56 57 58 59 61 61 61 61 62 63 64 64 65 66 67 69 70 71 73 74 76 77 77 79 80 82 83 85 86 88 88 90 91 93 94 95 96 96 98 99 100 101 102 102 103 104 105 105 105 107 109 109 110 112 113 115 117 118 118 119 121 124 125 129 131 133 131 120 109 92 83 108 157 164 160 155 157 159 160 160 161 160 157 154 152 148 144 140 135 129 123 117 112 109 107 105 103 100 96 93 89 86 83 80 77 73 69 67 66 64 61 58 55 54 52 52 49 47 46 47 46 46 45 44 44 46 46 46 48 48 47 48 49 48
46 48 50 51 51 52 51 52 52 52 53 53 54 54 54 54 55 55 56 57 57 58 60 60 62 63 63 64 64 65 66 68 70 72 73 74 75 76 78 79 81 83 84 86 87 87 89 91 92 93 95 96 98 99 99 101 101 102 103 104 105 106 107 107 108 109 110 111 112 113 115 116 117 118 120 123 126 129 132 132 138 137 121 97 66 60 66 68 97 163 172 166 170 173 175 174 175 174 172 168 164 160 154 149 143 135 128 122 118 113 110 107 105 101 97 94 90 86 83 80 76 73 71 67 63 60 58 55 53 53 52 50 49 48 48 48 47 45 46 46 46 46 46 47 49 49 48 49 49 49
44 45 46 47 48 49 49 49 50 50 50 50 51 51 52 53 52 53 53 53 54 54 55 56 57 58 59 61 62 62 63 64 66 68 68 71 72 73 75 77 79 81 83 84 85 88 89 91 93 96 97 98 99 100 101 102 103 104 105 107 108 109 110 110 110 111 111 112 113 114 115 118 120 122 124 126 129 131 144 163 169 120 79 59 62 68 70 77 81 104 179 193 189 186 186 189 190 187 184 189 187 182 173 158 149 140 133 128 122 118 114 110 106 103 100 96 91 87 84 81 78 75 69 64 63 62 60 57 55 53 52 50 49 49 49 50 48 47 46 47 48 47 47 47 48 48 49 49 51 51
40 41 43 43 44 45 45 45 45 46 46 47 48 48 48 49 50 50 50 50 52 52 52 53 54 54 55 56 58 59 60 62 63 65 70 68 70 72 74 77 79 82 84 86 89 92 94 96 98 100 102 103 104 105 106 107 108 110 111 112 112 113 112 114 115 114 116 116 117 118 118 123 125 128 131 135 139 156 176 164 99 59 59 65 68 67 70 74 84 88 113 171 198 204 200 203 205 207 209 165 112 116 156 176 161 144 137 131 126 121 119 114 111 109 103 96 94 93 89 83 79 73 69 66 64 63 60 57 56 55 53 53 52 51 51 50 50 50 50 50 49 48 48 48 49 50 52 52 53 53
38 39 40 41 41 42 42 42 43 43 43 44 43 44 44 42 39 42 47 49 48 48 49 54 55 53 54 55 56 58 58 60 61 64 67 68 70 72 75 78 82 86 90 93 96 99 101 103 104 106 109 110 111 112 113 114 116 117 118 117 118 118 119 108 88 85 95 116 123 123 127 130 133 136 145 149 154 160 128 67 56 64 65 67 66 68 71 74 80 86 93 109 141 190 223 230 227 197 130 79 65 61 65 104 159 161 142 130 127 130 123 124 126 114 99 104 103 105 113 85 77 74 71 68 66 63 61 61 60 58 57 56 55 54 53 52 51 51 50 52 51 50 49 50 51 53 55 56 55 54
36 37 38 39 38 38 35 32 33 35 37 40 40 40 41 40 40 42 44 41 38 39 41 43 47 52 52 53 54 55 57 58 60 62 65 68 70 73 77 83 89 94 100 104 108 111 112 113 115 117 119 119 120 121 122 123 124 125 126 129 130 132 110 81 79 82 80 92 125 141 141 137 143 148 147 131 114 83 59 63 67 65 66 67 67 70 73 75 66 64 85 135 127 112 152 206 166 96 75 80 76 72 69 60 75 114 149 155 148 143 147 149 139 136 122 116 106 91 90 84 81 77 74 71 70 68 66 64 62 61 60 60 58 57 56 55 54 54 53 52 52 52 52 52 53 58 57 59 58 56
33 35 36 37 35 35 35 34 34 36 38 40 40 40 41 41 42 42 43 43 44 45 46 46 47 48 49 50 51 53 55 57 59 61 65 68 72 78 84 92 101 112 119 122 124 126 126 127 126 126 126 134 136 134 136 137 139 144 141 141 122 104 95 93 90 86 90 98 119 125 95 85 87 90 77 68 65 65 68 67 67 68 69 69 69 67 68 65 59 63 65 103 147 145 141 146 127 95 103 83 78 75 73 73 67 62 82 125 135 165 169 150 148 135 128 116 97 111 102 93 86 90 80 73 70 72 68 65 67 67 63 61 60 60 60 58 57 57 56 55 55 55 55 55 58 60 62 63 64 69
32 33 34 35 36 37 37 37 37 37 38 37 38 38 39 39 40 40 41 41 41 43 43 44 44 45 47 49 50 52 55 57 60 63 67 71 75 82 90 103 126 131 161 185 167 166 166 165 161 153 147 166 166 158 152 146 145 159 174 140 125 122 124 116 118 117 120 142 133 96 94 89 97 83 79 77 75 71 68 68 70 71 67 66 62 60 61 61 59 62 65 65 104 145 157 163 136 103 93 83 83 81 80 77 76 75 70 70 74 94 107 146 147 130 121 98 83 94 94 108 102 107 107 92 100 85 81 80 71 69 66 67 64 61 59 65 67 59 59 59 58 58 59 60 62 62 63 64 116 138
31 33 34 34 34 35 36 36 36 36 37 37 38 38 37 38 39 40 40 40 40 42 43 44 45 46 48 50 53 54 56 60 62 65 70 74 87 105 137 171 180 182 202 235 225 223 229 222 216 216 215 205 209 206 195 198 186 190 190 171 178 167 159 161 147 143 135 128 123 131 145 131 142 126 106 82 90 89 83 85 80 72 63 62 62 61 62 63 62 64 64 65 63 76 112 135 141 124 94 94 93 85 84 80 79 82 96 98 90 115 135 124 133 144 139 133 132 120 127 139 156 124 134 135 130 117 120 97 86 114 104 80 67 82 96 88 68 63 64 64 64 65 65 66 64 72 80 82 109 99
31 32 34 34 35 36 36 35 36 37 37 38 38 38 38 38 40 41 41 42 41 43 44 45 46 47 49 51 53 58 62 60 63 64 67 69 98 143 151 174 160 159 170 205 194 195 208 190 186 197 194 190 212 212 217 209 213 234 231 222 215 205 188 165 137 137 139 146 143 126 124 159 184 131 123 115 107 99 95 84 67 58 60 59 61 64 65 64 65 65 66 67 71 65 66 101 121 156 155 139 139 136 100 117 111 92 98 103 104 111 171 167 121 134 126 131 132 133 140 120 166 153 136 133 138 152 121 117 127 109 111 119 108 107 102 131 106 67 68 66 67 65 67 69 78 123 133 110 96 73
31 32 33 34 35 35 35 36 36 36 37 38 38 38 39 40 40 41 41 41 42 44 45 45 47 49 51 53 55 58 60 60 61 62 65 69 72 79 84 89 95 104 116 145 133 138 155 133 130 135 135 144 161 157 171 184 185 199 216 223 231 228 217 186 143 120 121 124 173 142 123 162 162 81 61 47 39 37 43 40 43 44 47 53 55 61 66 65 66 67 67 70 77 120 128 102 83 95 123 150 183 194 139 125 128 135 135 126 155 194 163 157 152 142 119 126 144 144 141 151 145 145 159 161 158 136 128 117 112 128 118 165 176 126 117 139 108 74 79 84 87 99 93 105 124 125 105 75 72 73
31 32 33 34 34 35 35 36 36 37 37 37 38 38 39 39 40 41 41 42 43 43 43 43 44 44 46 48 52 53 56 58 59 61 63 67 71 74 80 86 91 95 102 115 113 115 124 116 116 119 120 128 138 132 137 153 181 176 177 194 208 224 231 164 133 127 129 108 144 129 93 69 54 28 32 34 35 40 45 46 48 48 49 51 54 55 61 67 67 67 71 74 81 114 132 120 89 89 117 112 121 141 137 128 113 98 96 117 140 188 204 149 141 148 144 150 149 187 186 192 153 141 140 149 145 139 146 122 118 116 115 130 108 120 114 120 111 114 109 124 131 139 134 133 125 122 91 79 100 119
29 32 33 34 35 34 35 35 36 36 36 37 37 37 38 39 40 40 41 42 42 43 43 44 44 45 46 48 50 53 56 56 58 60 63 67 71 74 78 83 86 89 95 102 102 105 111 108 108 112 116 121 126 121 132 150 144 169 188 195 211 199 188 145 163 175 142 140 125 66 33 28 31 37 36 37 41 41 47 47 50 53 52 44 49 58 59 62 66 69 74 77 85 99 101 107 92 102 187 135 165 135 145 156 146 103 94 98 115 145 171 168 143 134 122 138 124 147 163 142 141 123 113 99 104 115 135 140 123 123 125 124 103 119 112 123 131 142 142 125 147 191 149 110 113 132 125 127 133 148
30 31 33 34 35 36 36 36 35 36 37 36 37 38 38 39 40 40 41 42 43 43 43 44 45 47 48 50 52 55 56 57 59 62 67 70 72 74 78 81 84 87 92 98 99 101 107 106 107 110 111 113 121 139 166 146 100 152 196 218 203 156 152 148 155 141 99 78 44 30 36 37 37 37 39 39 44 43 45 48 50 55 50 45 53 59 58 56 64 73 78 83 91 92 121 132 105 111 185 143 179 135 176 176 150 132 119 119 143 160 163 173 169 148 152 141 125 117 130 120 116 108 113 121 127 122 134 127 129 152 142 110 105 136 150 140 121 148 161 127 131 188 134 129 140 131 107 131 122 141
30 31 33 34 35 36 36 36 36 36 37 37 38 39 39 40 41 42 42 43 44 44 45 46 47 48 50 52 54 56 57 60 62 66 68 70 73 76 78 82 85 88 91 96 97 100 103 104 103 105 116 131 156 165 179 159 129 159 137 144 143 129 137 77 71 53 31 28 34 37 35 36 36 37 42 42 43 42 50 52 50 53 47 47 55 58 55 56 60 66 82 96 102 107 129 145 121 117 188 162 185 143 178 185 159 135 122 127 144 180 158 124 148 135 148 138 149 136 143 140 129 136 120 104 90 108 106 140 150 137 158 106 110 156 139 150 150 142 139 148 148 141 130 167 165 123 115 146 148 150
30 31 33 35 36 36 36 37 37 37 38 39 39 40 41 41 42 43 43 44 46 46 46 48 48 50 52 54 56 58 61 64 65 68 70 72 75 78 82 86 87 88 91 95 100 100 100 103 115 139 160 173 180 200 230 178 88 89 81 98 73 48 36 28 28 31 36 37 36 35 37 38 38 40 43 44 44 51 57 52 51 55 49 48 52 56 56 55 58 62 69 94 130 127 136 154 166 198 195 194 193 165 187 170 167 166 166 140 124 142 148 151 163 149 146 137 157 143 157 146 166 134 105 79 121 83 71 89 108 136 142 167 162 168 155 168 178 175 156 145 148 160 174 169 169 156 131 171 174 172
31 32 33 35 36 36 37 37 39 40 40 40 41 41 42 42 43 45 45 45 46 47 49 51 52 53 55 56 58 60 62 65 67 69 72 74 77 80 82 85 88 91 96 96 98 108 121 140 160 168 188 204 210 178 118 54 26 24 28 28 29 32 33 34 35 36 36 36 35 36 38 39 40 43 46 44 44 51 58 54 53 57 55 56 60 58 58 55 58 61 66 66 125 156 159 191 201 181 159 143 156 149 145 149 180 202 189 184 147 140 147 151 140 142 146 134 151 179 146 127 129 98 103 85 79 70 69 68 91 121 123 143 196 207 169 154 148 174 175 163 184 194 168 176 194 181 161 200 203 198
30 31 34 35 36 37 38 39 40 40 40 40 42 42 43 43 44 45 47 48 49 50 52 52 54 55 56 57 59 61 64 67 70 72 75 76 79 82 84 88 92 93 96 116 144 157 171 185 186 184 139 86 60 29 17 25 31 33 33 34 34 33 32 34 35 35 35 36 37 41 39 41 43 46 46 44 46 54 58 57 56 58 59 56 55 58 56 53 59 58 62 68 75 103 149 216 220 150 141 141 157 142 137 152 156 198 229 227 210 155 132 171 193 155 143 147 154 188 156 138 115 124 120 94 91 82 63 65 62 58 63 63 74 144 196 173 168 179 199 195 204 196 190 210 226 219 182 182 214 215
30 31 33 35 36 37 38 39 39 39 40 40 41 43 43 44 45 47 48 49 50 50 52 53 54 56 58 61 63 63 65 69 71 74 77 79 82 86 88 89 96 123 154 162 168 185 183 107 70 49 17 15 21 27 32 32 31 31 30 31 32 32 32 37 37 38 38 40 44 44 46 51 52 47 44 46 55 60 59 59 56 58 61 59 54 52 50 52 56 60 61 64 72 83 107 152 175 153 127 132 153 144 156 144 135 149 159 155 132 154 160 148 178 137 167 150 123 147 199 179 162 159 144 123 125 110 95 78 70 75 77 67 67 102 133 112 141 166 206 198 190 180 199 195 196 158 165 154 171 189
30 32 35 37 37 37 38 39 40 41 43 43 43 43 44 44 46 47 49 49 50 52 53 54 57 59 61 63 65 66 69 72 74 77 79 81 84 87 100 123 147 164 166 186 193 114 37 16 15 21 26 28 29 29 32 30 30 33 33 31 30 30 35 40 41 41 43 43 46 52 54 58 55 50 48 53 65 57 62 62 57 58 62 59 53 49 48 50 52 57 61 62 67 76 90 94 108 150 134 121 129 126 148 153 154 166 170 135 130 138 167 149 128 161 153 147 164 143 181 197 162 164 173 158 122 121 127 118 111 97 103 90 99 114 112 136 167 163 138 133 152 170 193 163 170 172 166 150 154 171
29 29 28 25 22 20 26 33 24 33 37 39 41 44 47 49 49 48 50 51 53 54 56 58 60 62 65 66 67 70 73 76 79 80 84 89 102 133 171 173 179 198 216 178 71 10 21 25 25 24 25 26 29 33 31 31 33 36 35 32 32 32 35 38 42 39 41 43 54 62 55 57 59 55 54 56 67 62 67 66 60 57 59 56 48 48 51 51 53 56 61 62 64 69 72 77 79 94 153 127 149 148 165 182 186 189 102 70 94 43 93 108 84 115 95 147 155 130 132 78 86 164 184 175 147 124 142 134 133 141 141 140 132 161 148 142 158 192 189 163 199 205 192 213 195 180 196 182 187 190
12 13 12 11 14 12 12 18 17 18 14 20 22 34 32 32 43 51 51 54 55 57 59 61 63 66 71 72 72 76 79 80 81 84 91 111 164 189 178 202 204 144 87 19 14 25 22 21 22 23 24 24 28 32 30 32 33 35 34 32 34 33 36 41 41 43 42 51 57 57 58 58 60 58 58 57 66 72 70 69 65 59 57 53 47 47 50 52 54 56 58 60 62 62 81 103 121 143 104 110 142 135 150 160 169 156 44 36 33 38 50 55 37 35 95 131 70 81 96 63 48 53 83 111 117 126 164 150 168 143 142 113 129 151 129 119 87 114 139 160 190 150 158 196 177 153 157 191 185 183
6 8 10 9 9 9 10 11 12 12 17 21 31 50 50 47 49 65 60 56 59 61 64 66 68 71 73 75 77 77 77 90 113 91 109 135 158 199 231 176 47 16 11 23 23 20 19 20 22 22 22 24 27 32 31 29 33 35 35 31 33 34 38 41 43 47 49 61 57 56 57 53 59 62 61 59 66 81 71 74 67 60 54 50 49 50 51 52 54 55 60 60 60 60 101 129 99 128 128 154 155 147 156 152 87 36 36 35 38 37 37 37 52 59 100 152 141 211 202 153 66 45 43 89 132 111 127 146 125 114 105 109 122 120 116 118 140 117 104 154 161 146 149 140 142 143 151 189 184 200
7 7 6 6 8 9 10 16 12 15 21 26 44 49 62 77 78 126 117 66 64 68 71 73 74 77 78 79 83 103 130 161 168 115 136 153 185 195 139 38 13 23 22 20 19 19 19 20 23 22 23 27 34 36 32 41 34 33 35 34 34 36 38 42 46 46 46 57 66 63 50 54 61 65 64 63 66 78 73 75 67 59 51 51 52 50 50 53 58 64 60 61 60 58 61 79 93 90 115 169 204 166 133 73 31 34 31 30 33 37 42 41 47 121 168 90 86 135 165 97 56 59 48 43 60 87 127 151 124 160 170 110 140 154 163 123 123 109 110 133 185 151 130 137 140 140 147 168 171 196
8 8 7 8 11 14 17 13 11 19 23 32 49 56 47 67 95 152 176 126 70 73 74 75 76 83 92 118 162 193 198 208 203 131 159 188 131 57 15 16 20 18 18 19 20 20 22 23 22 24 27 27 35 39 41 65 41 36 37 36 38 40 43 46 48 47 49 61 66 56 53 60 67 73 72 69 71 77 80 72 71 59 53 51 51 50 51 54 68 67 57 57 60 58 70 137 156 146 130 135 115 94 57 33 33 30 30 33 32 38 49 70 121 165 151 143 122 123 127 51 60 54 51 43 43 50 120 131 166 211 200 169 171 201 158 111 125 128 125 124 176 134 135 139 138 133 147 152 139 171
6 7 8 9 15 19 15 11 12 18 26 29 22 13 8 14 23 64 118 141 91 88 107 134 159 171 175 194 212 212 207 195 196 145 169 102 15 13 21 20 18 19 19 19 21 21 21 21 24 24 30 34 37 44 57 66 59 40 39 38 41 42 51 51 47 52 56 63 58 55 57 69 72 79 80 73 75 80 85 75 70 61 57 53 52 52 52 56 59 60 54 51 54 64 90 120 89 102 134 134 74 46 31 30 31 31 33 38 38 44 56 100 166 191 207 199 185 184 131 50 52 49 45 42 48 48 54 108 158 180 168 179 202 206 165 115 121 123 111 116 155 131 153 165 134 134 134 153 142 193
6 7 8 9 11 13 12 12 16 17 13 6 7 7 7 8 8 3 4 14 23 34 58 121 170 187 204 202 210 216 184 183 152 67 29 12 19 20 18 18 18 18 18 20 20 20 20 23 27 29 32 35 44 63 72 61 48 39 37 42 51 51 52 57 53 55 58 58 57 61 65 78 79 82 91 85 85 86 85 80 69 65 61 56 53 51 52 58 50 58 72 89 117 120 134 133 122 145 168 72 25 29 28 29 30 31 31 34 39 48 66 117 164 171 199 176 144 123 74 61 52 37 44 43 38 39 41 68 111 191 185 143 138 148 133 111 110 106 112 115 111 122 148 135 114 125 129 146 158 187
6 7 9 9 10 10 11 13 12 8 7 8 7 7 7 8 9 10 12 10 11 11 9 6 13 23 39 35 53 67 60 98 44 10 16 20 18 17 18 18 18 20 20 21 20 20 21 24 29 37 42 41 57 69 63 42 46 41 42 51 63 56 55 62 60 60 57 57 63 67 75 84 84 87 94 92 96 95 86 81 76 70 67 60 53 56 56 62 83 129 157 176 154 119 124 159 196 173 49 25 30 26 27 26 28 30 31 33 37 48 79 165 211 156 139 107 65 46 58 55 54 42 31 38 43 46 46 46 41 124 175 129 125 125 124 105 102 100 109 115 114 118 113 100 115 119 127 120 140 184
5 6 7 9 10 9 10 10 7 7 6 6 5 7 7 7 8 8 11 13 14 16 17 18 16 17 15 16 13 11 15 8 12 18 17 18 16 18 18 19 19 19 20 20 20 20 21 26 35 53 60 58 51 53 43 43 56 48 45 59 70 57 69 61 61 64 60 64 71 75 80 88 93 95 94 96 99 104 101 95 90 82 69 75 80 65 61 53 107 141 171 166 157 149 133 166 124 29 21 28 22 23 24 26 27 31 31 32 36 46 106 189 229 175 97 77 61 64 60 48 41 45 43 38 38 42 37 38 40 37 55 103 122 124 117 110 109 111 114 105 116 127 114 118 113 114 112 113 145 171
7 7 7 8 8 9 10 6 7 5 5 5 6 6 7 7 7 11 13 12 12 12 14 17 16 17 18 18 19 21 20 20 16 14 15 15 16 16 18 19 18 18 19 19 20 20 23 29 52 60 68 53 42 48 50 52 58 50 56 73 62 72 79 58 64 69 69 72 73 81 85 94 109 138 153 164 135 134 131 132 119 111 136 144 140 117 92 79 78 79 67 66 89 166 165 94 14 25 24 18 22 21 23 25 28 28 29 32 39 51 87 126 172 140 76 52 42 35 41 38 37 40 39 32 32 34 33 35 40 43 38 48 66 107 114 108 107 105 110 103 113 124 109 115 108 113 116 118 156 147
6 6 6 6 7 7 6 7 6 5 5 6 7 7 8 8 8 10 9 9 11 12 15 17 17 19 17 15 16 18 18 17 13 13 14 15 15 15 16 18 18 19 19 18 19 21 28 46 52 40 40 35 45 51 53 52 52 60 83 96 74 72 83 67 67 74 78 87 111 114 122 138 160 188 188 175 153 194 201 185 168 136 158 188 185 158 139 160 114 83 73 61 75 85 49 25 24 21 18 19 21 22 24 25 25 27 29 33 36 49 50 67 91 79 53 45 37 34 32 34 32 32 32 35 32 31 33 36 35 36 36 36 38 48 97 107 103 105 108 101 107 112 105 106 106 112 115 122 136 146
4 4 5 5 6 6 5 5 4 5 10 9 7 8 9 9 9 9 8 11 13 14 13 17 19 19 19 17 17 16 17 19 15 11 13 15 14 15 15 16 17 17 18 18 20 23 33 42 29 33 33 41 48 50 59 59 65 75 71 80 81 66 72 75 83 102 100 107 145 143 149 156 177 198 173 170 174 207 212 216 214 183 158 174 162 132 135 135 164 154 130 111 90 33 20 24 21 19 19 19 20 22 24 23 24 27 26 28 32 33 39 53 57 54 44 39 36 35 32 30 31 29 28 31 29 30 31 31 33 34 36 40 41 41 52 94 109 106 105 103 104 105 110 108 111 111 116 101 100 113
4 4 4 4 6 6 4 4 6 11 12 8 8 9 7 8 9 9 10 11 12 13 13 13 15 15 16 19 22 26 25 21 21 14 13 14 14 15 15 16 17 17 18 18 24 26 29 26 28 33 35 47 53 55 65 81 74 58 50 63 78 72 75 86 108 146 124 137 188 207 205 201 192 194 201 226 235 213 188 198 202 193 207 197 155 138 153 174 163 155 151 159 54 16 23 23 19 18 18 18 17 18 21 23 22 26 25 25 27 32 40 41 40 46 40 32 32 31 29 29 29 28 29 31 34 28 28 31 33 29 29 35 39 38 39 47 83 107 109 107 112 105 102 97 85 82 93 95 124 107
4 5 3 5 5 3 6 6 7 8 7 7 5 6 7 8 10 9 9 11 11 13 12 13 14 16 19 21 27 33 27 22 20 14 13 12 14 15 15 15 18 18 18 20 21 23 28 29 30 34 40 46 50 59 59 65 57 50 70 87 93 91 112 154 172 167 155 172 197 216 221 196 186 178 163 202 217 210 182 189 180 178 180 201 191 174 172 174 140 161 154 51 19 26 21 22 18 18 19 19 17 19 22 23 23 23 25 26 28 30 32 33 35 37 36 28 30 31 31 31 30 28 27 27 29 29 31 29 30 28 29 35 38 36 39 44 45 75 105 95 92 87 92 90 98 114 110 123 140 113
4 4 4 4 3 7 8 9 5 6 7 8 6 8 8 9 10 9 9 9 9 10 14 15 15 19 26 27 25 26 24 26 20 13 12 13 15 15 13 16 19 18 18 22 22 22 29 33 36 35 47 48 51 61 62 60 53 63 79 100 98 134 175 186 203 192 203 215 219 200 185 185 181 159 142 159 177 171 168 173 154 148 137 164 187 177 130 81 57 82 63 18 26 20 22 19 18 18 19 19 20 20 22 22 25 24 25 29 29 29 30 30 35 31 36 34 29 32 34 29 27 25 24 28 25 25 29 28 26 25 26 31 33 34 35 40 41 35 48 81 106 100 105 111 112 114 111 124 132 118
3 4 3 3 9 10 6 7 4 6 7 7 7 7 8 10 9 9 11 10 11 11 14 19 20 21 20 20 23 17 23 24 22 17 12 13 12 14 15 18 16 20 22 22 23 24 28 33 40 48 57 48 62 63 72 72 63 87 117 181 184 169 177 176 186 194 218 230 229 211 201 210 189 178 162 162 163 158 157 177 160 136 154 178 161 111 74 74 63 35 24 28 20 19 19 17 19 20 19 20 23 21 22 23 22 24 24 26 26 25 28 30 33 32 30 33 30 27 27 26 26 25 24 27 27 27 27 26 27 27 24 25 24 27 28 30 39 46 38 61 103 101 95 99 99 104 101 108 123 117
2 3 3 9 10 4 4 4 5 7 7 6 7 8 9 9 10 10 11 11 12 13 15 17 17 16 19 22 25 28 25 23 21 17 10 13 18 15 14 17 19 20 17 20 23 23 28 36 45 53 48 61 69 71 92 93 106 132 122 148 163 157 205 209 192 214 228 230 227 218 217 222 198 208 207 183 194 194 174 160 151 135 166 190 103 93 77 62 41 30 31 25 19 21 20 19 21 21 19 20 21 20 22 20 21 25 25 22 23 22 26 28 28 28 29 26 31 31 29 28 27 29 29 25 26 27 27 27 25 27 29 28 31 32 36 37 37 42 43 36 47 80 102 105 102 112 102 116 114 121
2 4 9 8 4 5 6 7 7 7 7 8 8 8 8 8 8 11 10 10 10 16 20 17 14 13 20 23 30 31 25 22 23 22 15 10 16 15 18 22 24 24 21 20 22 23 30 45 41 45 44 66 79 101 104 116 118 123 131 160 178 189 207 199 197 208 215 227 230 231 229 226 223 230 218 191 216 222 185 162 176 193 170 170 114 89 71 42 33 38 32 24 22 22 20 21 23 21 21 21 19 24 22 21 22 22 23 22 22 23 24 26 31 28 27 26 26 25 25 25 27 29 29 28 26 27 25 29 28 25 28 29 30 33 35 35 31 37 45 40 50 43 64 97 105 108 103 106 105 116
3 6 6 3 5 8 7 8 6 7 6 7 7 7 7 7 8 9 13 11 12 18 15 13 12 14 20 21 18 23 25 26 25 27 28 16 11 15 19 19 24 23 22 21 24 26 34 37 45 58 78 94 103 93 81 69 74 82 102 170 174 162 202 212 197 207 210 221 228 229 230 231 230 229 224 208 214 211 190 172 167 159 115 118 129 88 50 42 43 40 32 26 25 20 22 23 23 19 20 21 22 23 23 23 24 23 22 23 23 24 25 23 27 24 23 27 23 21 20 22 21 22 22 25 26 21 22 23 26 26 23 26 33 32 34 36 34 37 44 43 44 46 44 49 90 109 104 101 96 105
5 3 3 7 9 8 7 6 5 5 5 6 5 5 7 7 7 7 8 10 13 18 17 14 15 19 20 20 20 19 24 28 26 28 26 22 19 18 21 32 27 32 35 39 42 37 46 67 76 85 76 59 50 50 54 62 68 75 91 150 152 135 194 198 172 186 195 215 230 228 223 223 221 218 221 223 214 186 192 194 156 125 120 96 68 57 53 45 39 35 29 29 23 23 26 22 18 22 23 23 23 22 25 25 24 22 23 24 22 24 24 21 25 24 21 24 22 21 24 23 22 23 22 22 25 23 21 21 21 26 25 26 32 30 31 33 36 39 41 46 39 38 46 42 44 74 98 102 94 96
3 4 7 7 6 6 5 4 4 5 5 5 6 5 6 7 10 10 9 9 15 14 16 17 18 19 22 21 21 22 24 25 28 27 25 39 30 19 27 44 38 36 42 37 37 36 42 49 43 38 37 41 49 54 58 63 68 76 91 132 142 129 180 190 157 162 167 206 237 225 225 232 219 208 212 216 198 184 171 162 146 114 95 79 67 64 51 40 47 37 33 32 26 27 23 20 18 20 22 23 22 23 23 22 23 22 22 22 22 24 24 20 22 23 21 20 23 23 19 22 22 23 20 20 21 21 22 24 24 25 27 25 23 26 31 33 31 35 41 45 42 34 41 44 33 34 61 81 99 101
3 5 5 3 3 4 5 5 5 4 5 5 6 5 7 8 8 8 7 9 14 13 13 18 20 17 18 20 20 22 25 25 34 38 62 55 25 24 24 22 28 30 31 31 29 28 29 31 35 40 46 48 49 53 59 64 69 75 89 119 125 128 176 183 152 152 166 204 233 219 219 237 217 221 225 212 197 182 144 107 90 82 69 62 60 47 36 45 47 33 40 37 27 23 21 21 22 24 25 25 24 24 23 22 22 22 23 23 21 23 22 21 20 23 22 23 20 21 20 20 18 19 21 22 21 19 21 21 22 25 22 23 24 21 28 32 31 37 41 40 47 38 37 48 47 40 38 42 80 101
4 4 3 4 5 5 4 3 4 4 5 5 7 7 7 9 8 6 6 9 8 14 16 15 13 8 15 16 18 30 44 41 48 61 47 25 26 26 26 29 28 27 27 27 30 33 37 37 41 45 46 50 52 56 60 64 68 74 86 108 110 122 169 176 145 142 162 202 224 216 216 231 212 221 227 198 172 119 100 97 85 69 65 64 48 45 42 46 42 40 41 32 24 23 22 24 24 23 22 23 23 23 22 23 22 22 22 20 19 23 21 19 18 20 26 21 23 21 21 21 20 22 20 17 23 22 20 19 19 22 22 22 25 29 33 34 39 42 46 44 44 48 34 42 55 47 37 36 41 86
3 3 4 5 5 4 3 3 4 4 4 6 8 5 4 6 8 8 9 9 6 9 19 17 7 12 20 24 29 54 48 32 30 24 24 27 28 27 27 28 29 29 30 30 31 33 35 36 39 42 45 49 53 56 60 65 68 74 85 101 106 122 163 166 138 130 151 197 217 214 217 224 210 214 172 121 97 89 85 81 76 71 67 57 48 48 48 43 40 40 37 28 29 26 26 23 21 21 22 22 22 21 21 22 22 21 22 17 21 24 21 20 18 18 25 25 20 20 24 29 29 29 31 29 31 30 32 31 31 31 30 32 32 27 31 29 31 33 37 42 36 41 40 37 42 45 44 40 38 49
3 3 5 4 4 3 4 4 7 5 5 6 6 4 5 9 9 8 12 8 11 10 17 14 13 15 18 29 31 34 25 20 23 26 28 28 28 28 29 30 30 30 31 31 33 34 34 37 39 43 46 50 54 55 60 65 67 73 83 96 103 123 154 157 134 125 152 197 212 211 214 218 210 213 175 91 80 79 76 74 71 69 58 48 46 49 42 43 43 36 31 31 30 25 25 23 22 21 23 23 23 21 21 21 21 20 19 18 21 23 18 18 23 18 15 21 29 22 16 21 21 19 20 20 19 19 22 25 24 22 20 25 29 25 24 25 30 32 33 40 43 39 45 45 42 43 45 44 43 37
2 3 3 2 3 3 8 6 4 4 6 6 6 8 9 9 7 8 5 4 9 11 14 33 40 24 32 22 21 24 23 24 26 28 28 29 29 29 29 30 32 32 32 32 34 36 37 38 41 44 47 51 54 57 60 65 67 73 80 91 101 116 138 144 131 129 162 195 209 208 210 212 210 194 128 77 76 75 71 70 63 58 54 47 50 44 43 41 58 47 29 32 27 23 23 21 20 24 25 23 22 22 20 21 20 20 20 21 21 22 18 19 20 18 17 16 21 30 29 20 18 18 19 21 21 21 21 18 19 19 21 19 16 18 21 19 19 24 25 26 34 36 36 40 37 39 39 39 38 34
9 10 10 12 11 11 9 10 16 19 9 7 9 9 11 8 7 14 25 28 27 25 32 34 46 32 24 17 18 21 24 25 27 28 28 29 30 29 30 31 32 33 34 34 35 37 39 40 43 45 48 51 54 57 60 63 66 71 78 86 95 106 128 133 124 127 157 190 204 206 208 210 193 100 76 75 71 67 68 62 59 52 46 48 46 42 47 38 44 58 34 29 24 23 22 20 25 25 23 22 20 20 20 19 19 19 18 20 19 20 17 16 15 17 17 19 17 15 26 35 30 23 19 18 17 18 16 17 18 18 17 20 22 19 20 22 21 21 24 26 33 40 35 38 38 38 39 38 36 32
21 24 25 22 20 24 29 26 23 21 8 6 7 16 29 29 36 42 44 25 15 19 42 24 15 15 15 19 21 23 24 26 28 28 29 30 30 30 30 31 32 33 33 33 35 36 38 40 41 44 46 50 52 55 58 62 65 73 78 80 87 101 120 127 116 119 153 183 196 205 206 204 198 115 71 69 62 59 62 60 55 46 42 43 42 44 42 28 44 57 31 27 22 22 19 24 26 21 20 19 19 19 20 19 18 19 19 18 15 15 14 14 15 17 15 16 14 14 15 15 27 34 30 23 17 13 14 17 19 21 19 17 21 18 18 18 17 22 26 25 29 37 38 34 37 35 38 36 37 30
10 9 10 18 14 18 22 14 13 14 21 32 34 34 51 40 32 26 28 46 31 26 29 20 15 17 18 20 22 23 23 25 26 28 28 29 30 30 30 31 32 33 33 34 35 35 38 39 40 43 44 48 51 54 56 59 61 75 76 76 83 95 109 117 114 119 154 183 194 201 202 204 193 94 55 55 55 58 52 48 49 43 40 41 41 46 39 45 46 37 36 24 21 20 20 32 27 19 18 18 20 19 18 18 18 18 19 18 18 20 16 15 17 16 17 14 12 14 16 16 15 13 15 24 29 25 16 13 16 16 18 16 15 16 14 16 16 16 19 19 24 30 37 36 35 36 38 36 35 36
9 8 10 11 20 32 20 18 29 33 30 25 28 23 23 21 24 18 18 20 25 19 13 14 16 17 19 20 22 22 23 24 26 26 27 28 28 29 29 30 31 31 32 32 33 34 36 38 39 41 42 44 48 50 53 55 58 65 74 73 78 85 96 100 102 112 148 177 190 193 198 191 88 51 51 46 51 47 41 40 37 33 37 37 40 36 39 63 38 33 29 22 22 19 25 33 31 17 18 18 18 17 18 16 15 17 18 17 21 17 14 13 15 14 14 16 15 13 16 13 13 17 15 15 15 19 30 29 25 21 17 12 13 13 14 15 15 17 19 19 18 24 28 36 35 37 37 39 38 42
11 10 14 28 41 35 33 37 30 27 21 22 26 22 18 15 13 13 13 13 12 13 15 16 16 17 19 20 21 22 22 24 25 24 25 26 27 27 27 28 29 30 31 31 32 33 34 34 37 39 40 42 45 47 49 51 54 58 63 68 75 78 86 91 92 103 132 168 182 184 198 129 41 49 45 45 38 36 35 36 33 30 33 34 36 34 50 33 32 29 24 21 19 22 27 28 31 20 17 17 16 15 15 16 14 19 16 15 17 14 14 12 10 11 12 15 15 14 13 13 14 12 12 15 15 14 16 15 21 28 25 21 15 15 19 18 16 18 17 18 15 18 23 29 35 35 35 37 36 39
